<?xml version="1.0" encoding="UTF-8" standalone="no"?>
<!DOCTYPE svg PUBLIC "-//W3C//DTD SVG 1.1//EN" "http://www.w3.org/Graphics/SVG/1.1/DTD/svg11.dtd">
<svg xmlns="http://www.w3.org/2000/svg" version="1.1" viewBox="0.00 0.00 256.00 256.00">
<path fill="#ffffff" d="
  M 39.68 207.27
  C 19.40 217.86 13.88 196.36 13.17 181.88
  Q 12.54 169.13 14.23 156.07
  Q 18.65 121.86 30.62 88.28
  C 34.86 76.40 42.10 62.23 52.49 54.56
  Q 66.48 44.22 83.14 46.36
  Q 89.66 47.19 101.41 50.42
  Q 121.83 56.04 141.91 53.05
  Q 151.76 51.58 164.27 48.02
  Q 181.62 43.08 196.63 50.36
  C 211.90 57.77 220.58 74.72 225.94 89.96
  Q 234.73 114.95 239.70 142.76
  Q 243.31 162.93 242.84 180.37
  Q 242.64 188.04 240.53 196.02
  C 237.42 207.78 228.68 213.70 217.09 207.84
  Q 210.93 204.72 206.33 200.33
  Q 198.40 192.76 190.39 182.83
  C 181.96 172.37 171.37 169.64 158.63 169.62
  Q 128.35 169.57 96.60 169.58
  C 83.95 169.59 73.63 172.65 65.28 183.00
  Q 56.64 193.71 48.41 201.26
  Q 44.74 204.63 39.68 207.27
  Z
  M 187.09 89.78
  A 9.89 9.89 0.0 0 0 177.20 79.89
  A 9.89 9.89 0.0 0 0 167.31 89.78
  A 9.89 9.89 0.0 0 0 177.20 99.67
  A 9.89 9.89 0.0 0 0 187.09 89.78
  Z
  M 99.00 111.58
  A 20.21 20.21 0.0 0 0 78.79 91.37
  A 20.21 20.21 0.0 0 0 58.58 111.58
  A 20.21 20.21 0.0 0 0 78.79 131.79
  A 20.21 20.21 0.0 0 0 99.00 111.58
  Z
  M 165.42 111.62
  A 9.88 9.88 0.0 0 0 155.54 101.74
  A 9.88 9.88 0.0 0 0 145.66 111.62
  A 9.88 9.88 0.0 0 0 155.54 121.50
  A 9.88 9.88 0.0 0 0 165.42 111.62
  Z
  M 208.76 111.63
  A 9.87 9.87 0.0 0 0 198.89 101.76
  A 9.87 9.87 0.0 0 0 189.02 111.63
  A 9.87 9.87 0.0 0 0 198.89 121.50
  A 9.87 9.87 0.0 0 0 208.76 111.63
  Z
  M 187.09 133.36
  A 9.89 9.89 0.0 0 0 177.20 123.47
  A 9.89 9.89 0.0 0 0 167.31 133.36
  A 9.89 9.89 0.0 0 0 177.20 143.25
  A 9.89 9.89 0.0 0 0 187.09 133.36
  Z"
/>
</svg>
