<?xml version="1.0" encoding="UTF-8" standalone="no"?>
<!DOCTYPE svg PUBLIC "-//W3C//DTD SVG 1.1//EN" "http://www.w3.org/Graphics/SVG/1.1/DTD/svg11.dtd">
<svg xmlns="http://www.w3.org/2000/svg" version="1.1" viewBox="0.00 0.00 952.00 273.00">
<g stroke-width="2.00" fill="none" stroke-linecap="butt">
<path stroke="#808080" vector-effect="non-scaling-stroke" d="
  M 272.25 12.76
  A 0.27 0.27 0.0 0 0 271.98 12.49
  L 12.52 12.49
  A 0.27 0.27 0.0 0 0 12.25 12.76
  L 12.25 257.48
  A 0.27 0.27 0.0 0 0 12.52 257.75
  L 271.98 257.75
  A 0.27 0.27 0.0 0 0 272.25 257.48
  L 272.25 12.76"
/>
<path stroke="#808080" vector-effect="non-scaling-stroke" d="
  M 854.94 67.49
  C 836.72 54.56 816.23 49.56 793.51 52.55
  Q 765.59 56.22 745.55 77.34
  C 731.61 92.04 725.88 111.33 726.87 131.55
  Q 728.66 168.05 757.88 189.76
  C 773.49 201.35 793.73 205.19 813.55 203.82
  Q 840.43 201.96 860.23 184.54
  C 880.97 166.27 886.84 140.09 882.91 113.21
  Q 878.70 84.36 854.94 67.49"
/>
<path stroke="#808080" vector-effect="non-scaling-stroke" d="
  M 512.25 194.50
  L 491.00 194.50
  Q 490.75 194.50 490.75 194.75
  L 490.75 201.76
  Q 490.75 202.00 490.99 202.00
  Q 529.74 202.02 575.75 201.84
  Q 594.36 201.77 606.51 198.74
  Q 619.33 195.54 630.46 187.57
  C 654.61 170.28 667.12 145.49 662.94 115.31
  Q 659.55 90.81 640.44 73.72
  C 622.45 57.61 599.81 53.65 576.33 53.70
  Q 531.40 53.80 491.02 53.73
  A 0.27 0.27 0.0 0 0 490.75 54.00
  L 490.75 61.00
  A 0.25 0.25 0.0 0 0 491.00 61.25
  L 512.75 61.25
  A 0.25 0.25 0.0 0 1 513.00 61.50
  L 513.00 193.75
  Q 513.00 194.50 512.25 194.50"
/>
<path stroke="#808080" vector-effect="non-scaling-stroke" d="
  M 373.18 122.66
  Q 376.11 122.42 384.38 120.42
  C 398.79 116.94 417.51 111.00 421.48 94.61
  C 425.82 76.68 411.98 65.20 396.96 59.59
  C 385.33 55.24 373.30 54.01 360.92 54.53
  C 348.26 55.06 336.09 58.18 326.10 65.91
  Q 319.53 71.00 317.68 77.65
  C 314.15 90.28 324.85 97.92 336.07 98.49
  C 344.42 98.92 354.06 94.48 354.99 85.22
  C 355.75 77.67 348.97 73.14 343.38 69.88
  Q 342.05 69.11 341.71 67.66
  Q 341.54 66.99 341.96 66.44
  Q 342.64 65.56 343.61 65.07
  Q 352.65 60.53 362.99 61.67
  Q 374.86 62.97 378.19 73.82
  Q 382.49 87.86 378.97 102.67
  C 376.41 113.46 369.38 118.49 358.67 120.00
  Q 351.91 120.96 345.62 120.55
  Q 339.99 120.19 335.24 120.35
  Q 332.41 120.44 331.39 123.08
  C 330.31 125.88 332.39 127.98 335.10 127.99
  Q 342.49 128.02 351.38 127.52
  C 379.36 125.97 385.74 148.18 383.25 171.02
  C 381.58 186.29 374.31 197.66 357.52 197.28
  C 351.18 197.14 342.37 196.04 337.07 192.26
  Q 335.49 191.14 336.38 189.23
  A 2.33 2.32 -88.9 0 1 337.60 188.05
  Q 344.70 185.01 348.64 180.38
  C 353.93 174.16 352.42 165.06 345.74 160.34
  Q 338.52 155.25 328.09 156.74
  C 319.89 157.91 312.26 163.74 311.72 172.52
  Q 311.16 181.57 317.13 188.36
  C 330.29 203.33 350.82 205.42 369.55 204.68
  Q 381.18 204.22 391.70 201.24
  C 405.61 197.31 421.08 187.69 425.19 173.70
  Q 430.74 154.83 417.50 140.88
  Q 410.26 133.25 401.02 129.85
  Q 386.08 124.34 373.22 124.14
  Q 358.22 123.90 373.18 122.66"
/>
<path stroke="#80720e" vector-effect="non-scaling-stroke" d="
  M 534.49 229.78
  L 535.40 228.91
  A 0.41 0.41 0.0 0 0 535.42 228.33
  L 530.53 223.18
  A 0.81 0.75 -43.5 0 0 529.42 223.20
  L 529.09 223.51
  A 0.81 0.75 -43.5 0 0 529.02 224.61
  L 533.91 229.76
  A 0.41 0.41 0.0 0 0 534.49 229.78"
/>
<path stroke="#80720e" vector-effect="non-scaling-stroke" d="
  M 486.54 238.01
  Q 490.39 233.98 488.46 229.50
  Q 486.03 223.82 478.68 224.08
  Q 472.13 224.30 469.46 230.69
  Q 468.96 231.88 470.22 232.14
  L 475.53 233.25
  Q 476.31 233.42 476.64 232.69
  C 477.78 230.24 482.18 231.69 480.59 234.84
  Q 479.61 236.79 476.53 236.97
  Q 476.22 236.99 476.13 237.30
  L 475.17 240.61
  A 0.12 0.11 -82.6 0 0 475.28 240.76
  Q 479.15 240.72 481.46 242.93
  C 484.04 245.40 482.02 250.47 478.06 249.02
  Q 476.52 248.45 475.85 247.13
  Q 475.46 246.35 474.62 246.56
  L 469.24 247.89
  Q 468.06 248.18 468.54 249.30
  C 471.45 256.11 478.53 258.90 485.15 255.93
  Q 489.14 254.15 490.39 250.32
  Q 492.81 242.91 486.61 238.71
  Q 486.16 238.40 486.54 238.01"
/>
<path stroke="#80720e" vector-effect="non-scaling-stroke" d="
  M 515.00 239.21
  A 0.43 0.42 -77.6 0 1 515.60 238.82
  L 528.84 244.97
  A 0.29 0.29 0.0 0 0 529.21 244.85
  L 530.43 242.48
  Q 530.54 242.27 530.32 242.16
  Q 523.55 238.72 516.71 236.12
  Q 516.29 235.96 515.84 236.01
  Q 515.16 236.08 515.11 235.40
  Q 514.63 229.54 515.44 224.28
  Q 515.48 224.03 515.22 224.02
  L 512.30 224.00
  Q 512.04 224.00 512.04 224.27
  L 511.99 258.21
  Q 511.99 258.44 512.21 258.44
  L 514.78 258.43
  Q 515.00 258.43 515.00 258.22
  L 515.00 239.21"
/>
<path stroke="#80720e" vector-effect="non-scaling-stroke" d="
  M 350.34 252.44
  L 351.60 255.53
  Q 351.80 256.00 352.31 256.00
  L 360.17 256.00
  Q 361.09 256.00 360.71 255.17
  L 347.33 225.80
  A 3.12 3.11 -45.1 0 0 341.66 225.81
  L 328.26 255.25
  Q 327.92 256.00 328.74 256.00
  L 336.72 256.00
  A 0.78 0.78 0.0 0 0 337.45 255.50
  L 338.60 252.48
  Q 338.78 252.00 339.29 252.00
  L 349.69 252.00
  A 0.71 0.70 78.7 0 1 350.34 252.44"
/>
<path stroke="#80720e" vector-effect="non-scaling-stroke" d="
  M 403.35 252.45
  L 404.60 255.52
  Q 404.79 256.00 405.31 256.00
  L 413.05 256.00
  Q 414.09 256.00 413.66 255.06
  L 400.30 225.74
  A 3.08 3.08 0.0 0 0 394.69 225.74
  L 381.26 255.25
  Q 380.92 256.00 381.74 256.00
  L 389.45 256.00
  Q 390.23 256.00 390.51 255.28
  L 391.61 252.47
  Q 391.80 252.00 392.30 252.00
  L 402.69 252.00
  A 0.72 0.71 79.0 0 1 403.35 252.45"
/>
<path stroke="#80720e" vector-effect="non-scaling-stroke" d="
  M 434.57 239.38
  A 0.15 0.15 0.0 0 1 434.31 239.49
  Q 427.04 232.73 419.21 225.33
  Q 417.84 224.03 416.02 224.64
  Q 415.57 224.79 415.57 225.26
  L 415.56 255.54
  A 0.48 0.47 -0.0 0 0 416.04 256.01
  L 423.50 255.99
  A 0.50 0.49 -0.0 0 0 424.00 255.50
  L 424.01 241.86
  A 0.31 0.31 0.0 0 1 424.53 241.64
  L 439.99 256.74
  A 1.77 1.77 0.0 0 0 443.00 255.47
  L 443.00 225.44
  Q 443.00 225.26 442.82 225.20
  Q 441.70 224.83 434.83 225.05
  Q 434.57 225.05 434.57 225.32
  L 434.57 239.38"
/>
<path stroke="#80720e" vector-effect="non-scaling-stroke" d="
  M 312.38 248.14
  A 0.37 0.37 0.0 0 0 311.86 248.26
  Q 309.82 251.58 307.86 254.84
  Q 307.73 255.05 307.95 255.15
  Q 318.49 259.99 325.71 252.90
  C 329.47 249.21 329.08 244.46 329.07 239.66
  Q 329.06 232.06 328.78 225.30
  Q 328.77 225.00 328.47 225.00
  L 320.73 225.00
  Q 320.42 225.00 320.43 225.31
  Q 320.70 233.91 320.52 244.90
  Q 320.49 246.57 319.26 247.69
  Q 316.10 250.57 312.38 248.14"
/>
<path stroke="#80720e" vector-effect="non-scaling-stroke" d="
  M 371.54 246.78
  C 373.56 246.79 375.60 246.96 377.54 246.36
  C 385.87 243.80 389.13 234.44 382.57 228.10
  Q 379.55 225.18 375.52 225.07
  Q 369.99 224.93 363.10 225.01
  Q 362.57 225.02 362.57 225.55
  L 362.56 255.73
  Q 362.56 255.92 362.76 255.93
  Q 369.83 256.19 370.96 255.77
  Q 370.99 255.76 370.99 255.73
  L 371.01 247.31
  Q 371.01 246.78 371.54 246.78"
/>
<path stroke="#80720e" vector-effect="non-scaling-stroke" d="
  M 529.16 233.27
  L 530.13 232.38
  A 0.43 0.43 0.0 0 0 530.16 231.77
  L 525.62 226.83
  A 1.24 0.88 47.4 0 0 524.13 226.51
  L 523.82 226.80
  A 1.24 0.88 47.4 0 0 524.01 228.31
  L 528.55 233.25
  A 0.43 0.43 0.0 0 0 529.16 233.27"
/>
<path stroke="#80720e" vector-effect="non-scaling-stroke" d="
  M 552.11 235.67
  Q 551.49 232.42 552.69 230.29
  Q 552.86 230.00 552.53 230.00
  L 549.56 230.02
  Q 549.39 230.02 549.39 230.19
  L 549.42 235.29
  Q 549.42 236.00 548.71 236.00
  L 539.96 236.00
  Q 539.42 236.00 539.42 236.54
  L 539.40 245.45
  Q 539.40 245.99 539.95 245.99
  L 541.50 246.00
  Q 542.00 246.01 542.00 245.50
  L 542.00 239.09
  Q 542.00 238.43 542.66 238.43
  L 558.77 238.45
  Q 559.33 238.45 559.24 239.01
  Q 557.40 251.61 545.06 255.90
  A 0.53 0.53 0.0 0 0 544.85 256.76
  L 545.81 257.79
  A 0.86 0.86 0.0 0 0 546.74 258.01
  Q 557.43 253.91 560.72 244.42
  C 561.57 241.96 561.70 239.66 562.31 237.20
  Q 562.64 235.90 561.30 235.92
  L 552.56 236.03
  Q 552.18 236.04 552.11 235.67"
/>
<path stroke="#80720e" vector-effect="non-scaling-stroke" d="
  M 567.96 242.39
  A 0.29 0.29 0.0 0 0 568.45 242.62
  L 569.26 241.89
  A 0.29 0.29 0.0 0 1 569.45 241.82
  L 600.62 241.75
  A 0.29 0.29 0.0 0 0 600.91 241.46
  L 600.94 239.38
  A 0.29 0.29 0.0 0 0 600.65 239.09
  L 568.37 238.98
  A 0.29 0.29 0.0 0 0 568.08 239.26
  L 567.96 242.39"
/>
<path stroke="#ff8080" vector-effect="non-scaling-stroke" d="
  M 103.59 64.99
  A 0.50 0.50 0.0 0 0 103.59 65.71
  L 139.56 99.70
  A 0.50 0.50 0.0 0 0 140.24 99.70
  L 176.21 65.72
  A 0.50 0.50 0.0 0 0 176.21 65.00
  L 140.24 30.98
  A 0.50 0.50 0.0 0 0 139.56 30.97
  L 103.59 64.99"
/>
<path stroke="#8080d0" vector-effect="non-scaling-stroke" d="
  M 111.07 106.08
  C 107.37 107.84 105.74 118.62 105.28 122.68
  Q 104.83 126.63 105.46 130.51
  C 106.15 134.76 107.04 141.38 109.85 144.61
  Q 111.38 146.37 113.83 146.85
  Q 122.30 148.52 131.65 149.57
  Q 139.61 150.45 147.21 149.66
  Q 158.14 148.52 166.54 146.66
  C 171.82 145.48 172.69 138.81 173.65 134.54
  Q 175.91 124.49 172.93 114.20
  C 171.73 110.05 171.04 105.94 165.94 104.91
  Q 155.97 102.90 145.24 101.91
  Q 139.21 101.36 133.00 102.06
  Q 125.59 102.90 117.90 104.06
  Q 114.10 104.63 111.07 106.08"
/>
<path stroke="#d0c98b" vector-effect="non-scaling-stroke" d="
  M 126.62 156.17
  A 31.27 29.61 0.1 0 0 112.63 168.48"
/>
<path stroke="#b6b38b" vector-effect="non-scaling-stroke" d="
  M 112.63 168.48
  A 31.26 29.58 0.1 0 0 115.08 200.92
  A 31.18 29.51 0.2 0 0 130.39 211.12
  A 31.26 29.57 0.1 0 0 161.82 204.03"
/>
<path stroke="#d0c98b" vector-effect="non-scaling-stroke" d="
  M 161.82 204.03
  A 31.24 29.58 0.5 0 0 171.02 185.75"
/>
<path stroke="#e8de8c" vector-effect="non-scaling-stroke" d="
  M 171.02 185.75
  A 31.24 29.54 0.4 0 0 166.12 166.86
  A 31.25 29.57 0.1 0 0 142.01 153.45
  A 31.30 29.59 0.8 0 0 126.62 156.17"
/>
<path stroke="#b9a717" vector-effect="non-scaling-stroke" d="
  M 171.02 185.75
  Q 168.21 189.26 165.99 192.74
  Q 165.85 192.96 165.85 193.22
  Q 165.85 193.68 165.54 194.03
  Q 162.26 197.70 157.97 200.00
  Q 156.75 200.66 155.61 200.97
  Q 154.30 201.34 153.10 201.91
  Q 151.28 202.77 149.48 202.94
  Q 143.24 203.54 139.08 202.86
  Q 136.79 202.49 134.11 201.74
  Q 132.69 201.35 131.47 200.68
  Q 130.21 199.98 128.94 199.34
  Q 127.21 198.45 125.69 196.94
  Q 123.84 195.10 122.39 193.32
  Q 115.12 184.40 116.87 173.49
  Q 118.34 164.29 126.62 156.17"
/>
<path stroke="#877d16" vector-effect="non-scaling-stroke" d="
  M 161.82 204.03
  Q 160.25 202.91 159.18 204.25
  Q 158.79 204.74 158.19 204.92
  Q 155.53 205.69 152.66 206.60
  Q 150.12 207.40 147.17 207.61
  Q 143.36 207.88 140.13 207.44
  Q 134.78 206.71 127.67 203.48
  Q 126.97 203.16 126.41 202.61
  Q 125.79 202.01 124.81 201.72
  A 2.12 2.09 -12.3 0 1 123.86 201.12
  L 116.99 193.63
  A 1.50 0.49 40.7 0 1 116.50 192.82
  Q 116.42 192.18 115.96 191.74
  Q 115.39 191.19 115.05 190.45
  Q 112.92 185.65 112.52 180.98
  Q 112.52 180.96 112.50 180.95
  Q 112.37 180.92 112.24 180.88
  Q 112.12 180.85 112.12 180.72
  L 112.63 168.48"
/>
<path stroke="#c4c4c4" vector-effect="non-scaling-stroke" d="
  M 176.67 240.01
  A 36.79 6.21 0.0 0 0 139.88 233.80
  A 36.79 6.21 0.0 0 0 103.09 240.01
  A 36.79 6.21 0.0 0 0 139.88 246.22
  A 36.79 6.21 0.0 0 0 176.67 240.01"
/>
<path stroke="#808080" vector-effect="non-scaling-stroke" d="
  M 776.68 167.01
  C 777.45 182.32 783.74 195.03 800.42 196.37
  C 816.75 197.68 830.25 192.73 833.01 175.17
  Q 833.94 169.25 834.21 163.68
  Q 835.43 138.36 834.89 109.71
  Q 834.64 96.44 833.73 84.67
  Q 833.30 79.16 830.56 72.96
  C 825.90 62.42 817.24 59.32 806.15 59.19
  Q 798.01 59.10 791.85 61.52
  C 781.63 65.55 778.02 74.73 777.10 85.03
  Q 776.50 91.82 776.25 98.98
  Q 775.04 134.25 776.68 167.01"
/>
<path stroke="#808080" vector-effect="non-scaling-stroke" d="
  M 596.84 64.58
  Q 588.74 61.31 579.55 61.27
  Q 568.47 61.22 556.45 61.26
  A 0.46 0.45 -90.0 0 0 556.00 61.72
  L 556.00 194.21
  A 0.25 0.24 90.0 0 0 556.24 194.46
  C 568.54 194.62 580.71 195.27 592.52 191.63
  C 601.05 189.00 606.99 183.82 609.56 175.02
  C 613.22 162.52 614.10 149.64 614.57 136.29
  Q 615.23 117.76 613.67 99.25
  C 612.66 87.24 609.51 69.69 596.84 64.58"
/>
<path stroke="#e8d01a" vector-effect="non-scaling-stroke" d="
  M 152.21 157.82
  Q 152.19 157.77 152.15 157.73
  Q 152.03 157.63 151.87 157.58
  Q 144.63 155.78 141.26 156.38
  Q 138.74 156.83 136.31 157.28
  Q 133.88 157.72 132.54 158.71
  Q 131.02 159.82 129.40 160.50
  Q 128.79 160.75 128.66 161.39
  Q 128.57 161.80 128.23 162.04
  Q 124.53 164.57 123.11 169.50
  Q 121.11 176.46 122.29 181.28
  Q 122.40 181.73 122.68 182.11
  Q 123.13 182.73 123.11 183.50
  Q 123.10 183.86 123.32 184.15
  Q 124.12 185.18 124.11 186.53
  Q 124.11 187.04 124.39 187.46
  Q 130.31 196.33 139.58 198.26
  Q 144.22 199.23 150.02 197.91
  Q 151.69 197.53 153.19 196.82
  Q 154.70 196.12 156.17 195.55
  Q 157.33 195.11 159.56 192.72
  Q 159.68 192.59 159.85 192.55
  Q 160.03 192.51 160.21 192.46
  A 1.22 1.22 0.0 0 0 160.94 191.93
  Q 162.67 189.32 164.60 186.22
  Q 166.17 183.69 166.53 181.36
  Q 167.06 177.87 166.88 173.78
  Q 166.85 173.00 166.46 172.30
  Q 165.95 171.39 165.90 170.34
  Q 165.88 169.85 165.58 169.46
  Q 164.03 167.45 162.62 165.40
  Q 161.25 163.42 159.36 162.02
  Q 156.14 159.63 152.45 158.08
  Q 152.27 158.00 152.21 157.82"
/>
<path stroke="#80720e" vector-effect="non-scaling-stroke" d="
  M 341.57 245.50
  A 0.35 0.35 0.0 0 0 341.89 245.99
  L 347.10 246.00
  A 0.35 0.35 0.0 0 0 347.43 245.51
  L 344.83 239.70
  A 0.35 0.35 0.0 0 0 344.19 239.70
  L 341.57 245.50"
/>
<path stroke="#80720e" vector-effect="non-scaling-stroke" d="
  M 394.57 245.50
  A 0.35 0.35 0.0 0 0 394.89 246.00
  L 400.11 246.00
  A 0.35 0.35 0.0 0 0 400.43 245.50
  L 397.82 239.70
  A 0.35 0.35 0.0 0 0 397.18 239.70
  L 394.57 245.50"
/>
<path stroke="#80720e" vector-effect="non-scaling-stroke" d="
  M 371.00 233.20
  L 371.00 238.58
  A 0.43 0.43 0.0 0 0 371.43 239.01
  L 374.11 239.01
  A 3.87 3.00 0.0 0 0 377.98 236.01
  L 377.98 235.77
  A 3.87 3.00 -0.0 0 0 374.11 232.77
  L 371.43 232.77
  A 0.43 0.43 0.0 0 0 371.00 233.20"
/>
</g>
<path fill="#000000" d="
  M 0.00 0.00
  L 952.00 0.00
  L 952.00 273.00
  L 0.00 273.00
  L 0.00 0.00
  Z
  M 272.25 12.76
  A 0.27 0.27 0.0 0 0 271.98 12.49
  L 12.52 12.49
  A 0.27 0.27 0.0 0 0 12.25 12.76
  L 12.25 257.48
  A 0.27 0.27 0.0 0 0 12.52 257.75
  L 271.98 257.75
  A 0.27 0.27 0.0 0 0 272.25 257.48
  L 272.25 12.76
  Z
  M 854.94 67.49
  C 836.72 54.56 816.23 49.56 793.51 52.55
  Q 765.59 56.22 745.55 77.34
  C 731.61 92.04 725.88 111.33 726.87 131.55
  Q 728.66 168.05 757.88 189.76
  C 773.49 201.35 793.73 205.19 813.55 203.82
  Q 840.43 201.96 860.23 184.54
  C 880.97 166.27 886.84 140.09 882.91 113.21
  Q 878.70 84.36 854.94 67.49
  Z
  M 512.25 194.50
  L 491.00 194.50
  Q 490.75 194.50 490.75 194.75
  L 490.75 201.76
  Q 490.75 202.00 490.99 202.00
  Q 529.74 202.02 575.75 201.84
  Q 594.36 201.77 606.51 198.74
  Q 619.33 195.54 630.46 187.57
  C 654.61 170.28 667.12 145.49 662.94 115.31
  Q 659.55 90.81 640.44 73.72
  C 622.45 57.61 599.81 53.65 576.33 53.70
  Q 531.40 53.80 491.02 53.73
  A 0.27 0.27 0.0 0 0 490.75 54.00
  L 490.75 61.00
  A 0.25 0.25 0.0 0 0 491.00 61.25
  L 512.75 61.25
  A 0.25 0.25 0.0 0 1 513.00 61.50
  L 513.00 193.75
  Q 513.00 194.50 512.25 194.50
  Z
  M 373.18 122.66
  Q 376.11 122.42 384.38 120.42
  C 398.79 116.94 417.51 111.00 421.48 94.61
  C 425.82 76.68 411.98 65.20 396.96 59.59
  C 385.33 55.24 373.30 54.01 360.92 54.53
  C 348.26 55.06 336.09 58.18 326.10 65.91
  Q 319.53 71.00 317.68 77.65
  C 314.15 90.28 324.85 97.92 336.07 98.49
  C 344.42 98.92 354.06 94.48 354.99 85.22
  C 355.75 77.67 348.97 73.14 343.38 69.88
  Q 342.05 69.11 341.71 67.66
  Q 341.54 66.99 341.96 66.44
  Q 342.64 65.56 343.61 65.07
  Q 352.65 60.53 362.99 61.67
  Q 374.86 62.97 378.19 73.82
  Q 382.49 87.86 378.97 102.67
  C 376.41 113.46 369.38 118.49 358.67 120.00
  Q 351.91 120.96 345.62 120.55
  Q 339.99 120.19 335.24 120.35
  Q 332.41 120.44 331.39 123.08
  C 330.31 125.88 332.39 127.98 335.10 127.99
  Q 342.49 128.02 351.38 127.52
  C 379.36 125.97 385.74 148.18 383.25 171.02
  C 381.58 186.29 374.31 197.66 357.52 197.28
  C 351.18 197.14 342.37 196.04 337.07 192.26
  Q 335.49 191.14 336.38 189.23
  A 2.33 2.32 -88.9 0 1 337.60 188.05
  Q 344.70 185.01 348.64 180.38
  C 353.93 174.16 352.42 165.06 345.74 160.34
  Q 338.52 155.25 328.09 156.74
  C 319.89 157.91 312.26 163.74 311.72 172.52
  Q 311.16 181.57 317.13 188.36
  C 330.29 203.33 350.82 205.42 369.55 204.68
  Q 381.18 204.22 391.70 201.24
  C 405.61 197.31 421.08 187.69 425.19 173.70
  Q 430.74 154.83 417.50 140.88
  Q 410.26 133.25 401.02 129.85
  Q 386.08 124.34 373.22 124.14
  Q 358.22 123.90 373.18 122.66
  Z
  M 534.49 229.78
  L 535.40 228.91
  A 0.41 0.41 0.0 0 0 535.42 228.33
  L 530.53 223.18
  A 0.81 0.75 -43.5 0 0 529.42 223.20
  L 529.09 223.51
  A 0.81 0.75 -43.5 0 0 529.02 224.61
  L 533.91 229.76
  A 0.41 0.41 0.0 0 0 534.49 229.78
  Z
  M 486.54 238.01
  Q 490.39 233.98 488.46 229.50
  Q 486.03 223.82 478.68 224.08
  Q 472.13 224.30 469.46 230.69
  Q 468.96 231.88 470.22 232.14
  L 475.53 233.25
  Q 476.31 233.42 476.64 232.69
  C 477.78 230.24 482.18 231.69 480.59 234.84
  Q 479.61 236.79 476.53 236.97
  Q 476.22 236.99 476.13 237.30
  L 475.17 240.61
  A 0.12 0.11 -82.6 0 0 475.28 240.76
  Q 479.15 240.72 481.46 242.93
  C 484.04 245.40 482.02 250.47 478.06 249.02
  Q 476.52 248.45 475.85 247.13
  Q 475.46 246.35 474.62 246.56
  L 469.24 247.89
  Q 468.06 248.18 468.54 249.30
  C 471.45 256.11 478.53 258.90 485.15 255.93
  Q 489.14 254.15 490.39 250.32
  Q 492.81 242.91 486.61 238.71
  Q 486.16 238.40 486.54 238.01
  Z
  M 515.00 239.21
  A 0.43 0.42 -77.6 0 1 515.60 238.82
  L 528.84 244.97
  A 0.29 0.29 0.0 0 0 529.21 244.85
  L 530.43 242.48
  Q 530.54 242.27 530.32 242.16
  Q 523.55 238.72 516.71 236.12
  Q 516.29 235.96 515.84 236.01
  Q 515.16 236.08 515.11 235.40
  Q 514.63 229.54 515.44 224.28
  Q 515.48 224.03 515.22 224.02
  L 512.30 224.00
  Q 512.04 224.00 512.04 224.27
  L 511.99 258.21
  Q 511.99 258.44 512.21 258.44
  L 514.78 258.43
  Q 515.00 258.43 515.00 258.22
  L 515.00 239.21
  Z
  M 350.34 252.44
  L 351.60 255.53
  Q 351.80 256.00 352.31 256.00
  L 360.17 256.00
  Q 361.09 256.00 360.71 255.17
  L 347.33 225.80
  A 3.12 3.11 -45.1 0 0 341.66 225.81
  L 328.26 255.25
  Q 327.92 256.00 328.74 256.00
  L 336.72 256.00
  A 0.78 0.78 0.0 0 0 337.45 255.50
  L 338.60 252.48
  Q 338.78 252.00 339.29 252.00
  L 349.69 252.00
  A 0.71 0.70 78.7 0 1 350.34 252.44
  Z
  M 403.35 252.45
  L 404.60 255.52
  Q 404.79 256.00 405.31 256.00
  L 413.05 256.00
  Q 414.09 256.00 413.66 255.06
  L 400.30 225.74
  A 3.08 3.08 0.0 0 0 394.69 225.74
  L 381.26 255.25
  Q 380.92 256.00 381.74 256.00
  L 389.45 256.00
  Q 390.23 256.00 390.51 255.28
  L 391.61 252.47
  Q 391.80 252.00 392.30 252.00
  L 402.69 252.00
  A 0.72 0.71 79.0 0 1 403.35 252.45
  Z
  M 434.57 239.38
  A 0.15 0.15 0.0 0 1 434.31 239.49
  Q 427.04 232.73 419.21 225.33
  Q 417.84 224.03 416.02 224.64
  Q 415.57 224.79 415.57 225.26
  L 415.56 255.54
  A 0.48 0.47 -0.0 0 0 416.04 256.01
  L 423.50 255.99
  A 0.50 0.49 -0.0 0 0 424.00 255.50
  L 424.01 241.86
  A 0.31 0.31 0.0 0 1 424.53 241.64
  L 439.99 256.74
  A 1.77 1.77 0.0 0 0 443.00 255.47
  L 443.00 225.44
  Q 443.00 225.26 442.82 225.20
  Q 441.70 224.83 434.83 225.05
  Q 434.57 225.05 434.57 225.32
  L 434.57 239.38
  Z
  M 312.38 248.14
  A 0.37 0.37 0.0 0 0 311.86 248.26
  Q 309.82 251.58 307.86 254.84
  Q 307.73 255.05 307.95 255.15
  Q 318.49 259.99 325.71 252.90
  C 329.47 249.21 329.08 244.46 329.07 239.66
  Q 329.06 232.06 328.78 225.30
  Q 328.77 225.00 328.47 225.00
  L 320.73 225.00
  Q 320.42 225.00 320.43 225.31
  Q 320.70 233.91 320.52 244.90
  Q 320.49 246.57 319.26 247.69
  Q 316.10 250.57 312.38 248.14
  Z
  M 371.54 246.78
  C 373.56 246.79 375.60 246.96 377.54 246.36
  C 385.87 243.80 389.13 234.44 382.57 228.10
  Q 379.55 225.18 375.52 225.07
  Q 369.99 224.93 363.10 225.01
  Q 362.57 225.02 362.57 225.55
  L 362.56 255.73
  Q 362.56 255.92 362.76 255.93
  Q 369.83 256.19 370.96 255.77
  Q 370.99 255.76 370.99 255.73
  L 371.01 247.31
  Q 371.01 246.78 371.54 246.78
  Z
  M 529.16 233.27
  L 530.13 232.38
  A 0.43 0.43 0.0 0 0 530.16 231.77
  L 525.62 226.83
  A 1.24 0.88 47.4 0 0 524.13 226.51
  L 523.82 226.80
  A 1.24 0.88 47.4 0 0 524.01 228.31
  L 528.55 233.25
  A 0.43 0.43 0.0 0 0 529.16 233.27
  Z
  M 552.11 235.67
  Q 551.49 232.42 552.69 230.29
  Q 552.86 230.00 552.53 230.00
  L 549.56 230.02
  Q 549.39 230.02 549.39 230.19
  L 549.42 235.29
  Q 549.42 236.00 548.71 236.00
  L 539.96 236.00
  Q 539.42 236.00 539.42 236.54
  L 539.40 245.45
  Q 539.40 245.99 539.95 245.99
  L 541.50 246.00
  Q 542.00 246.01 542.00 245.50
  L 542.00 239.09
  Q 542.00 238.43 542.66 238.43
  L 558.77 238.45
  Q 559.33 238.45 559.24 239.01
  Q 557.40 251.61 545.06 255.90
  A 0.53 0.53 0.0 0 0 544.85 256.76
  L 545.81 257.79
  A 0.86 0.86 0.0 0 0 546.74 258.01
  Q 557.43 253.91 560.72 244.42
  C 561.57 241.96 561.70 239.66 562.31 237.20
  Q 562.64 235.90 561.30 235.92
  L 552.56 236.03
  Q 552.18 236.04 552.11 235.67
  Z
  M 567.96 242.39
  A 0.29 0.29 0.0 0 0 568.45 242.62
  L 569.26 241.89
  A 0.29 0.29 0.0 0 1 569.45 241.82
  L 600.62 241.75
  A 0.29 0.29 0.0 0 0 600.91 241.46
  L 600.94 239.38
  A 0.29 0.29 0.0 0 0 600.65 239.09
  L 568.37 238.98
  A 0.29 0.29 0.0 0 0 568.08 239.26
  L 567.96 242.39
  Z"
/>
<path fill="#ffffff" d="
  M 272.25 257.48
  A 0.27 0.27 0.0 0 1 271.98 257.75
  L 12.52 257.75
  A 0.27 0.27 0.0 0 1 12.25 257.48
  L 12.25 12.76
  A 0.27 0.27 0.0 0 1 12.52 12.49
  L 271.98 12.49
  A 0.27 0.27 0.0 0 1 272.25 12.76
  L 272.25 257.48
  Z
  M 103.59 64.99
  A 0.50 0.50 0.0 0 0 103.59 65.71
  L 139.56 99.70
  A 0.50 0.50 0.0 0 0 140.24 99.70
  L 176.21 65.72
  A 0.50 0.50 0.0 0 0 176.21 65.00
  L 140.24 30.98
  A 0.50 0.50 0.0 0 0 139.56 30.97
  L 103.59 64.99
  Z
  M 111.07 106.08
  C 107.37 107.84 105.74 118.62 105.28 122.68
  Q 104.83 126.63 105.46 130.51
  C 106.15 134.76 107.04 141.38 109.85 144.61
  Q 111.38 146.37 113.83 146.85
  Q 122.30 148.52 131.65 149.57
  Q 139.61 150.45 147.21 149.66
  Q 158.14 148.52 166.54 146.66
  C 171.82 145.48 172.69 138.81 173.65 134.54
  Q 175.91 124.49 172.93 114.20
  C 171.73 110.05 171.04 105.94 165.94 104.91
  Q 155.97 102.90 145.24 101.91
  Q 139.21 101.36 133.00 102.06
  Q 125.59 102.90 117.90 104.06
  Q 114.10 104.63 111.07 106.08
  Z
  M 126.62 156.17
  A 31.27 29.61 0.1 0 0 112.63 168.48
  A 31.26 29.58 0.1 0 0 115.08 200.92
  A 31.18 29.51 0.2 0 0 130.39 211.12
  A 31.26 29.57 0.1 0 0 161.82 204.03
  A 31.24 29.58 0.5 0 0 171.02 185.75
  A 31.24 29.54 0.4 0 0 166.12 166.86
  A 31.25 29.57 0.1 0 0 142.01 153.45
  A 31.30 29.59 0.8 0 0 126.62 156.17
  Z
  M 176.67 240.01
  A 36.79 6.21 0.0 0 0 139.88 233.80
  A 36.79 6.21 0.0 0 0 103.09 240.01
  A 36.79 6.21 0.0 0 0 139.88 246.22
  A 36.79 6.21 0.0 0 0 176.67 240.01
  Z"
/>
<path fill="#ff0000" d="
  M 103.59 64.99
  L 139.56 30.97
  A 0.50 0.50 0.0 0 1 140.24 30.98
  L 176.21 65.00
  A 0.50 0.50 0.0 0 1 176.21 65.72
  L 140.24 99.70
  A 0.50 0.50 0.0 0 1 139.56 99.70
  L 103.59 65.71
  A 0.50 0.50 0.0 0 1 103.59 64.99
  Z"
/>
<path fill="#ffffff" d="
  M 793.51 52.55
  C 816.23 49.56 836.72 54.56 854.94 67.49
  Q 878.70 84.36 882.91 113.21
  C 886.84 140.09 880.97 166.27 860.23 184.54
  Q 840.43 201.96 813.55 203.82
  C 793.73 205.19 773.49 201.35 757.88 189.76
  Q 728.66 168.05 726.87 131.55
  C 725.88 111.33 731.61 92.04 745.55 77.34
  Q 765.59 56.22 793.51 52.55
  Z
  M 776.68 167.01
  C 777.45 182.32 783.74 195.03 800.42 196.37
  C 816.75 197.68 830.25 192.73 833.01 175.17
  Q 833.94 169.25 834.21 163.68
  Q 835.43 138.36 834.89 109.71
  Q 834.64 96.44 833.73 84.67
  Q 833.30 79.16 830.56 72.96
  C 825.90 62.42 817.24 59.32 806.15 59.19
  Q 798.01 59.10 791.85 61.52
  C 781.63 65.55 778.02 74.73 777.10 85.03
  Q 776.50 91.82 776.25 98.98
  Q 775.04 134.25 776.68 167.01
  Z"
/>
<path fill="#ffffff" d="
  M 513.00 193.75
  L 513.00 61.50
  A 0.25 0.25 0.0 0 0 512.75 61.25
  L 491.00 61.25
  A 0.25 0.25 0.0 0 1 490.75 61.00
  L 490.75 54.00
  A 0.27 0.27 0.0 0 1 491.02 53.73
  Q 531.40 53.80 576.33 53.70
  C 599.81 53.65 622.45 57.61 640.44 73.72
  Q 659.55 90.81 662.94 115.31
  C 667.12 145.49 654.61 170.28 630.46 187.57
  Q 619.33 195.54 606.51 198.74
  Q 594.36 201.77 575.75 201.84
  Q 529.74 202.02 490.99 202.00
  Q 490.75 202.00 490.75 201.76
  L 490.75 194.75
  Q 490.75 194.50 491.00 194.50
  L 512.25 194.50
  Q 513.00 194.50 513.00 193.75
  Z
  M 596.84 64.58
  Q 588.74 61.31 579.55 61.27
  Q 568.47 61.22 556.45 61.26
  A 0.46 0.45 -90.0 0 0 556.00 61.72
  L 556.00 194.21
  A 0.25 0.24 90.0 0 0 556.24 194.46
  C 568.54 194.62 580.71 195.27 592.52 191.63
  C 601.05 189.00 606.99 183.82 609.56 175.02
  C 613.22 162.52 614.10 149.64 614.57 136.29
  Q 615.23 117.76 613.67 99.25
  C 612.66 87.24 609.51 69.69 596.84 64.58
  Z"
/>
<path fill="#ffffff" d="
  M 373.18 122.66
  Q 358.22 123.90 373.22 124.14
  Q 386.08 124.34 401.02 129.85
  Q 410.26 133.25 417.50 140.88
  Q 430.74 154.83 425.19 173.70
  C 421.08 187.69 405.61 197.31 391.70 201.24
  Q 381.18 204.22 369.55 204.68
  C 350.82 205.42 330.29 203.33 317.13 188.36
  Q 311.16 181.57 311.72 172.52
  C 312.26 163.74 319.89 157.91 328.09 156.74
  Q 338.52 155.25 345.74 160.34
  C 352.42 165.06 353.93 174.16 348.64 180.38
  Q 344.70 185.01 337.60 188.05
  A 2.33 2.32 -88.9 0 0 336.38 189.23
  Q 335.49 191.14 337.07 192.26
  C 342.37 196.04 351.18 197.14 357.52 197.28
  C 374.31 197.66 381.58 186.29 383.25 171.02
  C 385.74 148.18 379.36 125.97 351.38 127.52
  Q 342.49 128.02 335.10 127.99
  C 332.39 127.98 330.31 125.88 331.39 123.08
  Q 332.41 120.44 335.24 120.35
  Q 339.99 120.19 345.62 120.55
  Q 351.91 120.96 358.67 120.00
  C 369.38 118.49 376.41 113.46 378.97 102.67
  Q 382.49 87.86 378.19 73.82
  Q 374.86 62.97 362.99 61.67
  Q 352.65 60.53 343.61 65.07
  Q 342.64 65.56 341.96 66.44
  Q 341.54 66.99 341.71 67.66
  Q 342.05 69.11 343.38 69.88
  C 348.97 73.14 355.75 77.67 354.99 85.22
  C 354.06 94.48 344.42 98.92 336.07 98.49
  C 324.85 97.92 314.15 90.28 317.68 77.65
  Q 319.53 71.00 326.10 65.91
  C 336.09 58.18 348.26 55.06 360.92 54.53
  C 373.30 54.01 385.33 55.24 396.96 59.59
  C 411.98 65.20 425.82 76.68 421.48 94.61
  C 417.51 111.00 398.79 116.94 384.38 120.42
  Q 376.11 122.42 373.18 122.66
  Z"
/>
<path fill="#000000" d="
  M 800.42 196.37
  C 783.74 195.03 777.45 182.32 776.68 167.01
  Q 775.04 134.25 776.25 98.98
  Q 776.50 91.82 777.10 85.03
  C 778.02 74.73 781.63 65.55 791.85 61.52
  Q 798.01 59.10 806.15 59.19
  C 817.24 59.32 825.90 62.42 830.56 72.96
  Q 833.30 79.16 833.73 84.67
  Q 834.64 96.44 834.89 109.71
  Q 835.43 138.36 834.21 163.68
  Q 833.94 169.25 833.01 175.17
  C 830.25 192.73 816.75 197.68 800.42 196.37
  Z"
/>
<path fill="#000000" d="
  M 596.84 64.58
  C 609.51 69.69 612.66 87.24 613.67 99.25
  Q 615.23 117.76 614.57 136.29
  C 614.10 149.64 613.22 162.52 609.56 175.02
  C 606.99 183.82 601.05 189.00 592.52 191.63
  C 580.71 195.27 568.54 194.62 556.24 194.46
  A 0.25 0.24 90.0 0 1 556.00 194.21
  L 556.00 61.72
  A 0.46 0.45 90.0 0 1 556.45 61.26
  Q 568.47 61.22 579.55 61.27
  Q 588.74 61.31 596.84 64.58
  Z"
/>
<path fill="#0000a0" d="
  M 105.28 122.68
  C 105.74 118.62 107.37 107.84 111.07 106.08
  Q 114.10 104.63 117.90 104.06
  Q 125.59 102.90 133.00 102.06
  Q 139.21 101.36 145.24 101.91
  Q 155.97 102.90 165.94 104.91
  C 171.04 105.94 171.73 110.05 172.93 114.20
  Q 175.91 124.49 173.65 134.54
  C 172.69 138.81 171.82 145.48 166.54 146.66
  Q 158.14 148.52 147.21 149.66
  Q 139.61 150.45 131.65 149.57
  Q 122.30 148.52 113.83 146.85
  Q 111.38 146.37 109.85 144.61
  C 107.04 141.38 106.15 134.76 105.46 130.51
  Q 104.83 126.63 105.28 122.68
  Z"
/>
<path fill="#d1bc18" d="
  M 171.02 185.75
  Q 168.21 189.26 165.99 192.74
  Q 165.85 192.96 165.85 193.22
  Q 165.85 193.68 165.54 194.03
  Q 162.26 197.70 157.97 200.00
  Q 156.75 200.66 155.61 200.97
  Q 154.30 201.34 153.10 201.91
  Q 151.28 202.77 149.48 202.94
  Q 143.24 203.54 139.08 202.86
  Q 136.79 202.49 134.11 201.74
  Q 132.69 201.35 131.47 200.68
  Q 130.21 199.98 128.94 199.34
  Q 127.21 198.45 125.69 196.94
  Q 123.84 195.10 122.39 193.32
  Q 115.12 184.40 116.87 173.49
  Q 118.34 164.29 126.62 156.17
  A 31.30 29.59 0.8 0 1 142.01 153.45
  A 31.25 29.57 0.1 0 1 166.12 166.86
  A 31.24 29.54 0.4 0 1 171.02 185.75
  Z
  M 152.21 157.82
  Q 152.19 157.77 152.15 157.73
  Q 152.03 157.63 151.87 157.58
  Q 144.63 155.78 141.26 156.38
  Q 138.74 156.83 136.31 157.28
  Q 133.88 157.72 132.54 158.71
  Q 131.02 159.82 129.40 160.50
  Q 128.79 160.75 128.66 161.39
  Q 128.57 161.80 128.23 162.04
  Q 124.53 164.57 123.11 169.50
  Q 121.11 176.46 122.29 181.28
  Q 122.40 181.73 122.68 182.11
  Q 123.13 182.73 123.11 183.50
  Q 123.10 183.86 123.32 184.15
  Q 124.12 185.18 124.11 186.53
  Q 124.11 187.04 124.39 187.46
  Q 130.31 196.33 139.58 198.26
  Q 144.22 199.23 150.02 197.91
  Q 151.69 197.53 153.19 196.82
  Q 154.70 196.12 156.17 195.55
  Q 157.33 195.11 159.56 192.72
  Q 159.68 192.59 159.85 192.55
  Q 160.03 192.51 160.21 192.46
  A 1.22 1.22 0.0 0 0 160.94 191.93
  Q 162.67 189.32 164.60 186.22
  Q 166.17 183.69 166.53 181.36
  Q 167.06 177.87 166.88 173.78
  Q 166.85 173.00 166.46 172.30
  Q 165.95 171.39 165.90 170.34
  Q 165.88 169.85 165.58 169.46
  Q 164.03 167.45 162.62 165.40
  Q 161.25 163.42 159.36 162.02
  Q 156.14 159.63 152.45 158.08
  Q 152.27 158.00 152.21 157.82
  Z"
/>
<path fill="#ffe41b" d="
  M 152.45 158.08
  Q 156.14 159.63 159.36 162.02
  Q 161.25 163.42 162.62 165.40
  Q 164.03 167.45 165.58 169.46
  Q 165.88 169.85 165.90 170.34
  Q 165.95 171.39 166.46 172.30
  Q 166.85 173.00 166.88 173.78
  Q 167.06 177.87 166.53 181.36
  Q 166.17 183.69 164.60 186.22
  Q 162.67 189.32 160.94 191.93
  A 1.22 1.22 0.0 0 1 160.21 192.46
  Q 160.03 192.51 159.85 192.55
  Q 159.68 192.59 159.56 192.72
  Q 157.33 195.11 156.17 195.55
  Q 154.70 196.12 153.19 196.82
  Q 151.69 197.53 150.02 197.91
  Q 144.22 199.23 139.58 198.26
  Q 130.31 196.33 124.39 187.46
  Q 124.11 187.04 124.11 186.53
  Q 124.12 185.18 123.32 184.15
  Q 123.10 183.86 123.11 183.50
  Q 123.13 182.73 122.68 182.11
  Q 122.40 181.73 122.29 181.28
  Q 121.11 176.46 123.11 169.50
  Q 124.53 164.57 128.23 162.04
  Q 128.57 161.80 128.66 161.39
  Q 128.79 160.75 129.40 160.50
  Q 131.02 159.82 132.54 158.71
  Q 133.88 157.72 136.31 157.28
  Q 138.74 156.83 141.26 156.38
  Q 144.63 155.78 151.87 157.58
  Q 152.03 157.63 152.15 157.73
  Q 152.19 157.77 152.21 157.82
  Q 152.27 158.00 152.45 158.08
  Z"
/>
<path fill="#a09216" d="
  M 126.62 156.17
  Q 118.34 164.29 116.87 173.49
  Q 115.12 184.40 122.39 193.32
  Q 123.84 195.10 125.69 196.94
  Q 127.21 198.45 128.94 199.34
  Q 130.21 199.98 131.47 200.68
  Q 132.69 201.35 134.11 201.74
  Q 136.79 202.49 139.08 202.86
  Q 143.24 203.54 149.48 202.94
  Q 151.28 202.77 153.10 201.91
  Q 154.30 201.34 155.61 200.97
  Q 156.75 200.66 157.97 200.00
  Q 162.26 197.70 165.54 194.03
  Q 165.85 193.68 165.85 193.22
  Q 165.85 192.96 165.99 192.74
  Q 168.21 189.26 171.02 185.75
  A 31.24 29.58 0.5 0 1 161.82 204.03
  Q 160.25 202.91 159.18 204.25
  Q 158.79 204.74 158.19 204.92
  Q 155.53 205.69 152.66 206.60
  Q 150.12 207.40 147.17 207.61
  Q 143.36 207.88 140.13 207.44
  Q 134.78 206.71 127.67 203.48
  Q 126.97 203.16 126.41 202.61
  Q 125.79 202.01 124.81 201.72
  A 2.12 2.09 -12.3 0 1 123.86 201.12
  L 116.99 193.63
  A 1.50 0.49 40.7 0 1 116.50 192.82
  Q 116.42 192.18 115.96 191.74
  Q 115.39 191.19 115.05 190.45
  Q 112.92 185.65 112.52 180.98
  Q 112.52 180.96 112.50 180.95
  Q 112.37 180.92 112.24 180.88
  Q 112.12 180.85 112.12 180.72
  L 112.63 168.48
  A 31.27 29.61 0.1 0 1 126.62 156.17
  Z"
/>
<path fill="#6d6716" d="
  M 112.63 168.48
  L 112.12 180.72
  Q 112.12 180.85 112.24 180.88
  Q 112.37 180.92 112.50 180.95
  Q 112.52 180.96 112.52 180.98
  Q 112.92 185.65 115.05 190.45
  Q 115.39 191.19 115.96 191.74
  Q 116.42 192.18 116.50 192.82
  A 1.50 0.49 40.7 0 0 116.99 193.63
  L 123.86 201.12
  A 2.12 2.09 -12.3 0 0 124.81 201.72
  Q 125.79 202.01 126.41 202.61
  Q 126.97 203.16 127.67 203.48
  Q 134.78 206.71 140.13 207.44
  Q 143.36 207.88 147.17 207.61
  Q 150.12 207.40 152.66 206.60
  Q 155.53 205.69 158.19 204.92
  Q 158.79 204.74 159.18 204.25
  Q 160.25 202.91 161.82 204.03
  A 31.26 29.57 0.1 0 1 130.39 211.12
  A 31.18 29.51 0.2 0 1 115.08 200.92
  A 31.26 29.58 0.1 0 1 112.63 168.48
  Z"
/>
<path fill="#ffe41b" d="
  M 534.49 229.78
  A 0.41 0.41 0.0 0 1 533.91 229.76
  L 529.02 224.61
  A 0.81 0.75 -43.5 0 1 529.09 223.51
  L 529.42 223.20
  A 0.81 0.75 -43.5 0 1 530.53 223.18
  L 535.42 228.33
  A 0.41 0.41 0.0 0 1 535.40 228.91
  L 534.49 229.78
  Z"
/>
<path fill="#ffe41b" d="
  M 486.61 238.71
  Q 492.81 242.91 490.39 250.32
  Q 489.14 254.15 485.15 255.93
  C 478.53 258.90 471.45 256.11 468.54 249.30
  Q 468.06 248.18 469.24 247.89
  L 474.62 246.56
  Q 475.46 246.35 475.85 247.13
  Q 476.52 248.45 478.06 249.02
  C 482.02 250.47 484.04 245.40 481.46 242.93
  Q 479.15 240.72 475.28 240.76
  A 0.12 0.11 -82.6 0 1 475.17 240.61
  L 476.13 237.30
  Q 476.22 236.99 476.53 236.97
  Q 479.61 236.79 480.59 234.84
  C 482.18 231.69 477.78 230.24 476.64 232.69
  Q 476.31 233.42 475.53 233.25
  L 470.22 232.14
  Q 468.96 231.88 469.46 230.69
  Q 472.13 224.30 478.68 224.08
  Q 486.03 223.82 488.46 229.50
  Q 490.39 233.98 486.54 238.01
  Q 486.16 238.40 486.61 238.71
  Z"
/>
<path fill="#ffe41b" d="
  M 515.00 239.21
  L 515.00 258.22
  Q 515.00 258.43 514.78 258.43
  L 512.21 258.44
  Q 511.99 258.44 511.99 258.21
  L 512.04 224.27
  Q 512.04 224.00 512.30 224.00
  L 515.22 224.02
  Q 515.48 224.03 515.44 224.28
  Q 514.63 229.54 515.11 235.40
  Q 515.16 236.08 515.84 236.01
  Q 516.29 235.96 516.71 236.12
  Q 523.55 238.72 530.32 242.16
  Q 530.54 242.27 530.43 242.48
  L 529.21 244.85
  A 0.29 0.29 0.0 0 1 528.84 244.97
  L 515.60 238.82
  A 0.43 0.42 -77.6 0 0 515.00 239.21
  Z"
/>
<path fill="#ffe41b" d="
  M 349.69 252.00
  L 339.29 252.00
  Q 338.78 252.00 338.60 252.48
  L 337.45 255.50
  A 0.78 0.78 0.0 0 1 336.72 256.00
  L 328.74 256.00
  Q 327.92 256.00 328.26 255.25
  L 341.66 225.81
  A 3.12 3.11 -45.1 0 1 347.33 225.80
  L 360.71 255.17
  Q 361.09 256.00 360.17 256.00
  L 352.31 256.00
  Q 351.80 256.00 351.60 255.53
  L 350.34 252.44
  A 0.71 0.70 78.7 0 0 349.69 252.00
  Z
  M 341.57 245.50
  A 0.35 0.35 0.0 0 0 341.89 245.99
  L 347.10 246.00
  A 0.35 0.35 0.0 0 0 347.43 245.51
  L 344.83 239.70
  A 0.35 0.35 0.0 0 0 344.19 239.70
  L 341.57 245.50
  Z"
/>
<path fill="#ffe41b" d="
  M 402.69 252.00
  L 392.30 252.00
  Q 391.80 252.00 391.61 252.47
  L 390.51 255.28
  Q 390.23 256.00 389.45 256.00
  L 381.74 256.00
  Q 380.92 256.00 381.26 255.25
  L 394.69 225.74
  A 3.08 3.08 0.0 0 1 400.30 225.74
  L 413.66 255.06
  Q 414.09 256.00 413.05 256.00
  L 405.31 256.00
  Q 404.79 256.00 404.60 255.52
  L 403.35 252.45
  A 0.72 0.71 79.0 0 0 402.69 252.00
  Z
  M 394.57 245.50
  A 0.35 0.35 0.0 0 0 394.89 246.00
  L 400.11 246.00
  A 0.35 0.35 0.0 0 0 400.43 245.50
  L 397.82 239.70
  A 0.35 0.35 0.0 0 0 397.18 239.70
  L 394.57 245.50
  Z"
/>
<path fill="#ffe41b" d="
  M 434.57 239.38
  L 434.57 225.32
  Q 434.57 225.05 434.83 225.05
  Q 441.70 224.83 442.82 225.20
  Q 443.00 225.26 443.00 225.44
  L 443.00 255.47
  A 1.77 1.77 0.0 0 1 439.99 256.74
  L 424.53 241.64
  A 0.31 0.31 0.0 0 0 424.01 241.86
  L 424.00 255.50
  A 0.50 0.49 -0.0 0 1 423.50 255.99
  L 416.04 256.01
  A 0.48 0.47 -0.0 0 1 415.56 255.54
  L 415.57 225.26
  Q 415.57 224.79 416.02 224.64
  Q 417.84 224.03 419.21 225.33
  Q 427.04 232.73 434.31 239.49
  A 0.15 0.15 0.0 0 0 434.57 239.38
  Z"
/>
<path fill="#ffe41b" d="
  M 312.38 248.14
  Q 316.10 250.57 319.26 247.69
  Q 320.49 246.57 320.52 244.90
  Q 320.70 233.91 320.43 225.31
  Q 320.42 225.00 320.73 225.00
  L 328.47 225.00
  Q 328.77 225.00 328.78 225.30
  Q 329.06 232.06 329.07 239.66
  C 329.08 244.46 329.47 249.21 325.71 252.90
  Q 318.49 259.99 307.95 255.15
  Q 307.73 255.05 307.86 254.84
  Q 309.82 251.58 311.86 248.26
  A 0.37 0.37 0.0 0 1 312.38 248.14
  Z"
/>
<path fill="#ffe41b" d="
  M 371.01 247.31
  L 370.99 255.73
  Q 370.99 255.76 370.96 255.77
  Q 369.83 256.19 362.76 255.93
  Q 362.56 255.92 362.56 255.73
  L 362.57 225.55
  Q 362.57 225.02 363.10 225.01
  Q 369.99 224.93 375.52 225.07
  Q 379.55 225.18 382.57 228.10
  C 389.13 234.44 385.87 243.80 377.54 246.36
  C 375.60 246.96 373.56 246.79 371.54 246.78
  Q 371.01 246.78 371.01 247.31
  Z
  M 371.00 233.20
  L 371.00 238.58
  A 0.43 0.43 0.0 0 0 371.43 239.01
  L 374.11 239.01
  A 3.87 3.00 0.0 0 0 377.98 236.01
  L 377.98 235.77
  A 3.87 3.00 -0.0 0 0 374.11 232.77
  L 371.43 232.77
  A 0.43 0.43 0.0 0 0 371.00 233.20
  Z"
/>
<path fill="#ffe41b" d="
  M 529.16 233.27
  A 0.43 0.43 0.0 0 1 528.55 233.25
  L 524.01 228.31
  A 1.24 0.88 47.4 0 1 523.82 226.80
  L 524.13 226.51
  A 1.24 0.88 47.4 0 1 525.62 226.83
  L 530.16 231.77
  A 0.43 0.43 0.0 0 1 530.13 232.38
  L 529.16 233.27
  Z"
/>
<path fill="#ffe41b" d="
  M 552.56 236.03
  L 561.30 235.92
  Q 562.64 235.90 562.31 237.20
  C 561.70 239.66 561.57 241.96 560.72 244.42
  Q 557.43 253.91 546.74 258.01
  A 0.86 0.86 0.0 0 1 545.81 257.79
  L 544.85 256.76
  A 0.53 0.53 0.0 0 1 545.06 255.90
  Q 557.40 251.61 559.24 239.01
  Q 559.33 238.45 558.77 238.45
  L 542.66 238.43
  Q 542.00 238.43 542.00 239.09
  L 542.00 245.50
  Q 542.00 246.01 541.50 246.00
  L 539.95 245.99
  Q 539.40 245.99 539.40 245.45
  L 539.42 236.54
  Q 539.42 236.00 539.96 236.00
  L 548.71 236.00
  Q 549.42 236.00 549.42 235.29
  L 549.39 230.19
  Q 549.39 230.02 549.56 230.02
  L 552.53 230.00
  Q 552.86 230.00 552.69 230.29
  Q 551.49 232.42 552.11 235.67
  Q 552.18 236.04 552.56 236.03
  Z"
/>
<path fill="#000000" d="
  M 371.00 233.20
  A 0.43 0.43 0.0 0 1 371.43 232.77
  L 374.11 232.77
  A 3.87 3.00 -0.0 0 1 377.98 235.77
  L 377.98 236.01
  A 3.87 3.00 0.0 0 1 374.11 239.01
  L 371.43 239.01
  A 0.43 0.43 0.0 0 1 371.00 238.58
  L 371.00 233.20
  Z"
/>
<ellipse fill="#888888" cx="139.88" cy="240.01" rx="36.79" ry="6.21"/>
<path fill="#ffe41b" d="
  M 567.96 242.39
  L 568.08 239.26
  A 0.29 0.29 0.0 0 1 568.37 238.98
  L 600.65 239.09
  A 0.29 0.29 0.0 0 1 600.94 239.38
  L 600.91 241.46
  A 0.29 0.29 0.0 0 1 600.62 241.75
  L 569.45 241.82
  A 0.29 0.29 0.0 0 0 569.26 241.89
  L 568.45 242.62
  A 0.29 0.29 0.0 0 1 567.96 242.39
  Z"
/>
<path fill="#000000" d="
  M 341.57 245.50
  L 344.19 239.70
  A 0.35 0.35 0.0 0 1 344.83 239.70
  L 347.43 245.51
  A 0.35 0.35 0.0 0 1 347.10 246.00
  L 341.89 245.99
  A 0.35 0.35 0.0 0 1 341.57 245.50
  Z"
/>
<path fill="#000000" d="
  M 394.57 245.50
  L 397.18 239.70
  A 0.35 0.35 0.0 0 1 397.82 239.70
  L 400.43 245.50
  A 0.35 0.35 0.0 0 1 400.11 246.00
  L 394.89 246.00
  A 0.35 0.35 0.0 0 1 394.57 245.50
  Z"
/>
</svg>
