<?xml version="1.0" encoding="UTF-8" standalone="no"?>
<!DOCTYPE svg PUBLIC "-//W3C//DTD SVG 1.1//EN" "http://www.w3.org/Graphics/SVG/1.1/DTD/svg11.dtd">
<svg xmlns="http://www.w3.org/2000/svg" version="1.1" viewBox="0.00 0.00 358.00 121.00">
<g stroke-width="2.00" fill="none" stroke-linecap="butt">
<path stroke="#7f7f80" vector-effect="non-scaling-stroke" d="
  M 29.05 39.07
  Q 29.05 38.44 29.68 38.43
  L 42.16 38.42
  Q 44.24 38.42 44.25 36.34
  L 44.25 33.27
  Q 44.26 31.03 42.02 31.03
  L 29.76 31.00
  Q 29.03 31.00 29.03 30.26
  L 29.05 23.73
  A 0.72 0.72 0.0 0 1 29.77 23.01
  L 44.58 22.99
  Q 46.89 22.99 46.96 20.67
  L 47.04 18.06
  Q 47.10 16.02 45.06 16.02
  L 23.00 16.03
  Q 21.52 16.03 21.52 17.50
  L 21.52 52.01
  A 1.99 1.99 0.0 0 0 23.51 54.00
  L 44.64 53.98
  Q 47.01 53.98 47.01 51.61
  L 47.02 48.98
  Q 47.02 46.69 44.73 46.69
  L 29.62 46.73
  Q 29.01 46.73 29.02 46.12
  L 29.05 39.07"
/>
<path stroke="#7f7f80" vector-effect="non-scaling-stroke" d="
  M 59.82 46.71
  Q 59.19 46.71 59.19 46.07
  L 59.20 18.02
  Q 59.20 15.96 57.14 16.00
  L 53.59 16.06
  Q 51.77 16.09 51.77 17.91
  L 51.78 52.26
  A 1.73 1.73 0.0 0 0 53.51 53.99
  L 74.98 53.99
  Q 76.94 53.99 77.00 52.02
  L 77.09 48.80
  Q 77.15 46.71 75.06 46.71
  L 59.82 46.71"
/>
<path stroke="#7f7f80" vector-effect="non-scaling-stroke" d="
  M 88.69 23.00
  L 103.68 22.99
  Q 106.10 22.98 106.09 20.56
  L 106.08 18.15
  Q 106.07 15.98 103.90 15.99
  L 81.71 16.03
  A 1.02 1.02 0.0 0 0 80.69 17.05
  L 80.70 52.22
  A 1.77 1.77 0.0 0 0 82.47 53.99
  L 103.83 53.98
  Q 106.14 53.97 106.11 51.67
  L 106.08 49.01
  Q 106.05 46.71 103.76 46.71
  L 88.72 46.71
  Q 88.08 46.71 88.09 46.08
  L 88.10 39.05
  Q 88.10 38.45 88.70 38.45
  L 101.63 38.40
  A 1.73 1.73 0.0 0 0 103.36 36.66
  L 103.36 33.10
  A 1.95 1.94 1.1 0 0 101.48 31.16
  Q 94.70 30.89 88.69 31.05
  A 0.57 0.57 0.0 0 1 88.11 30.47
  L 88.13 23.56
  A 0.56 0.56 0.0 0 1 88.69 23.00"
/>
<path stroke="#7f7f80" vector-effect="non-scaling-stroke" d="
  M 128.19 45.41
  C 124.48 47.94 118.16 47.62 118.05 41.78
  Q 117.93 35.45 118.01 28.13
  Q 118.03 26.72 118.66 25.51
  Q 119.78 23.40 121.30 22.82
  Q 125.19 21.33 128.71 24.76
  Q 129.26 25.29 129.43 26.04
  C 129.72 27.35 130.86 28.35 132.26 28.27
  C 133.62 28.19 135.63 28.64 136.64 27.52
  Q 137.41 26.66 137.07 25.44
  Q 135.25 18.92 129.01 16.50
  C 126.59 15.56 123.66 16.26 121.08 16.06
  Q 119.09 15.90 117.38 16.82
  Q 115.57 17.79 114.24 19.18
  Q 110.07 23.54 110.01 30.27
  Q 109.98 35.07 110.07 39.48
  Q 110.18 44.78 113.17 49.14
  Q 115.11 51.96 118.44 53.10
  Q 126.16 55.76 131.81 51.32
  Q 136.01 48.02 137.18 42.62
  A 0.98 0.98 0.0 0 0 136.53 41.49
  Q 133.83 40.61 130.79 41.37
  Q 130.32 41.49 130.10 41.92
  L 128.52 45.03
  Q 128.40 45.26 128.19 45.41"
/>
<path stroke="#7f7f80" vector-effect="non-scaling-stroke" d="
  M 155.70 23.01
  L 162.16 23.00
  Q 164.56 22.99 164.61 20.59
  L 164.67 18.21
  Q 164.72 15.95 162.46 15.96
  L 138.20 16.11
  A 1.20 1.20 0.0 0 0 137.01 17.31
  L 137.01 21.75
  Q 137.01 23.00 138.25 23.00
  L 146.50 22.99
  A 0.51 0.50 90.0 0 1 147.00 23.50
  L 147.00 50.77
  Q 147.00 54.05 150.29 54.02
  Q 151.58 54.00 151.85 54.00
  Q 154.88 53.96 154.91 51.08
  Q 155.08 37.12 154.96 23.75
  Q 154.96 23.01 155.70 23.01"
/>
<path stroke="#7f7f80" vector-effect="non-scaling-stroke" d="
  M 180.50 38.98
  L 186.87 51.84
  Q 187.96 54.05 190.42 54.01
  L 193.86 53.95
  Q 196.59 53.91 195.31 51.50
  L 188.52 38.72
  Q 188.05 37.84 188.79 37.18
  Q 190.51 35.65 192.29 34.12
  Q 193.69 32.93 193.99 31.13
  C 194.98 25.34 193.61 19.44 188.19 16.91
  Q 185.96 15.87 183.33 15.92
  Q 176.00 16.07 168.71 16.02
  A 1.02 1.02 0.0 0 0 167.70 16.90
  Q 167.25 20.19 167.39 23.78
  C 167.42 24.61 167.02 25.32 167.02 26.18
  Q 167.00 38.10 167.00 50.75
  Q 167.01 53.99 170.24 53.99
  L 171.75 54.00
  Q 175.00 54.00 175.00 50.75
  L 175.00 39.33
  A 0.67 0.67 0.0 0 1 175.67 38.66
  L 179.97 38.65
  Q 180.34 38.65 180.50 38.98"
/>
<path stroke="#7f7f80" vector-effect="non-scaling-stroke" d="
  M 199.57 45.85
  C 199.86 47.82 201.20 50.58 203.27 51.22
  C 204.69 51.66 205.39 52.73 206.78 53.21
  Q 210.86 54.61 215.64 53.69
  C 221.76 52.52 225.69 46.92 225.94 40.74
  Q 226.14 36.01 226.11 31.20
  C 226.07 25.51 224.40 19.61 218.96 16.88
  C 215.86 15.32 212.45 16.34 209.17 16.03
  Q 206.98 15.81 205.22 16.99
  Q 198.51 21.43 198.45 30.02
  Q 198.42 35.23 198.51 40.75
  C 198.54 42.67 199.30 44.04 199.57 45.85"
/>
<path stroke="#7f7f80" vector-effect="non-scaling-stroke" d="
  M 239.25 31.99
  Q 239.45 31.93 239.60 32.04
  Q 239.86 32.22 239.93 32.53
  C 240.25 33.97 241.46 34.34 242.25 35.54
  Q 245.06 39.82 247.68 44.01
  Q 250.62 48.73 253.51 52.97
  A 1.74 1.73 -8.3 0 0 254.43 53.65
  Q 256.98 54.45 259.65 53.35
  A 0.97 0.97 0.0 0 0 260.24 52.46
  L 260.25 17.99
  Q 260.25 15.98 258.24 16.00
  L 254.53 16.05
  Q 252.89 16.08 252.89 17.72
  L 252.89 34.81
  Q 252.89 39.67 250.29 35.56
  L 238.26 16.53
  Q 237.92 16.00 237.29 16.00
  L 232.19 16.05
  A 0.77 0.76 -0.4 0 0 231.43 16.81
  L 231.46 51.22
  Q 231.47 53.98 234.22 53.99
  L 235.88 53.99
  Q 239.00 54.00 239.00 50.88
  L 239.00 32.32
  Q 239.00 32.06 239.25 31.99"
/>
<path stroke="#7f7f80" vector-effect="non-scaling-stroke" d="
  M 274.05 17.70
  A 1.73 1.73 0.0 0 0 272.32 15.97
  L 268.28 15.97
  A 1.73 1.73 0.0 0 0 266.55 17.70
  L 266.55 52.18
  A 1.73 1.73 0.0 0 0 268.28 53.91
  L 272.32 53.91
  A 1.73 1.73 0.0 0 0 274.05 52.18
  L 274.05 17.70"
/>
<path stroke="#7f7f80" vector-effect="non-scaling-stroke" d="
  M 299.20 17.94
  C 298.09 20.16 296.05 21.73 294.74 23.77
  C 293.65 25.45 292.11 26.66 290.95 28.38
  Q 288.04 32.71 288.03 27.50
  L 288.02 17.50
  A 1.52 1.51 89.6 0 0 286.50 15.99
  L 281.75 16.03
  Q 280.54 16.04 280.54 17.25
  L 280.53 51.52
  Q 280.53 54.00 283.02 53.99
  L 285.37 53.99
  Q 287.96 53.98 287.99 51.38
  L 288.09 42.32
  A 0.73 0.69 -24.3 0 1 288.29 41.83
  L 291.60 38.33
  A 1.09 1.09 0.0 0 1 293.33 38.52
  L 301.93 52.90
  Q 302.58 53.99 303.85 53.99
  L 315.56 54.00
  A 1.50 1.50 0.0 0 0 316.99 52.95
  L 318.93 46.84
  A 1.19 1.19 0.0 0 1 320.06 46.02
  L 331.76 46.00
  Q 332.29 46.00 332.47 46.50
  L 334.53 52.25
  Q 335.16 54.01 337.03 54.00
  L 340.65 53.98
  A 1.57 1.56 79.7 0 0 342.11 51.87
  L 329.25 17.12
  Q 328.87 16.11 327.79 16.08
  L 323.73 16.00
  Q 322.86 15.99 322.56 16.80
  L 310.49 49.43
  Q 310.24 50.10 309.53 50.08
  Q 308.87 50.07 308.51 49.47
  Q 303.14 40.50 298.44 32.38
  C 296.98 29.86 300.07 28.28 301.16 26.41
  C 302.37 24.31 304.35 23.11 305.48 21.00
  C 306.20 19.67 307.42 18.70 308.44 17.59
  A 0.92 0.92 0.0 0 0 307.81 16.05
  Q 305.08 15.93 301.81 16.05
  C 300.58 16.10 299.72 16.92 299.20 17.94"
/>
<path stroke="#de7f80" vector-effect="non-scaling-stroke" d="
  M 27.74 22.15
  A 0.65 0.65 0.0 0 1 28.39 21.50
  L 45.11 21.52
  A 0.65 0.65 0.0 0 0 45.76 20.86
  L 45.70 17.55
  A 0.65 0.65 0.0 0 0 45.05 16.91
  L 23.42 16.91
  A 0.65 0.65 0.0 0 0 22.77 17.56
  L 22.76 51.98
  A 0.65 0.65 0.0 0 0 23.41 52.63
  L 45.09 52.62
  A 0.65 0.65 0.0 0 0 45.74 51.97
  L 45.75 48.50
  A 0.65 0.65 0.0 0 0 45.10 47.85
  L 28.40 47.93
  A 0.65 0.65 0.0 0 1 27.75 47.28
  L 27.75 37.73
  A 0.65 0.65 0.0 0 1 28.40 37.08
  L 42.31 37.14
  A 0.65 0.65 0.0 0 0 42.96 36.49
  L 42.99 33.16
  A 0.65 0.65 0.0 0 0 42.34 32.51
  L 28.41 32.48
  A 0.65 0.65 0.0 0 1 27.76 31.83
  L 27.74 22.15"
/>
<path stroke="#de7f80" vector-effect="non-scaling-stroke" d="
  M 58.62 47.92
  A 0.72 0.72 0.0 0 1 57.90 47.20
  L 57.92 17.65
  A 0.72 0.72 0.0 0 0 57.19 16.93
  L 53.73 16.96
  A 0.72 0.72 0.0 0 0 53.02 17.68
  L 53.03 51.91
  A 0.72 0.72 0.0 0 0 53.75 52.63
  L 75.20 52.62
  A 0.72 0.72 0.0 0 0 75.92 51.90
  L 75.92 48.60
  A 0.72 0.72 0.0 0 0 75.20 47.88
  L 58.62 47.92"
/>
<path stroke="#de7f80" vector-effect="non-scaling-stroke" d="
  M 87.44 47.89
  A 0.66 0.66 0.0 0 1 86.77 47.22
  L 86.82 37.76
  A 0.66 0.66 0.0 0 1 87.48 37.11
  L 101.42 37.26
  A 0.66 0.66 0.0 0 0 102.09 36.61
  L 102.14 33.15
  A 0.66 0.66 0.0 0 0 101.48 32.48
  L 87.45 32.50
  A 0.66 0.66 0.0 0 1 86.79 31.84
  L 86.81 22.16
  A 0.66 0.66 0.0 0 1 87.47 21.50
  L 104.20 21.52
  A 0.66 0.66 0.0 0 0 104.86 20.84
  L 104.77 17.49
  A 0.66 0.66 0.0 0 0 104.11 16.85
  L 82.56 16.87
  A 0.66 0.66 0.0 0 0 81.90 17.53
  L 81.93 51.99
  A 0.66 0.66 0.0 0 0 82.59 52.65
  L 104.19 52.64
  A 0.66 0.66 0.0 0 0 104.85 51.97
  L 104.83 48.46
  A 0.66 0.66 0.0 0 0 104.16 47.80
  L 87.44 47.89"
/>
<path stroke="#de7f80" vector-effect="non-scaling-stroke" d="
  M 130.74 43.17
  C 128.03 51.02 116.75 49.22 116.53 40.40
  Q 116.38 34.45 116.56 28.88
  C 116.78 21.83 124.09 18.73 129.17 23.76
  C 130.04 24.61 130.31 25.69 131.05 26.61
  Q 131.36 26.99 131.85 27.00
  L 135.23 27.12
  A 0.73 0.73 0.0 0 0 135.95 26.18
  Q 132.76 15.75 121.96 16.71
  C 115.65 17.28 111.51 22.48 111.41 28.75
  Q 111.32 33.75 111.33 39.05
  C 111.34 44.10 112.97 48.96 117.31 51.30
  C 124.92 55.42 133.48 51.79 135.87 43.35
  Q 136.18 42.29 135.07 42.30
  L 131.92 42.32
  Q 131.03 42.33 130.74 43.17"
/>
<path stroke="#de7f80" vector-effect="non-scaling-stroke" d="
  M 153.49 22.14
  A 0.65 0.65 0.0 0 1 154.14 21.49
  L 162.93 21.52
  A 0.65 0.65 0.0 0 0 163.59 20.86
  L 163.56 17.48
  A 0.65 0.65 0.0 0 0 162.91 16.83
  L 139.06 16.95
  A 0.65 0.65 0.0 0 0 138.41 17.59
  L 138.37 20.87
  A 0.65 0.65 0.0 0 0 139.02 21.53
  L 147.84 21.50
  A 0.65 0.65 0.0 0 1 148.49 22.15
  L 148.49 51.97
  A 0.65 0.65 0.0 0 0 149.13 52.62
  L 152.85 52.64
  A 0.65 0.65 0.0 0 0 153.51 51.99
  L 153.49 22.14"
/>
<path stroke="#de7f80" vector-effect="non-scaling-stroke" d="
  M 174.30 37.39
  L 180.24 37.38
  A 1.30 1.29 76.4 0 1 181.39 38.09
  L 188.28 51.80
  Q 188.72 52.67 189.69 52.66
  L 193.74 52.59
  Q 194.58 52.58 194.19 51.83
  L 186.74 37.71
  Q 186.36 36.98 187.11 36.63
  Q 191.64 34.54 192.67 30.20
  C 194.36 23.11 190.56 16.93 182.92 16.83
  Q 175.93 16.73 169.20 16.84
  A 0.69 0.69 0.0 0 0 168.52 17.53
  L 168.52 51.82
  Q 168.52 52.63 169.32 52.63
  L 172.81 52.63
  Q 173.50 52.63 173.50 51.94
  L 173.50 38.20
  Q 173.50 37.39 174.30 37.39"
/>
<path stroke="#de7f80" vector-effect="non-scaling-stroke" d="
  M 224.7523 28.4037
  A 11.68 11.68 0.0 0 0 213.1131 16.6830
  L 211.4532 16.6772
  A 11.68 11.68 0.0 0 0 199.7325 28.3164
  L 199.6877 41.1363
  A 11.68 11.68 0.0 0 0 211.3269 52.8570
  L 212.9868 52.8628
  A 11.68 11.68 0.0 0 0 224.7075 41.2236
  L 224.7523 28.4037"
/>
<path stroke="#de7f80" vector-effect="non-scaling-stroke" d="
  M 254.11 42.63
  A 0.31 0.31 0.0 0 1 253.54 42.79
  L 237.31 17.09
  A 0.31 0.31 0.0 0 0 237.05 16.95
  L 232.98 16.94
  A 0.31 0.31 0.0 0 0 232.67 17.25
  L 232.64 52.24
  A 0.31 0.31 0.0 0 0 232.95 52.55
  L 237.21 52.54
  A 0.31 0.31 0.0 0 0 237.52 52.23
  L 237.50 27.13
  A 0.31 0.31 0.0 0 1 238.07 26.96
  L 254.35 52.40
  A 0.31 0.31 0.0 0 0 254.61 52.54
  L 258.70 52.53
  A 0.31 0.31 0.0 0 0 259.01 52.22
  L 259.01 17.25
  A 0.31 0.31 0.0 0 0 258.70 16.94
  L 254.39 17.00
  A 0.31 0.31 0.0 0 0 254.08 17.31
  L 254.11 42.63"
/>
<path stroke="#de7f80" vector-effect="non-scaling-stroke" d="
  M 272.76 17.59
  A 0.70 0.70 0.0 0 0 272.06 16.89
  L 268.48 16.89
  A 0.70 0.70 0.0 0 0 267.78 17.59
  L 267.78 51.93
  A 0.70 0.70 0.0 0 0 268.48 52.63
  L 272.06 52.63
  A 0.70 0.70 0.0 0 0 272.76 51.93
  L 272.76 17.59"
/>
<path stroke="#de7f80" vector-effect="non-scaling-stroke" d="
  M 287.39 34.75
  A 0.38 0.38 0.0 0 1 286.71 34.51
  L 286.74 17.26
  A 0.38 0.38 0.0 0 0 286.35 16.88
  L 282.12 16.95
  A 0.38 0.38 0.0 0 0 281.75 17.33
  L 281.74 52.26
  A 0.38 0.38 0.0 0 0 282.12 52.64
  L 286.33 52.61
  A 0.38 0.38 0.0 0 0 286.71 52.23
  L 286.75 42.27
  A 0.38 0.38 0.0 0 1 286.84 42.02
  L 292.27 35.51
  A 0.38 0.38 0.0 0 1 292.88 35.56
  L 302.97 52.45
  A 0.38 0.38 0.0 0 0 303.30 52.64
  L 308.49 52.62
  A 0.38 0.38 0.0 0 0 308.82 52.05
  L 296.26 31.01
  A 0.38 0.38 0.0 0 1 296.29 30.57
  L 307.02 17.54
  A 0.38 0.38 0.0 0 0 306.72 16.91
  L 301.53 17.01
  A 0.38 0.38 0.0 0 0 301.24 17.15
  L 287.39 34.75"
/>
<path stroke="#de7f80" vector-effect="non-scaling-stroke" d="
  M 332.67 44.73
  A 0.56 0.56 0.0 0 1 333.20 45.11
  L 335.69 52.25
  A 0.56 0.56 0.0 0 0 336.22 52.63
  L 340.35 52.63
  A 0.56 0.56 0.0 0 0 340.87 51.88
  L 328.14 17.34
  A 0.56 0.56 0.0 0 0 327.62 16.98
  L 324.06 16.94
  A 0.56 0.56 0.0 0 0 323.53 17.31
  L 310.75 51.94
  A 0.56 0.56 0.0 0 0 311.28 52.69
  L 315.45 52.59
  A 0.56 0.56 0.0 0 0 315.97 52.21
  L 318.45 45.11
  A 0.56 0.56 0.0 0 1 318.98 44.74
  L 332.67 44.73"
/>
<path stroke="#de7f80" vector-effect="non-scaling-stroke" d="
  M 173.51 21.93
  L 173.49 32.25
  A 0.45 0.45 0.0 0 0 173.94 32.70
  L 182.83 32.71
  A 5.08 4.92 -89.9 0 0 187.76 27.64
  L 187.76 26.58
  A 5.08 4.92 -89.9 0 0 182.85 21.49
  L 173.96 21.48
  A 0.45 0.45 0.0 0 0 173.51 21.93"
/>
<path stroke="#de7f80" vector-effect="non-scaling-stroke" d="
  M 219.66 28.41
  A 7.01 7.01 0.0 0 0 212.65 21.40
  L 211.81 21.40
  A 7.01 7.01 0.0 0 0 204.80 28.41
  L 204.80 40.97
  A 7.01 7.01 0.0 0 0 211.81 47.98
  L 212.65 47.98
  A 7.01 7.01 0.0 0 0 219.66 40.97
  L 219.66 28.41"
/>
<path stroke="#de7f80" vector-effect="non-scaling-stroke" d="
  M 320.33 39.60
  A 0.30 0.30 0.0 0 0 320.61 40.00
  L 331.03 40.00
  A 0.30 0.30 0.0 0 0 331.31 39.60
  L 326.10 24.50
  A 0.30 0.30 0.0 0 0 325.54 24.50
  L 320.33 39.60"
/>
<path stroke="#7f7f80" vector-effect="non-scaling-stroke" d="
  M 218.3292 28.5194
  A 5.77 5.77 0.0 0 0 212.5491 22.7595
  L 211.9691 22.7605
  A 5.77 5.77 0.0 0 0 206.2092 28.5406
  L 206.2308 40.9406
  A 5.77 5.77 0.0 0 0 212.0109 46.7005
  L 212.5909 46.6995
  A 5.77 5.77 0.0 0 0 218.3508 40.9194
  L 218.3292 28.5194"
/>
<path stroke="#7f7f80" vector-effect="non-scaling-stroke" d="
  M 174.99 23.63
  L 174.97 30.57
  A 0.66 0.66 0.0 0 0 175.63 31.23
  L 183.11 31.26
  A 3.31 3.14 -89.8 0 0 186.26 27.96
  L 186.26 26.32
  A 3.31 3.14 -89.8 0 0 183.13 23.00
  L 175.65 22.97
  A 0.66 0.66 0.0 0 0 174.99 23.63"
/>
<path stroke="#7f7f80" vector-effect="non-scaling-stroke" d="
  M 322.51 37.42
  A 0.89 0.89 0.0 0 0 323.35 38.60
  L 328.22 38.63
  A 0.89 0.89 0.0 0 0 329.07 37.47
  L 326.69 30.17
  A 0.89 0.89 0.0 0 0 325.00 30.16
  L 322.51 37.42"
/>
<path stroke="#805b01" vector-effect="non-scaling-stroke" d="
  M 36.97 89.27
  Q 36.72 89.60 36.28 90.19
  Q 34.41 92.64 31.35 92.98
  Q 26.75 93.49 22.87 92.23
  Q 21.51 91.79 21.50 93.23
  L 21.48 95.55
  A 2.11 2.11 0.0 0 0 23.13 97.63
  C 30.40 99.21 39.33 98.72 42.70 91.87
  Q 45.76 85.63 43.55 78.83
  C 40.69 70.06 31.36 68.71 23.40 70.77
  Q 22.02 71.13 22.01 72.54
  L 22.00 74.77
  Q 21.98 76.23 23.41 75.93
  Q 26.92 75.18 30.50 75.30
  A 6.97 6.96 71.6 0 1 35.73 77.92
  Q 36.15 78.45 36.68 79.11
  Q 38.58 81.49 35.54 81.49
  L 25.22 81.48
  Q 23.66 81.48 23.68 83.04
  L 23.71 85.52
  A 1.31 1.30 89.3 0 0 25.02 86.81
  L 35.73 86.80
  Q 38.85 86.79 36.97 89.27"
/>
<path stroke="#805b01" vector-effect="non-scaling-stroke" d="
  M 64.79 76.10
  A 1.19 1.19 0.0 0 1 66.02 77.29
  L 66.03 96.30
  Q 66.03 97.82 67.55 97.82
  L 71.20 97.81
  Q 72.71 97.80 72.70 96.30
  L 72.64 71.70
  A 1.19 1.19 0.0 0 0 71.45 70.51
  L 56.71 70.51
  A 1.10 1.09 2.9 0 0 55.62 71.49
  Q 54.70 79.81 52.84 86.77
  Q 52.04 89.73 50.20 91.72
  Q 49.83 92.13 49.27 92.21
  L 46.86 92.52
  Q 46.08 92.62 46.09 93.40
  L 46.15 97.43
  Q 46.17 98.36 47.10 98.43
  Q 53.14 98.90 55.85 94.71
  C 58.98 89.84 60.03 82.97 61.00 77.10
  Q 61.14 76.21 62.05 76.18
  L 64.79 76.10"
/>
<path stroke="#805b01" vector-effect="non-scaling-stroke" d="
  M 85.76 88.83
  Q 84.27 85.99 87.48 85.99
  L 101.98 86.00
  A 0.98 0.97 3.3 0 0 102.95 85.14
  C 103.71 78.33 101.33 71.39 93.79 70.17
  C 82.49 68.34 76.60 78.34 78.70 88.33
  C 80.90 98.83 91.60 99.68 100.53 97.47
  Q 102.14 97.07 102.14 95.40
  L 102.13 93.39
  Q 102.12 91.76 100.55 92.20
  Q 96.05 93.47 91.56 93.00
  A 7.15 7.15 0.0 0 1 86.20 89.61
  Q 85.97 89.24 85.76 88.83"
/>
<path stroke="#805b01" vector-effect="non-scaling-stroke" d="
  M 116.67 81.71
  A 0.40 0.40 0.0 0 1 115.96 81.46
  L 115.95 70.95
  A 0.40 0.40 0.0 0 0 115.55 70.55
  L 109.68 70.52
  A 0.40 0.40 0.0 0 0 109.28 70.92
  L 109.28 97.38
  A 0.40 0.40 0.0 0 0 109.68 97.78
  L 115.55 97.74
  A 0.40 0.40 0.0 0 0 115.95 97.34
  L 115.97 86.83
  A 0.40 0.40 0.0 0 1 116.67 86.58
  L 125.98 97.62
  A 0.40 0.40 0.0 0 0 126.29 97.76
  L 133.30 97.75
  A 0.40 0.40 0.0 0 0 133.60 97.09
  L 122.64 84.23
  A 0.40 0.40 0.0 0 1 122.63 83.71
  L 133.01 71.19
  A 0.40 0.40 0.0 0 0 132.70 70.54
  L 125.74 70.52
  A 0.40 0.40 0.0 0 0 125.43 70.67
  L 116.67 81.71"
/>
<path stroke="#805b01" vector-effect="non-scaling-stroke" d="
  M 143.19 76.16
  A 0.68 0.68 0.0 0 1 143.87 76.84
  L 143.90 97.08
  A 0.68 0.68 0.0 0 0 144.57 97.75
  L 149.84 97.79
  A 0.68 0.68 0.0 0 0 150.52 97.11
  L 150.50 76.82
  A 0.68 0.68 0.0 0 1 151.18 76.14
  L 158.50 76.08
  A 0.68 0.68 0.0 0 0 159.17 75.40
  L 159.14 71.20
  A 0.68 0.68 0.0 0 0 158.46 70.53
  L 135.77 70.51
  A 0.68 0.68 0.0 0 0 135.09 71.20
  L 135.14 75.46
  A 0.68 0.68 0.0 0 0 135.82 76.13
  L 143.19 76.16"
/>
<path stroke="#805b01" vector-effect="non-scaling-stroke" d="
  M 169.47 72.58
  Q 169.71 70.62 167.84 70.53
  Q 165.98 70.45 163.91 70.56
  A 0.48 0.47 88.8 0 0 163.46 71.04
  L 163.46 110.24
  Q 163.46 111.02 164.24 111.02
  L 169.14 111.01
  Q 170.03 111.01 170.02 110.12
  L 170.02 96.49
  A 0.40 0.40 0.0 0 1 170.66 96.16
  Q 175.55 99.81 181.18 97.67
  C 188.77 94.79 190.43 85.72 188.50 78.54
  Q 186.67 71.76 180.04 70.23
  C 175.93 69.29 173.19 70.37 170.15 72.95
  Q 169.35 73.62 169.47 72.58"
/>
<path stroke="#805b01" vector-effect="non-scaling-stroke" d="
  M 221.2561 82.4974
  A 12.38 12.38 0.0 0 0 208.9194 70.0743
  L 206.5194 70.0659
  A 12.38 12.38 0.0 0 0 194.0962 82.4026
  L 194.0839 85.9226
  A 12.38 12.38 0.0 0 0 206.4206 98.3457
  L 208.8206 98.3541
  A 12.38 12.38 0.0 0 0 221.2438 86.0174
  L 221.2561 82.4974"
/>
<path stroke="#805b01" vector-effect="non-scaling-stroke" d="
  M 234.44 81.02
  A 0.57 0.57 0.0 0 1 233.87 80.45
  L 233.81 71.11
  A 0.57 0.57 0.0 0 0 233.25 70.54
  L 227.78 70.49
  A 0.57 0.57 0.0 0 0 227.20 71.06
  L 227.21 97.22
  A 0.57 0.57 0.0 0 0 227.78 97.79
  L 233.30 97.77
  A 0.57 0.57 0.0 0 0 233.87 97.20
  L 233.83 87.07
  A 0.57 0.57 0.0 0 1 234.40 86.50
  L 244.44 86.52
  A 0.57 0.57 0.0 0 1 245.01 87.09
  L 245.00 97.21
  A 0.57 0.57 0.0 0 0 245.57 97.78
  L 251.02 97.77
  A 0.57 0.57 0.0 0 0 251.59 97.20
  L 251.58 71.11
  A 0.57 0.57 0.0 0 0 251.01 70.54
  L 245.59 70.50
  A 0.57 0.57 0.0 0 0 245.02 71.07
  L 244.96 80.38
  A 0.57 0.57 0.0 0 1 244.40 80.94
  L 234.44 81.02"
/>
<path stroke="#805b01" vector-effect="non-scaling-stroke" d="
  M 277.39 81.29
  L 277.23 97.12
  Q 277.22 97.78 277.88 97.78
  L 283.23 97.77
  A 0.75 0.75 0.0 0 0 283.98 97.02
  L 283.97 71.24
  A 0.73 0.72 0.0 0 0 283.24 70.52
  L 278.60 70.52
  A 1.62 1.60 17.7 0 0 277.29 71.19
  L 265.67 87.13
  Q 265.26 87.69 265.27 87.00
  L 265.50 71.77
  A 1.24 1.23 -89.5 0 0 264.27 70.51
  L 259.73 70.52
  Q 258.73 70.52 258.73 71.52
  L 258.71 97.06
  A 0.70 0.70 0.0 0 0 259.40 97.76
  Q 261.52 97.79 263.78 97.77
  C 264.73 97.76 265.30 97.16 265.83 96.46
  Q 271.84 88.72 276.91 81.14
  Q 277.40 80.42 277.39 81.29"
/>
<path stroke="#805b01" vector-effect="non-scaling-stroke" d="
  M 297.90 81.31
  L 297.91 71.47
  A 0.95 0.95 0.0 0 0 296.97 70.52
  L 291.99 70.51
  Q 291.24 70.51 291.24 71.26
  L 291.25 97.26
  Q 291.25 97.78 291.76 97.77
  L 297.34 97.77
  Q 297.91 97.77 297.91 97.19
  L 297.91 86.72
  A 0.30 0.30 0.0 0 1 298.33 86.44
  Q 298.59 86.54 298.77 86.76
  Q 303.28 92.14 307.17 96.76
  Q 308.05 97.81 309.43 97.81
  L 314.74 97.78
  Q 316.12 97.77 315.23 96.73
  L 304.64 84.31
  A 0.55 0.55 0.0 0 1 304.64 83.61
  L 314.59 71.66
  A 0.71 0.71 0.0 0 0 314.05 70.50
  L 308.68 70.50
  Q 307.54 70.50 306.82 71.40
  L 298.68 81.59
  Q 297.90 82.57 297.90 81.31"
/>
<path stroke="#805b01" vector-effect="non-scaling-stroke" d="
  M 336.28 95.91
  L 336.32 97.29
  Q 336.34 97.75 336.79 97.75
  L 341.92 97.81
  Q 342.54 97.82 342.52 97.20
  Q 342.38 88.76 342.39 80.44
  C 342.40 68.87 330.25 68.68 322.14 71.26
  Q 321.07 71.60 321.08 72.72
  L 321.10 75.75
  Q 321.11 76.85 322.16 76.50
  Q 326.49 75.06 331.09 75.30
  A 4.80 4.78 -9.6 0 1 335.27 78.26
  Q 335.50 78.83 335.66 79.45
  Q 336.20 81.59 334.07 81.02
  C 326.65 79.04 317.68 82.21 319.16 91.55
  Q 319.98 96.72 324.86 97.81
  Q 327.65 98.43 331.87 97.63
  C 333.35 97.35 334.32 96.34 335.49 95.52
  Q 336.25 94.99 336.28 95.91"
/>
<path stroke="#805b01" vector-effect="non-scaling-stroke" d="
  M 86.17 81.02
  L 95.82 80.94
  A 0.43 0.43 0.0 0 0 96.25 80.50
  L 96.25 80.38
  A 5.19 5.17 89.5 0 0 91.03 75.24
  L 90.85 75.24
  A 5.19 5.17 89.5 0 0 85.73 80.48
  L 85.73 80.60
  A 0.43 0.43 0.0 0 0 86.17 81.02"
/>
<path stroke="#805b01" vector-effect="non-scaling-stroke" d="
  M 181.78 87.88
  C 183.61 81.45 181.22 72.19 172.19 76.45
  Q 170.01 77.48 170.01 79.79
  Q 170.02 84.23 170.00 88.88
  C 169.99 90.48 171.22 91.76 172.62 92.32
  Q 179.70 95.17 181.78 87.88"
/>
<path stroke="#805b01" vector-effect="non-scaling-stroke" d="
  M 207.6617 93.2499
  A 9.08 6.93 89.8 0 0 214.5600 84.1458
  A 9.08 6.93 89.8 0 0 207.5983 75.0901
  A 9.08 6.93 89.8 0 0 200.7000 84.1942
  A 9.08 6.93 89.8 0 0 207.6617 93.2499"
/>
<path stroke="#805b01" vector-effect="non-scaling-stroke" d="
  M 332.35 92.61
  Q 336.81 90.91 335.48 86.62
  Q 335.35 86.21 334.94 86.14
  C 332.03 85.64 326.76 85.08 325.81 88.82
  C 324.78 92.89 329.37 93.74 332.35 92.61"
/>
</g>
<path fill="#000001" d="
  M 30.42 24.01
  Q 30.09 24.01 30.09 24.33
  L 30.06 29.65
  Q 30.06 29.99 30.40 30.00
  L 41.77 30.00
  Q 45.27 30.00 45.29 33.50
  Q 45.32 36.08 45.32 36.17
  Q 45.34 39.42 42.11 39.47
  Q 36.16 39.55 30.61 39.41
  A 0.50 0.50 0.0 0 0 30.10 39.90
  L 30.06 45.17
  Q 30.05 45.60 30.48 45.60
  L 44.53 45.58
  Q 48.00 45.57 48.00 49.03
  L 48.00 51.50
  Q 48.00 55.00 44.50 55.00
  L 23.50 55.00
  A 3.00 3.00 0.0 0 1 20.50 52.00
  L 20.50 17.25
  A 2.25 2.24 0.0 0 1 22.75 15.01
  L 44.93 15.01
  Q 48.11 15.01 48.08 18.19
  L 48.06 20.49
  Q 48.03 24.00 44.51 24.01
  L 30.42 24.01
  Z
  M 29.05 39.07
  Q 29.05 38.44 29.68 38.43
  L 42.16 38.42
  Q 44.24 38.42 44.25 36.34
  L 44.25 33.27
  Q 44.26 31.03 42.02 31.03
  L 29.76 31.00
  Q 29.03 31.00 29.03 30.26
  L 29.05 23.73
  A 0.72 0.72 0.0 0 1 29.77 23.01
  L 44.58 22.99
  Q 46.89 22.99 46.96 20.67
  L 47.04 18.06
  Q 47.10 16.02 45.06 16.02
  L 23.00 16.03
  Q 21.52 16.03 21.52 17.50
  L 21.52 52.01
  A 1.99 1.99 0.0 0 0 23.51 54.00
  L 44.64 53.98
  Q 47.01 53.98 47.01 51.61
  L 47.02 48.98
  Q 47.02 46.69 44.73 46.69
  L 29.62 46.73
  Q 29.01 46.73 29.02 46.12
  L 29.05 39.07
  Z"
/>
<path fill="#000001" d="
  M 60.92 45.60
  L 74.83 45.58
  Q 78.07 45.58 78.03 48.82
  L 77.99 52.02
  Q 77.95 55.00 74.97 55.00
  L 53.49 55.00
  A 2.76 2.75 90.0 0 1 50.74 52.24
  L 50.74 18.01
  Q 50.74 15.01 53.74 15.00
  L 57.25 15.00
  Q 60.25 15.00 60.25 18.00
  L 60.24 44.92
  Q 60.24 45.60 60.92 45.60
  Z
  M 59.82 46.71
  Q 59.19 46.71 59.19 46.07
  L 59.20 18.02
  Q 59.20 15.96 57.14 16.00
  L 53.59 16.06
  Q 51.77 16.09 51.77 17.91
  L 51.78 52.26
  A 1.73 1.73 0.0 0 0 53.51 53.99
  L 74.98 53.99
  Q 76.94 53.99 77.00 52.02
  L 77.09 48.80
  Q 77.15 46.71 75.06 46.71
  L 59.82 46.71
  Z"
/>
<path fill="#000001" d="
  M 89.46 24.01
  Q 89.17 24.01 89.17 24.29
  L 89.15 29.63
  A 0.36 0.36 0.0 0 0 89.51 29.99
  L 100.72 30.00
  Q 104.43 30.01 104.43 33.72
  L 104.43 36.05
  Q 104.42 39.52 100.95 39.50
  L 89.51 39.44
  Q 89.22 39.44 89.21 39.73
  L 89.14 45.25
  Q 89.14 45.62 89.50 45.62
  L 103.75 45.59
  Q 107.16 45.58 107.18 49.00
  L 107.18 51.64
  Q 107.20 54.98 103.86 54.98
  L 82.55 55.01
  A 2.97 2.97 0.0 0 1 79.58 52.05
  L 79.56 17.16
  A 2.15 2.15 0.0 0 1 81.71 15.01
  L 103.85 15.01
  Q 107.19 15.01 107.18 18.35
  L 107.18 20.41
  Q 107.18 24.00 103.59 24.00
  L 89.46 24.01
  Z
  M 88.69 23.00
  L 103.68 22.99
  Q 106.10 22.98 106.09 20.56
  L 106.08 18.15
  Q 106.07 15.98 103.90 15.99
  L 81.71 16.03
  A 1.02 1.02 0.0 0 0 80.69 17.05
  L 80.70 52.22
  A 1.77 1.77 0.0 0 0 82.47 53.99
  L 103.83 53.98
  Q 106.14 53.97 106.11 51.67
  L 106.08 49.01
  Q 106.05 46.71 103.76 46.71
  L 88.72 46.71
  Q 88.08 46.71 88.09 46.08
  L 88.10 39.05
  Q 88.10 38.45 88.70 38.45
  L 101.63 38.40
  A 1.73 1.73 0.0 0 0 103.36 36.66
  L 103.36 33.10
  A 1.95 1.94 1.1 0 0 101.48 31.16
  Q 94.70 30.89 88.69 31.05
  A 0.57 0.57 0.0 0 1 88.11 30.47
  L 88.13 23.56
  A 0.56 0.56 0.0 0 1 88.69 23.00
  Z"
/>
<path fill="#000001" d="
  M 165.95 18.68
  Q 166.36 19.61 166.42 18.59
  Q 166.51 17.22 166.97 16.11
  Q 167.45 14.94 168.73 14.97
  Q 175.25 15.13 181.87 14.94
  Q 186.67 14.80 189.30 16.28
  C 195.51 19.75 195.98 26.26 194.82 32.91
  Q 194.74 33.40 194.36 33.73
  L 189.80 37.79
  Q 189.40 38.14 189.65 38.62
  L 196.67 51.77
  A 1.88 1.88 0.0 0 1 195.54 54.46
  C 192.87 55.23 188.16 55.82 186.40 52.98
  Q 185.47 51.48 184.80 49.80
  Q 184.56 49.19 183.97 48.90
  Q 182.84 48.34 182.97 47.00
  Q 183.03 46.38 182.75 45.83
  L 179.90 40.21
  Q 179.49 39.41 178.60 39.58
  Q 177.76 39.75 176.93 39.58
  A 0.79 0.79 0.0 0 0 175.98 40.36
  Q 176.04 45.48 175.97 50.73
  Q 175.95 52.20 175.28 53.62
  A 1.37 1.36 -88.2 0 1 174.54 54.32
  Q 170.97 55.77 167.57 54.34
  A 1.53 1.51 -3.0 0 1 166.86 53.71
  Q 166.00 52.23 166.00 51.25
  Q 166.00 39.57 166.00 27.89
  Q 166.00 26.90 166.32 24.13
  Q 166.53 22.33 166.36 20.30
  Q 166.29 19.42 165.94 20.23
  Q 165.81 20.51 165.60 20.73
  Q 165.38 20.96 165.37 21.27
  Q 165.30 22.61 164.13 23.60
  Q 163.64 24.01 163.00 24.01
  L 156.44 23.99
  A 0.45 0.45 0.0 0 0 155.99 24.44
  Q 156.03 37.96 155.97 49.33
  Q 155.96 51.46 155.27 53.62
  Q 155.11 54.10 154.64 54.30
  Q 151.07 55.78 147.57 54.36
  A 1.56 1.55 86.2 0 1 146.84 53.72
  Q 146.02 52.27 146.01 50.63
  Q 145.98 38.32 146.01 24.73
  Q 146.02 24.01 145.30 24.01
  L 138.50 24.00
  Q 137.94 23.99 137.95 24.55
  Q 137.97 25.23 138.13 25.88
  A 2.74 2.73 -7.1 0 1 135.48 29.28
  L 131.76 29.28
  A 3.19 3.18 -9.9 0 1 128.76 27.18
  C 127.49 23.66 122.75 22.18 120.23 25.05
  Q 118.89 26.59 118.97 28.71
  Q 119.15 33.72 118.94 38.58
  C 118.77 42.61 119.48 46.54 124.73 45.72
  Q 128.01 45.20 128.85 41.77
  A 1.61 1.60 -6.0 0 1 129.72 40.70
  C 132.61 39.33 140.31 39.02 137.80 44.91
  Q 133.02 56.12 121.77 54.97
  C 114.45 54.23 110.74 49.33 109.27 42.59
  C 108.57 39.33 109.03 35.30 108.94 31.81
  Q 108.82 27.19 109.90 24.14
  Q 111.59 19.36 115.99 16.33
  C 118.60 14.54 122.16 15.05 125.19 14.97
  C 129.21 14.87 132.41 16.29 134.98 19.43
  Q 136.06 20.75 136.01 19.04
  L 135.97 17.81
  Q 135.89 15.01 138.69 15.01
  L 163.49 15.01
  A 1.38 1.38 0.0 0 1 164.36 15.32
  C 165.74 16.41 165.33 17.27 165.95 18.68
  Z
  M 128.19 45.41
  C 124.48 47.94 118.16 47.62 118.05 41.78
  Q 117.93 35.45 118.01 28.13
  Q 118.03 26.72 118.66 25.51
  Q 119.78 23.40 121.30 22.82
  Q 125.19 21.33 128.71 24.76
  Q 129.26 25.29 129.43 26.04
  C 129.72 27.35 130.86 28.35 132.26 28.27
  C 133.62 28.19 135.63 28.64 136.64 27.52
  Q 137.41 26.66 137.07 25.44
  Q 135.25 18.92 129.01 16.50
  C 126.59 15.56 123.66 16.26 121.08 16.06
  Q 119.09 15.90 117.38 16.82
  Q 115.57 17.79 114.24 19.18
  Q 110.07 23.54 110.01 30.27
  Q 109.98 35.07 110.07 39.48
  Q 110.18 44.78 113.17 49.14
  Q 115.11 51.96 118.44 53.10
  Q 126.16 55.76 131.81 51.32
  Q 136.01 48.02 137.18 42.62
  A 0.98 0.98 0.0 0 0 136.53 41.49
  Q 133.83 40.61 130.79 41.37
  Q 130.32 41.49 130.10 41.92
  L 128.52 45.03
  Q 128.40 45.26 128.19 45.41
  Z
  M 155.70 23.01
  L 162.16 23.00
  Q 164.56 22.99 164.61 20.59
  L 164.67 18.21
  Q 164.72 15.95 162.46 15.96
  L 138.20 16.11
  A 1.20 1.20 0.0 0 0 137.01 17.31
  L 137.01 21.75
  Q 137.01 23.00 138.25 23.00
  L 146.50 22.99
  A 0.51 0.50 90.0 0 1 147.00 23.50
  L 147.00 50.77
  Q 147.00 54.05 150.29 54.02
  Q 151.58 54.00 151.85 54.00
  Q 154.88 53.96 154.91 51.08
  Q 155.08 37.12 154.96 23.75
  Q 154.96 23.01 155.70 23.01
  Z
  M 180.50 38.98
  L 186.87 51.84
  Q 187.96 54.05 190.42 54.01
  L 193.86 53.95
  Q 196.59 53.91 195.31 51.50
  L 188.52 38.72
  Q 188.05 37.84 188.79 37.18
  Q 190.51 35.65 192.29 34.12
  Q 193.69 32.93 193.99 31.13
  C 194.98 25.34 193.61 19.44 188.19 16.91
  Q 185.96 15.87 183.33 15.92
  Q 176.00 16.07 168.71 16.02
  A 1.02 1.02 0.0 0 0 167.70 16.90
  Q 167.25 20.19 167.39 23.78
  C 167.42 24.61 167.02 25.32 167.02 26.18
  Q 167.00 38.10 167.00 50.75
  Q 167.01 53.99 170.24 53.99
  L 171.75 54.00
  Q 175.00 54.00 175.00 50.75
  L 175.00 39.33
  A 0.67 0.67 0.0 0 1 175.67 38.66
  L 179.97 38.65
  Q 180.34 38.65 180.50 38.98
  Z"
/>
<path fill="#000001" d="
  M 204.40 53.05
  C 202.84 52.07 201.36 51.67 200.04 50.25
  Q 199.22 49.38 199.04 48.32
  C 198.56 45.55 197.51 43.43 197.46 40.44
  Q 197.35 33.22 197.58 27.45
  C 197.75 23.07 200.77 18.43 204.58 16.15
  C 207.60 14.33 212.65 14.98 216.08 15.10
  Q 219.81 15.23 222.96 18.51
  Q 225.01 20.64 226.15 23.97
  Q 227.16 26.94 227.14 29.95
  Q 227.10 35.57 227.05 40.64
  Q 226.99 46.20 223.12 50.62
  Q 219.84 54.35 214.45 54.94
  Q 208.44 55.59 204.40 53.05
  Z
  M 199.57 45.85
  C 199.86 47.82 201.20 50.58 203.27 51.22
  C 204.69 51.66 205.39 52.73 206.78 53.21
  Q 210.86 54.61 215.64 53.69
  C 221.76 52.52 225.69 46.92 225.94 40.74
  Q 226.14 36.01 226.11 31.20
  C 226.07 25.51 224.40 19.61 218.96 16.88
  C 215.86 15.32 212.45 16.34 209.17 16.03
  Q 206.98 15.81 205.22 16.99
  Q 198.51 21.43 198.45 30.02
  Q 198.42 35.23 198.51 40.75
  C 198.54 42.67 199.30 44.04 199.57 45.85
  Z"
/>
<path fill="#000001" d="
  M 240.01 35.71
  L 240.00 50.88
  Q 240.00 55.00 235.87 55.00
  L 234.48 55.00
  Q 230.46 55.00 230.47 50.98
  L 230.47 24.24
  Q 230.47 23.70 230.25 23.21
  Q 229.90 22.46 230.28 21.71
  A 1.66 1.64 59.3 0 0 230.47 20.94
  L 230.45 16.91
  A 1.90 1.89 -90.0 0 1 232.34 15.01
  L 237.69 15.00
  A 1.14 1.12 69.6 0 1 238.55 15.40
  Q 239.99 17.11 241.36 19.32
  Q 246.49 27.61 251.25 35.16
  Q 251.85 36.11 251.84 34.99
  L 251.78 17.75
  Q 251.76 15.01 254.50 15.01
  L 258.26 15.00
  Q 261.26 15.00 261.26 18.01
  L 261.26 52.70
  A 1.79 1.79 0.0 0 1 259.89 54.44
  C 256.65 55.22 253.74 55.64 251.69 52.40
  Q 246.24 43.77 240.86 35.46
  Q 240.01 34.15 240.01 35.71
  Z
  M 239.25 31.99
  Q 239.45 31.93 239.60 32.04
  Q 239.86 32.22 239.93 32.53
  C 240.25 33.97 241.46 34.34 242.25 35.54
  Q 245.06 39.82 247.68 44.01
  Q 250.62 48.73 253.51 52.97
  A 1.74 1.73 -8.3 0 0 254.43 53.65
  Q 256.98 54.45 259.65 53.35
  A 0.97 0.97 0.0 0 0 260.24 52.46
  L 260.25 17.99
  Q 260.25 15.98 258.24 16.00
  L 254.53 16.05
  Q 252.89 16.08 252.89 17.72
  L 252.89 34.81
  Q 252.89 39.67 250.29 35.56
  L 238.26 16.53
  Q 237.92 16.00 237.29 16.00
  L 232.19 16.05
  A 0.77 0.76 -0.4 0 0 231.43 16.81
  L 231.46 51.22
  Q 231.47 53.98 234.22 53.99
  L 235.88 53.99
  Q 239.00 54.00 239.00 50.88
  L 239.00 32.32
  Q 239.00 32.06 239.25 31.99
  Z"
/>
<path fill="#000001" d="
  M 275.09 52.20
  A 2.70 2.70 0.0 0 1 272.39 54.90
  L 268.21 54.90
  A 2.70 2.70 0.0 0 1 265.51 52.20
  L 265.51 17.68
  A 2.70 2.70 0.0 0 1 268.21 14.98
  L 272.39 14.98
  A 2.70 2.70 0.0 0 1 275.09 17.68
  L 275.09 52.20
  Z
  M 274.05 17.70
  A 1.73 1.73 0.0 0 0 272.32 15.97
  L 268.28 15.97
  A 1.73 1.73 0.0 0 0 266.55 17.70
  L 266.55 52.18
  A 1.73 1.73 0.0 0 0 268.28 53.91
  L 272.32 53.91
  A 1.73 1.73 0.0 0 0 274.05 52.18
  L 274.05 17.70
  Z"
/>
<path fill="#000001" d="
  M 292.06 39.54
  L 289.48 42.18
  A 1.48 1.47 -22.9 0 0 289.06 43.21
  L 289.05 51.43
  Q 289.05 54.92 285.57 54.97
  L 283.16 55.01
  Q 279.50 55.07 279.50 51.41
  L 279.50 17.74
  Q 279.50 14.96 282.27 14.96
  Q 284.73 14.95 286.86 15.14
  Q 289.04 15.32 289.04 17.51
  L 289.06 27.96
  Q 289.06 29.53 289.92 28.21
  C 290.64 27.11 291.10 26.23 292.08 25.28
  Q 292.98 24.41 293.59 23.37
  C 294.83 21.26 296.85 19.90 297.95 17.75
  C 299.86 14.00 304.36 14.97 307.69 15.07
  A 1.96 1.96 0.0 0 1 309.55 16.61
  C 309.96 18.44 307.66 19.77 306.75 21.20
  Q 305.74 22.78 304.89 23.71
  Q 302.04 26.83 299.24 30.60
  Q 298.90 31.05 299.19 31.54
  L 309.21 48.57
  A 0.25 0.25 0.0 0 0 309.66 48.53
  Q 315.30 33.02 321.35 16.73
  Q 321.91 15.25 323.44 15.08
  C 325.48 14.84 329.49 14.59 330.41 17.05
  Q 336.79 34.21 343.06 51.40
  Q 344.00 53.97 341.35 54.69
  Q 339.28 55.25 336.62 54.97
  Q 334.11 54.72 333.30 52.32
  L 331.73 47.66
  Q 331.53 47.05 330.88 47.05
  L 320.81 47.04
  Q 320.14 47.04 319.92 47.68
  L 318.06 53.08
  A 2.84 2.84 0.0 0 1 315.37 55.00
  L 303.75 55.00
  Q 301.85 55.00 300.88 53.36
  L 292.79 39.63
  Q 292.48 39.11 292.06 39.54
  Z
  M 299.20 17.94
  C 298.09 20.16 296.05 21.73 294.74 23.77
  C 293.65 25.45 292.11 26.66 290.95 28.38
  Q 288.04 32.71 288.03 27.50
  L 288.02 17.50
  A 1.52 1.51 89.6 0 0 286.50 15.99
  L 281.75 16.03
  Q 280.54 16.04 280.54 17.25
  L 280.53 51.52
  Q 280.53 54.00 283.02 53.99
  L 285.37 53.99
  Q 287.96 53.98 287.99 51.38
  L 288.09 42.32
  A 0.73 0.69 -24.3 0 1 288.29 41.83
  L 291.60 38.33
  A 1.09 1.09 0.0 0 1 293.33 38.52
  L 301.93 52.90
  Q 302.58 53.99 303.85 53.99
  L 315.56 54.00
  A 1.50 1.50 0.0 0 0 316.99 52.95
  L 318.93 46.84
  A 1.19 1.19 0.0 0 1 320.06 46.02
  L 331.76 46.00
  Q 332.29 46.00 332.47 46.50
  L 334.53 52.25
  Q 335.16 54.01 337.03 54.00
  L 340.65 53.98
  A 1.57 1.56 79.7 0 0 342.11 51.87
  L 329.25 17.12
  Q 328.87 16.11 327.79 16.08
  L 323.73 16.00
  Q 322.86 15.99 322.56 16.80
  L 310.49 49.43
  Q 310.24 50.10 309.53 50.08
  Q 308.87 50.07 308.51 49.47
  Q 303.14 40.50 298.44 32.38
  C 296.98 29.86 300.07 28.28 301.16 26.41
  C 302.37 24.31 304.35 23.11 305.48 21.00
  C 306.20 19.67 307.42 18.70 308.44 17.59
  A 0.92 0.92 0.0 0 0 307.81 16.05
  Q 305.08 15.93 301.81 16.05
  C 300.58 16.10 299.72 16.92 299.20 17.94
  Z"
/>
<path fill="#fefeff" d="
  M 29.62 46.73
  L 44.73 46.69
  Q 47.02 46.69 47.02 48.98
  L 47.01 51.61
  Q 47.01 53.98 44.64 53.98
  L 23.51 54.00
  A 1.99 1.99 0.0 0 1 21.52 52.01
  L 21.52 17.50
  Q 21.52 16.03 23.00 16.03
  L 45.06 16.02
  Q 47.10 16.02 47.04 18.06
  L 46.96 20.67
  Q 46.89 22.99 44.58 22.99
  L 29.77 23.01
  A 0.72 0.72 0.0 0 0 29.05 23.73
  L 29.03 30.26
  Q 29.03 31.00 29.76 31.00
  L 42.02 31.03
  Q 44.26 31.03 44.25 33.27
  L 44.25 36.34
  Q 44.24 38.42 42.16 38.42
  L 29.68 38.43
  Q 29.05 38.44 29.05 39.07
  L 29.02 46.12
  Q 29.01 46.73 29.62 46.73
  Z
  M 27.74 22.15
  A 0.65 0.65 0.0 0 1 28.39 21.50
  L 45.11 21.52
  A 0.65 0.65 0.0 0 0 45.76 20.86
  L 45.70 17.55
  A 0.65 0.65 0.0 0 0 45.05 16.91
  L 23.42 16.91
  A 0.65 0.65 0.0 0 0 22.77 17.56
  L 22.76 51.98
  A 0.65 0.65 0.0 0 0 23.41 52.63
  L 45.09 52.62
  A 0.65 0.65 0.0 0 0 45.74 51.97
  L 45.75 48.50
  A 0.65 0.65 0.0 0 0 45.10 47.85
  L 28.40 47.93
  A 0.65 0.65 0.0 0 1 27.75 47.28
  L 27.75 37.73
  A 0.65 0.65 0.0 0 1 28.40 37.08
  L 42.31 37.14
  A 0.65 0.65 0.0 0 0 42.96 36.49
  L 42.99 33.16
  A 0.65 0.65 0.0 0 0 42.34 32.51
  L 28.41 32.48
  A 0.65 0.65 0.0 0 1 27.76 31.83
  L 27.74 22.15
  Z"
/>
<path fill="#fefeff" d="
  M 59.82 46.71
  L 75.06 46.71
  Q 77.15 46.71 77.09 48.80
  L 77.00 52.02
  Q 76.94 53.99 74.98 53.99
  L 53.51 53.99
  A 1.73 1.73 0.0 0 1 51.78 52.26
  L 51.77 17.91
  Q 51.77 16.09 53.59 16.06
  L 57.14 16.00
  Q 59.20 15.96 59.20 18.02
  L 59.19 46.07
  Q 59.19 46.71 59.82 46.71
  Z
  M 58.62 47.92
  A 0.72 0.72 0.0 0 1 57.90 47.20
  L 57.92 17.65
  A 0.72 0.72 0.0 0 0 57.19 16.93
  L 53.73 16.96
  A 0.72 0.72 0.0 0 0 53.02 17.68
  L 53.03 51.91
  A 0.72 0.72 0.0 0 0 53.75 52.63
  L 75.20 52.62
  A 0.72 0.72 0.0 0 0 75.92 51.90
  L 75.92 48.60
  A 0.72 0.72 0.0 0 0 75.20 47.88
  L 58.62 47.92
  Z"
/>
<path fill="#fefeff" d="
  M 88.69 23.00
  A 0.56 0.56 0.0 0 0 88.13 23.56
  L 88.11 30.47
  A 0.57 0.57 0.0 0 0 88.69 31.05
  Q 94.70 30.89 101.48 31.16
  A 1.95 1.94 1.1 0 1 103.36 33.10
  L 103.36 36.66
  A 1.73 1.73 0.0 0 1 101.63 38.40
  L 88.70 38.45
  Q 88.10 38.45 88.10 39.05
  L 88.09 46.08
  Q 88.08 46.71 88.72 46.71
  L 103.76 46.71
  Q 106.05 46.71 106.08 49.01
  L 106.11 51.67
  Q 106.14 53.97 103.83 53.98
  L 82.47 53.99
  A 1.77 1.77 0.0 0 1 80.70 52.22
  L 80.69 17.05
  A 1.02 1.02 0.0 0 1 81.71 16.03
  L 103.90 15.99
  Q 106.07 15.98 106.08 18.15
  L 106.09 20.56
  Q 106.10 22.98 103.68 22.99
  L 88.69 23.00
  Z
  M 87.44 47.89
  A 0.66 0.66 0.0 0 1 86.77 47.22
  L 86.82 37.76
  A 0.66 0.66 0.0 0 1 87.48 37.11
  L 101.42 37.26
  A 0.66 0.66 0.0 0 0 102.09 36.61
  L 102.14 33.15
  A 0.66 0.66 0.0 0 0 101.48 32.48
  L 87.45 32.50
  A 0.66 0.66 0.0 0 1 86.79 31.84
  L 86.81 22.16
  A 0.66 0.66 0.0 0 1 87.47 21.50
  L 104.20 21.52
  A 0.66 0.66 0.0 0 0 104.86 20.84
  L 104.77 17.49
  A 0.66 0.66 0.0 0 0 104.11 16.85
  L 82.56 16.87
  A 0.66 0.66 0.0 0 0 81.90 17.53
  L 81.93 51.99
  A 0.66 0.66 0.0 0 0 82.59 52.65
  L 104.19 52.64
  A 0.66 0.66 0.0 0 0 104.85 51.97
  L 104.83 48.46
  A 0.66 0.66 0.0 0 0 104.16 47.80
  L 87.44 47.89
  Z"
/>
<path fill="#fefeff" d="
  M 128.52 45.03
  L 130.10 41.92
  Q 130.32 41.49 130.79 41.37
  Q 133.83 40.61 136.53 41.49
  A 0.98 0.98 0.0 0 1 137.18 42.62
  Q 136.01 48.02 131.81 51.32
  Q 126.16 55.76 118.44 53.10
  Q 115.11 51.96 113.17 49.14
  Q 110.18 44.78 110.07 39.48
  Q 109.98 35.07 110.01 30.27
  Q 110.07 23.54 114.24 19.18
  Q 115.57 17.79 117.38 16.82
  Q 119.09 15.90 121.08 16.06
  C 123.66 16.26 126.59 15.56 129.01 16.50
  Q 135.25 18.92 137.07 25.44
  Q 137.41 26.66 136.64 27.52
  C 135.63 28.64 133.62 28.19 132.26 28.27
  C 130.86 28.35 129.72 27.35 129.43 26.04
  Q 129.26 25.29 128.71 24.76
  Q 125.19 21.33 121.30 22.82
  Q 119.78 23.40 118.66 25.51
  Q 118.03 26.72 118.01 28.13
  Q 117.93 35.45 118.05 41.78
  C 118.16 47.62 124.48 47.94 128.19 45.41
  Q 128.40 45.26 128.52 45.03
  Z
  M 130.74 43.17
  C 128.03 51.02 116.75 49.22 116.53 40.40
  Q 116.38 34.45 116.56 28.88
  C 116.78 21.83 124.09 18.73 129.17 23.76
  C 130.04 24.61 130.31 25.69 131.05 26.61
  Q 131.36 26.99 131.85 27.00
  L 135.23 27.12
  A 0.73 0.73 0.0 0 0 135.95 26.18
  Q 132.76 15.75 121.96 16.71
  C 115.65 17.28 111.51 22.48 111.41 28.75
  Q 111.32 33.75 111.33 39.05
  C 111.34 44.10 112.97 48.96 117.31 51.30
  C 124.92 55.42 133.48 51.79 135.87 43.35
  Q 136.18 42.29 135.07 42.30
  L 131.92 42.32
  Q 131.03 42.33 130.74 43.17
  Z"
/>
<path fill="#fefeff" d="
  M 154.96 23.75
  Q 155.08 37.12 154.91 51.08
  Q 154.88 53.96 151.85 54.00
  Q 151.58 54.00 150.29 54.02
  Q 147.00 54.05 147.00 50.77
  L 147.00 23.50
  A 0.51 0.50 90.0 0 0 146.50 22.99
  L 138.25 23.00
  Q 137.01 23.00 137.01 21.75
  L 137.01 17.31
  A 1.20 1.20 0.0 0 1 138.20 16.11
  L 162.46 15.96
  Q 164.72 15.95 164.67 18.21
  L 164.61 20.59
  Q 164.56 22.99 162.16 23.00
  L 155.70 23.01
  Q 154.96 23.01 154.96 23.75
  Z
  M 153.49 22.14
  A 0.65 0.65 0.0 0 1 154.14 21.49
  L 162.93 21.52
  A 0.65 0.65 0.0 0 0 163.59 20.86
  L 163.56 17.48
  A 0.65 0.65 0.0 0 0 162.91 16.83
  L 139.06 16.95
  A 0.65 0.65 0.0 0 0 138.41 17.59
  L 138.37 20.87
  A 0.65 0.65 0.0 0 0 139.02 21.53
  L 147.84 21.50
  A 0.65 0.65 0.0 0 1 148.49 22.15
  L 148.49 51.97
  A 0.65 0.65 0.0 0 0 149.13 52.62
  L 152.85 52.64
  A 0.65 0.65 0.0 0 0 153.51 51.99
  L 153.49 22.14
  Z"
/>
<path fill="#fefeff" d="
  M 179.97 38.65
  L 175.67 38.66
  A 0.67 0.67 0.0 0 0 175.00 39.33
  L 175.00 50.75
  Q 175.00 54.00 171.75 54.00
  L 170.24 53.99
  Q 167.01 53.99 167.00 50.75
  Q 167.00 38.10 167.02 26.18
  C 167.02 25.32 167.42 24.61 167.39 23.78
  Q 167.25 20.19 167.70 16.90
  A 1.02 1.02 0.0 0 1 168.71 16.02
  Q 176.00 16.07 183.33 15.92
  Q 185.96 15.87 188.19 16.91
  C 193.61 19.44 194.98 25.34 193.99 31.13
  Q 193.69 32.93 192.29 34.12
  Q 190.51 35.65 188.79 37.18
  Q 188.05 37.84 188.52 38.72
  L 195.31 51.50
  Q 196.59 53.91 193.86 53.95
  L 190.42 54.01
  Q 187.96 54.05 186.87 51.84
  L 180.50 38.98
  Q 180.34 38.65 179.97 38.65
  Z
  M 174.30 37.39
  L 180.24 37.38
  A 1.30 1.29 76.4 0 1 181.39 38.09
  L 188.28 51.80
  Q 188.72 52.67 189.69 52.66
  L 193.74 52.59
  Q 194.58 52.58 194.19 51.83
  L 186.74 37.71
  Q 186.36 36.98 187.11 36.63
  Q 191.64 34.54 192.67 30.20
  C 194.36 23.11 190.56 16.93 182.92 16.83
  Q 175.93 16.73 169.20 16.84
  A 0.69 0.69 0.0 0 0 168.52 17.53
  L 168.52 51.82
  Q 168.52 52.63 169.32 52.63
  L 172.81 52.63
  Q 173.50 52.63 173.50 51.94
  L 173.50 38.20
  Q 173.50 37.39 174.30 37.39
  Z"
/>
<path fill="#fefeff" d="
  M 199.57 45.85
  C 199.30 44.04 198.54 42.67 198.51 40.75
  Q 198.42 35.23 198.45 30.02
  Q 198.51 21.43 205.22 16.99
  Q 206.98 15.81 209.17 16.03
  C 212.45 16.34 215.86 15.32 218.96 16.88
  C 224.40 19.61 226.07 25.51 226.11 31.20
  Q 226.14 36.01 225.94 40.74
  C 225.69 46.92 221.76 52.52 215.64 53.69
  Q 210.86 54.61 206.78 53.21
  C 205.39 52.73 204.69 51.66 203.27 51.22
  C 201.20 50.58 199.86 47.82 199.57 45.85
  Z
  M 224.7523 28.4037
  A 11.68 11.68 0.0 0 0 213.1131 16.6830
  L 211.4532 16.6772
  A 11.68 11.68 0.0 0 0 199.7325 28.3164
  L 199.6877 41.1363
  A 11.68 11.68 0.0 0 0 211.3269 52.8570
  L 212.9868 52.8628
  A 11.68 11.68 0.0 0 0 224.7075 41.2236
  L 224.7523 28.4037
  Z"
/>
<path fill="#fefeff" d="
  M 239.00 32.32
  L 239.00 50.88
  Q 239.00 54.00 235.88 53.99
  L 234.22 53.99
  Q 231.47 53.98 231.46 51.22
  L 231.43 16.81
  A 0.77 0.76 -0.4 0 1 232.19 16.05
  L 237.29 16.00
  Q 237.92 16.00 238.26 16.53
  L 250.29 35.56
  Q 252.89 39.67 252.89 34.81
  L 252.89 17.72
  Q 252.89 16.08 254.53 16.05
  L 258.24 16.00
  Q 260.25 15.98 260.25 17.99
  L 260.24 52.46
  A 0.97 0.97 0.0 0 1 259.65 53.35
  Q 256.98 54.45 254.43 53.65
  A 1.74 1.73 -8.3 0 1 253.51 52.97
  Q 250.62 48.73 247.68 44.01
  Q 245.06 39.82 242.25 35.54
  C 241.46 34.34 240.25 33.97 239.93 32.53
  Q 239.86 32.22 239.60 32.04
  Q 239.45 31.93 239.25 31.99
  Q 239.00 32.06 239.00 32.32
  Z
  M 254.11 42.63
  A 0.31 0.31 0.0 0 1 253.54 42.79
  L 237.31 17.09
  A 0.31 0.31 0.0 0 0 237.05 16.95
  L 232.98 16.94
  A 0.31 0.31 0.0 0 0 232.67 17.25
  L 232.64 52.24
  A 0.31 0.31 0.0 0 0 232.95 52.55
  L 237.21 52.54
  A 0.31 0.31 0.0 0 0 237.52 52.23
  L 237.50 27.13
  A 0.31 0.31 0.0 0 1 238.07 26.96
  L 254.35 52.40
  A 0.31 0.31 0.0 0 0 254.61 52.54
  L 258.70 52.53
  A 0.31 0.31 0.0 0 0 259.01 52.22
  L 259.01 17.25
  A 0.31 0.31 0.0 0 0 258.70 16.94
  L 254.39 17.00
  A 0.31 0.31 0.0 0 0 254.08 17.31
  L 254.11 42.63
  Z"
/>
<path fill="#fefeff" d="
  M 274.05 52.18
  A 1.73 1.73 0.0 0 1 272.32 53.91
  L 268.28 53.91
  A 1.73 1.73 0.0 0 1 266.55 52.18
  L 266.55 17.70
  A 1.73 1.73 0.0 0 1 268.28 15.97
  L 272.32 15.97
  A 1.73 1.73 0.0 0 1 274.05 17.70
  L 274.05 52.18
  Z
  M 272.76 17.59
  A 0.70 0.70 0.0 0 0 272.06 16.89
  L 268.48 16.89
  A 0.70 0.70 0.0 0 0 267.78 17.59
  L 267.78 51.93
  A 0.70 0.70 0.0 0 0 268.48 52.63
  L 272.06 52.63
  A 0.70 0.70 0.0 0 0 272.76 51.93
  L 272.76 17.59
  Z"
/>
<path fill="#fefeff" d="
  M 299.20 17.94
  C 299.72 16.92 300.58 16.10 301.81 16.05
  Q 305.08 15.93 307.81 16.05
  A 0.92 0.92 0.0 0 1 308.44 17.59
  C 307.42 18.70 306.20 19.67 305.48 21.00
  C 304.35 23.11 302.37 24.31 301.16 26.41
  C 300.07 28.28 296.98 29.86 298.44 32.38
  Q 303.14 40.50 308.51 49.47
  Q 308.87 50.07 309.53 50.08
  Q 310.24 50.10 310.49 49.43
  L 322.56 16.80
  Q 322.86 15.99 323.73 16.00
  L 327.79 16.08
  Q 328.87 16.11 329.25 17.12
  L 342.11 51.87
  A 1.57 1.56 79.7 0 1 340.65 53.98
  L 337.03 54.00
  Q 335.16 54.01 334.53 52.25
  L 332.47 46.50
  Q 332.29 46.00 331.76 46.00
  L 320.06 46.02
  A 1.19 1.19 0.0 0 0 318.93 46.84
  L 316.99 52.95
  A 1.50 1.50 0.0 0 1 315.56 54.00
  L 303.85 53.99
  Q 302.58 53.99 301.93 52.90
  L 293.33 38.52
  A 1.09 1.09 0.0 0 0 291.60 38.33
  L 288.29 41.83
  A 0.73 0.69 -24.3 0 0 288.09 42.32
  L 287.99 51.38
  Q 287.96 53.98 285.37 53.99
  L 283.02 53.99
  Q 280.53 54.00 280.53 51.52
  L 280.54 17.25
  Q 280.54 16.04 281.75 16.03
  L 286.50 15.99
  A 1.52 1.51 89.6 0 1 288.02 17.50
  L 288.03 27.50
  Q 288.04 32.71 290.95 28.38
  C 292.11 26.66 293.65 25.45 294.74 23.77
  C 296.05 21.73 298.09 20.16 299.20 17.94
  Z
  M 287.39 34.75
  A 0.38 0.38 0.0 0 1 286.71 34.51
  L 286.74 17.26
  A 0.38 0.38 0.0 0 0 286.35 16.88
  L 282.12 16.95
  A 0.38 0.38 0.0 0 0 281.75 17.33
  L 281.74 52.26
  A 0.38 0.38 0.0 0 0 282.12 52.64
  L 286.33 52.61
  A 0.38 0.38 0.0 0 0 286.71 52.23
  L 286.75 42.27
  A 0.38 0.38 0.0 0 1 286.84 42.02
  L 292.27 35.51
  A 0.38 0.38 0.0 0 1 292.88 35.56
  L 302.97 52.45
  A 0.38 0.38 0.0 0 0 303.30 52.64
  L 308.49 52.62
  A 0.38 0.38 0.0 0 0 308.82 52.05
  L 296.26 31.01
  A 0.38 0.38 0.0 0 1 296.29 30.57
  L 307.02 17.54
  A 0.38 0.38 0.0 0 0 306.72 16.91
  L 301.53 17.01
  A 0.38 0.38 0.0 0 0 301.24 17.15
  L 287.39 34.75
  Z
  M 332.67 44.73
  A 0.56 0.56 0.0 0 1 333.20 45.11
  L 335.69 52.25
  A 0.56 0.56 0.0 0 0 336.22 52.63
  L 340.35 52.63
  A 0.56 0.56 0.0 0 0 340.87 51.88
  L 328.14 17.34
  A 0.56 0.56 0.0 0 0 327.62 16.98
  L 324.06 16.94
  A 0.56 0.56 0.0 0 0 323.53 17.31
  L 310.75 51.94
  A 0.56 0.56 0.0 0 0 311.28 52.69
  L 315.45 52.59
  A 0.56 0.56 0.0 0 0 315.97 52.21
  L 318.45 45.11
  A 0.56 0.56 0.0 0 1 318.98 44.74
  L 332.67 44.73
  Z"
/>
<path fill="#be0000" d="
  M 27.74 22.15
  L 27.76 31.83
  A 0.65 0.65 0.0 0 0 28.41 32.48
  L 42.34 32.51
  A 0.65 0.65 0.0 0 1 42.99 33.16
  L 42.96 36.49
  A 0.65 0.65 0.0 0 1 42.31 37.14
  L 28.40 37.08
  A 0.65 0.65 0.0 0 0 27.75 37.73
  L 27.75 47.28
  A 0.65 0.65 0.0 0 0 28.40 47.93
  L 45.10 47.85
  A 0.65 0.65 0.0 0 1 45.75 48.50
  L 45.74 51.97
  A 0.65 0.65 0.0 0 1 45.09 52.62
  L 23.41 52.63
  A 0.65 0.65 0.0 0 1 22.76 51.98
  L 22.77 17.56
  A 0.65 0.65 0.0 0 1 23.42 16.91
  L 45.05 16.91
  A 0.65 0.65 0.0 0 1 45.70 17.55
  L 45.76 20.86
  A 0.65 0.65 0.0 0 1 45.11 21.52
  L 28.39 21.50
  A 0.65 0.65 0.0 0 0 27.74 22.15
  Z"
/>
<path fill="#be0000" d="
  M 87.44 47.89
  L 104.16 47.80
  A 0.66 0.66 0.0 0 1 104.83 48.46
  L 104.85 51.97
  A 0.66 0.66 0.0 0 1 104.19 52.64
  L 82.59 52.65
  A 0.66 0.66 0.0 0 1 81.93 51.99
  L 81.90 17.53
  A 0.66 0.66 0.0 0 1 82.56 16.87
  L 104.11 16.85
  A 0.66 0.66 0.0 0 1 104.77 17.49
  L 104.86 20.84
  A 0.66 0.66 0.0 0 1 104.20 21.52
  L 87.47 21.50
  A 0.66 0.66 0.0 0 0 86.81 22.16
  L 86.79 31.84
  A 0.66 0.66 0.0 0 0 87.45 32.50
  L 101.48 32.48
  A 0.66 0.66 0.0 0 1 102.14 33.15
  L 102.09 36.61
  A 0.66 0.66 0.0 0 1 101.42 37.26
  L 87.48 37.11
  A 0.66 0.66 0.0 0 0 86.82 37.76
  L 86.77 47.22
  A 0.66 0.66 0.0 0 0 87.44 47.89
  Z"
/>
<path fill="#be0000" d="
  M 116.53 40.40
  C 116.75 49.22 128.03 51.02 130.74 43.17
  Q 131.03 42.33 131.92 42.32
  L 135.07 42.30
  Q 136.18 42.29 135.87 43.35
  C 133.48 51.79 124.92 55.42 117.31 51.30
  C 112.97 48.96 111.34 44.10 111.33 39.05
  Q 111.32 33.75 111.41 28.75
  C 111.51 22.48 115.65 17.28 121.96 16.71
  Q 132.76 15.75 135.95 26.18
  A 0.73 0.73 0.0 0 1 135.23 27.12
  L 131.85 27.00
  Q 131.36 26.99 131.05 26.61
  C 130.31 25.69 130.04 24.61 129.17 23.76
  C 124.09 18.73 116.78 21.83 116.56 28.88
  Q 116.38 34.45 116.53 40.40
  Z"
/>
<path fill="#be0000" d="
  M 153.49 22.14
  L 153.51 51.99
  A 0.65 0.65 0.0 0 1 152.85 52.64
  L 149.13 52.62
  A 0.65 0.65 0.0 0 1 148.49 51.97
  L 148.49 22.15
  A 0.65 0.65 0.0 0 0 147.84 21.50
  L 139.02 21.53
  A 0.65 0.65 0.0 0 1 138.37 20.87
  L 138.41 17.59
  A 0.65 0.65 0.0 0 1 139.06 16.95
  L 162.91 16.83
  A 0.65 0.65 0.0 0 1 163.56 17.48
  L 163.59 20.86
  A 0.65 0.65 0.0 0 1 162.93 21.52
  L 154.14 21.49
  A 0.65 0.65 0.0 0 0 153.49 22.14
  Z"
/>
<path fill="#be0000" d="
  M 173.50 38.20
  L 173.50 51.94
  Q 173.50 52.63 172.81 52.63
  L 169.32 52.63
  Q 168.52 52.63 168.52 51.82
  L 168.52 17.53
  A 0.69 0.69 0.0 0 1 169.20 16.84
  Q 175.93 16.73 182.92 16.83
  C 190.56 16.93 194.36 23.11 192.67 30.20
  Q 191.64 34.54 187.11 36.63
  Q 186.36 36.98 186.74 37.71
  L 194.19 51.83
  Q 194.58 52.58 193.74 52.59
  L 189.69 52.66
  Q 188.72 52.67 188.28 51.80
  L 181.39 38.09
  A 1.30 1.29 76.4 0 0 180.24 37.38
  L 174.30 37.39
  Q 173.50 37.39 173.50 38.20
  Z
  M 173.51 21.93
  L 173.49 32.25
  A 0.45 0.45 0.0 0 0 173.94 32.70
  L 182.83 32.71
  A 5.08 4.92 -89.9 0 0 187.76 27.64
  L 187.76 26.58
  A 5.08 4.92 -89.9 0 0 182.85 21.49
  L 173.96 21.48
  A 0.45 0.45 0.0 0 0 173.51 21.93
  Z"
/>
<path fill="#be0000" d="
  M 224.7075 41.2236
  A 11.68 11.68 0.0 0 1 212.9868 52.8628
  L 211.3269 52.8570
  A 11.68 11.68 0.0 0 1 199.6877 41.1363
  L 199.7325 28.3164
  A 11.68 11.68 0.0 0 1 211.4532 16.6772
  L 213.1131 16.6830
  A 11.68 11.68 0.0 0 1 224.7523 28.4037
  L 224.7075 41.2236
  Z
  M 219.66 28.41
  A 7.01 7.01 0.0 0 0 212.65 21.40
  L 211.81 21.40
  A 7.01 7.01 0.0 0 0 204.80 28.41
  L 204.80 40.97
  A 7.01 7.01 0.0 0 0 211.81 47.98
  L 212.65 47.98
  A 7.01 7.01 0.0 0 0 219.66 40.97
  L 219.66 28.41
  Z"
/>
<rect fill="#be0000" x="267.78" y="16.89" width="4.98" height="35.74" rx="0.70"/>
<path fill="#be0000" d="
  M 287.39 34.75
  L 301.24 17.15
  A 0.38 0.38 0.0 0 1 301.53 17.01
  L 306.72 16.91
  A 0.38 0.38 0.0 0 1 307.02 17.54
  L 296.29 30.57
  A 0.38 0.38 0.0 0 0 296.26 31.01
  L 308.82 52.05
  A 0.38 0.38 0.0 0 1 308.49 52.62
  L 303.30 52.64
  A 0.38 0.38 0.0 0 1 302.97 52.45
  L 292.88 35.56
  A 0.38 0.38 0.0 0 0 292.27 35.51
  L 286.84 42.02
  A 0.38 0.38 0.0 0 0 286.75 42.27
  L 286.71 52.23
  A 0.38 0.38 0.0 0 1 286.33 52.61
  L 282.12 52.64
  A 0.38 0.38 0.0 0 1 281.74 52.26
  L 281.75 17.33
  A 0.38 0.38 0.0 0 1 282.12 16.95
  L 286.35 16.88
  A 0.38 0.38 0.0 0 1 286.74 17.26
  L 286.71 34.51
  A 0.38 0.38 0.0 0 0 287.39 34.75
  Z"
/>
<path fill="#be0000" d="
  M 58.62 47.92
  L 75.20 47.88
  A 0.72 0.72 0.0 0 1 75.92 48.60
  L 75.92 51.90
  A 0.72 0.72 0.0 0 1 75.20 52.62
  L 53.75 52.63
  A 0.72 0.72 0.0 0 1 53.03 51.91
  L 53.02 17.68
  A 0.72 0.72 0.0 0 1 53.73 16.96
  L 57.19 16.93
  A 0.72 0.72 0.0 0 1 57.92 17.65
  L 57.90 47.20
  A 0.72 0.72 0.0 0 0 58.62 47.92
  Z"
/>
<path fill="#be0000" d="
  M 254.11 42.63
  L 254.08 17.31
  A 0.31 0.31 0.0 0 1 254.39 17.00
  L 258.70 16.94
  A 0.31 0.31 0.0 0 1 259.01 17.25
  L 259.01 52.22
  A 0.31 0.31 0.0 0 1 258.70 52.53
  L 254.61 52.54
  A 0.31 0.31 0.0 0 1 254.35 52.40
  L 238.07 26.96
  A 0.31 0.31 0.0 0 0 237.50 27.13
  L 237.52 52.23
  A 0.31 0.31 0.0 0 1 237.21 52.54
  L 232.95 52.55
  A 0.31 0.31 0.0 0 1 232.64 52.24
  L 232.67 17.25
  A 0.31 0.31 0.0 0 1 232.98 16.94
  L 237.05 16.95
  A 0.31 0.31 0.0 0 1 237.31 17.09
  L 253.54 42.79
  A 0.31 0.31 0.0 0 0 254.11 42.63
  Z"
/>
<path fill="#be0000" d="
  M 332.67 44.73
  L 318.98 44.74
  A 0.56 0.56 0.0 0 0 318.45 45.11
  L 315.97 52.21
  A 0.56 0.56 0.0 0 1 315.45 52.59
  L 311.28 52.69
  A 0.56 0.56 0.0 0 1 310.75 51.94
  L 323.53 17.31
  A 0.56 0.56 0.0 0 1 324.06 16.94
  L 327.62 16.98
  A 0.56 0.56 0.0 0 1 328.14 17.34
  L 340.87 51.88
  A 0.56 0.56 0.0 0 1 340.35 52.63
  L 336.22 52.63
  A 0.56 0.56 0.0 0 1 335.69 52.25
  L 333.20 45.11
  A 0.56 0.56 0.0 0 0 332.67 44.73
  Z
  M 320.33 39.60
  A 0.30 0.30 0.0 0 0 320.61 40.00
  L 331.03 40.00
  A 0.30 0.30 0.0 0 0 331.31 39.60
  L 326.10 24.50
  A 0.30 0.30 0.0 0 0 325.54 24.50
  L 320.33 39.60
  Z"
/>
<path fill="#fefeff" d="
  M 219.66 40.97
  A 7.01 7.01 0.0 0 1 212.65 47.98
  L 211.81 47.98
  A 7.01 7.01 0.0 0 1 204.80 40.97
  L 204.80 28.41
  A 7.01 7.01 0.0 0 1 211.81 21.40
  L 212.65 21.40
  A 7.01 7.01 0.0 0 1 219.66 28.41
  L 219.66 40.97
  Z
  M 218.3292 28.5194
  A 5.77 5.77 0.0 0 0 212.5491 22.7595
  L 211.9691 22.7605
  A 5.77 5.77 0.0 0 0 206.2092 28.5406
  L 206.2308 40.9406
  A 5.77 5.77 0.0 0 0 212.0109 46.7005
  L 212.5909 46.6995
  A 5.77 5.77 0.0 0 0 218.3508 40.9194
  L 218.3292 28.5194
  Z"
/>
<path fill="#fefeff" d="
  M 173.51 21.93
  A 0.45 0.45 0.0 0 1 173.96 21.48
  L 182.85 21.49
  A 5.08 4.92 -89.9 0 1 187.76 26.58
  L 187.76 27.64
  A 5.08 4.92 -89.9 0 1 182.83 32.71
  L 173.94 32.70
  A 0.45 0.45 0.0 0 1 173.49 32.25
  L 173.51 21.93
  Z
  M 174.99 23.63
  L 174.97 30.57
  A 0.66 0.66 0.0 0 0 175.63 31.23
  L 183.11 31.26
  A 3.31 3.14 -89.8 0 0 186.26 27.96
  L 186.26 26.32
  A 3.31 3.14 -89.8 0 0 183.13 23.00
  L 175.65 22.97
  A 0.66 0.66 0.0 0 0 174.99 23.63
  Z"
/>
<path fill="#000001" d="
  M 218.3508 40.9194
  A 5.77 5.77 0.0 0 1 212.5909 46.6995
  L 212.0109 46.7005
  A 5.77 5.77 0.0 0 1 206.2308 40.9406
  L 206.2092 28.5406
  A 5.77 5.77 0.0 0 1 211.9691 22.7605
  L 212.5491 22.7595
  A 5.77 5.77 0.0 0 1 218.3292 28.5194
  L 218.3508 40.9194
  Z
  M 217.2392 28.4813
  A 4.69 4.69 0.0 0 0 212.5410 23.7995
  L 211.9410 23.8005
  A 4.69 4.69 0.0 0 0 207.2592 28.4987
  L 207.2808 40.8587
  A 4.69 4.69 0.0 0 0 211.9790 45.5405
  L 212.5790 45.5395
  A 4.69 4.69 0.0 0 0 217.2608 40.8413
  L 217.2392 28.4813
  Z"
/>
<path fill="#000001" d="
  M 174.99 23.63
  A 0.66 0.66 0.0 0 1 175.65 22.97
  L 183.13 23.00
  A 3.31 3.14 -89.8 0 1 186.26 26.32
  L 186.26 27.96
  A 3.31 3.14 -89.8 0 1 183.11 31.26
  L 175.63 31.23
  A 0.66 0.66 0.0 0 1 174.97 30.57
  L 174.99 23.63
  Z
  M 176.02 24.63
  L 176.02 29.61
  A 0.60 0.60 0.0 0 0 176.61 30.21
  L 182.93 30.22
  A 2.47 2.30 -89.9 0 0 185.24 27.76
  L 185.24 26.52
  A 2.47 2.30 -89.9 0 0 182.95 24.04
  L 176.63 24.03
  A 0.60 0.60 0.0 0 0 176.02 24.63
  Z"
/>
<path fill="#fefeff" d="
  M 320.33 39.60
  L 325.54 24.50
  A 0.30 0.30 0.0 0 1 326.10 24.50
  L 331.31 39.60
  A 0.30 0.30 0.0 0 1 331.03 40.00
  L 320.61 40.00
  A 0.30 0.30 0.0 0 1 320.33 39.60
  Z
  M 322.51 37.42
  A 0.89 0.89 0.0 0 0 323.35 38.60
  L 328.22 38.63
  A 0.89 0.89 0.0 0 0 329.07 37.47
  L 326.69 30.17
  A 0.89 0.89 0.0 0 0 325.00 30.16
  L 322.51 37.42
  Z"
/>
<path fill="#000001" d="
  M 322.51 37.42
  L 325.00 30.16
  A 0.89 0.89 0.0 0 1 326.69 30.17
  L 329.07 37.47
  A 0.89 0.89 0.0 0 1 328.22 38.63
  L 323.35 38.60
  A 0.89 0.89 0.0 0 1 322.51 37.42
  Z
  M 323.39 37.39
  Q 323.33 37.40 323.29 37.43
  Q 322.90 37.71 323.37 37.63
  Q 325.25 37.32 327.16 37.61
  Q 327.85 37.71 327.70 37.03
  Q 327.09 34.25 325.83 31.94
  Q 325.49 31.32 325.36 32.01
  Q 324.78 34.86 323.68 37.19
  Q 323.59 37.37 323.39 37.39
  Z"
/>
<path fill="#000001" d="
  M 35.47 87.99
  L 25.12 88.00
  Q 22.24 88.01 22.17 85.12
  L 22.13 83.35
  Q 22.06 80.01 25.40 80.01
  L 34.98 80.00
  Q 36.08 80.00 35.27 79.26
  L 33.47 77.60
  Q 32.78 76.97 31.84 77.00
  Q 30.63 77.05 29.42 76.68
  Q 28.87 76.51 28.32 76.70
  Q 26.77 77.23 24.94 76.95
  Q 24.34 76.86 23.87 77.26
  L 23.35 77.72
  A 1.42 1.42 0.0 0 1 21.00 76.65
  L 21.01 71.25
  A 1.00 0.99 78.2 0 1 21.60 70.34
  C 23.02 69.72 23.89 68.95 25.58 68.97
  Q 30.00 69.03 34.50 68.97
  Q 36.68 68.95 39.58 71.43
  A 2.65 2.59 -15.2 0 0 40.46 71.92
  Q 41.95 72.41 42.64 73.83
  Q 43.62 75.85 44.73 77.81
  Q 45.01 78.29 44.97 78.85
  Q 44.91 79.77 45.39 80.52
  C 46.29 81.94 46.08 84.79 45.98 86.44
  A 1.88 1.87 65.6 0 1 45.61 87.43
  Q 44.74 88.58 44.97 90.11
  Q 45.06 90.67 44.80 91.17
  Q 43.11 94.54 40.20 96.95
  Q 37.73 99.00 34.56 99.03
  Q 34.05 99.03 33.64 99.34
  C 32.21 100.41 28.76 100.02 26.93 99.96
  A 2.42 2.41 -26.7 0 1 25.62 99.53
  Q 24.57 98.79 23.25 98.98
  A 2.86 2.85 -3.8 0 1 19.99 96.13
  L 20.03 92.08
  A 0.86 0.85 -8.2 0 1 20.65 91.26
  Q 23.71 90.37 25.98 91.73
  Q 26.45 92.01 26.99 92.01
  L 30.30 92.01
  A 1.49 1.45 -67.9 0 0 31.37 91.54
  Q 31.91 90.97 32.68 91.05
  C 34.08 91.21 35.23 89.85 35.92 88.84
  Q 36.50 87.99 35.47 87.99
  Z
  M 36.97 89.27
  Q 36.72 89.60 36.28 90.19
  Q 34.41 92.64 31.35 92.98
  Q 26.75 93.49 22.87 92.23
  Q 21.51 91.79 21.50 93.23
  L 21.48 95.55
  A 2.11 2.11 0.0 0 0 23.13 97.63
  C 30.40 99.21 39.33 98.72 42.70 91.87
  Q 45.76 85.63 43.55 78.83
  C 40.69 70.06 31.36 68.71 23.40 70.77
  Q 22.02 71.13 22.01 72.54
  L 22.00 74.77
  Q 21.98 76.23 23.41 75.93
  Q 26.92 75.18 30.50 75.30
  A 6.97 6.96 71.6 0 1 35.73 77.92
  Q 36.15 78.45 36.68 79.11
  Q 38.58 81.49 35.54 81.49
  L 25.22 81.48
  Q 23.66 81.48 23.68 83.04
  L 23.71 85.52
  A 1.31 1.30 89.3 0 0 25.02 86.81
  L 35.73 86.80
  Q 38.85 86.79 36.97 89.27
  Z"
/>
<path fill="#000001" d="
  M 64.98 78.48
  A 1.00 0.99 89.7 0 0 63.98 77.48
  L 62.76 77.50
  Q 62.00 77.51 61.99 78.27
  C 61.98 79.28 62.10 80.21 61.82 81.21
  Q 60.68 85.38 59.59 90.08
  Q 59.17 91.87 56.01 97.06
  A 1.70 1.68 4.1 0 1 55.24 97.72
  Q 53.48 98.45 51.81 99.42
  C 50.24 100.34 48.39 100.00 46.68 99.98
  Q 45.00 99.96 45.00 98.29
  L 45.00 92.75
  Q 45.00 90.70 47.02 91.02
  C 50.35 91.55 50.62 87.99 51.85 85.91
  Q 52.11 85.45 52.01 84.94
  Q 51.68 83.29 52.65 82.23
  Q 53.12 81.72 53.03 81.03
  Q 52.69 78.46 53.75 76.28
  Q 54.01 75.73 54.01 75.13
  L 54.00 71.89
  A 2.87 2.86 89.9 0 1 56.86 69.01
  L 71.75 69.01
  Q 74.00 69.01 74.00 71.25
  L 74.00 97.25
  Q 74.00 99.00 72.25 99.00
  L 66.74 99.00
  Q 64.98 98.99 64.98 97.24
  L 64.98 78.48
  Z
  M 64.79 76.10
  A 1.19 1.19 0.0 0 1 66.02 77.29
  L 66.03 96.30
  Q 66.03 97.82 67.55 97.82
  L 71.20 97.81
  Q 72.71 97.80 72.70 96.30
  L 72.64 71.70
  A 1.19 1.19 0.0 0 0 71.45 70.51
  L 56.71 70.51
  A 1.10 1.09 2.9 0 0 55.62 71.49
  Q 54.70 79.81 52.84 86.77
  Q 52.04 89.73 50.20 91.72
  Q 49.83 92.13 49.27 92.21
  L 46.86 92.52
  Q 46.08 92.62 46.09 93.40
  L 46.15 97.43
  Q 46.17 98.36 47.10 98.43
  Q 53.14 98.90 55.85 94.71
  C 58.98 89.84 60.03 82.97 61.00 77.10
  Q 61.14 76.21 62.05 76.18
  L 64.79 76.10
  Z"
/>
<path fill="#000001" d="
  M 87.54 87.21
  A 0.64 0.63 86.8 0 0 86.91 87.92
  Q 87.05 89.25 88.35 90.34
  Q 89.08 90.96 90.04 90.99
  Q 91.02 91.02 91.78 91.65
  Q 92.21 92.01 92.77 92.01
  L 96.20 92.00
  Q 96.71 92.00 97.10 91.68
  C 98.38 90.65 102.05 90.55 103.14 91.96
  Q 103.49 92.40 103.46 92.97
  C 103.29 95.88 103.91 96.96 101.16 98.81
  Q 100.75 99.08 100.27 99.01
  Q 98.62 98.76 97.17 99.41
  C 95.13 100.33 92.97 99.97 90.83 100.01
  A 1.98 1.93 60.5 0 1 89.67 99.67
  Q 88.48 98.88 87.12 99.00
  Q 86.50 99.06 85.95 98.77
  L 81.24 96.34
  Q 80.49 95.96 80.27 95.16
  Q 79.86 93.72 78.67 92.77
  Q 77.85 92.11 78.01 91.07
  Q 78.13 90.22 77.52 89.58
  Q 77.00 89.04 77.00 88.29
  L 77.01 81.01
  Q 77.01 80.46 77.32 80.01
  C 78.17 78.77 77.79 77.71 78.43 76.45
  Q 80.67 72.04 84.90 69.89
  C 87.72 68.46 90.91 69.12 93.96 68.95
  C 96.25 68.82 98.39 70.44 100.22 71.53
  A 1.16 1.15 5.6 0 1 100.71 72.12
  Q 101.13 73.29 102.16 74.03
  Q 102.66 74.39 102.80 74.99
  Q 102.97 75.70 103.40 76.27
  Q 103.83 76.85 103.88 77.57
  L 104.34 84.35
  A 2.70 2.69 -2.0 0 1 101.65 87.23
  L 87.54 87.21
  Z
  M 85.76 88.83
  Q 84.27 85.99 87.48 85.99
  L 101.98 86.00
  A 0.98 0.97 3.3 0 0 102.95 85.14
  C 103.71 78.33 101.33 71.39 93.79 70.17
  C 82.49 68.34 76.60 78.34 78.70 88.33
  C 80.90 98.83 91.60 99.68 100.53 97.47
  Q 102.14 97.07 102.14 95.40
  L 102.13 93.39
  Q 102.12 91.76 100.55 92.20
  Q 96.05 93.47 91.56 93.00
  A 7.15 7.15 0.0 0 1 86.20 89.61
  Q 85.97 89.24 85.76 88.83
  Z"
/>
<path fill="#000001" d="
  M 132.79 73.23
  Q 131.15 76.48 128.08 78.93
  A 2.20 2.11 81.7 0 0 127.39 79.90
  Q 126.69 81.86 124.85 83.15
  A 1.05 1.04 45.1 0 0 124.85 84.86
  Q 126.62 86.11 127.54 87.74
  Q 128.45 89.34 129.81 90.72
  C 131.11 92.03 133.21 93.64 133.93 95.28
  Q 134.30 96.13 134.79 96.91
  A 1.34 1.33 -17.2 0 1 133.71 98.95
  Q 130.00 99.11 126.26 98.91
  Q 125.02 98.84 124.52 97.77
  Q 124.32 97.34 123.95 97.02
  Q 120.48 93.98 118.12 90.15
  Q 117.01 88.33 117.00 90.46
  L 117.00 97.75
  A 1.25 1.25 0.0 0 1 115.75 99.00
  L 109.75 99.00
  Q 108.00 99.00 108.00 97.25
  L 108.00 70.75
  Q 108.00 69.01 109.75 69.01
  L 115.25 69.00
  Q 117.00 69.00 117.00 70.75
  L 117.00 78.23
  A 0.27 0.27 0.0 0 0 117.42 78.45
  Q 118.66 77.60 119.26 76.18
  C 119.96 74.54 121.54 73.47 122.70 72.16
  A 2.34 2.26 -17.4 0 0 123.18 71.28
  C 123.54 70.02 124.63 68.96 126.01 68.99
  Q 129.01 69.05 131.94 68.97
  Q 132.56 68.95 133.11 69.25
  Q 133.99 69.73 134.87 69.27
  Q 135.38 69.01 135.97 69.01
  L 157.49 69.01
  Q 160.38 69.01 160.56 71.89
  L 160.71 74.31
  Q 160.91 77.53 157.69 77.52
  L 152.50 77.50
  Q 152.00 77.50 152.00 78.00
  L 152.00 97.00
  Q 152.00 99.00 150.00 99.00
  L 144.93 99.00
  Q 142.61 99.00 142.60 96.68
  L 142.60 78.02
  Q 142.60 77.48 142.06 77.48
  C 139.78 77.47 136.31 78.11 134.45 76.61
  A 1.22 1.22 0.0 0 1 134.00 75.55
  Q 134.10 74.48 133.96 73.43
  Q 133.71 71.42 132.79 73.23
  Z
  M 116.67 81.71
  A 0.40 0.40 0.0 0 1 115.96 81.46
  L 115.95 70.95
  A 0.40 0.40 0.0 0 0 115.55 70.55
  L 109.68 70.52
  A 0.40 0.40 0.0 0 0 109.28 70.92
  L 109.28 97.38
  A 0.40 0.40 0.0 0 0 109.68 97.78
  L 115.55 97.74
  A 0.40 0.40 0.0 0 0 115.95 97.34
  L 115.97 86.83
  A 0.40 0.40 0.0 0 1 116.67 86.58
  L 125.98 97.62
  A 0.40 0.40 0.0 0 0 126.29 97.76
  L 133.30 97.75
  A 0.40 0.40 0.0 0 0 133.60 97.09
  L 122.64 84.23
  A 0.40 0.40 0.0 0 1 122.63 83.71
  L 133.01 71.19
  A 0.40 0.40 0.0 0 0 132.70 70.54
  L 125.74 70.52
  A 0.40 0.40 0.0 0 0 125.43 70.67
  L 116.67 81.71
  Z
  M 143.19 76.16
  A 0.68 0.68 0.0 0 1 143.87 76.84
  L 143.90 97.08
  A 0.68 0.68 0.0 0 0 144.57 97.75
  L 149.84 97.79
  A 0.68 0.68 0.0 0 0 150.52 97.11
  L 150.50 76.82
  A 0.68 0.68 0.0 0 1 151.18 76.14
  L 158.50 76.08
  A 0.68 0.68 0.0 0 0 159.17 75.40
  L 159.14 71.20
  A 0.68 0.68 0.0 0 0 158.46 70.53
  L 135.77 70.51
  A 0.68 0.68 0.0 0 0 135.09 71.20
  L 135.14 75.46
  A 0.68 0.68 0.0 0 0 135.82 76.13
  L 143.19 76.16
  Z"
/>
<path fill="#000001" d="
  M 171.05 99.17
  L 171.08 110.21
  Q 171.08 112.01 169.29 112.00
  L 163.50 111.99
  Q 162.00 111.99 162.00 110.50
  L 162.00 71.46
  Q 162.00 69.41 164.03 69.13
  Q 166.32 68.81 168.81 69.09
  Q 169.35 69.15 169.70 69.58
  L 170.32 70.34
  Q 170.68 70.79 171.20 70.51
  Q 171.87 70.15 172.35 69.52
  Q 172.68 69.08 173.24 69.06
  Q 176.21 68.94 179.42 68.92
  Q 182.19 68.91 184.14 70.31
  Q 186.62 72.08 188.16 74.10
  Q 190.24 76.83 190.04 80.52
  Q 190.01 81.04 190.23 81.52
  Q 191.04 83.32 190.50 84.95
  Q 189.90 86.80 190.00 88.89
  Q 190.03 89.46 189.79 89.98
  Q 188.06 93.71 187.30 94.80
  Q 185.68 97.11 182.21 98.70
  C 181.26 99.14 180.34 98.87 179.48 99.57
  Q 179.07 99.90 178.55 99.94
  C 177.32 100.03 175.72 100.24 174.63 99.62
  Q 173.38 98.92 171.63 98.67
  Q 171.05 98.59 171.05 99.17
  Z
  M 169.47 72.58
  Q 169.71 70.62 167.84 70.53
  Q 165.98 70.45 163.91 70.56
  A 0.48 0.47 88.8 0 0 163.46 71.04
  L 163.46 110.24
  Q 163.46 111.02 164.24 111.02
  L 169.14 111.01
  Q 170.03 111.01 170.02 110.12
  L 170.02 96.49
  A 0.40 0.40 0.0 0 1 170.66 96.16
  Q 175.55 99.81 181.18 97.67
  C 188.77 94.79 190.43 85.72 188.50 78.54
  Q 186.67 71.76 180.04 70.23
  C 175.93 69.29 173.19 70.37 170.15 72.95
  Q 169.35 73.62 169.47 72.58
  Z"
/>
<path fill="#000001" d="
  M 220.85 76.31
  C 221.09 77.05 221.66 77.40 221.92 78.12
  C 222.32 79.25 221.63 79.99 222.39 81.17
  C 223.33 82.62 223.17 84.87 222.68 86.42
  Q 222.22 87.88 221.88 89.39
  Q 220.50 95.56 214.59 98.53
  C 213.16 99.24 211.82 98.87 210.40 99.73
  Q 209.96 100.00 209.45 100.00
  L 205.97 100.00
  Q 205.32 100.00 204.76 99.69
  Q 203.29 98.86 201.59 98.91
  A 1.46 1.43 66.8 0 1 200.50 98.46
  C 199.30 97.22 197.64 96.96 196.54 95.65
  Q 193.52 92.07 193.18 88.93
  Q 192.81 85.62 193.00 80.36
  C 193.06 78.68 193.81 77.63 194.16 76.06
  Q 194.27 75.55 194.65 75.20
  Q 196.74 73.24 198.78 71.06
  C 199.68 70.09 200.63 70.17 201.57 69.38
  A 1.67 1.66 25.0 0 1 202.63 69.00
  Q 206.68 69.02 211.13 68.97
  C 213.24 68.94 215.38 70.36 217.21 71.38
  Q 219.70 72.79 220.85 76.31
  Z
  M 221.2561 82.4974
  A 12.38 12.38 0.0 0 0 208.9194 70.0743
  L 206.5194 70.0659
  A 12.38 12.38 0.0 0 0 194.0962 82.4026
  L 194.0839 85.9226
  A 12.38 12.38 0.0 0 0 206.4206 98.3457
  L 208.8206 98.3541
  A 12.38 12.38 0.0 0 0 221.2438 86.0174
  L 221.2561 82.4974
  Z"
/>
<path fill="#000001" d="
  M 234.99 88.25
  L 235.00 97.25
  Q 235.01 99.00 233.25 99.00
  L 227.75 99.00
  Q 226.00 99.00 226.00 97.25
  L 226.00 70.75
  Q 226.00 69.01 227.75 69.01
  L 233.25 69.00
  Q 235.00 69.00 235.00 70.75
  L 235.00 79.11
  Q 235.00 79.98 235.86 79.98
  L 242.23 79.98
  Q 243.93 79.98 243.93 78.27
  L 243.91 71.04
  Q 243.91 69.00 245.96 69.00
  L 251.01 69.02
  Q 253.00 69.02 253.00 71.01
  L 253.00 97.25
  Q 253.00 99.00 251.25 99.00
  L 245.58 99.00
  Q 243.92 99.00 243.92 97.33
  L 243.92 88.30
  A 0.29 0.29 0.0 0 0 243.63 88.01
  L 235.25 88.00
  Q 234.99 87.99 234.99 88.25
  Z
  M 234.44 81.02
  A 0.57 0.57 0.0 0 1 233.87 80.45
  L 233.81 71.11
  A 0.57 0.57 0.0 0 0 233.25 70.54
  L 227.78 70.49
  A 0.57 0.57 0.0 0 0 227.20 71.06
  L 227.21 97.22
  A 0.57 0.57 0.0 0 0 227.78 97.79
  L 233.30 97.77
  A 0.57 0.57 0.0 0 0 233.87 97.20
  L 233.83 87.07
  A 0.57 0.57 0.0 0 1 234.40 86.50
  L 244.44 86.52
  A 0.57 0.57 0.0 0 1 245.01 87.09
  L 245.00 97.21
  A 0.57 0.57 0.0 0 0 245.57 97.78
  L 251.02 97.77
  A 0.57 0.57 0.0 0 0 251.59 97.20
  L 251.58 71.11
  A 0.57 0.57 0.0 0 0 251.01 70.54
  L 245.59 70.50
  A 0.57 0.57 0.0 0 0 245.02 71.07
  L 244.96 80.38
  A 0.57 0.57 0.0 0 1 244.40 80.94
  L 234.44 81.02
  Z"
/>
<path fill="#000001" d="
  M 275.06 85.84
  C 274.92 88.21 272.47 88.89 271.73 91.17
  Q 271.53 91.76 271.02 92.12
  Q 269.79 92.96 269.20 94.22
  C 268.34 96.05 266.88 97.27 265.42 98.62
  Q 265.00 99.01 264.43 99.01
  L 259.37 98.99
  A 2.37 2.36 -89.9 0 1 257.02 96.62
  L 257.02 72.01
  A 3.01 3.00 -0.3 0 1 260.00 69.01
  C 263.02 68.98 267.18 68.12 267.06 72.83
  Q 266.94 77.52 267.01 82.13
  Q 267.01 82.46 267.35 82.46
  Q 267.49 82.47 267.61 82.40
  Q 267.82 82.27 267.85 82.03
  C 268.15 79.73 270.55 79.08 271.30 76.76
  Q 271.48 76.23 271.93 75.91
  Q 273.32 74.93 273.94 73.53
  C 274.69 71.85 276.19 70.73 277.48 69.43
  Q 277.90 69.01 278.49 69.01
  L 283.63 69.01
  A 1.37 1.37 0.0 0 1 285.00 70.38
  L 285.00 97.25
  Q 285.00 99.00 283.25 99.00
  L 277.75 99.00
  Q 276.00 99.00 276.00 97.25
  L 276.00 85.99
  Q 276.00 85.54 275.56 85.50
  Q 275.43 85.49 275.31 85.53
  Q 275.08 85.60 275.06 85.84
  Z
  M 277.39 81.29
  L 277.23 97.12
  Q 277.22 97.78 277.88 97.78
  L 283.23 97.77
  A 0.75 0.75 0.0 0 0 283.98 97.02
  L 283.97 71.24
  A 0.73 0.72 0.0 0 0 283.24 70.52
  L 278.60 70.52
  A 1.62 1.60 17.7 0 0 277.29 71.19
  L 265.67 87.13
  Q 265.26 87.69 265.27 87.00
  L 265.50 71.77
  A 1.24 1.23 -89.5 0 0 264.27 70.51
  L 259.73 70.52
  Q 258.73 70.52 258.73 71.52
  L 258.71 97.06
  A 0.70 0.70 0.0 0 0 259.40 97.76
  Q 261.52 97.79 263.78 97.77
  C 264.73 97.76 265.30 97.16 265.83 96.46
  Q 271.84 88.72 276.91 81.14
  Q 277.40 80.42 277.39 81.29
  Z"
/>
<path fill="#000001" d="
  M 299.01 90.05
  L 299.00 97.25
  Q 299.00 99.00 297.25 99.00
  L 291.75 99.00
  Q 290.00 99.00 290.00 97.25
  L 290.00 70.75
  Q 290.00 69.01 291.75 69.01
  L 297.25 69.00
  Q 299.00 69.00 299.00 70.75
  L 299.00 78.22
  A 0.30 0.29 -18.8 0 0 299.48 78.45
  Q 300.79 77.45 301.18 76.03
  A 1.82 1.81 75.7 0 1 301.64 75.25
  L 304.53 72.37
  Q 304.91 72.00 305.03 71.49
  C 305.34 70.25 306.45 68.99 307.82 69.00
  Q 311.28 69.01 314.60 69.01
  A 1.29 1.27 -20.0 0 1 315.57 69.45
  C 316.41 70.42 316.13 72.16 315.14 72.95
  Q 314.29 73.64 313.86 74.68
  C 312.79 77.24 309.93 78.36 308.73 81.00
  Q 308.13 82.31 306.79 83.22
  A 0.95 0.95 0.0 0 0 306.76 84.77
  Q 308.55 86.09 309.38 87.59
  Q 310.19 89.06 311.53 90.34
  Q 314.60 93.30 316.82 96.97
  A 1.34 1.34 0.0 0 1 315.67 99.00
  L 307.52 98.98
  Q 306.89 98.98 306.58 98.43
  Q 304.87 95.44 301.85 93.04
  Q 301.32 92.62 301.15 91.97
  Q 300.78 90.58 299.73 89.71
  Q 299.01 89.12 299.01 90.05
  Z
  M 297.90 81.31
  L 297.91 71.47
  A 0.95 0.95 0.0 0 0 296.97 70.52
  L 291.99 70.51
  Q 291.24 70.51 291.24 71.26
  L 291.25 97.26
  Q 291.25 97.78 291.76 97.77
  L 297.34 97.77
  Q 297.91 97.77 297.91 97.19
  L 297.91 86.72
  A 0.30 0.30 0.0 0 1 298.33 86.44
  Q 298.59 86.54 298.77 86.76
  Q 303.28 92.14 307.17 96.76
  Q 308.05 97.81 309.43 97.81
  L 314.74 97.78
  Q 316.12 97.77 315.23 96.73
  L 304.64 84.31
  A 0.55 0.55 0.0 0 1 304.64 83.61
  L 314.59 71.66
  A 0.71 0.71 0.0 0 0 314.05 70.50
  L 308.68 70.50
  Q 307.54 70.50 306.82 71.40
  L 298.68 81.59
  Q 297.90 82.57 297.90 81.31
  Z"
/>
<path fill="#000001" d="
  M 333.33 79.31
  Q 334.35 79.53 334.02 78.55
  L 333.91 78.23
  Q 333.56 77.21 332.49 77.08
  L 329.40 76.72
  Q 328.96 76.67 328.54 76.77
  Q 326.86 77.19 324.97 76.95
  A 1.28 1.24 -59.5 0 0 324.06 77.20
  Q 323.20 77.87 322.02 78.10
  A 1.70 1.69 -5.3 0 1 320.00 76.43
  L 320.01 71.36
  Q 320.01 70.83 320.41 70.47
  Q 321.14 69.81 322.10 70.03
  Q 322.67 70.16 323.10 69.76
  L 323.54 69.36
  Q 323.93 68.99 324.48 69.00
  Q 329.13 69.05 334.35 68.95
  C 336.27 68.91 338.16 70.37 339.90 71.12
  C 341.60 71.86 341.99 73.44 342.74 74.94
  Q 343.10 75.65 343.06 76.45
  Q 343.03 77.02 343.50 77.42
  A 1.44 1.44 0.0 0 1 344.00 78.51
  L 344.00 97.75
  A 1.25 1.25 0.0 0 1 342.75 99.00
  L 336.53 99.00
  Q 335.84 99.00 335.38 98.49
  Q 334.49 97.47 333.61 98.49
  Q 333.17 99.00 332.49 99.00
  L 323.36 99.00
  Q 322.82 99.00 322.44 98.61
  L 318.37 94.49
  Q 317.99 94.11 317.99 93.57
  L 317.99 86.54
  A 1.53 1.49 67.1 0 1 318.39 85.51
  C 319.16 84.66 319.08 83.77 319.94 82.88
  Q 321.63 81.14 324.07 80.18
  Q 324.70 79.93 325.38 79.98
  Q 325.93 80.01 326.31 79.59
  Q 326.67 79.19 327.21 79.12
  Q 330.58 78.69 333.33 79.31
  Z
  M 336.28 95.91
  L 336.32 97.29
  Q 336.34 97.75 336.79 97.75
  L 341.92 97.81
  Q 342.54 97.82 342.52 97.20
  Q 342.38 88.76 342.39 80.44
  C 342.40 68.87 330.25 68.68 322.14 71.26
  Q 321.07 71.60 321.08 72.72
  L 321.10 75.75
  Q 321.11 76.85 322.16 76.50
  Q 326.49 75.06 331.09 75.30
  A 4.80 4.78 -9.6 0 1 335.27 78.26
  Q 335.50 78.83 335.66 79.45
  Q 336.20 81.59 334.07 81.02
  C 326.65 79.04 317.68 82.21 319.16 91.55
  Q 319.98 96.72 324.86 97.81
  Q 327.65 98.43 331.87 97.63
  C 333.35 97.35 334.32 96.34 335.49 95.52
  Q 336.25 94.99 336.28 95.91
  Z"
/>
<path fill="#ffb500" d="
  M 35.73 86.80
  L 25.02 86.81
  A 1.31 1.30 89.3 0 1 23.71 85.52
  L 23.68 83.04
  Q 23.66 81.48 25.22 81.48
  L 35.54 81.49
  Q 38.58 81.49 36.68 79.11
  Q 36.15 78.45 35.73 77.92
  A 6.97 6.96 71.6 0 0 30.50 75.30
  Q 26.92 75.18 23.41 75.93
  Q 21.98 76.23 22.00 74.77
  L 22.01 72.54
  Q 22.02 71.13 23.40 70.77
  C 31.36 68.71 40.69 70.06 43.55 78.83
  Q 45.76 85.63 42.70 91.87
  C 39.33 98.72 30.40 99.21 23.13 97.63
  A 2.11 2.11 0.0 0 1 21.48 95.55
  L 21.50 93.23
  Q 21.51 91.79 22.87 92.23
  Q 26.75 93.49 31.35 92.98
  Q 34.41 92.64 36.28 90.19
  Q 36.72 89.60 36.97 89.27
  Q 38.85 86.79 35.73 86.80
  Z"
/>
<path fill="#ffb500" d="
  M 85.76 88.83
  Q 85.97 89.24 86.20 89.61
  A 7.15 7.15 0.0 0 0 91.56 93.00
  Q 96.05 93.47 100.55 92.20
  Q 102.12 91.76 102.13 93.39
  L 102.14 95.40
  Q 102.14 97.07 100.53 97.47
  C 91.60 99.68 80.90 98.83 78.70 88.33
  C 76.60 78.34 82.49 68.34 93.79 70.17
  C 101.33 71.39 103.71 78.33 102.95 85.14
  A 0.98 0.97 3.3 0 1 101.98 86.00
  L 87.48 85.99
  Q 84.27 85.99 85.76 88.83
  Z
  M 86.17 81.02
  L 95.82 80.94
  A 0.43 0.43 0.0 0 0 96.25 80.50
  L 96.25 80.38
  A 5.19 5.17 89.5 0 0 91.03 75.24
  L 90.85 75.24
  A 5.19 5.17 89.5 0 0 85.73 80.48
  L 85.73 80.60
  A 0.43 0.43 0.0 0 0 86.17 81.02
  Z"
/>
<path fill="#ffb500" d="
  M 170.15 72.95
  C 173.19 70.37 175.93 69.29 180.04 70.23
  Q 186.67 71.76 188.50 78.54
  C 190.43 85.72 188.77 94.79 181.18 97.67
  Q 175.55 99.81 170.66 96.16
  A 0.40 0.40 0.0 0 0 170.02 96.49
  L 170.02 110.12
  Q 170.03 111.01 169.14 111.01
  L 164.24 111.02
  Q 163.46 111.02 163.46 110.24
  L 163.46 71.04
  A 0.48 0.47 88.8 0 1 163.91 70.56
  Q 165.98 70.45 167.84 70.53
  Q 169.71 70.62 169.47 72.58
  Q 169.35 73.62 170.15 72.95
  Z
  M 181.78 87.88
  C 183.61 81.45 181.22 72.19 172.19 76.45
  Q 170.01 77.48 170.01 79.79
  Q 170.02 84.23 170.00 88.88
  C 169.99 90.48 171.22 91.76 172.62 92.32
  Q 179.70 95.17 181.78 87.88
  Z"
/>
<path fill="#ffb500" d="
  M 221.2438 86.0174
  A 12.38 12.38 0.0 0 1 208.8206 98.3541
  L 206.4206 98.3457
  A 12.38 12.38 0.0 0 1 194.0839 85.9226
  L 194.0962 82.4026
  A 12.38 12.38 0.0 0 1 206.5194 70.0659
  L 208.9194 70.0743
  A 12.38 12.38 0.0 0 1 221.2561 82.4974
  L 221.2438 86.0174
  Z
  M 207.6617 93.2499
  A 9.08 6.93 89.8 0 0 214.5600 84.1458
  A 9.08 6.93 89.8 0 0 207.5983 75.0901
  A 9.08 6.93 89.8 0 0 200.7000 84.1942
  A 9.08 6.93 89.8 0 0 207.6617 93.2499
  Z"
/>
<path fill="#ffb500" d="
  M 335.49 95.52
  C 334.32 96.34 333.35 97.35 331.87 97.63
  Q 327.65 98.43 324.86 97.81
  Q 319.98 96.72 319.16 91.55
  C 317.68 82.21 326.65 79.04 334.07 81.02
  Q 336.20 81.59 335.66 79.45
  Q 335.50 78.83 335.27 78.26
  A 4.80 4.78 -9.6 0 0 331.09 75.30
  Q 326.49 75.06 322.16 76.50
  Q 321.11 76.85 321.10 75.75
  L 321.08 72.72
  Q 321.07 71.60 322.14 71.26
  C 330.25 68.68 342.40 68.87 342.39 80.44
  Q 342.38 88.76 342.52 97.20
  Q 342.54 97.82 341.92 97.81
  L 336.79 97.75
  Q 336.34 97.75 336.32 97.29
  L 336.28 95.91
  Q 336.25 94.99 335.49 95.52
  Z
  M 332.35 92.61
  Q 336.81 90.91 335.48 86.62
  Q 335.35 86.21 334.94 86.14
  C 332.03 85.64 326.76 85.08 325.81 88.82
  C 324.78 92.89 329.37 93.74 332.35 92.61
  Z"
/>
<path fill="#ffb500" d="
  M 64.79 76.10
  L 62.05 76.18
  Q 61.14 76.21 61.00 77.10
  C 60.03 82.97 58.98 89.84 55.85 94.71
  Q 53.14 98.90 47.10 98.43
  Q 46.17 98.36 46.15 97.43
  L 46.09 93.40
  Q 46.08 92.62 46.86 92.52
  L 49.27 92.21
  Q 49.83 92.13 50.20 91.72
  Q 52.04 89.73 52.84 86.77
  Q 54.70 79.81 55.62 71.49
  A 1.10 1.09 2.9 0 1 56.71 70.51
  L 71.45 70.51
  A 1.19 1.19 0.0 0 1 72.64 71.70
  L 72.70 96.30
  Q 72.71 97.80 71.20 97.81
  L 67.55 97.82
  Q 66.03 97.82 66.03 96.30
  L 66.02 77.29
  A 1.19 1.19 0.0 0 0 64.79 76.10
  Z"
/>
<path fill="#ffb500" d="
  M 116.67 81.71
  L 125.43 70.67
  A 0.40 0.40 0.0 0 1 125.74 70.52
  L 132.70 70.54
  A 0.40 0.40 0.0 0 1 133.01 71.19
  L 122.63 83.71
  A 0.40 0.40 0.0 0 0 122.64 84.23
  L 133.60 97.09
  A 0.40 0.40 0.0 0 1 133.30 97.75
  L 126.29 97.76
  A 0.40 0.40 0.0 0 1 125.98 97.62
  L 116.67 86.58
  A 0.40 0.40 0.0 0 0 115.97 86.83
  L 115.95 97.34
  A 0.40 0.40 0.0 0 1 115.55 97.74
  L 109.68 97.78
  A 0.40 0.40 0.0 0 1 109.28 97.38
  L 109.28 70.92
  A 0.40 0.40 0.0 0 1 109.68 70.52
  L 115.55 70.55
  A 0.40 0.40 0.0 0 1 115.95 70.95
  L 115.96 81.46
  A 0.40 0.40 0.0 0 0 116.67 81.71
  Z"
/>
<path fill="#ffb500" d="
  M 143.19 76.16
  L 135.82 76.13
  A 0.68 0.68 0.0 0 1 135.14 75.46
  L 135.09 71.20
  A 0.68 0.68 0.0 0 1 135.77 70.51
  L 158.46 70.53
  A 0.68 0.68 0.0 0 1 159.14 71.20
  L 159.17 75.40
  A 0.68 0.68 0.0 0 1 158.50 76.08
  L 151.18 76.14
  A 0.68 0.68 0.0 0 0 150.50 76.82
  L 150.52 97.11
  A 0.68 0.68 0.0 0 1 149.84 97.79
  L 144.57 97.75
  A 0.68 0.68 0.0 0 1 143.90 97.08
  L 143.87 76.84
  A 0.68 0.68 0.0 0 0 143.19 76.16
  Z"
/>
<path fill="#ffb500" d="
  M 234.44 81.02
  L 244.40 80.94
  A 0.57 0.57 0.0 0 0 244.96 80.38
  L 245.02 71.07
  A 0.57 0.57 0.0 0 1 245.59 70.50
  L 251.01 70.54
  A 0.57 0.57 0.0 0 1 251.58 71.11
  L 251.59 97.20
  A 0.57 0.57 0.0 0 1 251.02 97.77
  L 245.57 97.78
  A 0.57 0.57 0.0 0 1 245.00 97.21
  L 245.01 87.09
  A 0.57 0.57 0.0 0 0 244.44 86.52
  L 234.40 86.50
  A 0.57 0.57 0.0 0 0 233.83 87.07
  L 233.87 97.20
  A 0.57 0.57 0.0 0 1 233.30 97.77
  L 227.78 97.79
  A 0.57 0.57 0.0 0 1 227.21 97.22
  L 227.20 71.06
  A 0.57 0.57 0.0 0 1 227.78 70.49
  L 233.25 70.54
  A 0.57 0.57 0.0 0 1 233.81 71.11
  L 233.87 80.45
  A 0.57 0.57 0.0 0 0 234.44 81.02
  Z"
/>
<path fill="#ffb500" d="
  M 277.39 81.29
  Q 277.40 80.42 276.91 81.14
  Q 271.84 88.72 265.83 96.46
  C 265.30 97.16 264.73 97.76 263.78 97.77
  Q 261.52 97.79 259.40 97.76
  A 0.70 0.70 0.0 0 1 258.71 97.06
  L 258.73 71.52
  Q 258.73 70.52 259.73 70.52
  L 264.27 70.51
  A 1.24 1.23 -89.5 0 1 265.50 71.77
  L 265.27 87.00
  Q 265.26 87.69 265.67 87.13
  L 277.29 71.19
  A 1.62 1.60 17.7 0 1 278.60 70.52
  L 283.24 70.52
  A 0.73 0.72 0.0 0 1 283.97 71.24
  L 283.98 97.02
  A 0.75 0.75 0.0 0 1 283.23 97.77
  L 277.88 97.78
  Q 277.22 97.78 277.23 97.12
  L 277.39 81.29
  Z"
/>
<path fill="#ffb500" d="
  M 298.68 81.59
  L 306.82 71.40
  Q 307.54 70.50 308.68 70.50
  L 314.05 70.50
  A 0.71 0.71 0.0 0 1 314.59 71.66
  L 304.64 83.61
  A 0.55 0.55 0.0 0 0 304.64 84.31
  L 315.23 96.73
  Q 316.12 97.77 314.74 97.78
  L 309.43 97.81
  Q 308.05 97.81 307.17 96.76
  Q 303.28 92.14 298.77 86.76
  Q 298.59 86.54 298.33 86.44
  A 0.30 0.30 0.0 0 0 297.91 86.72
  L 297.91 97.19
  Q 297.91 97.77 297.34 97.77
  L 291.76 97.77
  Q 291.25 97.78 291.25 97.26
  L 291.24 71.26
  Q 291.24 70.51 291.99 70.51
  L 296.97 70.52
  A 0.95 0.95 0.0 0 1 297.91 71.47
  L 297.90 81.31
  Q 297.90 82.57 298.68 81.59
  Z"
/>
<path fill="#000001" d="
  M 86.17 81.02
  A 0.43 0.43 0.0 0 1 85.73 80.60
  L 85.73 80.48
  A 5.19 5.17 89.5 0 1 90.85 75.24
  L 91.03 75.24
  A 5.19 5.17 89.5 0 1 96.25 80.38
  L 96.25 80.50
  A 0.43 0.43 0.0 0 1 95.82 80.94
  L 86.17 81.02
  Z
  M 89.29 76.99
  A 0.50 0.50 0.0 0 0 88.95 77.14
  L 87.16 78.98
  A 0.50 0.50 0.0 0 0 87.52 79.83
  L 94.50 79.84
  A 0.50 0.50 0.0 0 0 94.85 78.98
  L 92.87 77.01
  A 0.50 0.50 0.0 0 0 92.50 76.87
  L 89.29 76.99
  Z"
/>
<path fill="#000001" d="
  M 181.78 87.88
  Q 179.70 95.17 172.62 92.32
  C 171.22 91.76 169.99 90.48 170.00 88.88
  Q 170.02 84.23 170.01 79.79
  Q 170.01 77.48 172.19 76.45
  C 181.22 72.19 183.61 81.45 181.78 87.88
  Z
  M 180.23 80.09
  Q 179.61 78.20 177.99 77.21
  C 176.11 76.05 173.81 77.35 172.02 78.19
  A 1.68 1.67 77.6 0 0 171.05 79.71
  L 171.06 88.31
  Q 171.06 88.94 171.48 89.41
  Q 172.82 90.89 175.20 91.88
  C 176.31 92.34 177.35 91.65 178.30 91.09
  C 179.56 90.35 179.96 88.31 180.72 87.08
  Q 181.01 86.62 181.01 86.07
  L 181.01 81.52
  A 0.82 0.78 27.2 0 0 180.84 81.03
  Q 180.71 80.85 180.56 80.68
  Q 180.34 80.42 180.23 80.09
  Z"
/>
<path fill="#000001" d="
  M 207.6617 93.2499
  A 9.08 6.93 89.8 0 1 200.7000 84.1942
  A 9.08 6.93 89.8 0 1 207.5983 75.0901
  A 9.08 6.93 89.8 0 1 214.5600 84.1458
  A 9.08 6.93 89.8 0 1 207.6617 93.2499
  Z
  M 207.6770 91.8593
  A 7.66 5.60 89.2 0 0 213.1695 84.1218
  A 7.66 5.60 89.2 0 0 207.4630 76.5407
  A 7.66 5.60 89.2 0 0 201.9705 84.2782
  A 7.66 5.60 89.2 0 0 207.6770 91.8593
  Z"
/>
<path fill="#000001" d="
  M 332.35 92.61
  C 329.37 93.74 324.78 92.89 325.81 88.82
  C 326.76 85.08 332.03 85.64 334.94 86.14
  Q 335.35 86.21 335.48 86.62
  Q 336.81 90.91 332.35 92.61
  Z
  M 332.12 91.19
  Q 334.66 90.46 333.96 87.53
  Q 333.83 86.97 333.25 86.97
  C 331.12 86.99 329.05 86.49 327.57 88.42
  A 1.85 1.85 0.0 0 0 327.76 90.89
  Q 329.72 92.74 331.25 91.62
  Q 331.65 91.33 332.12 91.19
  Z"
/>
</svg>
