<?xml version="1.0" encoding="UTF-8" standalone="no"?>
<!DOCTYPE svg PUBLIC "-//W3C//DTD SVG 1.1//EN" "http://www.w3.org/Graphics/SVG/1.1/DTD/svg11.dtd">
<svg xmlns="http://www.w3.org/2000/svg" version="1.1" viewBox="0.00 0.00 400.00 120.00">
<path fill="#ffffff" d="
  M 213.25 34.33
  L 213.25 45.19
  A 0.31 0.31 0.0 0 1 212.94 45.50
  L 207.29 45.48
  A 0.31 0.31 0.0 0 1 206.98 45.17
  L 207.01 40.56
  A 0.31 0.31 0.0 0 0 206.70 40.25
  L 202.90 40.25
  A 0.31 0.31 0.0 0 0 202.59 40.56
  L 202.67 45.19
  A 0.31 0.31 0.0 0 1 202.35 45.51
  L 196.55 45.43
  A 0.31 0.31 0.0 0 1 196.25 45.12
  L 196.36 40.60
  A 0.31 0.31 0.0 0 0 196.05 40.29
  L 192.33 40.25
  A 0.31 0.31 0.0 0 0 192.02 40.56
  L 191.99 45.18
  A 0.31 0.31 0.0 0 1 191.68 45.49
  L 186.16 45.49
  A 0.31 0.31 0.0 0 1 185.85 45.18
  L 185.87 34.31
  A 0.31 0.31 0.0 0 0 185.55 34.00
  L 180.81 34.15
  A 0.31 0.31 0.0 0 1 180.49 33.84
  L 180.46 13.23
  A 0.31 0.31 0.0 0 1 180.77 12.92
  L 185.54 12.98
  A 0.31 0.31 0.0 0 0 185.85 12.67
  L 185.87 7.35
  A 0.31 0.31 0.0 0 1 186.18 7.04
  L 212.94 7.04
  A 0.31 0.31 0.0 0 1 213.25 7.35
  L 213.25 12.65
  A 0.31 0.31 0.0 0 0 213.56 12.96
  L 218.34 12.96
  A 0.31 0.31 0.0 0 1 218.65 13.27
  L 218.62 33.80
  A 0.31 0.31 0.0 0 1 218.30 34.11
  L 213.57 34.02
  A 0.31 0.31 0.0 0 0 213.25 34.33
  Z
  M 196.46 19.19
  A 0.31 0.31 0.0 0 0 196.15 18.88
  L 187.05 18.88
  A 0.31 0.31 0.0 0 0 186.74 19.19
  L 186.74 28.19
  A 0.31 0.31 0.0 0 0 187.05 28.50
  L 196.15 28.50
  A 0.31 0.31 0.0 0 0 196.46 28.19
  L 196.46 19.19
  Z
  M 212.40 24.36
  A 0.35 0.35 0.0 0 0 212.05 24.01
  L 203.05 24.01
  A 0.35 0.35 0.0 0 0 202.70 24.36
  L 202.70 28.14
  A 0.35 0.35 0.0 0 0 203.05 28.49
  L 212.05 28.49
  A 0.35 0.35 0.0 0 0 212.40 28.14
  L 212.40 24.36
  Z"
/>
<path fill="#ffffff" d="
  M 192.00 61.38
  L 192.00 65.02
  Q 192.00 65.54 191.48 65.54
  L 182.47 65.55
  Q 181.74 65.55 181.75 66.28
  L 181.90 71.77
  A 0.23 0.23 0.0 0 1 181.67 72.00
  L 176.26 72.02
  Q 176.00 72.02 176.00 71.76
  L 176.00 60.04
  Q 176.00 59.46 176.58 59.46
  L 191.13 59.46
  Q 191.75 59.46 191.65 58.84
  Q 191.42 57.49 191.66 56.28
  Q 191.77 55.74 191.22 55.74
  L 176.50 55.75
  Q 176.00 55.75 176.00 55.25
  L 176.01 45.01
  Q 176.01 44.78 176.24 44.79
  L 181.57 44.84
  Q 181.79 44.84 181.80 45.07
  L 181.81 49.15
  A 0.59 0.59 0.0 0 0 182.40 49.74
  L 191.50 49.74
  Q 192.00 49.74 192.00 50.25
  L 192.00 54.02
  Q 192.00 54.55 192.52 54.55
  L 206.48 54.55
  Q 207.01 54.55 207.01 54.02
  L 206.99 50.25
  Q 206.99 49.74 207.50 49.74
  L 216.62 49.74
  Q 217.23 49.74 217.23 49.13
  L 217.21 45.93
  Q 217.21 44.82 218.32 44.82
  L 222.29 44.81
  Q 223.27 44.80 223.30 45.78
  L 223.58 55.20
  Q 223.60 55.75 223.05 55.75
  L 208.24 55.74
  Q 207.97 55.74 207.97 56.01
  L 207.99 58.99
  A 0.49 0.49 0.0 0 0 208.49 59.47
  L 222.97 59.44
  Q 223.50 59.44 223.50 59.97
  L 223.55 71.86
  Q 223.55 72.01 223.39 72.01
  L 217.32 72.01
  Q 217.15 72.01 217.15 71.83
  L 217.26 66.28
  Q 217.28 65.53 216.53 65.53
  L 207.52 65.56
  Q 206.98 65.56 206.98 65.02
  L 207.01 61.38
  Q 207.02 60.75 206.38 60.75
  L 192.62 60.75
  Q 192.00 60.75 192.00 61.38
  Z"
/>
<path fill="#ffffff" d="
  M 19.06 103.14
  L 39.45 103.09
  A 0.31 0.31 0.0 0 1 39.76 103.40
  L 39.76 111.85
  A 0.31 0.31 0.0 0 1 39.45 112.16
  L 10.18 112.16
  A 0.31 0.31 0.0 0 1 9.87 111.85
  L 9.87 76.66
  A 0.31 0.31 0.0 0 1 10.18 76.35
  L 18.44 76.39
  A 0.31 0.31 0.0 0 1 18.75 76.70
  L 18.75 102.83
  A 0.31 0.31 0.0 0 0 19.06 103.14
  Z"
/>
<path fill="#ffffff" d="
  M 80.74 111.75
  A 0.41 0.41 0.0 0 1 80.33 112.16
  L 44.73 112.16
  A 0.41 0.41 0.0 0 1 44.32 111.75
  L 44.32 76.79
  A 0.41 0.41 0.0 0 1 44.73 76.38
  L 80.33 76.38
  A 0.41 0.41 0.0 0 1 80.74 76.79
  L 80.74 111.75
  Z
  M 71.29 86.01
  A 0.26 0.26 0.0 0 0 71.03 85.75
  L 53.69 85.75
  A 0.26 0.26 0.0 0 0 53.43 86.01
  L 53.43 102.87
  A 0.26 0.26 0.0 0 0 53.69 103.13
  L 71.03 103.13
  A 0.26 0.26 0.0 0 0 71.29 102.87
  L 71.29 86.01
  Z"
/>
<path fill="#ffffff" d="
  M 94.40 86.10
  L 94.41 102.78
  A 0.35 0.35 0.0 0 0 94.76 103.13
  L 121.26 103.11
  A 0.35 0.35 0.0 0 1 121.61 103.46
  L 121.64 111.81
  A 0.35 0.35 0.0 0 1 121.29 112.16
  L 85.62 112.16
  A 0.35 0.35 0.0 0 1 85.27 111.81
  L 85.26 76.72
  A 0.35 0.35 0.0 0 1 85.61 76.37
  L 121.26 76.38
  A 0.35 0.35 0.0 0 1 121.61 76.73
  L 121.63 85.41
  A 0.35 0.35 0.0 0 1 121.28 85.76
  L 94.75 85.75
  A 0.35 0.35 0.0 0 0 94.40 86.10
  Z"
/>
<path fill="#ffffff" d="
  M 162.56 111.90
  A 0.26 0.26 0.0 0 1 162.30 112.16
  L 126.46 112.16
  A 0.26 0.26 0.0 0 1 126.20 111.90
  L 126.20 76.64
  A 0.26 0.26 0.0 0 1 126.46 76.38
  L 162.30 76.38
  A 0.26 0.26 0.0 0 1 162.56 76.64
  L 162.56 111.90
  Z
  M 153.20 86.03
  A 0.27 0.27 0.0 0 0 152.93 85.76
  L 135.53 85.76
  A 0.27 0.27 0.0 0 0 135.26 86.03
  L 135.26 102.85
  A 0.27 0.27 0.0 0 0 135.53 103.12
  L 152.93 103.12
  A 0.27 0.27 0.0 0 0 153.20 102.85
  L 153.20 86.03
  Z"
/>
<path fill="#ffffff" d="
  M 208.89 85.75
  L 197.72 85.74
  A 0.34 0.34 0.0 0 0 197.38 86.08
  L 197.41 111.81
  A 0.34 0.34 0.0 0 1 197.07 112.15
  L 188.79 112.18
  A 0.34 0.34 0.0 0 1 188.45 111.84
  L 188.49 86.09
  A 0.34 0.34 0.0 0 0 188.15 85.75
  L 176.59 85.75
  A 0.34 0.34 0.0 0 0 176.25 86.09
  L 176.27 111.82
  A 0.34 0.34 0.0 0 1 175.93 112.16
  L 167.37 112.18
  A 0.34 0.34 0.0 0 1 167.03 111.84
  L 167.04 76.71
  A 0.34 0.34 0.0 0 1 167.38 76.37
  L 218.21 76.38
  A 0.34 0.34 0.0 0 1 218.55 76.72
  L 218.57 111.82
  A 0.34 0.34 0.0 0 1 218.23 112.16
  L 209.49 112.17
  A 0.34 0.34 0.0 0 1 209.15 111.83
  L 209.23 86.09
  A 0.34 0.34 0.0 0 0 208.89 85.75
  Z"
/>
<path fill="#ffffff" d="
  M 232.28 99.84
  L 232.27 111.82
  A 0.34 0.34 0.0 0 1 231.93 112.16
  L 223.37 112.18
  A 0.34 0.34 0.0 0 1 223.03 111.84
  L 223.04 76.71
  A 0.34 0.34 0.0 0 1 223.38 76.37
  L 259.18 76.37
  A 0.34 0.34 0.0 0 1 259.52 76.71
  L 259.52 111.84
  A 0.34 0.34 0.0 0 1 259.18 112.18
  L 250.53 112.15
  A 0.34 0.34 0.0 0 1 250.19 111.81
  L 250.28 99.85
  A 0.34 0.34 0.0 0 0 249.94 99.51
  L 232.62 99.50
  A 0.34 0.34 0.0 0 0 232.28 99.84
  Z
  M 250.26 86.02
  A 0.27 0.27 0.0 0 0 249.99 85.75
  L 232.53 85.75
  A 0.27 0.27 0.0 0 0 232.26 86.02
  L 232.26 90.60
  A 0.27 0.27 0.0 0 0 232.53 90.87
  L 249.99 90.87
  A 0.27 0.27 0.0 0 0 250.26 90.60
  L 250.26 86.02
  Z"
/>
<path fill="#ffffff" d="
  M 273.76 103.15
  L 293.81 103.08
  A 0.33 0.33 0.0 0 1 294.14 103.41
  L 294.12 111.84
  A 0.33 0.33 0.0 0 1 293.79 112.17
  L 264.33 112.16
  A 0.33 0.33 0.0 0 1 264.00 111.83
  L 264.00 76.69
  A 0.33 0.33 0.0 0 1 264.33 76.36
  L 273.09 76.38
  A 0.33 0.33 0.0 0 1 273.42 76.71
  L 273.43 102.82
  A 0.33 0.33 0.0 0 0 273.76 103.15
  Z"
/>
<rect fill="#ffffff" x="298.76" y="76.38" width="9.48" height="35.78" rx="0.31"/>
<path fill="#ffffff" d="
  M 335.51 86.09
  L 335.52 111.82
  A 0.35 0.35 0.0 0 1 335.17 112.17
  L 326.58 112.16
  A 0.35 0.35 0.0 0 1 326.23 111.81
  L 326.24 86.09
  A 0.35 0.35 0.0 0 0 325.89 85.74
  L 313.16 85.77
  A 0.35 0.35 0.0 0 1 312.81 85.42
  L 312.80 76.71
  A 0.35 0.35 0.0 0 1 313.15 76.36
  L 348.77 76.39
  A 0.35 0.35 0.0 0 1 349.12 76.74
  L 349.17 85.41
  A 0.35 0.35 0.0 0 1 348.82 85.76
  L 335.86 85.74
  A 0.35 0.35 0.0 0 0 335.51 86.09
  Z"
/>
<path fill="#ffffff" d="
  M 390.12 111.87
  A 0.30 0.30 0.0 0 1 389.82 112.17
  L 354.16 112.17
  A 0.30 0.30 0.0 0 1 353.86 111.87
  L 353.86 76.67
  A 0.30 0.30 0.0 0 1 354.16 76.37
  L 389.82 76.37
  A 0.30 0.30 0.0 0 1 390.12 76.67
  L 390.12 111.87
  Z
  M 380.59 86.03
  A 0.27 0.27 0.0 0 0 380.32 85.76
  L 363.16 85.76
  A 0.27 0.27 0.0 0 0 362.89 86.03
  L 362.89 102.85
  A 0.27 0.27 0.0 0 0 363.16 103.12
  L 380.32 103.12
  A 0.27 0.27 0.0 0 0 380.59 102.85
  L 380.59 86.03
  Z"
/>
</svg>
