<?xml version="1.0" encoding="UTF-8" standalone="no"?>
<!DOCTYPE svg PUBLIC "-//W3C//DTD SVG 1.1//EN" "http://www.w3.org/Graphics/SVG/1.1/DTD/svg11.dtd">
<svg xmlns="http://www.w3.org/2000/svg" version="1.1" viewBox="0.00 0.00 590.00 255.00">
<g stroke-width="2.00" fill="none" stroke-linecap="butt">
<path stroke="#800001" stroke-opacity="0.996" vector-effect="non-scaling-stroke" d="
  M 522.23 58.73
  C 535.58 79.13 533.29 105.12 515.41 121.92
  Q 502.04 134.49 482.50 134.50
  Q 278.74 134.65 104.00 134.57
  C 93.65 134.57 83.87 131.63 75.69 125.35
  Q 74.27 124.26 72.66 123.59"
/>
<path stroke="#808080" stroke-opacity="0.996" vector-effect="non-scaling-stroke" d="
  M 89.01 152.35
  L 89.08 154.65
  A 1.29 1.29 0.0 0 1 87.79 155.98
  L 69.08 155.94
  A 1.85 1.84 -21.8 0 0 67.74 159.06
  Q 69.11 160.50 69.87 159.63"
/>
<path stroke="#808080" stroke-opacity="0.996" vector-effect="non-scaling-stroke" d="
  M 88.02 162.30
  L 87.99 164.86
  A 1.37 1.37 0.0 0 1 86.62 166.22
  L 69.01 166.24
  A 1.81 1.81 0.0 0 0 67.24 168.44
  Q 67.74 170.75 70.16 169.85"
/>
<path stroke="#808080" stroke-opacity="0.996" vector-effect="non-scaling-stroke" d="
  M 89.26 172.05
  L 89.17 175.52
  Q 89.13 177.04 87.61 177.01
  L 63.44 176.54"
/>
<path stroke="#808080" stroke-opacity="0.996" vector-effect="non-scaling-stroke" d="
  M 198.21 151.73
  L 198.22 154.99
  A 0.98 0.98 0.0 0 1 197.23 155.97
  L 177.98 155.95
  A 1.76 1.76 0.0 0 0 176.56 158.76
  Q 177.82 160.47 179.12 159.63"
/>
<path stroke="#808080" stroke-opacity="0.996" vector-effect="non-scaling-stroke" d="
  M 197.17 161.77
  Q 197.92 164.26 196.59 165.87
  Q 196.27 166.26 195.76 166.25
  L 178.08 166.22
  A 1.85 1.85 0.0 0 0 176.38 168.80
  Q 177.24 170.80 179.14 169.69"
/>
<path stroke="#808080" stroke-opacity="0.996" vector-effect="non-scaling-stroke" d="
  M 198.27 171.52
  Q 198.72 174.03 198.24 176.08
  Q 198.05 176.93 197.18 176.96
  Q 183.90 177.43 172.48 176.45"
/>
<path stroke="#808080" stroke-opacity="0.996" vector-effect="non-scaling-stroke" d="
  M 450.90 152.57
  Q 451.28 154.33 450.64 155.48
  Q 450.37 155.97 449.81 155.97
  L 430.52 155.95
  A 1.43 1.42 -80.6 0 0 429.17 156.92
  Q 428.36 159.32 432.01 160.12"
/>
<path stroke="#808080" stroke-opacity="0.996" vector-effect="non-scaling-stroke" d="
  M 449.82 163.75
  L 449.78 165.03
  Q 449.77 165.56 449.28 165.78
  Q 448.26 166.25 447.15 166.25
  Q 438.88 166.25 431.05 166.19
  A 1.92 1.92 0.0 0 0 429.28 168.90
  Q 430.05 170.64 431.71 169.69"
/>
<path stroke="#808080" stroke-opacity="0.996" vector-effect="non-scaling-stroke" d="
  M 451.02 173.21
  L 450.84 176.18
  A 0.85 0.85 0.0 0 1 449.98 176.98
  L 425.40 176.58"
/>
<path stroke="#808080" stroke-opacity="0.996" vector-effect="non-scaling-stroke" d="
  M 130.50 154.24
  L 130.90 175.45
  A 1.55 1.55 0.0 0 1 129.38 177.03
  L 124.78 177.10"
/>
<path stroke="#808080" stroke-opacity="0.996" vector-effect="non-scaling-stroke" d="
  M 121.63 158.91
  Q 121.44 157.40 120.55 156.59
  Q 119.83 155.94 118.83 155.94
  Q 112.05 155.98 106.26 155.98
  A 2.30 2.30 0.0 0 0 103.96 158.27
  L 103.93 175.23
  Q 103.93 177.12 102.04 177.08
  L 96.53 176.95"
/>
<path stroke="#808080" stroke-opacity="0.996" vector-effect="non-scaling-stroke" d="
  M 165.10 152.74
  Q 165.61 154.32 165.13 155.43
  Q 164.89 155.97 164.31 155.97
  L 155.26 155.97
  A 0.78 0.77 0.0 0 0 154.48 156.74
  L 154.51 175.54
  Q 154.51 177.03 153.03 177.01
  L 148.21 176.96"
/>
<path stroke="#808080" stroke-opacity="0.996" vector-effect="non-scaling-stroke" d="
  M 144.57 158.79
  Q 144.79 157.66 144.34 156.59
  Q 144.14 156.11 143.63 156.09
  L 137.54 155.84"
/>
<path stroke="#808080" stroke-opacity="0.996" vector-effect="non-scaling-stroke" d="
  M 237.17 154.57
  C 238.58 159.37 236.79 161.20 235.52 165.01
  Q 235.36 165.48 235.48 165.95
  Q 236.66 170.57 236.21 175.79
  A 1.36 1.35 -88.3 0 1 234.91 177.02
  L 231.73 177.12"
/>
<path stroke="#808080" stroke-opacity="0.996" vector-effect="non-scaling-stroke" d="
  M 227.96 172.16
  Q 228.04 169.54 225.00 169.54
  C 221.84 169.55 218.78 169.40 215.74 169.59
  C 212.63 169.78 213.01 173.46 213.00 175.66
  A 1.34 1.34 0.0 0 1 211.72 176.99
  L 206.51 177.23"
/>
<path stroke="#808080" stroke-opacity="0.996" vector-effect="non-scaling-stroke" d="
  M 271.89 152.98
  Q 272.27 154.37 271.78 155.44
  Q 271.54 155.95 270.98 155.95
  L 261.74 155.97
  A 0.79 0.79 0.0 0 0 260.95 156.76
  L 260.94 175.75
  A 1.21 1.21 0.0 0 1 259.74 176.96
  L 255.73 177.03"
/>
<path stroke="#808080" stroke-opacity="0.996" vector-effect="non-scaling-stroke" d="
  M 251.66 159.58
  Q 251.90 157.67 250.98 156.45
  A 0.98 0.97 -17.7 0 0 250.19 156.05
  L 244.92 156.01"
/>
<path stroke="#808080" stroke-opacity="0.996" vector-effect="non-scaling-stroke" d="
  M 308.18 154.09
  Q 309.49 164.09 308.97 175.39
  A 1.62 1.61 89.2 0 1 307.49 176.92
  L 303.22 177.25"
/>
<path stroke="#808080" stroke-opacity="0.996" vector-effect="non-scaling-stroke" d="
  M 299.17 172.06
  L 298.98 170.09
  Q 298.92 169.50 298.33 169.50
  L 285.00 169.50
  A 0.75 0.74 90.0 0 0 284.26 170.25
  L 284.26 175.79
  A 1.13 1.13 0.0 0 1 283.14 176.92
  L 279.24 176.98"
/>
<path stroke="#808080" stroke-opacity="0.996" vector-effect="non-scaling-stroke" d="
  M 274.80 158.40
  L 275.17 155.32"
/>
<path stroke="#808080" stroke-opacity="0.996" vector-effect="non-scaling-stroke" d="
  M 323.48 152.55
  Q 323.51 163.39 323.85 174.24
  Q 323.95 177.31 321.03 177.18
  Q 318.54 177.06 316.34 176.97"
/>
<path stroke="#808080" stroke-opacity="0.996" vector-effect="non-scaling-stroke" d="
  M 363.84 154.61
  L 363.87 175.63
  Q 363.87 176.98 362.52 176.98
  L 358.21 177.00"
/>
<path stroke="#808080" stroke-opacity="0.996" vector-effect="non-scaling-stroke" d="
  M 354.51 158.81
  Q 354.48 157.47 353.65 156.62
  Q 352.98 155.93 352.03 155.94
  Q 345.36 155.96 339.35 155.96
  A 2.35 2.35 0.0 0 0 337.00 158.31
  L 337.01 175.27
  A 1.71 1.71 0.0 0 1 335.32 176.98
  L 329.73 177.03"
/>
<path stroke="#808080" stroke-opacity="0.996" vector-effect="non-scaling-stroke" d="
  M 415.33 154.69
  L 415.52 175.94
  A 1.00 1.00 0.0 0 1 414.53 176.95
  L 410.25 176.98"
/>
<path stroke="#808080" stroke-opacity="0.996" vector-effect="non-scaling-stroke" d="
  M 406.15 158.62
  Q 405.77 156.09 403.99 156.00
  Q 401.52 155.88 399.17 155.97
  A 2.10 2.10 0.0 0 0 397.15 158.07
  L 397.16 175.50
  A 1.50 1.50 0.0 0 1 395.66 177.00
  L 391.23 176.99"
/>
<path stroke="#808080" stroke-opacity="0.996" vector-effect="non-scaling-stroke" d="
  M 387.67 158.63
  Q 387.42 157.47 386.78 156.72
  Q 386.11 155.92 385.01 155.91
  Q 382.78 155.89 380.83 156.01
  A 2.24 2.23 -1.8 0 0 378.73 158.24
  L 378.73 175.26
  Q 378.73 177.03 376.97 177.03
  L 371.78 177.02"
/>
<path stroke="#808080" stroke-opacity="0.996" vector-effect="non-scaling-stroke" d="
  M 491.19 154.41
  L 491.47 174.99
  Q 491.50 177.09 489.41 177.10
  L 485.25 177.12"
/>
<path stroke="#808080" stroke-opacity="0.996" vector-effect="non-scaling-stroke" d="
  M 482.17 158.70
  Q 481.95 157.40 481.16 156.62
  Q 480.48 155.95 479.56 155.95
  Q 473.55 155.97 467.26 155.96
  Q 464.39 155.95 464.39 158.82
  L 464.37 175.14
  Q 464.37 177.05 462.46 177.04
  L 458.38 177.00"
/>
<path stroke="#808080" stroke-opacity="0.996" vector-effect="non-scaling-stroke" d="
  M 527.26 151.96
  L 527.40 154.69
  A 1.21 1.21 0.0 0 1 526.19 155.97
  L 517.25 155.98
  A 1.27 1.27 0.0 0 0 515.98 157.25
  L 515.95 175.84
  A 1.22 1.22 0.0 0 1 514.68 177.06
  L 509.35 176.83"
/>
<path stroke="#808080" stroke-opacity="0.996" vector-effect="non-scaling-stroke" d="
  M 506.81 159.30
  Q 506.76 157.71 506.27 156.58
  Q 506.07 156.10 505.54 156.10
  L 499.65 156.06"
/>
<path stroke="#808080" stroke-opacity="0.996" vector-effect="non-scaling-stroke" d="
  M 213.99 189.28
  L 213.96 192.06
  A 0.84 0.84 0.0 0 1 213.12 192.90
  L 191.64 192.89
  A 1.79 1.78 -18.9 0 0 190.23 195.77
  Q 191.26 197.11 193.19 197.05"
/>
<path stroke="#808080" stroke-opacity="0.996" vector-effect="non-scaling-stroke" d="
  M 213.96 202.12
  Q 214.63 205.83 214.22 207.51
  C 213.58 210.17 210.82 212.02 208.49 213.15
  Q 206.93 213.90 204.50 213.92
  Q 195.23 213.98 185.95 213.89"
/>
<path stroke="#808080" stroke-opacity="0.996" vector-effect="non-scaling-stroke" d="
  M 205.52 205.81
  Q 206.65 205.18 205.61 203.50
  A 2.04 2.02 -15.1 0 0 203.91 202.53
  L 187.01 202.17"
/>
<path stroke="#808080" stroke-opacity="0.996" vector-effect="non-scaling-stroke" d="
  M 249.82 189.53
  C 249.98 192.89 250.62 198.30 249.08 200.92
  C 246.52 205.28 242.92 205.27 238.43 204.83
  Q 237.76 204.77 237.76 205.43
  L 237.76 212.51
  A 1.47 1.47 0.0 0 1 236.21 213.98
  L 232.01 213.77"
/>
<path stroke="#808080" stroke-opacity="0.996" vector-effect="non-scaling-stroke" d="
  M 227.98 207.74
  Q 228.17 206.30 227.71 205.35
  Q 227.49 204.91 227.00 204.90
  L 221.09 204.79"
/>
<path stroke="#808080" stroke-opacity="0.996" vector-effect="non-scaling-stroke" d="
  M 215.72 195.90
  L 215.76 188.95"
/>
<path stroke="#808080" stroke-opacity="0.996" vector-effect="non-scaling-stroke" d="
  M 225.41 189.49
  Q 225.68 192.63 225.68 195.80
  Q 225.69 197.96 228.15 198.11"
/>
<path stroke="#808080" stroke-opacity="0.996" vector-effect="non-scaling-stroke" d="
  M 319.81 188.48
  L 319.88 190.99
  A 1.86 1.86 0.0 0 1 318.02 192.91
  L 309.58 192.91
  Q 308.99 192.91 308.99 193.50
  C 308.93 199.49 308.63 205.84 309.00 211.92
  Q 309.12 213.84 307.27 213.97
  Q 305.59 214.09 303.02 213.79"
/>
<path stroke="#808080" stroke-opacity="0.996" vector-effect="non-scaling-stroke" d="
  M 299.11 195.82
  L 298.96 193.53
  Q 298.93 193.00 298.40 192.99
  L 291.92 192.85"
/>
<path stroke="#808080" stroke-opacity="0.996" vector-effect="non-scaling-stroke" d="
  M 288.67 192.42
  Q 287.91 191.12 288.26 188.40"
/>
<path stroke="#808080" stroke-opacity="0.996" vector-effect="non-scaling-stroke" d="
  M 352.91 188.28
  L 352.86 191.17
  A 1.58 1.57 89.0 0 1 351.38 192.71
  Q 343.44 193.13 335.80 192.89
  Q 333.99 192.84 332.08 193.08
  A 1.40 1.40 0.0 0 0 331.35 195.53
  Q 332.99 196.94 334.08 196.21"
/>
<path stroke="#808080" stroke-opacity="0.996" vector-effect="non-scaling-stroke" d="
  M 351.81 198.44
  C 352.22 200.33 352.00 202.99 349.62 202.99
  Q 341.21 202.99 332.99 203.00
  Q 330.99 203.00 330.88 204.96
  A 1.02 1.01 14.1 0 0 331.47 205.94
  Q 333.21 206.73 334.06 206.34"
/>
<path stroke="#808080" stroke-opacity="0.996" vector-effect="non-scaling-stroke" d="
  M 353.18 209.60
  L 353.00 212.70
  A 1.29 1.28 -87.4 0 1 351.69 213.91
  L 327.23 213.44"
/>
<path stroke="#808080" stroke-opacity="0.996" vector-effect="non-scaling-stroke" d="
  M 322.83 195.47
  L 322.66 188.01"
/>
<path stroke="#808080" stroke-opacity="0.996" vector-effect="non-scaling-stroke" d="
  M 285.31 187.96
  L 285.58 191.27
  A 1.52 1.52 0.0 0 1 284.06 192.90
  Q 273.98 192.84 262.99 192.88
  Q 261.95 192.88 261.30 193.66
  A 1.60 1.60 0.0 0 0 261.62 196.02
  Q 263.15 197.05 264.43 197.03"
/>
<path stroke="#808080" stroke-opacity="0.996" vector-effect="non-scaling-stroke" d="
  M 285.16 202.25
  Q 286.86 208.22 282.60 211.57
  Q 279.69 213.85 274.76 213.92
  Q 265.84 214.04 256.96 213.85"
/>
<path stroke="#808080" stroke-opacity="0.996" vector-effect="non-scaling-stroke" d="
  M 276.98 205.22
  C 277.53 202.95 275.69 202.52 273.88 202.55
  Q 265.82 202.66 258.05 202.22"
/>
<path stroke="#808080" stroke-opacity="0.996" vector-effect="non-scaling-stroke" d="
  M 404.26 191.13
  L 404.70 212.45
  A 1.48 1.48 0.0 0 1 403.16 213.97
  L 398.76 213.79"
/>
<path stroke="#808080" stroke-opacity="0.996" vector-effect="non-scaling-stroke" d="
  M 395.03 196.22
  Q 395.21 195.02 394.44 193.69
  A 1.51 1.49 -10.2 0 0 393.41 192.98
  Q 390.50 192.50 387.37 193.10
  A 1.77 1.77 0.0 0 0 385.93 194.84
  L 385.96 212.47
  A 1.48 1.47 -89.6 0 1 384.47 213.95
  L 379.55 213.90"
/>
<path stroke="#808080" stroke-opacity="0.996" vector-effect="non-scaling-stroke" d="
  M 376.33 196.03
  Q 376.76 191.31 368.91 193.17
  A 1.51 1.49 84.7 0 0 367.76 194.57
  Q 367.47 201.23 367.74 208.95
  Q 367.82 211.00 367.45 213.08
  A 1.01 1.01 0.0 0 1 366.41 213.92
  L 359.05 213.65"
/>
<path stroke="#ff8080" vector-effect="non-scaling-stroke" d="
  M 508.35 60.26
  C 502.27 54.27 492.92 49.78 484.20 49.78
  Q 300.31 49.75 105.07 49.77
  Q 83.03 49.77 71.86 68.30
  C 64.59 80.35 65.66 97.19 74.35 108.51
  Q 85.77 123.38 105.28 123.37
  Q 292.58 123.31 481.61 123.36
  C 498.85 123.36 513.37 112.81 518.12 96.13
  C 521.76 83.37 517.87 69.65 508.35 60.26"
/>
<path stroke="#ff8080" vector-effect="non-scaling-stroke" d="
  M 121.59 64.19
  A 0.31 0.31 0.0 0 0 121.28 64.50
  L 121.31 94.26
  A 0.31 0.31 0.0 0 1 120.74 94.42
  L 101.78 64.38
  A 0.31 0.31 0.0 0 0 101.52 64.24
  L 87.37 64.25
  A 0.31 0.31 0.0 0 0 87.06 64.56
  L 87.10 108.55
  A 0.31 0.31 0.0 0 0 87.41 108.86
  L 100.29 108.86
  A 0.31 0.31 0.0 0 0 100.60 108.55
  L 100.63 77.76
  A 0.31 0.31 0.0 0 1 101.20 77.59
  L 121.29 108.74
  A 0.31 0.31 0.0 0 0 121.55 108.88
  L 134.62 108.84
  A 0.31 0.31 0.0 0 0 134.93 108.53
  L 134.84 64.58
  A 0.31 0.31 0.0 0 0 134.53 64.27
  L 121.59 64.19"
/>
<path stroke="#ff8080" vector-effect="non-scaling-stroke" d="
  M 156.8561 64.8419
  A 0.60 0.60 0.0 0 0 156.2572 64.2408
  L 143.8572 64.2192
  A 0.60 0.60 0.0 0 0 143.2561 64.8181
  L 143.2439 71.8381
  A 0.60 0.60 0.0 0 0 143.8428 72.4392
  L 156.2428 72.4608
  A 0.60 0.60 0.0 0 0 156.8439 71.8619
  L 156.8561 64.8419"
/>
<path stroke="#ff8080" vector-effect="non-scaling-stroke" d="
  M 344.25 80.26
  C 338.03 76.95 332.10 76.49 326.39 81.12
  Q 317.78 88.10 321.08 98.32
  C 323.87 106.95 332.14 111.62 341.22 109.08
  Q 343.36 108.48 345.78 108.60
  Q 351.60 108.89 357.82 108.87
  A 0.81 0.81 0.0 0 0 358.63 108.06
  L 358.65 65.06
  A 0.84 0.83 89.7 0 0 357.81 64.22
  L 345.63 64.25
  Q 345.00 64.25 345.00 64.87
  L 345.02 79.80
  Q 345.03 80.67 344.25 80.26"
/>
<path stroke="#ff8080" vector-effect="non-scaling-stroke" d="
  M 412.16 71.21
  A 6.97 6.97 0.0 0 0 405.19 64.24
  A 6.97 6.97 0.0 0 0 398.22 71.21
  A 6.97 6.97 0.0 0 0 405.19 78.18
  A 6.97 6.97 0.0 0 0 412.16 71.21"
/>
<path stroke="#ff8080" vector-effect="non-scaling-stroke" d="
  M 225.57 79.51
  A 0.76 0.76 0.0 0 1 226.33 78.75
  L 231.89 78.74
  A 0.76 0.76 0.0 0 0 232.65 77.99
  L 232.70 75.23
  A 0.76 0.76 0.0 0 0 231.91 74.46
  L 226.24 74.68
  A 0.76 0.76 0.0 0 1 225.45 73.89
  L 225.64 69.11
  A 0.76 0.76 0.0 0 0 224.88 68.32
  L 212.61 68.25
  A 0.76 0.76 0.0 0 0 211.85 69.03
  L 212.01 73.75
  A 0.76 0.76 0.0 0 1 211.25 74.54
  L 205.30 74.52
  A 0.76 0.76 0.0 0 0 204.54 75.29
  L 204.55 78.09
  A 0.76 0.76 0.0 0 0 205.33 78.84
  L 211.19 78.73
  A 0.76 0.76 0.0 0 1 211.97 79.49
  L 211.93 108.12
  A 0.76 0.76 0.0 0 0 212.69 108.88
  L 224.78 108.84
  A 0.76 0.76 0.0 0 0 225.54 108.08
  L 225.57 79.51"
/>
<path stroke="#ff8080" vector-effect="non-scaling-stroke" d="
  M 447.12 91.71
  A 0.42 0.42 0.0 0 1 447.54 92.20
  L 445.01 107.59
  A 0.42 0.42 0.0 0 0 445.42 108.07
  L 455.68 108.17
  A 0.42 0.42 0.0 0 0 456.10 107.82
  L 462.62 68.88
  A 0.42 0.42 0.0 0 0 462.21 68.39
  L 451.83 68.31
  A 0.42 0.42 0.0 0 0 451.41 68.67
  L 449.33 81.89
  A 0.42 0.42 0.0 0 1 448.91 82.24
  L 434.44 82.23
  A 0.42 0.42 0.0 0 1 434.03 81.74
  L 436.15 68.83
  A 0.42 0.42 0.0 0 0 435.73 68.34
  L 425.28 68.42
  A 0.42 0.42 0.0 0 0 424.87 68.77
  L 418.38 107.66
  A 0.42 0.42 0.0 0 0 418.80 108.15
  L 429.25 108.02
  A 0.42 0.42 0.0 0 0 429.66 107.67
  L 432.24 92.12
  A 0.42 0.42 0.0 0 1 432.65 91.77
  L 447.12 91.71"
/>
<path stroke="#ff8080" vector-effect="non-scaling-stroke" d="
  M 474.86 98.48
  L 477.40 83.00
  A 0.65 0.64 4.9 0 0 476.76 82.25
  L 466.98 82.23
  A 0.81 0.81 0.0 0 0 466.18 82.91
  L 462.10 107.38
  A 0.59 0.59 0.0 0 0 462.67 108.07
  Q 473.10 108.20 484.39 108.11
  C 491.89 108.05 498.68 106.57 501.78 99.01
  Q 503.25 95.42 504.91 84.46
  C 505.47 80.81 505.94 77.54 504.42 74.13
  C 502.45 69.71 496.76 68.49 492.32 68.44
  Q 480.45 68.30 468.93 68.36
  Q 468.59 68.36 468.53 68.70
  L 467.07 77.22
  Q 467.02 77.51 467.32 77.50
  Q 477.51 77.49 490.75 77.56
  C 493.66 77.57 493.76 80.90 493.52 82.96
  Q 492.84 88.90 491.54 94.06
  Q 490.32 98.94 485.13 99.02
  Q 480.18 99.09 475.48 99.20
  Q 474.74 99.21 474.86 98.48"
/>
<path stroke="#ff8080" vector-effect="non-scaling-stroke" d="
  M 177.59 81.05
  L 177.45 79.34
  Q 177.40 78.77 176.82 78.77
  L 164.33 78.71
  A 0.32 0.32 0.0 0 0 164.01 79.04
  L 164.03 108.20
  A 0.67 0.67 0.0 0 0 164.70 108.87
  L 176.80 108.85
  A 0.71 0.70 -90.0 0 0 177.50 108.14
  Q 177.49 97.64 177.52 88.75
  Q 177.52 86.97 179.00 85.93
  Q 183.91 82.46 188.31 85.43
  Q 190.21 86.71 190.17 89.10
  Q 190.01 98.77 190.12 108.13
  A 0.81 0.80 -0.4 0 0 190.93 108.92
  L 203.00 108.84
  A 0.55 0.55 0.0 0 0 203.55 108.29
  Q 203.60 99.15 203.60 89.10
  Q 203.61 86.58 202.41 84.99
  Q 196.28 76.83 187.05 77.69
  C 183.60 78.01 181.33 79.82 178.50 81.52
  Q 177.67 82.01 177.59 81.05"
/>
<path stroke="#ff8080" vector-effect="non-scaling-stroke" d="
  M 246.95 94.41
  L 270.02 94.37
  Q 271.54 94.36 271.28 92.86
  C 270.05 85.83 265.20 80.83 258.59 78.79
  Q 248.64 75.71 239.77 80.95
  C 229.85 86.81 228.82 99.55 238.19 106.57
  Q 244.09 110.98 251.38 110.87
  Q 264.58 110.67 270.31 99.71
  A 0.89 0.89 0.0 0 0 269.51 98.41
  L 257.13 98.46
  Q 256.56 98.47 256.53 99.03
  Q 256.42 100.83 256.53 102.67
  C 256.82 107.29 252.42 106.59 249.50 106.43
  C 247.28 106.32 246.20 104.35 246.23 102.30
  Q 246.29 98.44 246.20 95.18
  Q 246.18 94.41 246.95 94.41"
/>
<path stroke="#ff8080" vector-effect="non-scaling-stroke" d="
  M 403.4399 94.2309
  A 19.81 16.60 -0.2 0 0 383.5721 77.7001
  A 19.81 16.60 -0.2 0 0 363.8201 94.3691
  A 19.81 16.60 -0.2 0 0 383.6879 110.8999
  A 19.81 16.60 -0.2 0 0 403.4399 94.2309"
/>
<path stroke="#ff8080" vector-effect="non-scaling-stroke" d="
  M 156.8250 79.4982
  A 0.76 0.76 0.0 0 0 156.0637 78.7395
  L 143.9837 78.7606
  A 0.76 0.76 0.0 0 0 143.2251 79.5219
  L 143.2750 108.1218
  A 0.76 0.76 0.0 0 0 144.0363 108.8805
  L 156.1163 108.8594
  A 0.76 0.76 0.0 0 0 156.8749 108.0981
  L 156.8250 79.4982"
/>
<path stroke="#ff8080" vector-effect="non-scaling-stroke" d="
  M 290.77 82.49
  Q 289.66 83.06 289.83 81.83
  Q 289.95 80.97 289.65 80.20
  Q 289.43 79.64 288.80 79.66
  Q 282.61 79.91 277.03 79.65
  A 0.63 0.62 1.3 0 0 276.37 80.27
  L 276.39 109.25
  A 0.61 0.60 -0.0 0 0 277.00 109.85
  L 289.15 109.87
  A 0.82 0.81 -0.7 0 0 289.97 109.04
  Q 289.75 99.42 289.83 90.11
  Q 289.85 88.04 291.61 86.87
  Q 297.01 83.31 301.41 87.07
  Q 302.44 87.95 302.42 89.36
  Q 302.28 99.21 302.46 109.14
  A 0.71 0.71 0.0 0 0 303.17 109.83
  L 315.03 109.85
  A 0.97 0.96 -0.0 0 0 316.00 108.89
  Q 316.01 99.25 315.94 89.51
  C 315.90 84.41 308.91 80.07 304.93 79.04
  Q 301.99 78.28 298.36 78.90
  C 295.52 79.39 293.29 81.21 290.77 82.49"
/>
<path stroke="#ff8080" vector-effect="non-scaling-stroke" d="
  M 345.00 87.33
  A 4.28 4.28 0.0 0 0 340.72 83.05
  L 339.02 83.05
  A 4.28 4.28 0.0 0 0 334.74 87.33
  L 334.74 100.41
  A 4.28 4.28 0.0 0 0 339.02 104.69
  L 340.72 104.69
  A 4.28 4.28 0.0 0 0 345.00 100.41
  L 345.00 87.33"
/>
<path stroke="#ff8080" vector-effect="non-scaling-stroke" d="
  M 410.96 71.20
  A 5.79 5.79 0.0 0 0 405.17 65.41
  A 5.79 5.79 0.0 0 0 399.38 71.20
  A 5.79 5.79 0.0 0 0 405.17 76.99
  A 5.79 5.79 0.0 0 0 410.96 71.20"
/>
<path stroke="#ff8080" vector-effect="non-scaling-stroke" d="
  M 404.86 72.32
  Q 405.95 72.81 406.31 74.19
  A 0.53 0.52 53.0 0 0 407.27 74.33
  Q 407.60 73.76 407.18 73.19
  Q 406.68 72.51 407.02 71.74
  L 407.64 70.39
  Q 407.93 69.76 407.58 69.15
  Q 406.34 66.95 403.59 67.71
  Q 402.69 67.96 402.68 68.89
  L 402.63 73.60
  Q 402.63 73.87 402.79 74.09
  Q 403.03 74.39 403.45 74.27
  A 0.51 0.50 88.3 0 0 403.82 73.87
  L 404.03 72.74
  Q 404.17 72.00 404.86 72.32"
/>
<path stroke="#ff8080" vector-effect="non-scaling-stroke" d="
  M 406.39 69.93
  A 1.32 1.32 0.0 0 0 405.07 68.61
  A 1.32 1.32 0.0 0 0 403.75 69.93
  A 1.32 1.32 0.0 0 0 405.07 71.25
  A 1.32 1.32 0.0 0 0 406.39 69.93"
/>
<path stroke="#ff8080" vector-effect="non-scaling-stroke" d="
  M 247.05 89.21
  L 255.77 89.23
  A 0.78 0.78 0.0 0 0 256.55 88.45
  L 256.56 85.86
  A 5.11 5.02 -89.9 0 0 251.55 80.74
  L 251.31 80.74
  A 5.11 5.02 -89.9 0 0 246.28 85.84
  L 246.27 88.43
  A 0.78 0.78 0.0 0 0 247.05 89.21"
/>
<path stroke="#ff8080" vector-effect="non-scaling-stroke" d="
  M 388.7548 85.1110
  A 4.19 4.19 0.0 0 0 384.5575 80.9284
  L 382.6575 80.9317
  A 4.19 4.19 0.0 0 0 378.4748 85.1290
  L 378.5052 102.5290
  A 4.19 4.19 0.0 0 0 382.7025 106.7116
  L 384.6025 106.7083
  A 4.19 4.19 0.0 0 0 388.7852 102.5110
  L 388.7548 85.1110"
/>
<path stroke="#808080" stroke-opacity="0.996" vector-effect="non-scaling-stroke" d="
  M 228.16 159.38
  Q 228.32 157.62 226.87 156.33
  A 1.44 1.41 -23.9 0 0 225.93 155.98
  Q 221.10 156.01 215.87 155.95
  C 213.41 155.91 212.96 158.30 213.33 160.30
  Q 213.84 163.15 217.47 162.61"
/>
<path stroke="#808080" stroke-opacity="0.996" vector-effect="non-scaling-stroke" d="
  M 299.14 159.10
  Q 299.30 157.57 298.06 156.32
  Q 297.70 155.95 297.19 155.95
  L 286.30 155.98
  A 1.86 1.85 -88.0 0 0 284.45 157.71
  L 284.16 161.87
  Q 284.12 162.53 284.76 162.66
  Q 286.12 162.94 287.46 162.76"
/>
</g>
<path fill="#ff0001" d="
  M 522.23 58.73
  C 535.58 79.13 533.29 105.12 515.41 121.92
  Q 502.04 134.49 482.50 134.50
  Q 278.74 134.65 104.00 134.57
  C 93.65 134.57 83.87 131.63 75.69 125.35
  Q 74.27 124.26 72.66 123.59
  C 44.08 98.06 52.67 52.88 89.17 40.60
  C 94.01 38.98 100.06 38.24 105.65 38.24
  Q 231.32 38.23 357.00 38.19
  Q 358.00 38.19 359.00 38.20
  Q 417.25 38.26 475.51 38.26
  Q 487.96 38.26 493.88 39.69
  Q 511.12 43.88 522.23 58.73
  Z
  M 508.35 60.26
  C 502.27 54.27 492.92 49.78 484.20 49.78
  Q 300.31 49.75 105.07 49.77
  Q 83.03 49.77 71.86 68.30
  C 64.59 80.35 65.66 97.19 74.35 108.51
  Q 85.77 123.38 105.28 123.37
  Q 292.58 123.31 481.61 123.36
  C 498.85 123.36 513.37 112.81 518.12 96.13
  C 521.76 83.37 517.87 69.65 508.35 60.26
  Z"
/>
<path fill="#ffffff" d="
  M 484.20 49.78
  C 492.92 49.78 502.27 54.27 508.35 60.26
  C 517.87 69.65 521.76 83.37 518.12 96.13
  C 513.37 112.81 498.85 123.36 481.61 123.36
  Q 292.58 123.31 105.28 123.37
  Q 85.77 123.38 74.35 108.51
  C 65.66 97.19 64.59 80.35 71.86 68.30
  Q 83.03 49.77 105.07 49.77
  Q 300.31 49.75 484.20 49.78
  Z
  M 121.59 64.19
  A 0.31 0.31 0.0 0 0 121.28 64.50
  L 121.31 94.26
  A 0.31 0.31 0.0 0 1 120.74 94.42
  L 101.78 64.38
  A 0.31 0.31 0.0 0 0 101.52 64.24
  L 87.37 64.25
  A 0.31 0.31 0.0 0 0 87.06 64.56
  L 87.10 108.55
  A 0.31 0.31 0.0 0 0 87.41 108.86
  L 100.29 108.86
  A 0.31 0.31 0.0 0 0 100.60 108.55
  L 100.63 77.76
  A 0.31 0.31 0.0 0 1 101.20 77.59
  L 121.29 108.74
  A 0.31 0.31 0.0 0 0 121.55 108.88
  L 134.62 108.84
  A 0.31 0.31 0.0 0 0 134.93 108.53
  L 134.84 64.58
  A 0.31 0.31 0.0 0 0 134.53 64.27
  L 121.59 64.19
  Z
  M 156.8561 64.8419
  A 0.60 0.60 0.0 0 0 156.2572 64.2408
  L 143.8572 64.2192
  A 0.60 0.60 0.0 0 0 143.2561 64.8181
  L 143.2439 71.8381
  A 0.60 0.60 0.0 0 0 143.8428 72.4392
  L 156.2428 72.4608
  A 0.60 0.60 0.0 0 0 156.8439 71.8619
  L 156.8561 64.8419
  Z
  M 344.25 80.26
  C 338.03 76.95 332.10 76.49 326.39 81.12
  Q 317.78 88.10 321.08 98.32
  C 323.87 106.95 332.14 111.62 341.22 109.08
  Q 343.36 108.48 345.78 108.60
  Q 351.60 108.89 357.82 108.87
  A 0.81 0.81 0.0 0 0 358.63 108.06
  L 358.65 65.06
  A 0.84 0.83 89.7 0 0 357.81 64.22
  L 345.63 64.25
  Q 345.00 64.25 345.00 64.87
  L 345.02 79.80
  Q 345.03 80.67 344.25 80.26
  Z
  M 412.16 71.21
  A 6.97 6.97 0.0 0 0 405.19 64.24
  A 6.97 6.97 0.0 0 0 398.22 71.21
  A 6.97 6.97 0.0 0 0 405.19 78.18
  A 6.97 6.97 0.0 0 0 412.16 71.21
  Z
  M 225.57 79.51
  A 0.76 0.76 0.0 0 1 226.33 78.75
  L 231.89 78.74
  A 0.76 0.76 0.0 0 0 232.65 77.99
  L 232.70 75.23
  A 0.76 0.76 0.0 0 0 231.91 74.46
  L 226.24 74.68
  A 0.76 0.76 0.0 0 1 225.45 73.89
  L 225.64 69.11
  A 0.76 0.76 0.0 0 0 224.88 68.32
  L 212.61 68.25
  A 0.76 0.76 0.0 0 0 211.85 69.03
  L 212.01 73.75
  A 0.76 0.76 0.0 0 1 211.25 74.54
  L 205.30 74.52
  A 0.76 0.76 0.0 0 0 204.54 75.29
  L 204.55 78.09
  A 0.76 0.76 0.0 0 0 205.33 78.84
  L 211.19 78.73
  A 0.76 0.76 0.0 0 1 211.97 79.49
  L 211.93 108.12
  A 0.76 0.76 0.0 0 0 212.69 108.88
  L 224.78 108.84
  A 0.76 0.76 0.0 0 0 225.54 108.08
  L 225.57 79.51
  Z
  M 447.12 91.71
  A 0.42 0.42 0.0 0 1 447.54 92.20
  L 445.01 107.59
  A 0.42 0.42 0.0 0 0 445.42 108.07
  L 455.68 108.17
  A 0.42 0.42 0.0 0 0 456.10 107.82
  L 462.62 68.88
  A 0.42 0.42 0.0 0 0 462.21 68.39
  L 451.83 68.31
  A 0.42 0.42 0.0 0 0 451.41 68.67
  L 449.33 81.89
  A 0.42 0.42 0.0 0 1 448.91 82.24
  L 434.44 82.23
  A 0.42 0.42 0.0 0 1 434.03 81.74
  L 436.15 68.83
  A 0.42 0.42 0.0 0 0 435.73 68.34
  L 425.28 68.42
  A 0.42 0.42 0.0 0 0 424.87 68.77
  L 418.38 107.66
  A 0.42 0.42 0.0 0 0 418.80 108.15
  L 429.25 108.02
  A 0.42 0.42 0.0 0 0 429.66 107.67
  L 432.24 92.12
  A 0.42 0.42 0.0 0 1 432.65 91.77
  L 447.12 91.71
  Z
  M 474.86 98.48
  L 477.40 83.00
  A 0.65 0.64 4.9 0 0 476.76 82.25
  L 466.98 82.23
  A 0.81 0.81 0.0 0 0 466.18 82.91
  L 462.10 107.38
  A 0.59 0.59 0.0 0 0 462.67 108.07
  Q 473.10 108.20 484.39 108.11
  C 491.89 108.05 498.68 106.57 501.78 99.01
  Q 503.25 95.42 504.91 84.46
  C 505.47 80.81 505.94 77.54 504.42 74.13
  C 502.45 69.71 496.76 68.49 492.32 68.44
  Q 480.45 68.30 468.93 68.36
  Q 468.59 68.36 468.53 68.70
  L 467.07 77.22
  Q 467.02 77.51 467.32 77.50
  Q 477.51 77.49 490.75 77.56
  C 493.66 77.57 493.76 80.90 493.52 82.96
  Q 492.84 88.90 491.54 94.06
  Q 490.32 98.94 485.13 99.02
  Q 480.18 99.09 475.48 99.20
  Q 474.74 99.21 474.86 98.48
  Z
  M 177.59 81.05
  L 177.45 79.34
  Q 177.40 78.77 176.82 78.77
  L 164.33 78.71
  A 0.32 0.32 0.0 0 0 164.01 79.04
  L 164.03 108.20
  A 0.67 0.67 0.0 0 0 164.70 108.87
  L 176.80 108.85
  A 0.71 0.70 -90.0 0 0 177.50 108.14
  Q 177.49 97.64 177.52 88.75
  Q 177.52 86.97 179.00 85.93
  Q 183.91 82.46 188.31 85.43
  Q 190.21 86.71 190.17 89.10
  Q 190.01 98.77 190.12 108.13
  A 0.81 0.80 -0.4 0 0 190.93 108.92
  L 203.00 108.84
  A 0.55 0.55 0.0 0 0 203.55 108.29
  Q 203.60 99.15 203.60 89.10
  Q 203.61 86.58 202.41 84.99
  Q 196.28 76.83 187.05 77.69
  C 183.60 78.01 181.33 79.82 178.50 81.52
  Q 177.67 82.01 177.59 81.05
  Z
  M 246.95 94.41
  L 270.02 94.37
  Q 271.54 94.36 271.28 92.86
  C 270.05 85.83 265.20 80.83 258.59 78.79
  Q 248.64 75.71 239.77 80.95
  C 229.85 86.81 228.82 99.55 238.19 106.57
  Q 244.09 110.98 251.38 110.87
  Q 264.58 110.67 270.31 99.71
  A 0.89 0.89 0.0 0 0 269.51 98.41
  L 257.13 98.46
  Q 256.56 98.47 256.53 99.03
  Q 256.42 100.83 256.53 102.67
  C 256.82 107.29 252.42 106.59 249.50 106.43
  C 247.28 106.32 246.20 104.35 246.23 102.30
  Q 246.29 98.44 246.20 95.18
  Q 246.18 94.41 246.95 94.41
  Z
  M 403.4399 94.2309
  A 19.81 16.60 -0.2 0 0 383.5721 77.7001
  A 19.81 16.60 -0.2 0 0 363.8201 94.3691
  A 19.81 16.60 -0.2 0 0 383.6879 110.8999
  A 19.81 16.60 -0.2 0 0 403.4399 94.2309
  Z
  M 156.8250 79.4982
  A 0.76 0.76 0.0 0 0 156.0637 78.7395
  L 143.9837 78.7606
  A 0.76 0.76 0.0 0 0 143.2251 79.5219
  L 143.2750 108.1218
  A 0.76 0.76 0.0 0 0 144.0363 108.8805
  L 156.1163 108.8594
  A 0.76 0.76 0.0 0 0 156.8749 108.0981
  L 156.8250 79.4982
  Z
  M 290.77 82.49
  Q 289.66 83.06 289.83 81.83
  Q 289.95 80.97 289.65 80.20
  Q 289.43 79.64 288.80 79.66
  Q 282.61 79.91 277.03 79.65
  A 0.63 0.62 1.3 0 0 276.37 80.27
  L 276.39 109.25
  A 0.61 0.60 -0.0 0 0 277.00 109.85
  L 289.15 109.87
  A 0.82 0.81 -0.7 0 0 289.97 109.04
  Q 289.75 99.42 289.83 90.11
  Q 289.85 88.04 291.61 86.87
  Q 297.01 83.31 301.41 87.07
  Q 302.44 87.95 302.42 89.36
  Q 302.28 99.21 302.46 109.14
  A 0.71 0.71 0.0 0 0 303.17 109.83
  L 315.03 109.85
  A 0.97 0.96 -0.0 0 0 316.00 108.89
  Q 316.01 99.25 315.94 89.51
  C 315.90 84.41 308.91 80.07 304.93 79.04
  Q 301.99 78.28 298.36 78.90
  C 295.52 79.39 293.29 81.21 290.77 82.49
  Z"
/>
<path fill="#000000" fill-opacity="0.992" d="
  M 522.23 58.73
  C 538.75 78.97 535.88 109.05 515.88 125.81
  Q 502.33 137.17 483.18 137.15
  Q 297.49 136.98 110.32 137.13
  Q 100.63 137.13 94.61 135.67
  Q 82.25 132.67 72.66 123.59
  Q 74.27 124.26 75.69 125.35
  C 83.87 131.63 93.65 134.57 104.00 134.57
  Q 278.74 134.65 482.50 134.50
  Q 502.04 134.49 515.41 121.92
  C 533.29 105.12 535.58 79.13 522.23 58.73
  Z"
/>
<path fill="#ff0001" d="
  M 121.59 64.19
  L 134.53 64.27
  A 0.31 0.31 0.0 0 1 134.84 64.58
  L 134.93 108.53
  A 0.31 0.31 0.0 0 1 134.62 108.84
  L 121.55 108.88
  A 0.31 0.31 0.0 0 1 121.29 108.74
  L 101.20 77.59
  A 0.31 0.31 0.0 0 0 100.63 77.76
  L 100.60 108.55
  A 0.31 0.31 0.0 0 1 100.29 108.86
  L 87.41 108.86
  A 0.31 0.31 0.0 0 1 87.10 108.55
  L 87.06 64.56
  A 0.31 0.31 0.0 0 1 87.37 64.25
  L 101.52 64.24
  A 0.31 0.31 0.0 0 1 101.78 64.38
  L 120.74 94.42
  A 0.31 0.31 0.0 0 0 121.31 94.26
  L 121.28 64.50
  A 0.31 0.31 0.0 0 1 121.59 64.19
  Z"
/>
<rect fill="#ff0001" x="-6.80" y="-4.11" transform="translate(150.05,68.34) rotate(0.1)" width="13.60" height="8.22" rx="0.60"/>
<path fill="#ff0001" d="
  M 345.02 79.80
  L 345.00 64.87
  Q 345.00 64.25 345.63 64.25
  L 357.81 64.22
  A 0.84 0.83 89.7 0 1 358.65 65.06
  L 358.63 108.06
  A 0.81 0.81 0.0 0 1 357.82 108.87
  Q 351.60 108.89 345.78 108.60
  Q 343.36 108.48 341.22 109.08
  C 332.14 111.62 323.87 106.95 321.08 98.32
  Q 317.78 88.10 326.39 81.12
  C 332.10 76.49 338.03 76.95 344.25 80.26
  Q 345.03 80.67 345.02 79.80
  Z
  M 345.00 87.33
  A 4.28 4.28 0.0 0 0 340.72 83.05
  L 339.02 83.05
  A 4.28 4.28 0.0 0 0 334.74 87.33
  L 334.74 100.41
  A 4.28 4.28 0.0 0 0 339.02 104.69
  L 340.72 104.69
  A 4.28 4.28 0.0 0 0 345.00 100.41
  L 345.00 87.33
  Z"
/>
<path fill="#ff0001" d="
  M 412.16 71.21
  A 6.97 6.97 0.0 0 1 405.19 78.18
  A 6.97 6.97 0.0 0 1 398.22 71.21
  A 6.97 6.97 0.0 0 1 405.19 64.24
  A 6.97 6.97 0.0 0 1 412.16 71.21
  Z
  M 410.96 71.20
  A 5.79 5.79 0.0 0 0 405.17 65.41
  A 5.79 5.79 0.0 0 0 399.38 71.20
  A 5.79 5.79 0.0 0 0 405.17 76.99
  A 5.79 5.79 0.0 0 0 410.96 71.20
  Z"
/>
<path fill="#ffffff" d="
  M 410.96 71.20
  A 5.79 5.79 0.0 0 1 405.17 76.99
  A 5.79 5.79 0.0 0 1 399.38 71.20
  A 5.79 5.79 0.0 0 1 405.17 65.41
  A 5.79 5.79 0.0 0 1 410.96 71.20
  Z
  M 404.86 72.32
  Q 405.95 72.81 406.31 74.19
  A 0.53 0.52 53.0 0 0 407.27 74.33
  Q 407.60 73.76 407.18 73.19
  Q 406.68 72.51 407.02 71.74
  L 407.64 70.39
  Q 407.93 69.76 407.58 69.15
  Q 406.34 66.95 403.59 67.71
  Q 402.69 67.96 402.68 68.89
  L 402.63 73.60
  Q 402.63 73.87 402.79 74.09
  Q 403.03 74.39 403.45 74.27
  A 0.51 0.50 88.3 0 0 403.82 73.87
  L 404.03 72.74
  Q 404.17 72.00 404.86 72.32
  Z"
/>
<path fill="#ff0001" d="
  M 404.03 72.74
  L 403.82 73.87
  A 0.51 0.50 88.3 0 1 403.45 74.27
  Q 403.03 74.39 402.79 74.09
  Q 402.63 73.87 402.63 73.60
  L 402.68 68.89
  Q 402.69 67.96 403.59 67.71
  Q 406.34 66.95 407.58 69.15
  Q 407.93 69.76 407.64 70.39
  L 407.02 71.74
  Q 406.68 72.51 407.18 73.19
  Q 407.60 73.76 407.27 74.33
  A 0.53 0.52 53.0 0 1 406.31 74.19
  Q 405.95 72.81 404.86 72.32
  Q 404.17 72.00 404.03 72.74
  Z
  M 406.39 69.93
  A 1.32 1.32 0.0 0 0 405.07 68.61
  A 1.32 1.32 0.0 0 0 403.75 69.93
  A 1.32 1.32 0.0 0 0 405.07 71.25
  A 1.32 1.32 0.0 0 0 406.39 69.93
  Z"
/>
<path fill="#ff0001" d="
  M 225.57 79.51
  L 225.54 108.08
  A 0.76 0.76 0.0 0 1 224.78 108.84
  L 212.69 108.88
  A 0.76 0.76 0.0 0 1 211.93 108.12
  L 211.97 79.49
  A 0.76 0.76 0.0 0 0 211.19 78.73
  L 205.33 78.84
  A 0.76 0.76 0.0 0 1 204.55 78.09
  L 204.54 75.29
  A 0.76 0.76 0.0 0 1 205.30 74.52
  L 211.25 74.54
  A 0.76 0.76 0.0 0 0 212.01 73.75
  L 211.85 69.03
  A 0.76 0.76 0.0 0 1 212.61 68.25
  L 224.88 68.32
  A 0.76 0.76 0.0 0 1 225.64 69.11
  L 225.45 73.89
  A 0.76 0.76 0.0 0 0 226.24 74.68
  L 231.91 74.46
  A 0.76 0.76 0.0 0 1 232.70 75.23
  L 232.65 77.99
  A 0.76 0.76 0.0 0 1 231.89 78.74
  L 226.33 78.75
  A 0.76 0.76 0.0 0 0 225.57 79.51
  Z"
/>
<path fill="#ff0001" d="
  M 447.12 91.71
  L 432.65 91.77
  A 0.42 0.42 0.0 0 0 432.24 92.12
  L 429.66 107.67
  A 0.42 0.42 0.0 0 1 429.25 108.02
  L 418.80 108.15
  A 0.42 0.42 0.0 0 1 418.38 107.66
  L 424.87 68.77
  A 0.42 0.42 0.0 0 1 425.28 68.42
  L 435.73 68.34
  A 0.42 0.42 0.0 0 1 436.15 68.83
  L 434.03 81.74
  A 0.42 0.42 0.0 0 0 434.44 82.23
  L 448.91 82.24
  A 0.42 0.42 0.0 0 0 449.33 81.89
  L 451.41 68.67
  A 0.42 0.42 0.0 0 1 451.83 68.31
  L 462.21 68.39
  A 0.42 0.42 0.0 0 1 462.62 68.88
  L 456.10 107.82
  A 0.42 0.42 0.0 0 1 455.68 108.17
  L 445.42 108.07
  A 0.42 0.42 0.0 0 1 445.01 107.59
  L 447.54 92.20
  A 0.42 0.42 0.0 0 0 447.12 91.71
  Z"
/>
<path fill="#ff0001" d="
  M 475.48 99.20
  Q 480.18 99.09 485.13 99.02
  Q 490.32 98.94 491.54 94.06
  Q 492.84 88.90 493.52 82.96
  C 493.76 80.90 493.66 77.57 490.75 77.56
  Q 477.51 77.49 467.32 77.50
  Q 467.02 77.51 467.07 77.22
  L 468.53 68.70
  Q 468.59 68.36 468.93 68.36
  Q 480.45 68.30 492.32 68.44
  C 496.76 68.49 502.45 69.71 504.42 74.13
  C 505.94 77.54 505.47 80.81 504.91 84.46
  Q 503.25 95.42 501.78 99.01
  C 498.68 106.57 491.89 108.05 484.39 108.11
  Q 473.10 108.20 462.67 108.07
  A 0.59 0.59 0.0 0 1 462.10 107.38
  L 466.18 82.91
  A 0.81 0.81 0.0 0 1 466.98 82.23
  L 476.76 82.25
  A 0.65 0.64 4.9 0 1 477.40 83.00
  L 474.86 98.48
  Q 474.74 99.21 475.48 99.20
  Z"
/>
<circle fill="#ffffff" cx="405.07" cy="69.93" r="1.32"/>
<path fill="#ff0001" d="
  M 178.50 81.52
  C 181.33 79.82 183.60 78.01 187.05 77.69
  Q 196.28 76.83 202.41 84.99
  Q 203.61 86.58 203.60 89.10
  Q 203.60 99.15 203.55 108.29
  A 0.55 0.55 0.0 0 1 203.00 108.84
  L 190.93 108.92
  A 0.81 0.80 -0.4 0 1 190.12 108.13
  Q 190.01 98.77 190.17 89.10
  Q 190.21 86.71 188.31 85.43
  Q 183.91 82.46 179.00 85.93
  Q 177.52 86.97 177.52 88.75
  Q 177.49 97.64 177.50 108.14
  A 0.71 0.70 90.0 0 1 176.80 108.85
  L 164.70 108.87
  A 0.67 0.67 0.0 0 1 164.03 108.20
  L 164.01 79.04
  A 0.32 0.32 0.0 0 1 164.33 78.71
  L 176.82 78.77
  Q 177.40 78.77 177.45 79.34
  L 177.59 81.05
  Q 177.67 82.01 178.50 81.52
  Z"
/>
<path fill="#ff0001" d="
  M 246.20 95.18
  Q 246.29 98.44 246.23 102.30
  C 246.20 104.35 247.28 106.32 249.50 106.43
  C 252.42 106.59 256.82 107.29 256.53 102.67
  Q 256.42 100.83 256.53 99.03
  Q 256.56 98.47 257.13 98.46
  L 269.51 98.41
  A 0.89 0.89 0.0 0 1 270.31 99.71
  Q 264.58 110.67 251.38 110.87
  Q 244.09 110.98 238.19 106.57
  C 228.82 99.55 229.85 86.81 239.77 80.95
  Q 248.64 75.71 258.59 78.79
  C 265.20 80.83 270.05 85.83 271.28 92.86
  Q 271.54 94.36 270.02 94.37
  L 246.95 94.41
  Q 246.18 94.41 246.20 95.18
  Z
  M 247.05 89.21
  L 255.77 89.23
  A 0.78 0.78 0.0 0 0 256.55 88.45
  L 256.56 85.86
  A 5.11 5.02 -89.9 0 0 251.55 80.74
  L 251.31 80.74
  A 5.11 5.02 -89.9 0 0 246.28 85.84
  L 246.27 88.43
  A 0.78 0.78 0.0 0 0 247.05 89.21
  Z"
/>
<path fill="#ff0001" d="
  M 403.4399 94.2309
  A 19.81 16.60 -0.2 0 1 383.6879 110.8999
  A 19.81 16.60 -0.2 0 1 363.8201 94.3691
  A 19.81 16.60 -0.2 0 1 383.5721 77.7001
  A 19.81 16.60 -0.2 0 1 403.4399 94.2309
  Z
  M 388.7548 85.1110
  A 4.19 4.19 0.0 0 0 384.5575 80.9284
  L 382.6575 80.9317
  A 4.19 4.19 0.0 0 0 378.4748 85.1290
  L 378.5052 102.5290
  A 4.19 4.19 0.0 0 0 382.7025 106.7116
  L 384.6025 106.7083
  A 4.19 4.19 0.0 0 0 388.7852 102.5110
  L 388.7548 85.1110
  Z"
/>
<rect fill="#ff0001" x="-6.80" y="-15.06" transform="translate(150.05,93.81) rotate(-0.1)" width="13.60" height="30.12" rx="0.76"/>
<path fill="#ff0001" d="
  M 290.77 82.49
  C 293.29 81.21 295.52 79.39 298.36 78.90
  Q 301.99 78.28 304.93 79.04
  C 308.91 80.07 315.90 84.41 315.94 89.51
  Q 316.01 99.25 316.00 108.89
  A 0.97 0.96 0.0 0 1 315.03 109.85
  L 303.17 109.83
  A 0.71 0.71 0.0 0 1 302.46 109.14
  Q 302.28 99.21 302.42 89.36
  Q 302.44 87.95 301.41 87.07
  Q 297.01 83.31 291.61 86.87
  Q 289.85 88.04 289.83 90.11
  Q 289.75 99.42 289.97 109.04
  A 0.82 0.81 -0.7 0 1 289.15 109.87
  L 277.00 109.85
  A 0.61 0.60 0.0 0 1 276.39 109.25
  L 276.37 80.27
  A 0.63 0.62 1.3 0 1 277.03 79.65
  Q 282.61 79.91 288.80 79.66
  Q 289.43 79.64 289.65 80.20
  Q 289.95 80.97 289.83 81.83
  Q 289.66 83.06 290.77 82.49
  Z"
/>
<path fill="#ffffff" d="
  M 247.05 89.21
  A 0.78 0.78 0.0 0 1 246.27 88.43
  L 246.28 85.84
  A 5.11 5.02 -89.9 0 1 251.31 80.74
  L 251.55 80.74
  A 5.11 5.02 -89.9 0 1 256.56 85.86
  L 256.55 88.45
  A 0.78 0.78 0.0 0 1 255.77 89.23
  L 247.05 89.21
  Z"
/>
<rect fill="#ffffff" x="-5.14" y="-12.89" transform="translate(383.63,93.82) rotate(-0.1)" width="10.28" height="25.78" rx="4.19"/>
<rect fill="#ffffff" x="334.74" y="83.05" width="10.26" height="21.64" rx="4.28"/>
<path fill="#ffffff" d="
  M 89.01 152.35
  L 89.08 154.65
  A 1.29 1.29 0.0 0 1 87.79 155.98
  L 69.08 155.94
  A 1.85 1.84 -21.8 0 0 67.74 159.06
  Q 69.11 160.50 69.87 159.63
  Q 78.19 160.91 84.75 160.47
  Q 87.39 160.30 88.02 162.30
  L 87.99 164.86
  A 1.37 1.37 0.0 0 1 86.62 166.22
  L 69.01 166.24
  A 1.81 1.81 0.0 0 0 67.24 168.44
  Q 67.74 170.75 70.16 169.85
  Q 79.42 170.53 88.00 170.25
  Q 88.93 170.22 89.26 172.05
  L 89.17 175.52
  Q 89.13 177.04 87.61 177.01
  L 63.44 176.54
  Q 59.08 173.33 59.09 170.90
  Q 59.12 160.61 59.10 149.73
  A 0.67 0.67 0.0 0 1 59.77 149.06
  L 87.99 149.08
  Q 88.49 149.08 88.56 149.57
  L 89.01 152.35
  Z"
/>
<path fill="#ffffff" d="
  M 198.21 151.73
  L 198.22 154.99
  A 0.98 0.98 0.0 0 1 197.23 155.97
  L 177.98 155.95
  A 1.76 1.76 0.0 0 0 176.56 158.76
  Q 177.82 160.47 179.12 159.63
  Q 185.65 160.31 195.50 160.50
  Q 196.70 160.52 197.17 161.77
  Q 197.92 164.26 196.59 165.87
  Q 196.27 166.26 195.76 166.25
  L 178.08 166.22
  A 1.85 1.85 0.0 0 0 176.38 168.80
  Q 177.24 170.80 179.14 169.69
  Q 188.11 170.55 196.50 170.38
  Q 197.96 170.35 198.27 171.52
  Q 198.72 174.03 198.24 176.08
  Q 198.05 176.93 197.18 176.96
  Q 183.90 177.43 172.48 176.45
  Q 168.41 173.35 168.46 171.27
  Q 168.64 163.42 168.14 154.81
  Q 168.04 153.04 168.66 149.53
  Q 168.76 149.00 169.29 149.00
  L 197.43 149.17
  Q 197.94 149.17 198.10 149.66
  Q 198.38 150.49 198.21 151.73
  Z"
/>
<path fill="#ffffff" d="
  M 450.90 152.57
  Q 451.28 154.33 450.64 155.48
  Q 450.37 155.97 449.81 155.97
  L 430.52 155.95
  A 1.43 1.42 -80.6 0 0 429.17 156.92
  Q 428.36 159.32 432.01 160.12
  L 448.34 160.46
  Q 448.85 160.47 449.14 160.90
  Q 449.86 161.96 449.82 163.75
  L 449.78 165.03
  Q 449.77 165.56 449.28 165.78
  Q 448.26 166.25 447.15 166.25
  Q 438.88 166.25 431.05 166.19
  A 1.92 1.92 0.0 0 0 429.28 168.90
  Q 430.05 170.64 431.71 169.69
  L 449.82 170.34
  Q 450.31 170.35 450.52 170.81
  Q 450.94 171.72 451.02 173.21
  L 450.84 176.18
  A 0.85 0.85 0.0 0 1 449.98 176.98
  L 425.40 176.58
  Q 423.52 175.17 422.36 173.73
  Q 421.16 172.23 421.18 170.40
  Q 421.30 160.01 421.08 149.69
  A 0.65 0.64 89.6 0 1 421.72 149.03
  L 449.83 149.08
  Q 450.43 149.09 450.51 149.68
  L 450.90 152.57
  Z"
/>
<path fill="#ffffff" d="
  M 130.50 154.24
  L 130.90 175.45
  A 1.55 1.55 0.0 0 1 129.38 177.03
  L 124.78 177.10
  L 122.47 176.20
  Q 121.98 176.01 121.97 175.49
  L 121.63 158.91
  Q 121.44 157.40 120.55 156.59
  Q 119.83 155.94 118.83 155.94
  Q 112.05 155.98 106.26 155.98
  A 2.30 2.30 0.0 0 0 103.96 158.27
  L 103.93 175.23
  Q 103.93 177.12 102.04 177.08
  L 96.53 176.95
  Q 95.23 176.34 95.14 174.99
  Q 94.22 161.23 94.73 150.02
  Q 94.75 149.53 95.24 149.52
  Q 106.09 149.44 116.80 149.43
  C 123.77 149.42 126.76 148.83 130.50 154.24
  Z"
/>
<path fill="#ffffff" d="
  M 165.10 152.74
  Q 165.61 154.32 165.13 155.43
  Q 164.89 155.97 164.31 155.97
  L 155.26 155.97
  A 0.78 0.77 0.0 0 0 154.48 156.74
  L 154.51 175.54
  Q 154.51 177.03 153.03 177.01
  L 148.21 176.96
  L 145.78 176.37
  Q 145.24 176.23 145.22 175.69
  L 144.57 158.79
  Q 144.79 157.66 144.34 156.59
  Q 144.14 156.11 143.63 156.09
  L 137.54 155.84
  L 134.88 155.40
  Q 134.30 155.31 134.27 154.72
  L 133.98 150.25
  Q 133.93 149.43 134.75 149.43
  L 164.01 149.40
  Q 164.53 149.40 164.71 149.89
  Q 165.18 151.18 165.10 152.74
  Z"
/>
<path fill="#ffffff" d="
  M 237.17 154.57
  C 238.58 159.37 236.79 161.20 235.52 165.01
  Q 235.36 165.48 235.48 165.95
  Q 236.66 170.57 236.21 175.79
  A 1.36 1.35 -88.3 0 1 234.91 177.02
  L 231.73 177.12
  L 229.24 176.29
  Q 228.76 176.13 228.66 175.64
  L 227.96 172.16
  Q 228.04 169.54 225.00 169.54
  C 221.84 169.55 218.78 169.40 215.74 169.59
  C 212.63 169.78 213.01 173.46 213.00 175.66
  A 1.34 1.34 0.0 0 1 211.72 176.99
  L 206.51 177.23
  Q 204.23 176.62 204.13 174.38
  Q 203.62 162.34 203.81 149.84
  Q 203.82 149.32 204.34 149.32
  Q 217.73 149.39 230.08 149.38
  C 233.24 149.37 235.50 152.28 237.17 154.57
  Z
  M 217.47 162.61
  Q 221.21 162.85 225.00 162.96
  Q 228.53 163.06 228.16 159.38
  Q 228.32 157.62 226.87 156.33
  A 1.44 1.41 -23.9 0 0 225.93 155.98
  Q 221.10 156.01 215.87 155.95
  C 213.41 155.91 212.96 158.30 213.33 160.30
  Q 213.84 163.15 217.47 162.61
  Z"
/>
<path fill="#ffffff" d="
  M 271.89 152.98
  Q 272.27 154.37 271.78 155.44
  Q 271.54 155.95 270.98 155.95
  L 261.74 155.97
  A 0.79 0.79 0.0 0 0 260.95 156.76
  L 260.94 175.75
  A 1.21 1.21 0.0 0 1 259.74 176.96
  L 255.73 177.03
  L 253.22 176.61
  A 1.37 1.36 3.8 0 1 252.07 175.30
  L 251.66 159.58
  Q 251.90 157.67 250.98 156.45
  A 0.98 0.97 -17.7 0 0 250.19 156.05
  L 244.92 156.01
  L 242.12 155.58
  A 1.62 1.61 -86.1 0 1 240.74 153.99
  L 240.71 150.24
  Q 240.70 149.43 241.51 149.43
  L 270.94 149.42
  A 0.69 0.68 87.2 0 1 271.62 150.04
  L 271.89 152.98
  Z"
/>
<path fill="#ffffff" d="
  M 308.18 154.09
  Q 309.49 164.09 308.97 175.39
  A 1.62 1.61 89.2 0 1 307.49 176.92
  L 303.22 177.25
  L 300.26 176.32
  Q 299.78 176.16 299.71 175.67
  L 299.17 172.06
  L 298.98 170.09
  Q 298.92 169.50 298.33 169.50
  L 285.00 169.50
  A 0.75 0.74 90.0 0 0 284.26 170.25
  L 284.26 175.79
  A 1.13 1.13 0.0 0 1 283.14 176.92
  L 279.24 176.98
  L 275.55 176.40
  Q 275.04 176.32 275.03 175.79
  L 274.80 158.40
  L 275.17 155.32
  Q 276.91 151.98 278.72 150.44
  Q 279.72 149.59 281.75 149.59
  Q 291.71 149.60 301.66 149.31
  Q 304.20 149.23 308.18 154.09
  Z
  M 287.46 162.76
  L 298.37 162.88
  A 1.11 1.10 86.4 0 0 299.48 161.62
  L 299.14 159.10
  Q 299.30 157.57 298.06 156.32
  Q 297.70 155.95 297.19 155.95
  L 286.30 155.98
  A 1.86 1.85 -88.0 0 0 284.45 157.71
  L 284.16 161.87
  Q 284.12 162.53 284.76 162.66
  Q 286.12 162.94 287.46 162.76
  Z"
/>
<path fill="#ffffff" d="
  M 323.48 152.55
  Q 323.51 163.39 323.85 174.24
  Q 323.95 177.31 321.03 177.18
  Q 318.54 177.06 316.34 176.97
  Q 315.47 176.79 314.85 176.34
  Q 314.46 176.06 314.45 175.58
  L 314.02 150.37
  Q 314.01 149.50 314.88 149.49
  L 322.23 149.38
  Q 323.03 149.36 323.15 150.16
  L 323.48 152.55
  Z"
/>
<path fill="#ffffff" d="
  M 363.84 154.61
  L 363.87 175.63
  Q 363.87 176.98 362.52 176.98
  L 358.21 177.00
  Q 356.57 177.06 355.60 176.19
  Q 355.22 175.85 355.20 175.35
  L 354.51 158.81
  Q 354.48 157.47 353.65 156.62
  Q 352.98 155.93 352.03 155.94
  Q 345.36 155.96 339.35 155.96
  A 2.35 2.35 0.0 0 0 337.00 158.31
  L 337.01 175.27
  A 1.71 1.71 0.0 0 1 335.32 176.98
  L 329.73 177.03
  Q 327.55 176.77 327.58 174.76
  Q 327.79 162.85 327.68 150.43
  Q 327.67 149.39 328.70 149.40
  Q 341.49 149.53 355.50 149.44
  C 359.80 149.41 361.44 151.84 363.84 154.61
  Z"
/>
<path fill="#ffffff" d="
  M 415.33 154.69
  L 415.52 175.94
  A 1.00 1.00 0.0 0 1 414.53 176.95
  L 410.25 176.98
  L 407.11 176.38
  Q 406.58 176.28 406.57 175.74
  L 406.15 158.62
  Q 405.77 156.09 403.99 156.00
  Q 401.52 155.88 399.17 155.97
  A 2.10 2.10 0.0 0 0 397.15 158.07
  L 397.16 175.50
  A 1.50 1.50 0.0 0 1 395.66 177.00
  L 391.23 176.99
  Q 389.89 176.95 388.70 176.45
  Q 388.23 176.25 388.21 175.73
  L 387.67 158.63
  Q 387.42 157.47 386.78 156.72
  Q 386.11 155.92 385.01 155.91
  Q 382.78 155.89 380.83 156.01
  A 2.24 2.23 -1.8 0 0 378.73 158.24
  L 378.73 175.26
  Q 378.73 177.03 376.97 177.03
  L 371.78 177.02
  Q 369.77 176.84 369.75 175.50
  Q 369.60 162.25 369.57 150.18
  Q 369.57 149.40 370.35 149.41
  Q 388.47 149.54 406.77 149.43
  Q 411.89 149.39 415.33 154.69
  Z"
/>
<path fill="#ffffff" d="
  M 491.19 154.41
  L 491.47 174.99
  Q 491.50 177.09 489.41 177.10
  L 485.25 177.12
  L 483.00 176.29
  Q 482.55 176.12 482.54 175.63
  L 482.17 158.70
  Q 481.95 157.40 481.16 156.62
  Q 480.48 155.95 479.56 155.95
  Q 473.55 155.97 467.26 155.96
  Q 464.39 155.95 464.39 158.82
  L 464.37 175.14
  Q 464.37 177.05 462.46 177.04
  L 458.38 177.00
  C 457.08 176.88 455.74 176.38 455.71 174.94
  Q 455.55 166.56 455.36 158.06
  Q 455.26 153.88 455.60 149.90
  Q 455.65 149.36 456.19 149.36
  Q 470.05 149.51 483.63 149.37
  Q 487.78 149.33 491.19 154.41
  Z"
/>
<path fill="#ffffff" d="
  M 527.26 151.96
  L 527.40 154.69
  A 1.21 1.21 0.0 0 1 526.19 155.97
  L 517.25 155.98
  A 1.27 1.27 0.0 0 0 515.98 157.25
  L 515.95 175.84
  A 1.22 1.22 0.0 0 1 514.68 177.06
  L 509.35 176.83
  Q 507.30 176.47 507.25 174.25
  Q 507.06 166.68 506.81 159.30
  Q 506.76 157.71 506.27 156.58
  Q 506.07 156.10 505.54 156.10
  L 499.65 156.06
  Q 498.18 155.47 497.09 155.56
  Q 495.98 155.65 495.94 154.54
  L 495.78 150.48
  Q 495.74 149.45 496.76 149.45
  Q 510.95 149.37 525.36 149.54
  Q 526.11 149.55 526.55 150.19
  Q 527.01 150.83 527.26 151.96
  Z"
/>
<path fill="#000000" fill-opacity="0.992" d="
  M 198.21 151.73
  Q 201.74 153.57 200.29 157.64
  Q 199.92 158.67 198.82 158.60
  Q 189.00 157.97 179.12 159.63
  Q 177.82 160.47 176.56 158.76
  A 1.76 1.76 0.0 0 1 177.98 155.95
  L 197.23 155.97
  A 0.98 0.98 0.0 0 0 198.22 154.99
  L 198.21 151.73
  Z"
/>
<path fill="#000000" fill-opacity="0.992" d="
  M 527.26 151.96
  Q 530.89 153.41 529.83 158.19
  Q 529.69 158.81 529.06 158.80
  L 521.02 158.75
  Q 518.53 158.74 518.56 161.23
  L 518.81 178.79
  Q 518.82 179.42 518.20 179.56
  Q 511.75 180.99 509.35 176.83
  L 514.68 177.06
  A 1.22 1.22 0.0 0 0 515.95 175.84
  L 515.98 157.25
  A 1.27 1.27 0.0 0 1 517.25 155.98
  L 526.19 155.97
  A 1.21 1.21 0.0 0 0 527.40 154.69
  L 527.26 151.96
  Z"
/>
<path fill="#000000" fill-opacity="0.992" d="
  M 89.01 152.35
  Q 93.02 152.42 91.41 157.73
  Q 91.12 158.71 90.10 158.61
  Q 80.05 157.68 69.87 159.63
  Q 69.11 160.50 67.74 159.06
  A 1.85 1.84 -21.8 0 1 69.08 155.94
  L 87.79 155.98
  A 1.29 1.29 0.0 0 0 89.08 154.65
  L 89.01 152.35
  Z"
/>
<path fill="#000000" fill-opacity="0.992" d="
  M 323.48 152.55
  Q 324.14 153.31 324.90 153.18
  A 1.20 1.20 0.0 0 1 326.29 154.40
  Q 325.89 166.69 326.50 178.22
  A 0.89 0.88 81.8 0 1 325.82 179.13
  Q 322.30 179.97 318.72 179.50
  Q 317.23 179.31 316.34 176.97
  Q 318.54 177.06 321.03 177.18
  Q 323.95 177.31 323.85 174.24
  Q 323.51 163.39 323.48 152.55
  Z"
/>
<path fill="#000000" fill-opacity="0.992" d="
  M 450.90 152.57
  Q 455.41 152.25 453.64 157.43
  A 1.91 1.90 -79.5 0 1 451.77 158.72
  Q 442.88 158.38 434.76 158.45
  Q 432.26 158.47 432.01 160.12
  Q 428.36 159.32 429.17 156.92
  A 1.43 1.42 -80.6 0 1 430.52 155.95
  L 449.81 155.97
  Q 450.37 155.97 450.64 155.48
  Q 451.28 154.33 450.90 152.57
  Z"
/>
<path fill="#000000" fill-opacity="0.992" d="
  M 165.10 152.74
  L 167.35 153.60
  Q 167.89 153.80 167.87 154.38
  C 167.79 156.25 168.34 158.69 165.60 158.77
  Q 162.33 158.85 158.73 158.74
  A 1.69 1.68 -89.0 0 0 156.99 160.43
  L 157.04 178.97
  Q 157.04 179.49 156.53 179.57
  Q 152.28 180.21 149.17 179.15
  Q 147.76 178.66 148.21 176.96
  L 153.03 177.01
  Q 154.51 177.03 154.51 175.54
  L 154.48 156.74
  A 0.78 0.77 0.0 0 1 155.26 155.97
  L 164.31 155.97
  Q 164.89 155.97 165.13 155.43
  Q 165.61 154.32 165.10 152.74
  Z"
/>
<path fill="#000000" fill-opacity="0.992" d="
  M 271.89 152.98
  L 273.58 153.00
  Q 274.11 153.00 274.32 153.48
  L 275.17 155.32
  L 274.80 158.40
  L 265.44 158.77
  Q 263.82 158.83 263.82 160.45
  L 263.86 179.15
  Q 263.86 179.72 263.29 179.74
  Q 259.70 179.88 256.27 179.54
  A 1.13 1.12 14.1 0 1 255.34 177.99
  L 255.73 177.03
  L 259.74 176.96
  A 1.21 1.21 0.0 0 0 260.94 175.75
  L 260.95 156.76
  A 0.79 0.79 0.0 0 1 261.74 155.97
  L 270.98 155.95
  Q 271.54 155.95 271.78 155.44
  Q 272.27 154.37 271.89 152.98
  Z"
/>
<path fill="#000000" fill-opacity="0.992" d="
  M 308.18 154.09
  Q 309.95 155.57 310.93 157.99
  Q 311.69 159.85 311.63 162.19
  Q 311.40 169.95 311.59 177.73
  A 1.56 1.55 -6.2 0 1 310.33 179.29
  Q 304.53 180.39 303.22 177.25
  L 307.49 176.92
  A 1.62 1.61 89.2 0 0 308.97 175.39
  Q 309.49 164.09 308.18 154.09
  Z"
/>
<path fill="#000000" fill-opacity="0.992" d="
  M 130.50 154.24
  Q 133.64 156.65 133.65 159.98
  Q 133.67 166.52 134.08 173.97
  Q 134.17 175.48 133.39 178.76
  Q 133.27 179.26 132.77 179.39
  Q 126.82 180.88 124.78 177.10
  L 129.38 177.03
  A 1.55 1.55 0.0 0 0 130.90 175.45
  L 130.50 154.24
  Z"
/>
<path fill="#000000" fill-opacity="0.992" d="
  M 491.19 154.41
  Q 492.59 155.38 493.49 157.00
  Q 494.17 158.21 494.22 159.63
  Q 494.48 167.46 494.59 174.16
  Q 494.63 176.33 494.21 178.88
  Q 494.12 179.37 493.64 179.48
  Q 487.24 180.94 485.25 177.12
  L 489.41 177.10
  Q 491.50 177.09 491.47 174.99
  L 491.19 154.41
  Z"
/>
<path fill="#000000" fill-opacity="0.992" d="
  M 237.17 154.57
  Q 242.36 158.76 239.88 164.58
  C 239.06 166.51 238.02 167.97 238.62 170.30
  Q 239.61 174.16 239.16 178.94
  Q 239.12 179.42 238.66 179.51
  Q 232.08 180.83 231.73 177.12
  L 234.91 177.02
  A 1.36 1.35 -88.3 0 0 236.21 175.79
  Q 236.66 170.57 235.48 165.95
  Q 235.36 165.48 235.52 165.01
  C 236.79 161.20 238.58 159.37 237.17 154.57
  Z"
/>
<path fill="#000000" fill-opacity="0.992" d="
  M 363.84 154.61
  Q 366.71 156.60 366.83 159.51
  Q 367.01 163.77 366.51 178.50
  Q 366.49 179.01 366.00 179.14
  Q 362.39 180.09 359.27 178.95
  Q 357.79 178.41 358.21 177.00
  L 362.52 176.98
  Q 363.87 176.98 363.87 175.63
  L 363.84 154.61
  Z"
/>
<path fill="#000000" fill-opacity="0.992" d="
  M 415.33 154.69
  Q 418.43 156.78 418.29 160.78
  C 418.07 166.90 418.27 173.11 418.26 179.25
  Q 418.26 179.80 417.71 179.79
  L 410.33 179.69
  A 0.77 0.76 79.4 0 1 409.64 179.21
  Q 409.14 178.00 410.25 176.98
  L 414.53 176.95
  A 1.00 1.00 0.0 0 0 415.52 175.94
  L 415.33 154.69
  Z"
/>
<path fill="#000000" fill-opacity="0.992" d="
  M 137.54 155.84
  L 143.63 156.09
  Q 144.14 156.11 144.34 156.59
  Q 144.79 157.66 144.57 158.79
  L 138.06 158.70
  A 0.40 0.39 6.1 0 1 137.68 158.23
  Q 137.99 156.69 137.54 155.84
  Z"
/>
<path fill="#000000" fill-opacity="0.992" d="
  M 121.63 158.91
  Q 116.02 158.56 110.22 158.82
  Q 106.31 159.00 106.48 162.32
  Q 106.89 170.14 106.65 178.71
  Q 106.63 179.27 106.08 179.40
  Q 99.33 181.00 96.53 176.95
  L 102.04 177.08
  Q 103.93 177.12 103.93 175.23
  L 103.96 158.27
  A 2.30 2.30 0.0 0 1 106.26 155.98
  Q 112.05 155.98 118.83 155.94
  Q 119.83 155.94 120.55 156.59
  Q 121.44 157.40 121.63 158.91
  Z"
/>
<path fill="#000000" fill-opacity="0.992" d="
  M 228.16 159.38
  Q 223.07 158.01 216.93 159.51
  A 1.12 1.10 6.5 0 0 216.21 160.07
  Q 215.12 162.12 217.47 162.61
  Q 213.84 163.15 213.33 160.30
  C 212.96 158.30 213.41 155.91 215.87 155.95
  Q 221.10 156.01 225.93 155.98
  A 1.44 1.41 -23.9 0 1 226.87 156.33
  Q 228.32 157.62 228.16 159.38
  Z"
/>
<path fill="#000000" fill-opacity="0.992" d="
  M 244.92 156.01
  L 250.19 156.05
  A 0.98 0.97 -17.7 0 1 250.98 156.45
  Q 251.90 157.67 251.66 159.58
  L 251.23 158.86
  Q 250.95 158.39 250.41 158.50
  Q 242.65 160.06 244.92 156.01
  Z"
/>
<path fill="#000000" fill-opacity="0.992" d="
  M 299.14 159.10
  Q 295.67 158.73 291.80 158.97
  C 289.99 159.08 288.34 158.75 287.20 160.47
  Q 286.25 161.90 287.46 162.76
  Q 286.12 162.94 284.76 162.66
  Q 284.12 162.53 284.16 161.87
  L 284.45 157.71
  A 1.86 1.85 -88.0 0 1 286.30 155.98
  L 297.19 155.95
  Q 297.70 155.95 298.06 156.32
  Q 299.30 157.57 299.14 159.10
  Z"
/>
<path fill="#000000" fill-opacity="0.992" d="
  M 354.51 158.81
  L 342.03 158.95
  Q 339.79 158.97 339.80 161.22
  L 339.91 178.31
  Q 339.91 179.19 339.04 179.34
  Q 335.35 179.93 331.25 179.27
  A 0.92 0.91 4.9 0 1 330.48 178.37
  Q 330.47 177.64 329.73 177.03
  L 335.32 176.98
  A 1.71 1.71 0.0 0 0 337.01 175.27
  L 337.00 158.31
  A 2.35 2.35 0.0 0 1 339.35 155.96
  Q 345.36 155.96 352.03 155.94
  Q 352.98 155.93 353.65 156.62
  Q 354.48 157.47 354.51 158.81
  Z"
/>
<path fill="#000000" fill-opacity="0.992" d="
  M 387.67 158.63
  L 383.31 158.98
  Q 382.81 159.02 382.48 159.40
  Q 381.53 160.50 381.50 162.00
  Q 381.36 168.82 381.78 175.25
  Q 381.85 176.28 381.32 178.72
  Q 381.21 179.22 380.71 179.32
  Q 377.89 179.82 374.49 179.42
  Q 372.37 179.17 371.78 177.02
  L 376.97 177.03
  Q 378.73 177.03 378.73 175.26
  L 378.73 158.24
  A 2.24 2.23 -1.8 0 1 380.83 156.01
  Q 382.78 155.89 385.01 155.91
  Q 386.11 155.92 386.78 156.72
  Q 387.42 157.47 387.67 158.63
  Z"
/>
<path fill="#000000" fill-opacity="0.992" d="
  M 406.15 158.62
  Q 403.47 158.44 401.18 159.29
  Q 400.71 159.47 400.48 159.92
  Q 399.78 161.27 399.80 162.76
  Q 399.94 170.65 400.01 179.03
  Q 400.01 179.61 399.43 179.66
  Q 395.96 179.91 392.24 179.32
  Q 390.52 179.05 391.23 176.99
  L 395.66 177.00
  A 1.50 1.50 0.0 0 0 397.16 175.50
  L 397.15 158.07
  A 2.10 2.10 0.0 0 1 399.17 155.97
  Q 401.52 155.88 403.99 156.00
  Q 405.77 156.09 406.15 158.62
  Z"
/>
<path fill="#000000" fill-opacity="0.992" d="
  M 482.17 158.70
  L 469.45 158.99
  A 2.24 2.24 0.0 0 0 467.26 161.23
  L 467.30 178.98
  Q 467.30 179.69 466.60 179.68
  C 464.67 179.65 461.96 180.00 460.17 179.53
  Q 458.60 179.11 458.38 177.00
  L 462.46 177.04
  Q 464.37 177.05 464.37 175.14
  L 464.39 158.82
  Q 464.39 155.95 467.26 155.96
  Q 473.55 155.97 479.56 155.95
  Q 480.48 155.95 481.16 156.62
  Q 481.95 157.40 482.17 158.70
  Z"
/>
<path fill="#000000" fill-opacity="0.992" d="
  M 499.65 156.06
  L 505.54 156.10
  Q 506.07 156.10 506.27 156.58
  Q 506.76 157.71 506.81 159.30
  Q 506.44 158.93 506.13 158.74
  Q 505.83 158.55 505.32 158.64
  Q 497.90 159.90 499.65 156.06
  Z"
/>
<path fill="#000000" fill-opacity="0.992" d="
  M 197.17 161.77
  Q 201.17 165.16 198.82 168.77
  Q 198.55 169.19 198.06 169.11
  Q 188.62 167.72 179.14 169.69
  Q 177.24 170.80 176.38 168.80
  A 1.85 1.85 0.0 0 1 178.08 166.22
  L 195.76 166.25
  Q 196.27 166.26 196.59 165.87
  Q 197.92 164.26 197.17 161.77
  Z"
/>
<path fill="#000000" fill-opacity="0.992" d="
  M 88.02 162.30
  Q 92.75 164.52 89.53 169.29
  Q 89.25 169.71 88.77 169.54
  Q 86.79 168.86 83.38 168.66
  Q 75.65 168.23 70.16 169.85
  Q 67.74 170.75 67.24 168.44
  A 1.81 1.81 0.0 0 1 69.01 166.24
  L 86.62 166.22
  A 1.37 1.37 0.0 0 0 87.99 164.86
  L 88.02 162.30
  Z"
/>
<path fill="#000000" fill-opacity="0.992" d="
  M 431.71 169.69
  Q 430.05 170.64 429.28 168.90
  A 1.92 1.92 0.0 0 1 431.05 166.19
  Q 438.88 166.25 447.15 166.25
  Q 448.26 166.25 449.28 165.78
  Q 449.77 165.56 449.78 165.03
  L 449.82 163.75
  Q 454.10 162.79 451.77 168.62
  Q 451.58 169.09 451.08 169.02
  Q 441.38 167.78 431.71 169.69
  Z"
/>
<path fill="#000000" fill-opacity="0.992" d="
  M 227.96 172.16
  Q 224.03 172.13 220.00 172.19
  Q 218.31 172.21 216.67 172.77
  Q 216.20 172.93 216.15 173.42
  L 215.66 178.88
  A 0.64 0.63 -3.0 0 1 215.14 179.45
  Q 208.44 180.77 206.51 177.23
  L 211.72 176.99
  A 1.34 1.34 0.0 0 0 213.00 175.66
  C 213.01 173.46 212.63 169.78 215.74 169.59
  C 218.78 169.40 221.84 169.55 225.00 169.54
  Q 228.04 169.54 227.96 172.16
  Z"
/>
<path fill="#000000" fill-opacity="0.992" d="
  M 299.17 172.06
  L 287.88 172.14
  A 0.93 0.93 0.0 0 0 286.95 173.03
  L 286.73 178.46
  Q 286.71 179.05 286.13 179.18
  Q 283.09 179.87 279.73 179.18
  A 0.88 0.86 4.1 0 1 279.04 178.40
  Q 278.98 177.71 279.24 176.98
  L 283.14 176.92
  A 1.13 1.13 0.0 0 0 284.26 175.79
  L 284.26 170.25
  A 0.75 0.74 90.0 0 1 285.00 169.50
  L 298.33 169.50
  Q 298.92 169.50 298.98 170.09
  L 299.17 172.06
  Z"
/>
<path fill="#000000" fill-opacity="0.992" d="
  M 198.27 171.52
  C 198.89 173.15 200.27 173.81 200.74 175.28
  Q 201.17 176.59 200.94 178.00
  Q 200.71 179.41 199.28 179.49
  Q 189.55 180.03 180.01 179.80
  Q 174.94 179.69 172.48 176.45
  Q 183.90 177.43 197.18 176.96
  Q 198.05 176.93 198.24 176.08
  Q 198.72 174.03 198.27 171.52
  Z"
/>
<path fill="#000000" fill-opacity="0.992" d="
  M 89.26 172.05
  L 91.04 173.82
  Q 91.40 174.17 91.56 174.65
  Q 92.20 176.52 91.78 178.73
  A 0.94 0.93 -86.5 0 1 90.91 179.50
  Q 80.22 180.13 69.75 179.80
  Q 65.61 179.67 63.44 176.54
  L 87.61 177.01
  Q 89.13 177.04 89.17 175.52
  L 89.26 172.05
  Z"
/>
<path fill="#000000" fill-opacity="0.992" d="
  M 451.02 173.21
  Q 454.87 173.92 453.55 178.97
  Q 453.43 179.46 452.92 179.49
  Q 440.40 180.40 431.25 179.77
  Q 427.29 179.49 425.40 176.58
  L 449.98 176.98
  A 0.85 0.85 0.0 0 0 450.84 176.18
  L 451.02 173.21
  Z"
/>
<path fill="#ffffff" d="
  M 213.99 189.28
  L 213.96 192.06
  A 0.84 0.84 0.0 0 1 213.12 192.90
  L 191.64 192.89
  A 1.79 1.78 -18.9 0 0 190.23 195.77
  Q 191.26 197.11 193.19 197.05
  Q 198.44 197.15 203.67 197.14
  Q 207.56 197.13 209.43 198.05
  Q 212.08 199.34 213.96 202.12
  Q 214.63 205.83 214.22 207.51
  C 213.58 210.17 210.82 212.02 208.49 213.15
  Q 206.93 213.90 204.50 213.92
  Q 195.23 213.98 185.95 213.89
  Q 184.03 213.28 182.88 213.48
  Q 181.74 213.68 181.74 212.52
  L 181.74 207.87
  Q 181.74 206.70 182.92 206.70
  Q 193.08 206.76 204.25 206.74
  Q 205.19 206.74 205.52 205.81
  Q 206.65 205.18 205.61 203.50
  A 2.04 2.02 -15.1 0 0 203.91 202.53
  L 187.01 202.17
  Q 179.31 196.97 182.30 190.74
  C 183.69 187.85 187.69 185.94 191.14 185.95
  Q 202.83 185.98 213.00 185.90
  Q 213.57 185.90 213.64 186.46
  L 213.99 189.28
  Z"
/>
<path fill="#ffffff" d="
  M 249.82 189.53
  C 249.98 192.89 250.62 198.30 249.08 200.92
  C 246.52 205.28 242.92 205.27 238.43 204.83
  Q 237.76 204.77 237.76 205.43
  L 237.76 212.51
  A 1.47 1.47 0.0 0 1 236.21 213.98
  L 232.01 213.77
  L 228.87 213.23
  Q 228.40 213.15 228.36 212.67
  L 227.98 207.74
  Q 228.17 206.30 227.71 205.35
  Q 227.49 204.91 227.00 204.90
  L 221.09 204.79
  Q 215.85 201.30 215.72 195.90
  L 215.76 188.95
  L 215.96 186.74
  Q 216.04 185.95 216.84 185.96
  L 224.16 186.09
  Q 224.96 186.11 225.07 186.91
  L 225.41 189.49
  Q 225.68 192.63 225.68 195.80
  Q 225.69 197.96 228.15 198.11
  L 238.31 198.26
  A 2.40 2.40 0.0 0 0 240.74 195.87
  L 240.75 186.71
  A 0.79 0.78 -0.0 0 1 241.54 185.93
  L 248.52 186.01
  Q 249.43 186.02 249.32 186.92
  Q 249.20 187.83 249.82 189.53
  Z"
/>
<path fill="#ffffff" d="
  M 319.81 188.48
  L 319.88 190.99
  A 1.86 1.86 0.0 0 1 318.02 192.91
  L 309.58 192.91
  Q 308.99 192.91 308.99 193.50
  C 308.93 199.49 308.63 205.84 309.00 211.92
  Q 309.12 213.84 307.27 213.97
  Q 305.59 214.09 303.02 213.79
  L 300.07 213.40
  Q 299.58 213.33 299.57 212.83
  L 299.11 195.82
  L 298.96 193.53
  Q 298.93 193.00 298.40 192.99
  L 291.92 192.85
  L 288.67 192.42
  Q 287.91 191.12 288.26 188.40
  Q 288.10 187.31 288.52 186.59
  A 0.94 0.92 -75.5 0 1 289.28 186.13
  Q 304.12 185.60 318.96 186.30
  Q 319.51 186.33 319.58 186.87
  L 319.81 188.48
  Z"
/>
<path fill="#ffffff" d="
  M 352.91 188.28
  L 352.86 191.17
  A 1.58 1.57 89.0 0 1 351.38 192.71
  Q 343.44 193.13 335.80 192.89
  Q 333.99 192.84 332.08 193.08
  A 1.40 1.40 0.0 0 0 331.35 195.53
  Q 332.99 196.94 334.08 196.21
  Q 341.06 197.05 348.63 196.87
  Q 351.01 196.82 351.81 198.44
  C 352.22 200.33 352.00 202.99 349.62 202.99
  Q 341.21 202.99 332.99 203.00
  Q 330.99 203.00 330.88 204.96
  A 1.02 1.01 14.1 0 0 331.47 205.94
  Q 333.21 206.73 334.06 206.34
  L 351.69 206.88
  Q 352.20 206.90 352.48 207.33
  Q 353.06 208.23 353.18 209.60
  L 353.00 212.70
  A 1.29 1.28 -87.4 0 1 351.69 213.91
  L 327.23 213.44
  Q 326.29 212.29 324.70 211.05
  Q 323.04 209.74 323.04 207.25
  Q 323.05 201.70 322.83 195.47
  L 322.66 188.01
  L 323.00 186.55
  Q 323.12 186.01 323.68 186.00
  C 331.89 185.75 340.11 185.97 348.31 185.70
  Q 352.67 185.56 352.91 188.28
  Z"
/>
<path fill="#ffffff" d="
  M 404.26 191.13
  L 404.70 212.45
  A 1.48 1.48 0.0 0 1 403.16 213.97
  L 398.76 213.79
  L 396.34 213.48
  Q 395.24 213.34 395.22 212.23
  L 395.03 196.22
  Q 395.21 195.02 394.44 193.69
  A 1.51 1.49 -10.2 0 0 393.41 192.98
  Q 390.50 192.50 387.37 193.10
  A 1.77 1.77 0.0 0 0 385.93 194.84
  L 385.96 212.47
  A 1.48 1.47 -89.6 0 1 384.47 213.95
  L 379.55 213.90
  Q 378.29 213.70 377.49 213.29
  Q 377.04 213.06 377.02 212.56
  L 376.33 196.03
  Q 376.76 191.31 368.91 193.17
  A 1.51 1.49 84.7 0 0 367.76 194.57
  Q 367.47 201.23 367.74 208.95
  Q 367.82 211.00 367.45 213.08
  A 1.01 1.01 0.0 0 1 366.41 213.92
  L 359.05 213.65
  L 357.83 186.59
  A 0.75 0.75 0.0 0 1 358.62 185.81
  Q 365.43 186.23 372.83 185.99
  C 378.66 185.80 384.25 186.30 389.94 186.02
  C 396.17 185.70 400.36 185.75 404.26 191.13
  Z"
/>
<path fill="#ffffff" d="
  M 285.31 187.96
  L 285.58 191.27
  A 1.52 1.52 0.0 0 1 284.06 192.90
  Q 273.98 192.84 262.99 192.88
  Q 261.95 192.88 261.30 193.66
  A 1.60 1.60 0.0 0 0 261.62 196.02
  Q 263.15 197.05 264.43 197.03
  Q 269.37 197.15 274.28 197.14
  Q 278.43 197.13 280.36 198.00
  Q 283.27 199.32 285.16 202.25
  Q 286.86 208.22 282.60 211.57
  Q 279.69 213.85 274.76 213.92
  Q 265.84 214.04 256.96 213.85
  L 253.93 213.41
  A 0.99 0.99 0.0 0 1 253.08 212.43
  L 253.10 207.69
  A 0.97 0.96 -89.7 0 1 254.06 206.73
  Q 264.48 206.72 275.22 206.75
  C 276.08 206.75 276.94 206.13 276.98 205.22
  C 277.53 202.95 275.69 202.52 273.88 202.55
  Q 265.82 202.66 258.05 202.22
  C 256.03 200.49 252.78 197.95 252.84 195.29
  C 252.88 193.35 252.62 191.18 254.13 189.65
  C 256.46 187.30 258.93 185.92 262.27 185.95
  Q 273.72 186.04 284.26 185.98
  Q 284.81 185.98 284.95 186.51
  L 285.31 187.96
  Z"
/>
<path fill="#000000" fill-opacity="0.992" d="
  M 285.31 187.96
  Q 285.77 189.53 286.83 189.81
  Q 287.33 189.95 287.59 189.51
  L 288.26 188.40
  Q 287.91 191.12 288.67 192.42
  Q 288.16 192.92 288.20 193.51
  Q 288.27 194.53 288.11 195.29
  Q 288.01 195.80 287.49 195.78
  Q 281.11 195.58 266.51 195.49
  Q 264.12 195.48 264.43 197.03
  Q 263.15 197.05 261.62 196.02
  A 1.60 1.60 0.0 0 1 261.30 193.66
  Q 261.95 192.88 262.99 192.88
  Q 273.98 192.84 284.06 192.90
  A 1.52 1.52 0.0 0 0 285.58 191.27
  L 285.31 187.96
  Z"
/>
<path fill="#000000" fill-opacity="0.992" d="
  M 322.66 188.01
  L 322.83 195.47
  L 312.46 195.58
  A 0.91 0.91 0.0 0 0 311.56 196.50
  L 311.71 215.05
  Q 311.71 215.67 311.09 215.71
  C 308.90 215.83 306.81 215.60 304.62 215.55
  Q 303.07 215.51 303.02 213.79
  Q 305.59 214.09 307.27 213.97
  Q 309.12 213.84 309.00 211.92
  C 308.63 205.84 308.93 199.49 308.99 193.50
  Q 308.99 192.91 309.58 192.91
  L 318.02 192.91
  A 1.86 1.86 0.0 0 0 319.88 190.99
  L 319.81 188.48
  Q 320.35 189.84 321.81 189.99
  Q 322.27 190.03 322.36 189.58
  L 322.66 188.01
  Z"
/>
<path fill="#000000" fill-opacity="0.992" d="
  M 352.91 188.28
  Q 355.82 190.73 355.16 194.03
  Q 354.82 195.78 352.74 195.75
  C 351.35 195.73 350.11 195.24 348.73 195.17
  Q 341.37 194.80 334.08 196.21
  Q 332.99 196.94 331.35 195.53
  A 1.40 1.40 0.0 0 1 332.08 193.08
  Q 333.99 192.84 335.80 192.89
  Q 343.44 193.13 351.38 192.71
  A 1.58 1.57 89.0 0 0 352.86 191.17
  L 352.91 188.28
  Z"
/>
<path fill="#000000" fill-opacity="0.992" d="
  M 215.76 188.95
  L 215.72 195.90
  Q 215.14 195.26 213.55 195.53
  Q 212.21 195.75 211.43 195.71
  Q 203.09 195.32 194.76 195.59
  Q 193.12 195.64 193.19 197.05
  Q 191.26 197.11 190.23 195.77
  A 1.79 1.78 -18.9 0 1 191.64 192.89
  L 213.12 192.90
  A 0.84 0.84 0.0 0 0 213.96 192.06
  L 213.99 189.28
  L 214.67 189.64
  Q 215.09 189.86 215.38 189.48
  L 215.76 188.95
  Z"
/>
<path fill="#000000" fill-opacity="0.992" d="
  M 225.41 189.49
  Q 226.19 189.95 226.87 189.60
  A 0.99 0.99 0.0 0 1 228.31 190.50
  L 228.15 198.11
  Q 225.69 197.96 225.68 195.80
  Q 225.68 192.63 225.41 189.49
  Z"
/>
<path fill="#000000" fill-opacity="0.992" d="
  M 249.82 189.53
  L 251.34 189.63
  A 1.29 1.26 -18.5 0 1 252.23 190.06
  Q 253.03 190.95 252.34 192.08
  Q 252.07 192.50 252.08 193.00
  C 252.13 194.66 251.94 196.50 252.38 198.10
  Q 253.77 203.27 249.74 206.50
  C 247.45 208.33 244.47 207.86 241.77 207.76
  A 1.44 1.43 -1.1 0 0 240.29 209.29
  L 240.74 215.19
  A 0.58 0.58 0.0 0 1 240.15 215.81
  Q 236.88 215.74 232.88 215.68
  Q 232.26 215.67 232.04 215.16
  Q 231.83 214.67 232.01 213.77
  L 236.21 213.98
  A 1.47 1.47 0.0 0 0 237.76 212.51
  L 237.76 205.43
  Q 237.76 204.77 238.43 204.83
  C 242.92 205.27 246.52 205.28 249.08 200.92
  C 250.62 198.30 249.98 192.89 249.82 189.53
  Z"
/>
<path fill="#000000" fill-opacity="0.992" d="
  M 404.26 191.13
  Q 407.19 193.43 407.23 196.25
  Q 407.35 205.76 407.34 215.23
  A 0.49 0.48 -1.9 0 1 406.88 215.71
  C 404.65 215.81 402.47 215.55 400.17 215.55
  Q 398.58 215.55 398.76 213.79
  L 403.16 213.97
  A 1.48 1.48 0.0 0 0 404.70 212.45
  L 404.26 191.13
  Z"
/>
<path fill="#000000" fill-opacity="0.992" d="
  M 291.92 192.85
  L 298.40 192.99
  Q 298.93 193.00 298.96 193.53
  L 299.11 195.82
  Q 296.23 195.19 292.83 195.67
  A 0.65 0.65 0.0 0 1 292.10 194.92
  Q 292.34 193.46 291.92 192.85
  Z"
/>
<path fill="#000000" fill-opacity="0.992" d="
  M 376.33 196.03
  Q 375.05 195.40 373.69 195.57
  C 371.72 195.83 370.29 195.85 370.43 198.22
  Q 370.91 206.49 370.43 214.76
  Q 370.40 215.27 369.91 215.40
  Q 365.10 216.64 359.05 213.65
  L 366.41 213.92
  A 1.01 1.01 0.0 0 0 367.45 213.08
  Q 367.82 211.00 367.74 208.95
  Q 367.47 201.23 367.76 194.57
  A 1.51 1.49 84.7 0 1 368.91 193.17
  Q 376.76 191.31 376.33 196.03
  Z"
/>
<path fill="#000000" fill-opacity="0.992" d="
  M 395.03 196.22
  Q 388.74 193.55 388.62 199.75
  Q 388.47 207.51 388.89 215.11
  A 0.50 0.50 0.0 0 1 388.47 215.64
  Q 382.58 216.67 379.55 213.90
  L 384.47 213.95
  A 1.48 1.47 -89.6 0 0 385.96 212.47
  L 385.93 194.84
  A 1.77 1.77 0.0 0 1 387.37 193.10
  Q 390.50 192.50 393.41 192.98
  A 1.51 1.49 -10.2 0 1 394.44 193.69
  Q 395.21 195.02 395.03 196.22
  Z"
/>
<path fill="#000000" fill-opacity="0.992" d="
  M 351.81 198.44
  Q 355.62 201.08 353.30 205.57
  Q 353.07 206.02 352.57 205.92
  Q 350.85 205.58 347.01 205.23
  Q 339.75 204.56 334.06 206.34
  Q 333.21 206.73 331.47 205.94
  A 1.02 1.01 14.1 0 1 330.88 204.96
  Q 330.99 203.00 332.99 203.00
  Q 341.21 202.99 349.62 202.99
  C 352.00 202.99 352.22 200.33 351.81 198.44
  Z"
/>
<path fill="#000000" fill-opacity="0.992" d="
  M 187.01 202.17
  L 203.91 202.53
  A 2.04 2.02 -15.1 0 1 205.61 203.50
  Q 206.65 205.18 205.52 205.81
  Q 205.46 205.47 205.15 205.25
  Q 204.94 205.11 204.69 205.10
  Q 198.99 204.99 193.26 205.10
  Q 191.40 205.14 189.83 204.43
  Q 187.93 203.57 187.01 202.17
  Z"
/>
<path fill="#000000" fill-opacity="0.992" d="
  M 213.96 202.12
  Q 216.72 203.95 216.97 205.73
  Q 218.45 216.09 208.19 215.90
  Q 197.57 215.70 186.31 215.78
  A 0.92 0.91 74.5 0 1 185.50 215.32
  Q 184.93 214.33 185.95 213.89
  Q 195.23 213.98 204.50 213.92
  Q 206.93 213.90 208.49 213.15
  C 210.82 212.02 213.58 210.17 214.22 207.51
  Q 214.63 205.83 213.96 202.12
  Z"
/>
<path fill="#000000" fill-opacity="0.992" d="
  M 258.05 202.22
  Q 265.82 202.66 273.88 202.55
  C 275.69 202.52 277.53 202.95 276.98 205.22
  Q 270.20 204.91 263.50 205.06
  Q 260.44 205.13 258.05 202.22
  Z"
/>
<path fill="#000000" fill-opacity="0.992" d="
  M 285.16 202.25
  C 286.83 203.68 288.29 205.16 288.30 207.49
  C 288.30 210.93 287.85 213.62 284.24 215.11
  Q 282.42 215.85 280.05 215.83
  Q 268.26 215.73 257.64 215.75
  A 1.02 1.02 0.0 0 1 256.74 214.24
  L 256.96 213.85
  Q 265.84 214.04 274.76 213.92
  Q 279.69 213.85 282.60 211.57
  Q 286.86 208.22 285.16 202.25
  Z"
/>
<path fill="#000000" fill-opacity="0.992" d="
  M 221.09 204.79
  L 227.00 204.90
  Q 227.49 204.91 227.71 205.35
  Q 228.17 206.30 227.98 207.74
  C 226.52 207.58 225.41 208.04 224.08 207.38
  Q 222.21 206.46 221.09 204.79
  Z"
/>
<path fill="#000000" fill-opacity="0.992" d="
  M 353.18 209.60
  Q 356.17 211.10 355.54 214.75
  Q 355.45 215.26 354.97 215.42
  Q 353.80 215.81 352.50 215.81
  Q 341.75 215.80 331.00 215.74
  Q 328.97 215.73 327.23 213.44
  L 351.69 213.91
  A 1.29 1.28 -87.4 0 0 353.00 212.70
  L 353.18 209.60
  Z"
/>
</svg>
