<?xml version="1.0" encoding="UTF-8" standalone="no"?>
<!DOCTYPE svg PUBLIC "-//W3C//DTD SVG 1.1//EN" "http://www.w3.org/Graphics/SVG/1.1/DTD/svg11.dtd">
<svg xmlns="http://www.w3.org/2000/svg" version="1.1" viewBox="0.00 0.00 400.00 110.00">
<path fill="#e72a0f" d="
  M 110.83 56.41
  A 44.35 44.35 0.0 0 1 66.48 100.76
  A 44.35 44.35 0.0 0 1 22.13 56.41
  A 44.35 44.35 0.0 0 1 66.48 12.06
  A 44.35 44.35 0.0 0 1 110.83 56.41
  Z
  M 103.33 56.40
  A 36.84 36.84 0.0 0 0 66.49 19.56
  A 36.84 36.84 0.0 0 0 29.65 56.40
  A 36.84 36.84 0.0 0 0 66.49 93.24
  A 36.84 36.84 0.0 0 0 103.33 56.40
  Z"
/>
<path fill="#e72a0f" d="
  M 180.10 83.86
  Q 186.09 77.87 188.09 70.08
  Q 189.40 64.99 189.27 54.73
  Q 189.04 36.66 189.21 19.08
  Q 189.25 15.31 192.92 14.59
  Q 193.01 14.57 193.10 14.59
  Q 196.95 15.26 196.93 18.96
  Q 196.83 36.53 196.99 56.18
  Q 197.08 66.10 195.27 72.29
  Q 190.42 88.94 174.56 96.91
  Q 168.91 99.75 162.28 100.60
  Q 155.95 101.42 149.71 100.02
  Q 137.68 97.32 129.69 89.14
  Q 118.44 77.63 118.29 60.42
  Q 118.11 39.68 118.20 19.22
  Q 118.21 15.08 122.05 14.86
  Q 122.12 14.86 122.20 14.86
  Q 125.94 15.04 125.97 18.77
  Q 126.10 37.06 125.88 57.47
  Q 125.79 66.45 127.32 71.06
  Q 130.38 80.27 137.11 85.83
  Q 148.15 94.94 162.63 92.84
  Q 172.56 91.41 180.10 83.86
  Z"
/>
<path fill="#e72a0f" d="
  M 250.75 76.68
  Q 250.74 84.42 250.79 92.51
  C 250.81 94.37 250.93 96.39 249.72 97.75
  C 247.17 100.62 243.02 98.29 243.03 94.84
  Q 243.07 85.71 243.05 76.73
  A 0.77 0.75 -80.4 0 0 242.56 76.03
  C 239.90 75.08 237.12 74.86 234.48 73.93
  C 222.17 69.59 212.72 59.69 209.14 47.10
  Q 207.89 42.71 207.81 34.35
  Q 207.74 26.86 207.87 18.10
  Q 207.91 15.44 210.51 14.87
  Q 211.09 14.74 211.66 14.76
  Q 215.12 14.91 215.06 18.38
  Q 214.91 27.41 215.08 35.68
  C 215.34 48.25 221.01 58.89 231.97 64.77
  C 249.53 74.20 272.06 65.00 277.38 45.59
  C 279.65 37.28 278.66 27.27 278.77 18.28
  Q 278.80 15.51 281.48 14.84
  Q 281.96 14.72 282.44 14.74
  Q 286.16 14.87 286.07 18.49
  Q 285.88 25.71 286.07 34.60
  Q 286.24 42.41 284.30 48.47
  C 280.50 60.31 271.10 69.85 259.29 73.99
  Q 257.25 74.71 255.21 75.03
  Q 253.20 75.34 251.14 76.11
  Q 250.75 76.26 250.75 76.68
  Z"
/>
<path fill="#e72a0f" d="
  M 364.31 72.00
  L 302.27 72.00
  Q 301.68 72.00 301.68 72.59
  Q 301.72 83.70 301.68 94.55
  Q 301.67 98.60 297.88 99.15
  Q 297.76 99.16 297.66 99.14
  Q 294.02 98.26 294.01 94.49
  Q 293.96 71.85 294.04 53.32
  C 294.07 46.97 296.42 38.89 299.88 33.39
  Q 308.99 18.92 325.13 15.47
  Q 329.79 14.47 335.97 14.76
  Q 341.22 15.01 345.73 16.56
  C 361.80 22.07 372.43 36.76 372.56 54.00
  Q 372.70 73.95 372.57 95.17
  Q 372.55 98.79 368.92 98.84
  Q 368.78 98.84 368.77 98.84
  Q 365.08 98.89 365.04 94.61
  Q 364.94 83.32 365.04 72.73
  Q 365.04 72.00 364.31 72.00
  Z
  M 302.12 64.98
  L 364.64 64.98
  A 0.44 0.44 0.0 0 0 365.08 64.54
  L 365.08 53.89
  A 31.89 31.57 -90.0 0 0 333.51 22.00
  L 333.25 22.00
  A 31.89 31.57 90.0 0 0 301.68 53.89
  L 301.68 64.54
  A 0.44 0.44 0.0 0 0 302.12 64.98
  Z"
/>
</svg>
