<?xml version="1.0" encoding="UTF-8" standalone="no"?>
<!DOCTYPE svg PUBLIC "-//W3C//DTD SVG 1.1//EN" "http://www.w3.org/Graphics/SVG/1.1/DTD/svg11.dtd">
<svg xmlns="http://www.w3.org/2000/svg" version="1.1" viewBox="0.00 0.00 600.00 300.00">
<g stroke-width="2.00" fill="none" stroke-linecap="butt">
<path stroke="#6a0000" vector-effect="non-scaling-stroke" d="
  M 289.15 50.30
  Q 286.53 65.06 275.52 74.36
  Q 269.79 79.21 269.74 79.25
  Q 266.82 81.95 263.89 84.70
  Q 263.86 84.73 263.88 84.78
  Q 263.94 84.89 264.00 85.00"
/>
<path stroke="#6a0000" vector-effect="non-scaling-stroke" d="
  M 264.00 85.00
  Q 263.86 85.01 263.72 85.00
  Q 263.46 84.98 263.27 85.15
  L 249.41 98.11"
/>
<path stroke="#aa0000" vector-effect="non-scaling-stroke" d="
  M 243.93 103.07
  Q 241.44 104.15 239.86 106.58"
/>
<path stroke="#6a0000" vector-effect="non-scaling-stroke" d="
  M 239.86 106.58
  Q 232.19 113.62 224.48 120.73
  Q 218.24 126.49 212.23 132.47
  Q 210.96 133.73 209.65 136.88
  Q 209.21 137.94 209.52 138.45"
/>
<path stroke="#6a0000" vector-effect="non-scaling-stroke" d="
  M 209.52 138.45
  Q 208.65 139.08 208.39 140.52
  Q 207.56 145.04 206.54 149.62
  Q 206.42 150.18 205.92 150.47
  C 203.90 151.67 203.89 153.67 205.24 155.34
  Q 206.19 156.51 205.90 158.00
  Q 205.09 162.12 203.22 165.85
  C 202.44 167.40 201.92 169.10 201.24 170.70
  Q 197.50 179.45 192.86 189.78
  Q 192.01 191.68 191.36 193.72
  Q 190.60 196.12 190.00 193.68
  C 189.12 190.12 188.55 185.42 191.65 182.65
  Q 200.81 174.45 199.59 162.48
  Q 199.40 160.61 198.17 157.70
  Q 197.20 155.39 196.52 152.90"
/>
<path stroke="#440000" vector-effect="non-scaling-stroke" d="
  M 240.57 106.56
  Q 239.93 106.13 239.86 106.58"
/>
<path stroke="#828080" vector-effect="non-scaling-stroke" d="
  M 207.64 150.57
  Q 206.26 151.00 205.51 151.73
  A 1.69 1.69 0.0 0 0 205.99 154.48
  Q 207.23 155.03 208.02 156.48
  Q 208.41 157.19 207.74 157.76"
/>
<path stroke="#828080" vector-effect="non-scaling-stroke" d="
  M 206.25 161.25
  L 189.65 199.61"
/>
<path stroke="#440000" vector-effect="non-scaling-stroke" d="
  M 175.75 190.45
  Q 171.64 189.13 166.52 189.60
  Q 166.02 189.64 165.63 189.95
  L 164.73 190.65"
/>
<path stroke="#828080" vector-effect="non-scaling-stroke" d="
  M 148.50 208.99
  Q 147.91 208.57 147.65 207.99
  Q 147.46 207.58 147.63 207.16
  L 155.37 188.81
  Q 155.58 188.33 156.09 188.32
  Q 164.52 188.14 172.91 188.35
  C 178.85 188.51 184.03 187.13 188.50 183.67
  C 191.11 181.65 194.11 178.69 195.78 175.79
  Q 201.37 166.05 196.47 155.91"
/>
<path stroke="#828080" vector-effect="non-scaling-stroke" d="
  M 257.41 152.65
  Q 255.83 155.78 254.50 158.97
  Q 253.93 160.36 252.89 161.06
  A 1.71 1.71 0.0 0 1 250.23 159.72
  Q 250.17 158.64 249.45 157.82
  Q 249.05 157.38 248.45 157.38
  L 234.48 157.35
  A 2.46 2.44 11.4 0 0 232.22 158.84
  L 224.90 176.00"
/>
<path stroke="#828080" vector-effect="non-scaling-stroke" d="
  M 224.90 176.00
  Q 224.33 176.74 224.36 177.53
  Q 224.38 178.06 224.90 178.18
  Q 225.65 178.34 226.53 178.19"
/>
<path stroke="#d68080" vector-effect="non-scaling-stroke" d="
  M 226.53 178.19
  Q 231.78 178.25 237.05 178.22
  C 238.90 178.21 239.80 177.62 240.76 176.19
  A 2.03 2.03 0.0 0 1 241.78 175.41
  Q 244.28 174.55 245.15 176.94"
/>
<path stroke="#828080" vector-effect="non-scaling-stroke" d="
  M 245.15 176.94
  L 240.63 187.41
  A 1.62 1.62 0.0 0 1 239.14 188.39
  C 237.25 188.38 236.93 186.55 236.60 185.10
  A 0.87 0.86 -5.9 0 0 235.77 184.43
  L 221.67 184.41
  Q 221.21 184.41 221.06 184.83
  L 220.19 187.26"
/>
<path stroke="#828080" vector-effect="non-scaling-stroke" d="
  M 220.19 187.26
  L 215.45 198.02
  L 211.80 206.17"
/>
<path stroke="#828080" vector-effect="non-scaling-stroke" d="
  M 235.51 206.18
  Q 236.99 205.19 238.17 203.95
  C 239.31 202.77 240.62 202.36 241.98 203.66
  A 1.92 1.92 0.0 0 1 242.42 205.80
  L 239.78 212.11
  A 1.76 1.75 40.0 0 1 238.16 213.19
  Q 212.48 213.22 186.75 213.15
  Q 185.71 213.14 184.50 213.71"
/>
<path stroke="#828080" vector-effect="non-scaling-stroke" d="
  M 149.58 210.57
  Q 149.11 213.35 146.00 213.24
  Q 133.91 212.80 120.43 213.77"
/>
<path stroke="#828080" vector-effect="non-scaling-stroke" d="
  M 144.54 157.70
  Q 145.53 156.92 144.99 155.75
  Q 144.41 154.49 142.71 154.22"
/>
<path stroke="#440000" vector-effect="non-scaling-stroke" d="
  M 165.03 229.28
  Q 164.07 229.22 163.22 229.97
  Q 162.92 230.23 162.60 230.03
  Q 162.35 229.87 162.20 230.12
  Q 161.71 230.89 160.82 231.07
  Q 160.36 231.16 160.03 231.48
  Q 159.30 232.19 158.47 232.66
  Q 153.49 235.43 148.23 238.42
  Q 147.11 239.06 145.98 239.31
  Q 145.27 239.46 144.60 239.72
  Q 134.17 243.81 123.04 245.59
  C 118.42 246.33 113.63 246.01 108.89 246.06
  C 98.91 246.16 89.14 243.86 79.77 240.22
  Q 79.41 240.08 79.03 240.16
  Q 78.85 240.19 78.65 240.21"
/>
<path stroke="#828080" vector-effect="non-scaling-stroke" d="
  M 254.28 150.56
  L 225.06 150.60"
/>
<path stroke="#580000" vector-effect="non-scaling-stroke" d="
  M 243.43 186.20
  C 241.72 187.11 240.99 189.13 239.58 189.70
  Q 238.09 190.31 237.01 188.73
  Q 236.27 187.65 235.37 187.15
  C 234.31 186.56 233.02 187.16 231.75 186.98"
/>
<path stroke="#580000" vector-effect="non-scaling-stroke" d="
  M 245.15 176.94
  Q 245.73 177.24 245.81 178.41
  Q 245.87 179.26 246.70 179.06
  L 247.68 178.83
  Q 248.27 178.69 248.55 178.16
  L 253.62 168.73"
/>
<path stroke="#440000" vector-effect="non-scaling-stroke" d="
  M 241.00 213.84
  Q 238.15 214.47 232.00 214.32
  Q 229.76 214.26 220.99 214.69
  Q 220.49 214.71 220.40 215.08
  Q 220.28 215.56 220.66 215.87
  L 221.79 216.77"
/>
<path stroke="#440000" vector-effect="non-scaling-stroke" d="
  M 220.25 217.04
  L 206.61 214.37"
/>
<path stroke="#440000" vector-effect="non-scaling-stroke" d="
  M 201.05 214.96
  Q 193.02 213.83 185.56 215.17"
/>
<path stroke="#580000" vector-effect="non-scaling-stroke" d="
  M 216.96 198.40
  Q 215.06 200.13 214.78 202.66
  A 0.79 0.79 0.0 0 0 215.80 203.50
  Q 217.88 202.87 219.65 203.31
  C 222.15 203.94 224.67 203.51 227.26 203.84
  Q 229.17 204.08 231.17 204.02
  Q 233.13 203.95 234.96 204.27
  C 237.41 204.71 237.56 202.28 239.47 201.81
  Q 240.88 201.46 241.95 202.38
  Q 242.98 203.27 243.82 204.32
  Q 244.36 205.00 245.22 205.14
  Q 245.85 205.24 246.19 204.76
  Q 246.51 204.32 246.30 203.82
  L 243.73 197.75"
/>
<path stroke="#580000" vector-effect="non-scaling-stroke" d="
  M 221.60 187.74
  Q 218.67 190.96 217.69 195.67
  Q 217.55 196.32 218.21 196.40
  C 219.88 196.61 221.11 195.72 222.80 195.63
  Q 233.17 195.10 243.34 194.39
  A 0.94 0.94 0.0 0 0 244.19 193.65
  Q 244.84 190.50 245.62 187.26
  Q 245.75 186.69 245.24 185.93"
/>
<path stroke="#580000" vector-effect="non-scaling-stroke" d="
  M 226.53 178.19
  Q 226.54 177.54 226.13 177.25
  Q 225.73 176.97 226.10 176.65
  Q 226.37 176.42 226.97 176.24"
/>
<path stroke="#828080" vector-effect="non-scaling-stroke" d="
  M 215.78 150.37
  L 207.94 150.55"
/>
<path stroke="#828080" vector-effect="non-scaling-stroke" d="
  M 164.53 150.47
  L 158.74 150.53"
/>
<path stroke="#440000" vector-effect="non-scaling-stroke" d="
  M 126.28 177.86
  Q 125.65 177.90 126.55 176.18"
/>
<path stroke="#580000" vector-effect="non-scaling-stroke" d="
  M 109.12 96.68
  Q 107.77 97.63 106.56 98.50
  Q 105.61 99.18 105.26 98.03"
/>
<path stroke="#580000" vector-effect="non-scaling-stroke" d="
  M 105.84 92.21
  Q 106.03 91.39 105.63 91.07
  Q 105.26 90.76 104.72 91.03
  Q 104.03 91.38 104.01 92.35"
/>
<path stroke="#580000" vector-effect="non-scaling-stroke" d="
  M 103.94 119.26
  Q 97.37 118.98 91.56 120.52"
/>
<path stroke="#980000" vector-effect="non-scaling-stroke" d="
  M 91.56 120.52
  Q 86.81 120.48 83.25 123.38"
/>
<path stroke="#580000" vector-effect="non-scaling-stroke" d="
  M 83.25 123.38
  Q 78.84 126.34 77.84 128.61
  Q 73.68 138.05 69.40 147.44
  Q 66.25 154.37 61.66 160.44
  Q 60.68 161.75 60.57 164.44"
/>
<path stroke="#580000" vector-effect="non-scaling-stroke" d="
  M 127.67 175.73
  Q 128.10 173.83 126.55 176.18"
/>
<path stroke="#980000" vector-effect="non-scaling-stroke" d="
  M 126.55 176.18
  Q 124.77 178.35 123.60 180.75
  Q 123.57 180.81 123.50 180.75
  Q 123.44 180.70 123.36 180.81
  Q 121.72 183.14 120.83 185.57
  Q 120.66 186.04 120.25 186.34
  Q 119.65 186.79 119.65 187.52
  A 1.29 1.28 74.5 0 1 119.05 188.59
  Q 118.25 189.10 118.19 190.05
  Q 118.15 190.68 117.61 191.02
  Q 116.93 191.44 116.66 192.19
  Q 116.55 192.50 116.26 192.35
  Q 115.53 191.97 114.79 192.35
  Q 111.57 193.99 108.21 193.90
  Q 106.47 193.85 104.73 194.28
  Q 104.08 194.45 104.00 193.77
  Q 103.94 193.29 103.43 192.79"
/>
<path stroke="#580000" vector-effect="non-scaling-stroke" d="
  M 104.71 183.95
  Q 103.85 178.42 99.68 174.50
  Q 97.52 172.46 94.82 171.75
  Q 91.60 170.91 88.94 171.65
  C 81.33 173.77 76.04 182.19 72.29 188.94
  Q 69.94 193.15 67.15 195.16
  Q 60.64 199.85 55.22 193.03"
/>
<path stroke="#580000" vector-effect="non-scaling-stroke" d="
  M 59.32 187.06
  Q 59.95 185.34 59.71 183.76
  A 0.58 0.58 0.0 0 0 58.66 183.52
  Q 53.91 190.20 46.48 195.90
  C 45.55 196.61 43.76 196.74 42.85 196.12
  Q 32.44 189.10 31.48 176.34"
/>
<path stroke="#6a0000" vector-effect="non-scaling-stroke" d="
  M 344.30 79.11
  Q 342.74 88.59 341.91 92.23
  Q 338.56 106.94 327.57 115.96
  Q 324.03 118.87 319.23 120.90
  Q 285.35 135.20 254.18 149.34
  C 252.23 150.22 250.47 149.62 248.55 149.63
  Q 238.70 149.72 228.28 149.49"
/>
<path stroke="#828080" vector-effect="non-scaling-stroke" d="
  M 322.96 157.43
  Q 321.66 159.75 320.71 162.12
  C 320.19 163.41 319.18 165.01 317.54 164.27
  Q 316.46 163.79 316.02 162.59
  C 314.19 157.62 307.95 155.79 302.92 156.04
  C 295.50 156.39 290.76 159.04 285.36 164.30
  Q 280.62 168.92 278.88 171.38
  Q 270.44 183.38 269.24 197.67"
/>
<path stroke="#d68080" vector-effect="non-scaling-stroke" d="
  M 269.24 197.67
  Q 269.65 202.88 273.78 204.91"
/>
<path stroke="#828080" vector-effect="non-scaling-stroke" d="
  M 273.78 204.91
  Q 275.82 206.45 278.44 205.94"
/>
<path stroke="#828080" vector-effect="non-scaling-stroke" d="
  M 293.19 188.64
  Q 293.95 187.74 293.74 186.44
  Q 293.66 185.95 293.23 185.69
  Q 290.65 184.16 290.90 182.19"
/>
<path stroke="#828080" vector-effect="non-scaling-stroke" d="
  M 322.45 184.05
  C 320.62 185.68 318.42 184.92 317.34 187.57
  Q 312.52 199.37 306.75 211.81
  A 1.63 1.62 12.1 0 1 305.29 212.75
  Q 295.83 212.80 285.94 212.74
  C 285.00 212.73 284.22 212.39 283.67 211.62
  Q 283.31 211.11 282.70 211.26
  C 282.17 211.38 281.79 211.82 281.23 212.04
  Q 274.76 214.56 266.09 214.60
  Q 261.44 214.62 258.03 213.20
  Q 252.81 211.04 249.25 206.22
  Q 244.72 200.10 245.74 192.29
  Q 246.19 188.86 246.81 185.48"
/>
<path stroke="#828080" vector-effect="non-scaling-stroke" d="
  M 248.63 180.37
  Q 251.04 173.95 255.61 167.99"
/>
<path stroke="#828080" vector-effect="non-scaling-stroke" d="
  M 257.50 165.42
  Q 259.22 164.34 260.93 162.14"
/>
<path stroke="#440000" vector-effect="non-scaling-stroke" d="
  M 261.77 216.99
  Q 262.85 217.46 262.98 218.14
  Q 263.08 218.67 262.69 219.05
  C 259.22 222.47 254.44 222.23 250.03 221.40
  Q 238.47 219.22 226.77 217.67"
/>
<path stroke="#440000" vector-effect="non-scaling-stroke" d="
  M 252.51 224.38
  C 251.76 230.58 240.15 229.47 236.51 228.28
  Q 220.87 223.16 204.44 219.34"
/>
<path stroke="#440000" vector-effect="non-scaling-stroke" d="
  M 198.64 217.50
  Q 189.80 226.98 180.50 235.60
  Q 173.97 241.64 165.86 245.76
  Q 165.40 245.99 165.16 246.43
  Q 164.88 246.96 164.31 247.10
  Q 162.68 247.50 161.54 248.05
  Q 153.47 251.96 145.74 253.86
  Q 141.00 255.02 133.31 255.95
  Q 126.40 256.78 120.81 256.65
  Q 102.91 256.24 89.01 251.97
  Q 77.92 248.55 74.30 247.86"
/>
<path stroke="#580000" vector-effect="non-scaling-stroke" d="
  M 322.82 134.30
  Q 321.20 138.57 318.91 141.19
  Q 312.78 148.21 303.65 149.80"
/>
<path stroke="#d68080" vector-effect="non-scaling-stroke" d="
  M 303.65 149.80
  Q 278.92 146.45 260.93 162.14"
/>
<path stroke="#580000" vector-effect="non-scaling-stroke" d="
  M 260.93 162.14
  Q 259.79 162.23 258.72 163.07
  Q 257.62 163.93 256.59 164.28
  Q 245.45 168.02 234.03 171.30
  Q 230.89 172.20 227.75 173.30
  A 0.27 0.26 -1.9 0 1 227.40 172.98
  Q 228.24 170.12 230.56 167.72"
/>
<path stroke="#580000" vector-effect="non-scaling-stroke" d="
  M 243.91 159.15
  Q 245.18 159.28 246.50 158.91
  Q 249.02 158.22 249.54 160.49
  C 250.27 163.66 254.00 163.12 254.95 160.90
  Q 257.18 155.67 258.18 154.24"
/>
<path stroke="#6a0000" vector-effect="non-scaling-stroke" d="
  M 278.11 109.71
  Q 276.31 116.53 270.31 120.77
  Q 269.64 121.24 258.77 126.83
  Q 238.00 137.51 216.47 148.63
  C 214.78 149.50 213.00 149.96 211.11 149.87
  A 0.90 0.90 0.0 0 1 210.25 148.92
  L 210.42 145.77"
/>
<path stroke="#6a0000" vector-effect="non-scaling-stroke" d="
  M 163.10 149.12
  Q 160.91 150.96 158.52 148.37"
/>
<path stroke="#440000" vector-effect="non-scaling-stroke" d="
  M 83.25 123.38
  Q 87.07 121.31 91.56 120.52"
/>
<path stroke="#580000" vector-effect="non-scaling-stroke" d="
  M 274.29 183.58
  C 272.08 184.92 271.54 189.37 271.55 191.53
  Q 271.55 192.16 272.15 192.32
  Q 273.10 192.59 273.97 192.08
  Q 274.53 191.75 275.17 191.71
  Q 280.36 191.39 284.86 191.12
  Q 288.23 190.92 291.63 188.36
  A 1.42 1.42 0.0 0 0 291.87 186.32
  L 288.89 182.71"
/>
<path stroke="#580000" vector-effect="non-scaling-stroke" d="
  M 270.74 196.89
  Q 270.27 198.33 269.24 197.67"
/>
<path stroke="#828080" vector-effect="non-scaling-stroke" d="
  M 306.96 150.20
  Q 305.98 150.42 303.65 149.80"
/>
<path stroke="#580000" vector-effect="non-scaling-stroke" d="
  M 283.68 199.47
  Q 281.13 202.88 277.95 204.82
  Q 277.53 205.07 277.03 205.05
  L 273.78 204.91"
/>
<path stroke="#6a0000" vector-effect="non-scaling-stroke" d="
  M 174.24 66.57
  Q 160.54 68.90 150.81 77.78
  Q 150.12 78.40 150.59 78.84"
/>
<path stroke="#6a0000" vector-effect="non-scaling-stroke" d="
  M 150.59 78.84
  Q 150.04 78.56 149.81 78.80
  Q 144.13 84.50 145.78 92.40"
/>
<path stroke="#6a0000" vector-effect="non-scaling-stroke" d="
  M 175.01 98.48
  Q 171.05 105.81 170.42 111.24
  Q 170.29 112.30 170.39 115.95"
/>
<path stroke="#6a0000" vector-effect="non-scaling-stroke" d="
  M 183.32 134.09
  L 181.24 137.60
  Q 179.03 141.32 178.55 137.02
  C 178.17 133.67 176.11 130.95 172.83 130.10
  C 169.09 129.12 165.87 128.19 163.58 124.79
  Q 159.94 119.41 160.46 113.08
  A 0.74 0.74 0.0 0 0 159.57 112.30
  C 146.02 115.25 138.92 107.11 133.76 96.05
  C 132.82 94.03 130.82 92.56 128.76 91.78
  Q 124.46 90.16 120.28 89.26
  Q 119.79 89.16 119.27 88.72"
/>
<path stroke="#6a0000" vector-effect="non-scaling-stroke" d="
  M 280.73 89.02
  Q 280.79 95.15 276.47 98.69"
/>
<path stroke="#aa0000" vector-effect="non-scaling-stroke" d="
  M 276.47 98.69
  L 272.54 101.17"
/>
<path stroke="#6a0000" vector-effect="non-scaling-stroke" d="
  M 272.54 101.17
  Q 270.72 102.26 270.40 103.38"
/>
<path stroke="#6a0000" vector-effect="non-scaling-stroke" d="
  M 267.56 105.29
  Q 266.37 104.83 265.82 105.72
  Q 265.57 106.13 265.11 106.29
  Q 263.82 106.75 262.81 107.64"
/>
<path stroke="#aa0000" vector-effect="non-scaling-stroke" d="
  M 262.81 107.64
  Q 261.31 107.81 260.56 108.97"
/>
<path stroke="#6a0000" vector-effect="non-scaling-stroke" d="
  M 260.56 108.97
  Q 259.36 109.57 259.76 110.44"
/>
<path stroke="#6a0000" vector-effect="non-scaling-stroke" d="
  M 259.59 110.26
  Q 258.55 109.98 257.81 110.83
  Q 257.49 111.20 257.02 111.35
  Q 256.16 111.62 256.29 112.54"
/>
<path stroke="#6a0000" vector-effect="non-scaling-stroke" d="
  M 256.29 112.54
  Q 255.36 112.72 254.65 113.23
  Q 253.31 114.19 251.49 115.08
  C 249.28 116.17 247.66 117.81 245.54 118.96
  Q 244.03 119.79 242.57 120.77
  Q 236.53 124.84 230.53 128.55
  Q 228.18 130.00 223.87 132.95
  Q 220.58 135.21 217.10 137.20
  Q 216.23 137.70 213.99 139.46
  Q 212.28 140.80 210.45 141.16"
/>
<path stroke="#440000" vector-effect="non-scaling-stroke" d="
  M 275.12 100.25
  L 272.54 101.17"
/>
<path stroke="#440000" vector-effect="non-scaling-stroke" d="
  M 260.56 108.97
  Q 261.97 108.77 262.81 107.64"
/>
<path stroke="#440000" vector-effect="non-scaling-stroke" d="
  M 275.70 99.79
  Q 275.53 99.62 276.47 98.69"
/>
<path stroke="#6a0000" vector-effect="non-scaling-stroke" d="
  M 89.17 136.45
  Q 86.94 138.57 85.03 140.78
  C 84.15 141.80 80.71 143.91 78.36 144.04
  Q 78.22 144.05 78.14 143.95
  Q 77.78 143.59 77.69 144.11
  Q 77.66 144.30 77.63 144.41"
/>
<path stroke="#828080" vector-effect="non-scaling-stroke" d="
  M 444.19 157.17
  Q 443.08 159.24 442.38 161.45
  Q 441.80 163.30 440.37 164.99
  A 1.31 1.31 0.0 0 1 438.16 164.64
  Q 436.88 161.52 434.14 159.20"
/>
<path stroke="#828080" vector-effect="non-scaling-stroke" d="
  M 431.35 157.29
  Q 425.13 154.55 420.00 156.73
  Q 414.62 159.01 415.16 164.91"
/>
<path stroke="#828080" vector-effect="non-scaling-stroke" d="
  M 433.79 204.66
  Q 429.46 216.44 417.27 221.24
  Q 407.54 225.06 397.50 222.34
  Q 391.22 220.63 385.73 216.98
  A 1.23 1.22 -79.1 0 1 385.21 216.20
  Q 385.02 215.20 385.46 214.21
  A 0.71 0.71 0.0 0 0 384.81 213.21
  Q 372.45 213.23 360.26 213.20
  Q 357.59 213.19 357.14 210.85"
/>
<path stroke="#828080" vector-effect="non-scaling-stroke" d="
  M 359.17 208.46
  Q 360.01 207.90 359.76 207.00
  Q 357.35 198.31 355.68 189.62
  A 1.11 1.11 0.0 0 0 354.59 188.72
  L 336.88 188.73
  A 1.65 1.64 -74.5 0 0 335.47 189.53
  L 324.52 207.95"
/>
<path stroke="#828080" vector-effect="non-scaling-stroke" d="
  M 327.07 210.52
  Q 326.61 212.96 324.24 213.18
  Q 321.03 213.48 312.50 213.10
  Q 310.52 213.01 310.12 210.54"
/>
<path stroke="#828080" vector-effect="non-scaling-stroke" d="
  M 375.63 153.77
  Q 372.05 156.18 373.74 158.64"
/>
<path stroke="#828080" vector-effect="non-scaling-stroke" d="
  M 413.07 212.32
  Q 415.25 207.62 412.42 203.83
  Q 409.87 200.42 400.29 189.22
  Q 395.10 183.15 394.56 173.64"
/>
<path stroke="#828080" vector-effect="non-scaling-stroke" d="
  M 568.95 156.22
  Q 566.87 159.06 565.64 162.78
  Q 565.11 164.40 564.13 165.16
  A 1.52 1.52 0.0 0 1 561.71 164.31
  Q 560.98 161.22 558.44 159.20"
/>
<path stroke="#828080" vector-effect="non-scaling-stroke" d="
  M 557.27 158.26
  C 553.86 155.70 547.19 155.26 543.44 157.21
  Q 538.04 160.02 539.37 166.14"
/>
<path stroke="#828080" vector-effect="non-scaling-stroke" d="
  M 558.74 198.95
  Q 556.58 215.90 540.53 221.43
  Q 532.24 224.29 527.51 223.51
  Q 521.24 222.48 515.36 220.11
  Q 511.50 218.56 508.79 215.90"
/>
<path stroke="#828080" vector-effect="non-scaling-stroke" d="
  M 537.55 211.56
  Q 539.32 207.63 536.91 204.34
  Q 534.25 200.74 526.90 192.15
  Q 522.65 187.18 521.16 184.00
  Q 519.04 179.42 518.43 174.24"
/>
<path stroke="#828080" vector-effect="non-scaling-stroke" d="
  M 482.53 154.97
  C 480.48 156.24 478.29 156.30 477.20 158.83
  Q 470.88 173.51 464.34 188.31
  C 462.42 192.67 459.43 199.08 460.65 203.69"
/>
<path stroke="#828080" vector-effect="non-scaling-stroke" d="
  M 524.21 154.76
  Q 523.22 155.54 522.04 155.98
  C 519.79 156.81 519.25 157.65 518.36 159.66
  Q 512.84 172.17 508.17 183.33
  Q 503.67 194.06 499.96 198.69
  C 488.13 213.41 468.43 219.68 450.50 213.24
  Q 441.81 210.12 438.42 200.62"
/>
<path stroke="#828080" vector-effect="non-scaling-stroke" d="
  M 451.99 158.52
  Q 452.97 157.73 452.34 156.67
  Q 451.61 155.44 449.84 154.87"
/>
<path stroke="#440000" vector-effect="non-scaling-stroke" d="
  M 219.18 233.71
  Q 218.76 233.29 218.14 234.14
  Q 214.71 238.85 208.47 239.33
  Q 202.54 239.78 198.45 238.40
  Q 197.93 238.23 197.90 238.77
  Q 197.85 239.59 198.71 239.63"
/>
<path stroke="#440000" vector-effect="non-scaling-stroke" d="
  M 203.83 246.93
  Q 199.55 247.81 196.42 246.52
  A 0.43 0.43 0.0 0 0 195.83 246.99
  Q 195.98 247.78 196.46 248.00"
/>
<path stroke="#440000" vector-effect="non-scaling-stroke" d="
  M 197.77 250.83
  Q 177.60 262.01 155.50 263.32
  Q 146.32 263.86 135.76 262.00
  Q 133.63 261.62 133.03 260.09"
/>
<path stroke="#580000" vector-effect="non-scaling-stroke" d="
  M 38.38 183.81
  Q 38.65 182.53 38.65 182.47
  Q 38.77 179.60 37.14 181.96
  Q 36.62 182.72 36.83 184.07"
/>
<path stroke="#828080" vector-effect="non-scaling-stroke" d="
  M 353.35 181.14
  L 350.99 170.94"
/>
<path stroke="#828080" vector-effect="non-scaling-stroke" d="
  M 350.94 170.81
  Q 351.13 168.47 350.23 166.88
  A 0.50 0.50 0.0 0 0 349.37 166.86
  L 341.13 180.19
  Q 341.04 180.34 341.04 180.52
  Q 341.04 180.66 341.05 180.78"
/>
<path stroke="#828080" vector-effect="non-scaling-stroke" d="
  M 164.47 180.96
  Q 165.55 181.10 166.54 180.49"
/>
<path stroke="#d68080" vector-effect="non-scaling-stroke" d="
  M 166.54 180.49
  Q 169.81 179.71 171.72 177.32"
/>
<path stroke="#828080" vector-effect="non-scaling-stroke" d="
  M 171.72 177.32
  L 173.49 175.40"
/>
<path stroke="#828080" vector-effect="non-scaling-stroke" d="
  M 176.56 168.57
  C 178.71 163.16 176.20 157.96 170.35 157.25
  Q 169.10 157.10 168.60 158.26
  L 159.16 180.48
  A 0.37 0.36 11.2 0 0 159.50 180.98
  L 160.50 180.96"
/>
<path stroke="#580000" vector-effect="non-scaling-stroke" d="
  M 168.76 161.51
  Q 163.83 168.04 164.51 176.02"
/>
<path stroke="#580000" vector-effect="non-scaling-stroke" d="
  M 172.35 172.78
  Q 172.56 174.74 171.72 177.32"
/>
<path stroke="#580000" vector-effect="non-scaling-stroke" d="
  M 166.54 180.49
  Q 166.66 180.30 166.59 180.18
  Q 166.54 180.09 166.36 180.08
  Q 164.73 179.94 164.85 178.30"
/>
<path stroke="#440000" vector-effect="non-scaling-stroke" d="
  M 233.09 159.52
  Q 232.37 160.14 232.32 161.09
  Q 232.29 161.60 232.72 161.31
  L 235.36 159.52
  Q 235.82 159.21 235.49 158.76
  Q 235.25 158.44 234.84 158.39
  Q 233.90 158.28 233.42 159.11
  Q 233.29 159.34 233.09 159.52"
/>
<path stroke="#580000" vector-effect="non-scaling-stroke" d="
  M 280.53 173.21
  Q 280.70 173.35 280.89 173.28
  Q 286.59 171.25 292.79 170.57
  Q 297.45 170.05 300.56 168.39
  Q 305.79 165.59 310.12 159.89
  A 1.02 1.02 0.0 0 0 309.51 158.27
  C 300.16 156.36 292.64 158.68 286.29 165.25
  C 284.03 167.59 281.09 169.92 279.57 172.81
  A 0.33 0.32 -66.8 0 0 279.75 173.27
  Q 279.99 173.34 280.20 173.19
  Q 280.37 173.07 280.53 173.21"
/>
</g>
<path fill="#cf0000" d="
  M 289.15 50.30
  Q 286.53 65.06 275.52 74.36
  Q 269.79 79.21 269.74 79.25
  Q 266.82 81.95 263.89 84.70
  Q 263.86 84.73 263.88 84.78
  Q 263.94 84.89 264.00 85.00
  Q 263.86 85.01 263.72 85.00
  Q 263.46 84.98 263.27 85.15
  L 249.41 98.11
  L 243.93 103.07
  Q 241.44 104.15 239.86 106.58
  Q 232.19 113.62 224.48 120.73
  Q 218.24 126.49 212.23 132.47
  Q 210.96 133.73 209.65 136.88
  Q 209.21 137.94 209.52 138.45
  Q 208.65 139.08 208.39 140.52
  Q 207.56 145.04 206.54 149.62
  Q 206.42 150.18 205.92 150.47
  C 203.90 151.67 203.89 153.67 205.24 155.34
  Q 206.19 156.51 205.90 158.00
  Q 205.09 162.12 203.22 165.85
  C 202.44 167.40 201.92 169.10 201.24 170.70
  Q 197.50 179.45 192.86 189.78
  Q 192.01 191.68 191.36 193.72
  Q 190.60 196.12 190.00 193.68
  C 189.12 190.12 188.55 185.42 191.65 182.65
  Q 200.81 174.45 199.59 162.48
  Q 199.40 160.61 198.17 157.70
  Q 197.20 155.39 196.52 152.90
  Q 196.44 146.06 197.22 140.49
  C 197.67 137.22 198.91 132.93 201.47 130.53
  C 203.11 128.99 204.41 127.18 206.01 125.60
  Q 215.18 116.55 224.00 107.49
  Q 239.92 91.16 251.05 78.30
  C 263.16 64.31 272.82 49.73 281.86 34.05
  A 1.14 1.13 39.0 0 1 283.69 33.86
  Q 289.83 40.73 289.15 50.30
  Z"
/>
<path fill="#040100" fill-opacity="0.996" d="
  M 289.15 50.30
  Q 288.29 60.63 282.07 68.83
  Q 279.75 71.88 273.75 77.00
  Q 269.30 80.80 264.88 84.63
  Q 264.50 84.96 264.00 85.00
  Q 263.94 84.89 263.88 84.78
  Q 263.86 84.73 263.89 84.70
  Q 266.82 81.95 269.74 79.25
  Q 269.79 79.21 275.52 74.36
  Q 286.53 65.06 289.15 50.30
  Z"
/>
<path fill="#cf0000" d="
  M 174.24 66.57
  Q 160.54 68.90 150.81 77.78
  Q 150.12 78.40 150.59 78.84
  Q 150.04 78.56 149.81 78.80
  Q 144.13 84.50 145.78 92.40
  C 146.96 99.62 152.05 102.00 158.58 101.49
  C 165.53 100.95 172.49 96.11 176.96 90.89
  A 0.89 0.87 -65.4 0 1 177.76 90.58
  L 178.13 90.62
  Q 178.70 90.70 178.46 91.22
  L 175.01 98.48
  Q 171.05 105.81 170.42 111.24
  Q 170.29 112.30 170.39 115.95
  C 170.49 119.06 171.09 122.51 174.52 122.46
  C 177.90 122.42 181.27 118.04 182.26 115.52
  Q 183.46 112.48 184.05 115.69
  Q 185.68 124.46 183.32 134.09
  L 181.24 137.60
  Q 179.03 141.32 178.55 137.02
  C 178.17 133.67 176.11 130.95 172.83 130.10
  C 169.09 129.12 165.87 128.19 163.58 124.79
  Q 159.94 119.41 160.46 113.08
  A 0.74 0.74 0.0 0 0 159.57 112.30
  C 146.02 115.25 138.92 107.11 133.76 96.05
  C 132.82 94.03 130.82 92.56 128.76 91.78
  Q 124.46 90.16 120.28 89.26
  Q 119.79 89.16 119.27 88.72
  Q 124.80 82.26 128.98 79.23
  Q 141.63 70.05 157.02 67.04
  Q 165.18 65.45 173.50 64.87
  Q 173.90 64.84 174.24 66.57
  Z"
/>
<path fill="#040100" fill-opacity="0.996" d="
  M 174.24 66.57
  Q 165.81 69.59 158.15 73.51
  C 155.39 74.92 153.07 76.94 150.59 78.84
  Q 150.12 78.40 150.81 77.78
  Q 160.54 68.90 174.24 66.57
  Z"
/>
<path fill="#cf0000" d="
  M 344.30 79.11
  Q 342.74 88.59 341.91 92.23
  Q 338.56 106.94 327.57 115.96
  Q 324.03 118.87 319.23 120.90
  Q 285.35 135.20 254.18 149.34
  C 252.23 150.22 250.47 149.62 248.55 149.63
  Q 238.70 149.72 228.28 149.49
  Q 248.21 136.47 269.00 126.45
  Q 279.07 121.59 301.41 106.69
  Q 321.95 92.98 341.95 78.48
  Q 342.67 77.96 344.30 79.11
  Z"
/>
<path fill="#040100" fill-opacity="0.996" d="
  M 150.59 78.84
  Q 150.35 79.30 149.41 80.41
  C 147.30 82.90 145.74 86.24 145.86 89.62
  Q 145.91 91.06 145.78 92.40
  Q 144.13 84.50 149.81 78.80
  Q 150.04 78.56 150.59 78.84
  Z"
/>
<path fill="#040100" fill-opacity="0.996" d="
  M 344.30 79.11
  Q 344.15 86.54 341.82 95.03
  Q 338.13 108.48 328.03 116.92
  Q 324.47 119.89 318.42 122.49
  Q 293.71 133.12 268.25 144.14
  Q 265.55 145.31 262.63 146.50
  Q 258.45 148.20 254.28 150.56
  L 225.06 150.60
  Q 226.81 150.32 228.28 149.49
  Q 238.70 149.72 248.55 149.63
  C 250.47 149.62 252.23 150.22 254.18 149.34
  Q 285.35 135.20 319.23 120.90
  Q 324.03 118.87 327.57 115.96
  Q 338.56 106.94 341.91 92.23
  Q 342.74 88.59 344.30 79.11
  Z"
/>
<path fill="#ac0000" d="
  M 109.12 96.68
  Q 107.77 97.63 106.56 98.50
  Q 105.61 99.18 105.26 98.03
  L 105.84 92.21
  Q 106.03 91.39 105.63 91.07
  Q 105.26 90.76 104.72 91.03
  Q 104.03 91.38 104.01 92.35
  Q 102.67 95.19 101.17 98.08
  Q 97.42 105.27 95.61 112.67
  Q 95.49 113.18 96.01 113.27
  C 99.38 113.83 103.75 115.16 103.94 119.26
  Q 97.37 118.98 91.56 120.52
  Q 86.81 120.48 83.25 123.38
  Q 78.84 126.34 77.84 128.61
  Q 73.68 138.05 69.40 147.44
  Q 66.25 154.37 61.66 160.44
  Q 60.68 161.75 60.57 164.44
  Q 62.70 170.86 65.07 171.94
  C 73.42 175.77 76.97 171.11 81.36 164.37
  Q 83.95 160.38 85.96 155.77
  A 1.10 1.10 0.0 0 1 87.94 155.69
  C 91.86 162.96 98.75 170.09 107.38 168.60
  C 117.88 166.78 125.70 160.50 126.34 149.30
  Q 126.69 143.22 125.76 137.41
  A 0.45 0.45 0.0 0 1 126.39 136.93
  C 129.79 138.44 132.48 147.81 132.92 151.08
  C 133.93 158.65 132.73 169.39 127.67 175.73
  Q 128.10 173.83 126.55 176.18
  Q 124.77 178.35 123.60 180.75
  Q 123.57 180.81 123.50 180.75
  Q 123.44 180.70 123.36 180.81
  Q 121.72 183.14 120.83 185.57
  Q 120.66 186.04 120.25 186.34
  Q 119.65 186.79 119.65 187.52
  A 1.29 1.28 74.5 0 1 119.05 188.59
  Q 118.25 189.10 118.19 190.05
  Q 118.15 190.68 117.61 191.02
  Q 116.93 191.44 116.66 192.19
  Q 116.55 192.50 116.26 192.35
  Q 115.53 191.97 114.79 192.35
  Q 111.57 193.99 108.21 193.90
  Q 106.47 193.85 104.73 194.28
  Q 104.08 194.45 104.00 193.77
  Q 103.94 193.29 103.43 192.79
  L 104.71 183.95
  Q 103.85 178.42 99.68 174.50
  Q 97.52 172.46 94.82 171.75
  Q 91.60 170.91 88.94 171.65
  C 81.33 173.77 76.04 182.19 72.29 188.94
  Q 69.94 193.15 67.15 195.16
  Q 60.64 199.85 55.22 193.03
  Q 56.64 191.37 57.71 189.97
  Q 58.75 188.62 59.32 187.06
  Q 59.95 185.34 59.71 183.76
  A 0.58 0.58 0.0 0 0 58.66 183.52
  Q 53.91 190.20 46.48 195.90
  C 45.55 196.61 43.76 196.74 42.85 196.12
  Q 32.44 189.10 31.48 176.34
  Q 34.35 171.48 39.73 172.73
  Q 40.88 173.00 41.67 172.05
  C 48.29 164.11 54.48 156.04 58.47 146.39
  Q 61.63 138.76 65.33 131.83
  C 67.54 127.68 70.33 122.94 74.19 120.26
  Q 79.17 116.81 85.32 114.64
  C 86.61 114.19 87.37 113.91 88.13 112.67
  Q 94.55 102.17 98.87 91.51
  Q 101.29 85.54 102.08 79.77
  A 0.66 0.66 0.0 0 1 103.16 79.35
  C 108.55 83.84 111.80 89.57 109.12 96.68
  Z
  M 36.83 184.07
  Q 36.62 185.23 36.93 186.26
  Q 37.08 186.78 37.63 186.73
  Q 38.24 186.67 38.42 185.93
  Q 38.52 185.50 38.38 183.81
  Q 38.65 182.53 38.65 182.47
  Q 38.77 179.60 37.14 181.96
  Q 36.62 182.72 36.83 184.07
  Z"
/>
<path fill="#040100" fill-opacity="0.996" d="
  M 264.00 85.00
  Q 264.02 85.33 263.83 85.52
  Q 257.87 91.23 249.41 98.11
  L 263.27 85.15
  Q 263.46 84.98 263.72 85.00
  Q 263.86 85.01 264.00 85.00
  Z"
/>
<path fill="#cf0000" d="
  M 280.73 89.02
  Q 280.79 95.15 276.47 98.69
  L 272.54 101.17
  Q 270.72 102.26 270.40 103.38
  L 267.56 105.29
  Q 266.37 104.83 265.82 105.72
  Q 265.57 106.13 265.11 106.29
  Q 263.82 106.75 262.81 107.64
  Q 261.31 107.81 260.56 108.97
  Q 259.36 109.57 259.76 110.44
  Q 259.67 110.35 259.59 110.26
  Q 258.55 109.98 257.81 110.83
  Q 257.49 111.20 257.02 111.35
  Q 256.16 111.62 256.29 112.54
  Q 255.36 112.72 254.65 113.23
  Q 253.31 114.19 251.49 115.08
  C 249.28 116.17 247.66 117.81 245.54 118.96
  Q 244.03 119.79 242.57 120.77
  Q 236.53 124.84 230.53 128.55
  Q 228.18 130.00 223.87 132.95
  Q 220.58 135.21 217.10 137.20
  Q 216.23 137.70 213.99 139.46
  Q 212.28 140.80 210.45 141.16
  Q 212.24 133.77 219.09 129.10
  Q 249.36 108.46 278.84 86.14
  A 0.86 0.86 0.0 0 1 280.04 86.30
  Q 280.87 87.40 280.73 89.02
  Z"
/>
<path fill="#040100" fill-opacity="0.996" d="
  M 119.27 88.72
  Q 119.79 89.16 120.28 89.26
  Q 124.46 90.16 128.76 91.78
  C 130.82 92.56 132.82 94.03 133.76 96.05
  C 138.92 107.11 146.02 115.25 159.57 112.30
  A 0.74 0.74 0.0 0 1 160.46 113.08
  Q 159.94 119.41 163.58 124.79
  C 165.87 128.19 169.09 129.12 172.83 130.10
  C 176.11 130.95 178.17 133.67 178.55 137.02
  Q 179.03 141.32 181.24 137.60
  L 183.32 134.09
  Q 182.54 137.66 180.44 140.30
  A 0.97 0.97 0.0 0 1 178.74 139.90
  Q 178.32 137.98 177.73 136.13
  C 175.89 130.31 170.02 131.68 166.00 128.56
  Q 159.89 123.82 159.99 114.48
  Q 160.00 113.50 159.03 113.68
  Q 151.24 115.21 144.84 111.59
  C 139.72 108.69 136.07 102.57 133.47 97.21
  Q 132.33 94.86 130.09 93.69
  Q 126.16 91.62 121.49 90.79
  C 120.44 90.60 119.57 89.71 119.27 88.72
  Z"
/>
<path fill="#040100" fill-opacity="0.996" d="
  M 280.73 89.02
  Q 281.97 95.27 276.94 99.45
  Q 276.30 99.98 275.70 99.79
  Q 275.53 99.62 276.47 98.69
  Q 280.79 95.15 280.73 89.02
  Z"
/>
<path fill="#040100" fill-opacity="0.996" d="
  M 105.84 92.21
  Q 105.30 91.34 104.01 92.35
  Q 104.03 91.38 104.72 91.03
  Q 105.26 90.76 105.63 91.07
  Q 106.03 91.39 105.84 92.21
  Z"
/>
<path fill="#040100" fill-opacity="0.996" d="
  M 109.12 96.68
  Q 108.49 99.14 106.21 99.32
  Q 105.66 99.36 105.36 99.08
  Q 104.90 98.67 105.26 98.03
  Q 105.61 99.18 106.56 98.50
  Q 107.77 97.63 109.12 96.68
  Z"
/>
<path fill="#040100" fill-opacity="0.996" d="
  M 175.01 98.48
  Q 173.06 104.41 171.22 110.25
  Q 170.68 111.96 170.39 115.95
  Q 170.29 112.30 170.42 111.24
  Q 171.05 105.81 175.01 98.48
  Z"
/>
<path fill="#840000" d="
  M 276.47 98.69
  Q 275.53 99.62 275.70 99.79
  Q 275.77 100.04 275.12 100.25
  L 272.54 101.17
  L 276.47 98.69
  Z"
/>
<path fill="#040100" fill-opacity="0.996" d="
  M 275.12 100.25
  L 270.40 103.38
  Q 270.72 102.26 272.54 101.17
  L 275.12 100.25
  Z"
/>
<path fill="#840000" d="
  M 243.93 103.07
  L 240.57 106.56
  Q 239.93 106.13 239.86 106.58
  Q 241.44 104.15 243.93 103.07
  Z"
/>
<path fill="#cf0000" d="
  M 278.11 109.71
  Q 276.31 116.53 270.31 120.77
  Q 269.64 121.24 258.77 126.83
  Q 238.00 137.51 216.47 148.63
  C 214.78 149.50 213.00 149.96 211.11 149.87
  A 0.90 0.90 0.0 0 1 210.25 148.92
  L 210.42 145.77
  Q 211.33 144.45 211.73 144.19
  Q 243.62 123.63 275.63 103.54
  A 0.65 0.65 0.0 0 1 276.52 103.74
  Q 277.82 105.75 278.11 109.71
  Z"
/>
<path fill="#040100" fill-opacity="0.996" d="
  M 267.56 105.29
  L 259.76 110.44
  Q 259.36 109.57 260.56 108.97
  Q 261.97 108.77 262.81 107.64
  Q 263.82 106.75 265.11 106.29
  Q 265.57 106.13 265.82 105.72
  Q 266.37 104.83 267.56 105.29
  Z"
/>
<path fill="#040100" fill-opacity="0.996" d="
  M 239.86 106.58
  Q 239.93 106.13 240.57 106.56
  Q 232.94 114.21 225.03 121.53
  Q 223.15 123.27 221.23 124.95
  Q 214.92 130.48 211.93 133.94
  Q 210.84 135.20 209.52 138.45
  Q 209.21 137.94 209.65 136.88
  Q 210.96 133.73 212.23 132.47
  Q 218.24 126.49 224.48 120.73
  Q 232.19 113.62 239.86 106.58
  Z"
/>
<path fill="#840000" d="
  M 262.81 107.64
  Q 261.97 108.77 260.56 108.97
  Q 261.31 107.81 262.81 107.64
  Z"
/>
<path fill="#040100" fill-opacity="0.996" d="
  M 278.11 109.71
  Q 277.18 118.51 267.01 123.80
  Q 241.62 137.01 215.78 150.37
  L 207.94 150.55
  Q 209.88 150.94 209.87 149.38
  Q 209.85 147.42 210.42 145.77
  L 210.25 148.92
  A 0.90 0.90 0.0 0 0 211.11 149.87
  C 213.00 149.96 214.78 149.50 216.47 148.63
  Q 238.00 137.51 258.77 126.83
  Q 269.64 121.24 270.31 120.77
  Q 276.31 116.53 278.11 109.71
  Z"
/>
<path fill="#040100" fill-opacity="0.996" d="
  M 259.59 110.26
  Q 258.07 112.20 256.29 112.54
  Q 256.16 111.62 257.02 111.35
  Q 257.49 111.20 257.81 110.83
  Q 258.55 109.98 259.59 110.26
  Z"
/>
<path fill="#040100" fill-opacity="0.996" d="
  M 256.29 112.54
  Q 255.95 113.22 255.20 113.68
  Q 249.25 117.36 244.76 120.38
  Q 239.42 123.97 234.02 127.33
  Q 228.39 130.84 223.21 134.44
  Q 217.92 138.10 212.18 141.71
  A 0.91 0.91 0.0 0 1 211.33 141.76
  Q 210.82 141.53 210.45 141.16
  Q 212.28 140.80 213.99 139.46
  Q 216.23 137.70 217.10 137.20
  Q 220.58 135.21 223.87 132.95
  Q 228.18 130.00 230.53 128.55
  Q 236.53 124.84 242.57 120.77
  Q 244.03 119.79 245.54 118.96
  C 247.66 117.81 249.28 116.17 251.49 115.08
  Q 253.31 114.19 254.65 113.23
  Q 255.36 112.72 256.29 112.54
  Z"
/>
<path fill="#040100" fill-opacity="0.996" d="
  M 103.94 119.26
  Q 99.20 120.80 94.19 121.09
  C 92.41 121.19 90.74 121.62 89.02 121.98
  C 83.30 123.16 78.89 127.23 76.55 132.89
  Q 74.54 137.76 72.47 142.54
  Q 70.18 147.82 66.83 153.74
  Q 63.71 159.26 60.57 164.44
  Q 60.68 161.75 61.66 160.44
  Q 66.25 154.37 69.40 147.44
  Q 73.68 138.05 77.84 128.61
  Q 78.84 126.34 83.25 123.38
  Q 87.07 121.31 91.56 120.52
  Q 97.37 118.98 103.94 119.26
  Z"
/>
<path fill="#840000" d="
  M 91.56 120.52
  Q 87.07 121.31 83.25 123.38
  Q 86.81 120.48 91.56 120.52
  Z"
/>
<path fill="#cf0000" d="
  M 89.17 136.45
  Q 86.94 138.57 85.03 140.78
  C 84.15 141.80 80.71 143.91 78.36 144.04
  Q 78.22 144.05 78.14 143.95
  Q 77.78 143.59 77.69 144.11
  Q 77.66 144.30 77.63 144.41
  A 9.21 3.91 -50.7 0 1 77.26 143.48
  A 8.82 3.79 -49.3 0 1 88.23 130.88
  A 8.82 3.79 -49.1 0 1 90.06 133.27
  A 8.91 3.81 -49.5 0 1 89.17 136.45
  Z"
/>
<path fill="#ac0000" d="
  M 322.82 134.30
  Q 321.20 138.57 318.91 141.19
  Q 312.78 148.21 303.65 149.80
  Q 278.92 146.45 260.93 162.14
  Q 259.79 162.23 258.72 163.07
  Q 257.62 163.93 256.59 164.28
  Q 245.45 168.02 234.03 171.30
  Q 230.89 172.20 227.75 173.30
  A 0.27 0.26 -1.9 0 1 227.40 172.98
  Q 228.24 170.12 230.56 167.72
  Q 236.16 161.86 243.91 159.15
  Q 245.18 159.28 246.50 158.91
  Q 249.02 158.22 249.54 160.49
  C 250.27 163.66 254.00 163.12 254.95 160.90
  Q 257.18 155.67 258.18 154.24
  L 322.82 134.30
  Z"
/>
<path fill="#040100" fill-opacity="0.996" d="
  M 322.82 134.30
  Q 320.18 146.18 306.96 150.20
  Q 305.98 150.42 303.65 149.80
  Q 312.78 148.21 318.91 141.19
  Q 321.20 138.57 322.82 134.30
  Z"
/>
<path fill="#040100" fill-opacity="0.996" d="
  M 89.17 136.45
  A 8.82 3.78 -49.3 0 1 79.53 145.12
  A 8.85 3.80 -49.1 0 1 77.63 144.41
  Q 77.66 144.30 77.69 144.11
  Q 77.78 143.59 78.14 143.95
  Q 78.22 144.05 78.36 144.04
  C 80.71 143.91 84.15 141.80 85.03 140.78
  Q 86.94 138.57 89.17 136.45
  Z"
/>
<path fill="#040100" fill-opacity="0.996" d="
  M 209.52 138.45
  Q 207.64 143.92 207.35 149.75
  Q 207.33 150.13 207.64 150.57
  Q 206.26 151.00 205.51 151.73
  A 1.69 1.69 0.0 0 0 205.99 154.48
  Q 207.23 155.03 208.02 156.48
  Q 208.41 157.19 207.74 157.76
  L 207.62 157.44
  Q 207.46 156.98 207.17 157.37
  Q 206.07 158.88 206.25 161.25
  L 189.65 199.61
  L 189.28 185.08
  Q 189.26 184.29 188.62 184.74
  Q 186.45 186.24 184.08 187.46
  Q 182.56 188.25 179.83 188.68
  Q 176.78 189.15 175.75 190.45
  Q 171.64 189.13 166.52 189.60
  Q 166.02 189.64 165.63 189.95
  L 164.73 190.65
  Q 162.89 188.56 156.79 189.51
  A 1.89 1.89 0.0 0 0 155.33 190.65
  L 148.18 207.56
  Q 148.02 207.94 148.19 208.31
  L 148.50 208.99
  Q 147.91 208.57 147.65 207.99
  Q 147.46 207.58 147.63 207.16
  L 155.37 188.81
  Q 155.58 188.33 156.09 188.32
  Q 164.52 188.14 172.91 188.35
  C 178.85 188.51 184.03 187.13 188.50 183.67
  C 191.11 181.65 194.11 178.69 195.78 175.79
  Q 201.37 166.05 196.47 155.91
  L 196.52 152.90
  Q 197.20 155.39 198.17 157.70
  Q 199.40 160.61 199.59 162.48
  Q 200.81 174.45 191.65 182.65
  C 188.55 185.42 189.12 190.12 190.00 193.68
  Q 190.60 196.12 191.36 193.72
  Q 192.01 191.68 192.86 189.78
  Q 197.50 179.45 201.24 170.70
  C 201.92 169.10 202.44 167.40 203.22 165.85
  Q 205.09 162.12 205.90 158.00
  Q 206.19 156.51 205.24 155.34
  C 203.89 153.67 203.90 151.67 205.92 150.47
  Q 206.42 150.18 206.54 149.62
  Q 207.56 145.04 208.39 140.52
  Q 208.65 139.08 209.52 138.45
  Z"
/>
<path fill="#cf0000" d="
  M 163.10 149.12
  Q 160.91 150.96 158.52 148.37
  L 156.43 140.66
  A 0.67 0.67 0.0 0 1 157.13 139.81
  Q 157.61 139.84 158.06 140.44
  Q 160.99 144.41 163.10 149.12
  Z"
/>
<path fill="#040100" fill-opacity="0.996" d="
  M 158.52 148.37
  Q 160.91 150.96 163.10 149.12
  Q 163.46 149.78 164.53 150.47
  L 158.74 150.53
  L 158.52 148.37
  Z"
/>
<path fill="#ffffff" d="
  M 303.65 149.80
  Q 305.98 150.42 306.96 150.20
  Q 315.18 152.34 321.78 155.63
  Q 323.18 156.33 322.96 157.43
  Q 321.66 159.75 320.71 162.12
  C 320.19 163.41 319.18 165.01 317.54 164.27
  Q 316.46 163.79 316.02 162.59
  C 314.19 157.62 307.95 155.79 302.92 156.04
  C 295.50 156.39 290.76 159.04 285.36 164.30
  Q 280.62 168.92 278.88 171.38
  Q 270.44 183.38 269.24 197.67
  Q 269.65 202.88 273.78 204.91
  Q 275.82 206.45 278.44 205.94
  Q 284.14 206.10 287.05 201.50
  Q 290.04 196.78 293.19 188.64
  Q 293.95 187.74 293.74 186.44
  Q 293.66 185.95 293.23 185.69
  Q 290.65 184.16 290.90 182.19
  Q 292.27 181.02 294.25 181.01
  Q 306.77 180.97 319.29 181.02
  C 321.37 181.03 322.94 181.64 322.45 184.05
  C 320.62 185.68 318.42 184.92 317.34 187.57
  Q 312.52 199.37 306.75 211.81
  A 1.63 1.62 12.1 0 1 305.29 212.75
  Q 295.83 212.80 285.94 212.74
  C 285.00 212.73 284.22 212.39 283.67 211.62
  Q 283.31 211.11 282.70 211.26
  C 282.17 211.38 281.79 211.82 281.23 212.04
  Q 274.76 214.56 266.09 214.60
  Q 261.44 214.62 258.03 213.20
  Q 252.81 211.04 249.25 206.22
  Q 244.72 200.10 245.74 192.29
  Q 246.19 188.86 246.81 185.48
  L 248.63 180.37
  Q 251.04 173.95 255.61 167.99
  L 257.50 165.42
  Q 259.22 164.34 260.93 162.14
  Q 278.92 146.45 303.65 149.80
  Z"
/>
<path fill="#ffffff" d="
  M 444.19 157.17
  Q 443.08 159.24 442.38 161.45
  Q 441.80 163.30 440.37 164.99
  A 1.31 1.31 0.0 0 1 438.16 164.64
  Q 436.88 161.52 434.14 159.20
  Q 432.23 158.44 431.35 157.29
  Q 425.13 154.55 420.00 156.73
  Q 414.62 159.01 415.16 164.91
  Q 415.84 169.10 417.80 171.46
  Q 423.87 178.78 429.84 186.22
  Q 436.45 194.47 433.79 204.66
  Q 429.46 216.44 417.27 221.24
  Q 407.54 225.06 397.50 222.34
  Q 391.22 220.63 385.73 216.98
  A 1.23 1.22 -79.1 0 1 385.21 216.20
  Q 385.02 215.20 385.46 214.21
  A 0.71 0.71 0.0 0 0 384.81 213.21
  Q 372.45 213.23 360.26 213.20
  Q 357.59 213.19 357.14 210.85
  L 359.17 208.46
  Q 360.01 207.90 359.76 207.00
  Q 357.35 198.31 355.68 189.62
  A 1.11 1.11 0.0 0 0 354.59 188.72
  L 336.88 188.73
  A 1.65 1.64 -74.5 0 0 335.47 189.53
  L 324.52 207.95
  L 327.07 210.52
  Q 326.61 212.96 324.24 213.18
  Q 321.03 213.48 312.50 213.10
  Q 310.52 213.01 310.12 210.54
  C 311.65 208.03 314.05 208.93 315.64 206.41
  Q 332.78 179.27 350.16 151.71
  A 1.53 1.53 0.0 0 1 351.45 151.00
  Q 362.25 150.97 373.49 150.98
  Q 375.84 150.98 375.63 153.77
  Q 372.05 156.18 373.74 158.64
  Q 379.89 184.98 385.90 211.17
  Q 385.94 211.36 386.13 211.34
  Q 386.59 211.29 386.64 210.84
  Q 386.87 208.58 388.49 207.09
  A 1.69 1.69 0.0 0 1 391.17 207.61
  Q 395.46 216.77 405.99 216.23
  Q 410.88 215.98 413.07 212.32
  Q 415.25 207.62 412.42 203.83
  Q 409.87 200.42 400.29 189.22
  Q 395.10 183.15 394.56 173.64
  C 394.87 160.00 405.83 150.67 418.92 149.36
  C 427.48 148.50 435.58 150.10 442.89 154.85
  Q 444.25 155.74 444.19 157.17
  Z
  M 341.05 180.78
  Q 341.10 180.90 341.12 181.03
  Q 341.13 181.11 341.21 181.11
  L 353.35 181.14
  L 350.99 170.94
  Q 350.96 170.87 350.94 170.81
  Q 351.13 168.47 350.23 166.88
  A 0.50 0.50 0.0 0 0 349.37 166.86
  L 341.13 180.19
  Q 341.04 180.34 341.04 180.52
  Q 341.04 180.66 341.05 180.78
  Z"
/>
<path fill="#ffffff" d="
  M 568.95 156.22
  Q 566.87 159.06 565.64 162.78
  Q 565.11 164.40 564.13 165.16
  A 1.52 1.52 0.0 0 1 561.71 164.31
  Q 560.98 161.22 558.44 159.20
  Q 558.01 158.70 557.27 158.26
  C 553.86 155.70 547.19 155.26 543.44 157.21
  Q 538.04 160.02 539.37 166.14
  C 541.59 172.49 546.90 177.47 551.09 182.46
  Q 555.71 187.97 557.54 192.48
  Q 558.32 194.40 558.74 198.95
  Q 556.58 215.90 540.53 221.43
  Q 532.24 224.29 527.51 223.51
  Q 521.24 222.48 515.36 220.11
  Q 511.50 218.56 508.79 215.90
  C 509.52 213.44 510.83 208.33 512.85 206.95
  Q 514.28 205.97 515.09 207.51
  Q 520.77 218.30 533.04 215.80
  Q 535.58 215.29 537.55 211.56
  Q 539.32 207.63 536.91 204.34
  Q 534.25 200.74 526.90 192.15
  Q 522.65 187.18 521.16 184.00
  Q 519.04 179.42 518.43 174.24
  C 518.99 161.00 529.28 150.82 542.25 149.32
  Q 557.35 147.57 568.95 156.22
  Z"
/>
<path fill="#ffffff" d="
  M 158.74 150.53
  L 164.53 150.47
  Q 175.61 150.52 186.75 150.50
  Q 192.24 150.50 196.47 155.91
  Q 201.37 166.05 195.78 175.79
  C 194.11 178.69 191.11 181.65 188.50 183.67
  C 184.03 187.13 178.85 188.51 172.91 188.35
  Q 164.52 188.14 156.09 188.32
  Q 155.58 188.33 155.37 188.81
  L 147.63 207.16
  Q 147.46 207.58 147.65 207.99
  Q 147.91 208.57 148.50 208.99
  L 149.58 210.57
  Q 149.11 213.35 146.00 213.24
  Q 133.91 212.80 120.43 213.77
  L 144.54 157.70
  Q 145.53 156.92 144.99 155.75
  Q 144.41 154.49 142.71 154.22
  C 141.90 151.89 143.93 150.62 146.00 150.58
  Q 152.35 150.48 158.74 150.53
  Z
  M 160.50 180.96
  L 164.47 180.96
  Q 165.55 181.10 166.54 180.49
  Q 169.81 179.71 171.72 177.32
  L 173.49 175.40
  L 176.56 168.57
  C 178.71 163.16 176.20 157.96 170.35 157.25
  Q 169.10 157.10 168.60 158.26
  L 159.16 180.48
  A 0.37 0.36 11.2 0 0 159.50 180.98
  L 160.50 180.96
  Z"
/>
<path fill="#ffffff" d="
  M 207.64 150.57
  Q 207.72 150.44 207.94 150.55
  L 215.78 150.37
  L 225.06 150.60
  L 254.28 150.56
  L 257.23 150.73
  Q 257.79 150.76 257.82 151.32
  Q 257.84 151.92 257.41 152.65
  Q 255.83 155.78 254.50 158.97
  Q 253.93 160.36 252.89 161.06
  A 1.71 1.71 0.0 0 1 250.23 159.72
  Q 250.17 158.64 249.45 157.82
  Q 249.05 157.38 248.45 157.38
  L 234.48 157.35
  A 2.46 2.44 11.4 0 0 232.22 158.84
  L 224.90 176.00
  Q 224.33 176.74 224.36 177.53
  Q 224.38 178.06 224.90 178.18
  Q 225.65 178.34 226.53 178.19
  Q 231.78 178.25 237.05 178.22
  C 238.90 178.21 239.80 177.62 240.76 176.19
  A 2.03 2.03 0.0 0 1 241.78 175.41
  Q 244.28 174.55 245.15 176.94
  L 240.63 187.41
  A 1.62 1.62 0.0 0 1 239.14 188.39
  C 237.25 188.38 236.93 186.55 236.60 185.10
  A 0.87 0.86 -5.9 0 0 235.77 184.43
  L 221.67 184.41
  Q 221.21 184.41 221.06 184.83
  L 220.19 187.26
  L 215.45 198.02
  L 211.80 206.17
  L 235.51 206.18
  Q 236.99 205.19 238.17 203.95
  C 239.31 202.77 240.62 202.36 241.98 203.66
  A 1.92 1.92 0.0 0 1 242.42 205.80
  L 239.78 212.11
  A 1.76 1.75 40.0 0 1 238.16 213.19
  Q 212.48 213.22 186.75 213.15
  Q 185.71 213.14 184.50 213.71
  Q 183.18 213.89 184.08 211.85
  Q 186.81 205.68 189.65 199.61
  L 206.25 161.25
  L 207.74 157.76
  Q 208.41 157.19 208.02 156.48
  Q 207.23 155.03 205.99 154.48
  A 1.69 1.69 0.0 0 1 205.51 151.73
  Q 206.26 151.00 207.64 150.57
  Z"
/>
<path fill="#ffffff" d="
  M 482.53 154.97
  C 480.48 156.24 478.29 156.30 477.20 158.83
  Q 470.88 173.51 464.34 188.31
  C 462.42 192.67 459.43 199.08 460.65 203.69
  Q 461.95 207.57 466.03 207.64
  C 470.34 207.71 473.43 205.22 475.05 201.45
  Q 486.33 175.08 495.94 152.97
  A 1.96 1.96 0.0 0 1 497.74 151.79
  Q 510.23 151.72 521.54 151.79
  A 4.61 4.55 -30.3 0 1 523.66 152.33
  Q 524.64 152.86 524.21 154.76
  Q 523.22 155.54 522.04 155.98
  C 519.79 156.81 519.25 157.65 518.36 159.66
  Q 512.84 172.17 508.17 183.33
  Q 503.67 194.06 499.96 198.69
  C 488.13 213.41 468.43 219.68 450.50 213.24
  Q 441.81 210.12 438.42 200.62
  Q 437.91 192.23 440.80 184.74
  Q 443.28 178.31 451.99 158.52
  Q 452.97 157.73 452.34 156.67
  Q 451.61 155.44 449.84 154.87
  Q 450.13 151.80 454.25 151.78
  Q 472.38 151.69 480.25 151.79
  C 481.87 151.81 483.71 153.28 482.53 154.97
  Z"
/>
<path fill="#040100" fill-opacity="0.996" d="
  M 257.41 152.65
  L 257.44 153.66
  Q 257.45 154.06 257.82 154.20
  Q 258.00 154.26 258.18 154.24
  Q 257.18 155.67 254.95 160.90
  C 254.00 163.12 250.27 163.66 249.54 160.49
  Q 249.02 158.22 246.50 158.91
  Q 245.18 159.28 243.91 159.15
  L 244.09 158.91
  Q 244.31 158.61 243.94 158.56
  Q 237.00 157.72 232.44 162.74
  Q 229.96 165.47 228.46 168.84
  Q 228.14 169.56 228.69 169.00
  Q 229.52 168.14 230.56 167.72
  Q 228.24 170.12 227.40 172.98
  A 0.27 0.26 -1.9 0 0 227.75 173.30
  Q 230.89 172.20 234.03 171.30
  Q 245.45 168.02 256.59 164.28
  Q 257.62 163.93 258.72 163.07
  Q 259.79 162.23 260.93 162.14
  Q 259.22 164.34 257.50 165.42
  L 224.90 176.00
  L 232.22 158.84
  A 2.46 2.44 11.4 0 1 234.48 157.35
  L 248.45 157.38
  Q 249.05 157.38 249.45 157.82
  Q 250.17 158.64 250.23 159.72
  A 1.71 1.71 0.0 0 0 252.89 161.06
  Q 253.93 160.36 254.50 158.97
  Q 255.83 155.78 257.41 152.65
  Z
  M 233.09 159.52
  Q 232.37 160.14 232.32 161.09
  Q 232.29 161.60 232.72 161.31
  L 235.36 159.52
  Q 235.82 159.21 235.49 158.76
  Q 235.25 158.44 234.84 158.39
  Q 233.90 158.28 233.42 159.11
  Q 233.29 159.34 233.09 159.52
  Z"
/>
<path fill="#040100" fill-opacity="0.996" d="
  M 375.63 153.77
  Q 373.53 156.69 373.74 158.64
  Q 372.05 156.18 375.63 153.77
  Z"
/>
<path fill="#040100" fill-opacity="0.996" d="
  M 142.71 154.22
  Q 144.41 154.49 144.99 155.75
  Q 145.53 156.92 144.54 157.70
  Q 144.70 156.43 142.71 154.22
  Z"
/>
<path fill="#040100" fill-opacity="0.996" d="
  M 524.21 154.76
  C 523.37 158.04 520.24 157.05 519.14 159.53
  Q 513.46 172.22 508.68 183.81
  Q 504.07 194.94 500.33 199.52
  Q 491.94 209.80 480.72 214.06
  C 473.16 216.93 463.49 217.86 455.23 215.84
  C 446.66 213.74 440.39 209.98 438.42 200.62
  Q 441.81 210.12 450.50 213.24
  C 468.43 219.68 488.13 213.41 499.96 198.69
  Q 503.67 194.06 508.17 183.33
  Q 512.84 172.17 518.36 159.66
  C 519.25 157.65 519.79 156.81 522.04 155.98
  Q 523.22 155.54 524.21 154.76
  Z"
/>
<path fill="#040100" fill-opacity="0.996" d="
  M 449.84 154.87
  Q 451.61 155.44 452.34 156.67
  Q 452.97 157.73 451.99 158.52
  Q 451.48 156.83 449.84 154.87
  Z"
/>
<path fill="#040100" fill-opacity="0.996" d="
  M 482.53 154.97
  Q 482.17 156.34 481.22 156.79
  Q 477.86 158.41 476.68 161.20
  Q 469.70 177.67 462.62 194.09
  Q 460.60 198.79 460.65 203.69
  C 459.43 199.08 462.42 192.67 464.34 188.31
  Q 470.88 173.51 477.20 158.83
  C 478.29 156.30 480.48 156.24 482.53 154.97
  Z"
/>
<path fill="#040100" fill-opacity="0.996" d="
  M 322.96 157.43
  Q 322.20 162.58 319.78 164.84
  C 318.18 166.34 316.27 164.95 315.64 163.30
  Q 314.91 161.38 313.28 159.97
  A 1.73 1.73 0.0 0 0 310.78 160.22
  C 306.39 165.84 302.07 170.30 295.12 171.48
  Q 288.65 172.58 281.27 173.90
  C 279.01 174.31 277.16 175.19 276.04 177.30
  Q 274.46 180.27 273.11 182.81
  Q 272.87 183.26 273.36 183.37
  L 274.29 183.58
  C 272.08 184.92 271.54 189.37 271.55 191.53
  Q 271.55 192.16 272.15 192.32
  Q 273.10 192.59 273.97 192.08
  Q 274.53 191.75 275.17 191.71
  Q 280.36 191.39 284.86 191.12
  Q 288.23 190.92 291.63 188.36
  A 1.42 1.42 0.0 0 0 291.87 186.32
  L 288.89 182.71
  Q 289.79 182.23 290.90 182.19
  Q 290.65 184.16 293.23 185.69
  Q 293.66 185.95 293.74 186.44
  Q 293.95 187.74 293.19 188.64
  Q 291.46 189.75 290.00 191.02
  Q 288.63 192.20 283.78 192.51
  Q 277.18 192.94 270.94 193.53
  Q 270.39 193.58 270.13 194.06
  Q 269.08 195.98 270.74 196.89
  Q 270.27 198.33 269.24 197.67
  Q 270.44 183.38 278.88 171.38
  Q 280.62 168.92 285.36 164.30
  C 290.76 159.04 295.50 156.39 302.92 156.04
  C 307.95 155.79 314.19 157.62 316.02 162.59
  Q 316.46 163.79 317.54 164.27
  C 319.18 165.01 320.19 163.41 320.71 162.12
  Q 321.66 159.75 322.96 157.43
  Z
  M 280.53 173.21
  Q 280.70 173.35 280.89 173.28
  Q 286.59 171.25 292.79 170.57
  Q 297.45 170.05 300.56 168.39
  Q 305.79 165.59 310.12 159.89
  A 1.02 1.02 0.0 0 0 309.51 158.27
  C 300.16 156.36 292.64 158.68 286.29 165.25
  C 284.03 167.59 281.09 169.92 279.57 172.81
  A 0.33 0.32 -66.8 0 0 279.75 173.27
  Q 279.99 173.34 280.20 173.19
  Q 280.37 173.07 280.53 173.21
  Z"
/>
<path fill="#040100" fill-opacity="0.996" d="
  M 431.35 157.29
  Q 426.82 156.78 422.81 156.86
  A 0.02 0.02 0.0 0 0 422.81 156.90
  L 427.73 157.02
  Q 428.18 157.03 428.57 157.25
  Q 429.16 157.57 429.85 157.70
  A 0.66 0.60 -14.2 0 1 430.17 157.87
  Q 430.43 158.12 430.42 158.44
  Q 430.41 158.82 430.11 158.58
  Q 429.51 158.11 428.77 158.03
  Q 424.77 157.61 420.59 158.08
  Q 420.47 158.10 420.58 158.07
  Q 421.32 157.89 422.03 157.65
  Q 422.21 157.59 422.14 157.41
  L 422.14 157.41
  Q 422.09 157.28 421.97 157.34
  Q 420.97 157.82 419.90 157.48
  Q 419.46 157.35 419.54 157.80
  Q 419.57 157.95 419.48 158.07
  Q 419.40 158.18 419.30 158.24
  Q 415.44 160.49 415.16 164.91
  Q 414.62 159.01 420.00 156.73
  Q 425.13 154.55 431.35 157.29
  Z"
/>
<path fill="#040100" fill-opacity="0.996" d="
  M 557.27 158.26
  Q 555.85 158.68 555.42 158.05
  Q 555.16 157.67 554.70 157.62
  Q 547.44 156.92 545.55 157.52
  Q 538.92 159.61 539.37 166.14
  Q 538.04 160.02 543.44 157.21
  C 547.19 155.26 553.86 155.70 557.27 158.26
  Z"
/>
<path fill="#040100" fill-opacity="0.996" d="
  M 568.95 156.22
  Q 567.36 161.92 565.11 165.49
  A 1.96 1.96 0.0 0 1 561.72 165.37
  L 558.44 159.20
  Q 560.98 161.22 561.71 164.31
  A 1.52 1.52 0.0 0 0 564.13 165.16
  Q 565.11 164.40 565.64 162.78
  Q 566.87 159.06 568.95 156.22
  Z"
/>
<path fill="#040100" fill-opacity="0.996" d="
  M 176.56 168.57
  Q 177.68 162.82 174.74 160.01
  Q 173.14 158.48 169.99 158.80
  Q 169.48 158.86 169.21 159.29
  Q 168.53 160.37 168.76 161.51
  Q 163.83 168.04 164.51 176.02
  Q 164.09 174.54 164.05 173.49
  Q 163.94 170.79 162.82 173.25
  Q 161.42 176.34 159.96 180.11
  Q 159.81 180.51 160.16 180.74
  L 160.50 180.96
  L 159.50 180.98
  A 0.37 0.36 11.2 0 1 159.16 180.48
  L 168.60 158.26
  Q 169.10 157.10 170.35 157.25
  C 176.20 157.96 178.71 163.16 176.56 168.57
  Z"
/>
<path fill="#040100" fill-opacity="0.996" d="
  M 444.19 157.17
  Q 443.34 161.88 440.79 165.84
  A 1.55 1.55 0.0 0 1 438.16 165.81
  L 434.14 159.20
  Q 436.88 161.52 438.16 164.64
  A 1.31 1.31 0.0 0 0 440.37 164.99
  Q 441.80 163.30 442.38 161.45
  Q 443.08 159.24 444.19 157.17
  Z"
/>
<path fill="#ac0000" d="
  M 280.20 173.19
  Q 279.99 173.34 279.75 173.27
  A 0.33 0.32 -66.8 0 1 279.57 172.81
  C 281.09 169.92 284.03 167.59 286.29 165.25
  C 292.64 158.68 300.16 156.36 309.51 158.27
  A 1.02 1.02 0.0 0 1 310.12 159.89
  Q 305.79 165.59 300.56 168.39
  Q 297.45 170.05 292.79 170.57
  Q 286.59 171.25 280.89 173.28
  Q 280.70 173.35 280.53 173.21
  Q 280.37 173.07 280.20 173.19
  Z"
/>
<path fill="#840000" d="
  M 233.42 159.11
  Q 233.90 158.28 234.84 158.39
  Q 235.25 158.44 235.49 158.76
  Q 235.82 159.21 235.36 159.52
  L 232.72 161.31
  Q 232.29 161.60 232.32 161.09
  Q 232.37 160.14 233.09 159.52
  Q 233.29 159.34 233.42 159.11
  Z"
/>
<path fill="#ac0000" d="
  M 168.76 161.51
  L 172.35 172.78
  Q 172.56 174.74 171.72 177.32
  Q 169.81 179.71 166.54 180.49
  Q 166.66 180.30 166.59 180.18
  Q 166.54 180.09 166.36 180.08
  Q 164.73 179.94 164.85 178.30
  L 164.51 176.02
  Q 163.83 168.04 168.76 161.51
  Z"
/>
<path fill="#040100" fill-opacity="0.996" d="
  M 350.94 170.81
  L 350.13 169.26
  Q 349.89 168.81 349.41 168.99
  Q 348.32 169.40 347.85 170.35
  Q 345.25 175.59 341.60 180.60
  Q 341.51 180.72 341.36 180.76
  Q 341.22 180.79 341.05 180.78
  Q 341.04 180.66 341.04 180.52
  Q 341.04 180.34 341.13 180.19
  L 349.37 166.86
  A 0.50 0.50 0.0 0 1 350.23 166.88
  Q 351.13 168.47 350.94 170.81
  Z"
/>
<path fill="#040100" fill-opacity="0.996" d="
  M 255.61 167.99
  Q 251.04 173.95 248.63 180.37
  Q 246.35 179.92 244.68 181.04
  Q 243.94 181.54 243.45 182.74
  Q 243.04 183.75 242.61 184.73
  Q 242.05 185.99 243.43 186.20
  C 241.72 187.11 240.99 189.13 239.58 189.70
  Q 238.09 190.31 237.01 188.73
  Q 236.27 187.65 235.37 187.15
  C 234.31 186.56 233.02 187.16 231.75 186.98
  L 235.88 186.24
  Q 236.06 186.20 236.06 186.01
  L 236.07 185.72
  Q 236.07 185.59 235.94 185.58
  Q 230.57 185.38 225.24 185.61
  Q 221.77 185.77 220.19 187.26
  L 221.06 184.83
  Q 221.21 184.41 221.67 184.41
  L 235.77 184.43
  A 0.87 0.86 -5.9 0 1 236.60 185.10
  C 236.93 186.55 237.25 188.38 239.14 188.39
  A 1.62 1.62 0.0 0 0 240.63 187.41
  L 245.15 176.94
  Q 245.73 177.24 245.81 178.41
  Q 245.87 179.26 246.70 179.06
  L 247.68 178.83
  Q 248.27 178.69 248.55 178.16
  L 253.62 168.73
  Q 254.44 168.20 255.61 167.99
  Z"
/>
<path fill="#ac0000" d="
  M 253.62 168.73
  L 248.55 178.16
  Q 248.27 178.69 247.68 178.83
  L 246.70 179.06
  Q 245.87 179.26 245.81 178.41
  Q 245.73 177.24 245.15 176.94
  Q 244.28 174.55 241.78 175.41
  A 2.03 2.03 0.0 0 0 240.76 176.19
  C 239.80 177.62 238.90 178.21 237.05 178.22
  Q 231.78 178.25 226.53 178.19
  Q 226.54 177.54 226.13 177.25
  Q 225.73 176.97 226.10 176.65
  Q 226.37 176.42 226.97 176.24
  L 253.62 168.73
  Z"
/>
<path fill="#040100" fill-opacity="0.996" d="
  M 350.99 170.94
  L 353.35 181.14
  Q 351.36 176.07 350.99 170.94
  Z"
/>
<path fill="#040100" fill-opacity="0.996" d="
  M 104.71 183.95
  Q 102.68 179.10 99.46 175.53
  C 96.58 172.32 92.82 172.64 88.90 172.91
  C 84.82 173.20 80.06 178.70 78.02 181.59
  Q 74.93 185.96 71.96 191.00
  C 70.08 194.18 66.92 197.27 63.12 197.96
  Q 57.09 199.05 55.22 193.03
  Q 60.64 199.85 67.15 195.16
  Q 69.94 193.15 72.29 188.94
  C 76.04 182.19 81.33 173.77 88.94 171.65
  Q 91.60 170.91 94.82 171.75
  Q 97.52 172.46 99.68 174.50
  Q 103.85 178.42 104.71 183.95
  Z"
/>
<path fill="#040100" fill-opacity="0.996" d="
  M 172.35 172.78
  Q 172.68 174.55 173.49 175.40
  L 171.72 177.32
  Q 172.56 174.74 172.35 172.78
  Z"
/>
<path fill="#040100" fill-opacity="0.996" d="
  M 394.56 173.64
  Q 395.10 183.15 400.29 189.22
  Q 409.87 200.42 412.42 203.83
  Q 415.25 207.62 413.07 212.32
  Q 414.36 207.36 411.99 204.48
  Q 409.17 201.06 406.54 197.65
  Q 406.45 197.53 401.36 191.61
  C 396.92 186.44 394.00 180.71 394.56 173.64
  Z"
/>
<path fill="#040100" fill-opacity="0.996" d="
  M 518.43 174.24
  Q 519.04 179.42 521.16 184.00
  Q 522.65 187.18 526.90 192.15
  Q 534.25 200.74 536.91 204.34
  Q 539.32 207.63 537.55 211.56
  Q 538.42 207.97 536.87 205.72
  Q 532.95 200.08 525.89 192.14
  C 521.60 187.32 518.26 180.81 518.43 174.24
  Z"
/>
<path fill="#040100" fill-opacity="0.996" d="
  M 127.67 175.73
  L 126.28 177.86
  Q 125.65 177.90 126.55 176.18
  Q 128.10 173.83 127.67 175.73
  Z"
/>
<path fill="#040100" fill-opacity="0.996" d="
  M 224.90 176.00
  Q 225.07 176.75 226.97 176.24
  Q 226.37 176.42 226.10 176.65
  Q 225.73 176.97 226.13 177.25
  Q 226.54 177.54 226.53 178.19
  Q 225.65 178.34 224.90 178.18
  Q 224.38 178.06 224.36 177.53
  Q 224.33 176.74 224.90 176.00
  Z"
/>
<path fill="#040100" fill-opacity="0.996" d="
  M 31.48 176.34
  Q 32.44 189.10 42.85 196.12
  C 43.76 196.74 45.55 196.61 46.48 195.90
  Q 53.91 190.20 58.66 183.52
  A 0.58 0.58 0.0 0 1 59.71 183.76
  Q 59.95 185.34 59.32 187.06
  Q 59.45 186.09 59.14 185.21
  Q 58.91 184.58 58.50 185.11
  Q 57.13 186.85 55.77 188.56
  C 53.43 191.53 50.32 193.89 47.56 196.46
  Q 44.91 198.93 41.87 196.68
  Q 34.26 191.07 32.26 183.38
  Q 31.99 182.34 31.43 181.42
  C 30.56 180.00 30.02 177.39 31.48 176.34
  Z"
/>
<path fill="#840000" d="
  M 126.55 176.18
  Q 125.65 177.90 126.28 177.86
  Q 118.82 188.33 115.80 198.76
  C 112.94 208.66 114.62 219.85 123.43 226.18
  Q 132.50 232.70 144.68 228.98
  Q 150.91 227.07 155.01 222.91
  Q 157.83 220.05 160.02 213.16
  Q 163.38 202.62 164.73 190.65
  L 165.63 189.95
  Q 166.02 189.64 166.52 189.60
  Q 171.64 189.13 175.75 190.45
  Q 176.85 201.26 176.53 216.75
  Q 176.48 219.14 175.60 220.12
  Q 170.90 225.38 165.03 229.28
  Q 164.07 229.22 163.22 229.97
  Q 162.92 230.23 162.60 230.03
  Q 162.35 229.87 162.20 230.12
  Q 161.71 230.89 160.82 231.07
  Q 160.36 231.16 160.03 231.48
  Q 159.30 232.19 158.47 232.66
  Q 153.49 235.43 148.23 238.42
  Q 147.11 239.06 145.98 239.31
  Q 145.27 239.46 144.60 239.72
  Q 134.17 243.81 123.04 245.59
  C 118.42 246.33 113.63 246.01 108.89 246.06
  C 98.91 246.16 89.14 243.86 79.77 240.22
  Q 79.41 240.08 79.03 240.16
  Q 78.85 240.19 78.65 240.21
  Q 78.61 239.36 78.99 238.74
  Q 90.65 219.71 100.83 199.85
  C 102.00 197.57 102.70 195.19 103.43 192.79
  Q 103.94 193.29 104.00 193.77
  Q 104.08 194.45 104.73 194.28
  Q 106.47 193.85 108.21 193.90
  Q 111.57 193.99 114.79 192.35
  Q 115.53 191.97 116.26 192.35
  Q 116.55 192.50 116.66 192.19
  Q 116.93 191.44 117.61 191.02
  Q 118.15 190.68 118.19 190.05
  Q 118.25 189.10 119.05 188.59
  A 1.29 1.28 74.5 0 0 119.65 187.52
  Q 119.65 186.79 120.25 186.34
  Q 120.66 186.04 120.83 185.57
  Q 121.72 183.14 123.36 180.81
  Q 123.44 180.70 123.50 180.75
  Q 123.57 180.81 123.60 180.75
  Q 124.77 178.35 126.55 176.18
  Z"
/>
<path fill="#040100" fill-opacity="0.996" d="
  M 164.85 178.30
  Q 164.73 179.94 166.36 180.08
  Q 166.54 180.09 166.59 180.18
  Q 166.66 180.30 166.54 180.49
  Q 165.55 181.10 164.47 180.96
  L 164.85 178.30
  Z"
/>
<path fill="#040100" fill-opacity="0.996" d="
  M 38.38 183.81
  L 38.24 182.88
  Q 38.14 182.20 37.64 182.68
  Q 37.09 183.22 36.83 184.07
  Q 36.62 182.72 37.14 181.96
  Q 38.77 179.60 38.65 182.47
  Q 38.65 182.53 38.38 183.81
  Z"
/>
<path fill="#ac0000" d="
  M 288.89 182.71
  L 291.87 186.32
  A 1.42 1.42 0.0 0 1 291.63 188.36
  Q 288.23 190.92 284.86 191.12
  Q 280.36 191.39 275.17 191.71
  Q 274.53 191.75 273.97 192.08
  Q 273.10 192.59 272.15 192.32
  Q 271.55 192.16 271.55 191.53
  C 271.54 189.37 272.08 184.92 274.29 183.58
  L 288.89 182.71
  Z"
/>
<path fill="#040100" fill-opacity="0.996" d="
  M 322.45 184.05
  C 322.58 185.33 321.31 186.22 320.13 186.45
  Q 318.24 186.83 317.46 188.62
  Q 312.22 200.59 306.83 213.19
  A 1.00 1.00 0.0 0 1 305.94 213.80
  Q 296.68 214.22 286.50 213.96
  Q 284.74 213.91 283.60 213.11
  Q 283.16 212.80 282.65 212.93
  Q 281.01 213.36 279.24 213.91
  Q 272.05 216.14 264.62 215.65
  C 258.07 215.21 252.95 212.78 249.32 207.78
  C 248.44 206.57 247.18 206.25 245.77 206.01
  Q 243.42 205.60 242.35 207.54
  Q 239.63 212.47 241.00 213.84
  Q 238.15 214.47 232.00 214.32
  Q 229.76 214.26 220.99 214.69
  Q 220.49 214.71 220.40 215.08
  Q 220.28 215.56 220.66 215.87
  L 221.79 216.77
  Q 220.76 216.80 220.25 217.04
  L 206.61 214.37
  Q 203.89 214.11 201.05 214.96
  Q 193.02 213.83 185.56 215.17
  L 185.75 214.63
  Q 185.94 214.09 185.39 213.95
  L 184.50 213.71
  Q 185.71 213.14 186.75 213.15
  Q 212.48 213.22 238.16 213.19
  A 1.76 1.75 1.9 0 0 239.78 212.11
  L 242.42 205.80
  A 1.92 1.92 0.0 0 0 241.98 203.66
  C 240.62 202.36 239.31 202.77 238.17 203.95
  Q 236.99 205.19 235.51 206.18
  Q 235.61 205.22 233.99 205.17
  Q 221.03 204.77 216.49 204.42
  Q 214.05 204.23 211.80 206.17
  L 215.45 198.02
  Q 215.60 198.14 215.64 198.31
  Q 215.68 198.52 215.83 198.38
  Q 216.31 197.95 216.96 198.40
  Q 215.06 200.13 214.78 202.66
  A 0.79 0.79 0.0 0 0 215.80 203.50
  Q 217.88 202.87 219.65 203.31
  C 222.15 203.94 224.67 203.51 227.26 203.84
  Q 229.17 204.08 231.17 204.02
  Q 233.13 203.95 234.96 204.27
  C 237.41 204.71 237.56 202.28 239.47 201.81
  Q 240.88 201.46 241.95 202.38
  Q 242.98 203.27 243.82 204.32
  Q 244.36 205.00 245.22 205.14
  Q 245.85 205.24 246.19 204.76
  Q 246.51 204.32 246.30 203.82
  L 243.73 197.75
  Q 244.18 197.56 244.67 197.58
  Q 245.14 197.61 245.16 197.13
  Q 245.23 195.43 243.76 195.52
  Q 231.12 196.35 218.50 197.22
  Q 216.95 197.33 215.45 198.02
  L 220.19 187.26
  Q 220.40 188.14 221.60 187.74
  Q 218.67 190.96 217.69 195.67
  Q 217.55 196.32 218.21 196.40
  C 219.88 196.61 221.11 195.72 222.80 195.63
  Q 233.17 195.10 243.34 194.39
  A 0.94 0.94 0.0 0 0 244.19 193.65
  Q 244.84 190.50 245.62 187.26
  Q 245.75 186.69 245.24 185.93
  L 246.81 185.48
  Q 246.19 188.86 245.74 192.29
  Q 244.72 200.10 249.25 206.22
  Q 252.81 211.04 258.03 213.20
  Q 261.44 214.62 266.09 214.60
  Q 274.76 214.56 281.23 212.04
  C 281.79 211.82 282.17 211.38 282.70 211.26
  Q 283.31 211.11 283.67 211.62
  C 284.22 212.39 285.00 212.73 285.94 212.74
  Q 295.83 212.80 305.29 212.75
  A 1.63 1.62 12.1 0 0 306.75 211.81
  Q 312.52 199.37 317.34 187.57
  C 318.42 184.92 320.62 185.68 322.45 184.05
  Z"
/>
<path fill="#ac0000" d="
  M 245.24 185.93
  Q 245.75 186.69 245.62 187.26
  Q 244.84 190.50 244.19 193.65
  A 0.94 0.94 0.0 0 1 243.34 194.39
  Q 233.17 195.10 222.80 195.63
  C 221.11 195.72 219.88 196.61 218.21 196.40
  Q 217.55 196.32 217.69 195.67
  Q 218.67 190.96 221.60 187.74
  L 231.75 186.98
  C 233.02 187.16 234.31 186.56 235.37 187.15
  Q 236.27 187.65 237.01 188.73
  Q 238.09 190.31 239.58 189.70
  C 240.99 189.13 241.72 187.11 243.43 186.20
  L 245.24 185.93
  Z"
/>
<path fill="#040100" fill-opacity="0.996" d="
  M 359.17 208.46
  L 355.12 190.78
  Q 354.92 189.91 354.02 189.90
  L 338.40 189.69
  A 3.87 3.87 0.0 0 0 335.09 191.47
  L 324.52 207.95
  L 335.47 189.53
  A 1.65 1.64 -74.5 0 1 336.88 188.73
  L 354.59 188.72
  A 1.11 1.11 0.0 0 1 355.68 189.62
  Q 357.35 198.31 359.76 207.00
  Q 360.01 207.90 359.17 208.46
  Z"
/>
<path fill="#ac0000" d="
  M 270.74 196.89
  L 283.25 196.93
  A 0.86 0.86 0.0 0 1 284.09 197.70
  Q 284.22 199.16 283.68 199.47
  Q 281.13 202.88 277.95 204.82
  Q 277.53 205.07 277.03 205.05
  L 273.78 204.91
  Q 269.65 202.88 269.24 197.67
  Q 270.27 198.33 270.74 196.89
  Z"
/>
<path fill="#ac0000" d="
  M 243.73 197.75
  L 246.30 203.82
  Q 246.51 204.32 246.19 204.76
  Q 245.85 205.24 245.22 205.14
  Q 244.36 205.00 243.82 204.32
  Q 242.98 203.27 241.95 202.38
  Q 240.88 201.46 239.47 201.81
  C 237.56 202.28 237.41 204.71 234.96 204.27
  Q 233.13 203.95 231.17 204.02
  Q 229.17 204.08 227.26 203.84
  C 224.67 203.51 222.15 203.94 219.65 203.31
  Q 217.88 202.87 215.80 203.50
  A 0.79 0.79 0.0 0 1 214.78 202.66
  Q 215.06 200.13 216.96 198.40
  L 243.73 197.75
  Z"
/>
<path fill="#040100" fill-opacity="0.996" d="
  M 558.74 198.95
  C 558.69 209.92 551.45 218.99 541.22 222.54
  C 534.55 224.86 528.49 225.50 522.31 223.58
  Q 520.07 222.89 517.92 222.24
  Q 512.44 220.59 509.10 217.65
  Q 508.44 217.07 508.79 215.90
  Q 511.50 218.56 515.36 220.11
  Q 521.24 222.48 527.51 223.51
  Q 532.24 224.29 540.53 221.43
  Q 556.58 215.90 558.74 198.95
  Z"
/>
<path fill="#040100" fill-opacity="0.996" d="
  M 283.68 199.47
  Q 283.44 201.92 281.53 203.30
  Q 279.45 204.80 278.44 205.94
  Q 275.82 206.45 273.78 204.91
  L 277.03 205.05
  Q 277.53 205.07 277.95 204.82
  Q 281.13 202.88 283.68 199.47
  Z"
/>
<path fill="#040100" fill-opacity="0.996" d="
  M 433.79 204.66
  Q 430.98 216.12 419.47 221.47
  Q 406.09 227.68 391.91 221.53
  Q 388.19 219.91 386.13 218.48
  C 384.92 217.63 384.63 216.45 384.75 215.07
  A 0.60 0.59 -87.8 0 0 384.15 214.42
  Q 374.19 214.50 364.50 214.53
  C 362.20 214.53 356.02 214.85 357.14 210.85
  Q 357.59 213.19 360.26 213.20
  Q 372.45 213.23 384.81 213.21
  A 0.71 0.71 0.0 0 1 385.46 214.21
  Q 385.02 215.20 385.21 216.20
  A 1.23 1.22 -79.1 0 0 385.73 216.98
  Q 391.22 220.63 397.50 222.34
  Q 407.54 225.06 417.27 221.24
  Q 429.46 216.44 433.79 204.66
  Z"
/>
<path fill="#040100" fill-opacity="0.996" d="
  M 149.58 210.57
  C 150.60 213.42 147.85 214.28 145.75 214.40
  Q 133.63 215.07 120.43 213.77
  Q 133.91 212.80 146.00 213.24
  Q 149.11 213.35 149.58 210.57
  Z"
/>
<path fill="#040100" fill-opacity="0.996" d="
  M 310.12 210.54
  Q 310.52 213.01 312.50 213.10
  Q 321.03 213.48 324.24 213.18
  Q 326.61 212.96 327.07 210.52
  Q 327.44 211.84 326.94 213.01
  Q 326.73 213.47 326.26 213.66
  C 322.81 215.02 317.25 214.60 313.15 214.31
  C 311.15 214.16 309.88 212.53 310.12 210.54
  Z"
/>
<path fill="#840000" d="
  M 241.00 213.84
  L 261.77 216.99
  Q 262.85 217.46 262.98 218.14
  Q 263.08 218.67 262.69 219.05
  C 259.22 222.47 254.44 222.23 250.03 221.40
  Q 238.47 219.22 226.77 217.67
  Q 224.25 217.74 221.79 216.77
  L 220.66 215.87
  Q 220.28 215.56 220.40 215.08
  Q 220.49 214.71 220.99 214.69
  Q 229.76 214.26 232.00 214.32
  Q 238.15 214.47 241.00 213.84
  Z"
/>
<path fill="#840000" d="
  M 201.05 214.96
  Q 199.39 217.45 198.64 217.50
  Q 189.80 226.98 180.50 235.60
  Q 173.97 241.64 165.86 245.76
  Q 165.40 245.99 165.16 246.43
  Q 164.88 246.96 164.31 247.10
  Q 162.68 247.50 161.54 248.05
  Q 153.47 251.96 145.74 253.86
  Q 141.00 255.02 133.31 255.95
  Q 126.40 256.78 120.81 256.65
  Q 102.91 256.24 89.01 251.97
  Q 77.92 248.55 74.30 247.86
  Q 71.26 247.08 68.30 245.15
  Q 67.44 244.59 68.46 244.55
  C 70.20 244.48 71.74 244.39 73.45 244.87
  Q 93.97 250.64 116.17 249.07
  Q 134.64 247.77 149.75 242.68
  Q 154.66 241.02 159.69 239.12
  C 170.17 235.15 179.76 224.59 185.56 215.17
  Q 193.02 213.83 201.05 214.96
  Z"
/>
<path fill="#840000" d="
  M 220.25 217.04
  L 252.51 224.38
  C 251.76 230.58 240.15 229.47 236.51 228.28
  Q 220.87 223.16 204.44 219.34
  Q 205.00 216.79 206.61 214.37
  L 220.25 217.04
  Z"
/>
<path fill="#040100" fill-opacity="0.996" d="
  M 261.77 216.99
  Q 262.90 216.83 263.13 216.98
  A 1.64 1.64 0.0 0 1 263.43 219.39
  Q 259.40 224.10 253.23 223.08
  Q 239.95 220.88 226.77 217.67
  Q 238.47 219.22 250.03 221.40
  C 254.44 222.23 259.22 222.47 262.69 219.05
  Q 263.08 218.67 262.98 218.14
  Q 262.85 217.46 261.77 216.99
  Z"
/>
<path fill="#040100" fill-opacity="0.996" d="
  M 198.64 217.50
  Q 196.83 220.75 193.31 224.31
  C 186.03 231.67 178.60 239.64 170.10 244.70
  Q 152.24 255.32 132.99 257.33
  Q 103.05 260.46 74.30 247.86
  Q 77.92 248.55 89.01 251.97
  Q 102.91 256.24 120.81 256.65
  Q 126.40 256.78 133.31 255.95
  Q 141.00 255.02 145.74 253.86
  Q 153.47 251.96 161.54 248.05
  Q 162.68 247.50 164.31 247.10
  Q 164.88 246.96 165.16 246.43
  Q 165.40 245.99 165.86 245.76
  Q 173.97 241.64 180.50 235.60
  Q 189.80 226.98 198.64 217.50
  Z"
/>
<path fill="#040100" fill-opacity="0.996" d="
  M 204.44 219.34
  Q 220.87 223.16 236.51 228.28
  C 240.15 229.47 251.76 230.58 252.51 224.38
  C 254.54 227.16 248.92 229.69 246.99 230.00
  Q 241.83 230.83 236.81 229.51
  Q 220.56 225.22 204.44 219.34
  Z"
/>
<path fill="#840000" d="
  M 219.18 233.71
  Q 218.76 233.29 218.14 234.14
  Q 214.71 238.85 208.47 239.33
  Q 202.54 239.78 198.45 238.40
  Q 197.93 238.23 197.90 238.77
  Q 197.85 239.59 198.71 239.63
  Q 199.80 241.25 203.70 245.75
  Q 204.33 246.47 203.83 246.93
  Q 199.55 247.81 196.42 246.52
  A 0.43 0.43 0.0 0 0 195.83 246.99
  Q 195.98 247.78 196.46 248.00
  Q 197.34 249.06 197.77 250.83
  Q 177.60 262.01 155.50 263.32
  Q 146.32 263.86 135.76 262.00
  Q 133.63 261.62 133.03 260.09
  Q 143.67 258.64 153.98 255.92
  C 172.26 251.10 189.08 240.68 199.39 225.02
  A 0.98 0.98 0.0 0 1 200.54 224.63
  Q 209.62 227.80 219.17 231.21
  A 1.23 1.20 -19.0 0 1 219.38 231.31
  Q 220.73 232.24 219.18 233.71
  Z"
/>
<path fill="#040100" fill-opacity="0.996" d="
  M 165.03 229.28
  Q 146.26 242.97 123.55 246.60
  Q 118.95 247.34 114.49 247.28
  C 110.42 247.23 106.27 247.46 102.21 247.01
  Q 90.71 245.71 79.70 241.30
  Q 78.88 240.97 78.65 240.21
  Q 78.85 240.19 79.03 240.16
  Q 79.41 240.08 79.77 240.22
  C 89.14 243.86 98.91 246.16 108.89 246.06
  C 113.63 246.01 118.42 246.33 123.04 245.59
  Q 134.17 243.81 144.60 239.72
  Q 145.27 239.46 145.98 239.31
  Q 147.11 239.06 148.23 238.42
  Q 153.49 235.43 158.47 232.66
  Q 159.30 232.19 160.03 231.48
  Q 160.36 231.16 160.82 231.07
  Q 161.71 230.89 162.20 230.12
  Q 162.35 229.87 162.60 230.03
  Q 162.92 230.23 163.22 229.97
  Q 164.07 229.22 165.03 229.28
  Z"
/>
<path fill="#040100" fill-opacity="0.996" d="
  M 219.18 233.71
  Q 215.99 239.32 209.25 240.50
  Q 203.71 241.46 198.71 239.63
  Q 197.85 239.59 197.90 238.77
  Q 197.93 238.23 198.45 238.40
  Q 202.54 239.78 208.47 239.33
  Q 214.71 238.85 218.14 234.14
  Q 218.76 233.29 219.18 233.71
  Z"
/>
<path fill="#040100" fill-opacity="0.996" d="
  M 203.83 246.93
  C 203.12 249.55 199.14 248.30 197.01 247.67
  Q 196.55 247.53 196.46 248.00
  Q 195.98 247.78 195.83 246.99
  A 0.43 0.43 0.0 0 1 196.42 246.52
  Q 199.55 247.81 203.83 246.93
  Z"
/>
<path fill="#040100" fill-opacity="0.996" d="
  M 197.77 250.83
  Q 183.38 260.80 166.50 263.51
  Q 162.03 264.22 159.28 264.72
  Q 155.82 265.35 153.07 265.33
  C 150.41 265.32 147.80 265.45 145.19 264.98
  Q 138.26 263.72 131.34 262.05
  A 0.98 0.98 0.0 0 1 130.77 260.54
  Q 131.41 259.63 133.03 260.09
  Q 133.63 261.62 135.76 262.00
  Q 146.32 263.86 155.50 263.32
  Q 177.60 262.01 197.77 250.83
  Z"
/>
</svg>
