<?xml version="1.0" encoding="UTF-8"?><svg id="Layer_1" xmlns="http://www.w3.org/2000/svg" width="536.57" height="217.64" viewBox="0 0 536.57 217.64"><path d="M116.05,12.51c0-1,.2-1.7.6-2.1.2-.3.3-.5.3-.9.1-1-.2-1.8-.7-2.6-.2-.2-.1-.4.1-.5.3-.1.6-.3.8-.6.2-.3.2-.6,0-.8-.6-.6-1.2-1.1-2-1.3-.5-.2-.8,0-1.1.4-.4.7-1.1,1.2-2,1.5-.3.1-.4.4-.3.6v.1c.4.7.4,1.4.2,2-.1.3-.1.6.2.9,1.5,1.5,2,2.7,1.7,3.5-.2-.5-.5-.6-1-.4-1.6-1-2.5-2.2-2.6-3.4,0-.3-.1-.6-.3-.9-1.5-2.5.5-6.1,2.7-7.3,3.9-2.1,8.6.7,9.1,5,.3,2.5-.7,4.5-3,6.1-.9.9-1.8,1.1-2.7.7ZM119.35,5.81l-.3.1c-.4.2-.6.5-.4.9.2.7.7,1.1,1.6,1.2.2,0,.4-.1.5-.3h0c.5-3.6-.8-5.6-3.9-6.2-.9-.2-1.7-.3-2.4-.4-.4,0-.7,0-1,.2s-.5.5-.5.9.3.7.7.7c.1,0,.2,0,.3-.1.9-.5,1.8-.6,2.8-.4.3.1.6.3.8.5l1.9,2.3c.1.2.1.4-.1.6,0-.1,0,0,0,0Z" style="fill:#9bb0c4; stroke-width:0px;"/><path d="M119.45,5.31l-1.9-2.3c-.2-.3-.5-.4-.8-.5-1-.2-1.9-.1-2.8.4-.3.2-.8,0-.9-.3,0-.1-.1-.2-.1-.3,0-.4.1-.7.5-.9.3-.2.6-.3,1-.2.7.1,1.5.2,2.4.4,3,.6,4.3,2.7,3.9,6.2,0,.2-.2.4-.4.4h0c-.9-.1-1.4-.5-1.6-1.2-.1-.4,0-.7.4-.9l.3-.1c.1-.3.1-.5,0-.7.1,0,0,0,0,0Z" style="fill:#fff; stroke-width:0px;"/><path d="M116.05,12.51c-.2-.1-.3,0-.5.1-.1.1-.2.2-.2.4-1.1,7.2-2.2,14.3-3.4,21.5-.5,3.2-1.1,6.3-1.6,9.3-1.8,6.1-3.1,12.3-4,18.4l-1.1.9c-.1.1-.2.1-.2.2-.3,0-.5-.2-.6-.6l3.9-20.5h0v-.1c1.9-9.6,3.7-19.4,5.4-29.3.3-.8-.2-2-1.7-3.5-.2-.3-.3-.5-.2-.9.3-.7.2-1.4-.2-2-.1-.2-.1-.6.2-.7h.1c.9-.3,1.5-.8,2-1.5.2-.4.6-.6,1.1-.4.8.3,1.4.7,2,1.3.2.3.2.6,0,.8-.2.3-.5.4-.8.6-.3.1-.3.3-.1.5.5.7.8,1.6.7,2.6,0,.3-.1.6-.3.9-.3.3-.5,1-.5,2Z" style="fill:#006bb5; stroke-width:0px;"/><path d="M112.95,12.41c.4-.3.8-.1,1,.4-1.7,9.9-3.5,19.7-5.4,29.3v.1h0c-.7-1-1-.5-1,1.4,0,.3,0,.7-.1,1l-4.7,17.6c-.1,0-.3.1-.3.2-.1-.5-.1-.8-.1-1,1.9-9.2,3.8-18.3,5.7-27.5,1.4-7.2,3-14.4,4.9-21.5Z" style="fill:#d6d6d6; stroke-width:0px;"/><path d="M8.75,36.51c-.6-.1-1-.3-1.2-.7-.6-.9-1.8-1.1-2.7-.5-.2.1-.3.3-.5.4-.6.7-1.3,1.2-2.1,1.6-.4.2-.5.4-.2.8l.3.3c.3.3.3.6.1,1l-1.3,2.2c-.9-2.3-1.3-3.8-1.1-4.7.5-2.2,1.7-3.8,3.5-4.9,1.6-.9,3.1-.9,4.7-.1,2.4,1.3,4.6,4,3.7,6.8,0,.2-.2.3-.4.2-.1,0-.2-.1-.2-.2-.4-.8-.5-1.6-.6-2.4,0-1.5-1.8-3.5-3.3-3.4-.3,0-.5,0-.7-.2-.6-.6-1.4-.7-2.2-.5-1,.3-1.4.8-1.4,1.6,0,.4.3.6.6.5.8-.1,1.4-.4,1.9-1,.3-.3.6-.3.8,0,.1.1.1.2,0,.3-.1.2,0,.4.1.5h.1c1.8.5,2.3,1.2,2.1,2.4Z" style="fill:#9bb0c4; stroke-width:0px;"/><path d="M8.75,36.51c-.4,2.4.2,3.5,1.9,3.4-.7.6-.5,1.3.6,1.9-.6.2-1.1.6-1.3,1-3.6,1.9-6.5,1.4-8.7-1.3l1.3-2.2c.2-.4.2-.7-.1-1l-.3-.3c-.3-.3-.3-.6.2-.8.8-.3,1.5-.9,2.1-1.6.7-.9,1.9-1,2.8-.4.2.1.3.3.4.4.1.6.5.8,1.1.9Z" style="fill:#0084c6; stroke-width:0px;"/><path d="M10.65,39.91l27,18.7c6.9,6.1,14.2,11.6,21.9,16.6,0,.7-.3,1.2-.8,1.4,0,.3-.3.2-.9-.3l-24.7-18.2-21.9-16.2c-1.1-.7-1.3-1.4-.6-2Z" style="fill:#006bb5; stroke-width:0px;"/><path d="M108.35,42.11l-3.9,20.5c-.8.4-1.4.3-1.8-.5l4.6-17.6c.1-.3.1-.7.1-1,0-1.9.3-2.4,1-1.4Z" style="fill:#fff; stroke-width:0px;"/><path d="M11.25,41.91l21.8,16.3c7.4,6.6,15.1,12.8,23.2,18.5.6.4,1.1.4,1.5-.2.6.4.9.5.9.3,1,0,2-.2,3-.7,1.5-.8,2.4-1.2,2.7-1.3,1.5-.5,2.9-1.1,4.4-1.7.3-.1.7-.2,1-.1.5.1.9-.1,1.2-.5.2-.3.5-.6.9-.7,1.3-.4,2.5-.7,3.8-.7s2.5-.4,3.6-1c1.4-.8,2.8-1.3,4.1-1.6,3.2-.7,6.3-1.5,9.3-2.2,1.1-.3,2.9-.6,5.4-1,1.6-.2,3.4-.6,5.4-1.1.7-.2,1.1-.4,1.4-.8.1-.1.2-.1.2-.2,1.2.7,2.2,1,3.1.7.3-.1.6-.1,1-.1,2.3.2,4.3-.4,6.3-.3,4.2.3,8.5-.1,12.7.3,3.6.3,7.2.5,10.6.5.3,0,.5-.1.6-.2.1-.2.1-.4,0-.8,8.1.9,16,2.5,23.8,5,1.5.5,2.1,1.4,2.7,2.7,2.3,4.9,4.4,9.9,6.5,15,6.5,15.9,9.4,33.2,10.2,50.6.3,8.1-.1,15.7-1.4,23,.1-.3.1-.5-.1-.7-.2-.2-.4-.2-.7.2l.1-2c1.5-13.6,1.2-27.4-1.1-41.4-.1-.5-.5-.9-1-1-.4-.1-.7-.3-1-.5-.3-.3-.5-.6-.5-1.1-1.3-9.4-3.8-18.8-7.4-28.2-1.9-4.8-3.6-9.5-5.4-14.1-1-1.4-2.6-2.2-4.9-2.5-1-.1-3.2-.6-6.5-1.5-4.1-1.1-8.4-1.3-12.9-.6-1.4.2-2.9.3-4.4.2-.3,0-.5-.1-.7-.3-.2-.2-.5-.3-.8-.3h-27.3c-.2,0-.4.1-.6.3l-.2.2c-.2.2-.4.3-.7.3h-5.4s-.1,0-.1.1v.1c.1.1.1.2,0,.4-.2.2-.5.3-.8.2-1.5-.2-2.8,0-3.9.6-.9.4-1.7.6-2.7.4-.4-.1-.8,0-1.1.4-.7.8-1.6,1.2-2.7,1.3-2.1.2-4.1.5-6.2,1.1-2.5.7-5,1.4-7.3,2.1-2.7.9-5.3,1.7-7.9,2.4-.7.2-1.4.5-2.1.8-.6.3-1.2.5-1.8.7-.8.2-1.6.4-2.3.8-.9.4-1.8.4-2.7-.1-.1-.1-.3,0-.4.1h0c-.2.5-.5.7-1.1.7-.2,0-.4.1-.6.2-2.2,1.2-4.3,2.3-6.3,3.3-.5.3-.7.9-.5,1.8l-.5,2c-.3-.9-.9-1-1.7-.3,0-2.2.6-3.6,1.7-4.2,2.2-1.2,4.3-2.3,6.5-3.4.2-.1.3-.4.2-.6,0-.1-.1-.1-.1-.2L11.55,43.51c-.3-.2-.6-.4-.9-.5l-.6-.1c.2-.5.6-.8,1.2-1Z" style="fill:#9bb0c4; stroke-width:0px;"/><path d="M110.35,43.71c-.3,6.2-1.1,12.3-2.4,18.2l-1.5.2c.8-6.1,2.1-12.3,3.9-18.4Z" style="fill:#9bb0c4; stroke-width:0px;"/><path d="M33.15,58.11l24.8,18.3c-.4.6-.9.7-1.5.2-8.2-5.7-16-11.8-23.3-18.5Z" style="fill:#fff; stroke-width:0px;"/><path d="M37.65,58.61c8.3,4.8,16.3,10.2,23.9,16-.9.6-1.5.9-1.9.6-7.8-5-15.1-10.5-22-16.6Z" style="fill:#d6d6d6; stroke-width:0px;"/><path d="M107.95,62.01c.4.2.9.3,1.4.3,10.1-.6,20.2-.3,30.3.9.1.3.1.6,0,.8-.1.2-.3.2-.6.2-3.4,0-7-.2-10.6-.5-4.2-.4-8.4,0-12.7-.3-2-.1-4,.6-6.3.3-.3,0-.6,0-1,.1-.9.3-1.9,0-3.1-.7l1.1-.9,1.5-.2h0Z" style="fill:#6889a2; stroke-width:0px;"/><path d="M102.75,62.21c.4.8.9.9,1.8.5.2.4.4.6.6.6-.3.4-.8.6-1.4.8-2,.5-3.8.8-5.4,1.1-2.5.4-4.3.7-5.4,1-3,.8-6.1,1.5-9.3,2.2-1.3.3-2.7.8-4.1,1.6-1.1.6-2.3.9-3.6,1-1.3,0-2.6.3-3.8.7-.4.1-.7.4-.9.7-.3.4-.7.6-1.2.5-.4-.1-.7,0-1,.1-1.4.6-2.9,1.2-4.4,1.7-.3.1-1.2.5-2.7,1.3-1,.5-2,.7-3,.7.5-.3.8-.7.8-1.4.4.2,1,0,1.9-.6,12.8-5.4,26.1-9.2,40.1-11.5.3,0,.5-.2.6-.4.1-.1.1-.2.1-.3,0-.3.1-.3.3-.3h0Z" style="fill:#6889a2; stroke-width:0px;"/><path d="M164.15,70.61c-5.7-.4-11.3-.9-16.9-1.4-1.2-.1-2.3-.2-3.5-.2-1.8-.1-4.2-.3-7-.8-3.8-.6-8.7-1-14.7-1.2-4.4-.2-8,.1-10.8.9-1.4.4-2.9.6-4.4.6s-3.1,0-4.8.1c-.5,0-1,.2-1.4.4-1,.5-2.1.1-3.3.3-7.2,1.2-13.7,2.9-19.5,5-1.8.6-3.5,1.3-5.2,2-1.2.5-2.5.8-4,1s-2.8.6-4,1.1c-1.1.5-2.1.9-3.1,1.2-1.8.5-2.8.8-3.2.9-3,1.1-6.1,2.2-9.2,3-.2-1,0-1.6.5-1.8,2.1-1,4.2-2.1,6.3-3.3.2-.1.4-.2.6-.2.5,0,.9-.2,1.1-.7.1-.2.2-.2.4-.2h0c.9.5,1.7.6,2.7.1.8-.3,1.5-.6,2.3-.8.6-.1,1.2-.4,1.8-.7.7-.3,1.4-.6,2.1-.8,2.6-.7,5.2-1.5,7.9-2.4,2.3-.8,4.8-1.5,7.3-2.1,2.1-.5,4.2-.9,6.2-1.1,1.1-.1,2-.5,2.7-1.3.3-.3.7-.5,1.1-.4.9.2,1.8.1,2.7-.4,1.2-.6,2.5-.8,3.9-.6.4,0,.6,0,.8-.2.1-.1.1-.3,0-.4v-.1h5.5c.2,0,.5-.1.7-.3l.2-.2c.2-.2.4-.3.6-.3h27.5c.3,0,.6.1.8.3.2.2.4.3.7.3,1.5.1,2.9,0,4.4-.2,4.5-.7,8.8-.5,12.9.6,3.3.9,5.5,1.4,6.5,1.5,2.2.6,3.9,1.5,4.8,2.8h0Z" style="fill:#d6d6d6; stroke-width:0px;"/><path d="M164.15,70.61c1.7,4.6,3.5,9.3,5.4,14.1,3.6,9.3,6.1,18.7,7.4,28.2.1.4.2.8.5,1.1.3.3.6.4,1,.5.5.1.9.5,1,1,2.3,14,2.7,27.8,1.1,41.4-1.1.4-2.1.3-2.8-.3-.2-.2-.5-.2-.7,0-.1.1-.1.2-.1.3,0,.3-.1.5-.5.5-1.3-.1-2.8,0-3.8,1-.4.4-.8.8-1.3,1.1-.4.3-.8.7-1.1,1.2-1.2,2.1-2.4,4.1-3.5,6-.1.2-.2.5-.1.7v.3c-.2.7-.4.7-.5,0-.4-3.3-.1-6,1.1-8.1.6-1.2,1.1-2.5,1.3-3.9.2-1.6.7-3.2,1.4-4.7.3-.8.5-1.6.5-2.5,0-.8.1-1.7.2-2.6,0-.2.1-.3.3-.4.1,0,.1-.1.2-.2.5-2,.9-4.1,1-6.1,0-.3.1-.6.3-.9.4-.7.6-1.5.5-2.3-.2-4-.1-8.1.3-12.2v-.3c0-.1-.1-.2-.1-.2-.1-.2-.2-.3-.2-.5.1-1.9,0-3.8-.3-5.8,0-.2-.1-.4-.2-.5-.1-.1-.2-.3-.4-.4-.2-.2-.3-.5-.3-.8,0-1.1-.3-2-.8-2.8-.2-.3-.4-.5-.5-.5-.2-.5-.5-1.8-.8-3.7-.8-5.2-2.4-11.2-4.8-18l-6.3-14.5c-.1-.3-.4-.5-.7-.6l-6.8-2.1c-17-4.3-36.1-5.6-53.4-2.1-14.6,2.9-28.2,8-40.8,15.2-.6.4-1,1.1-1.2,2.3-1.2,4.1-2.1,8.3-2.6,12.6-1.3,10.5-1.3,21-.2,31.5.3,2.6.6,4.2,1,5.1,0,1.7.1,3.3.2,4.8.1,1.1-.2,2.4.6,3.2.2.2.4.5.4.9l.4,3.4c0,.3.1.6.3.8.5.6.7,1.3.6,2,0,.4.1.7.3,1,.6.7.9,1.5,1.1,2.4s.5,1.7,1,2.6c1.9,3.3,3.9,6.9,6,10.8.9,1.7,1.7,3.4,2.5,5.2.9,2,2,3.6,3.2,4.9,1.3,1.4,3,2,5.1,1.8.3,0,.4.1.4.4v.3c0,.2-.1.3-.3.3-2.7.2-5.2-.4-7.3-2l-5.5-8.3c-.3-.5-.9-.8-1.4-.8l-7.6.2c-.3,0-.5.1-.5.4-.1.4-.4.8-.8,1-.9-2-1.6-4-2.3-6.1-3.2-10.2-5.2-20.8-5.9-31.6-.1-2.5.5-1.7,1.8,2.4.2.6.6,1.2,1.2,1.7.3.3.6.3.7-.2.1-.5,0-1-.4-1.4-.2-.3-.3-.5-.3-.9.2-1.1-.3-1.9-.2-2.9.2-1.8.1-3.2-.3-4.1-.7-1.5-1-2.5-1.1-3.1-.5-10,0-20,1.5-30.1l1.7-10.9.5-2c3.1-.9,6.2-1.9,9.2-3,.4-.1,1.4-.4,3.2-.9,1-.3,2-.7,3.1-1.2,1.2-.5,2.5-.9,4-1.1s2.8-.5,4-1c1.7-.7,3.4-1.4,5.2-2,5.8-2.1,12.3-3.8,19.5-5,1.1-.2,2.3.2,3.3-.3.4-.2.9-.4,1.4-.4,1.7-.1,3.3-.2,4.8-.1,1.5,0,2.9-.2,4.4-.6,2.9-.8,6.5-1.1,10.8-.9,6,.2,10.9.6,14.7,1.2,2.9.5,5.2.7,7,.8,1.2,0,2.3.1,3.5.2,5.3.2,10.9.7,16.6,1.1h0Z" style="fill:#fff; stroke-width:0px;"/><path d="M150.95,73.01l3.4,2.6c.3.2.4.4.5.8.1.8.1,1.6-.2,2.4-.1.3-.3.4-.6.4h-2.9c-.3,0-.5-.1-.7-.4s-.5-.4-.9-.3-.7.1-1,0l-5-1.7h-.4l-.3.2c-.2.1-.4.1-.6,0-.5-.3-.9-.3-1.4-.1-.5.2-.7.1-.7-.4,0-.1-.1-.2-.2-.4-.3-.3-.7-.4-1-.1-.5.3-.8.2-1.1-.3-.1-.2-.3-.2-.4-.2-.1.1-.2.2-.2.3-.1.9-.5,1.4-1.4,1.6-.5.1-.7-.1-.7-.6,0-.2-.1-.3-.2-.3-.4-.2-.6-.1-.8.3-.2.5-.7,1-1.2,1.4-.4.3-.6.2-.7-.3,0-.2-.1-.3-.3-.3-.4,0-.7.2-.9.5-.1.2-.3.3-.6.3s-.4-.2-.2-.4c.1-.3.3-.4.6-.5s.4-.3.2-.6c-.2-.2-.4-.3-.7-.2-.5.1-.8,0-1.2-.3l-.3-.3c-.2-.3-.5-.2-.7,0l-1.2,1.2c-.3.3-.5.2-.6-.1-.6-1.2-1.7-1.8-3.1-1.7-2,.2-4,.4-5.9.5-1.8.2-3.8.3-5.8.4-1.6.1-3.1.3-4.4.6-1,.2-1.9.4-2.9.4s-2.1.1-3,.3c-1.5.3-3,.6-4.4.7-2.1.1-4.1.7-6.1,1.6-.5.2-1,.3-1.5.1-.8-.2-1.5-.1-2,.4-.3.3-.7.4-1.1.3-1.4-.3-2.5-.2-3.1.1-1.9,1-3.9,1.7-6,2l-2-.5c1.5.2,2.2-.2,2.3-1.4,0-.5.2-.7.7-.7h1c.5,0,.9-.3,1.2-.6.6-1,1.6-1.4,2.8-1.4.4,0,.7-.1,1-.4l1-1c.1-.1.3-.2.5-.2.1,0,.2,0,.4.1.3.2.5.3.9.2,1.3-.4,2.6-.8,3.9-1.3.3-.1.4,0,.4.3,0,.1.1.2.3.2.3,0,.5,0,.7-.2.7-.5,1.5-.9,2.3-1.3,1.1-.5,2.2-.2,3.1-1,.2-.2.4-.2.5.1.1.1.1.2.1.2.1.4.3.5.7.3.2-.1.4-.3.6-.5.1,0,.2.1.3.1.3.1.4.3.3.6-.1.2,0,.4.3.5h.3l3-1.8c.13-.07.2-.03.2.1v.3c-.1.3.1.6.4.7.2.1.4.1.6,0,.3-.1.5-.3.6-.6.1-.4.5-.5,1-.3.2.1.3.1.5.1,1.2,0,2.4-.1,3.4-.2.5,0,.9-.2,1.2-.6.2-.2.4-.2.5,0,.3.4.6.5,1.1.1.3-.2.6-.3.9-.4.6-.1,1.1.1,1.4.6.2.3.5.3.7,0,.3-.4.7-.7,1.2-.7,1.8-.3,3.6-.2,5.3.2.3.1.5.2.7.5.3.4.7.4,1,0,.2-.3.5-.3.8,0,.5.5,1,.5,1.4-.2.1-.1.2-.1.3-.1l.1.1.2.6c.1.3.4.4.6.4,1.6,0,4.8-.5,6.3,0,.7.2,1.2.3,1.6.3,4.2.1,8.2.2,12.3.4.07,0,.13-.03.2-.1l.2-.2c.1-.3,0-.5-.3-.6-3.3-1.2-6.1-1.7-8.4-1.7-1.7.1-2.7-1.3-4.3-1.2-2.8.2-5.5,0-8.1-.7-1.3-.4-2.7-.5-4.2-.3-3.2.3-6.4.3-9.5,0-1.3-.1-2.6,0-3.9.3-1.2.3-2.5.5-3.7.7-1.6.2-3.1.4-4.6.6-.6.7-1.3,1-2,.9-.9-.1-1.4-.1-1.5-.1-2.1.3-4.1.7-6.1,1.3-2.5.7-4.5,1.2-6,1.6-3.9.9-7.4,2.1-10.6,3.6-6.1,2-11.7,4.7-16.7,8-.8.4-1.4,1-1.6,1.9-.2.1-.6,0-1.2-.4.2-1.2.6-2,1.2-2.3,12.6-7.2,26.2-12.3,40.8-15.2,17.2-3.2,36.2-1.9,53.3,2.4h0Z" style="fill:#022e56; stroke-width:0px;"/><path d="M99.35,73.81c.1-.3.3-.5.8-.5.4,0,.7-.1.8-.2.3-.3.4-.8.2-1.6,1.5-.2,3-.4,4.6-.6,1.2-.2,2.5-.4,3.7-.7,1.3-.3,2.6-.4,3.9-.3,3.2.3,6.3.3,9.5,0,1.5-.1,2.9,0,4.2.3,2.6.7,5.3.9,8.1.7,1.6-.1,2.6,1.2,4.3,1.2,2.3-.1,5.1.5,8.4,1.7.3.1.4.3.3.6,0,.1-.1.2-.2.2s-.1.1-.2.1c-4-.2-8.1-.3-12.3-.4-.4,0-.9-.1-1.6-.3-1.5-.5-4.7-.1-6.3,0-.3,0-.5-.2-.6-.4l-.2-.6c0-.1-.2-.2-.3-.1,0,0-.1,0-.1.1-.5.7-.9.8-1.4.2-.3-.3-.5-.3-.8,0-.3.4-.7.4-1,0-.2-.2-.4-.4-.7-.5-1.7-.4-3.5-.5-5.3-.2-.5.1-.9.3-1.2.7-.2.3-.5.3-.7,0-.4-.4-.8-.6-1.4-.6-.3,0-.6.2-.9.4-.4.3-.8.3-1.1-.1-.2-.2-.4-.2-.5,0-.3.4-.7.6-1.2.6-1,.1-2.2.1-3.4.2-.2,0-.4,0-.5-.1-.5-.2-.8-.1-1,.3-.1.3-.3.5-.6.6-.2.1-.4.1-.6,0-.3-.1-.4-.4-.4-.7v-.3c0-.13-.07-.17-.2-.1l-3,1.8c-.1.1-.2.1-.3,0-.3-.1-.4-.3-.3-.5.1-.3,0-.5-.3-.6,0-.2-.1-.2-.2-.3Z" style="fill:#10446f; stroke-width:0px;"/><path d="M101.15,71.51c.2.8.1,1.3-.2,1.6-.1.1-.4.2-.8.2s-.7.2-.8.5c-.2.2-.4.4-.6.5-.4.2-.6.1-.7-.3,0-.1-.1-.2-.1-.2-.2-.2-.3-.3-.5-.1-.9.9-2,.5-3.1,1-.8.4-1.6.8-2.3,1.3-.2.2-.5.2-.7.2s-.3-.1-.3-.2c0-.3-.1-.4-.4-.3-1.3.5-2.6.9-3.9,1.3-.3.1-.6,0-.9-.2-.1-.1-.2-.1-.4-.1s-.3.1-.5.2l-1,1c-.3.3-.6.4-1,.4-1.2-.1-2.2.4-2.8,1.4-.2.4-.7.6-1.2.6h-1.1c-.5,0-.7.2-.7.7,0,1.1-.8,1.6-2.3,1.4-1,.7-2,1.1-3.2,1.1-.3,0-.6.1-.8.4-.5.6-1.1.7-1.9.4-.3-.1-.5,0-.7.2l-1.6,1.6c-.2.2-.4.3-.7.3-.6,0-1.2.3-1.6.9-.3.5-.8.8-1.4,1-2,.6-3.7,1.7-5.3,3.3-.1-1.5.4-2.7,1.3-3.5l1.7-.9c.3-.2.6-.4.8-.7.3-.3.6-.5,1.1-.6.3,0,.5-.1.8-.3,1-.7,2.5-1.4,4.5-2,1.6-.5,4-2.1,7-4.8,3.2-1.5,6.7-2.7,10.6-3.6,1.5-.4,3.5-.9,6-1.6,2-.6,4-1,6.1-1.3.1,0,.6,0,1.5.1.7,0,1.4-.3,2.1-.9Z" style="fill:#006bb5; stroke-width:0px;"/><path d="M150.95,73.01l6.8,2.1c.3.1.6.3.7.6l6.3,14.5c0,.6-.1,1-.2,1.4-.1.2-.2.3-.3.3-.4.1-.7-.1-1.1-.8h0c-.4-.9-1-.9-1.8-.2-.3.3-.4.8-.2,1.2,1.3,2.9,2,5.2,2.7,8.9.3,1.8.9,3.5,1.6,5.1.5,1.2.8,2.2.8,3.2v3.4c0,.8.6,1.4,1.4,1.5.2,0,.3,0,.4-.1.8-.3,1.5.2,2,1.4-1.1,1.6-2.5,3.1-4.1,4.5-.4.3-.8.5-1.2.5-.6,0-1.1-.1-1.4-.4l2-.6c.3-.1.5-.3.5-.7,0-.8-.2-1.5-.7-2.2l-.2-1.5-1.9-9.4-3-11.9-4.8-13.6c-.1-.3-.3-.5-.7-.5l-16.5-1.6c-.3,0-.5.1-.4.4l.6,2.2-1-.1c-.3,0-.6-.2-.8-.4-.7-.8-1.5-1-2.5-.6-1.3.4-2.6.6-3.9.4-1.5-.2-2.9.1-4.2.7-.3.2-.4.4-.3.8.4.8.6,1.7.6,2.6,0,.6.5,1.1,1.1,1.1h0l9.2-.2c.3,0,.6-.1.8-.3.6-.6,1.2-1.2,1.6-2l2.6,8.4c-2.4-1.3-4.8-1.5-7.2-.7-.5.2-1,.1-1.4-.1-.1-.1-.3-.1-.4,0-1,.4-2.1.5-3.2.3-.4-.1-.8.2-.9.6v3.4c0,.7.6,1.3,1.3,1.3.2,0,.3,0,.5-.1,1-.4,2.2-.5,3.3-.1.3.1.7.1,1-.1.4-.2.7-.1,1,.2.1.2.4.2.6.1.5-.3.9-.2,1.2.2.3.3.6.3.8-.1.1-.2.3-.4.6-.5.2-.1.3,0,.4.2,0,.1.1.2.2.3.2.2.4.3.6.1l3-1.5,1.5,5.9-12.3.8c-.9.1-1.6.7-1.8,1.5-.2.9-.2,1.6,0,2.2.2.8.9,1.3,1.7,1.4,5,.5,9.4,0,13.1-1.6l1.8,8.3-2.7-2.3c-.2-.1-.3-.2-.6-.2-.2,0-.2.1-.3.2-.1.4-.3.6-.7.6l-9.7,1c-.9.1-1.6.9-1.5,1.9,0,.3.1.6.3.8.3.4.4.9.4,1.5-.1.5.1.9.6,1,.2.1.3,0,.4-.1.2-.2.4-.3.7-.3,3.8-.1,7.1-.4,9.6-.9,1.1-.2,2-.2,2.9.2.2.1.4,0,.4-.2.1-.2.2-.3.4-.3.2.7.3,1.4.2,2.1,0,.4-.2.6-.6.7l-1,.2-14.8,1.8-.7-5-3.3-20-3.6-16.8c-.2-.8-.7-1.2-1.5-1.1l-14.3.7c-.7,0-1.2.6-1.2,1.3h0l1.9,23.4c.1.3.1.6,0,.9,0,.2-.2.4-.4.4h-.3c-.3-.1-.5-.2-.6-.5-.2-.4-.5-.6-.9-.4-2.4.9-4.7,1.2-6.9.9-.5-.1-.9.1-1.2.4-.4.4-.7.4-1-.1-.2-.3-.4-.4-.6-.2-1.4,1-2.4,2.3-2.8,3.8-.1.4,0,.8.3,1.1.7.6,1.7,1.1,2.9,1.4.13,0,.23-.07.3-.2,0-.1,0-.2.1-.3.3-.4.6-.4.7.1.1.2.2.3.5.3s.6-.1.8-.4c.6-.6,1.2-.6,1.8.1.2.3.5.3.8.1.9-.6,1.9-.8,3.1-.6.3,0,.6,0,.9-.2l2.9-1.5.7,6c-.5,0-1,.2-1.4.6s-.7.4-1-.1c-.3-.6-.7-.6-1.1-.2-.2.2-.4.3-.7.3l-5.8.7c-.2,0-.4.1-.5.3l-.2.2c-.3.1-.6,0-.7-.3v-.1c0-.2-.2-.3-.4-.2-2,.9-2.8,2.5-2.5,4.5.1.4.3.6.6.6,1.1.1,2.1.4,3,1,.1.1.3.1.5.1.4,0,.7-.2.8-.4.2-.4.5-.5.8-.2.5.3.9.4,1.4.1.3-.2.7-.3,1.1-.4,2.2-.4,4.4-.6,6.6-.5l.4,3.2c.1.5,0,1-.1,1.3-.2.4-.4.5-.8.3-.1-.1-.2-.1-.3-.2-.3-.3-.6-.4-1.1-.4-3.4.8-6.9,1-10.3.8-.3,0-.6.1-.9.4l-1.9,2.1c-.2.2-.3.5-.2.8.2,1,.1,2-.2,2.9l-2.2-31.9c0-.7.4-1.2,1.1-1.4,3.2-.6,6.6-.8,10.2-.4.3,0,.6-.1.8-.4.4-.8.4-1.8,0-2.9.1-2.1,0-3.5-.1-4.2-.6-3.5-1-6.9-1.4-10.3-.1-.5-.5-.8-1-.8h-.1c-4.7,1-9.2,2-13.4,3-3.1.7-6.4,1.7-9.9,2.9-3.2,1.1-6.4,2.2-9.6,3.3.7-1.1,1.8-1.9,3.5-2.4.3-.1.6-.3.8-.5.3-.4.5-.8.5-1.4,0-.3.2-.5.5-.6l2.5-1.1c2-.3,4-.9,6-2,.7-.4,1.7-.4,3.1-.1.4.1.8,0,1.1-.3.5-.5,1.2-.6,2-.4.5.1,1,.1,1.5-.1,2-.9,4-1.4,6.1-1.6,1.5-.1,2.9-.3,4.4-.7,1-.2,2-.3,3-.3s1.9-.1,2.9-.4c1.3-.3,2.8-.5,4.4-.6,2-.1,4-.2,5.8-.4,1.9-.2,3.8-.3,5.9-.5,1.5-.1,2.5.4,3.1,1.7.2.3.4.4.6.1l1.2-1.2c.2-.3.5-.3.7,0l.3.3c.3.3.7.4,1.2.3.3-.1.5,0,.7.2.2.3.1.5-.2.6s-.4.3-.6.5c-.1.3,0,.4.2.4.3,0,.4-.1.6-.3.2-.3.5-.5.9-.5.2,0,.3.1.3.3,0,.5.3.6.7.3.6-.4,1-.9,1.2-1.4.2-.4.4-.5.8-.3.1.1.2.2.2.3,0,.5.3.7.7.6.9-.1,1.4-.7,1.4-1.6,0-.2.2-.3.3-.3s.2.1.3.2c.3.5.6.6,1.1.3.4-.3.7-.2,1,.1.1.1.2.2.2.4,0,.5.2.7.7.4.5-.2,1-.2,1.4.1.2.1.4.1.6,0l.3-.2c.1-.1.2-.1.4,0l5,1.7c.3.1.7.1,1,0,.4-.1.7,0,.9.3.1.3.4.4.7.4h2.9c.3,0,.5-.1.6-.4.3-.7.3-1.5.2-2.4-.1-.3-.2-.6-.5-.8l-2.9-2.2h0Z" style="fill:#001a44; stroke-width:0px;"/><path d="M126.95,95.71l-3.3-5.8-1.8-8.8c-.1-.6-.7-1-1.3-.9l-7.2,1-3.2.4c-.5.1-.9.5-.9,1,.2,4.6.5,9.3.4,13.9-.1,2.8.2,5.8.7,9,.4,2.2-.1,4.4.5,6.7.5,2,.6,4,.6,6-.1,2.1.1,4.4.5,6.7.1.3.4.5.7.5h.1c2.1-.6,4.2-.9,6.3-.8.4,0,.6.2.7.6.9,3.1,1,6.2.3,9.4-.2.3-.2.8-.2,1.2l-1.2-9.3c-.1-.4-.3-.6-.7-.5l-6.2.6c-.3,0-.6-.1-.7-.4-.4-.7-.5-1.5-.4-2.4l-.4-3.2-.6-6.1-.7-6-.4-5.2-1.9-23.4c-.1-.7.4-1.3,1.1-1.3h0l14.3-.7c.8,0,1.3.3,1.5,1.1l3.4,16.7h0Z" style="fill:#f17c28; stroke-width:0px;"/><path d="M160.05,94.01l-1-.6c-.3-.2-.4-.4-.5-.7-.3-.9-.8-1.4-1.3-1.6-.6-3.1-1.7-5.9-3.4-8.2-.3-.4-.7-.6-1.2-.7-1.7-.3-3.3-.5-4.9-.6-.9-.1-1.8-.2-2.8-.3-1-.2-2-.2-3.1,0-.4.1-.5.3-.4.6.1.4.3.7.7,1,.1,1,.2,1.9.6,2.7.4,1,.7,1.9.8,2.8.3,1.7.9,3.2,1.1,5,.2,1.8.7,3.7,1.4,5.7.6,1.5.8,3.7.8,6.5,0,.07.03.13.1.2l.1.1c.1.1.2.2.2.3.2,1.1.5,2.1.9,3.2.1.3.1.6-.2.9-.2.2-.2.4-.1.6.2.6,0,.9-.6,1-.4.1-.6.4-.6.9,0,.07-.03.13-.1.2l-1.8-8.3-.8-4.4-1.5-5.9c-.3-1.4-.7-2.6-1.2-3.5l-2.6-8.4-.5-1.9-.6-2.2c-.1-.3,0-.5.4-.4l16.6,1.7c.3,0,.6.2.7.5l4.8,13.8h0Z" style="fill:#f17c28; stroke-width:0px;"/><path d="M74.95,78.81c-3,2.7-5.3,4.2-7,4.8-2,.6-3.5,1.3-4.5,2-.2.2-.5.3-.8.3-.5,0-.8.2-1.1.6-.2.3-.5.5-.8.7l-1.7.9c0-.5-.3-.9-.9-1.2,5.1-3.4,10.7-6.1,16.8-8.1Z" style="fill:#0084c6; stroke-width:0px;"/><path d="M138.25,80.71l.5,1.9c-.4.8-1,1.4-1.6,2-.2.2-.5.3-.8.3l-9.2.2c-.6,0-1.1-.5-1.1-1.1h0c0-.9-.2-1.8-.6-2.6-.2-.3-.1-.6.3-.8,1.3-.6,2.7-.9,4.2-.7,1.3.2,2.6,0,3.9-.4,1-.3,1.8-.1,2.5.6.2.2.5.4.8.4l1.1.2Z" style="fill:#022e56; stroke-width:0px;"/><path d="M104.55,94.61l-1.6-.9c-.3-.1-.4-.4-.4-.7l-1.1-8.8c-.1-1.1-.8-1.6-1.9-1.5-4.3.5-8.5,1.4-12.3,2.5-4.9,1.4-10.3,3.2-16.2,5.2-2.8.9-5.3,1.9-7.6,2.8-.9.4-1.5,1.2-1.6,2.2-.2,3.8-1.2,7.1-2.9,9.8l.4-10.6c.5-2.6,3.7-4.7,9.7-6.1,3.2-1.1,6.4-2.2,9.6-3.3,3.4-1.2,6.7-2.1,9.9-2.9,4.3-1,8.7-2,13.4-3,.5-.1.9.2,1,.7v.1c.4,3.4.9,6.8,1.4,10.3.3.7.3,2.1.2,4.2Z" style="fill:#f17c28; stroke-width:0px;"/><path d="M123.65,89.91c-1.2.8-2.2,1-3,.7-.3-.1-.5-.1-.7.1-.3.2-.5.2-.8,0-.4-.3-.8-.3-1.1.1-.3.3-.7.3-1-.1s-.6-.4-.8.1c-.3.6-.7.7-1.3.2v-.1h0c.2-.1.3-.2.2-.4-.1-.4-.2-.4-.5-.2-1,1-2.1,1.8-3.4,2.4-.4-.3-.4-.8-.1-1.4.1-.3.2-.7.2-1l-.2-2.7c0-.3-.1-.5-.3-.7-.2-.2-.3-.4-.4-.7-.5-2.1.2-3.5,2-4.2.3-.1.5-.1.7.1s.5.2.8.1c.1,0,.1-.1.2-.2,0-.1.1-.2.1-.2.1-.3,0-.5-.3-.5l-.7-.2,7.2-1c.6-.1,1.2.3,1.3.9l1.9,8.9h0Z" style="fill:#ffb552; stroke-width:0px;"/><path d="M113.25,81.21l.7.2c.3.1.4.2.3.5,0,.1-.1.2-.1.2,0,.1-.1.1-.2.2-.3.2-.6.1-.8-.1-.2-.2-.4-.2-.7-.1-1.8.7-2.5,2.1-2,4.2.1.3.2.5.4.7.2.2.3.4.3.7l.2,2.7c0,.4,0,.7-.2,1-.3.6-.2,1.1.1,1.4l1.2,15.8c-.3,1.6-.1,3,.6,4,.3.4.3.8.2,1.2-.4,1.3,0,2.4,1,3.5.3.3.3.6,0,.9-.4.5-.3.9.2,1.3.3.2.4.6.1.9h0c-.2.2-.1.4.1.6s.4.3.6.4c1.3.3,2.5.7,3.6,1.2.7.3,1.2.2,1.7-.4.2-.3.5-.3.8-.3.5.1,1,.1,1.4-.1.7-.3,1.1-.4,1.3-.4,2.2-.3,3.6-.4,4.3-.3,3,.3,4.9.4,5.7.3,3.7-.2,7.3-.7,10.8-1.6.5-.1.7-.4.7-.8l1-.2c.3-.1.5-.3.6-.7.1-.7,0-1.4-.2-2.1l-.3-3c0-.5.2-.9.6-.9.6-.1.8-.5.6-1-.1-.2,0-.4.1-.6.2-.3.3-.5.2-.9-.4-1-.7-2.1-.9-3.2,0-.1-.1-.2-.2-.3,0,0-.1,0-.1-.1-.07-.07-.1-.13-.1-.2,0-2.8-.2-5-.8-6.5-.7-2-1.2-3.9-1.4-5.7-.2-1.8-.8-3.3-1.1-5-.1-.9-.4-1.8-.8-2.8-.3-.9-.5-1.8-.6-2.7-.3-.5-.2-.9.3-1.1.1,0,.2,0,.3.1h0l2.8,8.2,4.1,16,2,10.2c.1.3.2.5.5.5,2.1.3,3.9.2,5.6-.2,2-.5,3.9-.7,5.8-.6.2,0,.3.1.5.1.1.1.2.1.3.2.4.5.7.4.7-.2v-1l.2,1.5v1.2c0,.8-.4,1.1-1.2,1.1-1.4,0-2.7.1-3.8.5-.3.1-.5.3-.6.6-.4,1.8-.5,3.3-.2,4.5.5,2.5.7,4.4.5,5.7-.1-.8-.3-1.6-.7-2.1-.2-.4-.5-.5-.9-.2s-.8.4-1.3.2c-.4-.1-.8,0-1.1.3s-.6.3-.9,0c-.3-.4-.7-.4-1,0-.3.5-.7.5-1,.1-.2-.2-.4-.2-.6-.1l-2,1.5c-.2.2-.4.4-.4.7-.1.7-.5,1.3-1.1,1.8-.1.1-.3.1-.4-.1h0c-.1-.1-.1-.2.1-.3.5-.4.7-.9.7-1.5,0-.3-.2-.5-.5-.5-.1,0-.2,0-.3.1-.4.3-.5.8-.5,1.3,0,.2-.1.3-.3.3h-.3c-.07,0-.1-.03-.1-.1l.1-2.2c0-.2-.2-.4-.4-.4h-.2l-.4.2c-.1.1-.2.2-.2.4v1.4c0,.4-.2.6-.5.7-.6.2-1.1,0-1.4-.5-.2-.3-.4-.3-.6-.1-.6.5-.8,1.1-.6,1.9,0,.2-.1.3-.2.4-.1,0-.2,0-.3-.1-.2-.2-.2-.4-.1-.6.2-.4.1-.7-.3-.8l-1-.4c-.2-.1-.5-.1-.7,0l-1.4.8c-.3.2-.6.1-.6-.3,0-.2-.1-.3-.2-.5-.2-.3-.4-.4-.8-.2-.3.1-.4.4-.4.7,0,.2-.1.3-.3.3s-.4,0-.4-.2c-.1-.6-.4-.6-.7-.1-.4.7-1,.9-1.9.8-.3-.1-.4.1-.5.3,0,.1,0,.2.1.3.1.2.3.4.5.5.1.1.2.2.2.4-.1.3-.2.3-.3,0-.7-1.3-1.5-1.7-2.5-1.1-.1.1-.3.1-.4.1-.3,0-.4-.2-.4-.4-.1-.6-.4-.7-.8-.2-.1.1-.2.3-.4.4-.2.2-.5.3-.8.1s-.7-.3-1.1-.1c-.4.1-.7.1-1-.2l-2.2-2c-.5-.4-1.1-.5-1.7-.2-.8.4-1.1.9-1,1.7,0,.4,0,.7-.2,1-.3.5-.7.7-1,.6.7-3.2.6-6.3-.3-9.4-.1-.4-.3-.5-.7-.6-2-.1-4.1.2-6.3.8-.3.1-.6-.1-.7-.4v-.1c-.5-2.4-.6-4.6-.5-6.7.1-2-.1-4-.6-6-.5-2.4-.1-4.5-.5-6.7-.5-3.2-.8-6.2-.7-9,.1-4.6-.3-9.3-.4-13.9,0-.5.4-1,.9-1h2.7,0Z" style="fill:#ffffd6; stroke-width:0px;"/><path d="M157.15,91.11c-.8,2.4-3,3-6.6,1.7-.3-.1-.5-.4-.6-.7-.1-.5-.4-.9-.8-1.2-.4-.2-.6-.1-.5.4.1.2.2.4.4.4.2.1.3.3.2.5,0,.1-.1.1-.1.1-.2.1-.3.2-.6.2s-.6-.2-.7-.4c-.5-1.6-1.3-2.3-2.6-2.1l-2.8-8.2c0-.1-.2-.2-.3-.1h0c-.5.2-.6.6-.3,1.1-.4-.3-.6-.6-.7-1-.1-.4,0-.6.4-.6,1-.2,2.1-.2,3.1,0,.9.2,1.9.3,2.8.3,1.6.1,3.3.3,4.9.6.5.1.9.3,1.2.7,1.9,2.5,3.1,5.2,3.6,8.3h0Z" style="fill:#ffb552; stroke-width:0px;"/><path d="M75.05,82.41l1.8.2-2.5,1.1c-.3.1-.4.3-.5.6,0,.5-.2,1-.5,1.4-.2.2-.4.4-.8.5-1.7.5-2.8,1.3-3.5,2.4-5.9,1.5-9.1,3.5-9.7,6.1.3,1.6-.1,2.5-1.3,2.6-.3,0-.6.2-.8.4-.4.5-.8.8-1.2.8l1.8-7c1.6-1.6,3.3-2.7,5.3-3.3.6-.2,1-.5,1.4-1,.4-.6.9-.9,1.6-.9.3,0,.5-.1.7-.3l1.6-1.6c.2-.2.4-.2.7-.2.8.3,1.5.1,1.9-.4.2-.2.5-.4.8-.4,1.1,0,2.2-.3,3.2-1Z" style="fill:#10446f; stroke-width:0px;"/><path d="M104.55,94.61c.4,1.1.4,2.1,0,2.9-.2.3-.4.5-.8.4-3.6-.4-7-.2-10.2.4-.6.1-1.1.7-1.1,1.4l2.2,31.9,2.2,15.2-.5,2.2-1.6-9.5c-.4-2.8-.7-5.3-.9-7.7-.1-1.1-.3-2.3-.6-3.4,0-.1-.1-.6-.3-1.6l-.9-12.9c.3-3.3.3-6.6-.2-9.9-.1-.5-.2-1-.4-1.5-.3-.7-.3-1.5,0-2.4.3-1,.7-1.8,1.3-2.7.2-.3.3-.6.4-.9.2-1.1.8-2,1.8-2.6.1-.1.2-.2.3-.4,0-.1,0-.3-.1-.4-.2-.4-.5-.4-.7,0-.8,1.1-1.8,1.8-3,2.1-.6.1-.7.4-.1.7.1.1.2.1.2.2.4.6.3.7-.3.3-.4-.3-.8-.6-1.1-1.1-.2-.2-.5-.3-.7-.1h0l-1,.8c-.3.3-.4.6-.4,1,0,.2,0,.3-.2.4-.4.3-.6.2-.6-.3,0-.4-.1-.8-.3-1-.3-.3-.5-.3-.7.1-.2.3-.3.7-.2,1.1,0,.2-.2.4-.4.4s-.3-.1-.4-.3c0-.2,0-.3-.1-.5,0-.2-.1-.4-.3-.6-.1-.1-.2-.1-.3-.1-.2,0-.3.1-.4.2-.4.7-.8,1.4-1.2,2.1,0,.1-.1.1-.1.1h-.3c-.2-.1-.2-.2,0-.4l.5-.4c.2-.1.2-.3.1-.5l-.3-.3c-.2,0-.3,0-.5.1-.5.4-.9.7-1.3,1.1-.3.3-.6.3-.9,0-.4-.3-.7-.3-1,.1-.3.3-.7.5-1.1.4-.7-.1-1.4.1-2,.6-.1.1-.1.3,0,.4h0c.1.1.2.2.4.2s.3.1.3.4c0,.1-.1.2-.2.3-.1,0-.2.1-.3.1-.2,0-.3.1-.3.3v.3c0,.2-.1.4-.3.5-.5.4-.8,1-.7,1.7,0,.4.2.7.6.9.5.3.7.7.6,1.2-.2,1.4-.4,2.8-.5,4.2v1.1c.1.5,0,.9-.3,1.2-.1.2-.1.3,0,.4.4.4.5.9.2,1.5-.1.3-.2.6-.2,1,.1,2.5.1,5-.1,7.7,0,.6-.1,1.1,0,1.7,0,.8,0,1.7-.1,2.6-.2,1.6-.1,3.1.2,4.5.5,1.9.7,3.3.8,4.3.3,2.9.5,5.8.8,8.8.6,1.6.7,3.2.2,4.6-.6-.1-.9-.8-1-2.1l-2.8-26.8-.3-15.5c.8-.1,1.1-.8.9-1.9-.1-.6-.4-.7-1-.6-.9.3-1.7.3-2.4.1-.5-.1-.9-.1-1.3.2-.6.4-1.2.6-1.9.4-.5-.1-.9,0-1.2.4-.2.3-.5.4-.9.4-2.9-.2-4.5,1-4.8,3.5l-1.2.6c-.3.2-.5.1-.7-.3-.3-.9-.1-1.7.5-2.3,1.7-2.7,2.7-6,2.9-9.8.1-1,.7-1.9,1.6-2.2,2.3-.9,4.9-1.9,7.6-2.8,5.9-2,11.3-3.8,16.2-5.2,3.9-1.1,8-2,12.3-2.5,1.1-.1,1.7.3,1.9,1.5l1.1,8.8c0,.3.2.5.4.7l1.5.8h0Z" style="fill:#ffb552; stroke-width:0px;"/><path d="M48.75,85.51l-1.7,10.9c-.5.3-1.1-.3-1.9-1.7l2-9.5c.7-.7,1.3-.6,1.6.3Z" style="fill:#6889a2; stroke-width:0px;"/><path d="M58.25,86.91c.6.3.9.6.9,1.2-.9.8-1.3,2-1.3,3.5l-1.8,7c-.8,4.5-1.1,9.2-1,14l.1,10.4-.4-.4c-.3-.2-.5-.2-.8.1-.1.1-.2.3-.1.6-.8-3.8-1.1-6.7-.9-8.5.4-4.4.8-8.7,1.1-13.1.3-3.1,1.1-7.3,2.5-12.8.4-1,.9-1.7,1.7-2Z" style="fill:#6889a2; stroke-width:0px;"/><path d="M233.65,112.41c-5.5-7.6-11.2-15.5-17.1-23.8-.1-.1,0-.2,0-.2l.2-.2c.3-.2.5-.2.7.1,4.7,6.2,9.6,12.9,14.7,20.1.7,1,1.5,2,2.4,2.8.2.2.3.5.3.8,0,.4-.1.9-.4,1.3-.2.4-.4.4-.6,0-.1-.1-.1-.2-.1-.4.1-.1.1-.3-.1-.5h0Z" style="fill:#a5a1a1; stroke-width:0px;"/><path d="M255.45,136.51l2.6.1,7.2-.1,2.4.1c-.2.7.4,1.1,1.8,1.1.4,0,.5-.1.3-.5-2.4-5.1-3.8-10.8-4.4-17.3-.9-10.2.2-19.8,3.3-28.8.2-.5.2-.9,0-1.1l1-1.5c.2-.3.6-.4.8-.2h0l.3.2c.4.3.5.8.3,1.2-.6,1.4-1.4,2.5-1.7,4-.6,2.7-1.7,5.3-2,8-.2,2.1-.6,4.2-1,6.2-.2.8.2,1.7.1,2.5-.2,9.5,1.4,18.6,4.8,27.6.1.3.1.5.1.8-.1.6-.5,1-1.2,1-5,.1-9.9.1-14.9-.1-.7,0-1.2-.4-1.3-1-.1-.3,0-.5.3-.7.9-.3,1.3-.8,1.2-1.5h0Z" style="fill:#a5a1a1; stroke-width:0px;"/><path d="M518.45,121.91l-33.1-32.1c.3-.1.5-.6.9-1.3.1-.4.3-.4.6-.1,5.5,5.2,10.9,10.5,16.2,15.8,3.8,3.7,7.7,7.2,11.5,11.3.7.8,2,1.8,3.7,3.2.3.2.4.5.5.9,0,.6-.1,1.4-.3,2.3h0Z" style="fill:#d6d6d6; stroke-width:0px;"/><path d="M516.75,136.51h12.2c-.2.4-.3.8-.3,1,.1.4.5.7.9.6.1,0,.3-.1.4-.2.3-.2.5-.6.6-1,5.5-15.8,5.5-31.7-.1-47.8.1-1.5.7-1.1,1.9,1.3.3.6.6,1.3.8,2.1,2.5,7.6,3.6,15.2,3.4,22.5-.2,6.7-1.7,14.4-4.7,23.2-.1.4-.4.7-.8.9-1,.5-2.1.7-3.4.6-3-.4-5.9-.4-8.9,0-1.4.2-2.3-.3-2.7-1.3-.1-.3,0-.5.2-.6.4-.2.6-.6.5-1.3h0Z" style="fill:#a5a1a1; stroke-width:0px;"/><path d="M55.45,88.41c.6.4,1.1.5,1.2.4-1.4,5.5-2.2,9.8-2.5,12.8-.4,4.4-.8,8.7-1.1,13.1-.2,1.8.2,4.6.9,8.5.1,6,1.1,12.4,3,19.3,3.3,11.7,7.1,22.5,13.8,31.8,0,.5.2.9.8,1.3,1.2,1.1,1.2,1.7-.1,1.8l-1.2-.8c-4.4-7-7.6-12.9-9.5-17.8-1.4-3.5-3.8-10.5-7.1-21.2-.4-.8-.7-2.5-1-5.1-1.2-10.5-1.1-21,.2-31.5.5-4.3,1.4-8.5,2.6-12.6h0Z" style="fill:#3f6d89; stroke-width:0px;"/><path d="M350.25,136.41c.8.2,1.6.2,2.4.1l11.2-.3c-.1.4,0,.8.2,1.1s.6.3.8.2c.1-.1.2-.2.2-.3,4.3-12.1,5.4-24.4,3.2-37.1l13.7-.3c.3,0,.5-.2.5-.5v-1.7c.4.4.6.9.5,1.6s0,1.1.5,1.2c.3,0,.6-.2.7-.5v-.2c-.7-3.9-2-7.5-3.8-10.8-.1-.2,0-.4.1-.5s.2-.1.3,0c2.8,1.4,4.9,10.2,5.6,12.8.3,1-.3,2-1.3,2.3-.1,0-.3.1-.5.1h-13.8c-.4,0-.6.2-.5.6.3,1.1.1,2,.3,3.1.8,3.5,1,7.1.5,10.9-.2,1.2-.2,2.4-.2,3.8,0,.4-.1.7-.3.9-.2.2-.3.5-.4.8-.5,3.9-1.6,8-3.1,12.4-.4,1.2-.9,2.2-1.5,3.1-.2.3-.5.4-.8.4-5.3-.1-10.7,0-16.1.1-.8,0-1.2-.3-1.5-.9-.1-.3,0-.6.3-.7h0c1.2-.4,2.1-.9,2.8-1.7h0Z" style="fill:#a5a1a1; stroke-width:0px;"/><path d="M408.05,108.91c.3,8.4-1,17.5-4,27.1-.5,1.5-1,2.6-1.6,3.2-.2.3-.5.4-.9.4l-16.1.1c-.6-.1-1-.4-1.2-.8-.1-.3,0-.7.4-.8l1.9-.9c.3-.1.5-.3.6-.6l.2-.5c.3.3.6.4.9.4,4.2.1,8.3,0,12.5,0-.1.3-.1.7,0,1.1,0,.2.2.4.4.5h.3c.3-.1.5-.2.6-.5,1.6-4.4,2.5-7.4,2.8-9.1,2-11.7,2.1-21.5.3-29.6-.3-1.6-1.4-5.1-3.2-10.7,1.7,1.3,2.9,3.2,3.5,5.7,1.4,5.9,2.3,10.9,2.6,15h0Z" style="fill:#a5a1a1; stroke-width:0px;"/><path d="M401.85,88.21c1.8,5.6,2.9,9.2,3.2,10.7,1.8,8,1.7,17.9-.3,29.6-.3,1.7-1.2,4.7-2.8,9.1-.1.3-.3.5-.6.5h-.3c-.2-.1-.4-.3-.4-.5-.1-.4-.1-.7,0-1.1l1.6-5.2c3.1-11,3.4-22.4.8-34.2-.7-3.1-1.6-5.5-2.6-7.1,1,.1,1.5-.5,1.4-1.8h0Z" style="fill:#d6d6d6; stroke-width:0px;"/><path d="M530.25,89.11c5.6,16.1,5.7,32.1.1,47.8-.2.4-.4.8-.6,1-.3.3-.8.2-1.1-.1-.1-.1-.1-.2-.2-.4,0-.3,0-.6.3-1l1.8-4.9c3.1-11.7,3.2-23.5.5-35.5-.6-2.5-1.4-4.6-2.4-6.2,1.4-.1,1.9-.4,1.6-.7h0Z" style="fill:#d6d6d6; stroke-width:0px;"/><path d="M141.35,91.01c.5.9.9,2.1,1.2,3.5l-3,1.5c-.3.1-.5.1-.6-.1-.1-.1-.1-.2-.2-.3-.1-.2-.2-.2-.4-.2-.3.1-.5.3-.6.5-.2.4-.5.4-.8.1-.4-.4-.8-.4-1.2-.2-.2.1-.4.1-.6-.1-.3-.3-.6-.4-1-.2-.3.1-.7.2-1,.1-1.2-.3-2.3-.3-3.3.1-.6.3-1.4,0-1.7-.7-.1-.2-.1-.3-.1-.5v-3.3c0-.4.3-.8.8-.8h.1c1.2.2,2.3.1,3.2-.3.1-.1.3,0,.4,0,.5.3.9.3,1.4.1,2.7-.7,5.1-.5,7.4.8h0Z" style="fill:#022e56; stroke-width:0px;"/><path d="M157.15,91.11c.5.2.9.7,1.3,1.6.1.3.3.5.5.7l1,.6,3,11.9c-4.5-.9-9-.8-13.5.3l-4.1-16c1.2-.2,2.1.5,2.6,2.1.1.3.4.5.7.4.2,0,.4-.1.6-.2.2-.1.2-.4.1-.5l-.1-.1c-.2-.1-.3-.2-.4-.4-.1-.5,0-.6.5-.4.4.2.7.6.8,1.2.1.3.3.6.6.7,3.5,1.1,5.7.6,6.4-1.9h0Z" style="fill:#ffd01a; stroke-width:0px;"/><path d="M267.25,90.01c.1.3.1.5,0,.7-5.3,15.3-5.2,30.6.3,45.9l-2.4-.1,1.2-.2c.4-.1.5-.2.3-.6-1.9-3.9-3.2-8.1-3.8-12.6,0-.3-.2-.5-.4-.7-.9-.7-1.9-1.1-3-1.4-.6-.1-.6-.4-.1-.7.2-.1.3-.3.4-.4.2-.3.1-.4-.2-.4-.6.1-1.1.5-1.3,1.1-.1.3-.3.5-.7.6-.3.1-.6.3-.8.6-.2.4-.4.4-.7,0-.1-.1-.1-.2-.2-.3-.1-.2-.3-.2-.5-.1l-2.3.9-.6-10.9c-.1-1.7-.6-1.8-1.7-.5-5.4,6.8-10.7,13.9-15.9,21.4-.4.6-.8.6-1.2,0l-17.5-25.2,9,.3c.6,0,1.1-.4,1.1-1,0-.2-.1-.5-.2-.7l-3.8-5.2-6.1-8.8c-.4-.6-1-.9-1.7-.9h-6.6c-.5,0-1.1.3-1.3.8-1.2,2.4-1.9,5-2.2,7.8-.7,3-1,6-.7,9,0,.3.2.5.4.7l.4.3c.5.3.4.6-.1.7-.3.1-.4.3-.5.5-.1.3,0,.5.4.5.1,0,.2,0,.3.1s.1.1.1.2c0,.4-.1.6-.3.6-.3,0-.5.1-.5.4-.1.5.1.8.5,1s.4.4.1.6c-1.1,1-1.3,2.3-.8,3.9.1.3.1.7.1,1-.2,1.4-.1,3,.2,4.6.8,4.2,1.5,7.6,2.3,10.2l.8,1.9.4.3c.1.1.1.2,0,.4l-.2.2c-.2-.2-.5-.2-.9-.1-5.6-14.8-5.5-31.1-.5-45.9.1-.4.5-.6.9-.6h8.7c.4,0,.8.2,1,.5l18,25.1c.1.1.3.2.4.1l.1-.1,19.1-25.1c.3-.3.7-.5,1.1-.6h12.1v.2h0ZM246.05,102.41l-3,4.3c-.3.4-.2.6.3.7,1.6.1,3.1-.3,4.7-.1,3.3.4,6.4.1,9.7.2,1.3,0,2.7,0,4.1-.1.4,0,.6-.2.7-.5.4-1,.6-2.1.6-3.2.4-4,1.4-7.9,3.1-11.8.2-.4,0-.8-.4-1-.1,0-.2-.1-.3-.1l-9.8.1c-.5,0-1,.2-1.3.6l-8.4,10.9h0Z" style="fill:#006bb5; stroke-width:0px;"/><path d="M267.25,90.01c.5-.1.9-.1,1.4,0,.2.2.2.6,0,1.1-3.1,9.1-4.2,18.7-3.3,28.8.6,6.5,2.1,12.3,4.4,17.3.2.3,0,.5-.3.5-1.4,0-2-.4-1.8-1.1-5.5-15.2-5.6-30.5-.3-45.9.1-.2,0-.5-.1-.7h0Z" style="fill:#d6d6d6; stroke-width:0px;"/><path d="M326.95,91.61c1.7,1.1,2.9,3.1,3.6,5.9,2,7.9,2.5,15.5,1.6,22.6-1-.2-1.1.9-.5,3.5-.3,1.7-.9,4-1.8,7.1-.4,1.4-1.3,2.7-2.5,3.7-2.6,1.2-4.5,1.8-5.5,1.8-12.6.1-25.2.1-37.8,0-1.9,0-3.5-.4-5.3-.9-2.2-.8-3.7-2.1-4.3-4.1-3.7-11.6-3.9-23.2-.5-35.1,1.3-4.5,5.1-6,9.4-6.1,11.1-.1,22.6-.2,34.5-.1,3.5.1,6.6.6,9.1,1.7h0ZM319.05,103.21c-.2,1.5,0,2.7.4,3.7.1.3.4.4.7.4h10.4c.3,0,.6-.3.6-.6v-.1l-.5-4.3c-.5-2.7-1.1-5.1-1.8-7.2-.5-1.5-1.5-2.5-3-3.1-2-.8-4-1.2-5.8-1.2-11.8-.1-23.8-.1-36.1-.1-3.5,0-8.5,1.7-9.4,5.7-.6,3-1.2,6.4-1.6,10-.1.5.2.7.6.7,2-.1,4-.1,6,.2,1.6.3,3.1.3,4.6,0,.4-.1.8-.4.8-.9.2-1.4.5-2.7.9-4,.6-1.8,2.7-3.1,4.5-3.1,6.4-.1,13.6-.2,21.8-.3,1.4,0,2.6.2,3.6.8,1.7.7,2.7,1.9,3.3,3.4ZM288.65,100.81c-1.2.8-1.9,2.3-2.2,4.5-1,7.4-.8,13.4.5,17.9.5,1.7,1.5,2.6,2.9,2.6,7.2.1,15,.1,23.5.1,1.8,0,3.7-.6,4.2-2.5,1.7-6.7,1.8-13.4.2-20.1-.2-.8-.9-1.8-2.1-3-8.3-.2-16.8-.2-25.3,0-1.2,0-1.7.2-1.7.5ZM276.85,133.31c2.3,1.4,5,2.1,7.9,2.1h35.2c2.1.4,3.8-.6,5.7-1.2,1.7-.5,2.7-1.8,3-3.8.2-1.3.6-2.6,1-3.8.4-1.1.5-2.1.4-3.2,0-.1-.1-.2-.2-.2-.5-.1-.8-.4-.9-1,0-.2-.1-.4-.3-.6-.5-.5-.9-.8-1.3-.9-.5-.1-.5,0-.1.3.8.6,1,1.3.7,2.1-.1.2-.4.3-.6.2-.1,0-.2-.1-.2-.3-.2-.4-.2-.7-.2-1.1,0-.2-.1-.4-.2-.5-.3-.2-.5-.2-.5.3,0,.4,0,.7-.2,1.1-.4.9-.7.9-.9-.1-.2-.8-.6-1.5-1.3-2.1-.1-.1-.2-.1-.2-.1-1,.4-1.5,1.1-1.4,2.1,0,.2-.1.4-.3.5-.1,0-.2.1-.3.1-.5,0-.6-.3-.4-.7.1-.2.1-.4.1-.6,0-.5-.3-.7-.8-.5l-.8.3c-.3.1-.5.3-.5.7-.1.4.1.7.3.9.4.2.4.5.1.8l-3.7,3c-.3.3-.7.4-1.2.4-7.6.1-15.5.1-23.6-.1-1.5,0-2.7-.5-3.7-1.6-1-1-1.7-2.3-2-3.8-.2-.8-.7-1.3-1.5-1.5-.7-.2-1,.1-.9.8l.1.5c.1.5,0,.6-.4.2-.3-.3-.5-.7-.4-1.2.1-.6-.2-.7-.7-.6-.2.1-.3.2-.4.3-.2.3-.2.6-.2,1,.1.5.1,1-.1,1.5-.1.2-.2.2-.4.2-.1-.1-.2-.2-.2-.3.2-.9.1-1.7-.1-2.4-.1-.3-.4-.4-.6-.3-.1.1-.2.2-.3.3l-.5,1.3c-.1.3-.3.4-.4,0-.2-.3-.2-.7,0-1.1.1-.4,0-.6-.5-.5l-2,.2c-.4.1-.8.4-.8.8l-.1.6c0,.3-.2.5-.4.7-.9.7-1.1,1.6-.8,2.7.8,2.9.7,5.4,3,8.1h0Z" style="fill:#006bb5; stroke-width:0px;"/><path d="M330.55,92.31c-.2.5-.1,1.2.3,2s.7,1.4.8,1.8c3.4,11.5,3.4,23-.1,34.4-.3,1.1-.7,2-1.1,2.7-1.3,2.2-2.3,2.5-3,1.1,1.3-1,2.1-2.2,2.5-3.7.9-3.1,1.5-5.5,1.8-7.1l.5-3.5c.9-7.2.4-14.7-1.6-22.6-.7-2.8-1.9-4.8-3.6-5.9.6-2.2,1.8-1.9,3.5.8h0Z" style="fill:#d6d6d6; stroke-width:0px;"/><path d="M382.35,97.61v1.7c0,.3-.2.5-.5.5l-13.7.3-1,.1c-.4.1-.5.3-.5.6,2,11.4,1.2,22.5-2.3,33.4-.2-.6-.3-1.1-.4-1.8,0-.5.1-1,.3-1.7.6-1.6.9-3.2.8-5,0-.3-.2-.5-.4-.7-.3-.1-.4-.4-.4-.6s.1-.4.3-.5c.1,0,.2-.1.2-.3,0-.3-.1-.5-.4-.5-.2,0-.3-.1-.4-.2-.2-.2-.2-.5,0-.7s.5-.3.9-.2c.1,0,.2,0,.2-.1.1-.2,0-.4-.1-.6-.2-.2-.5-.2-.6,0l-2.4,2.4c-.3.3-.6.3-.9,0l-.8-.9c-.1-.1-.1-.2,0-.3h.1l.3-.1c.3-.1.4,0,.5.2.1.4.3.5.7.4.1,0,.2-.1.2-.2.7-.7,1-1.4,1-2.1,0-.2-.1-.3-.3-.2l-.3.1c-.2.1-.3.2-.2.4.1.2.1.5,0,.7-.2.5-.5.6-.9.2l-1.2-1.1c-.3-.3-.6-.3-.9,0-.8.7-1.5,1.6-2.7,1.5-.7-.1-.8.2-.4.7.3.3.2.6-.1.8-.4.2-.6.5-.6,1-.4,2.6-1.6,5.9-3.3,9.9-.4.8-.2,1.5.6,1.9-.7.1-1.5.1-2.4-.1,5.3-11.5,6.6-23.6,3.7-36.2h-14.5l-3.4-9.6c-.2-.5,0-.7.5-.7h42.4c.4,0,.7.2.8.6l2.5,7h0ZM355.25,101.71l.7,4.5c.1.7.8,1.3,1.5,1.2,2.8-.3,5.4-.3,7.8,0,1,.1,1.5-.3,1.4-1.4l-.9-6.5,15.6-.1c.2,0,.4-.2.4-.4v-.1c-.6-2.5-1.5-5-2.7-7.5-.2-.3-.4-.5-.8-.5l-40.9-.1c-.1,0-.2.1-.2.2v.1l3.1,8.1c.1.2.2.3.4.3,5.4-.4,9.8-.4,13.2,0,.8-.1,1.3.7,1.4,2.2Z" style="fill:#006bb5; stroke-width:0px;"/><path d="M400.45,89.91c1.1,1.6,2,4,2.6,7.1,2.6,11.9,2.4,23.3-.8,34.2-.4-2.3-.1-5.2.8-8.6.3-1-.2-1.7-1.4-2.1-.3-.1-.6,0-.8.2-.4.4-.8.4-1.2-.1-.2-.3-.5-.3-.8,0-1,1-2.2,1.7-3.6,2.2h-.2c-.1,0-.1-.1-.2-.2s-.1-.2,0-.3l2.9-2.5c.1-.1.1-.3,0-.4s-.3-.1-.4,0h0c-.8.6-1.5,1.3-2.2,2.1-.2.3-.5.5-.9.6-.3.1-.6.1-.9.1-.4,0-.7.2-.8.6l-3,10.1c-.3.7-.6,1.3-1,1.7h-.8c6.1-14.8,6-29.6-.4-44.3-.1-.1,0-.3.1-.4h13,0ZM403.35,106.51c0-5.5-.9-10.5-2.7-15.1-.2-.4-.6-.7-1.1-.7l-10.2-.1c-.3,0-.6.2-.6.6,0,.1,0,.2.1.2,2.3,4.7,3.8,9.7,4.6,14.9.1.4.3.6.7.5.8-.1,1.7,0,2.5.4,1.2.5,2.3.3,3.5.4.3,0,.5-.1.7-.3.3-.3.6-.3.9-.1,1,.9,1.6.7,1.6-.7Z" style="fill:#006bb5; stroke-width:0px;"/><path d="M462.25,91.51c1.8.9,3,2.3,3.7,4.2,4.1,11.3,4.2,22.7.2,34-1,2.8-2.5,4.8-4.5,6.1-.8.1-1.8.2-2.8.4-.9.2-1.9.3-2.8.3-10.8.1-21.7.1-32.6,0-.9,0-1.8,0-2.8-.1s-1.9-.1-2.8,0c-4.3-1.3-6.5-4.1-6.6-8.5,0-1.5.2-4.5.7-9,.6-5.8.5-12.1-.5-19-.9-6.5,2-9.8,8.8-9.8,14.3-.2,26.3-.3,36-.1,1.9,0,3.9.5,6,1.5h0ZM412.45,100.41l.9,6.5c0,.3.2.4.5.4h9.7c.3,0,.5-.2.5-.5l.4-5c.6-1.6,1.7-2.5,3.1-2.5,12.4-.1,20.4-.1,24,0,1.4,0,2.7.8,3.7,2.4l1.6,4.9c.1.3.3.4.6.4l9.1.2c.3,0,.5-.1.6-.5.5-2.1.3-3.8-.5-5.2-.4-2.2-1-4.2-1.7-6-.6-1.4-1.6-2.5-2.9-3.3-1.9-1.1-3.9-1.7-6.2-1.6-9.4.1-20.2.1-32.5-.1-6.8.1-12.1,1.5-10.9,9.9h0ZM425.25,101.51c.5,7.5.5,14.9-.1,22.1-.1,1.2.8,2.3,2,2.4h23.8c.7,0,1.3-.1,2-.4,1-.5,1.6-1.1,1.8-1.8,2.2-7.8,2-15.3-.5-22.4-1.1-.7-2.1-1.1-2.9-1.1-7.3-.1-14.5-.1-21.7-.1-1.7-.1-3.1.3-4.4,1.3h0ZM414.65,133.71c2.1,1.3,4.4,2,6.9,2,11.9.1,23.8,0,35.7-.1,2,0,3.8-.6,5.4-1.6,1.4-1.4,2.2-3.1,2.5-5.1,0-.3.1-.6.3-.9.9-1.4.9-2.7.1-4.2-.3-.5-.1-.7.4-.6.1,0,.2,0,.2-.1.2-.4,0-.7-.4-.9-.6-.2-1.2-.6-1.6-1.3-.2-.3-.5-.4-.8-.2l-3.3,2c-.1,0-.1.1-.2.1-.3.1-.5.1-.5-.1-.1-.3,0-.5.2-.6.9-.7,1.6-1.4,2.3-2.2.4-.5.3-.6-.2-.4-.6.2-1.1.7-1.5,1.4-.1.2-.3.3-.6.2-.4-.1-.6-.2-.5-.4.1-.2,0-.2-.1-.2h-.4c-.2,0-.3.1-.2.3.1.1.2.2.3.3.5.2.6.6.2,1-.6.6-1.3.9-2,.9-.4,0-.6.2-.8.5-1.3,2.3-2.9,3.5-4.7,3.6-6.9.2-14.8.2-23.9-.1-.4,0-.8-.2-1.2-.4l-2.4-1.9c-.3-.2-.4-.6-.4-.9v-.6c0-.4-.2-.7-.6-.8-.3-.1-.5-.3-.7-.5-.5-.6-.8-.5-.8.3,0,.1-.1.2-.2.2-.4.1-.6-.1-.7-.5s-.3-.8-.5-1.2c-.3-.4-.5-.4-.6.1-.1.7.1,1.2.6,1.5.2.1.3.4.2.7,0,.1-.1.2-.2.2-.4.2-.9.3-1.2.1-.3-.1-.5-.4-.5-.8s-.1-.6-.3-.9c-.4-.4-.6-.3-.6.2v.7c0,.4-.2.6-.5.7-.4.1-.8.1-1.2-.2-.4-.2-.4-.5-.1-.8.9-.7,1.7-1.5,2.5-2.4.1-.1.1-.2,0-.3h0c-.1-.1-.2-.1-.4,0-.9.8-1.7,1.7-2.5,2.5-.2.2-.5.3-.8.3h-.5c-.3,0-.5.2-.6.5-.2,1.6-.3,3.2-.5,4.9-.4,2.4.3,4.5,1.9,6h0Z" style="fill:#006bb5; stroke-width:0px;"/><path d="M485.35,89.81l33.1,32.1c.4.4.7.7,1,.8s.5,0,.5-.3c1.9-11,.6-21.6-4-31.8-.1-.2,0-.5.2-.6h.2l12.4-.1c1,1.6,1.8,3.7,2.4,6.2,2.7,12,2.6,23.8-.5,35.5-.8-1.2-.9-2.6-.3-4.4.4-1.2.6-2.1.7-2.6,0-.9,0-1.8-.1-2.8,0-.3-.1-.5-.3-.7s-.5-.2-.8-.1-.5.4-.6.8c-.1.8-.5,1.4-1.1,1.8-.5.4-1.2.3-1.6-.2-.1-.2-.2-.4-.2-.6-.1-.8-.4-1.4-.9-1.9s-1.3-.4-1.7.1c-.1.1-.2.2-.2.4-.2.6-.6.9-1.2.9-.3,0-.5.2-.5.5-.1.5-.3,1-.7,1.4-.1.1-.3.2-.4.3-.7.3-1.1.4-1.1.1-.1-.4-.3-.6-.7-.5-.9.2-1.7-.1-2.2-.9-.7-1.1-1.7-1.7-3-1.9-.3,0-.5.1-.5.4v.4c0,.1.1.2.2.2.5,0,1,.1,1.4.4s.4.5-.1.6c-.4.1-.7.1-1.1-.1-.7-.3-1.4-.9-1.7-1.6-.3-.5-.7-.8-1.3-1h-.2c-.07.07-.1.13-.1.2,0,.2.1.3.2.4.6.3,1.1.7,1.4,1.2.2.3.1.6-.1.8l-1,.9c-.1.1-.3.1-.4-.1-.1-.1-.1-.3,0-.4l.6-.6c.5-.5.4-.7-.3-.7-1.1.1-1.6-.4-1.5-1.4v-.2c-.1-.1-.2-.2-.3-.2-.2,0-.4,0-.4.2-.2.7,0,1.2.5,1.5.2.1.3.3.1.4-.1.1-.2.1-.4.1s-.3-.1-.5-.3c-.6-.7-1.3-1.3-2-1.8-.5-.3-.6-.2-.3.2.3.5.8.9,1.3,1.1.2.1.3.2.3.4,0,.5-.2.7-.7.6-.6-.1-1.2-.6-1.6-1.3-.2-.3-.5-.4-.8-.2-.2.1-.3.2-.4.5l-14.3-14.4c-.2-.2-.6-.2-.8,0-.1.1-.2.3-.2.4l.3,12.9c.1,3.5-.6,7.3-2.1,11.4-.4-1.4-.5-2.6-.1-3.6.8-2.2,1-4.2.6-6,0-.2-.2-.4-.3-.5l-2.1-1.8c-.2-.1-.3-.1-.4.1l-.2.3v.1c.9.4,1.2,1.1,1,1.9-.1.4-.3.5-.5.1s-.4-.8-.7-1.2c-.4-.6-.6-.5-.8.1-.1.6-.5,1.3-1,1.8-.2.3-.5.3-.8.1-.8-.6-1.2-1.3-1.3-2.2,0-.1-.1-.2-.2-.2h-.3c-.3.1-.4.3-.5.6-.1.9-.6,1.3-1.5,1.4-.4,0-.6.2-.6.6,0,1.3-.3,2.5-.8,3.7-.2.4-.2.7-.2,1.1,0,.3,0,.6-.1.8l-2.8,7c-.2.1-.6.1-1.3.1,6.8-15.2,7-30.5.5-45.9-.1-.3,0-.5.3-.5l12.5-.3h0ZM476.85,101.91l.9,4.8c.1.3.2.5.6.5l9.4.1c.2,0,.3-.1.4-.2.1-.2.2-.3.3-.4.3-.3.4-.2.6.1.2.7.7.9,1.3.7.3-.1.6-.1.9-.1l9.6.1c.3,0,.5-.2.5-.5,0-.1-.1-.3-.2-.4l-5.2-4.9-10.2-10.3c-.4-.4-.8-.6-1.3-.6l-10.1-.1c-.5,0-.8.4-.8.8,0,.1,0,.2.1.4,1.5,3.2,2.6,6.6,3.2,10h0ZM520.65,102.11l1,4.6c.1.3.3.5.6.5h8.3c.1,0,.3.1.4.2.1.1.3.1.4,0l.3-.3c.1-.1.1-.2.1-.2l-.5-4.1-2.5-10.9c-.1-.6-.6-1-1.2-1l-10-.1c-.3,0-.6.2-.6.5v.2s3.7,10.6,3.7,10.6Z" style="fill:#006bb5; stroke-width:0px;"/><path d="M123.65,89.91l3.3,5.8,3.3,20c-1.1-.9-1.7-2.2-1.7-4,0-1.7-.2-2.8-.4-3.2-.6-1-1.8-1.6-3.3-1.6-4.1,0-8.2.5-12.2,1.7l-1.2-15.8c1.3-.6,2.4-1.4,3.4-2.4.3-.3.4-.2.5.2,0,.2,0,.3-.2.4,0,0-.1,0,0,.1h0c.6.4,1,.4,1.3-.2.2-.5.5-.5.8-.1s.6.4,1,.1.7-.4,1.1-.1c.2.2.5.2.8,0,.2-.2.5-.2.7-.1.6.2,1.6,0,2.8-.8h0Z" style="fill:#ffd01a; stroke-width:0px;"/><path d="M164.75,90.21c2.4,6.8,4,12.8,4.8,18,.3,2,.6,3.2.8,3.7-.4,1.2-.5,2.3-.3,3.5,0,.1-.1.1-.1.2-.5-1.2-1.1-1.7-2-1.4-.7.2-1.5-.2-1.7-.9,0-.1-.1-.3-.1-.5v-3.4c0-1-.3-2.1-.8-3.2-.7-1.6-1.3-3.3-1.6-5.1-.7-3.7-1.4-5.9-2.7-8.9-.2-.4-.1-.9.2-1.2.8-.8,1.4-.7,1.8.2h0c.4.6.7.9,1.1.8.2-.1.3-.2.3-.3.2-.5.3-.9.3-1.5Z" style="fill:#10446f; stroke-width:0px;"/><path d="M467.55,93.61h-.4c-.3,0-.4.2-.3.4,4.7,12.1,4.8,24.6.3,37.4-.4,1.1-.9,2.1-1.6,3.1-1.9,2.6-3.3,3-4,1.4,2-1.3,3.5-3.3,4.5-6.1,4-11.4,3.9-22.7-.2-34-.7-1.9-1.9-3.3-3.7-4.2.3,0,.7,0,1-.1.5-.1.6-.3.2-.7-.07-.07-.07-.13,0-.2.1-.2.2-.3.4-.2,1.5.6,2.7,1.7,3.8,3.2h0Z" style="fill:#d6d6d6; stroke-width:0px;"/><path d="M222.55,100.41c-1,.7-1.9.7-2.8.2-.1-.1-.3-.1-.4-.1-.2,0-.3,0-.4.1-.2.1-.4.1-.6.1-2.7-.8-5.5-.9-8.4-.3-.3.1-.7.1-1-.1-.8-.2-1.6-.2-2.5,0-.2.1-.4.2-.5.4,0,.1-.1.2-.2.2-.3.1-.6,0-.7-.4l-.4-1.3c.3-2.8,1.1-5.4,2.2-7.8.2-.5.7-.8,1.3-.8h6.6c.7,0,1.3.3,1.7.9l6.1,8.9h0Z" style="fill:#00a5de; stroke-width:0px;"/><path d="M263.25,103.61c-.3-1.4-1-2-2.3-1.9-.3,0-.6,0-.9-.2-.6-.3-1.2-.3-1.8.1-.3.2-.5.2-.8.1-1.5-.5-3.1-.5-4.5.1-.2.1-.3,0-.5-.1-.9-.6-1.7-.6-2.5.1-.3.3-.7.3-1-.1-.2-.3-.4-.3-.6.1-.1.1-.1.2-.2.3-.2.2-.4.2-.7.2-.5-.1-.9-.1-1.4.1l8.4-10.9c.3-.4.8-.6,1.3-.6l9.8-.1c.4,0,.8.3.8.7,0,.1,0,.2-.1.3-1.6,3.9-2.7,7.8-3,11.8h0Z" style="fill:#00a5de; stroke-width:0px;"/><path d="M330.65,102.31c-4.5-.5-8.3-.2-11.6.8-.6-1.5-1.6-2.6-3-3.3-1-.5-2.2-.8-3.6-.8-8.2.1-15.5.2-21.8.3-1.9,0-4,1.3-4.5,3.1-.4,1.3-.7,2.7-.9,4-.1.4-.4.8-.8.9-1.5.3-3.1.3-4.6,0-2-.4-4-.3-6-.2-.5,0-.7-.2-.6-.7.4-3.6,1-6.9,1.6-10,.8-4,5.8-5.7,9.4-5.7,12.2,0,24.2,0,36.1.1,1.9,0,3.8.4,5.8,1.2,1.5.6,2.4,1.6,3,3.1.5,2.1,1.1,4.5,1.5,7.2Z" style="fill:#00a5de; stroke-width:0px;"/><path d="M365.75,99.51c-.2,1.8-1.1,2.7-2.7,2.7h-5.4c-.3,0-.5.1-.7.4-.1.1-.2.2-.4.3-.3.2-.5.1-.6-.3-.1-.5-.4-.9-.7-1-.2-1.4-.6-2.2-1.5-2.3-3.5-.4-7.9-.4-13.2,0-.2,0-.4-.1-.4-.3l-3.1-8.1c0-.1,0-.2.1-.3h.1l40.9.1c.4,0,.6.2.8.5,1.2,2.5,2.1,5,2.7,7.5.1.2-.1.5-.3.5h-.1l-15.5.3h0Z" style="fill:#00a5de; stroke-width:0px;"/><path d="M403.35,106.51c0,1.3-.5,1.6-1.6.7-.3-.3-.6-.2-.9.1-.2.2-.5.3-.7.3-1.2,0-2.3.1-3.5-.4-.9-.3-1.7-.5-2.5-.4-.4,0-.6-.1-.7-.5-.8-5.2-2.3-10.1-4.6-14.9-.1-.3,0-.6.3-.7.1,0,.2-.1.2-.1l10.2.1c.5,0,.9.3,1.1.7,1.7,4.6,2.6,9.7,2.7,15.1Z" style="fill:#00a5de; stroke-width:0px;"/><path d="M466.75,101.81c-3.8.9-7.6.9-11.5.1-1-1.6-2.3-2.4-3.7-2.4-3.6-.1-11.6-.1-24,0-1.4,0-2.5.8-3.1,2.5l-10.6.2c-.3,0-.6-.2-.7-.5-.2-.5-.4-.9-.7-1.1-1.2-8.4,4.1-9.8,11-9.7,12.3.2,23.1.2,32.5.1,2.3,0,4.4.5,6.2,1.6,1.3.8,2.3,1.9,2.9,3.3.7,1.7,1.3,3.6,1.7,5.9h0Z" style="fill:#00a5de; stroke-width:0px;"/><path d="M495.95,101.71c-5.4.7-10.6.9-15.8.6-.5,0-.8-.2-1.2-.6-.3-.3-.5-.3-.8,0-.5.5-1,.6-1.3.2-.6-3.4-1.7-6.8-3.3-10-.2-.4,0-.9.4-1.1.1-.1.2-.1.4-.1l10.1.1c.5,0,1,.2,1.3.6l10.2,10.3h0Z" style="fill:#00a5de; stroke-width:0px;"/><path d="M531.35,102.71l-10.7-.6-3.5-10.6c-.1-.3.1-.6.3-.7h.2l10,.1c.6,0,1.1.4,1.2,1,0,0,2.5,10.8,2.5,10.8Z" style="fill:#00a5de; stroke-width:0px;"/><path d="M330.55,92.31c1.8,1.8,3,3.9,3.5,6.3.4,1.8.7,3.5,1,5.1,1.6,9.8.9,19.2-2.1,27.9-.8,2.3-2.2,4.5-4.5,5.6-3.1,1.5-6.1,2.2-8.9,2.2-13,.1-25.1,0-36.2,0-2.4,0-4.6-.8-6.5-2.4-.4-.4-.4-.6.2-.7.4-.1.8,0,1.1.2.4.2.6.1.7-.4l.1-.9c1.8.4,3.4.9,5.3.9,12.6.1,25.2.1,37.8,0,1,0,2.9-.6,5.5-1.8.7,1.4,1.7,1.1,3-1.1.4-.7.8-1.6,1.1-2.7,3.5-11.4,3.5-22.9.1-34.4-.1-.4-.4-.9-.8-1.8-.6-.8-.7-1.5-.4-2h0Z" style="fill:#a5a1a1; stroke-width:0px;"/><path d="M92.05,114.01c-.4-1.2-.6-2.6-.4-4,0-.4-.1-.7-.3-1-.5-.6-.9-1.4-1.1-2.1-.3-.9-.6-.9-.9,0-.1.2-.2.5-.4.7-.3.3-.7.3-1,.1-.2-.2-.4-.2-.7,0-.2.2-.4.3-.7.3-1.2.3-2.5.2-3.8-.2-.2-.1-.4,0-.5.1-.7.8-1.6,1.4-2.8,1.6-.2,0-.3.1-.4.2s-.1.3-.1.4c0,.2-.1.4-.3.4-.4.1-.9-.1-1.4-.6l-.7-8.9c.1-.1.1-.2.2-.3,0-.2-.1-.4-.3-.4-.1,0-.3-.1-.4-.2s-.1-.3,0-.4h0c.6-.5,1.3-.7,2-.6.4.1.8-.1,1.1-.4.3-.4.6-.4,1-.1.3.3.6.3.9,0,.4-.4.9-.7,1.3-1.1.2-.1.3-.2.5-.1.2,0,.3.1.3.3.1.2.1.4-.1.5l-.5.4c-.2.1-.2.2,0,.4.1.1.2.1.3,0,.1,0,.1-.1.1-.1.4-.7.8-1.4,1.2-2.1.1-.2.2-.2.4-.2.1,0,.2,0,.3.1.2.1.3.3.3.6,0,.1,0,.3.1.5,0,.2.2.3.4.3s.3-.2.3-.4c0-.4,0-.7.2-1.1s.5-.4.7-.1.3.6.3,1c0,.5.2.6.6.3.2-.1.2-.2.2-.4-.1-.4,0-.7.4-1l1-.8c.2-.2.6-.1.7.1h0c.3.4.6.8,1.1,1.1.6.4.7.3.3-.3-.1-.1-.1-.2-.2-.2-.6-.3-.5-.6.1-.7,1.2-.3,2.2-1,3-2.1.2-.4.5-.4.7,0,.1.1.1.2.1.4s-.1.3-.3.4c-1,.6-1.6,1.5-1.8,2.6,0,.3-.2.6-.4.9-.6.8-1,1.7-1.3,2.7-.2.9-.2,1.7,0,2.4.2.5.3,1,.4,1.5.6,3,.6,6.3.3,9.6h0Z" style="fill:#ffd01a; stroke-width:0px;"/><path d="M467.55,93.61c2.3,3.6,3.6,7.4,4.1,11.4.2,2,.5,3.4.8,4.1.1,6.5-.7,12.8-2.4,19-.9,3.4-2.2,6-3.8,7.8-2.2,2.4-4.4,3.6-6.7,3.6-13.7-.2-27.4-.1-41.1.4-2.4-.9-4.2-2.2-5.5-3.7-.13-.2-.1-.27.1-.2,1.9.9,3.5,1,4.8.4.9-.1,1.8,0,2.8,0,.9.1,1.9.1,2.8.1,10.9.1,21.7.1,32.6,0,.9,0,1.9-.1,2.8-.3,1-.2,2-.3,2.8-.4.7,1.6,2.1,1.1,4-1.4.7-.9,1.2-1.9,1.6-3.1,4.4-12.9,4.3-25.4-.3-37.4-.1-.3,0-.4.3-.4,0,.1.1.1.3.1h0Z" style="fill:#a5a1a1; stroke-width:0px;"/><path d="M45.15,94.81c.8,1.4,1.5,1.9,1.9,1.7-1.5,10-2,20.1-1.5,30.1.1.9,0,1.7-.4,2.6-.5,1.1-.8,1.9-.8,2.4-.2,1.2-.2,2.4-.2,3.6.7,10.8,2.7,21.4,5.9,31.6.6,2.1,1.4,4.1,2.3,6.1.1,1,.5,1.9,1.2,2.8.3.4.6.4.9,0,.5-.6,1.1-.6,1.8-.1.4.3.8.4,1.2.3,1.4-.2,2.8-.2,4.2,0,1.1.1,2.3.8,3.6,1.9,1,.8,2,1.7,3.1,2.6,2.2,1.6,4.6,2.2,7.3,2,.2,0,.3-.1.3-.3v-.3c0-.3-.2-.4-.4-.4-2.1.2-3.9-.4-5.1-1.8-1.2-1.3-2.3-2.9-3.2-4.9-.8-1.8-1.6-3.5-2.5-5.2-2.1-3.9-4.1-7.5-6-10.8-.5-.9-.9-1.8-1-2.6-.2-.9-.5-1.7-1.1-2.4-.2-.3-.3-.6-.3-1,0-.7-.2-1.4-.6-2-.2-.2-.3-.5-.3-.8l-.4-3.4c0-.3-.2-.6-.4-.9-.8-.9-.5-2.1-.6-3.2-.1-1.5-.2-3.1-.2-4.8,3.4,10.7,5.7,17.7,7.1,21.2,2,4.8,5.1,10.7,9.5,17.8.2,1,.7,2,1.6,2.9.2.2.5.4.8.4,1.8.2,3.5.7,5.2,1.6-.7,0-1,.1-1,.2,0,.7.6,1.3,1.3,1.3,2.7.2,5.4.5,7.9.8s5.2.5,7.9.6c4.3.2,8.6.4,12.7.7,2.2.1,4.5.1,6.8,0,3.1-.2,5.4-.5,6.9-.8,2.6-.6,4.8-.7,6.5-.4-3.8.9-8,1.6-12.8,2-.4,0-.8,0-1-.2-.1-.1-.2-.1-.4-.1-3.4.2-6.8.5-10.2.9-.5.1-.9.1-1.3.1-1,0-1.4.4-1.4,1.3,0,.4-.2.6-.6.6h-.5c-.3,0-.5.1-.7.4-.3.7-.9,1.1-1.6,1-.3,0-.5-.3-.5-.6h0c.1-.8.5-1.4,1.1-1.9.2-.2.2-.4.1-.6-.1-.1-.1-.2-.2-.2-.2-.1-.4-.1-.6,0-.9.5-1.4,1.1-1.6,1.8-.1.3-.3.4-.6.3-.4-.1-.8,0-1.1.3-.5.5-1.2.6-1.7.1-.2-.2-.3-.4-.4-.7-.1-.5.1-.8.6-1,.6-.2.6-.4,0-.7-.3-.1-.6-.1-.9,0s-.4.3-.5.5c-.4,1.5-1.6,1.9-3.6,1.2-.3-.1-.4-.4-.3-.7,0-.1.1-.2.1-.2l.3-.3c.3-.3.3-.6-.2-.8-.6-.3-1.2-.1-1.7.4-.2.3-.5.4-.8.3-.6-.1-1,.1-1.3.7-.3.5-.5.4-.6-.1s-.2-.9-.1-1.4c0-.8-.3-1-.9-.5-.4.3-.8.3-1.2.3-.6-.1-.9.1-1,.7-.1.6-.5.9-1.1,1.1-.5.2-.8,0-.8-.6,0-.4.2-.8.5-1,.4-.3.4-.5-.1-.6-.1-.1-.3-.1-.5-.1s-.4.1-.5.2c-.9.8-2.5.9-3.5.1-.8-.5-1.6-.7-2.5-.5-.5.1-1-.1-1.4-.4-.5-.5-1-.4-1.5,0-.2.2-.4.2-.6,0l-.1-.1c-.1-.2-.3-.3-.5-.3-.8.1-1.9-.2-2.7-.4-.2,0-.4,0-.6.1-.4.2-.8.1-1.1-.2-.2-.3-.5-.4-.8-.4l-4.6.1-2.2-4.3c-.2-.3-.3-.3-.4,0,0,.1-.1.2-.1.4-2.9-6.4-5.2-13.1-6.9-20-2.8-11.8-4.3-23.8-4.6-36-.1-10,.8-19.6,2.8-29.1h0Z" style="fill:#9bb0c4; stroke-width:0px;"/><path d="M59.45,94.81l-.4,10.5c-.6.6-.8,1.4-.5,2.3.1.3.3.4.7.3l1.2-.6c4-1.3,7.9-2.4,11.7-3.2.5-.1.8.1,1,.6l.3,15.8-14.4-.7c-.3,0-.6-.1-.9-.4-.5-.5-.6-1.1-.1-1.8.1-.2.2-.3.3-.5.4-1.1,1-1.7,1.9-1.8.3,0,.6-.2.7-.5.5-.9.3-1.5-.5-2-.2-.1-.2-.3,0-.4.07-.07.07-.13,0-.2-.1-.1-.2-.2-.3-.2-.4-.1-.7-.3-1.1-.6-.8-.7-1.8-.6-2.3.3-.2.3-.4.5-.7.6s-.6.2-.8.1c-.1-4.8.2-9.5,1-14,.5,0,.9-.3,1.2-.8.2-.3.4-.4.8-.4,1,0,1.5-.8,1.2-2.4Z" style="fill:#022e56; stroke-width:0px;"/><path d="M204.55,99.41l.4,1.3c.1.3.3.5.7.4.1,0,.2-.1.2-.2.1-.2.3-.4.5-.4.8-.2,1.6-.2,2.5,0,.3.1.6.1,1,.1,2.9-.6,5.7-.5,8.4.3.2.1.4,0,.6-.1.1-.1.3-.1.4-.1s.3,0,.4.1c.9.5,1.9.5,2.8-.2l3.8,5.2c.3.5.2,1.1-.2,1.5-.2.1-.4.2-.7.2l-9-.3-2.6-3.3c-.3-.4-.6-.4-.7.1-.4,1-.6,2-.6,3.2,0,.8-.4,1.1-1.2,1.1-.3,0-.6-.1-.9-.2-.5-.2-.6-.1-.3.4s.8.6,1.4.5c.3-.1.6.1.7.4.1.4.1.7-.2,1.1-.2.3-.5.4-.9.3-.2-.1-.5-.1-.7,0s-.3.2-.1.4c.1.1.2.2.4.2.3,0,.5.1.6.5,0,.5-.1.7-.5.8-.3.1-.4.2-.2.5,0,.1.1.2.2.2.3,0,.5.1.6.3.8.9.9,1.9.5,3-.1.3-.1.6,0,.9.4.9.7,1.7.4,2.7-.5,1.6.4,2.7.6,4.1.3,2.4.9,4.8,1.7,7.3.1.2.2.3.3.3.4.1.6-.1.6-.5l1.7,5.6h-9.8c.1-.1.2-.1.2-.2.1-.1.1-.2,0-.4l-.4-.3,7.6-.4c.7,0,.8-.3.5-.9-.1-.2-.3-.4-.4-.6-.5-.6-1.1-.8-1.8-.8l-6.6.7c-.7-2.6-1.5-6-2.3-10.2-.3-1.7-.4-3.2-.2-4.6,0-.3,0-.7-.1-1-.5-1.6-.2-2.9.8-3.9.3-.3.3-.5-.1-.6-.4-.2-.6-.5-.5-1,0-.3.2-.4.5-.4.2,0,.3-.2.3-.6,0-.1,0-.2-.1-.2-.1-.1-.2-.1-.3-.1-.3,0-.4-.2-.4-.5.1-.3.2-.4.5-.5.5-.2.6-.4.1-.7l-.4-.3c-.3-.2-.4-.4-.4-.7-.2-3.5,0-6.5.7-9.5h0Z" style="fill:#0084c6; stroke-width:0px;"/><path d="M365.75,99.51l.9,6.5c.1,1-.3,1.5-1.4,1.4-2.3-.3-4.9-.3-7.8,0-.7.1-1.4-.4-1.5-1.2l-.7-4.5c.3.1.6.4.7,1,.1.3.3.4.6.3.1-.1.3-.2.4-.3.2-.2.4-.4.7-.4h5.4c1.6-.1,2.5-1,2.7-2.8h0Z" style="fill:#0084c6; stroke-width:0px;"/><path d="M315.65,100.31c-.3,1.2-.3,2.2,0,2.9.4.8.2,1-.6.6-.1-.1-.3-.2-.4-.2-.2-.1-.3-.1-.5-.1-8.1.1-16,.1-23.5-.1-.5,0-.9.3-1,.8-.5,1.8-.6,3.8-.6,5.9.2,4.5-.2,9.1,1.1,13.3.2.6,0,.8-.6.7l-.3-.1c-.6-.1-1-.5-1.1-1.1-1.5-6.4-1.7-11.8-.6-16.2.7-2.9,1.1-4.9,1.1-6,0-.3.5-.4,1.6-.5,8.6-.1,17-.1,25.4.1Z" style="fill:#a5a1a1; stroke-width:0px;"/><path d="M454.25,101.31c-1.1-.3-1.6-.2-1.6.2,0,.7.3,1.4.6,1.9.2.3.1.5-.2.6-.2.1-.3,0-.4-.2s-.3-.3-.5-.3h-23.1c-.4,0-.6.2-.6.5-.2,2-.1,4,.4,5.9.4,1.3.6,2.7.3,4-.8,3.2-1,6.5-.6,9.7,0,.2-.1.3-.3.3l-1.6-.1c-.2,0-.3-.1-.3-.3.5-6.6.6-13.2.4-19.7,0-.3,0-.7.2-1,.1-.2.1-.4.1-.6,0-.5-.3-.8-.8-.8h-1.1c1.2-.9,2.7-1.4,4.3-1.4,7.2,0,14.5,0,21.7.1,1,.1,2,.4,3.1,1.2Z" style="fill:#a5a1a1; stroke-width:0px;"/><path d="M144.15,100.41l.8,4.4c-3.7,1.6-8.1,2.1-13.1,1.6-.8-.1-1.5-.6-1.7-1.4-.2-.6-.2-1.3,0-2.2.2-.8.9-1.5,1.8-1.5l12.2-.9Z" style="fill:#022e56; stroke-width:0px;"/><path d="M339.45,100.21h14.5c-1,.5-1.5,1.5-1.4,2.9,0,.3-.1.5-.5.5-3.7-.1-7.3-.1-10.8,0-1.3,0-2.3-.2-3.1-.7-.7-.4-.7-.9-.1-1.5.2-.2.4-.3.6-.3.5-.1.8-.4.8-.9Z" style="fill:#a5a1a1; stroke-width:0px;"/><path d="M368.25,100.11c2.2,12.6,1.1,25-3.2,37.1-.1.3-.5.5-.8.4-.1,0-.2-.1-.3-.2-.2-.3-.3-.7-.2-1.1l.7-1.9c3.6-10.9,4.3-22.1,2.3-33.4-.1-.4.1-.6.5-.6l1-.3h0Z" style="fill:#d6d6d6; stroke-width:0px;"/><path d="M412.45,100.41c.3.3.5.7.7,1.1.1.3.4.5.7.5l10.6-.2-.4,5c0,.3-.2.5-.5.5h-9.7c-.3,0-.5-.1-.5-.4l-.9-6.5h0Z" style="fill:#0084c6; stroke-width:0px;"/><path d="M76.55,101.01l.7,8.9,1.2,15.9c0,.5.2.6.5.2s.7-.6,1.1-.7c3.6-.7,7.4-.9,11.4-.7.3,0,.5.2.6.5.2.6.5,1.2.9,1.8.2,1,.3,1.5.3,1.6.3,1.1.5,2.2.6,3.4.2,2.4.5,4.9.9,7.7.2,1.2-.1.9-.8-1.1-.1-.4-.4-.5-.8-.4-.7.2-1.3.6-1.7,1.2-.2.3-.5.5-.9.6-.5.1-1,.3-1.4.6-.3.2-.6.3-.9.3-2.1,0-4.7.4-6.6-.7-.9-.5-1.8-.9-2.7-1.3-.8-.3-1.7,0-2.1.8-.1.2-.1.4-.1.7l.2,4.5c-.2-2.9-.5-5.8-.8-8.8-.1-1-.4-2.5-.8-4.3-.3-1.4-.4-2.9-.2-4.5.1-.9.1-1.8.1-2.6v-1.7c.2-2.6.2-5.2.1-7.7,0-.3,0-.7.2-1,.2-.6.2-1.1-.2-1.5-.1-.1-.1-.3,0-.4.3-.4.4-.8.3-1.2-.1-.4-.1-.7,0-1.1.2-1.4.3-2.8.5-4.2.1-.5-.1-.9-.6-1.2-.3-.2-.5-.5-.6-.9-.1-.7.2-1.2.7-1.7.2-.1.3-.3.3-.5v-.3c0-.2.1-.3.3-.3.1.2.2.1.3.1h0Z" style="fill:#ffffd6; stroke-width:0px;"/><path d="M495.95,101.71l5.2,4.9c.2.2.2.5,0,.7-.1.1-.2.2-.4.2l-9.6-.1c-.3,0-.6,0-.9.1-.6.2-1.1,0-1.3-.7-.1-.3-.3-.4-.6-.1-.1.1-.2.3-.3.4-.1.2-.2.2-.4.2l-9.4-.1c-.3,0-.5-.2-.6-.5l-.9-4.8c.3.3.8.3,1.3-.2.3-.3.6-.3.8,0,.3.4.7.5,1.2.6,5.3.2,10.5,0,15.9-.6h0Z" style="fill:#0084c6; stroke-width:0px;"/><path d="M263.25,103.61c0,1.1-.2,2.1-.6,3.2-.1.3-.4.5-.7.5-1.4.1-2.8.1-4.1.1-3.3-.1-6.4.2-9.7-.2-1.6-.2-3.1.2-4.7.1-.5,0-.6-.3-.3-.7l3-4.3c.4-.1.9-.2,1.4-.1.3.1.5,0,.7-.2.1-.1.1-.2.2-.3.2-.3.4-.4.6-.1.3.4.6.4,1,.1.8-.7,1.7-.8,2.5-.1.1.1.3.1.5.1,1.5-.6,3-.6,4.5-.1.3.1.5.1.8-.1.6-.4,1.2-.4,1.8-.1.3.2.6.2.9.2,1.1,0,1.9.6,2.2,2h0Z" style="fill:#0084c6; stroke-width:0px;"/><path d="M466.75,101.81c.8,1.4,1,3.2.5,5.2-.1.3-.3.5-.6.5l-9.1-.2c-.3,0-.5-.2-.6-.4l-1.6-4.9c3.8.7,7.6.6,11.4-.2h0Z" style="fill:#0084c6; stroke-width:0px;"/><path d="M520.65,102.11l10.7.6.5,4.1c0,.1,0,.2-.1.2l-.3.3c-.1.1-.3.1-.4,0-.2-.1-.3-.2-.4-.2-1.6-.1-4.4-.1-8.3,0-.3,0-.6-.2-.6-.5l-1.1-4.5h0Z" style="fill:#0084c6; stroke-width:0px;"/><path d="M330.65,102.31l.5,4.3c0,.3-.2.6-.5.7h-10.5c-.3,0-.6-.1-.7-.4-.5-1-.6-2.2-.4-3.7,3.3-1.1,7.2-1.4,11.6-.9Z" style="fill:#0084c6; stroke-width:0px;"/><path d="M73.05,104.81c-.1-.5-.5-.7-1-.6-3.8.8-7.7,1.9-11.7,3.2.3-2.6,1.9-3.7,4.8-3.5.3,0,.6-.1.9-.4.3-.4.7-.5,1.2-.4.7.2,1.4,0,1.9-.4.4-.3.8-.4,1.3-.2.8.2,1.6.2,2.4-.1.5-.2.9,0,1,.6.3,1,0,1.6-.8,1.8Z" style="fill:#f17c28; stroke-width:0px;"/><path d="M108.35,103.21l.4,5.2-2.9,1.5c-.3.1-.6.2-.9.2-1.2-.2-2.2,0-3.1.6-.3.2-.6.2-.8-.1-.7-.7-1.3-.7-1.8-.1-.2.2-.5.4-.8.4-.2,0-.4-.1-.5-.3-.2-.5-.4-.6-.7-.1-.1.1-.1.2-.1.3,0,.2-.1.2-.3.2-1.2-.4-2.2-.9-2.9-1.4-.3-.3-.4-.6-.3-1.1.4-1.5,1.4-2.8,2.8-3.8.3-.2.5-.1.6.2.3.5.6.5,1,.1.3-.3.8-.5,1.2-.4,2.2.3,4.5,0,6.9-.9.4-.2.7,0,.9.4.1.3.3.5.6.5h.3c.2,0,.4-.1.4-.4.1-.3.1-.6,0-1h0Z" style="fill:#022e56; stroke-width:0px;"/><path d="M216.35,107.01l17.5,25.2c.4.6.8.6,1.2,0,5.2-7.5,10.5-14.6,15.9-21.4,1-1.3,1.6-1.1,1.7.5l.6,10.9c.7,3.3,1.3,7.2,1.7,11.7,0,.2.1.3.2.4.2.1.2.2.2.4.1,1.4.9,2.1,2.6,1.9l-2.6-.1c-2.6-8.1-3.8-16.2-3.6-24.4,0-.7-.2-.8-.6-.2l-16.5,21.8c-.3.4-.6.4-.8,0l-19.8-28.5c-.2-.3-.4-.3-.5.1-.2.4-.2,1-.1,1.7-.9,8.1-.2,16.1,2.1,24.1,0,.4-.1.6-.6.5-.2,0-.3-.2-.3-.3-.8-2.5-1.4-4.9-1.7-7.3-.2-1.4-1-2.5-.6-4.1.3-1,0-1.8-.4-2.7-.1-.3-.2-.6,0-.9.5-1.1.3-2.1-.5-3-.2-.2-.4-.3-.6-.3-.1,0-.2-.1-.2-.2-.1-.3,0-.5.2-.5.4-.1.5-.4.5-.8,0-.3-.2-.5-.6-.5-.1,0-.3,0-.4-.2-.2-.2-.1-.3.1-.4.3-.1.5-.1.7,0,.4.1.7,0,.9-.3s.3-.7.2-1.1c-.1-.3-.4-.5-.7-.4-.6.1-1.1,0-1.4-.5-.3-.5-.2-.6.3-.4.3.1.6.2.9.2.8,0,1.2-.3,1.2-1.1,0-1.2.2-2.2.6-3.2.2-.5.4-.5.7-.1l2.5,3.5h0Z" style="fill:#10446f; stroke-width:0px;"/><path d="M163.05,105.91l1.9,9.4v1c0,.6-.2.7-.7.2-.1-.1-.2-.2-.3-.2-.2-.1-.3-.1-.5-.1-1.9-.1-3.8.1-5.8.6-1.6.4-3.5.4-5.6.2-.3,0-.5-.2-.5-.5l-2-10.2c4.4-1.3,8.9-1.4,13.5-.4h0Z" style="fill:#fe4; stroke-width:0px;"/><path d="M92.05,114.01l.9,12.9c-.4-.6-.7-1.2-.9-1.8-.1-.3-.3-.5-.6-.5-4-.2-7.7,0-11.4.7-.5.1-.8.3-1.1.7-.3.4-.5.4-.5-.2l-1.2-15.9c.5.5,1,.7,1.4.6.2-.1.3-.2.3-.4s0-.3.1-.4.2-.2.4-.2c1.2-.2,2.1-.8,2.8-1.6.1-.2.3-.2.5-.1,1.3.5,2.6.5,3.8.2.2-.1.5-.2.7-.3.2-.2.4-.2.7,0,.3.2.7.2,1-.1.2-.2.3-.4.4-.7.4-.8.7-.8.9,0,.2.8.6,1.5,1.1,2.1.2.3.3.6.3,1-.1,1.5,0,2.8.4,4h0Z" style="fill:#fe4; stroke-width:0px;"/><path d="M130.25,115.71l.7,5c1.2.5,2.3.7,3.2.6-.8.1-2.7,0-5.7-.3-.7-.1-2.1,0-4.3.3-.2,0-.7.2-1.3.4-.4.2-.9.2-1.4.1-.3-.1-.6,0-.8.3-.5.6-1,.7-1.7.4-1.2-.5-2.4-.9-3.6-1.2-.3-.1-.5-.2-.6-.4-.2-.2-.2-.4-.1-.6.2-.3.2-.7-.1-.9h0c-.5-.4-.6-.8-.2-1.3.3-.3.3-.6,0-.9-1-1-1.4-2.2-1-3.5.1-.4.1-.8-.2-1.2-.7-1-1-2.4-.6-4,4-1.1,8.1-1.7,12.2-1.7,1.6,0,2.7.5,3.3,1.6.3.4.4,1.5.4,3.2.1,1.9.7,3.2,1.8,4.1Z" style="fill:#fe4; stroke-width:0px;"/><path d="M213.35,106.91c.2,0,.4.2.4.6,0,.3.2.6.4.7.7.4.9.8.6,1.3-.8,9.7.6,18.8,4.3,27.4.2.5,0,.7-.5.7-1.4,0-1.8-.4-1.5-.9l-1.7-5.6c-2.2-8.1-2.9-16.1-2-24.2Z" style="fill:#d6d6d6; stroke-width:0px;"/><path d="M503.65,122.11l11.7,12.1,1.6,1.6c0,.4-.2.6-.5.6l-26.6-26.9c-.1-.1-.3-.1-.5,0-.07.07-.1.13-.1.2v5.9l-.8,5.5-.3-12.9c0-.3.2-.6.6-.6.2,0,.3.1.4.2l14.5,14.3h0Z" style="fill:#10446f; stroke-width:0px;"/><path d="M408.05,108.91c1,4.7,1.2,8.4.6,11.1-.4,1.7-.6,3.1-.7,4.3-.2,1.7-.3,3-.4,3.9-.2,1.4-.2,2.7-.1,4,0,.3-.1.6-.3.7-.4.3-.7.8-.7,1.3,0,1.7-1.4,2.7-1.1,4.4.1.5,0,.9-.2,1.3-.6,1.2-1.4,1.6-2.4,1.2-.2-.1-.5-.1-.7,0s-.4.1-.6.1c-.9-.1-1.9-.2-2.9-.3-.2,0-.4,0-.6.1-.3.1-.5.1-.8-.1-.4-.4-.9-.4-1.3,0-.2.2-.4.2-.6,0-.5-.4-.9-.4-1.3,0-.2.2-.4.2-.6,0-.4-.5-.9-.5-1.4,0-.2.2-.4.2-.6,0-.4-.3-.8-.3-1.3,0-.3.2-.5.2-.8,0s-.7-.2-1.1,0c-.3.2-.6.3-.9.2-1.1-.1-1.6-.7-1.6-1.6l16.1-.1c.3,0,.6-.1.9-.4.6-.7,1.2-1.8,1.6-3.2,2.9-9.5,4.2-18.5,3.8-26.9Z" style="fill:#d6d6d6; stroke-width:0px;"/><path d="M472.45,109.11c.7,4.4.9,8.9.5,13.4,0,.3-.1.6-.3.9-.3.5-.5,1.1-.5,1.7-.1,1.9-1.3,3.3-1.5,5.1-.1,1.3-.9,2.1-1.3,3.4-.7,2.1-1.6,3.9-2.9,5.3-.3.3-.6.5-1,.6-1,.3-1.8.7-2.6,1.2-.2.2-.5.3-.8.3-1.4.1-2.7.1-4,0-1.2-.1-2.5-.1-3.7-.1-12.1.3-24,0-35.9-.9,13.7-.5,27.4-.6,41.1-.4,2.3,0,4.5-1.2,6.7-3.6,1.6-1.8,2.8-4.4,3.8-7.8,1.6-6.3,2.4-12.6,2.4-19.1h0Z" style="fill:#d6d6d6; stroke-width:0px;"/><path d="M214.75,109.51l1.9,2.5c.2.2.2.4.1.7l-.3.7c-.1.1-.1.3-.1.5-.1,8.4,1.4,16.4,4.5,24,.3.7,0,1.5-.8,1.8-.2.1-.4.1-.6.1-3-.2-6.4-.3-10-.2-1.7,0-2.9.8-4.4-.7-.2-.2-.2-.5,0-.7,0,0,.1-.1.2-.1.9-.4,1.2-.9,1.1-1.6.4-.1.7,0,.9.1h9.8c-.4.6.1.9,1.5.9.5,0,.7-.2.5-.7-3.7-8.4-5.1-17.6-4.3-27.3h0Z" style="fill:#a5a1a1; stroke-width:0px;"/><path d="M146.65,113.11c0-.1.1-.1.1-.2l.3,3c-.2,0-.3.1-.4.3-.1.2-.2.3-.4.2-.9-.4-1.8-.4-2.9-.2-2.6.6-5.8.9-9.6.9-.3,0-.5.1-.7.3-.1.1-.3.2-.4.1-.5-.2-.7-.5-.6-1,.1-.5,0-1-.4-1.5-.6-.8-.4-1.8.4-2.4.2-.2.5-.3.8-.3l9.7-1c.4,0,.6-.2.7-.6,0-.1.1-.2.3-.2s.4.1.6.2l2.5,2.4h0Z" style="fill:#022e56; stroke-width:0px;"/><path d="M489.35,110.91l3.8,4.6c.2.3.2.5,0,.8l-.2.2c-.3.1-.3.3-.3.5.4,1.7-.2,2.9-.5,4.5-.6,3.7-1.3,7.4-2.1,11-.4,1.8-1.5,3.1-1.7,5-.1,1.3-1.2,2.3-2.5,2.3-5,.3-10.3.3-15.9,0-.2,0-.4-.1-.5-.2-.9-.6-.9-1-.2-1.4.9-.5,1.8-1,2.6-1.6.7.1,1.1,0,1.3-.1l12.4-.2c-.1.4,0,.7.4,1.1.2.2.4.2.6,0,0,0,.1-.1.1-.2,1.9-5,3.1-10.1,3.6-15.1.2-2.6,1.1-5,.7-7.6-.2-1.3-.7-1.4-1.5-.4-.1.1-.1.5,0,1.3l-.1-4.5h0Z" style="fill:#a5a1a1; stroke-width:0px;"/><path d="M73.35,120.61l2.8,26.8c.8,1.3,0,1.4-2.3.2-.4-.2-.8-.5-1-.9-.3-.4-.5-.8-.7-1.2-.2-.3-.5-.5-.8-.5-.2,0-.5-.1-.7-.2-.5-.3-.5-.5.1-.6,1-.2,2-.5,2.9-1,.6-.3.8-1,.5-1.6,0-.1-.1-.1-.1-.2l-1.4-1.7c-.2-.3-.6-.4-1-.4-3.2.1-6.2,0-8.9-.4-.3,0-.6,0-.9.1-.4.2-.7.1-1-.2-.2-.2-.4-.3-.7-.2-.5.2-1,.3-1.5.2-.3,0-.5-.1-.7-.4l-.7-1.3-2-14.3-.1-10.4c.2.1.5,0,.8-.1s.5-.3.7-.6c.5-.9,1.6-1,2.3-.3.3.3.7.5,1.1.6.1,0,.2.1.3.2s0,.2,0,.2c-.2.1-.2.3,0,.4.8.5,1,1.1.5,2-.2.3-.4.5-.7.5-.8.1-1.5.7-1.9,1.8-.1.2-.2.4-.3.5-.5.7-.5,1.3.1,1.8.2.2.5.4.9.4l14.4.8h0Z" style="fill:#10446f; stroke-width:0px;"/><path d="M170.35,111.91c.1,0,.3.2.5.5l-.1,4.6c0,.3,0,.7.2,1,.7,2.1,1,4.2.9,6.4-.1.9,0,2.8.2,5.8.1,1.8-.6,7.6-2.2,17.2-.1.8.1,1.7-.3,2.4-.2.4-.4.8-.5,1.3-.6,2.2-1.4,4.4-2.4,6.4l1.1-5.6c1.3-5.3,2-10.5,2.2-15.8l.4-10.3-.2-10.4c-.3-1.2-.2-2.3.2-3.5h0Z" style="fill:#6889a2; stroke-width:0px;"/><path d="M170.85,112.41c.6.8.9,1.7.8,2.8,0,.3.1.6.3.8.1.1.2.3.4.4.1.2.2.3.2.5.3,2,.4,3.9.3,5.8,0,.2,0,.4.2.5.1.1.1.2.1.2,0,.1.1.2,0,.3-.4,4.1-.5,8.1-.3,12.2,0,.8-.1,1.6-.5,2.3-.2.3-.2.6-.3.9-.1,2-.5,4.1-1,6.1,0,.1-.1.2-.2.2-.2.1-.3.2-.3.4-.1.9-.2,1.8-.2,2.6,0,.9-.2,1.7-.5,2.5-.7,1.6-1.1,3.1-1.4,4.7-.2,1.4-.6,2.6-1.3,3.9-1.1,2.1-1.5,4.8-1.1,8.1.1.7.2.7.5,0v-.3c0-.3,0-.5.1-.7,1.1-1.9,2.3-3.9,3.5-6,.3-.5.7-.9,1.1-1.2.5-.3.9-.7,1.3-1.1,1-1,2.4-1.1,3.8-1,.3,0,.5-.1.5-.5,0-.1,0-.2.1-.3.2-.2.5-.2.7,0,.8.6,1.7.8,2.8.3l-.1,2c-.3.9-.3,1.7-.2,2.4-2.8.2-5.3.8-7.4,1.9-.8.4-1.5.7-2,.8-.3.1-.5.2-.7.4-.1.2-.1.3,0,.5s.1.5-.1.7l-3.8,4.6-6.7,3.1c-.5.2-.7.8-.5,1.3.1.1.1.2.2.3,1,.9,1.4,1.9,1.1,3-3-2.2-6-1.9-9,1.1-.6.6-.5,1.1.3,1.4,2.3,1,2.9,2.1,1.7,3.2l-6.7-3.4c2.4-.9,4.5-2.1,6.4-3.8,2.2-2,1.9-2.8-1.1-2.2-1.3.3-2.7.1-3.9.8-.8.5-1.8.6-3,.3-.4-.1-.7.1-.9.4-.2.4-.5.5-1,.4-.3,0-.7,0-1,.1-3,1-6.1,1.6-9.4,1.9-.3,0-.6.1-.8.3s-.4.2-.7.2c-1.2-.1-2.2.1-3.2.5-.8.3-1.6.5-2.6.5-2.5.1-4.7.2-6.7.3-.7,0-1.5.2-2.3.5-.7.2-1.3.4-2.1.4-.07,0-.1.03-.1.1,0,.1,0,.2-.1.3h-.1c-2.3.3-4.5.4-6.9.3-.3,0-.6.1-.8.4-.1.1-.1.2-.2.4-.1.4.1.6.4.7,1.9.5,3.9.7,6,.6,3.1-.2,4.8-.4,5-.4,3.2-.1,6.4-.6,9.5-1.6,2.8-.9,6.1-1.4,9.8-1.5.6,0,.7.2.3.6-.4.5-.4,1,.1,1.5.2.2.2.5,0,.7-.3.3-.4.6-.4,1,0,.5.2.6.7.5l.6-.2c-.2.8-.2,1.6,0,2.3.3,1.1,0,1.9-1.1,2.2-.6.2-1.2-.2-1.4-.8v-.1c-.2-1.2-.5-2.4-1-3.5-.6-1.3-1.7-2.1-3.5-2.1-1.6-.1-3,.3-4.2,1.1-1.7-.3-3.9-.1-6.5.4-1.5.3-3.8.6-6.9.8-2.4.2-4.6.2-6.8,0-4.1-.3-8.4-.5-12.7-.7-2.8-.1-5.4-.3-7.9-.6s-5.2-.5-7.9-.8c-.8-.1-1.3-.6-1.3-1.3,0-.1.3-.1,1-.2,6.7.5,13.4.4,20.3-.2.4,0,.7-.2.9-.6,0-.1.1-.2.1-.3.1-.3.4-.5.7-.5.8.1,1.4,0,1.9-.4,10.2.2,20.3-.9,30.3-3.3,4.1-.1,8.1-.8,12-2,.8-.2,1.6-.4,2.4-.5.8-.1,1.6-.2,2.4-.4,1.1-.3,2.3-.5,3.5-.7,4-.5,6.9-1.3,8.9-2.4,2.2-1.3,3.3-3.5,3-6.6l2-6.1c1-2.1,1.9-4.2,2.4-6.4.1-.5.3-.9.5-1.3.3-.6.2-1.6.3-2.4,1.6-9.6,2.3-15.3,2.2-17.2-.2-2.9-.3-4.9-.2-5.8.2-2.2-.1-4.3-.9-6.4-.1-.3-.2-.6-.2-1l.5-3.9h0Z" style="fill:#d6d6d6; stroke-width:0px;"/><path d="M485.45,136.31l1-3.9c1.5-4.1,2.2-7.9,2.1-11.4l.8-5.5v-1.3c.8-1.1,1.3-.9,1.5.4.4,2.6-.5,5-.7,7.6-.5,5-1.7,10.1-3.6,15.1-.1.2-.3.3-.6.3-.1,0-.1-.1-.2-.1-.2-.5-.4-.8-.3-1.2h0Z" style="fill:#d6d6d6; stroke-width:0px;"/><path d="M109.45,114.41l.6,6.1c-2.2-.1-4.4.1-6.6.5-.4.1-.8.2-1.1.4-.5.3-.9.2-1.4-.1-.4-.3-.7-.2-.8.2-.1.2-.4.4-.8.4-.2,0-.4,0-.5-.1-.9-.6-1.9-1-3-1-.4,0-.6-.2-.6-.6-.4-2.1.5-3.6,2.5-4.5.2-.1.3,0,.4.2.1.3.3.5.6.4h.1c.1,0,.1-.1.2-.2s.3-.2.5-.3l5.8-.7c.3,0,.5-.1.7-.3.4-.4.8-.4,1.1.2.3.5.6.5,1,.1.3-.5.8-.7,1.3-.7Z" style="fill:#022e56; stroke-width:0px;"/><path d="M169.95,115.61c0-.1.1-.1.1-.2l.2,10.4c-1.2,1.8-2.5,2.9-3.9,3.2-.5.1-.7.4-.7.9l.4,2.9c.1.4.3.6.7.6l1.2-.2c.3,0,.6,0,.9.2.8.6.6,1.3-.7,2.2-.2.2-.5.3-.8.3-.7,0-1.1.3-1.3.9-.1.3-.4.6-.7.8-1.2.7-2.4,1.6-3.4,2.7-.2.2-.5.2-.6-.1-.1-.1-.1-.2-.1-.3,0-.4-.2-.6-.6-.5l-2.5.8c-.3.1-.5.2-.7.4-.7.7-1.5,1.3-2.3,1.7-.3.2-.3.4-.1.6,0,0,.3.3.9.8.3.2.6.3.9.2,1.9-.8,4.1-1.1,6.4-.8.3,0,.5.2.5.6l-.2,2.2c0,.1-.1.3-.2.4s-.2.1-.3.2c-.3.1-.5.3-.5.7-.1.8-.4,1.3-1.1,1.6-.3.2-.5.5-.6.8,0,.4-.1.8,0,1.1,0,.4-.1.5-.5.3-.1-.1-.3,0-.4.2-.2.4-.1.7.3.9.3.1.6.1.8-.1.4-.3.9-.3,1.2,0,.5.5.7,1.2.6,2-.1.6-.4,1.1-.9,1.5-.7.5-1.4,1.1-1.9,1.7-.2.2-.3.4-.3.6,0,.1-.1.2-.2.2-.3.1-.5,0-.5-.4,0-.3-.1-.7-.2-1,.3-.9-.1-1.6-1.1-1.9-.1-.1-.2-.1-.2-.3v-.4c.1-.5-.1-.7-.6-.6l-5.9,1.5c-.5.1-.8-.1-.9-.6l-.1-.3c-.1-.3.1-.6.4-.7h0l8-1.5c.6-.1,1-.5,1.1-1.1l.4-2.3c.1-.6-.1-.8-.7-.7l-12.3,2.1c-2,2.5-3.5,2.8-4.4,1l-10.1,1.8-3.5-.7c-.3-.1-.5-.2-.7-.4-.3-.3-.6-.4-1.1-.4s-.8-.2-.8-.7c0-.1,0-.3.1-.4.3-.6.1-.8-.5-.7h-.3c-.4-.1-.5-.2-.2-.5.6-.5,1.3-.8,2.1-.8.7,0,1.3-.6,1.3-1.3v-.5c0-.7-.5-1.2-1.1-1.3-1.3-.1-2.6-.1-3.8.1-2.4.5-6.2.6-8.5,0-.7-.2-1.5-.3-2.4-.2-.4,0-.7,0-1-.1-1-.4-2-.7-3-1-1-.2-1.7-1.2-1.6-2.2,0-.1,0-.2-.1-.2-.5-.3-.5-.4.1-.4,2.8-.1,5.5-.3,8.1-.6.4,0,.8-.3.9-.7.2-.4.5-.6.8-.5s.6,0,.9-.2l.7-.7c.2-.2.2-.5,0-.7-.3-.3-.4-.7-.4-1.2,0-.3-.2-.6-.5-.6l-1.9-.2c-.3,0-.7,0-1,.1-1.5.5-3.1.1-4.8.5-3.2.6-6.1.2-9.4.2-1,0-1.8.3-2.6.8-.9.5-1.2,1.5-.8,2.7.3,1.4.8,2.7,1.2,3.9.1.2.1.4.1.6l-.7,3.3c-.1.5-.3.6-.5.1l-.3-.7-2.2-15.2c.3-.9.4-1.9.2-2.9-.1-.3,0-.6.2-.8l1.9-2.1c.2-.3.5-.4.9-.4,3.4.2,6.9-.1,10.3-.8.4-.1.8,0,1.1.4.1.1.2.2.3.2.4.2.6.1.8-.3.1-.3.2-.7.1-1.3-.1.9.1,1.7.4,2.4.1.3.4.4.7.4l6.2-.6c.4,0,.6.1.7.5l1.2,9.3c.1.2,0,.7-.2,1.5l9.4-.2c.3,0,.5.1.5.4l.2,1.5.9,4.8-.2,3.3c4.8-.4,9.5-1.1,14-2.1.7-.2,2.1-.4,4.2-.7,1.4-.2,2.8-.6,4.2-1.1.3-.1.5-.4.5-.8l-.4-9c0-.5.4-.9.9-.9h0c2.5,0,4.8-.6,7-1.6.2-.1.4-.4.3-.6l-1-9c0-.3.1-.6.3-.8.7-.5,1.7-.7,2.9-.3.3.3.8.5,1.4.4.4,0,.8-.2,1.2-.5,1.3-1.4,2.7-2.9,3.8-4.5h0Z" style="fill:#022e56; stroke-width:0px;"/><path d="M165.05,116.71c.5.7.7,1.4.7,2.2,0,.4-.2.6-.5.7l-2,.6c-1.2-.3-2.2-.2-2.9.3-.3.2-.4.5-.3.8l1,9c0,.3-.1.5-.3.6-2.2,1-4.5,1.5-7,1.6-.5,0-.9.4-.9.9h0l.4,9c0,.4-.2.6-.5.8-1.4.5-2.8.9-4.2,1.1-2.1.3-3.5.6-4.2.7-4.5,1-9.2,1.7-14,2.1,3-1,5-1.5,5.9-1.6,2.5-.3,4.2-.7,5.3-1.1.3-.1.6-.1,1,.1.3.1.6.1.9.1l8.2-1.8c.4-.1.7-.5.7-.9l-.2-7.2c-.1-1.6,1.1-3,2.7-3.3l5.2-.9c.2-1.4,0-3.3-.5-5.7-.3-1.2-.2-2.7.2-4.5.1-.3.3-.5.6-.6,1.2-.4,2.4-.6,3.8-.5.8,0,1.1-.3,1.2-1.1l-.3-1.4h0Z" style="fill:#f17c28; stroke-width:0px;"/><path d="M249.65,119.41c-2.3,2.2-3.9,4.1-4.9,5.8-.6,1.1-1.3,2-2,2.8-1.5,1.5-2.2,3.3-3.6,4.8-1.4,1.5-2.2,3.3-3.6,4.8-.2.3-.6.3-.9.1-.1-.1-.2-.3-.2-.5v-.6l14.9-19.5c.2-.3.4-.3.5.1.2.7.1,1.4-.2,2.2Z" style="fill:#a5a1a1; stroke-width:0px;"/><path d="M145.75,118.91c0,.4-.2.6-.7.8-3.5.9-7.1,1.4-10.8,1.6-1,.1-2.1-.1-3.2-.6l14.7-1.8Z" style="fill:#f17c28; stroke-width:0px;"/><path d="M249.65,119.41c.9.8,1.3,1.5,1.3,2.3,0,.5-.2.6-.7.6h-.6c-.4.1-.6.3-.7.7-.5,1.4-1.2,2.6-2.4,3.6-.5.4-.9.9-1.3,1.4-1.6,2.3-3.4,4.6-5.5,6.8-.9,1-1.1,2.3-1.8,3.1-1.2,1.4-2.4,1.4-3.6.1-.3-.4-.3-.8,0-1.4v.6c0,.4.3.6.7.6.2,0,.4-.1.5-.2,1.3-1.5,2.2-3.4,3.6-4.8,1.5-1.5,2.2-3.3,3.6-4.8.7-.8,1.4-1.7,2-2.8,1-1.7,2.7-3.6,4.9-5.8h0Z" style="fill:#d6d6d6; stroke-width:0px;"/><path d="M265.25,136.51l-7.2.1c-1.7.2-2.5-.5-2.6-1.9,0-.2-.1-.3-.2-.4s-.2-.2-.2-.4c-.5-4.5-1.1-8.4-1.7-11.7l2.3-.9c.2-.1.4,0,.5.1s.1.2.2.3c.2.4.4.4.7,0,.2-.3.4-.5.8-.6.3-.1.6-.3.7-.6.2-.6.6-1,1.3-1.1.4-.1.5.1.2.4-.1.2-.3.3-.4.4-.5.3-.5.6.1.7,1.1.2,2.1.7,3,1.4.2.2.4.4.4.7.6,4.5,1.9,8.7,3.8,12.6.2.3.1.5-.3.6l-1.4.3h0Z" style="fill:#0084c6; stroke-width:0px;"/><path d="M402.35,131.31l-1.6,5.2c-4.1.1-8.3.1-12.5,0-.3,0-.6-.1-.9-.4.1-.5.4-1,.7-1.4h.8v.4c0,.2.2.3.4.3l10.1.1c.3,0,.6-.2.8-.5.2-.3.2-.7.2-1.2,0-.4-.3-.6-.6-.6-.5,0-.7-.2-.6-.7,0-.3-.1-.5-.3-.5h-.2c-.2.1-.3.2-.3.4-.1.1-.1.2-.1.4,0,.3-.1.5-.5.6-.2,0-.3,0-.5-.1-.1-.1-.2-.3-.1-.4.1-.2.1-.4,0-.6-.2-.4-.4-.4-.6-.1-.2.2-.3.5-.3.8,0,.2-.1.3-.3.3h-.6c-.3-.1-.4-.3-.2-.5.1-.1.1-.2,0-.3-.4-.7-.6-.7-.9.1-.1.3-.3.6-.6.7-.3.1-.4,0-.5-.2v-.4c.1-.4-.1-.5-.4-.5s-.5.2-.6.5c-.1.4-.3.6-.7.5l-1.5-.2,3-10.1c.1-.4.4-.6.8-.6.3,0,.6,0,.9-.1s.6-.3.9-.6c.7-.8,1.4-1.5,2.2-2.1.1-.1.3-.1.4,0s.1.3,0,.4h0l-2.9,2.5c-.1.1-.1.2,0,.3s.1.2.2.2h.2c1.4-.5,2.6-1.3,3.6-2.2.3-.3.5-.2.8,0,.4.4.8.5,1.2.1.2-.2.5-.3.8-.2,1.2.4,1.6,1.1,1.4,2.1-1.2,3.5-1.5,6.3-1.1,8.6h0Z" style="fill:#0084c6; stroke-width:0px;"/><path d="M462.65,134.11c-.2-.9-.9-1.2-2-1-.4.1-.6-.1-.6-.4-.1-.3-.3-.5-.6-.4-.4,0-.6.2-.6.7,0,.3-.2.5-.5.6-.5.1-.7,0-.5-.5l.1-.4c.1-.4,0-.6-.4-.5-.2,0-.3.2-.4.3s-.1.3-.1.4c0,.3,0,.4-.3.6-.1.1-.3.1-.4.1-.4,0-.5-.2-.5-.6l.1-.5c0-.1,0-.2-.2-.3-.1,0-.2-.1-.3,0-.3,0-.5.2-.5.6v.3c0,.2-.1.3-.2.3s-.3.1-.4.1c-.4,0-.6-.2-.5-.6v-.4c0-.1,0-.2-.2-.3h-.3c-.4,0-.5.2-.4.6v.3c0,.1-.1.2-.1.2-.2.2-.5.2-.7.1-.3-.1-.4-.3-.2-.6,0-.1.1-.2.1-.3,0-.4-.2-.5-.6-.4s-.6.4-.5.7c0,.2,0,.3-.1.5-.1.1-.2.2-.3.2-.4,0-.6-.1-.5-.6l.1-.4c.1-.4-.1-.5-.5-.4-.2.1-.3.2-.4.3s-.1.3,0,.4c0,.1,0,.2.1.2.1.3-.1.5-.4.5s-.6,0-.9-.1c-.2-.1-.2-.3-.2-.4,0,0,0-.1.1-.1.2-.2.2-.3.3-.6,0-.3-.1-.5-.4-.4s-.5.3-.5.6c0,.1,0,.2.1.2.1.1.1.2.1.2.1.3,0,.4-.3.5-.4.1-.7.1-1.1-.1-.2-.1-.3-.3-.2-.4,0-.07.03-.1.1-.1.2-.2.2-.4.2-.6s-.1-.3-.3-.3-.3.1-.5.3-.1.5.1.7c.1.2.1.3-.1.4-.2.1-.3.2-.5.2h-20.5c-.3-.2-.3-.4-.2-.6.1-.3,0-.4-.3-.5-.2-.1-.4-.1-.6,0l-.1.1c-.1.1-.1.3,0,.4.2.2.1.4-.1.5s-.5.1-.7,0c-.3-.1-.3-.3-.2-.6v-.3c-.1-.1-.1-.2-.2-.2h-.3c-.2.1-.4.3-.5.5v.3c0,.2-.1.3-.2.4-.1,0-.2,0-.3-.1-.2-.2-.3-.3-.4-.6-.3-.6-.6-.6-1-.1-.3.3-.6.4-.9.1-.3-.2-.6-.3-.9-.1l-2.5,1.1c-1.6-1.6-2.3-3.6-2-6,.2-1.6.3-3.2.5-4.9,0-.3.2-.5.6-.5h.5c.3,0,.6-.1.8-.3.8-.8,1.7-1.6,2.5-2.5.1-.1.2-.1.4,0h0c.1.1.1.2,0,.3-.8.9-1.7,1.7-2.5,2.4-.3.3-.3.6.1.8.4.3.8.3,1.2.2.3-.1.5-.4.5-.7v-.7c0-.5.2-.6.6-.2.2.2.3.5.3.9s.1.6.5.8.8.1,1.2-.1c.2-.1.3-.4.2-.7,0-.1-.1-.2-.2-.2-.6-.3-.8-.8-.6-1.5.1-.5.3-.5.6-.1.3.3.4.7.5,1.2.1.4.3.5.7.5.1,0,.2-.1.2-.2.1-.8.3-.9.8-.3.2.2.4.4.7.5.4.2.6.4.6.8v.6c0,.4.1.7.4.9l2.4,1.9c.3.3.7.4,1.2.4,9.1.3,17,.4,23.9.1,1.8-.1,3.4-1.2,4.7-3.6.2-.3.5-.5.8-.5.8-.1,1.5-.4,2-.9.4-.4.4-.7-.2-1-.1-.1-.2-.2-.3-.3-.1-.2,0-.3.2-.3h.4c.2,0,.2.1.1.2-.1.2.1.4.5.4.2,0,.4-.1.6-.2.4-.7.9-1.1,1.5-1.4.6-.2.7-.1.2.4-.7.8-1.4,1.5-2.3,2.2-.2.2-.3.4-.2.6,0,.2.2.2.5.1.1,0,.2-.1.2-.1l3.3-2c.3-.2.6-.1.8.2.5.6,1,1.1,1.6,1.3.5.1.6.4.4.9,0,.1-.1.2-.2.1-.5-.1-.6.1-.4.6.8,1.4.8,2.8-.1,4.2-.2.3-.3.6-.3.9-.6,1.9-1.4,3.6-2.8,5.1h0Z" style="fill:#0084c6; stroke-width:0px;"/><path d="M320.05,135.31c1.7-.4,2.4-1.3,2.1-2.9,0-.2-.2-.3-.4-.3-.1,0-.1.1-.2.1-.8,1-1.7,1.1-2.6.4-.2-.2-.4-.2-.6,0-.5.4-1,.4-1.4-.1-.2-.2-.5-.2-.6,0h0c-.5.5-.9.5-1.3,0-.2-.3-.5-.3-.7,0-.5.6-.9.6-1.3,0-.2-.2-.3-.2-.5,0-.5.6-1.1.6-1.6.1-.2-.2-.4-.2-.6,0-.4.5-.9.5-1.3,0-.2-.3-.5-.3-.7,0-.5.6-.9.6-1.3,0-.2-.3-.4-.3-.6,0s-.5.5-.9.5c-.2,0-.3-.1-.4-.3,0-.1-.1-.2-.1-.2-.2-.1-.4-.1-.6.1-.5.5-.9.6-1.4,0-.2-.2-.4-.3-.7,0-.5.5-.9.5-1.4,0-.2-.2-.4-.2-.7,0-.4.5-.9.5-1.3,0-.3-.3-.5-.3-.8,0-.2.3-.5.3-.8.2-.2-.1-.4-.1-.7-.1h-8.1c-1.1,0-2,.1-3,.3h-.4l-.5-.3c-.2-.1-.4-.1-.5,0-.4.3-.9.5-1.5.5-.3,0-.6-.1-.7-.4-.1-.3-.4-.5-.8-.5-.07,0-.1.03-.1.1v.3c.1.5-.1.6-.5.3-.2-.2-.4-.4-.6-.6-.2-.3-.5-.5-.9-.4-.5.1-1,.1-1.5-.1-.4-.2-.6,0-.7.3s-.1.6,0,1.1c-2.3-2.7-2.2-5.2-3.2-8.1-.4-1.1-.1-2.1.8-2.7.2-.2.4-.4.4-.7l.1-.6c0-.4.4-.8.8-.8l2-.2c.4-.1.6.1.5.5s-.1.8,0,1.1c.2.3.3.3.4,0l.5-1.3c.1-.3.4-.4.6-.3.1,0,.3.2.3.3.3.7.3,1.5.1,2.4,0,.2.1.3.2.3s.3,0,.3-.2c.2-.5.2-1,.1-1.5-.1-.4,0-.7.2-1,.1-.2.2-.3.4-.3.5-.2.8,0,.7.6-.1.5.1.9.4,1.2.4.3.5.3.4-.2l-.1-.5c-.1-.7.1-1,.9-.8s1.3.7,1.5,1.5c.4,1.5,1,2.8,2,3.8s2.2,1.6,3.7,1.6c8.1.1,16,.1,23.6.1.4,0,.8-.1,1.2-.4l3.7-3c.3-.3.3-.5-.1-.8-.3-.2-.4-.5-.3-.9,0-.3.2-.6.5-.7l.8-.3c.5-.2.7,0,.8.5,0,.2,0,.4-.1.6-.2.4,0,.7.4.7.1,0,.2,0,.3-.1.2-.1.3-.3.3-.5-.1-1,.4-1.7,1.4-2.1.1,0,.2,0,.2.1.7.6,1.1,1.3,1.3,2.1.2,1,.5,1,.9.1.1-.3.2-.7.2-1.1s.2-.5.5-.3c.2.1.2.3.2.5,0,.4,0,.8.2,1.1.1.2.4.4.6.3.1,0,.2-.1.3-.2.3-.8.1-1.4-.7-2.1-.4-.3-.3-.4.1-.3s.8.4,1.3.9c.2.2.3.4.3.6.1.6.4.9.9,1,.1,0,.2.1.2.2.1,1,0,2.1-.4,3.2-.4,1.2-.8,2.5-1,3.8-.4,2-1.4,3.2-3,3.8-1.6.4-3.4,1.5-5.4,1h0Z" style="fill:#0084c6; stroke-width:0px;"/><path d="M332.15,120.11l-.5,3.5c-.7-2.6-.5-3.7.5-3.5Z" style="fill:#10446f; stroke-width:0px;"/><path d="M364.45,134.31l-.7,1.9-11.2.3c-.8-.4-1-1-.6-1.9,1.8-4,2.9-7.3,3.3-9.9.1-.4.3-.7.6-1,.3-.2.4-.5.1-.8-.4-.6-.3-.8.4-.7,1.2.1,1.9-.8,2.7-1.5.3-.2.6-.2.9,0l1.2,1.1c.4.4.7.3.9-.2.1-.2.1-.5,0-.7s0-.4.2-.4l.3-.1c.2-.1.3,0,.3.2.1.7-.2,1.4-1,2.1-.1.1-.2.1-.2.2-.4.2-.6,0-.7-.4-.1-.3-.2-.3-.5-.2l-.3.1c-.1,0-.2.2-.1.3v.1l.8.9c.3.3.6.3.9,0l2.4-2.4c.2-.2.5-.2.6,0,.2.2.2.4.1.6,0,.1-.1.1-.2.1-.3-.1-.6,0-.9.2-.2.2-.2.5,0,.7.1.1.3.2.4.2.3,0,.4.2.4.5,0,.1-.1.2-.2.3-.2.1-.3.2-.3.5s.1.5.4.6.4.4.4.7c.1,1.8-.2,3.5-.8,5-.3.7-.4,1.2-.3,1.7.4.8.5,1.4.7,1.9h0Z" style="fill:#0084c6; stroke-width:0px;"/><path d="M486.45,132.41l-1,3.9-12.4.2,2.8-7c.1-.3.1-.5.1-.8-.1-.4,0-.8.2-1.1.5-1.2.8-2.4.8-3.7,0-.4.2-.6.6-.6.9,0,1.4-.5,1.5-1.4,0-.3.2-.5.5-.6h.3c.1,0,.2.1.2.2.1.9.5,1.7,1.3,2.2.3.2.6.2.8-.1.5-.6.8-1.2,1-1.8.1-.7.4-.7.8-.1.2.4.4.7.7,1.2.2.4.4.4.5-.1.2-.8-.1-1.4-1-1.9,0,0-.1-.1,0-.1l.2-.3c.1-.2.2-.2.4-.1l2.1,1.8c.2.1.3.3.3.5.4,1.8.2,3.8-.6,6-.5,1.1-.5,2.3-.1,3.7h0Z" style="fill:#0084c6; stroke-width:0px;"/><path d="M530.65,131.61l-1.8,4.9h-12.2c.1-.3,0-.3-.2-.2.4,0,.5-.2.5-.6l10.4-.2c.3,0,.6-.1.8-.4.2-.3.3-.7.3-1,0-.5-.3-.8-.8-.7-.6.1-.8-.2-.7-.7.1-.4-.1-.6-.5-.6-.2,0-.3.1-.4.2-.1.1-.1.2-.1.2,0,.1-.1.2-.1.3,0,.4-.2.7-.6.7-.5.1-1,0-1.5-.2-.1,0-.2-.2-.1-.3,0,0,0-.1.1-.1.1-.1.2-.2.2-.4.1-.3-.1-.4-.4-.5-.2,0-.4.1-.5.3s-.1.3,0,.5c.2.4,0,.5-.3.5-.4,0-.6-.2-.5-.5,0-.5-.2-.8-.7-.7-1.1.1-2.1.1-3.1.1-.6,0-1.1.1-1.6.4-.7.4-1.1.9-1.3,1.5l-11.7-12.1c.1-.2.2-.4.4-.5.3-.2.6-.1.8.2.5.7,1,1.1,1.6,1.3.5.1.7-.1.7-.6,0-.2-.1-.3-.3-.4-.5-.2-1-.6-1.3-1.1s-.2-.6.3-.2c.8.5,1.4,1.1,2,1.8.1.1.3.2.5.3.2,0,.3,0,.4-.1.2-.2.2-.3-.1-.4-.5-.3-.7-.8-.5-1.5.1-.2.2-.3.4-.2.1,0,.2.1.3.2v.2c-.1,1,.4,1.5,1.5,1.4.7,0,.8.2.3.7l-.6.6c-.1.1-.1.3,0,.4s.3.1.4,0l1-.9c.3-.2.3-.5.1-.8-.3-.5-.8-.9-1.4-1.2-.2-.1-.2-.2-.2-.4,0-.1.1-.2.1-.2h.2c.6.2,1.1.5,1.3,1,.4.7,1,1.3,1.7,1.6.3.2.7.2,1.1.1.5-.1.5-.3.1-.6s-.9-.4-1.4-.4c-.1,0-.2-.1-.2-.2v-.4c0-.3.2-.4.5-.4,1.3.2,2.2.9,3,1.9.5.8,1.2,1.1,2.2.9.4-.1.7.1.7.5,0,.3.4.3,1.1-.1.2-.1.3-.2.4-.3.4-.4.6-.8.7-1.4,0-.3.2-.4.5-.5.5-.1.9-.4,1.2-.9.2-.6,1-1,1.6-.7.1.1.3.1.4.2.5.5.8,1.1.9,1.9.1.6.6,1.1,1.2,1,.2,0,.4-.1.6-.2.6-.4,1-1,1.1-1.8.1-.4.3-.6.6-.8.3-.1.6-.1.8.1.2.1.3.4.3.7.1.9.1,1.8.1,2.8,0,.6-.2,1.5-.7,2.6-.5,1.8-.4,3.2.4,4.4h0Z" style="fill:#0084c6; stroke-width:0px;"/><path d="M55.25,122.91l2,14.3,3.2,11.5,3.7,9.1c1.1,3.9,2.6,7,4.5,9.5.7.9,1.1,1.7,1.3,2.3.1.4.4.7.8.9,1.2.7,1.5,1.7,1.1,3.2-.1.2-.2.4-.4.5-.2.1-.5.1-.8.1-6.7-9.3-10.5-20.1-13.8-31.8-2-6.9-3-13.3-3-19.3,0-.2,0-.4.1-.6.2-.3.5-.3.8-.1,0,0,.5.4.5.4Z" style="fill:#9bb0c4; stroke-width:0px;"/><path d="M170.25,125.81l-.4,10.3-4.4,4.3c-.2.2-.2.5,0,.7.7.8,1.6,1.5,2.6,1.9.3.1.4.4.4.7l-.1,2.5c0,.6-.5,1-1.1,1h-.1c-2-.3-3.1.6-3.2,2.6-.1.7.5,1.3,1.2,1.4.2,0,.4,0,.6-.1,1.2-.5,1.9-.3,2,.7l-1.1,5.6-2,6.1-1.2,2.7c-.1.3-.4.5-.7.6-.8.1-1.5.5-2.2.9-3.6,1-7.2,2-10.7,3-.5.1-1.1.1-1.9,0-.6-.1-.6-.3,0-.4.7-.2,1.4-.4,2.2-.7,1-.3,1.2-.9.7-1.8-.3-.5-.9-.7-1.5-.6-1.7.4-3.4.6-5.1.7-1.2,0-2.3.2-3.3.6-1.1.4-2.1.6-3.2.7-2.3.2-4.5.5-6.5.9-1.3.3-2.7.3-4.2,0-.4-.1-.8,0-1.2.2-1.5.9-3.1,1.2-4.8,1.1-1-.1-1.7-.7-2-1.9-.1-.3-.2-.4-.5-.4-.8,0-1.6-.3-2.3-1-.3-.3-.3-.8-.1-1.1.1-.1.2-.2.3-.2.1-.1.4,0,.7,0,.4.2.7.3.9.2.3,0,.5-.2.5-.5v-.8c0-.4.2-.6.5-.7.4-.1.7.1.8.5.3,1.2.5,2.5.6,3.8,0,.3.3.5.6.5h0l3.8-.5c.3,0,.5-.2.5-.6l-1.1-13.8c0-.3-.3-.6-.7-.6h0l-4.6.5c-.5.1-.6.3-.4.8.3.7.2,1.3-.4,1.7-.4.2-.6.6-.7,1l-.2,1.1c0,.1-.1.3-.2.3-.2.1-.3.1-.5,0s-.3-.3-.4-.6c0-.2-.1-.3-.1-.5-.1-.3-.4-.6-.8-.7-.8-.2-1.3-.7-1.5-1.4s-.6-.9-1.2-.7c-1.1.3-2.3.5-3.5.4-.7,0-1,.3-.8,1l3.3,12.8c.1.4.5.7.9.6l2.7-.2c.7-.1,1.1,0,1.4.3s.2.7-.1,1c-.1.1-.2.1-.3.2-1.8.4-3.5.3-5.1-.1-.4-.1-.7-.5-.7-.9s-.2-.7-.5-.9c-.2-.1-.3,0-.3.1-.1.1-.2.2-.5.2-.8-3.2-1.7-6.4-2.8-9.6-.4-1.2-.9-1.6-2-2-.4-.1-.6-.5-.7-.9-.1-.7-.4-1-1-.9-3.3.3-6.7.5-10.1.5l2.9-1.3c.2-.1.3-.2.1-.4-.1-.1-.2-.1-.3,0-.1.1-.3,0-.4-.1v-.2c0-.2.1-.3.2-.4.5-.4.5-.7-.2-.7-1.2-.1-2.3-.3-3.4-.5s-2.2-.3-3.3-.3c-2.4.1-4.8.1-7.2.1-.6,0-1.3-.1-1.9-.4-.7-.3-1.3-.4-2-.2-.3.1-.5-.1-.4-.4,0-.2.2-.3.4-.2,1.8.4,3.5.4,5.1-.1l15-1.2c.8-.1,1.1-.5.7-1.2-.3-.7-.4-1.7-.4-3l.3.7c.2.5.4.5.5-.1l.7-3.3c0-.2,0-.4-.1-.6-.5-1.2-.9-2.5-1.2-3.9-.3-1.3,0-2.2.8-2.7s1.6-.7,2.6-.8c3.2,0,6.1.4,9.4-.2,1.7-.3,3.2,0,4.8-.5.3-.1.7-.1,1-.1l1.9.2c.3,0,.5.3.5.6,0,.5.1.8.4,1.2.2.2.2.5,0,.7l-.7.7c-.2.2-.5.3-.9.2-.3-.1-.6.1-.8.5-.2.4-.5.6-.9.7-2.7.3-5.4.5-8.1.6-.6,0-.6.2-.1.4.07.07.1.13.1.2-.1,1,.6,1.9,1.6,2.2s2,.6,3,1c.3.1.7.2,1,.1.8-.1,1.6,0,2.4.2,2.3.7,6.1.5,8.5,0,1.2-.2,2.5-.3,3.8-.1.7.1,1.1.6,1.1,1.3v.5c0,.7-.6,1.3-1.3,1.3-.8,0-1.5.3-2.1.8-.3.3-.3.5.2.5h.3c.6-.1.8.1.5.7-.1.1-.1.3-.1.4.1.5.3.7.8.7.4,0,.8.1,1.1.4.2.2.5.3.7.4l3.5.7-5,1.1c-.3.1-.5.3-.4.6.6,4.9.9,9.6.9,14.1,0,.2.2.4.4.4h.1l12.8-1.9c.4-.1.6-.3.6-.7l.2-3.1c0-.3-.1-.4-.4-.3l-8.4,1.7c-.2,0-.4-.1-.5-.3h0v-.3c-.1-.5.1-.8.6-.9l8.2-1.8c.5-.1.8-.4.8-.9l.2-2.9c0-.4-.2-.5-.5-.5l-8.6,1.9c-.3.1-.5-.1-.6-.4v-.5c0-.5.2-.7.6-.8l8.6-1.9c.3-.1.6-.4.6-.7l.1-3.8c.9,1.8,2.4,1.5,4.4-1,.1,1.2-.3,2.1-1.4,2.6-.3.2-.5.4-.5.8-.1,1.4-.1,2.9,0,4.3.1,1.4,1.4,2.4,2.8,2.3.1,0,.2,0,.4-.1l5.3-1.3c.2-.1.5.1.5.3v.3l-.1.3c-.1.3-.4.6-.7.7-2.6,1-5.4,1.6-8.3,2-.1,0-.2.1-.3.2l-.8,3.8c0,.1,0,.2.1.2h.1c3.8-.7,7.5-1.6,10.9-2.6.9-.3,1.4-.9,1.7-1.8.1-.4.3-.6.7-.8.3-.1.5-.3.7-.5s.4-.5.4-.9l.5-3.1c.1.3.2.7.2,1,0,.4.2.5.5.4.1,0,.2-.1.2-.2,0-.2.2-.4.3-.6.6-.6,1.2-1.2,1.9-1.7.5-.3.8-.8.9-1.5.1-.8-.1-1.5-.6-2-.3-.3-.9-.3-1.2,0-.3.2-.5.2-.8.1-.4-.2-.5-.5-.3-.9.1-.2.2-.3.4-.2.4.2.5,0,.5-.3v-1.1c0-.3.3-.6.6-.8.7-.3,1.1-.9,1.1-1.6,0-.3.2-.6.5-.7.1,0,.2-.1.3-.2.1-.1.2-.2.2-.4l.2-2.2c0-.3-.1-.5-.5-.6-2.4-.3-4.5,0-6.4.8-.3.1-.6.1-.9-.2-.6-.5-.9-.8-.9-.8-.3-.2-.2-.4.1-.6.8-.4,1.6-1,2.3-1.7.2-.2.4-.3.7-.4l2.5-.8c.4-.1.6,0,.6.5,0,.1,0,.2.1.3.2.3.4.3.6.1,1-1,2.2-1.9,3.4-2.7.3-.2.5-.5.7-.8.2-.6.7-.9,1.3-.9.3,0,.6-.1.8-.3,1.3-.9,1.5-1.6.7-2.2-.3-.2-.6-.3-.9-.2l-1.2.2c-.4.1-.7-.1-.7-.6l-.4-2.9c-.1-.5.2-.8.7-.9,1,0,2.3-1,3.5-2.9h0Z" style="fill:#10446f; stroke-width:0px;"/><path d="M45.55,126.51c.1.6.5,1.6,1.1,3.1.4.9.5,2.3.3,4.1-.1,1,.3,1.9.2,2.9,0,.3,0,.6.3.9.4.4.5.9.4,1.4s-.3.5-.7.2c-.6-.5-.9-1.1-1.2-1.7-1.3-4.1-1.9-4.9-1.8-2.4-.1-1.2,0-2.4.2-3.6.1-.5.3-1.3.8-2.4.4-.8.5-1.7.4-2.5Z" style="fill:#d6d6d6; stroke-width:0px;"/><path d="M159.75,130.41l-5.2.9c-1.6.3-2.7,1.7-2.7,3.3l.2,7.2c0,.4-.3.8-.7.9l-8.2,1.8c-.3.1-.6,0-.9-.1-.4-.1-.7-.2-1-.1-1,.4-2.8.8-5.3,1.1-.9.1-2.8.7-5.9,1.6l.2-3.3c.4-1.4.4-2.8.1-4.1-.1-.3-.2-.4-.3-.5-.2-.1-.4-.2-.6-.2-.3-1.1-.3-1.8,0-2.1.7-.8.6-1.2-.5-1.2-3.2,0-6.4.5-9.6,1.5.3-.7.3-1.2.2-1.5,0-.5,0-.9.2-1.2.4.1.7-.1,1-.6.2-.3.3-.6.2-1-.1-.8.2-1.4,1-1.7.6-.3,1.2-.2,1.7.2l2.2,2c.3.3.6.3,1,.2.4-.2.7-.1,1.1.1.3.2.5.2.8-.1.1-.1.2-.3.4-.4.4-.5.7-.4.8.2,0,.2.2.3.4.4.1,0,.3,0,.4-.1,1-.6,1.8-.2,2.5,1.1.1.3.3.3.3,0,0-.2,0-.3-.2-.4-.2-.1-.4-.3-.5-.5,0-.1-.1-.2-.1-.3.1-.3.2-.4.5-.3.9.2,1.5-.1,1.9-.8.3-.5.6-.5.7.1,0,.2.2.3.4.2.2,0,.3-.2.3-.3,0-.4.2-.6.4-.7.3-.2.6-.1.8.2.1.2.2.3.2.5.1.4.3.5.6.3l1.4-.8c.2-.1.5-.1.7,0l1,.4c.4.2.5.4.3.8-.1.2-.1.4.1.6.1.1.3.1.4,0,.1-.1.1-.2.1-.3-.2-.7,0-1.4.6-1.9.2-.2.5-.2.6.1.3.5.8.6,1.4.5.4-.1.5-.4.5-.7v-1.4c0-.2.1-.3.2-.4l.4-.2c.2-.1.4,0,.5.2v.2l-.1,2.2c0,.07.03.1.1.1h.3c.2,0,.3-.1.3-.3,0-.6.1-1,.5-1.3.2-.2.5-.2.7,0,.1.1.1.2.1.3,0,.6-.2,1.1-.7,1.5-.1.1-.1.2-.1.3h0c.1.2.2.2.4.1.6-.5,1-1.1,1.1-1.8,0-.3.2-.5.4-.7l2-1.5c.2-.2.5-.2.6.1.3.4.7.4,1-.1.3-.4.6-.4,1,0,.3.3.6.3.9,0,.3-.3.7-.4,1.1-.3.5.1.9.1,1.3-.2.4-.3.7-.2.9.2.9.5,1.1,1.2,1.2,2h0Z" style="fill:#fff; stroke-width:0px;"/><path d="M320.05,135.31h-35.2c-3,0-5.6-.7-7.9-2.1-.1-.4,0-.8,0-1.1.1-.4.3-.5.7-.3.5.2,1,.2,1.5.1.4-.1.7,0,.9.4.2.2.4.5.6.6.4.3.6.2.5-.3v-.3c0-.1.1-.1.1-.1.4,0,.6.2.8.5.1.3.4.5.7.4.6,0,1.1-.2,1.5-.5.2-.1.3-.1.5,0l.5.3c.1.1.2.1.4,0,.9-.3,1.9-.4,3-.3,1,0,2,.1,3.1,0h5c.2,0,.5,0,.7.1.3.1.6,0,.8-.2.2-.3.5-.3.8,0,.4.5.9.4,1.3,0,.2-.2.4-.2.7,0,.4.5.9.5,1.4,0,.2-.2.4-.2.7,0,.4.5.9.5,1.4,0,.2-.2.4-.3.6-.1.1,0,.1.1.1.2,0,.2.2.3.4.3.4,0,.7-.2.9-.5.2-.3.4-.3.6,0,.4.6.9.6,1.3,0,.2-.3.5-.3.7,0,.4.6.8.6,1.3,0,.2-.3.4-.3.6,0,.5.6,1,.6,1.6-.1.2-.2.3-.2.5,0,.4.6.9.6,1.3,0,.2-.3.5-.3.7,0,.4.5.8.5,1.3,0,.2-.2.5-.2.6,0h0c.4.5.9.5,1.4.1.2-.2.4-.2.6,0,.9.7,1.8.6,2.6-.4.1-.2.4-.2.5-.1.07.07.1.13.1.2.2,1.9-.5,2.9-2.2,3.2h0Z" style="fill:#00a5de; stroke-width:0px;"/><path d="M462.65,134.11c-1.6,1-3.4,1.5-5.4,1.6-11.9.1-23.8.2-35.7.1-2.5,0-4.8-.7-6.9-2l2.5-1.1c.3-.1.6-.1.9.1.3.3.6.3.9-.1.4-.5.8-.5,1,.1.1.2.2.4.4.6.1.1.3.1.4,0s.1-.2.1-.3v-.3c.1-.2.2-.4.5-.5h.3c.1,0,.2.1.2.2.1.1.1.2,0,.3-.1.3,0,.5.2.6s.5.1.7,0,.3-.3.1-.5c-.1-.1-.1-.2,0-.4,0-.1.1-.1.1-.1.2-.1.4-.1.6,0,.3.1.3.3.3.5-.1.3,0,.5.2.6h20.5c.2,0,.4-.1.5-.2.2-.1.2-.3.1-.4-.2-.2-.2-.4-.1-.7.1-.2.3-.3.5-.3s.3.1.3.3c0,.3-.1.5-.2.6s-.1.3,0,.5l.1.1c.4.1.7.1,1.1.1.3-.1.4-.2.3-.5,0-.1-.1-.2-.1-.2-.07-.07-.1-.13-.1-.2.1-.3.2-.5.5-.6s.5,0,.4.4c0,.2-.1.4-.3.6-.1.1-.1.3,0,.5,0,0,.1,0,.1.1.3.1.6.2.9.1.3,0,.4-.2.4-.5,0-.1,0-.2-.1-.2v-.4c.1-.2.2-.3.4-.3.4-.2.6,0,.5.4l-.1.4c-.1.4.1.6.5.6.1,0,.2-.1.3-.2.1-.1.1-.3.1-.5,0-.4.2-.6.5-.7.4-.1.6,0,.6.4,0,.1,0,.2-.1.3-.1.3,0,.5.2.6.3.1.5.1.7-.1.07-.07.1-.13.1-.2v-.3c-.1-.4.1-.5.4-.6h.3c.1,0,.2.1.2.3v.4c-.1.4.1.6.5.6.1,0,.2,0,.4-.1.2-.1.2-.2.2-.3v-.3c0-.3.1-.5.5-.6h.3c.1,0,.2.1.2.3l-.1.5c-.1.4.1.6.5.6.1,0,.3,0,.4-.1.2-.1.3-.3.3-.6,0-.1,0-.3.1-.4.1-.2.2-.3.4-.3.4-.1.6.1.4.5l-.1.4c-.2.5,0,.7.5.5.3-.1.5-.3.5-.6,0-.4.2-.6.6-.7.4,0,.6.1.6.4.1.4.3.5.6.4,1.5-.4,2.2-.1,2.4.8h0Z" style="fill:#00a5de; stroke-width:0px;"/><path d="M388.85,134.71c.4-.4.7-1,1-1.7l1.5.2c.4.1.6-.1.7-.5,0-.3.2-.5.6-.5.4-.1.5.1.4.5v.4c.1.3.3.3.5.2.3-.1.5-.3.6-.7.2-.7.5-.8.9-.1v.3c-.2.3-.2.5.2.5.2,0,.4.1.6,0,.2,0,.3-.1.3-.3,0-.3.1-.6.3-.8.3-.3.5-.3.6.1.1.2.1.4,0,.6-.1.2,0,.3.1.4.1.1.3.1.5.1.3,0,.5-.2.5-.6,0-.1,0-.3.1-.4.1-.2.2-.3.3-.4.1,0,.2-.1.2,0,.3.1.4.3.3.5-.1.5.2.7.6.7s.6.2.6.6c0,.5,0,.9-.2,1.2s-.4.5-.8.5l-10.1-.1c-.2,0-.4-.1-.4-.3l.1-.4h0Z" style="fill:#00a5de; stroke-width:0px;"/><path d="M517.05,135.71l-1.6-1.6c.2-.6.6-1.1,1.3-1.5.5-.3,1.1-.4,1.6-.4,1,.1,2,.1,3.1-.1.5-.1.8.2.7.7,0,.3.2.5.5.5.4,0,.5-.1.3-.5-.1-.2-.1-.4,0-.5.1-.2.3-.3.5-.3.3,0,.4.2.4.5,0,.1-.1.3-.2.4-.1.1-.1.3,0,.4l.1.1c.5.2.9.2,1.5.2.4,0,.6-.3.6-.7,0-.1,0-.2.1-.3,0-.1.1-.2.1-.2.1-.2.2-.2.4-.2.4,0,.5.2.5.6-.1.6.2.8.7.7s.8.1.8.7c0,.4-.1.8-.3,1-.2.3-.5.4-.8.4l-10.3.1h0Z" style="fill:#00a5de; stroke-width:0px;"/><path d="M207.15,135.71l-.8-1.9,6.6-.7c.8-.1,1.4.2,1.8.8.1.2.3.4.4.6.4.6.2.8-.5.9l-7.5.3h0Z" style="fill:#00a5de; stroke-width:0px;"/><path d="M129.55,139.01l-.2-1.5c0-.3-.2-.5-.5-.4l-9.4.2c3.2-1,6.4-1.5,9.6-1.5,1.1,0,1.2.4.5,1.2-.3.1-.3.8,0,2Z" style="fill:#f17c28; stroke-width:0px;"/><path d="M169.95,136.11c-.2,5.2-1,10.5-2.2,15.8-.1-.9-.8-1.2-2-.7-.6.3-1.4-.1-1.6-.7-.1-.2-.1-.4-.1-.6.2-2,1.2-2.9,3.2-2.6.6.1,1.1-.3,1.1-.9v-.1l.1-2.5c0-.3-.1-.5-.4-.7-1-.4-1.8-1.1-2.6-1.9-.2-.2-.2-.5,0-.7l4.5-4.4h0Z" style="fill:#006bb5; stroke-width:0px;"/><path d="M57.35,137.21l.7,1.3c.1.3.4.4.7.4.5,0,1-.1,1.5-.2.2-.1.5,0,.7.2.3.3.6.4,1,.2.3-.1.6-.2.9-.1,2.8.4,5.8.5,8.9.4.4,0,.7.1,1,.4l1.4,1.7c.4.5.3,1.2-.2,1.6-.07.07-.13.1-.2.1-.9.5-1.9.8-2.9,1-.6.1-.6.3-.1.6.2.1.4.2.7.2.4,0,.7.2.8.5.2.4.5.8.7,1.2.3.4.6.7,1,.9,2.3,1.1,3.1,1.1,2.3-.2.1,1.3.4,2,1,2.1-.1.4-.1.9,0,1.6-.1.3-.2.5-.1.7,0,.4.2.6.5.6,1.3.2,2.7.2,4-.1-1.6.5-3.3.5-5.1.1-.2,0-.3,0-.4.2-.1.3,0,.5.4.4.7-.1,1.3,0,2,.2.6.3,1.3.4,1.9.4,2.4,0,4.8-.1,7.2-.1,1.1,0,2.2.1,3.3.3,1.1.2,2.2.4,3.4.5.7.1.7.3.2.7-.1.1-.2.2-.2.4s.1.3.3.3h.2c.1-.1.2-.1.3,0,.2.2.2.3-.1.4l-2.9,1.3-1.5.2c-.5.1-.5.3-.1.5s.6.6.7,1.1c.1.3-.1.5-.4.6-.8.2-1,.6-.7,1.3,1.4,3.4,2.9,6.7,4.4,10,.2.4.6.6,1,.6h3.3c.8.2.8.6.1,1.3-.2.2-.4.2-.7.2l-3.4.1c-.8.1-1.6-.1-2.3-.5-.8-.4-1.4-.4-1.6.3-.1.4-.5.6-.9.6-3.3.1-6.7.1-10,0-1.1,0-1.7-.6-2.4-1.4-.2-.3-.5-.5-.9-.6-1.2-.4-2-1.1-2.3-2-.8-2.4-1.7-4.2-2.6-5.4l-1.1-3.3c-.1-.3,0-.5.4-.6.2,0,.4,0,.8.1,1.2,2.8,2.4,5.7,3.7,8.6.3.7.9,1.1,1.7,1,.4,0,.6.1.8.5l.4.7c.2.4.5.5.9.5h9.9c.2,0,.4,0,.6-.2.3-.2.3-.4.1-.7-.3-.3-.2-.6.1-.9l.4-.3c.2-.2.3-.4.2-.7l-2.3-5c-.2-.3-.5-.5-.8-.6l-7.2-.2c-.5,0-.7.2-.5.7.3.7.6,1.3,1.1,2,.3.4.6.6,1.1.6h2.2c.3,0,.5.1.6.3.1.1.1.2.1.4.1.5-.2.8-.7.8h-2.7c-.8,0-1.5-.5-1.8-1.2l-1.9-4.4c-.3-.8-.1-1.1.8-1,2.1.2,4.9.2,8.3.2.4,0,.5-.2.4-.6l-1.1-3c-.1-.4-.5-.6-.9-.6l-12.6.1c-.2.1-.4.2-.5.1-.1,0-.2-.1-.2-.2v-.4l-2.9-1.6c-.4-.2-.8-.1-1.1.2-.1.2-.3.3-.5.4-.3.1-.6,0-.8-.3-.4-1-1.2-1.9-2.2-2.7-.1-.1-.1,0-.1,0,0,.1,0,.2.1.3h.1c1.2.6,1.7,1.3,1.5,2-.1.6-.4.7-.8.2l-2-2.3c-.3-.3-.4-.7-.3-1.1.2-.6.4-.9.6-.8.3.1.4,0,.4-.3-.1-.7-.4-1.3-.8-1.8-.2-.3-.5-.4-.8-.3-.7,0-1.3-.3-1.8-.9l-3.4-10.8h0Z" style="fill:#3f6d89; stroke-width:0px;"/><path d="M94.85,139.61l1.6,9.5c.1,1-.6,1.6-2.1,1.6-5.1.2-8.6.4-10.5.6-2.3.2-4.5.2-6.6-.2-.1-.7-.1-1.2,0-1.6.5-1.4.4-2.9-.2-4.6l-.2-4.5c0-.9.7-1.6,1.5-1.6.2,0,.5,0,.7.1.9.4,1.8.8,2.7,1.3,1.9,1,4.5.6,6.6.7.3,0,.6-.1.9-.3.4-.3.8-.5,1.4-.6.4-.1.7-.3.9-.6.4-.6,1-1.1,1.7-1.2.4-.1.7,0,.8.4.7,1.8.9,2.2.8,1h0Z" style="fill:#fff; stroke-width:0px;"/><path d="M129.55,139.01c.3,0,.5.1.6.2.1.1.3.3.3.5.3,1.3.3,2.7-.1,4.1l-.8-4.8Z" style="fill:#f17c28; stroke-width:0px;"/><path d="M96.95,146.91c-.1,1.3.1,2.3.4,3,.4.8.1,1.2-.7,1.2l-15,1.2c-1.4.3-2.7.3-4,.1-.4-.1-.5-.3-.5-.6,0-.2,0-.5.1-.7,2.1.4,4.3.5,6.6.2,1.9-.2,5.4-.4,10.5-.6,1.6-.1,2.3-.6,2.1-1.6l.5-2.2h0Z" style="fill:#f17c28; stroke-width:0px;"/><path d="M158.75,156.61l-.5,3.1c0,.3-.2.6-.4.9-.2.2-.4.4-.7.5s-.6.4-.7.8c-.3.9-.9,1.5-1.7,1.8-3.4,1-7.1,1.9-10.9,2.6-.1,0-.2,0-.2-.1v-.1l.8-3.8c0-.1.1-.2.3-.2,2.9-.4,5.7-1.1,8.3-2,.3-.1.6-.4.7-.7l.1-.3c.1-.2,0-.5-.2-.5h-.3l-5.3,1.3c-1.4.3-2.7-.5-3.1-1.8,0-.1-.1-.2-.1-.4-.1-1.5-.2-2.9,0-4.3,0-.4.2-.6.5-.8,1-.5,1.5-1.4,1.4-2.6l12.3-2.1c.6-.1.8.1.7.7l-.4,2.3c-.1.6-.5,1-1.1,1.1l-8,1.5c-.3.1-.5.3-.4.6h0l.1.3c.1.5.4.7.9.6l5.9-1.5c.5-.1.7.1.6.6v.4c0,.1.1.2.2.3,1.1.2,1.5.9,1.2,1.8h0Z" style="fill:#fff; stroke-width:0px;"/><path d="M60.55,148.71c.5.6,1.1.9,1.8.9.3,0,.6.1.8.3.4.5.7,1.1.8,1.8.1.3-.1.4-.4.3-.3-.1-.5.2-.6.8-.1.4,0,.8.3,1.1l2,2.3c.4.4.7.4.8-.2.1-.7-.4-1.4-1.5-2h-.1c0-.1-.1-.2-.1-.3s0-.1.1,0c1,.8,1.8,1.7,2.2,2.7.2.3.4.4.8.3.2-.1.4-.2.5-.4.3-.4.7-.4,1.1-.2l2.9,1.6c.1,0,.1.1,0,.1v.3c0,.1.1.2.2.2.2,0,.3,0,.5-.1.3.5.4.9.4,1.2s-.2.6-.5.7c-1,.3-1.2.6-.7.9-.3-.1-.6-.1-.8-.1-.3.1-.5.3-.4.6l1.1,3.3c-1.7.7-2.9.4-3.7-1-.4-.8-.9-1.3-1.4-1.6-.4-.3-.5-.6,0-.9.2-.1.3-.3.4-.5.3-.5.5-.5.7.1.1.2.2.4.5.5.4.1.7,0,.8-.5.1-.2.2-.4.4-.5.7-.2.7-.5.2-.9-.4-.3-.7-.6-.9-1-.1-.2-.2-.2-.4-.2-.3,0-.5.2-.5.5s.2.6.5.6c.1,0,.2.1.3.2.4.8.2.9-.5.4-.5-.4-1-.7-1.5-1-.5-.2-.5-.4,0-.6.3-.1.5-.4.6-.8,0-.3-.2-.6-.5-.7-.6-.1-1,0-1.1.4s-.3.5-.7.4c-.3-.1-.6-.1-.9.1l-3.5-9.1h0Z" style="fill:#0084c6; stroke-width:0px;"/><path d="M142.35,150.81l-.1,3.8c0,.3-.2.6-.6.7l-8.6,1.9c-.4.1-.7.4-.6.8v.4c0,.3.2.5.5.5h.1l8.6-1.9c.4-.1.6.1.5.5l-.2,2.9c0,.5-.3.8-.8.9l-8.2,1.8c-.5.1-.7.4-.6.9v.3c0,.2.2.4.4.3h0l8.4-1.7c.3-.1.4.1.4.3l-.2,3.1c0,.4-.2.6-.6.7l-12.8,1.9c-.2,0-.4-.1-.4-.3v-.1c.1-4.5-.2-9.2-.9-14.1,0-.3.1-.6.4-.6l5-1.1,10.3-1.9h0Z" style="fill:#fff; stroke-width:0px;"/><path d="M117.05,166.81c-.2-1-.6-1.5-1.2-1.6-.5-.1-.7.1-.6.6l.9,3.9c.1.3,0,.5-.3.6s-.6.2-1,.2l-2.7.2c-.4,0-.8-.2-.9-.6l-3.3-12.8c-.2-.7.1-1.1.8-1,1.2,0,2.4-.1,3.5-.4.7-.2,1.1,0,1.2.7.2.8.7,1.3,1.5,1.4.3.1.6.3.8.7.1.2.1.3.1.5.1.2.2.4.4.6.1.1.3.1.5,0,.1-.1.2-.2.2-.3l.2-1.1c.1-.4.3-.8.7-1,.6-.4.8-.9.4-1.7-.2-.5,0-.7.4-.8l4.6-.5c.3,0,.7.2.7.5h0l1.1,13.8c0,.3-.1.5-.5.6l-3.8.5c-.3,0-.6-.2-.6-.5h0c-.1-1.3-.3-2.6-.6-3.8-.1-.4-.4-.6-.8-.5s-.6.3-.5.7v.8c0,.4-.1.5-.5.5-.1.1-.4,0-.7-.2h0Z" style="fill:#fff; stroke-width:0px;"/><path d="M71.85,164.71c.9,1.2,1.7,3,2.6,5.4.3,1,1.1,1.6,2.3,2,.3.1.6.3.9.6.7.8,1.3,1.4,2.4,1.4h10c.4,0,.7-.3.9-.6.2-.6.7-.7,1.6-.3.8.4,1.6.6,2.3.5,2.2.6,4.2.3,5.9-.8.3-.2.6-.2.9-.1.2.1.4.2.5.3s.1.3,0,.4c-.1.1-.1.2-.1.3-.1.4,0,.5.4.4s.7,0,.9.3c.6.9,1,1.8,1,2.8,0,.2-.1.4-.3.4h-.3c-.2,0-.4-.1-.4-.3l-.3-1.3c-.1-.5-.3-.5-.5-.1s-.3.8,0,1.2c.2.4.1.9-.3,1.1-.1.1-.3.1-.4.1h-5.2c-.1,0-.2,0-.3-.1-.1,0-.2-.1-.2-.2-.1-.1-.2-.2-.3-.1-1.4.5-2.9.6-4.5.4-.3,0-.5-.2-.5-.6v-.7c-.1-.7-.3-.7-.5,0,0,.1-.1.3-.2.4-.2.3-.5.4-.9.4-.7,0-1.1-.4-1.2-1.1-.1-.5-.2-.5-.4-.1-.5.9-1.3,1.3-2.2,1.1-2.8-.4-6-.8-9.6-1.1-.4,0-.7-.2-1-.4-.9-.6-1.9-.9-3-.7-.6-.4-.9-.8-.8-1.3.3,0,.6,0,.8-.1.2-.1.3-.3.4-.5.4-1.4.1-2.5-1.1-3.2-.4-.2-.6-.5-.8-.9-.2-.6-.7-1.4-1.3-2.3-1.9-2.4-3.4-5.6-4.5-9.5.2-.2.5-.3.9-.1.4.1.6,0,.7-.4s.5-.6,1.1-.4c.3.1.5.4.5.7,0,.4-.2.7-.6.8-.5.2-.5.3,0,.6s1,.6,1.5,1c.7.6.8.5.5-.4-.1-.1-.2-.2-.3-.2-.3,0-.6-.3-.5-.6,0-.3.2-.5.5-.5.2,0,.3.1.4.2.2.4.5.7.9,1,.6.4.5.7-.2.9-.2.1-.4.2-.4.5-.1.4-.4.6-.8.5-.3-.1-.5-.2-.5-.5-.1-.6-.4-.6-.7-.1-.1.2-.3.4-.4.5-.4.3-.4.6,0,.9.5.3,1,.9,1.4,1.6.4,1.3,1.6,1.6,3.3.9h0Z" style="fill:#6889a2; stroke-width:0px;"/><path d="M108.65,170.51c.1.4-.1.6-.4.7-1.2.3-2.7.4-4.5.1-.2-1-.6-1.8-1-2.5-.2-.3-.4-.4-.8-.5-3.5-.1-4.4.6-2.7,2,.3.9.2,1.5-.4,1.7h-3.3c-.4,0-.8-.2-1-.6-1.5-3.3-3-6.6-4.4-10-.3-.7-.1-1.2.7-1.3.3-.1.5-.3.4-.6-.1-.5-.3-.9-.7-1.1-.4-.3-.4-.5.1-.5l1.5-.2c3.5,0,6.8-.2,10.1-.5.6-.1.9.2,1,.9,0,.4.3.7.7.9,1.1.4,1.6.9,2,2,1,3.1,1.9,6.3,2.7,9.5h0ZM100.95,164.81c.3,0,.5-.2.5-.5v-.2l-.8-1.7c-.1-.2-.3-.3-.5-.3l-3.4.1c-.3,0-.5.2-.5.5v.1l.5,1.6c.1.2.3.4.5.4h3.7Z" style="fill:#fff; stroke-width:0px;"/><path d="M71.95,160.91c-.5-.3-.2-.6.7-.9.3-.1.5-.3.5-.7,0-.3-.1-.8-.4-1.2l12.6-.1c.4,0,.7.2.9.6l1.1,3c.1.4,0,.6-.4.6-3.4.1-6.2,0-8.3-.2-.8-.1-1.1.3-.8,1l1.9,4.4c.3.7,1,1.2,1.8,1.2h2.7c.5,0,.7-.3.7-.8,0-.1-.1-.3-.1-.4-.1-.2-.3-.3-.6-.3h-2.2c-.5,0-.9-.2-1.1-.6-.4-.7-.8-1.4-1.1-2-.2-.5,0-.7.5-.7l7.2.2c.4,0,.7.2.8.6l2.3,5c.1.2,0,.5-.2.7l-.4.3c-.4.2-.4.5-.1.9.2.3.2.5-.1.7-.2.1-.4.2-.6.2h-9.9c-.4,0-.7-.2-.9-.5l-.4-.7c-.2-.3-.4-.5-.8-.5-.8,0-1.4-.3-1.7-1-1.2-3.1-2.4-6-3.6-8.8Z" style="fill:#fff; stroke-width:0px;"/><path d="M181.35,159.41l-2.7,13.6c0-.4,0-.6-.1-.6-.5-.1-1,.2-1.1.7v.1c-.2,1.4-.6,2.7-1.2,3.8-.2.3-.4.4-.8.3-.5-.1-.9,0-1.2.5-.1.3-.4.4-.7.4-1.5.1-2.3.8-2.4,2.2,0,.3-.2.6-.5.8-.2.1-.5.2-.8.1-.5-.1-.7.1-.7.6v.6c0,.3-.1.6-.4.8l-2.3,2.1c-.2.2-.5.3-.7.4-1.3.4-2.3,1.3-2.8,2.7-.1-1.6-.1-3.2-.1-4.7,0-1.1-.2-2.1-.8-3-.5-1-1.1-1.9-1.6-2.8.2-1.1-.1-2.1-1.1-3-.4-.4-.5-1-.1-1.4.1-.1.2-.2.3-.2l6.7-3.1c1.6-.1,3-.9,4.2-2.4.3-.4.6-.5,1.1-.4.7.2,1.3-.1,1.8-.7.2-.2.4-.4.7-.4.6,0,1-.2,1.2-.7.2-.3.4-.5.8-.5l2.5-.3c.3,0,.6-.2.7-.5.6-1,.9-2.1,1-3.2-.1-.7,0-1.5.2-2.4.3-.3.5-.4.7-.2.3.3.3.5.2.8h0Z" style="fill:#6889a2; stroke-width:0px;"/><path d="M180.35,161.31c-.1,1.1-.4,2.2-1,3.2-.2.3-.4.4-.7.5l-2.5.3c-.3,0-.6.2-.8.5-.3.5-.7.7-1.2.7-.3,0-.5.1-.7.4-.5.6-1.1.9-1.8.7-.4-.1-.8,0-1.1.4-1.2,1.5-2.6,2.3-4.2,2.4l3.8-4.6c.2-.2.2-.5.1-.7-.1-.2-.1-.4,0-.5.2-.2.4-.4.7-.4.5-.1,1.2-.4,2-.8,2.1-1.3,4.5-1.9,7.4-2.1h0Z" style="fill:#9bb0c4; stroke-width:0px;"/><path d="M100.95,164.81l-3.8.1c-.2,0-.4-.1-.5-.4l-.5-1.6c-.1-.3.1-.5.3-.6h.1l3.4-.1c.2,0,.4.1.5.3l.8,1.7c.1.2,0,.5-.2.7,0-.2,0-.1-.1-.1h0Z" style="fill:#10446f; stroke-width:0px;"/><path d="M164.55,163.61c.2,3.1-.8,5.3-3,6.6-2,1.1-5,1.9-8.9,2.4-1.2.2-2.4.4-3.5.7-.8.2-1.6.4-2.4.4-.8.1-1.6.2-2.4.5-3.9,1.2-7.9,1.8-12,2,4.4-1.3,8.2-2.3,11.6-2.9,1.6-.3,3.1-.7,4.5-1.4,1.8-.8,3.2-1.3,4.3-1.6,2.8-.6,5.4-1.5,8-2.5.7-.5,1.4-.8,2.2-.9.3-.1.6-.2.7-.6l.9-2.7h0Z" style="fill:#6889a2; stroke-width:0px;"/><path d="M117.05,166.81c-.3-.1-.5-.1-.7,0-.4.2-.6.6-.4,1,0,.1.1.2.2.3.7.6,1.4.9,2.3,1,.3,0,.5.2.5.4.3,1.2.9,1.8,2,1.9,1.7.1,3.3-.2,4.8-1.1.4-.2.7-.3,1.2-.2,1.5.3,2.9.3,4.2,0,2.1-.4,4.2-.7,6.5-.9,1.1-.1,2.2-.3,3.2-.7s2.2-.6,3.3-.6c1.7-.1,3.4-.3,5.1-.7.6-.1,1.1.1,1.5.6.6.9.3,1.5-.7,1.8-.7.2-1.5.4-2.2.7-.6.2-.6.3,0,.4.8.2,1.4.2,1.9,0,3.6-1,7.1-2,10.7-3-2.6,1.1-5.2,1.9-8,2.5-1.1.3-2.5.8-4.3,1.6-1.4.6-2.8,1.1-4.5,1.4-3.3.6-7.2,1.5-11.6,2.9-10.1,2.4-20.2,3.5-30.3,3.3l-23.2-.4c-.2,0-.3-.1-.3-.3,0-.1,0-.2-.1-.3-.1-.3-.3-.4-.6-.3-2.2.3-4.2,0-6.2-.9,1.3-.1,1.3-.7.1-1.8,1.1-.2,2.1.1,3,.7.3.2.6.3,1,.4,3.6.3,6.8.7,9.6,1.1,1,.2,1.7-.2,2.2-1.1.2-.4.4-.4.4.1.1.7.5,1,1.2,1.1.4,0,.7-.1.9-.4.1-.1.2-.2.2-.4.2-.7.4-.7.5,0v.7c0,.3.2.5.5.6,1.5.2,3,.1,4.5-.4.1-.1.2,0,.3.1,0,.1.1.2.2.2s.2.1.3.1h5.2c.5,0,.8-.4.8-.8,0-.1,0-.3-.1-.4-.2-.4-.2-.8,0-1.2s.4-.4.5.1l.3,1.3c.1.2.2.4.4.3h.3c.2,0,.3-.1.3-.4-.1-1-.4-1.9-1-2.8-.2-.3-.5-.4-.9-.3-.4.1-.5,0-.4-.4,0-.1.1-.2.1-.3.1-.1.1-.3,0-.4-.2-.1-.3-.2-.5-.3-.3-.1-.6-.1-.9.1-1.7,1.1-3.7,1.4-5.9.8l3.4-.1c.2,0,.5-.1.7-.2.8-.7.8-1.1-.1-1.3.6-.2.7-.8.4-1.7,2.1-.2,3.5.4,4.2,1.7.1.1.2.1.3.1l.1-.1c.1-.2,0-.4-.1-.7,1.8.3,3.3.2,4.5-.1.3-.1.4-.3.4-.7.3,0,.4,0,.5-.2s.2-.2.3-.1c.3.1.5.4.5.9,0,.4.3.8.7.9,1.6.4,3.3.5,5.1.1.4-.1.6-.5.6-.8,0-.1-.1-.2-.2-.3-.3-.3-.7-.4-1.4-.3.4,0,.8,0,1-.2.2-.1.3-.4.3-.6l-.9-3.9c-.1-.5.1-.7.6-.6,1,0,1.5.6,1.7,1.5h0Z" style="fill:#0084c6; stroke-width:0px;"/><path d="M103.85,171.21c.1.3.2.6.1.7-.1.1-.2.2-.3.1l-.1-.1c-.8-1.3-2.2-1.9-4.2-1.7-1.6-1.5-.7-2.1,2.7-2,.3,0,.6.2.8.5.4.7.7,1.6,1,2.5Z" style="fill:#10446f; stroke-width:0px;"/><path d="M68.25,180.31c-1.1-.9-2.2-1.8-3.1-2.6-1.3-1.1-2.5-1.8-3.6-1.9-1.3-.2-2.7-.2-4.2,0-.5.1-.9-.1-1.2-.3-.7-.5-1.2-.5-1.8.1-.3.3-.6.3-.9,0-.6-.8-1-1.7-1.2-2.8.4-.2.7-.6.8-1,.1-.3.3-.4.5-.4l7.6-.2c.6,0,1.1.3,1.4.8l5.7,8.3h0Z" style="fill:#d6d6d6; stroke-width:0px;"/><path d="M178.65,173.01l-3.4,10.8c-.1.3-.4.6-.7.7l-4.5,1.2c-.4.1-.6.3-.7.7l-2.4,6.9c-1.1-.4-1.8-1.1-2.1-2.2-.1-.3-.3-.5-.6-.6-.3,0-.7.1-1,.5-.3-.6-.4-1.5-.2-2.4.6-1.4,1.5-2.3,2.8-2.7.3-.1.5-.2.7-.4l2.3-2.1c.2-.2.4-.5.4-.8v-.6c0-.5.2-.7.7-.6.3.1.5,0,.8-.1.3-.2.5-.4.5-.8.1-1.4.9-2.2,2.4-2.2.3,0,.6-.2.7-.4.3-.4.6-.6,1.2-.5.3.1.6,0,.8-.3.6-1.1,1-2.4,1.2-3.8.1-.5.6-.9,1.1-.8h.1c-.1-.1-.1.1-.1.5h0Z" style="fill:#3f6d89; stroke-width:0px;"/><path d="M146.75,180.41c-.6-.9-1.2-.6-1.8,1-.5.3-.7.6-.9,1.1-.1.3,0,.6.3.7.4.1.6.5.6,1,0,.2,0,.4-.1.6-.6,1.4-1.2,1.8-1.9,1.2-.3-.3-.7-.4-1.2-.3-1.2.2-2.1.6-2.7,1.4l-.2-1.3c.5-1.7,1.5-3.1,3.1-4,.2-.1.2-.3.1-.5l-.1-.2s0-.1-.1,0c-1.8.7-3,1.9-3.6,3.7l-.6.2c-.5.1-.7-.1-.7-.5s.2-.8.4-1,.2-.5,0-.7c-.5-.5-.5-1-.1-1.5.4-.4.3-.7-.3-.6-3.7.1-7,.6-9.8,1.5-3.1,1-6.2,1.5-9.5,1.6-.2,0-1.9.1-5,.4-2.1.2-4.1,0-6-.6-.3-.1-.5-.3-.4-.7,0-.1.1-.3.2-.4.2-.3.5-.4.8-.4,2.3.1,4.6,0,6.9-.3h.1c.1-.1.1-.2.1-.3s0-.1.1-.1c.7,0,1.4-.1,2.1-.4.9-.3,1.6-.5,2.3-.5,2-.1,4.3-.2,6.7-.3.9,0,1.8-.2,2.6-.5,1-.4,2.1-.6,3.2-.5.2,0,.5,0,.7-.2s.5-.3.8-.3c3.3-.3,6.5-.9,9.4-1.9.3-.1.6-.1,1-.1.4.1.8-.1,1-.4.2-.3.5-.5.9-.4,1.2.2,2.2.1,3-.3,1.2-.6,2.6-.5,3.9-.8,3-.6,3.3.1,1.1,2.2-1.9,1.3-4,2.6-6.4,3.4h0Z" style="fill:#fff; stroke-width:0px;"/><path d="M70.25,176.51l1.2.8c2,.9,4.1,1.2,6.2.9.3,0,.5.1.6.3,0,.1.1.2.1.3,0,.2.1.3.3.3l23.2.4c-.5.3-1.2.5-1.9.4-.4,0-.6.1-.7.5,0,.1-.1.2-.1.3-.2.4-.5.6-.9.6-6.8.6-13.6.7-20.3.2-1.7-.9-3.4-1.4-5.2-1.6-.3,0-.6-.2-.8-.4-.9-1.1-1.5-2-1.7-3Z" style="fill:#6889a2; stroke-width:0px;"/><path d="M160.45,178.01c.6.9,1.1,1.8,1.6,2.8.5.9.8,1.9.8,3,0,1.6,0,3.1.1,4.7-.1,1-.1,1.8.2,2.4l-.4,4.7c-.4.2-.9.3-1.3.3-1.4-.1-2.3.5-2.7,1.9.4,3.9-.8,6.8-3.5,8.4l-.6-7.7c.4-.6.4-1.2.2-1.8l-1.3-4.1.2-2.3c0-.5.3-.6.7-.5.5.2.8.5,1,.9s.3.4.3,0c.1-1.5-.4-2.6-1.5-3.5-.3-.2-.4-.5-.4-.8,0-1-.1-1.9-.6-2.7,1.2-1.1.6-2.2-1.7-3.2-.8-.3-.9-.8-.3-1.4,3.2-3,6.2-3.3,9.2-1.1h0ZM157.65,189.61c1.1-.5,1.6-.5,2.9-.6,1.7-.1,1.8-.4.1-1-.9-.3-2-.1-3.3.7-.2.1-.3.2-.3.5,0,.4.2.5.6.4h0ZM158.15,191.81c1.1-.5,2.2-.6,3.2-.5.2,0,.4-.1.4-.3l.1-.3c.1-.2-.1-.4-.3-.5h0c-1.7-.3-2.9,0-3.8,1-.6.8-.5,1,.4.6h0ZM161.95,193.31c-1.4-1-2.8-.9-4.2.3l-.1.1.1.4c.1.4.3.5.6.2,1.1-.7,2.2-.8,3.3-.3.2.1.3,0,.4-.2h0l.1-.3s0-.1-.2-.2h0Z" style="fill:#fff; stroke-width:0px;"/><path d="M56.75,183.41l2.9,5.2c.1.1.1.3.1.5.1.7.5,1.2,1.2,1.5.4.2.5.1.2-.3-.2-.3-.2-.6-.1-.9.1-.5.4-.5.8-.2.6.5,1.1,1.4,1.6,1.8.3.2.5.2.7,0,.2-.3.5-.3.8-.2.6.3,1,.6,1.3,1.1.2.2.4.2.6.1.07-.07.1-.13.1-.2.2-.6.6-.7,1-.2.2.2.4.3.7.2.3-.1.5-.2.7-.4.3-.2.5-.1.5.3v.1c.3.5.6.5.7-.1,0-.2.1-.3.2-.5.2-.2.5-.3.8-.2.1.1.2.1.3.2.6.7,1.8.9,2.7.4.5-.3,1-.3,1.6-.2.4.1.4.3.2.6-.2.2-.2.4-.3.6,0,.4.1.6.5.5.1,0,.3,0,.4-.1.3-.1.5-.3.6-.6.5-.9,1.3-1.1,2.3-.6.2.1.5.1.7,0,.1,0,.2-.1.2-.1.5-.4.7-.3.4.3-.1.3-.3.7-.4,1s0,.5.2.6c.1,0,.2,0,.3-.1.6-1,1.5-1.4,2.6-1.2.3.1.6,0,.9-.2.5-.3,1-.3,1.5.1,1,.7,2.3.7,3.3.1.5-.3,1.1-.4,1.8-.2.3.1.4.3.3.6s-.3.4-.6.5c-.2,0-.4.3-.4.5v.1l.2.3c.2.4.5.5.8.3.5-.2.9-.7,1-1.3.1-.3.3-.5.6-.5.4.1.8,0,1.1-.2.4-.2.7-.2,1.1,0,.3.2.6.5.8.8.4.5.2.8-.4.9-.3,0-.4.2-.2.5.4.7.8.6,1.1-.1.2-.4.5-.8.9-1,.3-.2.5-.4.6-.7.2-.7.7-1,1.3-.9,3.7.5,7,0,10.6-.4,1.6-.2,3.2-.3,4.7-.2,1.5,0,3,0,4.5-.1.4,0,.7-.1,1-.3l2.6-1.4c.2-.1.3-.1.4.2s.3.4.6.4c.2,0,.3-.1.4-.3s.4-.3.6-.2c1.2.5,2.4.6,3.8.4.6-.1,1.1.1,1.4.6.2.2.4.4.7.4l4,.4c.3,0,.5.1.8.2,1.5.9,3.1.9,4.6,0,.7.3,1.1.8,1.1,1.4l-14.1,3.5-3.5-.6c-2.1-1.3-4,.2-5.7.3-4.9.2-9.8.2-14.8-.1-.3,0-.7-.1-.9-.3-.2-.2-.5-.2-.8-.1-1.4.3-2.7.5-4,.5-.4,0-.7-.1-1-.3-.5-.4-1.1-.4-1.6,0-.3.2-.6.3-.9.3h-12c-.3,0-.5-.1-.6-.3-.1-.1-.2-.1-.2-.2-.3-.1-.6,0-.8.1-.5.4-1.1.5-1.7.3-.2-.1-.3-.2-.4-.4,0-.1-.1-.2-.2-.2-.3-.1-.5,0-.7.3-.1.1-.2.2-.3.3-.3.2-.5.1-.7-.1-.4-.6-.8-.6-1.3-.2-.2.2-.5.2-.7,0-1-.7-1.8-.5-2.4.5-.2.3-.5.5-.9.4-1.6-.2-3.2-.3-4.9-.2-1,0-1.9-.2-2.8-.7-.8-.4-1.7-.9-2.6-1.6-2.9-4.4-5.5-9.3-7.7-14.6,0-.1.1-.3.1-.4.1-.3.3-.3.4,0l3.1,4.2h0Z" style="fill:#3f6d89; stroke-width:0px;"/><path d="M146.75,180.41l6.7,3.4c.4.8.6,1.7.6,2.7,0,.3.1.6.4.8,1.1.9,1.6,2.1,1.5,3.5,0,.5-.1.5-.3,0-.2-.4-.5-.7-1-.9-.4-.2-.7,0-.7.5l-.2,2.3c0-2.1-.4-4.1-1.2-6.1-.1-.3-.2-.7-.2-1,0-.9-.4-1.7-1.3-2.3-.3-.2-.6-.2-.9-.2-1,.2-1.8,0-2.6-.7-.3-.3-.7-.4-1.1-.3-.7.2-1.2,0-1.4-.7.5-1.6,1.1-1.9,1.7-1Z" style="fill:#ffb552; stroke-width:0px;"/><path d="M138.95,185.71c-.8,2.6-.2,4.5,2.1,5.9-1.5.9-3.1.9-4.6,0-.2-.1-.5-.2-.8-.2l-4-.4c-.3,0-.5-.2-.7-.4-.4-.5-.8-.7-1.4-.6-1.3.2-2.6.1-3.8-.4-.2-.1-.5,0-.6.2s-.2.3-.4.3c-.3,0-.5-.1-.6-.4-.1-.2-.2-.3-.4-.2l-2.6,1.4c-.3.2-.6.3-1,.3-1.5.1-3.1.2-4.5.1-1.6-.1-3.1,0-4.7.2-3.6.4-6.8.9-10.6.4-.7-.1-1.1.2-1.3.9-.1.3-.3.6-.6.7-.4.2-.7.6-.9,1-.3.7-.7.8-1.1.1-.2-.3-.1-.4.2-.5.7-.1.8-.4.4-.9-.2-.3-.5-.5-.8-.8-.3-.2-.7-.3-1.1,0-.4.2-.7.3-1.1.2-.3,0-.6.2-.6.5-.1.6-.5,1-1,1.3-.4.2-.7.1-.8-.3l-.2-.3c-.1-.2,0-.5.2-.6h.1c.3,0,.5-.2.6-.5s0-.5-.3-.6c-.6-.2-1.2-.1-1.8.2-1,.6-2.3.6-3.3-.1-.5-.3-1-.4-1.5-.1-.3.2-.6.2-.9.2-1.1-.2-2,.2-2.6,1.2-.1.1-.2.2-.3.1-.3-.1-.4-.3-.2-.6.2-.3.3-.7.4-1,.2-.6.1-.7-.4-.3-.1.1-.2.1-.2.1-.2.1-.5.1-.7,0-1-.5-1.8-.3-2.3.6-.1.2-.3.4-.6.6-.1.1-.3.1-.4.1-.4,0-.5-.2-.5-.5,0-.2.1-.5.3-.6.3-.3.2-.5-.2-.6-.6-.1-1.1-.1-1.6.2-1,.5-2.1.3-2.7-.4-.1-.1-.2-.2-.3-.2-.3-.1-.5-.1-.8.2-.1.1-.2.3-.2.5-.1.6-.4.6-.7.1v-.1c0-.4-.2-.5-.5-.3-.2.2-.5.3-.7.4-.3.1-.5.1-.7-.2-.4-.5-.7-.5-1,.2-.1.2-.3.4-.6.3-.1,0-.2-.1-.2-.2-.3-.4-.8-.8-1.3-1.1-.3-.2-.6-.1-.8.2-.2.2-.4.2-.7,0-.6-.4-1-1.3-1.6-1.8-.4-.3-.6-.2-.8.2-.1.3-.1.6.1.9.3.4.2.5-.2.3-.7-.3-1.1-.8-1.2-1.5,0-.2-.1-.3-.1-.5l-2.9-5.2,4.6-.1c.3,0,.6.1.8.4.3.4.6.4,1.1.2.2-.1.4-.1.6-.1.8.2,1.9.5,2.7.4.3,0,.4.1.5.3s.4.3.6.2c.1,0,.1-.1.1-.1.5-.5,1-.5,1.5,0,.4.3.9.5,1.4.4.9-.2,1.7,0,2.5.5,1,.7,2.6.7,3.5-.1.2-.1.3-.2.5-.2s.3,0,.5.1c.4.2.4.4.1.6-.3.2-.5.6-.5,1,0,.5.2.7.8.6.6-.2.9-.5,1.1-1.1.1-.5.5-.8,1-.7.4.1.8,0,1.2-.3.7-.5,1-.3.9.5,0,.5,0,.9.1,1.4s.3.5.6.1c.3-.6.8-.8,1.3-.7.3.1.6,0,.8-.3.5-.5,1-.7,1.7-.4.5.2.5.4.2.8l-.3.3c-.2.2-.2.5,0,.7.07.07.13.1.2.1,2,.7,3.2.2,3.6-1.2.1-.3.2-.4.5-.5s.7-.1.9,0c.6.3.6.5,0,.7-.5.2-.7.5-.6,1,.1.7.8,1.1,1.4,1,.3,0,.5-.2.7-.4.3-.3.7-.4,1.1-.3.3.1.5,0,.6-.3.2-.7.7-1.4,1.6-1.8.2-.1.4-.1.6,0,.1,0,.2.1.2.2.1.2.1.4-.1.6-.6.5-1,1.1-1.1,1.9,0,.3.2.5.4.6h0c.7.1,1.3-.2,1.6-1,.1-.3.4-.4.7-.4h.5c.4,0,.6-.2.6-.6,0-.9.5-1.3,1.4-1.3.4,0,.9,0,1.3-.1,3.4-.4,6.8-.7,10.2-.9.1,0,.3,0,.4.1.2.2.6.2,1,.2,4.8-.4,9-1,12.8-2,1.2-.8,2.6-1.1,4.2-1.1,1.8.1,2.9.8,3.5,2.1.5,1.1.8,2.3,1,3.5.1.6.7,1,1.3.9h.1c1.1-.3,1.5-1,1.1-2.2-.2-.7-.2-1.5,0-2.3.6-1.8,1.9-3,3.6-3.7h.1l.1.2c.1.2,0,.4-.1.5-2.1,1.3-3.2,2.6-3.7,4.4h0Z" style="fill:#6889a2; stroke-width:0px;"/><path d="M144.95,181.41c.2.7.7.9,1.4.7.4-.1.8,0,1.1.3.7.7,1.6,1,2.6.7.3-.1.6,0,.9.2.9.6,1.3,1.4,1.3,2.3,0,.4,0,.7.2,1,.8,1.9,1.2,3.9,1.2,6.1l1.3,4.1c-1.1.8-1.9.8-2.3,0,0-.5.2-1.1.6-1.9-.5-1.4-1.6-1.4-3.4,0-.3.2-.5.2-.8.1-.6-.3-1-.8-1.3-1.4-.1-.3-.4-.5-.7-.6-.5-.1-1-.4-1.4-.9-.2-.2-.4-.2-.5,0-.3.3-.6.4-1,.2-.2-.1-.4-.4-.4-.6,0-1.3-.4-2.5-1.1-3.5-.4-.5-.8-.6-1.4-.4-.1,0-.1.1-.2.1,0,.1-.1.2-.1.3,0,.3-.1.4-.4.5-.5.1-.9,0-1.2-.3-.3-.2-.4-.5-.4-.8,0-.2.1-.5.2-.7.6-.7,1.5-1.2,2.7-1.4.4-.1.8,0,1.2.3.7.6,1.4.2,1.9-1.2.1-.2.1-.4.1-.6-.1-.5-.3-.9-.6-1s-.4-.3-.3-.7c.1-.3.4-.6.8-.9h0ZM147.55,187.11c.8-.5,1.8-.7,2.8-.7.3,0,.6-.2.6-.6,0-.2-.1-.4-.2-.5-.5-.4-1-.4-1.6-.1-.2.1-.5.2-.8.2-1,0-1.9.4-2.7,1.2-1.1,1.1-1.4,2.4-.8,4,.3.7.6.7,1,.1.7-.9,1.1-1.9,1.2-3.1.1-.2.3-.4.5-.5h0ZM150.85,189.81c-1.2-.1-2.2.3-3.1,1.2-.1.1-.1.2-.1.4,0,.1.1.2.2.2.2.2.5.2.7,0,.9-.6,1.9-.8,2.9-.7.2,0,.3-.1.2-.3,0-.1-.1-.2-.1-.3-.1-.2-.4-.5-.7-.5h0ZM149.55,192.71c-.6.5-.5.7.2.6.5-.1,1.1-.2,1.6-.3.9-.3.9-.6.1-1.1-.3-.2-1,.1-1.9.8h0Z" style="fill:#ffd01a; stroke-width:0px;"/><path d="M147.15,187.61c-.2,1.2-.6,2.2-1.2,3.1-.4.6-.8.5-1-.1-.6-1.5-.3-2.8.8-4,.8-.8,1.7-1.2,2.7-1.2.3,0,.5-.1.8-.2.6-.3,1.1-.2,1.6.1.3.2.3.6.1.9-.1.2-.3.2-.5.2-1.1,0-2,.2-2.8.7-.3.1-.5.3-.5.5h0Z" style="fill:#ffb552; stroke-width:0px;"/><path d="M138.95,185.71l.2,1.3c-.1.2-.2.5-.2.7-.1.4.1.6.4.8.4.2.8.3,1.2.3.3,0,.4-.2.4-.5,0-.1,0-.2.1-.3,0-.1.1-.1.2-.1.6-.2,1.1,0,1.4.4.8,1,1.1,2.2,1.1,3.5,0,.3.1.5.4.6.4.2.7.2,1-.2.2-.2.4-.2.5,0,.4.4.9.7,1.4.9.3.1.6.3.7.6.3.6.7,1.1,1.3,1.4.3.2.6.1.8-.1,1.8-1.4,2.9-1.4,3.4,0l-2.8.7c-.4.1-.6.4-.4.8.1.4.3.7.7.9.3.2.7.2,1,0l.9-.5c.4.8,1.2.8,2.3,0,.2.7.2,1.3-.2,1.8-.1-.2-.3-.4-.4-.5-.2-.2-.4-.3-.6-.2-.3.1-.8.2-1.4.5l-2.2,1.3c-1.2-1.5-2.3-3-3.4-4.4-.6-.8-1.3-1.3-2.1-1.6-.9-.3-1.8-.6-2.6-.7,0-.6-.3-1.1-1.1-1.4-2.1-1.5-2.8-3.5-2-6h0Z" style="fill:#f17c28; stroke-width:0px;"/><path d="M160.55,189.01c-1.2.1-1.7.1-2.9.6-.4.2-.6,0-.6-.4,0-.2.1-.4.3-.5,1.3-.7,2.4-1,3.3-.7,1.7.6,1.6.9-.1,1h0Z" style="fill:#001a44; stroke-width:0px;"/><path d="M151.65,190.41c0,.1.1.2.1.3.1.2,0,.3-.2.3-1-.2-2,.1-2.9.7-.2.2-.5.1-.7,0l-.2-.2c0-.2,0-.3.1-.4.9-.9,1.9-1.3,3.1-1.2.2-.1.5.2.7.5h0Z" style="fill:#001a44; stroke-width:0px;"/><path d="M158.15,191.81c-.9.4-1,.2-.4-.5.9-1,2.2-1.3,3.8-1,.2,0,.3.2.3.5h0l-.1.3c-.1.2-.2.3-.4.3-1-.2-2.1-.1-3.2.4h0Z" style="fill:#3f6d89; stroke-width:0px;"/><path d="M166.95,193.21c-.5,2.1-1.7,3.3-3.5,3.4l-.4-.2c-.2-.1-.3-.2-.2-.4v-.4l.4-4.7c.3-.4.7-.6,1-.5.3,0,.6.3.6.6.2,1.1.9,1.8,2.1,2.2h0Z" style="fill:#001a44; stroke-width:0px;"/><path d="M149.55,192.71c.9-.8,1.6-1,2-.8.8.4.8.8-.1,1.1-.5.2-1.1.3-1.6.3-.8.1-.9-.1-.3-.6h0Z" style="fill:#001a44; stroke-width:0px;"/><path d="M161.95,193.31c.1.1.2.2.1.4l-.1.3c0,.2-.2.3-.4.2h0c-1.1-.5-2.2-.4-3.3.3-.3.2-.5.1-.6-.2l-.1-.4c0-.07.03-.1.1-.1,1.5-1.4,2.9-1.5,4.3-.5Z" style="fill:#a5a1a1; stroke-width:0px;"/><path d="M61.55,194.11c.9.6,1.8,1.2,2.6,1.6.9.5,1.9.7,2.8.7,1.7-.1,3.3,0,4.9.2.4.1.7-.1.9-.4.6-1,1.4-1.2,2.4-.5.2.1.5.1.7,0,.5-.4.9-.4,1.3.2.2.3.4.3.7.1.1-.1.2-.2.3-.3.1-.3.4-.4.7-.3.1,0,.2.1.2.2,0,.2.2.4.4.4.6.2,1.2.1,1.7-.3.3-.2.5-.2.8-.1.1,0,.2.1.2.2.2.2.4.3.6.3h12c.3,0,.7-.1.9-.3.5-.4,1-.4,1.6,0,.3.2.6.3,1,.3,1.3,0,2.7-.2,4-.5.3-.1.5,0,.8.1.3.2.6.3.9.3,4.9.3,9.9.3,14.8.1,1.7-.1,3.6-1.6,5.7-.3-.4,0-.7.3-.7,1-5,.7-10,1.1-15,1.3-8.2.2-16.5.3-24.7.2l-7.3-.2c-.3,0-.6-.1-.8-.3-.4-.4-.9-.4-1.3.1-.2.2-.2.5-.1.7.4.9.9,1.9,1.5,2.8.7,1.2.5,2.1-.7,2.7l-3.9-5.9c-.2-.3-.5-.4-.8-.5l-6.5-.3c-.3,0-.6-.2-.8-.5,0,0-1.8-2.8-1.8-2.8Z" style="fill:#10446f; stroke-width:0px;"/><path d="M153.25,195.01c-.4.8-.5,1.4-.6,1.9l-.9.5c-.3.2-.7.2-1,0-.4-.2-.6-.5-.7-.9-.1-.4,0-.7.4-.8l2.8-.7Z" style="fill:#ffb552; stroke-width:0px;"/><path d="M162.75,195.71v.4c0,.2,0,.4.2.4l.4.2c-.6-.1-.9,0-1.1.3-.4-.1-.6-.5-.8-1,.5,0,.9-.1,1.3-.3h0Z" style="fill:#a5a1a1; stroke-width:0px;"/><path d="M124.45,195.81l3.5.6c5.6,1.3,3.3,6-.1,7.8-3.3,1.8-6.7,3.9-8.9,6.9-.4.5-.1,1.2.8,2.2.6,1.3,2,2,4.2,2.1,6.4.3,12.4-.1,18-1.2,3.2-.6,5.7-1.5,7.2-2.6,4.4-3.1,5.4-7.5,3.1-13.2.6-.3,1-.5,1.4-.5.2,0,.4,0,.6.2.1.1.3.3.4.5l.6,7.7-.6,1.6c-.4,1-.2,1.2.7.6,3.2-2.2,5-5.5,5.3-9.7,0-.4-.1-.6-.4-.8-.3-.2-.8-.2-1.4,0,.4-1.4,1.3-2.1,2.7-1.9.2.5.5.8.8,1,.2,6.3-2.3,11-7.6,14.2-1.4.8-3.1,1.6-5.1,2.4-6.2,2.5-12.5,3.3-19.7,3.8-4.7.3-10.2.4-12.8-3.6-.7-1.1-.8-2.1-.3-3.1,2.6-2.6,5.4-4.8,8.6-6.4,1.2-.6,2-1.5,2.5-2.7.2-.3.4-.6.6-.8.5-.4.5-1.1.1-1.6-.1-.1-.3-.2-.4-.3l-4.6-1.9c.2-.9.4-1.3.8-1.3Z" style="fill:#001a44; stroke-width:0px;"/><path d="M84.15,198.31c-.4,2.1-.5,4.9-1.7,6.4-1.7,2.2-5.7,2.2-7-.5,1.1-.6,1.4-1.5.7-2.7-.5-.9-1-1.8-1.5-2.8-.1-.2-.1-.5.1-.7.4-.5.8-.5,1.3-.1.2.2.5.3.8.3,0,0,7.3.1,7.3.1Z" style="fill:#001a44; stroke-width:0px;"/><path d="M152.35,198.51c2.4,5.7,1.3,10.2-3.1,13.2-1.6,1.1-4,2-7.2,2.6-5.6,1.1-11.6,1.5-18,1.2-2.2-.1-3.6-.8-4.2-2.1,5.3,1.6,11.7,1.6,19,.1,4.5-.9,8.4-1.4,11.5-4.8,2.6-2.9,2.6-5.9-.1-9l2.1-1.2Z" style="fill:#a5a1a1; stroke-width:0px;"/><path d="M128.05,201.51c-.4,1.1-1.3,2-2.5,2.7-3.2,1.7-6,3.8-8.6,6.4,2.3-4,6-7.1,11.1-9.1h0Z" style="fill:#a5a1a1; stroke-width:0px;"/></svg>