<?xml version="1.0" encoding="UTF-8" standalone="no"?>
<!DOCTYPE svg PUBLIC "-//W3C//DTD SVG 1.1//EN" "http://www.w3.org/Graphics/SVG/1.1/DTD/svg11.dtd">
<svg xmlns="http://www.w3.org/2000/svg" version="1.1" viewBox="0.00 0.00 321.00 105.00">
<g stroke-width="2.00" fill="none" stroke-linecap="butt">
<path stroke="#496f16" stroke-opacity="0.667" vector-effect="non-scaling-stroke" d="
  M 2.58 51.33
  L 2.70 28.66"
/>
<path stroke="#c5ac0c" stroke-opacity="0.667" vector-effect="non-scaling-stroke" d="
  M 190.52 6.60
  Q 188.51 6.42 181.00 6.24
  Q 167.23 5.91 157.00 6.79"
/>
<path stroke="#c5ac0c" stroke-opacity="0.667" vector-effect="non-scaling-stroke" d="
  M 151.08 6.08
  L 151.33 2.35"
/>
<path stroke="#1038b6" stroke-opacity="0.667" vector-effect="non-scaling-stroke" d="
  M 314.11 25.97
  Q 314.51 26.17 314.85 25.92
  Q 315.19 25.66 315.20 25.22
  L 315.23 7.05
  Q 315.24 6.19 314.38 6.19
  L 251.93 6.30"
/>
<path stroke="#2a8334" vector-effect="non-scaling-stroke" d="
  M 263.76 74.69
  Q 263.80 75.91 264.87 76.88
  Q 265.23 77.21 265.44 77.64
  L 267.38 81.67
  Q 267.63 82.19 267.59 82.77
  Q 267.55 83.36 267.80 83.86
  C 268.36 84.96 268.18 86.52 268.00 87.69"
/>
<path stroke="#a2c42e" vector-effect="non-scaling-stroke" d="
  M 268.00 87.69
  Q 268.10 86.26 267.74 84.99
  Q 267.43 83.91 266.15 82.98
  Q 264.80 82.01 263.63 80.98"
/>
<path stroke="#5bbb63" vector-effect="non-scaling-stroke" d="
  M 263.63 80.98
  Q 262.42 79.73 261.39 78.44
  C 260.19 76.95 260.27 75.15 258.47 74.09
  Q 255.65 72.43 253.17 72.39
  Q 251.73 72.37 250.28 71.97
  C 247.73 71.27 245.80 73.24 244.53 75.14
  Q 244.20 75.63 243.67 75.89
  Q 241.87 76.75 241.88 78.90
  Q 241.89 79.44 241.53 79.83
  L 241.07 80.34"
/>
<path stroke="#a2c42e" vector-effect="non-scaling-stroke" d="
  M 241.07 80.34
  L 236.95 82.72"
/>
<path stroke="#2a8334" vector-effect="non-scaling-stroke" d="
  M 236.95 82.72
  Q 237.02 81.45 237.61 80.29
  Q 238.23 79.06 238.53 78.03
  Q 239.02 76.38 239.96 75.71
  Q 242.62 73.82 244.91 71.21"
/>
<path stroke="#8fac17" vector-effect="non-scaling-stroke" d="
  M 268.00 87.69
  L 267.06 89.19"
/>
<path stroke="#abb30f" vector-effect="non-scaling-stroke" d="
  M 267.06 89.19
  L 259.82 93.93"
/>
<path stroke="#abb30f" vector-effect="non-scaling-stroke" d="
  M 242.40 92.74
  L 237.97 89.75"
/>
<path stroke="#8fac17" vector-effect="non-scaling-stroke" d="
  M 237.97 89.75
  Q 234.65 88.04 236.22 83.32"
/>
<path stroke="#b6d23d" vector-effect="non-scaling-stroke" d="
  M 263.63 80.98
  Q 263.40 81.06 263.17 81.15"
/>
<path stroke="#acdc78" vector-effect="non-scaling-stroke" d="
  M 263.17 81.15
  L 253.22 74.20
  A 2.52 2.52 0.0 0 0 250.35 74.19
  Q 245.96 77.21 241.77 80.36
  Q 241.76 80.37 241.74 80.37
  Q 241.61 80.37 241.49 80.36"
/>
<path stroke="#b6d23d" vector-effect="non-scaling-stroke" d="
  M 241.49 80.36
  Q 241.18 80.14 241.07 80.34"
/>
<path stroke="#3d831d" vector-effect="non-scaling-stroke" d="
  M 237.97 89.75
  Q 238.62 91.34 240.02 92.31
  A 1.80 1.76 4.9 0 1 240.59 92.97
  Q 241.84 95.38 243.56 97.22
  Q 243.92 97.62 244.45 97.70
  Q 245.55 97.89 246.47 98.53
  Q 246.89 98.82 247.37 98.95
  L 251.22 99.99
  Q 251.84 100.15 252.46 100.04
  L 257.97 99.03
  Q 258.49 98.93 258.90 98.59
  L 262.38 95.69
  A 2.04 1.79 -88.5 0 0 262.75 95.29
  L 267.06 89.19"
/>
<path stroke="#859a0e" vector-effect="non-scaling-stroke" d="
  M 236.95 82.72
  Q 236.74 83.06 236.22 83.32"
/>
<path stroke="#176b1c" vector-effect="non-scaling-stroke" d="
  M 236.22 83.32
  Q 234.63 85.08 235.35 88.01
  Q 235.71 89.46 237.66 90.51
  Q 238.11 90.75 238.28 91.23
  Q 238.48 91.80 238.04 92.16
  Q 237.59 92.52 237.95 92.98
  Q 238.88 94.17 239.71 95.44
  C 240.71 96.95 242.57 97.89 243.92 99.16
  Q 244.93 100.12 246.36 100.63
  Q 250.94 102.25 254.94 101.03
  Q 260.41 99.36 265.15 94.89
  Q 267.34 92.83 267.43 90.01
  Q 267.44 89.52 267.65 89.07
  Q 267.99 88.36 268.00 87.69"
/>
<path stroke="#f3e643" vector-effect="non-scaling-stroke" d="
  M 263.17 81.15
  Q 263.98 81.60 264.48 82.12
  Q 265.10 82.75 264.24 82.55
  L 263.29 82.32
  Q 262.76 82.19 262.71 82.73
  L 262.05 89.38
  Q 262.01 89.84 261.67 90.16
  Q 261.02 90.78 260.61 91.65
  A 1.82 1.76 -33.2 0 0 260.42 92.49
  Q 260.44 93.43 259.82 93.93"
/>
<path stroke="#a1bd49" vector-effect="non-scaling-stroke" d="
  M 259.82 93.93
  L 252.17 98.79
  A 0.65 0.64 -44.0 0 1 251.46 98.78
  L 242.40 92.74"
/>
<path stroke="#f3e643" vector-effect="non-scaling-stroke" d="
  M 242.40 92.74
  Q 241.36 88.05 241.92 83.34
  Q 242.00 82.69 241.40 82.43
  Q 240.68 82.12 239.74 82.70
  Q 239.65 82.76 239.56 82.69
  L 239.09 82.34
  A 0.24 0.24 0.0 0 1 239.10 81.95
  L 241.49 80.36"
/>
<path stroke="#7f7e7e" stroke-opacity="0.996" vector-effect="non-scaling-stroke" d="
  M 218.83 74.94
  C 220.05 79.40 220.88 85.28 215.25 85.40
  Q 212.49 85.46 209.66 85.50
  A 2.56 2.56 0.0 0 0 207.22 87.43
  Q 206.06 92.06 208.09 94.20"
/>
<path stroke="#7f7e7e" stroke-opacity="0.996" vector-effect="non-scaling-stroke" d="
  M 219.28 95.00
  Q 219.37 96.45 218.50 96.51
  Q 213.57 96.81 204.10 96.23"
/>
<path stroke="#7f7e7e" stroke-opacity="0.996" vector-effect="non-scaling-stroke" d="
  M 215.65 76.68
  Q 211.70 74.58 205.15 75.98"
/>
<path stroke="#7f7e7e" stroke-opacity="0.996" vector-effect="non-scaling-stroke" d="
  M 75.85 78.97
  Q 76.39 83.15 75.91 85.24
  C 75.11 88.65 72.27 88.21 69.72 88.48"
/>
<path stroke="#7f7e7e" stroke-opacity="0.996" vector-effect="non-scaling-stroke" d="
  M 72.52 79.89
  Q 70.50 77.83 67.26 78.67
  Q 66.78 78.79 66.77 79.29
  Q 66.62 86.89 66.96 94.51
  Q 67.02 95.89 64.97 96.00"
/>
<path stroke="#7f7e7e" stroke-opacity="0.996" vector-effect="non-scaling-stroke" d="
  M 82.15 77.52
  Q 80.95 85.93 81.76 93.99
  Q 81.98 96.09 79.68 96.04"
/>
<path stroke="#7f7e7e" stroke-opacity="0.996" vector-effect="non-scaling-stroke" d="
  M 122.85 77.82
  Q 122.57 78.79 120.99 78.59
  Q 119.08 78.34 117.26 78.89
  Q 116.77 79.04 116.51 79.49
  C 115.79 80.74 115.27 83.76 117.31 84.35"
/>
<path stroke="#7f7e7e" stroke-opacity="0.996" vector-effect="non-scaling-stroke" d="
  M 123.54 86.71
  Q 123.71 88.82 123.85 90.74
  C 124.28 96.86 118.79 95.61 114.95 95.97"
/>
<path stroke="#7f7e7e" stroke-opacity="0.996" vector-effect="non-scaling-stroke" d="
  M 120.63 88.58
  Q 119.20 86.73 115.18 87.14"
/>
<path stroke="#7f7e7e" stroke-opacity="0.996" vector-effect="non-scaling-stroke" d="
  M 162.22 77.86
  Q 161.77 79.90 160.20 79.61"
/>
<path stroke="#7f7e7e" stroke-opacity="0.996" vector-effect="non-scaling-stroke" d="
  M 130.29 79.68
  Q 129.77 80.40 130.08 80.88
  Q 130.26 81.15 130.72 81.21
  Q 131.12 81.25 131.49 81.20"
/>
<path stroke="#7f7e7e" stroke-opacity="0.996" vector-effect="non-scaling-stroke" d="
  M 133.58 82.21
  Q 133.58 82.49 133.42 82.66
  Q 133.27 82.82 133.04 82.83
  Q 131.73 82.85 130.52 82.98
  Q 130.01 83.03 130.01 83.54
  L 129.99 93.01
  Q 129.99 93.51 130.44 93.74
  Q 130.81 93.92 131.28 93.80"
/>
<path stroke="#7f7e7e" stroke-opacity="0.996" vector-effect="non-scaling-stroke" d="
  M 133.04 95.31
  Q 130.94 96.34 127.70 95.61"
/>
<path stroke="#7f7e7e" stroke-opacity="0.996" vector-effect="non-scaling-stroke" d="
  M 153.24 79.69
  Q 152.55 81.28 154.24 81.11"
/>
<path stroke="#7f7e7e" stroke-opacity="0.996" vector-effect="non-scaling-stroke" d="
  M 156.77 82.45
  Q 155.63 83.20 153.94 82.92
  A 0.81 0.80 -85.1 0 0 153.01 83.71
  Q 152.95 88.25 153.03 92.75
  Q 153.05 94.07 154.26 93.79"
/>
<path stroke="#7f7e7e" stroke-opacity="0.996" vector-effect="non-scaling-stroke" d="
  M 155.97 95.05
  Q 155.85 95.75 155.25 95.84
  Q 154.34 95.97 151.70 95.94"
/>
<path stroke="#7f7e7e" stroke-opacity="0.996" vector-effect="non-scaling-stroke" d="
  M 177.21 83.55
  C 177.81 87.53 179.45 95.80 172.74 95.95
  Q 170.48 96.00 168.00 95.76"
/>
<path stroke="#7f7e7e" stroke-opacity="0.996" vector-effect="non-scaling-stroke" d="
  M 96.04 83.31
  L 95.92 95.09
  A 0.65 0.65 0.0 0 1 95.27 95.73
  L 86.25 95.72"
/>
<path stroke="#7f7e7e" stroke-opacity="0.996" vector-effect="non-scaling-stroke" d="
  M 91.36 87.49
  Q 90.52 88.53 89.05 88.77
  Q 88.56 88.85 88.26 89.24
  Q 86.06 92.03 88.89 93.84"
/>
<path stroke="#7f7e7e" stroke-opacity="0.996" vector-effect="non-scaling-stroke" d="
  M 92.72 84.48
  Q 91.65 83.01 90.25 83.06
  Q 88.72 83.10 87.22 83.30"
/>
<path stroke="#7f7e7e" stroke-opacity="0.996" vector-effect="non-scaling-stroke" d="
  M 101.80 82.51
  Q 102.24 87.06 104.96 91.26"
/>
<path stroke="#7f7e7e" stroke-opacity="0.996" vector-effect="non-scaling-stroke" d="
  M 111.08 82.19
  L 102.50 102.90"
/>
<path stroke="#7f7e7e" stroke-opacity="0.996" vector-effect="non-scaling-stroke" d="
  M 146.58 83.33
  L 146.58 94.33
  A 1.42 1.42 0.0 0 1 145.13 95.76
  L 136.68 95.57"
/>
<path stroke="#7f7e7e" stroke-opacity="0.996" vector-effect="non-scaling-stroke" d="
  M 142.19 87.70
  L 139.26 88.94
  Q 138.82 89.13 138.55 89.54
  Q 136.85 92.15 139.23 93.60"
/>
<path stroke="#7f7e7e" stroke-opacity="0.996" vector-effect="non-scaling-stroke" d="
  M 143.28 84.43
  Q 142.34 83.30 141.49 83.18
  Q 139.58 82.90 137.74 83.26"
/>
<path stroke="#7f7e7e" stroke-opacity="0.996" vector-effect="non-scaling-stroke" d="
  M 162.45 81.82
  L 161.90 95.08
  A 0.86 0.84 78.6 0 1 161.42 95.82
  Q 160.92 96.05 160.14 96.07"
/>
<path stroke="#7f7e7e" stroke-opacity="0.996" vector-effect="non-scaling-stroke" d="
  M 192.81 83.09
  Q 192.75 89.46 192.80 94.87
  Q 192.80 95.91 190.97 95.99"
/>
<path stroke="#7f7e7e" stroke-opacity="0.996" vector-effect="non-scaling-stroke" d="
  M 189.66 84.45
  Q 187.63 82.17 184.43 83.42
  Q 184.00 83.59 184.00 84.05
  L 184.01 95.11
  Q 184.01 95.68 183.44 95.74
  L 181.45 95.93"
/>
<path stroke="#76c1ac" vector-effect="non-scaling-stroke" d="
  M 243.88 83.93
  A 3.80 1.52 -63.7 0 0 243.76 84.40"
/>
<path stroke="#7b99b4" vector-effect="non-scaling-stroke" d="
  M 243.76 84.40
  A 4.21 1.94 -75.1 0 0 243.64 84.98
  A 8.47 8.46 -73.1 0 0 248.49 94.06
  A 8.44 8.33 53.5 0 0 252.97 94.76
  A 8.47 8.45 8.4 0 0 259.77 89.72"
/>
<path stroke="#79d3b0" vector-effect="non-scaling-stroke" d="
  M 259.77 89.72
  A 8.47 8.47 0.0 0 0 252.55 77.90
  A 8.47 8.47 0.0 0 0 243.88 83.93"
/>
<path stroke="#0b7ce7" vector-effect="non-scaling-stroke" d="
  M 259.77 89.72
  Q 260.08 88.93 259.18 88.22"
/>
<path stroke="#06a4df" vector-effect="non-scaling-stroke" d="
  M 259.18 88.22
  Q 255.90 85.75 254.49 85.62
  Q 252.99 85.47 251.59 84.95
  Q 249.99 84.36 248.77 84.30
  Q 246.38 84.20 243.88 83.93"
/>
<path stroke="#086ae3" vector-effect="non-scaling-stroke" d="
  M 259.18 88.22
  Q 259.13 90.39 257.49 91.53
  Q 255.66 92.79 252.83 93.51
  Q 250.39 94.13 248.52 92.79
  Q 246.47 91.32 245.30 89.47
  Q 244.32 87.92 244.68 85.88
  Q 244.81 85.19 244.25 84.77
  L 243.76 84.40"
/>
<path stroke="#7f7e7e" stroke-opacity="0.996" vector-effect="non-scaling-stroke" d="
  M 173.88 84.30
  C 172.58 81.96 169.32 82.98 168.76 85.38
  Q 167.65 90.12 169.76 93.63"
/>
</g>
<path fill="#588a15" d="
  M 2.58 51.33
  L 2.70 28.66
  L 3.15 26.62
  Q 3.26 26.11 3.79 26.11
  Q 49.16 26.12 93.30 26.12
  Q 95.11 26.12 96.79 25.96
  A 0.43 0.42 87.1 0 0 97.17 25.53
  L 97.05 7.19
  Q 97.05 6.82 96.69 6.82
  L 5.08 6.64
  Q 3.29 6.63 3.04 4.87
  Q 2.85 3.58 2.72 2.72
  Q 2.47 0.97 4.22 0.97
  L 99.52 0.97
  A 3.05 3.05 0.0 0 1 102.57 4.03
  L 102.56 30.81
  A 0.91 0.91 0.0 0 1 101.80 31.71
  Q 100.47 31.95 99.11 31.95
  Q 56.85 32.04 15.18 31.90
  Q 12.31 31.89 9.37 31.42
  A 1.03 1.02 4.8 0 0 8.17 32.43
  L 8.11 56.17
  Q 8.11 56.90 7.40 57.08
  Q 5.48 57.55 3.80 56.99
  A 1.20 1.19 -1.0 0 1 3.05 56.27
  Q 2.20 53.94 2.58 51.33
  Z"
/>
<path fill="#fddb08" d="
  M 190.52 6.60
  Q 188.51 6.42 181.00 6.24
  Q 167.23 5.91 157.00 6.79
  L 157.08 56.67
  Q 157.08 57.28 156.47 57.28
  L 103.10 57.27
  Q 100.92 57.27 100.81 55.10
  L 100.74 53.73
  Q 100.63 51.59 102.77 51.60
  L 149.82 51.60
  Q 151.01 51.60 151.02 50.41
  L 151.08 6.08
  L 151.33 2.35
  L 151.56 1.50
  Q 151.69 1.00 152.20 1.00
  Q 178.76 0.98 204.41 0.98
  Q 206.10 0.98 207.02 3.17
  Q 207.15 3.49 207.19 3.87
  Q 207.49 6.66 204.69 6.65
  L 190.52 6.60
  Z"
/>
<path fill="#0d41ea" d="
  M 313.13 26.11
  Q 313.93 26.16 314.11 25.97
  Q 314.51 26.17 314.85 25.92
  Q 315.19 25.66 315.20 25.22
  L 315.23 7.05
  Q 315.24 6.19 314.38 6.19
  L 251.93 6.30
  L 250.25 6.53
  L 222.33 6.73
  Q 219.98 6.75 219.91 4.40
  L 219.88 3.59
  Q 219.81 0.98 222.41 0.98
  L 317.75 0.98
  A 2.27 2.27 0.0 0 1 320.02 3.25
  L 320.02 30.19
  Q 320.02 31.74 318.47 31.75
  Q 272.61 32.12 226.61 31.83
  Q 226.01 31.83 226.01 32.43
  L 225.99 51.04
  A 0.52 0.51 -90.0 0 0 226.50 51.56
  L 317.41 51.58
  Q 319.99 51.58 320.01 54.16
  L 320.02 55.38
  Q 320.03 57.21 318.20 57.23
  Q 292.10 57.57 267.57 57.09
  C 253.29 56.81 238.19 57.08 223.59 57.33
  Q 221.79 57.36 220.52 56.44
  Q 220.11 56.14 220.03 55.63
  Q 219.85 54.49 219.84 53.32
  Q 219.71 40.16 219.86 27.56
  A 1.46 1.46 0.0 0 1 221.32 26.12
  L 313.13 26.11
  Z"
/>
<path fill="#1b1c19" fill-opacity="0.329" d="
  M 151.33 2.35
  L 151.08 6.08
  Q 149.88 2.87 151.33 2.35
  Z"
/>
<path fill="#1b1c19" fill-opacity="0.329" d="
  M 190.52 6.60
  Q 189.60 7.37 188.64 7.89
  Q 187.77 8.37 186.51 8.40
  Q 172.49 8.80 158.49 8.58
  Q 158.37 8.58 158.37 8.46
  Q 158.37 8.44 158.37 8.41
  Q 158.37 8.36 158.42 8.36
  Q 175.36 8.42 186.50 8.30
  Q 187.34 8.29 188.12 7.69
  Q 188.57 7.34 188.01 7.36
  Q 172.48 7.80 157.00 6.79
  Q 167.23 5.91 181.00 6.24
  Q 188.51 6.42 190.52 6.60
  Z"
/>
<path fill="#1b1c19" fill-opacity="0.329" d="
  M 251.93 6.30
  L 314.38 6.19
  Q 315.24 6.19 315.23 7.05
  L 315.20 25.22
  Q 315.19 25.66 314.85 25.92
  Q 314.51 26.17 314.11 25.97
  L 313.98 9.70
  A 2.35 2.34 -0.1 0 0 311.63 7.37
  Q 284.95 7.38 258.98 7.35
  C 257.38 7.35 255.89 7.05 254.31 7.12
  Q 253.82 7.14 253.38 6.94
  L 251.93 6.30
  Z"
/>
<path fill="#1b1c19" fill-opacity="0.329" d="
  M 2.70 28.66
  L 2.58 51.33
  L 2.70 28.66
  Z"
/>
<path fill="#46ad54" d="
  M 263.76 74.69
  Q 263.80 75.91 264.87 76.88
  Q 265.23 77.21 265.44 77.64
  L 267.38 81.67
  Q 267.63 82.19 267.59 82.77
  Q 267.55 83.36 267.80 83.86
  C 268.36 84.96 268.18 86.52 268.00 87.69
  Q 268.10 86.26 267.74 84.99
  Q 267.43 83.91 266.15 82.98
  Q 264.80 82.01 263.63 80.98
  Q 262.42 79.73 261.39 78.44
  C 260.19 76.95 260.27 75.15 258.47 74.09
  Q 255.65 72.43 253.17 72.39
  Q 251.73 72.37 250.28 71.97
  C 247.73 71.27 245.80 73.24 244.53 75.14
  Q 244.20 75.63 243.67 75.89
  Q 241.87 76.75 241.88 78.90
  Q 241.89 79.44 241.53 79.83
  L 241.07 80.34
  L 236.95 82.72
  Q 237.02 81.45 237.61 80.29
  Q 238.23 79.06 238.53 78.03
  Q 239.02 76.38 239.96 75.71
  Q 242.62 73.82 244.91 71.21
  A 16.87 16.86 -34.5 0 1 263.76 74.69
  Z"
/>
<path fill="#0d5913" d="
  M 244.91 71.21
  Q 242.62 73.82 239.96 75.71
  Q 239.02 76.38 238.53 78.03
  Q 238.23 79.06 237.61 80.29
  Q 237.02 81.45 236.95 82.72
  Q 236.74 83.06 236.22 83.32
  Q 234.63 85.08 235.35 88.01
  Q 235.71 89.46 237.66 90.51
  Q 238.11 90.75 238.28 91.23
  Q 238.48 91.80 238.04 92.16
  Q 237.59 92.52 237.95 92.98
  Q 238.88 94.17 239.71 95.44
  C 240.71 96.95 242.57 97.89 243.92 99.16
  Q 244.93 100.12 246.36 100.63
  Q 250.94 102.25 254.94 101.03
  Q 260.41 99.36 265.15 94.89
  Q 267.34 92.83 267.43 90.01
  Q 267.44 89.52 267.65 89.07
  Q 267.99 88.36 268.00 87.69
  C 268.18 86.52 268.36 84.96 267.80 83.86
  Q 267.55 83.36 267.59 82.77
  Q 267.63 82.19 267.38 81.67
  L 265.44 77.64
  Q 265.23 77.21 264.87 76.88
  Q 263.80 75.91 263.76 74.69
  A 16.88 16.88 0.0 0 1 268.04 91.27
  A 16.90 16.87 87.6 0 1 257.87 102.36
  A 16.88 16.86 47.8 0 1 244.26 101.69
  A 16.86 16.85 4.5 0 1 235.75 91.75
  A 16.91 16.89 -38.6 0 1 237.30 78.00
  A 16.89 16.89 0.0 0 1 244.91 71.21
  Z"
/>
<path fill="#6fc872" d="
  M 263.63 80.98
  Q 263.40 81.06 263.17 81.15
  L 253.22 74.20
  A 2.52 2.52 0.0 0 0 250.35 74.19
  Q 245.96 77.21 241.77 80.36
  Q 241.76 80.37 241.74 80.37
  Q 241.61 80.37 241.49 80.36
  Q 241.18 80.14 241.07 80.34
  L 241.53 79.83
  Q 241.89 79.44 241.88 78.90
  Q 241.87 76.75 243.67 75.89
  Q 244.20 75.63 244.53 75.14
  C 245.80 73.24 247.73 71.27 250.28 71.97
  Q 251.73 72.37 253.17 72.39
  Q 255.65 72.43 258.47 74.09
  C 260.27 75.15 260.19 76.95 261.39 78.44
  Q 262.42 79.73 263.63 80.98
  Z"
/>
<path fill="#fcfcfb" fill-opacity="0.996" d="
  M 218.83 74.94
  C 220.05 79.40 220.88 85.28 215.25 85.40
  Q 212.49 85.46 209.66 85.50
  A 2.56 2.56 0.0 0 0 207.22 87.43
  Q 206.06 92.06 208.09 94.20
  Q 213.38 94.06 217.75 94.12
  Q 219.09 94.14 219.28 95.00
  Q 219.37 96.45 218.50 96.51
  Q 213.57 96.81 204.10 96.23
  Q 202.90 91.40 203.72 87.49
  C 204.74 82.65 209.52 83.08 213.32 83.21
  A 2.57 2.56 -72.1 0 0 215.57 82.05
  Q 216.88 80.07 215.65 76.68
  Q 211.70 74.58 205.15 75.98
  Q 203.63 74.82 204.32 74.00
  Q 204.70 73.54 205.80 73.38
  Q 213.68 72.27 218.83 74.94
  Z"
/>
<path fill="#e9f07d" d="
  M 263.17 81.15
  Q 263.98 81.60 264.48 82.12
  Q 265.10 82.75 264.24 82.55
  L 263.29 82.32
  Q 262.76 82.19 262.71 82.73
  L 262.05 89.38
  Q 262.01 89.84 261.67 90.16
  Q 261.02 90.78 260.61 91.65
  A 1.82 1.76 -33.2 0 0 260.42 92.49
  Q 260.44 93.43 259.82 93.93
  L 252.17 98.79
  A 0.65 0.64 -44.0 0 1 251.46 98.78
  L 242.40 92.74
  Q 241.36 88.05 241.92 83.34
  Q 242.00 82.69 241.40 82.43
  Q 240.68 82.12 239.74 82.70
  Q 239.65 82.76 239.56 82.69
  L 239.09 82.34
  A 0.24 0.24 0.0 0 1 239.10 81.95
  L 241.49 80.36
  Q 241.61 80.37 241.74 80.37
  Q 241.76 80.37 241.77 80.36
  Q 245.96 77.21 250.35 74.19
  A 2.52 2.52 0.0 0 1 253.22 74.20
  L 263.17 81.15
  Z
  M 243.88 83.93
  A 3.80 1.52 -63.7 0 0 243.76 84.40
  A 4.21 1.94 -75.1 0 0 243.64 84.98
  A 8.47 8.46 -73.1 0 0 248.49 94.06
  A 8.44 8.33 53.5 0 0 252.97 94.76
  A 8.47 8.45 8.4 0 0 259.77 89.72
  A 8.47 8.47 0.0 0 0 252.55 77.90
  A 8.47 8.47 0.0 0 0 243.88 83.93
  Z"
/>
<path fill="#010000" fill-opacity="0.996" d="
  M 215.65 76.68
  Q 209.90 77.26 206.50 77.00
  Q 205.88 76.96 205.15 75.98
  Q 211.70 74.58 215.65 76.68
  Z"
/>
<path fill="#010000" fill-opacity="0.996" d="
  M 218.83 74.94
  Q 220.58 77.08 220.88 79.06
  Q 221.13 80.67 220.84 82.84
  C 220.14 88.06 214.21 86.49 210.74 86.80
  A 2.41 2.41 0.0 0 0 208.56 88.98
  L 208.09 94.20
  Q 206.06 92.06 207.22 87.43
  A 2.56 2.56 0.0 0 1 209.66 85.50
  Q 212.49 85.46 215.25 85.40
  C 220.88 85.28 220.05 79.40 218.83 74.94
  Z"
/>
<path fill="#fcfcfb" fill-opacity="0.996" d="
  M 75.85 78.97
  Q 76.39 83.15 75.91 85.24
  C 75.11 88.65 72.27 88.21 69.72 88.48
  Q 68.27 88.25 68.53 87.19
  A 0.64 0.64 0.0 0 1 69.23 86.72
  C 73.69 87.34 73.35 82.70 72.52 79.89
  Q 70.50 77.83 67.26 78.67
  Q 66.78 78.79 66.77 79.29
  Q 66.62 86.89 66.96 94.51
  Q 67.02 95.89 64.97 96.00
  L 64.31 95.80
  Q 63.75 95.62 63.75 95.04
  L 63.75 77.44
  Q 63.75 76.83 64.36 76.79
  Q 68.72 76.51 72.24 76.86
  Q 74.25 77.05 75.85 78.97
  Z"
/>
<path fill="#fcfcfb" fill-opacity="0.996" d="
  M 82.15 77.52
  Q 80.95 85.93 81.76 93.99
  Q 81.98 96.09 79.68 96.04
  Q 79.08 95.97 78.76 95.66
  Q 78.47 95.37 78.49 94.97
  Q 78.82 86.26 78.56 77.46
  Q 78.54 76.97 79.02 76.82
  Q 80.53 76.35 82.15 77.52
  Z"
/>
<path fill="#fcfcfb" fill-opacity="0.996" d="
  M 122.85 77.82
  Q 122.57 78.79 120.99 78.59
  Q 119.08 78.34 117.26 78.89
  Q 116.77 79.04 116.51 79.49
  C 115.79 80.74 115.27 83.76 117.31 84.35
  C 119.72 84.85 121.77 84.43 123.54 86.71
  Q 123.71 88.82 123.85 90.74
  C 124.28 96.86 118.79 95.61 114.95 95.97
  Q 114.02 96.01 113.64 95.21
  A 0.88 0.87 83.0 0 1 114.60 93.98
  Q 117.01 94.45 119.57 93.68
  Q 120.06 93.54 120.29 93.09
  Q 121.26 91.16 120.63 88.58
  Q 119.20 86.73 115.18 87.14
  Q 113.36 85.64 113.14 84.37
  C 112.63 81.41 112.78 77.40 116.55 76.90
  Q 119.66 76.49 122.13 76.87
  Q 122.65 76.95 122.85 77.82
  Z"
/>
<path fill="#fcfcfb" fill-opacity="0.996" d="
  M 162.22 77.86
  Q 161.77 79.90 160.20 79.61
  Q 158.44 79.24 159.07 77.26
  Q 159.23 76.77 159.74 76.70
  Q 162.01 76.39 162.22 77.86
  Z"
/>
<path fill="#010000" fill-opacity="0.996" d="
  M 82.15 77.52
  Q 83.23 87.06 82.80 96.47
  Q 82.77 96.98 82.28 97.11
  Q 80.04 97.72 79.68 96.04
  Q 81.98 96.09 81.76 93.99
  Q 80.95 85.93 82.15 77.52
  Z"
/>
<path fill="#010000" fill-opacity="0.996" d="
  M 122.85 77.82
  Q 123.64 78.12 124.00 78.76
  A 0.75 0.75 0.0 0 1 123.28 79.87
  C 119.80 79.56 116.37 79.40 117.31 84.35
  C 115.27 83.76 115.79 80.74 116.51 79.49
  Q 116.77 79.04 117.26 78.89
  Q 119.08 78.34 120.99 78.59
  Q 122.57 78.79 122.85 77.82
  Z"
/>
<path fill="#09b6e3" d="
  M 259.77 89.72
  Q 260.08 88.93 259.18 88.22
  Q 255.90 85.75 254.49 85.62
  Q 252.99 85.47 251.59 84.95
  Q 249.99 84.36 248.77 84.30
  Q 246.38 84.20 243.88 83.93
  A 8.47 8.47 0.0 0 1 252.55 77.90
  A 8.47 8.47 0.0 0 1 259.77 89.72
  Z"
/>
<path fill="#010000" fill-opacity="0.996" d="
  M 162.22 77.86
  Q 163.63 78.14 163.17 79.94
  Q 163.03 80.50 162.47 80.65
  Q 160.61 81.14 160.20 79.61
  Q 161.77 79.90 162.22 77.86
  Z"
/>
<path fill="#010000" fill-opacity="0.996" d="
  M 72.52 79.89
  L 68.69 79.78
  A 0.65 0.65 0.0 0 0 68.02 80.43
  L 68.02 96.46
  Q 68.02 96.94 67.56 97.07
  Q 65.36 97.68 64.97 96.00
  Q 67.02 95.89 66.96 94.51
  Q 66.62 86.89 66.77 79.29
  Q 66.78 78.79 67.26 78.67
  Q 70.50 77.83 72.52 79.89
  Z"
/>
<path fill="#fcfcfb" fill-opacity="0.996" d="
  M 130.29 79.68
  Q 129.77 80.40 130.08 80.88
  Q 130.26 81.15 130.72 81.21
  Q 131.12 81.25 131.49 81.20
  Q 133.49 80.95 133.58 82.21
  Q 133.58 82.49 133.42 82.66
  Q 133.27 82.82 133.04 82.83
  Q 131.73 82.85 130.52 82.98
  Q 130.01 83.03 130.01 83.54
  L 129.99 93.01
  Q 129.99 93.51 130.44 93.74
  Q 130.81 93.92 131.28 93.80
  Q 132.66 94.09 133.04 95.31
  Q 130.94 96.34 127.70 95.61
  L 127.00 79.28
  Q 126.98 78.76 127.48 78.62
  Q 129.83 77.96 130.29 79.68
  Z"
/>
<path fill="#fcfcfb" fill-opacity="0.996" d="
  M 153.24 79.69
  Q 152.55 81.28 154.24 81.11
  Q 156.22 80.85 156.77 82.45
  Q 155.63 83.20 153.94 82.92
  A 0.81 0.80 -85.1 0 0 153.01 83.71
  Q 152.95 88.25 153.03 92.75
  Q 153.05 94.07 154.26 93.79
  Q 155.36 94.12 155.97 95.05
  Q 155.85 95.75 155.25 95.84
  Q 154.34 95.97 151.70 95.94
  Q 151.02 95.58 150.39 94.81
  A 1.61 1.56 -65.7 0 1 150.04 93.84
  L 149.98 79.23
  Q 149.98 78.64 150.57 78.53
  Q 152.97 78.09 153.24 79.69
  Z"
/>
<path fill="#010000" fill-opacity="0.996" d="
  M 75.85 78.97
  Q 78.64 82.84 76.70 87.68
  C 75.88 89.71 72.84 89.68 70.94 89.72
  A 1.02 1.00 -20.2 0 1 70.14 89.36
  Q 69.85 89.01 69.72 88.48
  C 72.27 88.21 75.11 88.65 75.91 85.24
  Q 76.39 83.15 75.85 78.97
  Z"
/>
<path fill="#010000" fill-opacity="0.996" d="
  M 130.29 79.68
  Q 131.19 79.75 131.49 81.20
  Q 131.12 81.25 130.72 81.21
  Q 130.26 81.15 130.08 80.88
  Q 129.77 80.40 130.29 79.68
  Z"
/>
<path fill="#010000" fill-opacity="0.996" d="
  M 153.24 79.69
  Q 154.37 79.77 154.24 81.11
  Q 152.55 81.28 153.24 79.69
  Z"
/>
<path fill="#fddb08" d="
  M 241.07 80.34
  Q 241.18 80.14 241.49 80.36
  L 239.10 81.95
  A 0.24 0.24 0.0 0 0 239.09 82.34
  L 239.56 82.69
  Q 239.65 82.76 239.74 82.70
  Q 240.68 82.12 241.40 82.43
  Q 242.00 82.69 241.92 83.34
  Q 241.36 88.05 242.40 92.74
  L 237.97 89.75
  Q 234.65 88.04 236.22 83.32
  Q 236.74 83.06 236.95 82.72
  L 241.07 80.34
  Z"
/>
<path fill="#fcfcfb" fill-opacity="0.996" d="
  M 177.21 83.55
  C 177.81 87.53 179.45 95.80 172.74 95.95
  Q 170.48 96.00 168.00 95.76
  Q 165.65 94.11 165.36 91.24
  C 165.07 88.31 164.51 82.57 168.40 81.53
  C 171.42 80.72 175.23 80.78 177.21 83.55
  Z
  M 169.76 93.63
  Q 172.43 94.73 173.51 93.46
  C 175.27 91.39 174.76 86.20 173.88 84.30
  C 172.58 81.96 169.32 82.98 168.76 85.38
  Q 167.65 90.12 169.76 93.63
  Z"
/>
<path fill="#fddb08" d="
  M 263.17 81.15
  Q 263.40 81.06 263.63 80.98
  Q 264.80 82.01 266.15 82.98
  Q 267.43 83.91 267.74 84.99
  Q 268.10 86.26 268.00 87.69
  L 267.06 89.19
  L 259.82 93.93
  Q 260.44 93.43 260.42 92.49
  A 1.82 1.76 -33.2 0 1 260.61 91.65
  Q 261.02 90.78 261.67 90.16
  Q 262.01 89.84 262.05 89.38
  L 262.71 82.73
  Q 262.76 82.19 263.29 82.32
  L 264.24 82.55
  Q 265.10 82.75 264.48 82.12
  Q 263.98 81.60 263.17 81.15
  Z"
/>
<path fill="#fcfcfb" fill-opacity="0.996" d="
  M 96.04 83.31
  L 95.92 95.09
  A 0.65 0.65 0.0 0 1 95.27 95.73
  L 86.25 95.72
  Q 84.42 93.93 84.32 91.60
  Q 84.23 89.25 85.91 87.76
  Q 88.09 85.83 91.36 87.49
  Q 90.52 88.53 89.05 88.77
  Q 88.56 88.85 88.26 89.24
  Q 86.06 92.03 88.89 93.84
  Q 90.79 94.27 92.49 93.84
  Q 92.99 93.71 92.98 93.20
  L 92.72 84.48
  Q 91.65 83.01 90.25 83.06
  Q 88.72 83.10 87.22 83.30
  Q 86.56 83.30 86.23 82.83
  A 0.96 0.96 0.0 0 1 86.84 81.34
  Q 92.34 80.27 96.04 83.31
  Z"
/>
<path fill="#fcfcfb" fill-opacity="0.996" d="
  M 101.80 82.51
  Q 102.24 87.06 104.96 91.26
  L 108.23 82.23
  A 1.46 1.45 7.9 0 1 109.51 81.27
  Q 111.28 81.17 111.08 82.19
  L 102.50 102.90
  Q 101.37 103.16 100.57 102.86
  Q 100.12 102.69 100.30 102.25
  L 102.83 96.03
  Q 103.04 95.52 102.84 95.01
  L 97.83 81.98
  Q 97.65 81.50 98.14 81.36
  Q 100.74 80.59 101.80 82.51
  Z"
/>
<path fill="#fcfcfb" fill-opacity="0.996" d="
  M 146.58 83.33
  L 146.58 94.33
  A 1.42 1.42 0.0 0 1 145.13 95.76
  L 136.68 95.57
  Q 133.91 92.72 135.07 89.77
  Q 137.04 84.78 142.19 87.70
  L 139.26 88.94
  Q 138.82 89.13 138.55 89.54
  Q 136.85 92.15 139.23 93.60
  Q 141.09 94.32 143.01 93.88
  A 0.64 0.63 83.5 0 0 143.51 93.24
  L 143.28 84.43
  Q 142.34 83.30 141.49 83.18
  Q 139.58 82.90 137.74 83.26
  Q 136.43 83.10 136.79 81.89
  Q 136.94 81.40 137.45 81.36
  Q 139.99 81.16 142.51 81.30
  Q 144.36 81.39 146.58 83.33
  Z"
/>
<path fill="#fcfcfb" fill-opacity="0.996" d="
  M 162.45 81.82
  L 161.90 95.08
  A 0.86 0.84 78.6 0 1 161.42 95.82
  Q 160.92 96.05 160.14 96.07
  Q 159.78 96.00 159.39 95.73
  Q 158.99 95.46 158.99 94.99
  L 159.00 81.93
  Q 159.00 81.42 159.49 81.29
  Q 160.69 80.98 162.45 81.82
  Z"
/>
<path fill="#fcfcfb" fill-opacity="0.996" d="
  M 192.81 83.09
  Q 192.75 89.46 192.80 94.87
  Q 192.80 95.91 190.97 95.99
  L 190.29 95.79
  Q 189.80 95.65 189.80 95.15
  L 189.66 84.45
  Q 187.63 82.17 184.43 83.42
  Q 184.00 83.59 184.00 84.05
  L 184.01 95.11
  Q 184.01 95.68 183.44 95.74
  L 181.45 95.93
  L 181.15 81.95
  Q 181.14 81.44 181.64 81.36
  Q 188.30 80.25 192.81 83.09
  Z"
/>
<path fill="#010000" fill-opacity="0.996" d="
  M 162.45 81.82
  Q 163.84 88.95 163.27 96.46
  Q 163.24 96.96 162.75 97.09
  Q 160.49 97.71 160.14 96.07
  Q 160.92 96.05 161.42 95.82
  A 0.86 0.84 78.6 0 0 161.90 95.08
  L 162.45 81.82
  Z"
/>
<path fill="#010000" fill-opacity="0.996" d="
  M 111.08 82.19
  Q 112.54 82.46 112.36 82.91
  Q 108.45 92.59 104.54 102.26
  Q 104.10 103.37 102.50 102.90
  L 111.08 82.19
  Z"
/>
<path fill="#010000" fill-opacity="0.996" d="
  M 133.58 82.21
  Q 134.38 82.37 134.65 82.84
  Q 135.01 83.43 134.58 83.97
  A 0.76 0.74 19.4 0 1 133.97 84.25
  L 132.03 84.23
  Q 131.29 84.22 131.29 84.96
  L 131.28 93.80
  Q 130.81 93.92 130.44 93.74
  Q 129.99 93.51 129.99 93.01
  L 130.01 83.54
  Q 130.01 83.03 130.52 82.98
  Q 131.73 82.85 133.04 82.83
  Q 133.27 82.82 133.42 82.66
  Q 133.58 82.49 133.58 82.21
  Z"
/>
<path fill="#010000" fill-opacity="0.996" d="
  M 156.77 82.45
  Q 157.39 82.39 157.65 82.86
  Q 158.00 83.49 157.45 83.94
  Q 156.99 84.33 156.35 84.25
  Q 155.55 84.15 154.85 84.30
  Q 154.28 84.42 154.28 85.00
  L 154.26 93.79
  Q 153.05 94.07 153.03 92.75
  Q 152.95 88.25 153.01 83.71
  A 0.81 0.80 -85.1 0 1 153.94 82.92
  Q 155.63 83.20 156.77 82.45
  Z"
/>
<path fill="#010000" fill-opacity="0.996" d="
  M 101.80 82.51
  Q 104.18 86.21 104.96 91.26
  Q 102.24 87.06 101.80 82.51
  Z"
/>
<path fill="#010000" fill-opacity="0.996" d="
  M 92.72 84.48
  Q 90.52 84.36 89.01 84.56
  Q 87.59 84.74 87.22 83.30
  Q 88.72 83.10 90.25 83.06
  Q 91.65 83.01 92.72 84.48
  Z"
/>
<path fill="#010000" fill-opacity="0.996" d="
  M 143.28 84.43
  L 138.99 84.45
  A 0.92 0.91 74.0 0 1 138.21 84.01
  L 137.74 83.26
  Q 139.58 82.90 141.49 83.18
  Q 142.34 83.30 143.28 84.43
  Z"
/>
<path fill="#010000" fill-opacity="0.996" d="
  M 173.88 84.30
  Q 170.06 83.91 169.93 87.75
  Q 169.84 90.59 169.76 93.63
  Q 167.65 90.12 168.76 85.38
  C 169.32 82.98 172.58 81.96 173.88 84.30
  Z"
/>
<path fill="#010000" fill-opacity="0.996" d="
  M 189.66 84.45
  L 185.74 84.52
  A 0.44 0.44 0.0 0 0 185.31 84.96
  L 185.32 96.47
  Q 185.32 96.98 184.83 97.14
  Q 183.27 97.63 181.45 95.93
  L 183.44 95.74
  Q 184.01 95.68 184.01 95.11
  L 184.00 84.05
  Q 184.00 83.59 184.43 83.42
  Q 187.63 82.17 189.66 84.45
  Z"
/>
<path fill="#010000" fill-opacity="0.996" d="
  M 146.58 83.33
  Q 148.55 89.09 147.72 96.38
  Q 147.67 96.88 147.17 96.97
  Q 140.93 98.04 136.68 95.57
  L 145.13 95.76
  A 1.42 1.42 0.0 0 0 146.58 94.33
  L 146.58 83.33
  Z"
/>
<path fill="#217c25" d="
  M 236.22 83.32
  Q 234.65 88.04 237.97 89.75
  Q 238.62 91.34 240.02 92.31
  A 1.80 1.76 4.9 0 1 240.59 92.97
  Q 241.84 95.38 243.56 97.22
  Q 243.92 97.62 244.45 97.70
  Q 245.55 97.89 246.47 98.53
  Q 246.89 98.82 247.37 98.95
  L 251.22 99.99
  Q 251.84 100.15 252.46 100.04
  L 257.97 99.03
  Q 258.49 98.93 258.90 98.59
  L 262.38 95.69
  A 2.04 1.79 -88.5 0 0 262.75 95.29
  L 267.06 89.19
  L 268.00 87.69
  Q 267.99 88.36 267.65 89.07
  Q 267.44 89.52 267.43 90.01
  Q 267.34 92.83 265.15 94.89
  Q 260.41 99.36 254.94 101.03
  Q 250.94 102.25 246.36 100.63
  Q 244.93 100.12 243.92 99.16
  C 242.57 97.89 240.71 96.95 239.71 95.44
  Q 238.88 94.17 237.95 92.98
  Q 237.59 92.52 238.04 92.16
  Q 238.48 91.80 238.28 91.23
  Q 238.11 90.75 237.66 90.51
  Q 235.71 89.46 235.35 88.01
  Q 234.63 85.08 236.22 83.32
  Z"
/>
<path fill="#010000" fill-opacity="0.996" d="
  M 96.04 83.31
  Q 98.02 89.11 97.22 96.42
  Q 97.16 96.92 96.67 97.00
  Q 90.74 97.96 86.25 95.72
  L 95.27 95.73
  A 0.65 0.65 0.0 0 0 95.92 95.09
  L 96.04 83.31
  Z"
/>
<path fill="#010000" fill-opacity="0.996" d="
  M 177.21 83.55
  C 179.34 85.30 179.34 90.01 179.04 92.50
  C 178.39 97.93 171.32 98.55 168.00 95.76
  Q 170.48 96.00 172.74 95.95
  C 179.45 95.80 177.81 87.53 177.21 83.55
  Z"
/>
<path fill="#010000" fill-opacity="0.996" d="
  M 192.81 83.09
  Q 194.75 89.13 194.09 96.47
  Q 194.04 96.98 193.55 97.10
  Q 191.36 97.66 190.97 95.99
  Q 192.80 95.91 192.80 94.87
  Q 192.75 89.46 192.81 83.09
  Z"
/>
<path fill="#0292db" d="
  M 259.18 88.22
  Q 259.13 90.39 257.49 91.53
  Q 255.66 92.79 252.83 93.51
  Q 250.39 94.13 248.52 92.79
  Q 246.47 91.32 245.30 89.47
  Q 244.32 87.92 244.68 85.88
  Q 244.81 85.19 244.25 84.77
  L 243.76 84.40
  A 3.80 1.52 -63.7 0 1 243.88 83.93
  Q 246.38 84.20 248.77 84.30
  Q 249.99 84.36 251.59 84.95
  Q 252.99 85.47 254.49 85.62
  Q 255.90 85.75 259.18 88.22
  Z"
/>
<path fill="#0d41ea" d="
  M 243.76 84.40
  L 244.25 84.77
  Q 244.81 85.19 244.68 85.88
  Q 244.32 87.92 245.30 89.47
  Q 246.47 91.32 248.52 92.79
  Q 250.39 94.13 252.83 93.51
  Q 255.66 92.79 257.49 91.53
  Q 259.13 90.39 259.18 88.22
  Q 260.08 88.93 259.77 89.72
  A 8.47 8.45 8.4 0 1 252.97 94.76
  A 8.44 8.33 53.5 0 1 248.49 94.06
  A 8.47 8.46 -73.1 0 1 243.64 84.98
  A 4.21 1.94 -75.1 0 1 243.76 84.40
  Z"
/>
<path fill="#010000" fill-opacity="0.996" d="
  M 123.54 86.71
  Q 125.85 89.47 124.71 94.02
  Q 124.15 96.21 122.79 96.67
  Q 120.08 97.59 115.72 97.01
  A 0.83 0.83 0.0 0 1 115.05 96.49
  Q 114.95 96.25 114.95 95.97
  C 118.79 95.61 124.28 96.86 123.85 90.74
  Q 123.71 88.82 123.54 86.71
  Z"
/>
<path fill="#010000" fill-opacity="0.996" d="
  M 115.18 87.14
  Q 119.20 86.73 120.63 88.58
  Q 116.93 89.03 115.18 87.14
  Z"
/>
<path fill="#010000" fill-opacity="0.996" d="
  M 91.36 87.49
  Q 92.21 88.28 92.37 88.89
  Q 92.51 89.43 91.98 89.60
  C 91.26 89.83 90.55 89.67 89.88 90.08
  Q 88.18 91.14 88.89 93.84
  Q 86.06 92.03 88.26 89.24
  Q 88.56 88.85 89.05 88.77
  Q 90.52 88.53 91.36 87.49
  Z"
/>
<path fill="#010000" fill-opacity="0.996" d="
  M 142.19 87.70
  Q 142.83 88.31 142.95 88.80
  Q 143.07 89.34 142.53 89.42
  Q 138.77 90.00 139.23 93.60
  Q 136.85 92.15 138.55 89.54
  Q 138.82 89.13 139.26 88.94
  L 142.19 87.70
  Z"
/>
<path fill="#588a15" d="
  M 267.06 89.19
  L 262.75 95.29
  A 2.04 1.79 -88.5 0 1 262.38 95.69
  L 258.90 98.59
  Q 258.49 98.93 257.97 99.03
  L 252.46 100.04
  Q 251.84 100.15 251.22 99.99
  L 247.37 98.95
  Q 246.89 98.82 246.47 98.53
  Q 245.55 97.89 244.45 97.70
  Q 243.92 97.62 243.56 97.22
  Q 241.84 95.38 240.59 92.97
  A 1.80 1.76 4.9 0 0 240.02 92.31
  Q 238.62 91.34 237.97 89.75
  L 242.40 92.74
  L 251.46 98.78
  A 0.65 0.64 -44.0 0 0 252.17 98.79
  L 259.82 93.93
  L 267.06 89.19
  Z"
/>
<path fill="#010000" fill-opacity="0.996" d="
  M 155.97 95.05
  Q 157.01 95.53 157.03 96.42
  Q 157.05 96.95 156.52 97.02
  C 154.96 97.22 152.70 97.62 151.70 95.94
  Q 154.34 95.97 155.25 95.84
  Q 155.85 95.75 155.97 95.05
  Z"
/>
<path fill="#010000" fill-opacity="0.996" d="
  M 219.28 95.00
  Q 220.08 95.37 220.47 96.03
  A 1.14 1.14 0.0 0 1 219.48 97.74
  Q 213.12 97.75 206.50 97.61
  Q 205.68 97.59 204.10 96.23
  Q 213.57 96.81 218.50 96.51
  Q 219.37 96.45 219.28 95.00
  Z"
/>
<path fill="#010000" fill-opacity="0.996" d="
  M 133.04 95.31
  Q 134.03 95.27 134.08 96.22
  Q 134.11 96.76 133.62 96.97
  Q 131.21 98.06 127.70 95.61
  Q 130.94 96.34 133.04 95.31
  Z"
/>
</svg>
