<?xml version="1.0" encoding="UTF-8" standalone="no"?>
<!DOCTYPE svg PUBLIC "-//W3C//DTD SVG 1.1//EN" "http://www.w3.org/Graphics/SVG/1.1/DTD/svg11.dtd">
<svg xmlns="http://www.w3.org/2000/svg" version="1.1" viewBox="0.00 0.00 1469.00 649.00">
<g stroke-width="2.00" fill="none" stroke-linecap="butt">
<path stroke="#d8d8d8" vector-effect="non-scaling-stroke" d="
  M 1418.29 218.12
  C 1377.13 163.92 1318.61 129.27 1256.37 101.94
  C 1143.10 52.20 1020.31 27.09 896.59 16.50
  Q 832.81 11.04 769.00 9.69
  C 754.64 9.39 739.19 9.51 724.49 9.49
  Q 713.09 9.48 704.50 9.67
  Q 564.06 12.83 429.25 39.26
  Q 376.89 49.53 322.73 65.75
  Q 314.78 68.13 311.04 68.37
  C 303.21 68.86 295.84 66.57 289.58 62.32
  C 281.77 57.02 273.36 53.13 264.22 51.18
  C 225.41 42.91 187.81 68.85 182.17 107.89
  Q 181.08 115.48 179.87 118.06
  Q 177.24 123.63 171.55 126.71
  Q 128.79 149.79 94.81 178.95
  C 71.39 199.04 50.14 220.82 36.54 247.03
  Q 7.37 303.28 26.02 364.02
  C 31.10 380.56 39.25 396.17 49.25 410.86
  Q 71.88 444.08 102.07 465.38
  Q 113.85 473.69 115.13 487.81
  Q 115.44 491.26 114.97 494.49
  C 113.91 501.89 114.71 509.44 121.83 512.95
  Q 129.56 516.76 148.79 525.06
  Q 164.23 531.72 178.00 533.99
  C 182.45 534.73 186.77 534.72 191.15 534.86
  C 216.85 535.69 241.38 543.53 266.01 552.34
  C 373.76 590.91 486.15 610.99 602.18 619.27
  Q 658.61 623.29 723.06 624.12
  Q 735.79 624.28 749.25 624.09
  C 815.34 623.16 879.54 618.18 944.74 610.04
  C 1028.99 599.52 1111.96 581.51 1191.64 553.69
  Q 1201.25 550.34 1208.26 557.88
  C 1218.14 568.51 1230.61 570.19 1243.98 565.80
  Q 1264.91 558.92 1262.94 536.15
  C 1262.21 527.67 1267.02 523.04 1274.22 519.61
  C 1321.84 496.94 1366.43 466.93 1403.08 428.96
  Q 1410.51 421.26 1416.35 413.93
  C 1440.63 383.45 1453.86 346.49 1452.04 307.55
  C 1450.54 275.26 1438.21 244.34 1418.29 218.12"
/>
<path stroke="#f58d91" vector-effect="non-scaling-stroke" d="
  M 1400.87 366.54
  C 1412.08 344.94 1417.38 320.74 1414.74 296.60
  C 1410.38 256.59 1386.36 220.87 1356.66 194.03
  Q 1336.12 175.48 1309.66 158.52
  C 1270.51 133.44 1228.35 114.66 1184.32 99.73
  Q 1099.20 70.87 1006.54 54.78
  Q 881.39 33.07 753.28 34.55
  Q 744.99 34.64 736.57 34.74
  C 679.19 35.41 621.70 38.21 564.34 43.87
  C 487.13 51.49 410.44 65.43 335.73 86.76
  C 328.11 88.94 323.38 92.25 323.79 100.97
  Q 324.13 108.33 325.07 116.49
  C 325.81 122.89 327.97 125.49 334.69 123.42
  Q 379.38 109.59 424.21 100.05
  Q 559.13 71.34 697.63 67.90
  C 703.73 67.75 709.70 67.49 715.80 67.53
  C 722.82 67.58 730.02 67.26 737.09 67.29
  Q 752.46 67.35 768.06 67.64
  Q 873.79 69.61 975.98 84.82
  C 1060.96 97.47 1145.19 119.35 1223.77 152.53
  C 1262.61 168.93 1298.89 189.32 1329.87 216.86
  C 1366.77 249.66 1393.26 292.28 1373.66 342.28
  C 1365.63 362.76 1351.10 380.84 1334.78 396.25
  Q 1308.57 420.99 1276.87 438.89
  Q 1265.69 445.20 1253.65 451.04
  C 1249.36 453.13 1243.23 456.67 1243.46 462.21
  C 1243.71 468.39 1250.08 473.03 1253.41 477.72
  C 1256.13 481.55 1258.38 488.35 1264.68 485.16
  Q 1294.38 470.09 1320.47 452.57
  C 1353.72 430.24 1382.43 402.05 1400.87 366.54"
/>
<path stroke="#7fb8dd" vector-effect="non-scaling-stroke" d="
  M 250.9779 174.2861
  A 51.74 51.61 90.7 0 0 303.2161 123.1805
  A 51.74 51.61 90.7 0 0 252.2421 70.8139
  A 51.74 51.61 90.7 0 0 200.0039 121.9195
  A 51.74 51.61 90.7 0 0 250.9779 174.2861"
/>
<path stroke="#7fb8dd" vector-effect="non-scaling-stroke" d="
  M 957.78 332.07
  C 965.54 341.62 972.52 351.71 975.72 363.41
  C 982.10 386.77 996.10 404.18 1021.53 406.41
  Q 1031.09 407.25 1037.81 406.18
  Q 1053.84 403.63 1067.00 403.84
  Q 1082.47 404.08 1097.99 404.70
  Q 1102.27 404.87 1106.70 404.73
  A 0.31 0.30 -16.1 0 0 1106.96 404.27
  Q 1090.22 375.82 1072.89 346.82
  Q 1063.56 331.21 1052.36 314.89
  C 1046.68 306.61 1043.40 296.79 1046.92 287.04
  Q 1049.24 280.58 1053.75 274.73
  Q 1064.24 261.11 1073.57 246.83
  Q 1088.10 224.57 1103.22 201.02
  Q 1103.56 200.49 1102.93 200.49
  Q 1052.86 200.51 1003.95 200.49
  C 999.97 200.49 997.45 203.02 995.77 206.35
  Q 977.96 241.75 960.30 277.18
  Q 960.02 277.74 959.41 277.62
  L 957.56 277.25
  Q 956.99 277.14 956.99 276.57
  Q 957.01 203.65 957.01 130.76
  C 957.01 121.84 959.39 110.31 945.63 110.75
  Q 917.19 111.67 886.91 111.08
  Q 875.99 110.87 868.07 111.17
  C 862.83 111.37 861.23 115.81 861.23 120.26
  Q 861.27 259.23 861.25 396.52
  Q 861.25 405.00 869.54 404.93
  Q 907.89 404.59 949.74 404.81
  C 956.09 404.85 956.88 402.17 956.92 396.43
  Q 957.09 364.97 956.98 332.36
  Q 956.98 331.08 957.78 332.07"
/>
<path stroke="#f58d91" vector-effect="non-scaling-stroke" d="
  M 697.29 336.48
  Q 697.30 335.46 697.86 336.32
  C 709.68 354.37 719.54 373.40 729.36 392.78
  C 731.48 396.97 733.22 403.05 738.32 404.55
  Q 739.76 404.97 743.24 404.94
  Q 791.99 404.59 840.61 404.80
  Q 841.21 404.80 840.91 404.29
  Q 829.29 384.58 817.52 364.53
  Q 807.26 347.04 796.99 333.35
  C 787.87 321.19 779.81 306.78 785.24 291.06
  C 788.69 281.07 795.16 274.08 801.76 266.30
  Q 809.00 257.78 817.36 244.39
  Q 827.32 228.42 837.29 212.84
  A 0.22 0.21 -72.9 0 0 837.12 212.51
  Q 831.52 212.39 825.55 212.54
  Q 810.35 212.94 794.63 213.15
  Q 783.52 213.30 768.24 211.63
  C 754.07 210.08 739.94 212.82 730.77 224.74
  Q 726.29 230.56 724.09 236.40
  C 720.80 245.11 717.54 253.40 713.07 261.63
  Q 706.72 273.32 700.64 284.67
  Q 699.95 285.98 699.87 284.50
  C 697.56 240.24 697.05 196.09 697.26 151.85
  C 697.29 146.42 697.76 141.22 697.23 135.70
  C 696.85 131.71 694.97 128.65 690.76 127.96
  C 689.48 127.75 687.96 127.50 686.67 127.55
  Q 656.00 128.77 625.32 127.82
  Q 618.60 127.61 613.03 127.89
  C 607.34 128.17 605.50 132.82 605.49 137.73
  Q 605.46 168.88 605.53 200.12
  C 605.53 201.54 605.78 202.86 605.78 204.25
  Q 605.77 268.45 605.52 336.00
  Q 605.52 337.26 605.52 337.75
  Q 605.45 367.64 605.55 396.96
  Q 605.56 401.81 609.58 403.94
  Q 611.91 405.17 616.69 405.04
  C 635.21 404.56 653.66 404.47 673.13 404.75
  C 678.85 404.83 684.45 405.25 690.02 404.87
  C 699.43 404.23 697.26 393.88 697.25 387.68
  Q 697.21 362.40 697.29 336.48"
/>
<path stroke="#f58d91" vector-effect="non-scaling-stroke" d="
  M 97.62 348.96
  C 78.26 309.97 96.81 268.04 123.13 238.24
  C 140.63 218.43 162.89 202.13 185.81 187.64
  Q 190.61 184.60 193.75 181.29
  C 196.66 178.22 195.83 173.98 194.04 170.53
  Q 190.21 163.12 185.74 156.25
  Q 181.65 149.98 175.07 153.89
  Q 147.97 169.97 124.10 189.81
  C 100.37 209.52 79.69 233.34 67.64 261.03
  Q 46.24 310.24 64.70 359.96
  C 73.78 384.41 90.96 406.44 110.98 424.08
  C 112.97 425.84 114.89 427.63 116.91 429.04
  Q 117.52 429.46 117.49 428.72
  Q 117.04 416.11 116.86 404.15
  C 116.65 389.81 114.28 375.66 106.35 363.79
  Q 101.03 355.82 97.62 348.96"
/>
<path stroke="#7fd2a8" vector-effect="non-scaling-stroke" d="
  M 1191.06 336.30
  C 1187.92 339.39 1181.74 340.37 1177.41 340.61
  Q 1145.96 342.31 1119.51 324.86
  Q 1114.95 321.85 1110.32 318.69
  Q 1109.76 318.30 1109.76 318.98
  Q 1109.70 339.78 1109.79 358.31
  Q 1109.83 365.13 1110.52 372.07
  C 1111.38 380.67 1113.45 389.80 1120.96 394.68
  C 1128.64 399.67 1139.18 400.93 1148.15 401.96
  Q 1164.63 403.84 1181.51 404.77
  C 1199.43 405.76 1218.39 403.95 1235.25 398.27
  C 1253.80 392.01 1272.55 379.85 1283.24 363.48
  Q 1293.40 347.91 1293.27 328.59
  C 1293.18 314.74 1290.01 301.07 1279.38 291.83
  C 1269.57 283.31 1255.62 279.13 1242.41 275.80
  Q 1225.95 271.65 1214.92 268.50
  C 1207.42 266.36 1206.31 257.30 1214.11 254.28
  Q 1221.15 251.54 1230.03 252.38
  Q 1246.75 253.94 1262.11 261.21
  Q 1272.52 266.14 1282.01 271.60
  Q 1282.67 271.98 1282.68 271.22
  Q 1283.00 242.39 1282.47 219.56
  C 1282.25 210.23 1280.83 201.23 1271.05 197.85
  Q 1265.78 196.02 1258.94 194.70
  Q 1238.27 190.70 1218.31 189.24
  Q 1208.17 188.50 1195.53 189.17
  Q 1165.69 190.77 1140.82 204.27
  C 1129.52 210.41 1119.98 218.55 1113.64 229.24
  Q 1102.37 248.27 1105.93 270.47
  C 1110.28 297.55 1131.85 311.97 1157.66 316.57
  Q 1170.48 318.85 1184.66 321.63
  Q 1187.58 322.20 1189.75 323.78
  C 1193.56 326.56 1194.63 332.77 1191.06 336.30"
/>
<path stroke="#7fd2a8" vector-effect="non-scaling-stroke" d="
  M 477.64 389.63
  C 475.89 399.51 478.19 405.91 489.50 405.56
  Q 525.57 404.47 561.30 405.50
  C 571.35 405.79 572.37 399.76 571.96 391.50
  Q 571.80 388.29 571.79 385.01
  Q 571.64 297.13 571.87 210.56
  C 571.89 202.16 566.97 200.53 559.73 200.77
  Q 526.20 201.85 489.28 200.71
  C 477.71 200.35 475.44 207.65 477.80 217.56
  A 0.33 0.33 0.0 0 1 477.32 217.93
  C 475.17 216.79 472.97 215.99 470.93 214.57
  C 432.83 188.02 383.37 192.65 351.91 227.08
  C 335.04 245.54 325.41 272.63 324.04 297.66
  Q 322.97 317.23 327.90 337.74
  C 336.94 375.30 363.17 401.29 401.67 407.53
  Q 429.23 411.99 453.77 401.79
  Q 465.67 396.84 477.18 389.32
  Q 477.77 388.93 477.64 389.63"
/>
<path stroke="#7fb8dd" vector-effect="non-scaling-stroke" d="
  M 289.15 468.47
  Q 297.16 454.09 300.38 433.89
  Q 303.66 413.38 303.68 392.50
  Q 303.71 362.06 303.44 326.42
  C 303.43 325.22 303.73 323.87 303.73 322.58
  Q 303.76 303.49 303.76 284.36
  C 303.76 283.05 303.47 281.64 303.47 280.50
  Q 303.51 250.05 303.79 220.44
  C 303.84 215.73 304.32 210.96 303.26 206.57
  C 301.82 200.65 296.21 200.05 291.03 200.21
  Q 259.23 201.23 228.87 200.49
  C 224.26 200.38 219.58 199.98 215.03 200.46
  C 208.77 201.13 206.72 205.93 206.75 211.68
  Q 207.24 300.13 206.88 386.13
  C 206.82 400.87 207.39 430.61 183.75 427.65
  Q 176.91 426.79 167.64 422.84
  Q 155.61 417.72 145.84 412.38
  C 144.07 411.42 140.36 410.06 138.77 411.98
  Q 137.59 413.41 137.56 415.10
  Q 137.40 426.57 137.59 450.44
  Q 137.70 464.69 137.38 479.07
  Q 137.21 486.90 137.76 489.32
  Q 138.96 494.68 145.41 497.41
  Q 167.73 506.86 193.18 511.26
  Q 213.94 514.86 231.23 511.29
  Q 269.74 503.33 289.15 468.47"
/>
<path stroke="#b6b6b8" vector-effect="non-scaling-stroke" d="
  M 1104.83 426.47
  Q 1104.43 427.16 1104.24 427.80
  Q 1103.02 431.80 1103.27 435.56
  C 1103.69 441.82 1107.14 445.56 1113.08 446.66
  Q 1123.71 448.63 1132.03 456.97
  Q 1139.04 464.00 1146.00 471.14"
/>
<path stroke="#d8d8d8" vector-effect="non-scaling-stroke" d="
  M 1146.00 471.14
  Q 1141.65 473.58 1137.18 475.95
  Q 1134.07 477.61 1133.43 481.39"
/>
<path stroke="#b6b6b8" vector-effect="non-scaling-stroke" d="
  M 1133.43 481.39
  Q 1133.04 481.80 1132.85 482.72
  Q 1130.55 493.51 1139.80 498.67
  Q 1140.86 499.26 1144.78 500.65"
/>
<path stroke="#d8d8d8" vector-effect="non-scaling-stroke" d="
  M 1144.78 500.65
  Q 1139.58 510.09 1131.26 520.74
  Q 1128.11 524.77 1126.14 531.59"
/>
<path stroke="#b6b6b8" vector-effect="non-scaling-stroke" d="
  M 1126.14 531.59
  Q 1125.42 533.33 1121.78 538.79
  C 1118.57 543.61 1122.05 548.01 1126.39 550.00
  Q 1131.78 552.47 1135.64 547.36
  Q 1139.15 542.74 1143.79 538.00
  Q 1145.82 535.94 1147.67 533.90
  Q 1162.25 517.94 1176.09 501.56
  A 2.44 2.43 40.4 0 1 1179.53 501.29
  Q 1185.70 506.59 1192.59 511.03
  C 1201.78 516.96 1211.02 523.58 1215.51 533.83
  C 1218.55 540.79 1222.75 548.34 1231.76 546.87
  Q 1237.86 545.88 1243.93 541.47"
/>
<path stroke="#d8d8d8" vector-effect="non-scaling-stroke" d="
  M 1243.93 541.47
  Q 1247.19 536.97 1247.52 531.99
  C 1248.11 523.18 1240.44 519.31 1233.34 517.11
  Q 1230.57 516.25 1228.27 515.05
  Q 1214.31 507.75 1206.33 493.45"
/>
<path stroke="#b6b6b8" vector-effect="non-scaling-stroke" d="
  M 1206.33 493.45
  Q 1212.15 494.49 1216.34 493.86
  Q 1224.99 492.56 1228.64 484.57"
/>
<path stroke="#d8d8d8" vector-effect="non-scaling-stroke" d="
  M 1228.64 484.57
  C 1231.92 478.42 1232.78 471.26 1227.20 466.29
  C 1222.64 462.23 1216.83 459.92 1211.46 457.20
  A 0.88 0.88 0.0 0 1 1211.10 455.97
  Q 1218.46 443.29 1225.75 430.06
  C 1227.85 426.24 1228.18 422.57 1224.47 419.58
  C 1217.74 414.16 1213.00 420.73 1208.90 425.14
  Q 1194.62 440.49 1180.38 455.78
  Q 1179.02 457.23 1177.80 458.79
  C 1176.02 461.07 1173.07 465.60 1169.60 462.91
  Q 1159.93 455.43 1150.47 448.89
  Q 1143.47 444.04 1138.14 437.21
  C 1133.85 431.70 1132.39 424.68 1126.85 420.09
  C 1119.26 413.82 1110.15 420.09 1104.83 426.47"
/>
<path stroke="#909092" vector-effect="non-scaling-stroke" d="
  M 1228.64 484.57
  Q 1221.18 478.76 1214.78 474.93
  C 1205.82 469.56 1197.42 470.58 1188.74 475.69
  C 1179.89 480.90 1169.19 478.34 1161.70 470.98
  Q 1153.39 462.82 1144.04 455.13
  Q 1134.12 446.97 1127.78 439.36
  C 1121.75 432.11 1115.62 426.70 1105.56 427.07
  A 0.63 0.61 -14.9 0 1 1105.00 426.76
  L 1104.83 426.47"
/>
<path stroke="#909092" vector-effect="non-scaling-stroke" d="
  M 1206.33 493.45
  C 1203.29 490.24 1201.18 487.23 1196.09 487.89
  Q 1191.59 488.48 1187.46 490.71
  Q 1187.06 490.94 1187.40 491.24
  L 1243.93 541.47"
/>
<path stroke="#909092" vector-effect="non-scaling-stroke" d="
  M 1126.14 531.59
  Q 1137.76 531.05 1144.69 526.19
  Q 1152.00 521.06 1155.67 512.89
  Q 1160.60 501.89 1162.69 489.77
  A 0.54 0.54 0.0 0 0 1161.97 489.17
  Q 1157.98 490.63 1155.25 493.43
  C 1153.10 495.64 1150.70 498.39 1147.73 499.52
  Q 1145.98 500.19 1144.78 500.65"
/>
<path stroke="#909092" vector-effect="non-scaling-stroke" d="
  M 1133.43 481.39
  Q 1138.40 483.17 1143.52 483.10
  Q 1148.59 483.03 1151.70 479.28
  C 1152.60 478.20 1152.35 476.75 1151.57 475.69
  Q 1149.32 472.61 1146.00 471.14"
/>
<path stroke="#f58d91" vector-effect="non-scaling-stroke" d="
  M 963.15 481.79
  C 958.19 476.81 957.10 470.15 959.34 463.50
  C 961.48 457.14 965.09 452.13 971.74 450.11
  C 980.46 447.46 989.82 449.63 995.81 456.68
  A 5.48 5.46 -22.2 0 0 1000.40 458.60
  Q 1001.48 458.52 1002.58 458.40
  Q 1004.93 458.13 1003.56 456.21
  Q 997.67 447.91 989.08 444.59
  C 975.09 439.18 957.51 444.59 951.65 458.66
  Q 948.16 467.05 950.26 475.80
  C 952.88 486.73 961.56 492.88 972.24 494.38
  C 981.78 495.72 992.97 494.23 1000.02 486.91
  C 1001.90 484.96 1006.24 481.41 1004.95 478.24
  C 1003.77 475.37 999.83 473.15 997.57 476.63
  C 994.69 481.10 991.75 484.50 986.82 487.05
  C 978.45 491.40 969.51 488.18 963.15 481.79"
/>
<path stroke="#f58d91" vector-effect="non-scaling-stroke" d="
  M 683.70 450.33
  C 688.07 450.56 694.77 452.62 697.55 456.37
  Q 698.88 458.17 700.45 459.57
  Q 702.93 461.78 705.26 459.40
  Q 705.84 458.81 706.26 458.13
  Q 708.09 455.11 705.50 452.72
  Q 698.13 445.92 690.23 444.93
  C 677.63 443.35 662.93 445.03 656.43 456.83
  Q 651.86 465.12 652.94 474.78
  C 654.30 486.89 665.41 494.99 677.11 496.21
  Q 695.76 498.14 706.64 484.53
  Q 710.40 479.82 705.40 476.98
  C 702.29 475.21 699.72 479.55 698.18 481.65
  C 692.33 489.60 683.36 493.10 673.90 488.54
  C 664.18 483.86 659.12 475.12 662.82 464.42
  Q 667.99 449.53 683.70 450.33"
/>
<path stroke="#f58d91" vector-effect="non-scaling-stroke" d="
  M 566.57 479.76
  Q 564.56 484.21 560.93 489.97
  C 559.80 491.75 560.61 494.00 562.55 494.79
  C 568.36 497.16 570.07 491.73 571.48 487.44
  C 573.59 481.03 579.80 480.22 585.66 480.83
  Q 588.07 481.08 590.32 480.56
  C 598.53 478.66 602.43 484.42 605.04 491.44
  Q 606.58 495.61 610.98 494.90
  Q 611.57 494.81 612.09 494.52
  Q 615.30 492.77 613.74 489.46
  Q 604.33 469.49 595.27 451.41
  C 593.48 447.84 589.71 443.54 585.45 445.82
  Q 582.57 447.36 580.58 451.06
  Q 573.89 463.54 566.57 479.76"
/>
<path stroke="#f58d91" vector-effect="non-scaling-stroke" d="
  M 824.35 465.40
  C 816.61 465.23 816.46 452.83 823.32 451.94
  Q 830.14 451.05 838.59 451.62
  C 843.24 451.93 847.76 451.62 852.30 450.32
  Q 853.26 450.05 853.25 449.06
  L 853.24 445.93
  Q 853.24 445.28 852.59 445.28
  Q 834.45 445.19 816.42 445.26
  C 812.77 445.27 809.93 446.47 809.96 450.52
  Q 810.12 469.55 810.33 489.51
  Q 810.37 493.64 814.50 493.76
  Q 815.07 493.77 815.64 493.62
  Q 819.30 492.68 818.57 488.97
  C 815.88 475.27 821.55 470.66 834.66 471.53
  C 837.40 471.72 840.20 471.69 842.87 472.00
  A 5.81 5.81 0.0 0 0 848.07 469.84
  Q 848.96 468.71 849.62 467.88
  Q 851.62 465.36 848.40 465.42
  Q 835.66 465.65 824.35 465.40"
/>
<path stroke="#f58d91" vector-effect="non-scaling-stroke" d="
  M 527.53 461.87
  C 528.17 451.35 521.69 446.99 512.02 446.41
  Q 506.31 446.06 500.30 445.81
  Q 493.86 445.54 488.13 446.37
  C 481.43 447.33 480.41 453.45 480.34 459.14
  Q 480.13 475.43 480.31 491.40
  Q 480.37 496.05 485.00 495.67
  Q 485.58 495.62 486.12 495.41
  Q 490.27 493.82 489.48 489.45
  C 487.65 479.32 490.90 474.22 501.69 474.72
  C 511.85 475.19 526.66 476.07 527.53 461.87"
/>
<path stroke="#f58d91" vector-effect="non-scaling-stroke" d="
  M 763.0150 449.7774
  A 3.99 3.99 0.0 0 0 759.0041 445.8084
  L 758.2641 445.8123
  A 3.99 3.99 0.0 0 0 754.2951 449.8231
  L 754.5050 489.9226
  A 3.99 3.99 0.0 0 0 758.5159 493.8916
  L 759.2559 493.8877
  A 3.99 3.99 0.0 0 0 763.2249 489.8769
  L 763.0150 449.7774"
/>
<path stroke="#f58d91" vector-effect="non-scaling-stroke" d="
  M 903.84 447.00
  C 893.53 446.08 896.67 459.00 897.53 464.45
  Q 898.27 469.16 897.90 472.28
  Q 897.31 477.22 896.61 482.29
  C 895.97 486.95 896.66 492.48 902.72 492.27
  C 905.96 492.16 907.09 489.16 906.94 486.40
  Q 906.70 482.01 906.27 477.66
  Q 906.00 474.96 906.54 472.43
  C 907.12 469.68 906.10 466.95 906.20 464.08
  Q 906.38 459.04 906.77 453.70
  C 906.91 451.64 906.54 447.24 903.84 447.00"
/>
<path stroke="#f58d91" vector-effect="non-scaling-stroke" d="
  M 1107.18 520.21
  Q 1107.33 515.37 1107.09 510.48
  A 2.25 2.24 -7.3 0 0 1104.38 508.39
  C 1092.82 510.83 1077.78 514.94 1069.84 516.87
  Q 965.89 542.11 855.29 549.89
  Q 776.55 555.42 700.20 554.38
  Q 593.39 552.93 494.33 537.26
  Q 397.53 521.94 309.96 493.63
  Q 304.92 492.00 302.09 495.88
  Q 294.98 505.66 285.87 512.90
  Q 281.99 515.98 278.21 518.85
  Q 277.55 519.36 278.33 519.63
  Q 321.43 534.76 348.01 541.48
  Q 586.90 601.86 834.54 584.97
  Q 961.51 576.31 1087.88 548.12
  Q 1092.86 547.01 1097.77 544.73
  C 1107.21 540.33 1106.90 529.34 1107.18 520.21"
/>
<path stroke="#7fd2a8" vector-effect="non-scaling-stroke" d="
  M 474.32 287.37
  C 471.35 280.95 464.98 276.15 457.95 274.82
  C 443.86 272.17 430.81 279.50 426.48 293.15
  C 422.59 305.39 426.04 318.85 436.79 326.26
  C 445.82 332.49 458.66 332.23 467.14 325.31
  C 478.25 316.24 480.00 299.62 474.32 287.37"
/>
<path stroke="#f58d91" vector-effect="non-scaling-stroke" d="
  M 587.07 455.42
  C 583.77 460.68 580.00 466.74 579.44 473.01
  A 0.98 0.97 -77.8 0 0 580.08 474.02
  Q 586.99 476.43 594.80 473.92
  Q 595.28 473.77 595.26 473.27
  C 595.08 466.51 591.35 460.77 587.45 455.41
  A 0.23 0.23 0.0 0 0 587.07 455.42"
/>
<path stroke="#f58d91" vector-effect="non-scaling-stroke" d="
  M 518.08 463.10
  C 519.36 456.77 516.47 452.17 509.70 452.27
  Q 503.24 452.37 496.78 452.06
  C 492.55 451.85 489.65 453.20 489.12 457.90
  C 488.54 462.94 489.02 468.84 495.44 468.98
  Q 503.70 469.17 512.22 468.38
  Q 517.10 467.92 518.08 463.10"
/>
</g>
<path fill="#b2b2b2" d="
  M 1469.00 294.12
  L 1469.00 358.98
  Q 1464.87 389.35 1449.51 415.72
  C 1425.15 457.55 1385.87 489.68 1345.27 515.99
  Q 1335.38 522.39 1324.47 529.29
  Q 1320.00 532.12 1312.78 535.08
  C 1298.90 540.77 1288.01 552.30 1282.29 566.50
  Q 1279.35 573.82 1277.28 577.33
  C 1264.15 599.59 1235.83 604.59 1212.45 595.87
  Q 1202.14 592.03 1201.26 591.84
  Q 1188.95 589.24 1179.26 592.14
  Q 1168.98 595.21 1158.73 598.40
  C 1088.53 620.26 1013.40 634.97 939.26 643.34
  C 910.73 646.56 877.28 647.58 843.20 647.96
  C 833.06 648.07 823.15 648.39 813.50 647.50
  Q 810.03 647.17 806.12 649.00
  L 643.25 649.00
  Q 631.41 648.18 612.12 647.90
  Q 459.88 645.70 314.49 602.09
  Q 290.67 594.95 262.85 585.55
  Q 223.65 572.31 182.16 566.83
  Q 170.02 565.22 162.68 563.35
  C 144.48 558.71 127.43 551.27 110.82 542.61
  C 101.32 537.66 93.82 530.23 92.49 519.42
  Q 92.05 515.86 92.12 511.49
  Q 92.34 497.60 81.43 488.19
  Q 75.63 483.19 69.69 478.26
  C 46.24 458.79 25.55 431.29 11.73 404.37
  Q 6.21 393.62 4.26 376.64
  Q 2.94 365.11 1.32 354.30
  Q 0.19 346.72 0.21 341.25
  Q 0.29 325.71 0.22 309.83
  A 2.37 2.32 -30.4 0 1 0.54 308.65
  Q 2.57 305.17 2.22 301.37
  Q 1.82 296.99 2.04 292.60
  C 3.62 261.15 18.59 234.20 38.98 209.80
  Q 55.38 190.16 72.68 174.51
  C 94.18 155.05 118.25 138.14 143.71 123.40
  C 152.71 118.19 157.44 111.68 160.53 101.57
  Q 162.28 95.85 164.47 90.80
  C 185.52 42.15 243.69 21.14 290.94 44.01
  Q 298.18 47.51 303.00 48.94
  C 310.47 51.15 317.75 50.26 325.26 48.12
  C 390.00 29.67 457.16 15.69 523.26 8.21
  C 568.30 3.11 615.29 1.62 661.01 2.04
  Q 661.59 2.04 661.67 1.47
  L 661.74 0.97
  A 0.55 0.55 0.0 0 1 662.28 0.50
  L 826.97 0.50
  A 0.50 0.49 88.1 0 1 827.46 0.97
  L 827.49 1.47
  Q 827.52 2.03 828.09 2.03
  Q 916.56 1.21 1003.99 14.56
  Q 1106.87 30.27 1205.36 64.06
  C 1267.36 85.34 1324.57 113.20 1375.94 151.57
  Q 1418.06 183.03 1448.00 226.67
  Q 1454.11 235.58 1457.60 243.38
  Q 1462.39 254.10 1464.52 266.50
  Q 1466.87 280.26 1469.00 294.12
  Z
  M 1418.29 218.12
  C 1377.13 163.92 1318.61 129.27 1256.37 101.94
  C 1143.10 52.20 1020.31 27.09 896.59 16.50
  Q 832.81 11.04 769.00 9.69
  C 754.64 9.39 739.19 9.51 724.49 9.49
  Q 713.09 9.48 704.50 9.67
  Q 564.06 12.83 429.25 39.26
  Q 376.89 49.53 322.73 65.75
  Q 314.78 68.13 311.04 68.37
  C 303.21 68.86 295.84 66.57 289.58 62.32
  C 281.77 57.02 273.36 53.13 264.22 51.18
  C 225.41 42.91 187.81 68.85 182.17 107.89
  Q 181.08 115.48 179.87 118.06
  Q 177.24 123.63 171.55 126.71
  Q 128.79 149.79 94.81 178.95
  C 71.39 199.04 50.14 220.82 36.54 247.03
  Q 7.37 303.28 26.02 364.02
  C 31.10 380.56 39.25 396.17 49.25 410.86
  Q 71.88 444.08 102.07 465.38
  Q 113.85 473.69 115.13 487.81
  Q 115.44 491.26 114.97 494.49
  C 113.91 501.89 114.71 509.44 121.83 512.95
  Q 129.56 516.76 148.79 525.06
  Q 164.23 531.72 178.00 533.99
  C 182.45 534.73 186.77 534.72 191.15 534.86
  C 216.85 535.69 241.38 543.53 266.01 552.34
  C 373.76 590.91 486.15 610.99 602.18 619.27
  Q 658.61 623.29 723.06 624.12
  Q 735.79 624.28 749.25 624.09
  C 815.34 623.16 879.54 618.18 944.74 610.04
  C 1028.99 599.52 1111.96 581.51 1191.64 553.69
  Q 1201.25 550.34 1208.26 557.88
  C 1218.14 568.51 1230.61 570.19 1243.98 565.80
  Q 1264.91 558.92 1262.94 536.15
  C 1262.21 527.67 1267.02 523.04 1274.22 519.61
  C 1321.84 496.94 1366.43 466.93 1403.08 428.96
  Q 1410.51 421.26 1416.35 413.93
  C 1440.63 383.45 1453.86 346.49 1452.04 307.55
  C 1450.54 275.26 1438.21 244.34 1418.29 218.12
  Z"
/>
<path fill="#fefefe" d="
  M 1256.37 101.94
  C 1318.61 129.27 1377.13 163.92 1418.29 218.12
  C 1438.21 244.34 1450.54 275.26 1452.04 307.55
  C 1453.86 346.49 1440.63 383.45 1416.35 413.93
  Q 1410.51 421.26 1403.08 428.96
  C 1366.43 466.93 1321.84 496.94 1274.22 519.61
  C 1267.02 523.04 1262.21 527.67 1262.94 536.15
  Q 1264.91 558.92 1243.98 565.80
  C 1230.61 570.19 1218.14 568.51 1208.26 557.88
  Q 1201.25 550.34 1191.64 553.69
  C 1111.96 581.51 1028.99 599.52 944.74 610.04
  C 879.54 618.18 815.34 623.16 749.25 624.09
  Q 735.79 624.28 723.06 624.12
  Q 658.61 623.29 602.18 619.27
  C 486.15 610.99 373.76 590.91 266.01 552.34
  C 241.38 543.53 216.85 535.69 191.15 534.86
  C 186.77 534.72 182.45 534.73 178.00 533.99
  Q 164.23 531.72 148.79 525.06
  Q 129.56 516.76 121.83 512.95
  C 114.71 509.44 113.91 501.89 114.97 494.49
  Q 115.44 491.26 115.13 487.81
  Q 113.85 473.69 102.07 465.38
  Q 71.88 444.08 49.25 410.86
  C 39.25 396.17 31.10 380.56 26.02 364.02
  Q 7.37 303.28 36.54 247.03
  C 50.14 220.82 71.39 199.04 94.81 178.95
  Q 128.79 149.79 171.55 126.71
  Q 177.24 123.63 179.87 118.06
  Q 181.08 115.48 182.17 107.89
  C 187.81 68.85 225.41 42.91 264.22 51.18
  C 273.36 53.13 281.77 57.02 289.58 62.32
  C 295.84 66.57 303.21 68.86 311.04 68.37
  Q 314.78 68.13 322.73 65.75
  Q 376.89 49.53 429.25 39.26
  Q 564.06 12.83 704.50 9.67
  Q 713.09 9.48 724.49 9.49
  C 739.19 9.51 754.64 9.39 769.00 9.69
  Q 832.81 11.04 896.59 16.50
  C 1020.31 27.09 1143.10 52.20 1256.37 101.94
  Z
  M 1400.87 366.54
  C 1412.08 344.94 1417.38 320.74 1414.74 296.60
  C 1410.38 256.59 1386.36 220.87 1356.66 194.03
  Q 1336.12 175.48 1309.66 158.52
  C 1270.51 133.44 1228.35 114.66 1184.32 99.73
  Q 1099.20 70.87 1006.54 54.78
  Q 881.39 33.07 753.28 34.55
  Q 744.99 34.64 736.57 34.74
  C 679.19 35.41 621.70 38.21 564.34 43.87
  C 487.13 51.49 410.44 65.43 335.73 86.76
  C 328.11 88.94 323.38 92.25 323.79 100.97
  Q 324.13 108.33 325.07 116.49
  C 325.81 122.89 327.97 125.49 334.69 123.42
  Q 379.38 109.59 424.21 100.05
  Q 559.13 71.34 697.63 67.90
  C 703.73 67.75 709.70 67.49 715.80 67.53
  C 722.82 67.58 730.02 67.26 737.09 67.29
  Q 752.46 67.35 768.06 67.64
  Q 873.79 69.61 975.98 84.82
  C 1060.96 97.47 1145.19 119.35 1223.77 152.53
  C 1262.61 168.93 1298.89 189.32 1329.87 216.86
  C 1366.77 249.66 1393.26 292.28 1373.66 342.28
  C 1365.63 362.76 1351.10 380.84 1334.78 396.25
  Q 1308.57 420.99 1276.87 438.89
  Q 1265.69 445.20 1253.65 451.04
  C 1249.36 453.13 1243.23 456.67 1243.46 462.21
  C 1243.71 468.39 1250.08 473.03 1253.41 477.72
  C 1256.13 481.55 1258.38 488.35 1264.68 485.16
  Q 1294.38 470.09 1320.47 452.57
  C 1353.72 430.24 1382.43 402.05 1400.87 366.54
  Z
  M 250.9779 174.2861
  A 51.74 51.61 90.7 0 0 303.2161 123.1805
  A 51.74 51.61 90.7 0 0 252.2421 70.8139
  A 51.74 51.61 90.7 0 0 200.0039 121.9195
  A 51.74 51.61 90.7 0 0 250.9779 174.2861
  Z
  M 957.78 332.07
  C 965.54 341.62 972.52 351.71 975.72 363.41
  C 982.10 386.77 996.10 404.18 1021.53 406.41
  Q 1031.09 407.25 1037.81 406.18
  Q 1053.84 403.63 1067.00 403.84
  Q 1082.47 404.08 1097.99 404.70
  Q 1102.27 404.87 1106.70 404.73
  A 0.31 0.30 -16.1 0 0 1106.96 404.27
  Q 1090.22 375.82 1072.89 346.82
  Q 1063.56 331.21 1052.36 314.89
  C 1046.68 306.61 1043.40 296.79 1046.92 287.04
  Q 1049.24 280.58 1053.75 274.73
  Q 1064.24 261.11 1073.57 246.83
  Q 1088.10 224.57 1103.22 201.02
  Q 1103.56 200.49 1102.93 200.49
  Q 1052.86 200.51 1003.95 200.49
  C 999.97 200.49 997.45 203.02 995.77 206.35
  Q 977.96 241.75 960.30 277.18
  Q 960.02 277.74 959.41 277.62
  L 957.56 277.25
  Q 956.99 277.14 956.99 276.57
  Q 957.01 203.65 957.01 130.76
  C 957.01 121.84 959.39 110.31 945.63 110.75
  Q 917.19 111.67 886.91 111.08
  Q 875.99 110.87 868.07 111.17
  C 862.83 111.37 861.23 115.81 861.23 120.26
  Q 861.27 259.23 861.25 396.52
  Q 861.25 405.00 869.54 404.93
  Q 907.89 404.59 949.74 404.81
  C 956.09 404.85 956.88 402.17 956.92 396.43
  Q 957.09 364.97 956.98 332.36
  Q 956.98 331.08 957.78 332.07
  Z
  M 697.29 336.48
  Q 697.30 335.46 697.86 336.32
  C 709.68 354.37 719.54 373.40 729.36 392.78
  C 731.48 396.97 733.22 403.05 738.32 404.55
  Q 739.76 404.97 743.24 404.94
  Q 791.99 404.59 840.61 404.80
  Q 841.21 404.80 840.91 404.29
  Q 829.29 384.58 817.52 364.53
  Q 807.26 347.04 796.99 333.35
  C 787.87 321.19 779.81 306.78 785.24 291.06
  C 788.69 281.07 795.16 274.08 801.76 266.30
  Q 809.00 257.78 817.36 244.39
  Q 827.32 228.42 837.29 212.84
  A 0.22 0.21 -72.9 0 0 837.12 212.51
  Q 831.52 212.39 825.55 212.54
  Q 810.35 212.94 794.63 213.15
  Q 783.52 213.30 768.24 211.63
  C 754.07 210.08 739.94 212.82 730.77 224.74
  Q 726.29 230.56 724.09 236.40
  C 720.80 245.11 717.54 253.40 713.07 261.63
  Q 706.72 273.32 700.64 284.67
  Q 699.95 285.98 699.87 284.50
  C 697.56 240.24 697.05 196.09 697.26 151.85
  C 697.29 146.42 697.76 141.22 697.23 135.70
  C 696.85 131.71 694.97 128.65 690.76 127.96
  C 689.48 127.75 687.96 127.50 686.67 127.55
  Q 656.00 128.77 625.32 127.82
  Q 618.60 127.61 613.03 127.89
  C 607.34 128.17 605.50 132.82 605.49 137.73
  Q 605.46 168.88 605.53 200.12
  C 605.53 201.54 605.78 202.86 605.78 204.25
  Q 605.77 268.45 605.52 336.00
  Q 605.52 337.26 605.52 337.75
  Q 605.45 367.64 605.55 396.96
  Q 605.56 401.81 609.58 403.94
  Q 611.91 405.17 616.69 405.04
  C 635.21 404.56 653.66 404.47 673.13 404.75
  C 678.85 404.83 684.45 405.25 690.02 404.87
  C 699.43 404.23 697.26 393.88 697.25 387.68
  Q 697.21 362.40 697.29 336.48
  Z
  M 97.62 348.96
  C 78.26 309.97 96.81 268.04 123.13 238.24
  C 140.63 218.43 162.89 202.13 185.81 187.64
  Q 190.61 184.60 193.75 181.29
  C 196.66 178.22 195.83 173.98 194.04 170.53
  Q 190.21 163.12 185.74 156.25
  Q 181.65 149.98 175.07 153.89
  Q 147.97 169.97 124.10 189.81
  C 100.37 209.52 79.69 233.34 67.64 261.03
  Q 46.24 310.24 64.70 359.96
  C 73.78 384.41 90.96 406.44 110.98 424.08
  C 112.97 425.84 114.89 427.63 116.91 429.04
  Q 117.52 429.46 117.49 428.72
  Q 117.04 416.11 116.86 404.15
  C 116.65 389.81 114.28 375.66 106.35 363.79
  Q 101.03 355.82 97.62 348.96
  Z
  M 1191.06 336.30
  C 1187.92 339.39 1181.74 340.37 1177.41 340.61
  Q 1145.96 342.31 1119.51 324.86
  Q 1114.95 321.85 1110.32 318.69
  Q 1109.76 318.30 1109.76 318.98
  Q 1109.70 339.78 1109.79 358.31
  Q 1109.83 365.13 1110.52 372.07
  C 1111.38 380.67 1113.45 389.80 1120.96 394.68
  C 1128.64 399.67 1139.18 400.93 1148.15 401.96
  Q 1164.63 403.84 1181.51 404.77
  C 1199.43 405.76 1218.39 403.95 1235.25 398.27
  C 1253.80 392.01 1272.55 379.85 1283.24 363.48
  Q 1293.40 347.91 1293.27 328.59
  C 1293.18 314.74 1290.01 301.07 1279.38 291.83
  C 1269.57 283.31 1255.62 279.13 1242.41 275.80
  Q 1225.95 271.65 1214.92 268.50
  C 1207.42 266.36 1206.31 257.30 1214.11 254.28
  Q 1221.15 251.54 1230.03 252.38
  Q 1246.75 253.94 1262.11 261.21
  Q 1272.52 266.14 1282.01 271.60
  Q 1282.67 271.98 1282.68 271.22
  Q 1283.00 242.39 1282.47 219.56
  C 1282.25 210.23 1280.83 201.23 1271.05 197.85
  Q 1265.78 196.02 1258.94 194.70
  Q 1238.27 190.70 1218.31 189.24
  Q 1208.17 188.50 1195.53 189.17
  Q 1165.69 190.77 1140.82 204.27
  C 1129.52 210.41 1119.98 218.55 1113.64 229.24
  Q 1102.37 248.27 1105.93 270.47
  C 1110.28 297.55 1131.85 311.97 1157.66 316.57
  Q 1170.48 318.85 1184.66 321.63
  Q 1187.58 322.20 1189.75 323.78
  C 1193.56 326.56 1194.63 332.77 1191.06 336.30
  Z
  M 477.64 389.63
  C 475.89 399.51 478.19 405.91 489.50 405.56
  Q 525.57 404.47 561.30 405.50
  C 571.35 405.79 572.37 399.76 571.96 391.50
  Q 571.80 388.29 571.79 385.01
  Q 571.64 297.13 571.87 210.56
  C 571.89 202.16 566.97 200.53 559.73 200.77
  Q 526.20 201.85 489.28 200.71
  C 477.71 200.35 475.44 207.65 477.80 217.56
  A 0.33 0.33 0.0 0 1 477.32 217.93
  C 475.17 216.79 472.97 215.99 470.93 214.57
  C 432.83 188.02 383.37 192.65 351.91 227.08
  C 335.04 245.54 325.41 272.63 324.04 297.66
  Q 322.97 317.23 327.90 337.74
  C 336.94 375.30 363.17 401.29 401.67 407.53
  Q 429.23 411.99 453.77 401.79
  Q 465.67 396.84 477.18 389.32
  Q 477.77 388.93 477.64 389.63
  Z
  M 289.15 468.47
  Q 297.16 454.09 300.38 433.89
  Q 303.66 413.38 303.68 392.50
  Q 303.71 362.06 303.44 326.42
  C 303.43 325.22 303.73 323.87 303.73 322.58
  Q 303.76 303.49 303.76 284.36
  C 303.76 283.05 303.47 281.64 303.47 280.50
  Q 303.51 250.05 303.79 220.44
  C 303.84 215.73 304.32 210.96 303.26 206.57
  C 301.82 200.65 296.21 200.05 291.03 200.21
  Q 259.23 201.23 228.87 200.49
  C 224.26 200.38 219.58 199.98 215.03 200.46
  C 208.77 201.13 206.72 205.93 206.75 211.68
  Q 207.24 300.13 206.88 386.13
  C 206.82 400.87 207.39 430.61 183.75 427.65
  Q 176.91 426.79 167.64 422.84
  Q 155.61 417.72 145.84 412.38
  C 144.07 411.42 140.36 410.06 138.77 411.98
  Q 137.59 413.41 137.56 415.10
  Q 137.40 426.57 137.59 450.44
  Q 137.70 464.69 137.38 479.07
  Q 137.21 486.90 137.76 489.32
  Q 138.96 494.68 145.41 497.41
  Q 167.73 506.86 193.18 511.26
  Q 213.94 514.86 231.23 511.29
  Q 269.74 503.33 289.15 468.47
  Z
  M 1104.83 426.47
  Q 1104.43 427.16 1104.24 427.80
  Q 1103.02 431.80 1103.27 435.56
  C 1103.69 441.82 1107.14 445.56 1113.08 446.66
  Q 1123.71 448.63 1132.03 456.97
  Q 1139.04 464.00 1146.00 471.14
  Q 1141.65 473.58 1137.18 475.95
  Q 1134.07 477.61 1133.43 481.39
  Q 1133.04 481.80 1132.85 482.72
  Q 1130.55 493.51 1139.80 498.67
  Q 1140.86 499.26 1144.78 500.65
  Q 1139.58 510.09 1131.26 520.74
  Q 1128.11 524.77 1126.14 531.59
  Q 1125.42 533.33 1121.78 538.79
  C 1118.57 543.61 1122.05 548.01 1126.39 550.00
  Q 1131.78 552.47 1135.64 547.36
  Q 1139.15 542.74 1143.79 538.00
  Q 1145.82 535.94 1147.67 533.90
  Q 1162.25 517.94 1176.09 501.56
  A 2.44 2.43 40.4 0 1 1179.53 501.29
  Q 1185.70 506.59 1192.59 511.03
  C 1201.78 516.96 1211.02 523.58 1215.51 533.83
  C 1218.55 540.79 1222.75 548.34 1231.76 546.87
  Q 1237.86 545.88 1243.93 541.47
  Q 1247.19 536.97 1247.52 531.99
  C 1248.11 523.18 1240.44 519.31 1233.34 517.11
  Q 1230.57 516.25 1228.27 515.05
  Q 1214.31 507.75 1206.33 493.45
  Q 1212.15 494.49 1216.34 493.86
  Q 1224.99 492.56 1228.64 484.57
  C 1231.92 478.42 1232.78 471.26 1227.20 466.29
  C 1222.64 462.23 1216.83 459.92 1211.46 457.20
  A 0.88 0.88 0.0 0 1 1211.10 455.97
  Q 1218.46 443.29 1225.75 430.06
  C 1227.85 426.24 1228.18 422.57 1224.47 419.58
  C 1217.74 414.16 1213.00 420.73 1208.90 425.14
  Q 1194.62 440.49 1180.38 455.78
  Q 1179.02 457.23 1177.80 458.79
  C 1176.02 461.07 1173.07 465.60 1169.60 462.91
  Q 1159.93 455.43 1150.47 448.89
  Q 1143.47 444.04 1138.14 437.21
  C 1133.85 431.70 1132.39 424.68 1126.85 420.09
  C 1119.26 413.82 1110.15 420.09 1104.83 426.47
  Z
  M 963.15 481.79
  C 958.19 476.81 957.10 470.15 959.34 463.50
  C 961.48 457.14 965.09 452.13 971.74 450.11
  C 980.46 447.46 989.82 449.63 995.81 456.68
  A 5.48 5.46 -22.2 0 0 1000.40 458.60
  Q 1001.48 458.52 1002.58 458.40
  Q 1004.93 458.13 1003.56 456.21
  Q 997.67 447.91 989.08 444.59
  C 975.09 439.18 957.51 444.59 951.65 458.66
  Q 948.16 467.05 950.26 475.80
  C 952.88 486.73 961.56 492.88 972.24 494.38
  C 981.78 495.72 992.97 494.23 1000.02 486.91
  C 1001.90 484.96 1006.24 481.41 1004.95 478.24
  C 1003.77 475.37 999.83 473.15 997.57 476.63
  C 994.69 481.10 991.75 484.50 986.82 487.05
  C 978.45 491.40 969.51 488.18 963.15 481.79
  Z
  M 683.70 450.33
  C 688.07 450.56 694.77 452.62 697.55 456.37
  Q 698.88 458.17 700.45 459.57
  Q 702.93 461.78 705.26 459.40
  Q 705.84 458.81 706.26 458.13
  Q 708.09 455.11 705.50 452.72
  Q 698.13 445.92 690.23 444.93
  C 677.63 443.35 662.93 445.03 656.43 456.83
  Q 651.86 465.12 652.94 474.78
  C 654.30 486.89 665.41 494.99 677.11 496.21
  Q 695.76 498.14 706.64 484.53
  Q 710.40 479.82 705.40 476.98
  C 702.29 475.21 699.72 479.55 698.18 481.65
  C 692.33 489.60 683.36 493.10 673.90 488.54
  C 664.18 483.86 659.12 475.12 662.82 464.42
  Q 667.99 449.53 683.70 450.33
  Z
  M 566.57 479.76
  Q 564.56 484.21 560.93 489.97
  C 559.80 491.75 560.61 494.00 562.55 494.79
  C 568.36 497.16 570.07 491.73 571.48 487.44
  C 573.59 481.03 579.80 480.22 585.66 480.83
  Q 588.07 481.08 590.32 480.56
  C 598.53 478.66 602.43 484.42 605.04 491.44
  Q 606.58 495.61 610.98 494.90
  Q 611.57 494.81 612.09 494.52
  Q 615.30 492.77 613.74 489.46
  Q 604.33 469.49 595.27 451.41
  C 593.48 447.84 589.71 443.54 585.45 445.82
  Q 582.57 447.36 580.58 451.06
  Q 573.89 463.54 566.57 479.76
  Z
  M 824.35 465.40
  C 816.61 465.23 816.46 452.83 823.32 451.94
  Q 830.14 451.05 838.59 451.62
  C 843.24 451.93 847.76 451.62 852.30 450.32
  Q 853.26 450.05 853.25 449.06
  L 853.24 445.93
  Q 853.24 445.28 852.59 445.28
  Q 834.45 445.19 816.42 445.26
  C 812.77 445.27 809.93 446.47 809.96 450.52
  Q 810.12 469.55 810.33 489.51
  Q 810.37 493.64 814.50 493.76
  Q 815.07 493.77 815.64 493.62
  Q 819.30 492.68 818.57 488.97
  C 815.88 475.27 821.55 470.66 834.66 471.53
  C 837.40 471.72 840.20 471.69 842.87 472.00
  A 5.81 5.81 0.0 0 0 848.07 469.84
  Q 848.96 468.71 849.62 467.88
  Q 851.62 465.36 848.40 465.42
  Q 835.66 465.65 824.35 465.40
  Z
  M 527.53 461.87
  C 528.17 451.35 521.69 446.99 512.02 446.41
  Q 506.31 446.06 500.30 445.81
  Q 493.86 445.54 488.13 446.37
  C 481.43 447.33 480.41 453.45 480.34 459.14
  Q 480.13 475.43 480.31 491.40
  Q 480.37 496.05 485.00 495.67
  Q 485.58 495.62 486.12 495.41
  Q 490.27 493.82 489.48 489.45
  C 487.65 479.32 490.90 474.22 501.69 474.72
  C 511.85 475.19 526.66 476.07 527.53 461.87
  Z
  M 763.0150 449.7774
  A 3.99 3.99 0.0 0 0 759.0041 445.8084
  L 758.2641 445.8123
  A 3.99 3.99 0.0 0 0 754.2951 449.8231
  L 754.5050 489.9226
  A 3.99 3.99 0.0 0 0 758.5159 493.8916
  L 759.2559 493.8877
  A 3.99 3.99 0.0 0 0 763.2249 489.8769
  L 763.0150 449.7774
  Z
  M 903.84 447.00
  C 893.53 446.08 896.67 459.00 897.53 464.45
  Q 898.27 469.16 897.90 472.28
  Q 897.31 477.22 896.61 482.29
  C 895.97 486.95 896.66 492.48 902.72 492.27
  C 905.96 492.16 907.09 489.16 906.94 486.40
  Q 906.70 482.01 906.27 477.66
  Q 906.00 474.96 906.54 472.43
  C 907.12 469.68 906.10 466.95 906.20 464.08
  Q 906.38 459.04 906.77 453.70
  C 906.91 451.64 906.54 447.24 903.84 447.00
  Z
  M 1107.18 520.21
  Q 1107.33 515.37 1107.09 510.48
  A 2.25 2.24 -7.3 0 0 1104.38 508.39
  C 1092.82 510.83 1077.78 514.94 1069.84 516.87
  Q 965.89 542.11 855.29 549.89
  Q 776.55 555.42 700.20 554.38
  Q 593.39 552.93 494.33 537.26
  Q 397.53 521.94 309.96 493.63
  Q 304.92 492.00 302.09 495.88
  Q 294.98 505.66 285.87 512.90
  Q 281.99 515.98 278.21 518.85
  Q 277.55 519.36 278.33 519.63
  Q 321.43 534.76 348.01 541.48
  Q 586.90 601.86 834.54 584.97
  Q 961.51 576.31 1087.88 548.12
  Q 1092.86 547.01 1097.77 544.73
  C 1107.21 540.33 1106.90 529.34 1107.18 520.21
  Z"
/>
<path fill="#ec1b23" d="
  M 1400.87 366.54
  C 1382.43 402.05 1353.72 430.24 1320.47 452.57
  Q 1294.38 470.09 1264.68 485.16
  C 1258.38 488.35 1256.13 481.55 1253.41 477.72
  C 1250.08 473.03 1243.71 468.39 1243.46 462.21
  C 1243.23 456.67 1249.36 453.13 1253.65 451.04
  Q 1265.69 445.20 1276.87 438.89
  Q 1308.57 420.99 1334.78 396.25
  C 1351.10 380.84 1365.63 362.76 1373.66 342.28
  C 1393.26 292.28 1366.77 249.66 1329.87 216.86
  C 1298.89 189.32 1262.61 168.93 1223.77 152.53
  C 1145.19 119.35 1060.96 97.47 975.98 84.82
  Q 873.79 69.61 768.06 67.64
  Q 752.46 67.35 737.09 67.29
  C 730.02 67.26 722.82 67.58 715.80 67.53
  C 709.70 67.49 703.73 67.75 697.63 67.90
  Q 559.13 71.34 424.21 100.05
  Q 379.38 109.59 334.69 123.42
  C 327.97 125.49 325.81 122.89 325.07 116.49
  Q 324.13 108.33 323.79 100.97
  C 323.38 92.25 328.11 88.94 335.73 86.76
  C 410.44 65.43 487.13 51.49 564.34 43.87
  C 621.70 38.21 679.19 35.41 736.57 34.74
  Q 744.99 34.64 753.28 34.55
  Q 881.39 33.07 1006.54 54.78
  Q 1099.20 70.87 1184.32 99.73
  C 1228.35 114.66 1270.51 133.44 1309.66 158.52
  Q 1336.12 175.48 1356.66 194.03
  C 1386.36 220.87 1410.38 256.59 1414.74 296.60
  C 1417.38 320.74 1412.08 344.94 1400.87 366.54
  Z"
/>
<ellipse fill="#0072bb" cx="0.00" cy="0.00" transform="translate(251.61,122.55) rotate(90.7)" rx="51.74" ry="51.61"/>
<path fill="#0072bb" d="
  M 957.78 332.07
  Q 956.98 331.08 956.98 332.36
  Q 957.09 364.97 956.92 396.43
  C 956.88 402.17 956.09 404.85 949.74 404.81
  Q 907.89 404.59 869.54 404.93
  Q 861.25 405.00 861.25 396.52
  Q 861.27 259.23 861.23 120.26
  C 861.23 115.81 862.83 111.37 868.07 111.17
  Q 875.99 110.87 886.91 111.08
  Q 917.19 111.67 945.63 110.75
  C 959.39 110.31 957.01 121.84 957.01 130.76
  Q 957.01 203.65 956.99 276.57
  Q 956.99 277.14 957.56 277.25
  L 959.41 277.62
  Q 960.02 277.74 960.30 277.18
  Q 977.96 241.75 995.77 206.35
  C 997.45 203.02 999.97 200.49 1003.95 200.49
  Q 1052.86 200.51 1102.93 200.49
  Q 1103.56 200.49 1103.22 201.02
  Q 1088.10 224.57 1073.57 246.83
  Q 1064.24 261.11 1053.75 274.73
  Q 1049.24 280.58 1046.92 287.04
  C 1043.40 296.79 1046.68 306.61 1052.36 314.89
  Q 1063.56 331.21 1072.89 346.82
  Q 1090.22 375.82 1106.96 404.27
  A 0.31 0.30 -16.1 0 1 1106.70 404.73
  Q 1102.27 404.87 1097.99 404.70
  Q 1082.47 404.08 1067.00 403.84
  Q 1053.84 403.63 1037.81 406.18
  Q 1031.09 407.25 1021.53 406.41
  C 996.10 404.18 982.10 386.77 975.72 363.41
  C 972.52 351.71 965.54 341.62 957.78 332.07
  Z"
/>
<path fill="#ec1b23" d="
  M 697.29 336.48
  Q 697.21 362.40 697.25 387.68
  C 697.26 393.88 699.43 404.23 690.02 404.87
  C 684.45 405.25 678.85 404.83 673.13 404.75
  C 653.66 404.47 635.21 404.56 616.69 405.04
  Q 611.91 405.17 609.58 403.94
  Q 605.56 401.81 605.55 396.96
  Q 605.45 367.64 605.52 337.75
  Q 605.52 337.26 605.52 336.00
  Q 605.77 268.45 605.78 204.25
  C 605.78 202.86 605.53 201.54 605.53 200.12
  Q 605.46 168.88 605.49 137.73
  C 605.50 132.82 607.34 128.17 613.03 127.89
  Q 618.60 127.61 625.32 127.82
  Q 656.00 128.77 686.67 127.55
  C 687.96 127.50 689.48 127.75 690.76 127.96
  C 694.97 128.65 696.85 131.71 697.23 135.70
  C 697.76 141.22 697.29 146.42 697.26 151.85
  C 697.05 196.09 697.56 240.24 699.87 284.50
  Q 699.95 285.98 700.64 284.67
  Q 706.72 273.32 713.07 261.63
  C 717.54 253.40 720.80 245.11 724.09 236.40
  Q 726.29 230.56 730.77 224.74
  C 739.94 212.82 754.07 210.08 768.24 211.63
  Q 783.52 213.30 794.63 213.15
  Q 810.35 212.94 825.55 212.54
  Q 831.52 212.39 837.12 212.51
  A 0.22 0.21 -72.9 0 1 837.29 212.84
  Q 827.32 228.42 817.36 244.39
  Q 809.00 257.78 801.76 266.30
  C 795.16 274.08 788.69 281.07 785.24 291.06
  C 779.81 306.78 787.87 321.19 796.99 333.35
  Q 807.26 347.04 817.52 364.53
  Q 829.29 384.58 840.91 404.29
  Q 841.21 404.80 840.61 404.80
  Q 791.99 404.59 743.24 404.94
  Q 739.76 404.97 738.32 404.55
  C 733.22 403.05 731.48 396.97 729.36 392.78
  C 719.54 373.40 709.68 354.37 697.86 336.32
  Q 697.30 335.46 697.29 336.48
  Z"
/>
<path fill="#ec1b23" d="
  M 97.62 348.96
  Q 101.03 355.82 106.35 363.79
  C 114.28 375.66 116.65 389.81 116.86 404.15
  Q 117.04 416.11 117.49 428.72
  Q 117.52 429.46 116.91 429.04
  C 114.89 427.63 112.97 425.84 110.98 424.08
  C 90.96 406.44 73.78 384.41 64.70 359.96
  Q 46.24 310.24 67.64 261.03
  C 79.69 233.34 100.37 209.52 124.10 189.81
  Q 147.97 169.97 175.07 153.89
  Q 181.65 149.98 185.74 156.25
  Q 190.21 163.12 194.04 170.53
  C 195.83 173.98 196.66 178.22 193.75 181.29
  Q 190.61 184.60 185.81 187.64
  C 162.89 202.13 140.63 218.43 123.13 238.24
  C 96.81 268.04 78.26 309.97 97.62 348.96
  Z"
/>
<path fill="#00a551" d="
  M 1191.06 336.30
  C 1194.63 332.77 1193.56 326.56 1189.75 323.78
  Q 1187.58 322.20 1184.66 321.63
  Q 1170.48 318.85 1157.66 316.57
  C 1131.85 311.97 1110.28 297.55 1105.93 270.47
  Q 1102.37 248.27 1113.64 229.24
  C 1119.98 218.55 1129.52 210.41 1140.82 204.27
  Q 1165.69 190.77 1195.53 189.17
  Q 1208.17 188.50 1218.31 189.24
  Q 1238.27 190.70 1258.94 194.70
  Q 1265.78 196.02 1271.05 197.85
  C 1280.83 201.23 1282.25 210.23 1282.47 219.56
  Q 1283.00 242.39 1282.68 271.22
  Q 1282.67 271.98 1282.01 271.60
  Q 1272.52 266.14 1262.11 261.21
  Q 1246.75 253.94 1230.03 252.38
  Q 1221.15 251.54 1214.11 254.28
  C 1206.31 257.30 1207.42 266.36 1214.92 268.50
  Q 1225.95 271.65 1242.41 275.80
  C 1255.62 279.13 1269.57 283.31 1279.38 291.83
  C 1290.01 301.07 1293.18 314.74 1293.27 328.59
  Q 1293.40 347.91 1283.24 363.48
  C 1272.55 379.85 1253.80 392.01 1235.25 398.27
  C 1218.39 403.95 1199.43 405.76 1181.51 404.77
  Q 1164.63 403.84 1148.15 401.96
  C 1139.18 400.93 1128.64 399.67 1120.96 394.68
  C 1113.45 389.80 1111.38 380.67 1110.52 372.07
  Q 1109.83 365.13 1109.79 358.31
  Q 1109.70 339.78 1109.76 318.98
  Q 1109.76 318.30 1110.32 318.69
  Q 1114.95 321.85 1119.51 324.86
  Q 1145.96 342.31 1177.41 340.61
  C 1181.74 340.37 1187.92 339.39 1191.06 336.30
  Z"
/>
<path fill="#00a551" d="
  M 477.64 389.63
  Q 477.77 388.93 477.18 389.32
  Q 465.67 396.84 453.77 401.79
  Q 429.23 411.99 401.67 407.53
  C 363.17 401.29 336.94 375.30 327.90 337.74
  Q 322.97 317.23 324.04 297.66
  C 325.41 272.63 335.04 245.54 351.91 227.08
  C 383.37 192.65 432.83 188.02 470.93 214.57
  C 472.97 215.99 475.17 216.79 477.32 217.93
  A 0.33 0.33 0.0 0 0 477.80 217.56
  C 475.44 207.65 477.71 200.35 489.28 200.71
  Q 526.20 201.85 559.73 200.77
  C 566.97 200.53 571.89 202.16 571.87 210.56
  Q 571.64 297.13 571.79 385.01
  Q 571.80 388.29 571.96 391.50
  C 572.37 399.76 571.35 405.79 561.30 405.50
  Q 525.57 404.47 489.50 405.56
  C 478.19 405.91 475.89 399.51 477.64 389.63
  Z
  M 474.32 287.37
  C 471.35 280.95 464.98 276.15 457.95 274.82
  C 443.86 272.17 430.81 279.50 426.48 293.15
  C 422.59 305.39 426.04 318.85 436.79 326.26
  C 445.82 332.49 458.66 332.23 467.14 325.31
  C 478.25 316.24 480.00 299.62 474.32 287.37
  Z"
/>
<path fill="#0072bb" d="
  M 289.15 468.47
  Q 269.74 503.33 231.23 511.29
  Q 213.94 514.86 193.18 511.26
  Q 167.73 506.86 145.41 497.41
  Q 138.96 494.68 137.76 489.32
  Q 137.21 486.90 137.38 479.07
  Q 137.70 464.69 137.59 450.44
  Q 137.40 426.57 137.56 415.10
  Q 137.59 413.41 138.77 411.98
  C 140.36 410.06 144.07 411.42 145.84 412.38
  Q 155.61 417.72 167.64 422.84
  Q 176.91 426.79 183.75 427.65
  C 207.39 430.61 206.82 400.87 206.88 386.13
  Q 207.24 300.13 206.75 211.68
  C 206.72 205.93 208.77 201.13 215.03 200.46
  C 219.58 199.98 224.26 200.38 228.87 200.49
  Q 259.23 201.23 291.03 200.21
  C 296.21 200.05 301.82 200.65 303.26 206.57
  C 304.32 210.96 303.84 215.73 303.79 220.44
  Q 303.51 250.05 303.47 280.50
  C 303.47 281.64 303.76 283.05 303.76 284.36
  Q 303.76 303.49 303.73 322.58
  C 303.73 323.87 303.43 325.22 303.44 326.42
  Q 303.71 362.06 303.68 392.50
  Q 303.66 413.38 300.38 433.89
  Q 297.16 454.09 289.15 468.47
  Z"
/>
<path fill="#fefefe" d="
  M 474.32 287.37
  C 480.00 299.62 478.25 316.24 467.14 325.31
  C 458.66 332.23 445.82 332.49 436.79 326.26
  C 426.04 318.85 422.59 305.39 426.48 293.15
  C 430.81 279.50 443.86 272.17 457.95 274.82
  C 464.98 276.15 471.35 280.95 474.32 287.37
  Z"
/>
<path fill="#b2b2b2" d="
  M 1228.64 484.57
  Q 1221.18 478.76 1214.78 474.93
  C 1205.82 469.56 1197.42 470.58 1188.74 475.69
  C 1179.89 480.90 1169.19 478.34 1161.70 470.98
  Q 1153.39 462.82 1144.04 455.13
  Q 1134.12 446.97 1127.78 439.36
  C 1121.75 432.11 1115.62 426.70 1105.56 427.07
  A 0.63 0.61 -14.9 0 1 1105.00 426.76
  L 1104.83 426.47
  C 1110.15 420.09 1119.26 413.82 1126.85 420.09
  C 1132.39 424.68 1133.85 431.70 1138.14 437.21
  Q 1143.47 444.04 1150.47 448.89
  Q 1159.93 455.43 1169.60 462.91
  C 1173.07 465.60 1176.02 461.07 1177.80 458.79
  Q 1179.02 457.23 1180.38 455.78
  Q 1194.62 440.49 1208.90 425.14
  C 1213.00 420.73 1217.74 414.16 1224.47 419.58
  C 1228.18 422.57 1227.85 426.24 1225.75 430.06
  Q 1218.46 443.29 1211.10 455.97
  A 0.88 0.88 0.0 0 0 1211.46 457.20
  C 1216.83 459.92 1222.64 462.23 1227.20 466.29
  C 1232.78 471.26 1231.92 478.42 1228.64 484.57
  Z"
/>
<path fill="#6d6e71" d="
  M 1104.83 426.47
  L 1105.00 426.76
  A 0.63 0.61 -14.9 0 0 1105.56 427.07
  C 1115.62 426.70 1121.75 432.11 1127.78 439.36
  Q 1134.12 446.97 1144.04 455.13
  Q 1153.39 462.82 1161.70 470.98
  C 1169.19 478.34 1179.89 480.90 1188.74 475.69
  C 1197.42 470.58 1205.82 469.56 1214.78 474.93
  Q 1221.18 478.76 1228.64 484.57
  Q 1224.99 492.56 1216.34 493.86
  Q 1212.15 494.49 1206.33 493.45
  C 1203.29 490.24 1201.18 487.23 1196.09 487.89
  Q 1191.59 488.48 1187.46 490.71
  Q 1187.06 490.94 1187.40 491.24
  L 1243.93 541.47
  Q 1237.86 545.88 1231.76 546.87
  C 1222.75 548.34 1218.55 540.79 1215.51 533.83
  C 1211.02 523.58 1201.78 516.96 1192.59 511.03
  Q 1185.70 506.59 1179.53 501.29
  A 2.44 2.43 40.4 0 0 1176.09 501.56
  Q 1162.25 517.94 1147.67 533.90
  Q 1145.82 535.94 1143.79 538.00
  Q 1139.15 542.74 1135.64 547.36
  Q 1131.78 552.47 1126.39 550.00
  C 1122.05 548.01 1118.57 543.61 1121.78 538.79
  Q 1125.42 533.33 1126.14 531.59
  Q 1137.76 531.05 1144.69 526.19
  Q 1152.00 521.06 1155.67 512.89
  Q 1160.60 501.89 1162.69 489.77
  A 0.54 0.54 0.0 0 0 1161.97 489.17
  Q 1157.98 490.63 1155.25 493.43
  C 1153.10 495.64 1150.70 498.39 1147.73 499.52
  Q 1145.98 500.19 1144.78 500.65
  Q 1140.86 499.26 1139.80 498.67
  Q 1130.55 493.51 1132.85 482.72
  Q 1133.04 481.80 1133.43 481.39
  Q 1138.40 483.17 1143.52 483.10
  Q 1148.59 483.03 1151.70 479.28
  C 1152.60 478.20 1152.35 476.75 1151.57 475.69
  Q 1149.32 472.61 1146.00 471.14
  Q 1139.04 464.00 1132.03 456.97
  Q 1123.71 448.63 1113.08 446.66
  C 1107.14 445.56 1103.69 441.82 1103.27 435.56
  Q 1103.02 431.80 1104.24 427.80
  Q 1104.43 427.16 1104.83 426.47
  Z"
/>
<path fill="#ec1b23" d="
  M 963.15 481.79
  C 969.51 488.18 978.45 491.40 986.82 487.05
  C 991.75 484.50 994.69 481.10 997.57 476.63
  C 999.83 473.15 1003.77 475.37 1004.95 478.24
  C 1006.24 481.41 1001.90 484.96 1000.02 486.91
  C 992.97 494.23 981.78 495.72 972.24 494.38
  C 961.56 492.88 952.88 486.73 950.26 475.80
  Q 948.16 467.05 951.65 458.66
  C 957.51 444.59 975.09 439.18 989.08 444.59
  Q 997.67 447.91 1003.56 456.21
  Q 1004.93 458.13 1002.58 458.40
  Q 1001.48 458.52 1000.40 458.60
  A 5.48 5.46 -22.2 0 1 995.81 456.68
  C 989.82 449.63 980.46 447.46 971.74 450.11
  C 965.09 452.13 961.48 457.14 959.34 463.50
  C 957.10 470.15 958.19 476.81 963.15 481.79
  Z"
/>
<path fill="#ec1b23" d="
  M 697.55 456.37
  C 694.77 452.62 688.07 450.56 683.70 450.33
  Q 667.99 449.53 662.82 464.42
  C 659.12 475.12 664.18 483.86 673.90 488.54
  C 683.36 493.10 692.33 489.60 698.18 481.65
  C 699.72 479.55 702.29 475.21 705.40 476.98
  Q 710.40 479.82 706.64 484.53
  Q 695.76 498.14 677.11 496.21
  C 665.41 494.99 654.30 486.89 652.94 474.78
  Q 651.86 465.12 656.43 456.83
  C 662.93 445.03 677.63 443.35 690.23 444.93
  Q 698.13 445.92 705.50 452.72
  Q 708.09 455.11 706.26 458.13
  Q 705.84 458.81 705.26 459.40
  Q 702.93 461.78 700.45 459.57
  Q 698.88 458.17 697.55 456.37
  Z"
/>
<path fill="#ec1b23" d="
  M 566.57 479.76
  Q 573.89 463.54 580.58 451.06
  Q 582.57 447.36 585.45 445.82
  C 589.71 443.54 593.48 447.84 595.27 451.41
  Q 604.33 469.49 613.74 489.46
  Q 615.30 492.77 612.09 494.52
  Q 611.57 494.81 610.98 494.90
  Q 606.58 495.61 605.04 491.44
  C 602.43 484.42 598.53 478.66 590.32 480.56
  Q 588.07 481.08 585.66 480.83
  C 579.80 480.22 573.59 481.03 571.48 487.44
  C 570.07 491.73 568.36 497.16 562.55 494.79
  C 560.61 494.00 559.80 491.75 560.93 489.97
  Q 564.56 484.21 566.57 479.76
  Z
  M 587.07 455.42
  C 583.77 460.68 580.00 466.74 579.44 473.01
  A 0.98 0.97 -77.8 0 0 580.08 474.02
  Q 586.99 476.43 594.80 473.92
  Q 595.28 473.77 595.26 473.27
  C 595.08 466.51 591.35 460.77 587.45 455.41
  A 0.23 0.23 0.0 0 0 587.07 455.42
  Z"
/>
<path fill="#ec1b23" d="
  M 823.32 451.94
  C 816.46 452.83 816.61 465.23 824.35 465.40
  Q 835.66 465.65 848.40 465.42
  Q 851.62 465.36 849.62 467.88
  Q 848.96 468.71 848.07 469.84
  A 5.81 5.81 0.0 0 1 842.87 472.00
  C 840.20 471.69 837.40 471.72 834.66 471.53
  C 821.55 470.66 815.88 475.27 818.57 488.97
  Q 819.30 492.68 815.64 493.62
  Q 815.07 493.77 814.50 493.76
  Q 810.37 493.64 810.33 489.51
  Q 810.12 469.55 809.96 450.52
  C 809.93 446.47 812.77 445.27 816.42 445.26
  Q 834.45 445.19 852.59 445.28
  Q 853.24 445.28 853.24 445.93
  L 853.25 449.06
  Q 853.26 450.05 852.30 450.32
  C 847.76 451.62 843.24 451.93 838.59 451.62
  Q 830.14 451.05 823.32 451.94
  Z"
/>
<path fill="#ec1b23" d="
  M 512.02 446.41
  C 521.69 446.99 528.17 451.35 527.53 461.87
  C 526.66 476.07 511.85 475.19 501.69 474.72
  C 490.90 474.22 487.65 479.32 489.48 489.45
  Q 490.27 493.82 486.12 495.41
  Q 485.58 495.62 485.00 495.67
  Q 480.37 496.05 480.31 491.40
  Q 480.13 475.43 480.34 459.14
  C 480.41 453.45 481.43 447.33 488.13 446.37
  Q 493.86 445.54 500.30 445.81
  Q 506.31 446.06 512.02 446.41
  Z
  M 518.08 463.10
  C 519.36 456.77 516.47 452.17 509.70 452.27
  Q 503.24 452.37 496.78 452.06
  C 492.55 451.85 489.65 453.20 489.12 457.90
  C 488.54 462.94 489.02 468.84 495.44 468.98
  Q 503.70 469.17 512.22 468.38
  Q 517.10 467.92 518.08 463.10
  Z"
/>
<rect fill="#ec1b23" x="-4.36" y="-24.04" transform="translate(758.76,469.85) rotate(-0.3)" width="8.72" height="48.08" rx="3.99"/>
<path fill="#ec1b23" d="
  M 897.53 464.45
  C 896.67 459.00 893.53 446.08 903.84 447.00
  C 906.54 447.24 906.91 451.64 906.77 453.70
  Q 906.38 459.04 906.20 464.08
  C 906.10 466.95 907.12 469.68 906.54 472.43
  Q 906.00 474.96 906.27 477.66
  Q 906.70 482.01 906.94 486.40
  C 907.09 489.16 905.96 492.16 902.72 492.27
  C 896.66 492.48 895.97 486.95 896.61 482.29
  Q 897.31 477.22 897.90 472.28
  Q 898.27 469.16 897.53 464.45
  Z"
/>
<path fill="#fefefe" d="
  M 509.70 452.27
  C 516.47 452.17 519.36 456.77 518.08 463.10
  Q 517.10 467.92 512.22 468.38
  Q 503.70 469.17 495.44 468.98
  C 489.02 468.84 488.54 462.94 489.12 457.90
  C 489.65 453.20 492.55 451.85 496.78 452.06
  Q 503.24 452.37 509.70 452.27
  Z"
/>
<path fill="#fefefe" d="
  M 579.44 473.01
  C 580.00 466.74 583.77 460.68 587.07 455.42
  A 0.23 0.23 0.0 0 1 587.45 455.41
  C 591.35 460.77 595.08 466.51 595.26 473.27
  Q 595.28 473.77 594.80 473.92
  Q 586.99 476.43 580.08 474.02
  A 0.98 0.97 -77.8 0 1 579.44 473.01
  Z"
/>
<path fill="#b2b2b2" d="
  M 1146.00 471.14
  Q 1149.32 472.61 1151.57 475.69
  C 1152.35 476.75 1152.60 478.20 1151.70 479.28
  Q 1148.59 483.03 1143.52 483.10
  Q 1138.40 483.17 1133.43 481.39
  Q 1134.07 477.61 1137.18 475.95
  Q 1141.65 473.58 1146.00 471.14
  Z"
/>
<path fill="#b2b2b2" d="
  M 1206.33 493.45
  Q 1214.31 507.75 1228.27 515.05
  Q 1230.57 516.25 1233.34 517.11
  C 1240.44 519.31 1248.11 523.18 1247.52 531.99
  Q 1247.19 536.97 1243.93 541.47
  L 1187.40 491.24
  Q 1187.06 490.94 1187.46 490.71
  Q 1191.59 488.48 1196.09 487.89
  C 1201.18 487.23 1203.29 490.24 1206.33 493.45
  Z"
/>
<path fill="#b2b2b2" d="
  M 1126.14 531.59
  Q 1128.11 524.77 1131.26 520.74
  Q 1139.58 510.09 1144.78 500.65
  Q 1145.98 500.19 1147.73 499.52
  C 1150.70 498.39 1153.10 495.64 1155.25 493.43
  Q 1157.98 490.63 1161.97 489.17
  A 0.54 0.54 0.0 0 1 1162.69 489.77
  Q 1160.60 501.89 1155.67 512.89
  Q 1152.00 521.06 1144.69 526.19
  Q 1137.76 531.05 1126.14 531.59
  Z"
/>
<path fill="#ec1b23" d="
  M 1107.18 520.21
  C 1106.90 529.34 1107.21 540.33 1097.77 544.73
  Q 1092.86 547.01 1087.88 548.12
  Q 961.51 576.31 834.54 584.97
  Q 586.90 601.86 348.01 541.48
  Q 321.43 534.76 278.33 519.63
  Q 277.55 519.36 278.21 518.85
  Q 281.99 515.98 285.87 512.90
  Q 294.98 505.66 302.09 495.88
  Q 304.92 492.00 309.96 493.63
  Q 397.53 521.94 494.33 537.26
  Q 593.39 552.93 700.20 554.38
  Q 776.55 555.42 855.29 549.89
  Q 965.89 542.11 1069.84 516.87
  C 1077.78 514.94 1092.82 510.83 1104.38 508.39
  A 2.25 2.24 -7.3 0 1 1107.09 510.48
  Q 1107.33 515.37 1107.18 520.21
  Z"
/>
</svg>
