<?xml version="1.0" encoding="UTF-8" standalone="no"?>
<!DOCTYPE svg PUBLIC "-//W3C//DTD SVG 1.1//EN" "http://www.w3.org/Graphics/SVG/1.1/DTD/svg11.dtd">
<svg xmlns="http://www.w3.org/2000/svg" version="1.1" viewBox="0.00 0.00 420.00 65.00">
<g stroke-width="2.00" fill="none" stroke-linecap="butt">
<path stroke="#a7a7a6" stroke-opacity="0.769" vector-effect="non-scaling-stroke" d="
  M 116.56 6.30
  L 118.24 10.26"
/>
<path stroke="#828282" stroke-opacity="0.984" vector-effect="non-scaling-stroke" d="
  M 118.24 10.26
  L 118.33 52.49"
/>
<path stroke="#949494" stroke-opacity="0.859" vector-effect="non-scaling-stroke" d="
  M 118.33 52.49
  L 118.32 55.69"
/>
<path stroke="#a7a7a6" stroke-opacity="0.769" vector-effect="non-scaling-stroke" d="
  M 118.32 55.69
  Q 117.88 56.32 117.76 56.90"
/>
<path stroke="#d8d8d8" stroke-opacity="0.592" vector-effect="non-scaling-stroke" d="
  M 117.76 56.90
  L 116.27 57.89"
/>
<path stroke="#d8d8d8" stroke-opacity="0.592" vector-effect="non-scaling-stroke" d="
  M 111.83 58.05
  L 109.45 58.07"
/>
<path stroke="#a7a7a6" stroke-opacity="0.769" vector-effect="non-scaling-stroke" d="
  M 109.45 58.07
  Q 107.60 57.84 106.39 58.16"
/>
<path stroke="#828282" stroke-opacity="0.984" vector-effect="non-scaling-stroke" d="
  M 106.39 58.16
  L 92.48 57.98
  A 2.77 2.76 0.3 0 1 89.74 55.22
  L 89.75 24.50
  A 0.50 0.50 0.0 0 0 89.25 24.00
  L 78.96 24.00
  A 0.73 0.73 0.0 0 0 78.25 24.55
  Q 78.14 24.96 78.34 25.42"
/>
<path stroke="#a7a7a6" stroke-opacity="0.769" vector-effect="non-scaling-stroke" d="
  M 78.34 25.42
  Q 78.20 25.91 78.30 26.33"
/>
<path stroke="#d8d8d8" stroke-opacity="0.592" vector-effect="non-scaling-stroke" d="
  M 78.30 26.33
  Q 78.30 26.43 78.30 26.53"
/>
<path stroke="#a7a7a6" stroke-opacity="0.769" vector-effect="non-scaling-stroke" d="
  M 78.30 26.53
  Q 78.26 26.77 78.32 26.98"
/>
<path stroke="#d8d8d8" stroke-opacity="0.592" vector-effect="non-scaling-stroke" d="
  M 78.32 26.98
  L 78.26 29.37"
/>
<path stroke="#d8d8d8" stroke-opacity="0.592" vector-effect="non-scaling-stroke" d="
  M 71.91 58.06
  L 68.30 58.06"
/>
<path stroke="#a7a7a6" stroke-opacity="0.769" vector-effect="non-scaling-stroke" d="
  M 68.30 58.06
  L 67.77 57.99"
/>
<path stroke="#949494" stroke-opacity="0.859" vector-effect="non-scaling-stroke" d="
  M 67.77 57.99
  L 52.29 57.87"
/>
<path stroke="#828282" stroke-opacity="0.984" vector-effect="non-scaling-stroke" d="
  M 52.29 57.87
  Q 50.50 56.91 50.50 54.75
  Q 50.54 39.67 50.49 24.56
  Q 50.49 24.05 49.98 24.06
  L 39.44 24.13"
/>
<path stroke="#a7a7a6" stroke-opacity="0.769" vector-effect="non-scaling-stroke" d="
  M 39.44 24.13
  Q 38.80 25.22 39.02 27.23"
/>
<path stroke="#d8d8d8" stroke-opacity="0.592" vector-effect="non-scaling-stroke" d="
  M 39.02 27.23
  Q 39.18 28.75 42.16 28.42
  Q 42.68 28.36 43.11 28.66
  Q 43.40 28.85 43.54 29.17
  Q 43.61 29.34 43.75 29.22
  Q 43.87 29.11 43.85 28.97
  Q 43.77 28.30 44.00 28.94
  Q 44.30 29.79 44.31 30.52
  Q 44.37 37.06 44.44 43.55
  Q 44.44 43.61 44.38 43.63
  Q 44.38 43.63 44.38 43.63
  Q 44.33 43.60 44.33 43.54
  Q 44.33 38.99 44.44 34.34
  Q 44.51 31.71 43.89 30.18
  Q 42.68 27.21 38.98 28.90"
/>
<path stroke="#d8d8d8" stroke-opacity="0.592" vector-effect="non-scaling-stroke" d="
  M 31.78 58.03
  L 31.22 57.98"
/>
<path stroke="#949494" stroke-opacity="0.859" vector-effect="non-scaling-stroke" d="
  M 31.22 57.98
  L 12.30 57.89"
/>
<path stroke="#828282" stroke-opacity="0.984" vector-effect="non-scaling-stroke" d="
  M 12.30 57.89
  C 11.12 57.18 10.52 56.63 10.52 55.14
  Q 10.51 33.10 10.51 11.08
  C 10.51 10.56 10.71 10.30 10.70 9.79"
/>
<path stroke="#949494" stroke-opacity="0.859" vector-effect="non-scaling-stroke" d="
  M 10.70 9.79
  Q 10.99 9.60 10.92 9.30"
/>
<path stroke="#a7a7a6" stroke-opacity="0.769" vector-effect="non-scaling-stroke" d="
  M 10.92 9.30
  L 12.05 6.63"
/>
<path stroke="#d8d8d8" stroke-opacity="0.592" vector-effect="non-scaling-stroke" d="
  M 12.05 6.63
  L 13.12 4.91"
/>
<path stroke="#9f9f9f" vector-effect="non-scaling-stroke" d="
  M 91.75 22.75
  L 91.75 55.50
  Q 91.75 56.00 92.25 56.00
  L 115.79 56.00
  A 0.47 0.46 0.0 0 0 116.26 55.54
  Q 116.24 35.71 116.27 12.64
  C 116.28 5.93 110.74 2.01 104.08 2.01
  Q 88.30 2.00 73.39 1.99
  Q 67.93 1.98 64.44 4.59
  Q 64.02 4.91 63.59 4.59
  Q 60.04 1.99 55.58 2.00
  Q 41.18 2.03 25.87 1.96
  C 18.17 1.91 12.40 5.27 12.46 13.76
  Q 12.60 36.35 12.49 55.70
  A 0.30 0.30 0.0 0 0 12.79 56.00
  L 36.50 56.00
  A 0.50 0.50 0.0 0 0 37.00 55.50
  L 37.00 22.25
  A 0.25 0.25 0.0 0 1 37.25 22.00
  L 52.01 22.00
  Q 52.52 22.00 52.52 22.51
  L 52.52 55.51
  A 0.49 0.49 0.0 0 0 53.01 56.00
  L 75.75 56.00
  A 0.51 0.50 0.0 0 0 76.26 55.50
  L 76.25 22.50
  A 0.50 0.50 0.0 0 1 76.75 22.00
  L 91.00 22.00
  Q 91.75 22.00 91.75 22.75"
/>
<path stroke="#d8d8d8" stroke-opacity="0.592" vector-effect="non-scaling-stroke" d="
  M 161.64 33.96
  L 163.68 33.93"
/>
<path stroke="#a7a7a6" stroke-opacity="0.769" vector-effect="non-scaling-stroke" d="
  M 163.68 33.93
  Q 164.64 34.07 165.17 33.96"
/>
<path stroke="#949494" stroke-opacity="0.859" vector-effect="non-scaling-stroke" d="
  M 165.17 33.96
  L 166.36 33.95"
/>
<path stroke="#828282" stroke-opacity="0.984" vector-effect="non-scaling-stroke" d="
  M 166.36 33.95
  L 168.91 33.97
  Q 169.43 33.97 169.43 33.44
  L 169.47 8.29"
/>
<path stroke="#949494" stroke-opacity="0.859" vector-effect="non-scaling-stroke" d="
  M 169.47 8.29
  Q 169.61 7.40 169.38 6.84"
/>
<path stroke="#a7a7a6" stroke-opacity="0.769" vector-effect="non-scaling-stroke" d="
  M 169.38 6.84
  Q 169.63 6.29 169.43 5.69"
/>
<path stroke="#d8d8d8" stroke-opacity="0.592" vector-effect="non-scaling-stroke" d="
  M 169.43 5.69
  L 169.47 3.27"
/>
<path stroke="#828282" stroke-opacity="0.984" vector-effect="non-scaling-stroke" d="
  M 196.95 11.03
  L 197.00 50.50"
/>
<path stroke="#949494" stroke-opacity="0.859" vector-effect="non-scaling-stroke" d="
  M 197.00 50.50
  L 195.67 52.65"
/>
<path stroke="#a7a7a6" stroke-opacity="0.769" vector-effect="non-scaling-stroke" d="
  M 195.67 52.65
  L 193.44 54.98"
/>
<path stroke="#d8d8d8" stroke-opacity="0.592" vector-effect="non-scaling-stroke" d="
  M 193.44 54.98
  Q 192.46 55.61 192.24 55.99"
/>
<path stroke="#d8d8d8" stroke-opacity="0.592" vector-effect="non-scaling-stroke" d="
  M 188.90 57.59
  Q 187.59 57.57 186.76 58.00"
/>
<path stroke="#a7a7a6" stroke-opacity="0.769" vector-effect="non-scaling-stroke" d="
  M 186.76 58.00
  L 179.66 57.94"
/>
<path stroke="#949494" stroke-opacity="0.859" vector-effect="non-scaling-stroke" d="
  M 179.66 57.94
  L 129.53 57.67"
/>
<path stroke="#828282" stroke-opacity="0.984" vector-effect="non-scaling-stroke" d="
  M 129.53 57.67
  Q 124.42 54.85 122.35 50.78
  Q 121.04 48.18 121.02 41.50
  Q 120.98 24.36 121.00 7.36"
/>
<path stroke="#a7a7a6" stroke-opacity="0.769" vector-effect="non-scaling-stroke" d="
  M 121.00 7.36
  L 120.95 5.52"
/>
<path stroke="#9b9b9b" vector-effect="non-scaling-stroke" d="
  M 147.75 35.25
  L 147.75 2.75
  A 0.75 0.75 0.0 0 0 147.00 2.00
  L 123.69 2.00
  A 0.71 0.71 0.0 0 0 122.98 2.71
  Q 123.06 22.59 122.96 44.18
  C 122.92 51.70 127.82 56.10 135.22 56.06
  Q 162.27 55.92 185.15 56.03
  C 188.72 56.05 195.01 53.19 195.01 48.85
  Q 194.99 24.26 195.00 2.69
  A 0.69 0.69 0.0 0 0 194.31 2.00
  L 172.01 2.00
  Q 171.52 2.00 171.52 2.49
  L 171.52 35.49
  Q 171.52 36.00 171.01 36.00
  L 148.50 36.00
  Q 147.75 36.00 147.75 35.25"
/>
<path stroke="#949494" stroke-opacity="0.859" vector-effect="non-scaling-stroke" d="
  M 272.78 7.51
  L 273.18 15.34"
/>
<path stroke="#828282" stroke-opacity="0.984" vector-effect="non-scaling-stroke" d="
  M 273.18 15.34
  Q 272.94 16.46 272.96 19.00
  Q 272.96 20.32 271.03 21.01"
/>
<path stroke="#a7a7a6" stroke-opacity="0.769" vector-effect="non-scaling-stroke" d="
  M 271.03 21.01
  L 227.32 21.09
  Q 226.80 21.09 226.80 21.61
  L 226.76 24.67"
/>
<path stroke="#d8d8d8" stroke-opacity="0.592" vector-effect="non-scaling-stroke" d="
  M 226.76 24.67
  L 226.67 36.30
  Q 226.67 36.58 226.95 36.56
  L 228.21 36.48
  Q 228.48 36.46 228.44 36.19
  Q 228.07 33.50 228.67 30.54"
/>
<path stroke="#a7a7a6" stroke-opacity="0.769" vector-effect="non-scaling-stroke" d="
  M 228.67 30.54
  Q 227.27 37.86 230.52 36.43"
/>
<path stroke="#828282" stroke-opacity="0.984" vector-effect="non-scaling-stroke" d="
  M 230.52 36.43
  L 234.19 36.61
  Q 235.06 36.65 234.52 35.97
  L 234.32 35.72
  A 1.35 1.34 25.7 0 1 234.04 34.93
  L 233.92 27.29"
/>
<path stroke="#a7a7a6" stroke-opacity="0.769" vector-effect="non-scaling-stroke" d="
  M 233.92 27.29
  L 234.06 24.21
  A 2.33 2.33 0.0 0 1 236.40 22.00
  L 271.82 22.22"
/>
<path stroke="#828282" stroke-opacity="0.984" vector-effect="non-scaling-stroke" d="
  M 271.82 22.22
  Q 272.98 23.21 272.98 24.00
  Q 273.01 35.84 272.99 47.73
  Q 272.99 50.04 272.12 51.54
  Q 271.04 53.41 269.49 54.65"
/>
<path stroke="#a7a7a6" stroke-opacity="0.769" vector-effect="non-scaling-stroke" d="
  M 269.49 54.65
  L 268.46 55.62"
/>
<path stroke="#d8d8d8" stroke-opacity="0.592" vector-effect="non-scaling-stroke" d="
  M 268.46 55.62
  Q 265.28 57.70 261.44 58.04"
/>
<path stroke="#a7a7a6" stroke-opacity="0.769" vector-effect="non-scaling-stroke" d="
  M 261.44 58.04
  L 258.60 58.02"
/>
<path stroke="#949494" stroke-opacity="0.859" vector-effect="non-scaling-stroke" d="
  M 258.60 58.02
  Q 234.69 58.04 211.12 57.94
  C 209.18 57.93 207.58 57.47 205.75 56.96"
/>
<path stroke="#828282" stroke-opacity="0.984" vector-effect="non-scaling-stroke" d="
  M 205.75 56.96
  C 203.16 55.53 199.97 52.93 199.98 50.50
  Q 200.04 28.92 199.97 7.26"
/>
<path stroke="#969696" vector-effect="non-scaling-stroke" d="
  M 247.00 38.51
  L 225.00 38.51
  Q 224.74 38.51 224.74 38.25
  L 224.75 19.75
  A 0.75 0.75 0.0 0 1 225.50 19.00
  L 270.47 19.00
  Q 271.06 19.00 271.04 18.41
  Q 270.91 14.50 271.06 10.63
  C 271.28 5.19 264.98 2.03 260.42 2.02
  Q 234.96 1.96 211.78 2.03
  C 208.65 2.04 202.00 4.09 202.00 8.15
  Q 202.01 28.24 202.00 50.44
  Q 202.00 51.05 202.36 51.55
  C 204.47 54.46 207.69 56.01 211.26 56.00
  Q 236.59 56.00 261.43 56.00
  C 265.21 56.00 271.05 52.42 271.03 48.11
  Q 270.96 35.27 271.02 24.56
  Q 271.02 24.00 270.46 24.00
  L 236.50 24.00
  A 0.50 0.50 0.0 0 0 236.00 24.50
  L 236.00 35.00
  Q 236.00 35.74 236.75 35.74
  L 247.00 35.75
  Q 247.26 35.75 247.26 36.00
  L 247.26 38.25
  Q 247.26 38.51 247.00 38.51"
/>
<path stroke="#828282" stroke-opacity="0.984" vector-effect="non-scaling-stroke" d="
  M 341.92 9.97
  Q 342.18 14.79 341.95 17.00
  Q 341.74 18.91 339.48 19.03"
/>
<path stroke="#a7a7a6" stroke-opacity="0.769" vector-effect="non-scaling-stroke" d="
  M 339.48 19.03
  L 333.04 19.08"
/>
<path stroke="#828282" stroke-opacity="0.984" vector-effect="non-scaling-stroke" d="
  M 333.04 19.08
  L 304.52 19.05
  Q 304.16 19.05 304.03 19.40
  Q 303.96 19.56 303.97 19.74
  Q 303.99 20.19 304.42 20.26
  Q 304.95 20.35 305.35 20.23"
/>
<path stroke="#a7a7a6" stroke-opacity="0.769" vector-effect="non-scaling-stroke" d="
  M 305.35 20.23
  L 340.25 20.26"
/>
<path stroke="#828282" stroke-opacity="0.984" vector-effect="non-scaling-stroke" d="
  M 340.25 20.26
  Q 341.76 21.01 341.92 22.85
  Q 342.14 25.41 341.97 35.01
  Q 341.94 36.71 339.48 37.12"
/>
<path stroke="#828282" stroke-opacity="0.984" vector-effect="non-scaling-stroke" d="
  M 332.22 37.24
  L 304.35 37.20
  Q 304.13 37.20 304.11 37.41
  L 304.06 37.70
  Q 304.04 37.90 304.24 37.90
  L 331.98 37.90"
/>
<path stroke="#828282" stroke-opacity="0.984" vector-effect="non-scaling-stroke" d="
  M 340.53 37.95
  Q 341.94 38.98 341.99 40.25
  Q 342.26 46.87 341.77 57.43"
/>
<path stroke="#d8d8d8" stroke-opacity="0.592" vector-effect="non-scaling-stroke" d="
  M 341.77 57.43
  L 332.71 57.96"
/>
<path stroke="#a7a7a6" stroke-opacity="0.769" vector-effect="non-scaling-stroke" d="
  M 332.71 57.96
  L 330.39 58.03"
/>
<path stroke="#949494" stroke-opacity="0.859" vector-effect="non-scaling-stroke" d="
  M 330.39 58.03
  Q 304.28 58.03 278.61 57.94
  C 277.67 57.94 277.12 57.57 276.29 57.26"
/>
<path stroke="#828282" stroke-opacity="0.984" vector-effect="non-scaling-stroke" d="
  M 276.29 57.26
  Q 275.59 56.60 275.59 56.00
  Q 275.44 41.55 275.52 6.20"
/>
<path stroke="#909090" vector-effect="non-scaling-stroke" d="
  M 301.98 35.42
  A 0.43 0.43 0.0 0 1 302.41 34.99
  L 339.58 35.00
  A 0.43 0.43 0.0 0 0 340.01 34.57
  L 339.99 22.69
  A 0.43 0.43 0.0 0 0 339.56 22.26
  L 302.42 22.26
  A 0.43 0.43 0.0 0 1 301.99 21.83
  L 301.99 17.43
  A 0.43 0.43 0.0 0 1 302.42 17.00
  L 339.58 17.00
  A 0.43 0.43 0.0 0 0 340.01 16.57
  L 339.97 2.43
  A 0.43 0.43 0.0 0 0 339.54 2.00
  L 277.95 2.00
  A 0.43 0.43 0.0 0 0 277.52 2.43
  L 277.52 55.57
  A 0.43 0.43 0.0 0 0 277.95 56.00
  L 339.57 56.00
  A 0.43 0.43 0.0 0 0 340.00 55.57
  L 340.00 40.17
  A 0.43 0.43 0.0 0 0 339.57 39.74
  L 302.44 39.75
  A 0.43 0.43 0.0 0 1 302.01 39.32
  L 301.98 35.42"
/>
<path stroke="#d8d8d8" stroke-opacity="0.592" vector-effect="non-scaling-stroke" d="
  M 413.36 58.05
  L 411.22 58.03"
/>
<path stroke="#a7a7a6" stroke-opacity="0.769" vector-effect="non-scaling-stroke" d="
  M 411.22 58.03
  L 407.56 57.93"
/>
<path stroke="#949494" stroke-opacity="0.859" vector-effect="non-scaling-stroke" d="
  M 407.56 57.93
  L 391.45 57.49"
/>
<path stroke="#828282" stroke-opacity="0.984" vector-effect="non-scaling-stroke" d="
  M 391.45 57.49
  L 391.23 24.55
  Q 391.23 24.04 390.72 24.04
  L 381.04 24.08"
/>
<path stroke="#949494" stroke-opacity="0.859" vector-effect="non-scaling-stroke" d="
  M 381.04 24.08
  L 373.48 24.11"
/>
<path stroke="#a7a7a6" stroke-opacity="0.769" vector-effect="non-scaling-stroke" d="
  M 373.48 24.11
  Q 372.81 24.69 373.06 26.54"
/>
<path stroke="#d8d8d8" stroke-opacity="0.592" vector-effect="non-scaling-stroke" d="
  M 373.06 26.54
  L 373.01 28.89"
/>
<path stroke="#d8d8d8" stroke-opacity="0.592" vector-effect="non-scaling-stroke" d="
  M 366.22 58.05
  L 362.33 58.04"
/>
<path stroke="#a7a7a6" stroke-opacity="0.769" vector-effect="non-scaling-stroke" d="
  M 362.33 58.04
  L 358.94 58.02"
/>
<path stroke="#828282" stroke-opacity="0.984" vector-effect="non-scaling-stroke" d="
  M 358.94 58.02
  L 347.26 57.96
  A 2.80 2.79 -89.9 0 1 344.48 55.16
  L 344.48 5.95"
/>
<path stroke="#909090" vector-effect="non-scaling-stroke" d="
  M 393.26 22.63
  L 393.26 55.75
  A 0.25 0.24 90.0 0 0 393.50 56.00
  L 417.46 56.00
  A 0.57 0.56 -90.0 0 0 418.02 55.43
  Q 417.94 35.94 418.07 14.76
  Q 418.09 10.47 416.64 7.74
  Q 413.61 2.03 405.91 2.02
  Q 375.53 1.97 347.09 1.98
  A 0.57 0.57 0.0 0 0 346.52 2.55
  L 346.52 55.76
  A 0.24 0.24 0.0 0 0 346.76 56.00
  L 370.50 56.00
  A 0.50 0.50 0.0 0 0 371.00 55.50
  L 371.00 22.25
  A 0.25 0.25 0.0 0 1 371.25 22.00
  L 392.63 22.00
  Q 393.26 22.00 393.26 22.63"
/>
</g>
<path fill="#ffffff" d="
  M 22.90 0.00
  L 57.00 0.00
  Q 60.62 0.47 63.58 2.23
  Q 64.00 2.48 64.43 2.24
  Q 67.62 0.43 71.40 0.00
  L 106.00 0.00
  Q 112.78 0.84 116.56 6.30
  L 118.24 10.26
  L 118.33 52.49
  L 118.32 55.69
  Q 117.88 56.32 117.76 56.90
  L 116.27 57.89
  L 111.83 58.05
  L 109.45 58.07
  Q 107.60 57.84 106.39 58.16
  L 92.48 57.98
  A 2.77 2.76 0.3 0 1 89.74 55.22
  L 89.75 24.50
  A 0.50 0.50 0.0 0 0 89.25 24.00
  L 78.96 24.00
  A 0.73 0.73 0.0 0 0 78.25 24.55
  Q 78.14 24.96 78.34 25.42
  Q 78.20 25.91 78.30 26.33
  Q 78.30 26.43 78.30 26.53
  Q 78.26 26.77 78.32 26.98
  L 78.26 29.37
  L 78.25 55.18
  A 2.78 2.78 0.0 0 1 75.54 57.96
  L 71.91 58.06
  L 68.30 58.06
  L 67.77 57.99
  L 52.29 57.87
  Q 50.50 56.91 50.50 54.75
  Q 50.54 39.67 50.49 24.56
  Q 50.49 24.05 49.98 24.06
  L 39.44 24.13
  Q 38.80 25.22 39.02 27.23
  Q 39.18 28.75 42.16 28.42
  Q 42.68 28.36 43.11 28.66
  Q 43.40 28.85 43.54 29.17
  Q 43.61 29.34 43.75 29.22
  Q 43.87 29.11 43.85 28.97
  Q 43.77 28.30 44.00 28.94
  Q 44.30 29.79 44.31 30.52
  Q 44.37 37.06 44.44 43.55
  Q 44.44 43.61 44.38 43.63
  Q 44.38 43.63 44.38 43.63
  Q 44.33 43.60 44.33 43.54
  Q 44.33 38.99 44.44 34.34
  Q 44.51 31.71 43.89 30.18
  Q 42.68 27.21 38.98 28.90
  Q 39.00 42.69 38.91 55.50
  C 38.89 58.98 33.95 58.00 31.78 58.03
  L 31.22 57.98
  L 12.30 57.89
  C 11.12 57.18 10.52 56.63 10.52 55.14
  Q 10.51 33.10 10.51 11.08
  C 10.51 10.56 10.71 10.30 10.70 9.79
  Q 10.99 9.60 10.92 9.30
  L 12.05 6.63
  L 13.12 4.91
  Q 16.82 0.80 22.90 0.00
  Z
  M 91.75 22.75
  L 91.75 55.50
  Q 91.75 56.00 92.25 56.00
  L 115.79 56.00
  A 0.47 0.46 0.0 0 0 116.26 55.54
  Q 116.24 35.71 116.27 12.64
  C 116.28 5.93 110.74 2.01 104.08 2.01
  Q 88.30 2.00 73.39 1.99
  Q 67.93 1.98 64.44 4.59
  Q 64.02 4.91 63.59 4.59
  Q 60.04 1.99 55.58 2.00
  Q 41.18 2.03 25.87 1.96
  C 18.17 1.91 12.40 5.27 12.46 13.76
  Q 12.60 36.35 12.49 55.70
  A 0.30 0.30 0.0 0 0 12.79 56.00
  L 36.50 56.00
  A 0.50 0.50 0.0 0 0 37.00 55.50
  L 37.00 22.25
  A 0.25 0.25 0.0 0 1 37.25 22.00
  L 52.01 22.00
  Q 52.52 22.00 52.52 22.51
  L 52.52 55.51
  A 0.49 0.49 0.0 0 0 53.01 56.00
  L 75.75 56.00
  A 0.51 0.50 0.0 0 0 76.26 55.50
  L 76.25 22.50
  A 0.50 0.50 0.0 0 1 76.75 22.00
  L 91.00 22.00
  Q 91.75 22.00 91.75 22.75
  Z"
/>
<path fill="#ffffff" d="
  M 122.89 0.00
  L 147.01 0.00
  Q 149.75 0.50 149.75 3.25
  Q 149.72 18.34 149.75 33.44
  Q 149.75 33.95 150.26 33.95
  L 161.64 33.96
  L 163.68 33.93
  Q 164.64 34.07 165.17 33.96
  L 166.36 33.95
  L 168.91 33.97
  Q 169.43 33.97 169.43 33.44
  L 169.47 8.29
  Q 169.61 7.40 169.38 6.84
  Q 169.63 6.29 169.43 5.69
  L 169.47 3.27
  Q 169.21 1.02 171.93 0.00
  L 195.75 0.00
  Q 197.86 3.74 196.95 11.03
  L 197.00 50.50
  L 195.67 52.65
  L 193.44 54.98
  Q 192.46 55.61 192.24 55.99
  L 188.90 57.59
  Q 187.59 57.57 186.76 58.00
  L 179.66 57.94
  L 129.53 57.67
  Q 124.42 54.85 122.35 50.78
  Q 121.04 48.18 121.02 41.50
  Q 120.98 24.36 121.00 7.36
  L 120.95 5.52
  C 120.96 3.44 120.44 1.03 122.89 0.00
  Z
  M 147.75 35.25
  L 147.75 2.75
  A 0.75 0.75 0.0 0 0 147.00 2.00
  L 123.69 2.00
  A 0.71 0.71 0.0 0 0 122.98 2.71
  Q 123.06 22.59 122.96 44.18
  C 122.92 51.70 127.82 56.10 135.22 56.06
  Q 162.27 55.92 185.15 56.03
  C 188.72 56.05 195.01 53.19 195.01 48.85
  Q 194.99 24.26 195.00 2.69
  A 0.69 0.69 0.0 0 0 194.31 2.00
  L 172.01 2.00
  Q 171.52 2.00 171.52 2.49
  L 171.52 35.49
  Q 171.52 36.00 171.01 36.00
  L 148.50 36.00
  Q 147.75 36.00 147.75 35.25
  Z"
/>
<path fill="#ffffff" d="
  M 211.10 0.00
  L 261.47 0.00
  Q 269.25 0.92 272.78 7.51
  L 273.18 15.34
  Q 272.94 16.46 272.96 19.00
  Q 272.96 20.32 271.03 21.01
  L 227.32 21.09
  Q 226.80 21.09 226.80 21.61
  L 226.76 24.67
  L 226.67 36.30
  Q 226.67 36.58 226.95 36.56
  L 228.21 36.48
  Q 228.48 36.46 228.44 36.19
  Q 228.07 33.50 228.67 30.54
  Q 227.27 37.86 230.52 36.43
  L 234.19 36.61
  Q 235.06 36.65 234.52 35.97
  L 234.32 35.72
  A 1.35 1.34 25.7 0 1 234.04 34.93
  L 233.92 27.29
  L 234.06 24.21
  A 2.33 2.33 0.0 0 1 236.40 22.00
  L 271.82 22.22
  Q 272.98 23.21 272.98 24.00
  Q 273.01 35.84 272.99 47.73
  Q 272.99 50.04 272.12 51.54
  Q 271.04 53.41 269.49 54.65
  L 268.46 55.62
  Q 265.28 57.70 261.44 58.04
  L 258.60 58.02
  Q 234.69 58.04 211.12 57.94
  C 209.18 57.93 207.58 57.47 205.75 56.96
  C 203.16 55.53 199.97 52.93 199.98 50.50
  Q 200.04 28.92 199.97 7.26
  Q 200.53 4.77 202.81 3.06
  Q 206.37 0.40 211.10 0.00
  Z
  M 247.00 38.51
  L 225.00 38.51
  Q 224.74 38.51 224.74 38.25
  L 224.75 19.75
  A 0.75 0.75 0.0 0 1 225.50 19.00
  L 270.47 19.00
  Q 271.06 19.00 271.04 18.41
  Q 270.91 14.50 271.06 10.63
  C 271.28 5.19 264.98 2.03 260.42 2.02
  Q 234.96 1.96 211.78 2.03
  C 208.65 2.04 202.00 4.09 202.00 8.15
  Q 202.01 28.24 202.00 50.44
  Q 202.00 51.05 202.36 51.55
  C 204.47 54.46 207.69 56.01 211.26 56.00
  Q 236.59 56.00 261.43 56.00
  C 265.21 56.00 271.05 52.42 271.03 48.11
  Q 270.96 35.27 271.02 24.56
  Q 271.02 24.00 270.46 24.00
  L 236.50 24.00
  A 0.50 0.50 0.0 0 0 236.00 24.50
  L 236.00 35.00
  Q 236.00 35.74 236.75 35.74
  L 247.00 35.75
  Q 247.26 35.75 247.26 36.00
  L 247.26 38.25
  Q 247.26 38.51 247.00 38.51
  Z"
/>
<path fill="#ffffff" d="
  M 277.89 0.00
  L 340.59 0.00
  Q 342.89 2.48 341.92 9.97
  Q 342.18 14.79 341.95 17.00
  Q 341.74 18.91 339.48 19.03
  L 333.04 19.08
  L 304.52 19.05
  Q 304.16 19.05 304.03 19.40
  Q 303.96 19.56 303.97 19.74
  Q 303.99 20.19 304.42 20.26
  Q 304.95 20.35 305.35 20.23
  L 340.25 20.26
  Q 341.76 21.01 341.92 22.85
  Q 342.14 25.41 341.97 35.01
  Q 341.94 36.71 339.48 37.12
  L 332.22 37.24
  L 304.35 37.20
  Q 304.13 37.20 304.11 37.41
  L 304.06 37.70
  Q 304.04 37.90 304.24 37.90
  L 331.98 37.90
  L 340.53 37.95
  Q 341.94 38.98 341.99 40.25
  Q 342.26 46.87 341.77 57.43
  L 332.71 57.96
  L 330.39 58.03
  Q 304.28 58.03 278.61 57.94
  C 277.67 57.94 277.12 57.57 276.29 57.26
  Q 275.59 56.60 275.59 56.00
  Q 275.44 41.55 275.52 6.20
  L 275.67 1.95
  A 1.03 1.02 -15.5 0 1 276.14 1.13
  L 277.89 0.00
  Z
  M 301.98 35.42
  A 0.43 0.43 0.0 0 1 302.41 34.99
  L 339.58 35.00
  A 0.43 0.43 0.0 0 0 340.01 34.57
  L 339.99 22.69
  A 0.43 0.43 0.0 0 0 339.56 22.26
  L 302.42 22.26
  A 0.43 0.43 0.0 0 1 301.99 21.83
  L 301.99 17.43
  A 0.43 0.43 0.0 0 1 302.42 17.00
  L 339.58 17.00
  A 0.43 0.43 0.0 0 0 340.01 16.57
  L 339.97 2.43
  A 0.43 0.43 0.0 0 0 339.54 2.00
  L 277.95 2.00
  A 0.43 0.43 0.0 0 0 277.52 2.43
  L 277.52 55.57
  A 0.43 0.43 0.0 0 0 277.95 56.00
  L 339.57 56.00
  A 0.43 0.43 0.0 0 0 340.00 55.57
  L 340.00 40.17
  A 0.43 0.43 0.0 0 0 339.57 39.74
  L 302.44 39.75
  A 0.43 0.43 0.0 0 1 302.01 39.32
  L 301.98 35.42
  Z"
/>
<path fill="#ffffff" d="
  M 346.89 0.00
  L 407.49 0.00
  Q 417.75 1.24 420.00 11.38
  L 420.00 56.23
  Q 419.26 58.02 417.25 57.99
  Q 415.21 57.96 413.36 58.05
  L 411.22 58.03
  L 407.56 57.93
  L 391.45 57.49
  L 391.23 24.55
  Q 391.23 24.04 390.72 24.04
  L 381.04 24.08
  L 373.48 24.11
  Q 372.81 24.69 373.06 26.54
  L 373.01 28.89
  Q 372.99 41.95 373.04 55.25
  C 373.05 57.31 371.81 57.94 369.88 57.97
  Q 367.90 58.01 366.22 58.05
  L 362.33 58.04
  L 358.94 58.02
  L 347.26 57.96
  A 2.80 2.79 -89.9 0 1 344.48 55.16
  L 344.48 5.95
  Q 344.34 4.10 344.62 2.35
  C 344.84 0.94 345.71 0.54 346.89 0.00
  Z
  M 393.26 22.63
  L 393.26 55.75
  A 0.25 0.24 90.0 0 0 393.50 56.00
  L 417.46 56.00
  A 0.57 0.56 -90.0 0 0 418.02 55.43
  Q 417.94 35.94 418.07 14.76
  Q 418.09 10.47 416.64 7.74
  Q 413.61 2.03 405.91 2.02
  Q 375.53 1.97 347.09 1.98
  A 0.57 0.57 0.0 0 0 346.52 2.55
  L 346.52 55.76
  A 0.24 0.24 0.0 0 0 346.76 56.00
  L 370.50 56.00
  A 0.50 0.50 0.0 0 0 371.00 55.50
  L 371.00 22.25
  A 0.25 0.25 0.0 0 1 371.25 22.00
  L 392.63 22.00
  Q 393.26 22.00 393.26 22.63
  Z"
/>
<path fill="#3e3e3e" d="
  M 91.00 22.00
  L 76.75 22.00
  A 0.50 0.50 0.0 0 0 76.25 22.50
  L 76.26 55.50
  A 0.51 0.50 0.0 0 1 75.75 56.00
  L 53.01 56.00
  A 0.49 0.49 0.0 0 1 52.52 55.51
  L 52.52 22.51
  Q 52.52 22.00 52.01 22.00
  L 37.25 22.00
  A 0.25 0.25 0.0 0 0 37.00 22.25
  L 37.00 55.50
  A 0.50 0.50 0.0 0 1 36.50 56.00
  L 12.79 56.00
  A 0.30 0.30 0.0 0 1 12.49 55.70
  Q 12.60 36.35 12.46 13.76
  C 12.40 5.27 18.17 1.91 25.87 1.96
  Q 41.18 2.03 55.58 2.00
  Q 60.04 1.99 63.59 4.59
  Q 64.02 4.91 64.44 4.59
  Q 67.93 1.98 73.39 1.99
  Q 88.30 2.00 104.08 2.01
  C 110.74 2.01 116.28 5.93 116.27 12.64
  Q 116.24 35.71 116.26 55.54
  A 0.47 0.46 -0.0 0 1 115.79 56.00
  L 92.25 56.00
  Q 91.75 56.00 91.75 55.50
  L 91.75 22.75
  Q 91.75 22.00 91.00 22.00
  Z"
/>
<path fill="#373737" d="
  M 148.50 36.00
  L 171.01 36.00
  Q 171.52 36.00 171.52 35.49
  L 171.52 2.49
  Q 171.52 2.00 172.01 2.00
  L 194.31 2.00
  A 0.69 0.69 0.0 0 1 195.00 2.69
  Q 194.99 24.26 195.01 48.85
  C 195.01 53.19 188.72 56.05 185.15 56.03
  Q 162.27 55.92 135.22 56.06
  C 127.82 56.10 122.92 51.70 122.96 44.18
  Q 123.06 22.59 122.98 2.71
  A 0.71 0.71 0.0 0 1 123.69 2.00
  L 147.00 2.00
  A 0.75 0.75 0.0 0 1 147.75 2.75
  L 147.75 35.25
  Q 147.75 36.00 148.50 36.00
  Z"
/>
<path fill="#2d2d2d" d="
  M 247.00 38.51
  Q 247.26 38.51 247.26 38.25
  L 247.26 36.00
  Q 247.26 35.75 247.00 35.75
  L 236.75 35.74
  Q 236.00 35.74 236.00 35.00
  L 236.00 24.50
  A 0.50 0.50 0.0 0 1 236.50 24.00
  L 270.46 24.00
  Q 271.02 24.00 271.02 24.56
  Q 270.96 35.27 271.03 48.11
  C 271.05 52.42 265.21 56.00 261.43 56.00
  Q 236.59 56.00 211.26 56.00
  C 207.69 56.01 204.47 54.46 202.36 51.55
  Q 202.00 51.05 202.00 50.44
  Q 202.01 28.24 202.00 8.15
  C 202.00 4.09 208.65 2.04 211.78 2.03
  Q 234.96 1.96 260.42 2.02
  C 264.98 2.03 271.28 5.19 271.06 10.63
  Q 270.91 14.50 271.04 18.41
  Q 271.06 19.00 270.47 19.00
  L 225.50 19.00
  A 0.75 0.75 0.0 0 0 224.75 19.75
  L 224.74 38.25
  Q 224.74 38.51 225.00 38.51
  L 247.00 38.51
  Z"
/>
<path fill="#212121" d="
  M 301.98 35.42
  L 302.01 39.32
  A 0.43 0.43 0.0 0 0 302.44 39.75
  L 339.57 39.74
  A 0.43 0.43 0.0 0 1 340.00 40.17
  L 340.00 55.57
  A 0.43 0.43 0.0 0 1 339.57 56.00
  L 277.95 56.00
  A 0.43 0.43 0.0 0 1 277.52 55.57
  L 277.52 2.43
  A 0.43 0.43 0.0 0 1 277.95 2.00
  L 339.54 2.00
  A 0.43 0.43 0.0 0 1 339.97 2.43
  L 340.01 16.57
  A 0.43 0.43 0.0 0 1 339.58 17.00
  L 302.42 17.00
  A 0.43 0.43 0.0 0 0 301.99 17.43
  L 301.99 21.83
  A 0.43 0.43 0.0 0 0 302.42 22.26
  L 339.56 22.26
  A 0.43 0.43 0.0 0 1 339.99 22.69
  L 340.01 34.57
  A 0.43 0.43 0.0 0 1 339.58 35.00
  L 302.41 34.99
  A 0.43 0.43 0.0 0 0 301.98 35.42
  Z"
/>
<path fill="#212121" d="
  M 392.63 22.00
  L 371.25 22.00
  A 0.25 0.25 0.0 0 0 371.00 22.25
  L 371.00 55.50
  A 0.50 0.50 0.0 0 1 370.50 56.00
  L 346.76 56.00
  A 0.24 0.24 0.0 0 1 346.52 55.76
  L 346.52 2.55
  A 0.57 0.57 0.0 0 1 347.09 1.98
  Q 375.53 1.97 405.91 2.02
  Q 413.61 2.03 416.64 7.74
  Q 418.09 10.47 418.07 14.76
  Q 417.94 35.94 418.02 55.43
  A 0.57 0.56 -90.0 0 1 417.46 56.00
  L 393.50 56.00
  A 0.25 0.24 90.0 0 1 393.26 55.75
  L 393.26 22.63
  Q 393.26 22.00 392.63 22.00
  Z"
/>
<path fill="#000000" fill-opacity="0.180" d="
  M 169.47 3.27
  L 169.43 5.69
  Q 167.17 4.66 165.53 6.32
  Q 163.85 8.03 163.79 11.25
  Q 163.57 22.58 163.68 33.93
  L 161.64 33.96
  Q 161.62 23.67 161.63 13.45
  Q 161.63 8.58 162.61 6.71
  Q 164.48 3.13 169.47 3.27
  Z"
/>
<path fill="#000000" fill-opacity="0.180" d="
  M 13.12 4.91
  L 12.05 6.63
  L 11.05 6.61
  Q 10.54 6.61 10.14 6.91
  Q 4.68 10.97 4.66 18.07
  Q 4.60 36.32 4.65 52.15
  Q 4.66 55.55 5.81 58.92
  Q 5.98 59.42 6.48 59.56
  L 10.82 60.81
  L 26.02 60.86
  Q 26.47 60.86 26.87 60.65
  Q 28.00 60.04 29.37 60.17
  Q 29.90 60.22 30.28 59.86
  Q 31.01 59.16 31.22 57.98
  L 31.78 58.03
  Q 31.74 58.77 31.55 59.35
  Q 31.42 59.78 31.05 60.04
  L 27.39 62.66
  Q 27.01 62.93 26.55 62.95
  Q 18.66 63.28 10.76 63.05
  Q 6.65 62.93 4.06 60.15
  Q 3.70 59.76 3.63 59.25
  C 3.39 57.66 2.63 56.24 2.63 54.64
  Q 2.62 35.28 2.62 16.84
  C 2.62 15.27 3.09 14.09 3.41 12.63
  Q 3.61 11.70 4.10 11.00
  Q 6.04 8.24 7.98 6.74
  Q 9.92 5.23 13.12 4.91
  Z"
/>
<path fill="#010100" fill-opacity="0.533" d="
  M 120.95 5.52
  L 121.00 7.36
  Q 118.38 7.49 118.24 10.26
  L 116.56 6.30
  Q 118.57 4.47 120.95 5.52
  Z"
/>
<path fill="#010100" fill-opacity="0.533" d="
  M 169.43 5.69
  Q 169.63 6.29 169.38 6.84
  Q 166.65 6.52 165.62 8.89
  Q 165.12 10.03 165.12 12.68
  Q 165.09 23.32 165.17 33.96
  Q 164.64 34.07 163.68 33.93
  Q 163.57 22.58 163.79 11.25
  Q 163.85 8.03 165.53 6.32
  Q 167.17 4.66 169.43 5.69
  Z"
/>
<path fill="#000000" fill-opacity="0.965" d="
  M 344.48 5.95
  L 344.48 55.16
  A 2.80 2.79 -89.9 0 0 347.26 57.96
  L 358.94 58.02
  Q 359.09 58.20 359.14 58.35
  A 0.37 0.36 78.7 0 1 358.83 58.83
  Q 349.82 59.54 341.66 57.96
  Q 341.71 57.70 341.77 57.43
  Q 342.26 46.87 341.99 40.25
  Q 341.94 38.98 340.53 37.95
  Q 340.57 37.07 339.48 37.12
  Q 341.94 36.71 341.97 35.01
  Q 342.14 25.41 341.92 22.85
  Q 341.76 21.01 340.25 20.26
  Q 341.94 20.25 339.48 19.03
  Q 341.74 18.91 341.95 17.00
  Q 342.18 14.79 341.92 9.97
  L 342.87 6.85
  Q 343.03 6.32 343.51 6.61
  Q 344.21 7.04 344.19 7.84
  Q 344.18 8.35 344.10 7.85
  Q 343.94 6.90 344.48 5.95
  Z"
/>
<path fill="#000000" fill-opacity="0.965" d="
  M 275.52 6.20
  Q 275.44 41.55 275.59 56.00
  Q 275.59 56.60 276.29 57.26
  Q 275.83 57.74 274.94 57.68
  Q 274.41 57.65 274.15 57.20
  Q 273.72 56.48 272.94 56.36
  A 0.92 0.91 88.6 0 1 272.19 55.64
  L 271.81 53.79
  Q 271.80 53.74 271.75 53.75
  L 271.44 53.83
  Q 271.15 53.91 271.25 54.19
  L 272.63 57.95
  Q 271.52 56.88 271.29 54.94
  Q 271.22 54.36 270.97 54.89
  Q 270.68 55.49 270.88 56.30
  Q 271.09 55.72 270.74 55.19
  Q 270.41 54.68 270.39 55.28
  Q 270.30 57.59 271.93 59.24
  Q 271.97 59.28 271.93 59.33
  Q 271.89 59.37 271.84 59.39
  Q 271.74 59.44 271.67 59.35
  Q 270.29 57.65 269.49 54.65
  Q 271.04 53.41 272.12 51.54
  Q 272.99 50.04 272.99 47.73
  Q 273.01 35.84 272.98 24.00
  Q 272.98 23.21 271.82 22.22
  L 271.03 21.01
  Q 272.96 20.32 272.96 19.00
  Q 272.94 16.46 273.18 15.34
  L 273.24 7.09
  Q 273.49 6.80 273.55 6.45
  A 0.42 0.41 27.4 0 1 274.26 6.23
  Q 274.70 6.67 274.81 7.07
  Q 275.10 8.21 275.09 7.05
  Q 275.08 6.32 275.52 6.20
  Z"
/>
<path fill="#010100" fill-opacity="0.533" d="
  M 12.05 6.63
  L 10.92 9.30
  C 8.60 9.04 8.44 10.66 7.38 12.06
  Q 7.08 12.46 7.10 12.96
  C 7.14 14.31 6.37 15.18 6.36 16.48
  Q 6.34 35.95 6.37 54.50
  A 5.12 5.12 0.0 0 0 11.48 59.62
  Q 18.41 59.64 25.18 59.61
  Q 25.19 59.61 25.19 59.63
  L 25.19 59.88
  Q 25.19 60.10 24.97 60.10
  Q 18.06 60.16 11.19 60.06
  Q 11.14 60.06 11.12 60.11
  Q 11.12 60.12 11.12 60.12
  Q 11.13 60.18 11.19 60.18
  Q 18.29 60.11 25.14 60.10
  Q 26.86 60.09 28.56 58.75
  Q 29.09 58.33 28.95 59.00
  L 28.86 59.41
  Q 28.74 60.00 28.14 60.10
  C 27.03 60.30 26.11 60.80 24.96 60.81
  Q 17.86 60.82 10.82 60.81
  L 6.48 59.56
  Q 5.98 59.42 5.81 58.92
  Q 4.66 55.55 4.65 52.15
  Q 4.60 36.32 4.66 18.07
  Q 4.68 10.97 10.14 6.91
  Q 10.54 6.61 11.05 6.61
  L 12.05 6.63
  Z"
/>
<path fill="#000000" fill-opacity="0.718" d="
  M 169.38 6.84
  Q 169.61 7.40 169.47 8.29
  C 167.32 8.24 166.37 9.88 166.37 11.92
  Q 166.38 22.94 166.36 33.95
  L 165.17 33.96
  Q 165.09 23.32 165.12 12.68
  Q 165.12 10.03 165.62 8.89
  Q 166.65 6.52 169.38 6.84
  Z"
/>
<path fill="#000000" fill-opacity="0.965" d="
  M 199.97 7.26
  Q 200.04 28.92 199.98 50.50
  C 199.97 52.93 203.16 55.53 205.75 56.96
  Q 199.72 57.92 197.00 50.50
  L 196.95 11.03
  Q 197.86 10.75 197.53 9.64
  Q 197.38 9.13 197.78 8.78
  Q 198.54 8.09 198.58 7.04
  Q 198.61 6.16 199.00 6.95
  Q 199.24 7.43 198.95 7.97
  Q 198.58 8.68 199.31 8.35
  Q 199.75 8.16 199.97 7.26
  Z"
/>
<path fill="#000000" fill-opacity="0.718" d="
  M 273.24 7.09
  L 273.18 15.34
  L 272.78 7.51
  Q 272.87 7.70 273.24 7.09
  Z"
/>
<path fill="#000000" fill-opacity="0.965" d="
  M 121.00 7.36
  Q 120.98 24.36 121.02 41.50
  Q 121.04 48.18 122.35 50.78
  Q 124.42 54.85 129.53 57.67
  Q 123.91 58.18 118.33 52.49
  L 118.24 10.26
  Q 118.38 7.49 121.00 7.36
  Z"
/>
<path fill="#000000" fill-opacity="0.965" d="
  M 169.47 8.29
  L 169.43 33.44
  Q 169.43 33.97 168.91 33.97
  L 166.36 33.95
  Q 166.38 22.94 166.37 11.92
  C 166.37 9.88 167.32 8.24 169.47 8.29
  Z"
/>
<path fill="#000000" fill-opacity="0.718" d="
  M 10.92 9.30
  Q 10.99 9.60 10.70 9.79
  Q 10.58 10.40 9.75 10.38
  Q 9.45 10.37 9.24 10.60
  Q 8.78 11.09 9.57 10.65
  Q 9.71 10.57 9.86 10.60
  Q 10.71 10.75 10.01 11.25
  Q 9.85 11.37 9.65 11.41
  Q 9.12 11.52 8.92 12.04
  Q 7.69 15.29 7.67 17.91
  Q 7.56 36.51 7.65 55.21
  A 2.34 2.33 -86.0 0 0 9.64 57.51
  L 12.30 57.89
  L 31.22 57.98
  Q 31.01 59.16 30.28 59.86
  Q 29.90 60.22 29.37 60.17
  Q 28.00 60.04 26.87 60.65
  Q 26.47 60.86 26.02 60.86
  L 10.82 60.81
  Q 17.86 60.82 24.96 60.81
  C 26.11 60.80 27.03 60.30 28.14 60.10
  Q 28.74 60.00 28.86 59.41
  L 28.95 59.00
  Q 29.09 58.33 28.56 58.75
  Q 26.86 60.09 25.14 60.10
  Q 18.29 60.11 11.19 60.18
  Q 11.13 60.18 11.12 60.12
  Q 11.12 60.12 11.12 60.11
  Q 11.14 60.06 11.19 60.06
  Q 18.06 60.16 24.97 60.10
  Q 25.19 60.10 25.19 59.88
  L 25.19 59.63
  Q 25.19 59.61 25.18 59.61
  Q 18.41 59.64 11.48 59.62
  A 5.12 5.12 0.0 0 1 6.37 54.50
  Q 6.34 35.95 6.36 16.48
  C 6.37 15.18 7.14 14.31 7.10 12.96
  Q 7.08 12.46 7.38 12.06
  C 8.44 10.66 8.60 9.04 10.92 9.30
  Z"
/>
<path fill="#000000" fill-opacity="0.965" d="
  M 10.70 9.79
  C 10.71 10.30 10.51 10.56 10.51 11.08
  Q 10.51 33.10 10.52 55.14
  C 10.52 56.63 11.12 57.18 12.30 57.89
  L 9.64 57.51
  A 2.34 2.33 -86.0 0 1 7.65 55.21
  Q 7.56 36.51 7.67 17.91
  Q 7.69 15.29 8.92 12.04
  Q 9.12 11.52 9.65 11.41
  Q 9.85 11.37 10.01 11.25
  Q 10.71 10.75 9.86 10.60
  Q 9.71 10.57 9.57 10.65
  Q 8.78 11.09 9.24 10.60
  Q 9.45 10.37 9.75 10.38
  Q 10.58 10.40 10.70 9.79
  Z"
/>
<path fill="#000000" fill-opacity="0.965" d="
  M 333.04 19.08
  Q 331.58 19.40 330.01 19.14
  Q 329.09 18.98 328.47 19.55
  Q 328.17 19.82 328.03 19.44
  Q 327.94 19.18 327.67 19.24
  Q 327.51 19.27 327.54 19.43
  Q 327.55 19.51 327.52 19.58
  Q 327.26 20.16 326.95 19.61
  Q 326.89 19.51 326.86 19.40
  Q 326.77 19.02 326.62 19.39
  Q 326.57 19.51 326.51 19.63
  Q 326.25 20.13 325.97 19.63
  Q 325.91 19.52 325.86 19.39
  Q 325.72 18.96 325.58 19.40
  Q 325.53 19.55 325.47 19.69
  Q 325.33 20.02 325.07 19.77
  Q 324.91 19.61 324.86 19.41
  Q 324.75 19.03 324.60 19.39
  Q 324.55 19.52 324.51 19.65
  A 0.29 0.29 0.0 0 1 323.96 19.66
  Q 323.91 19.52 323.86 19.38
  Q 323.70 18.97 323.57 19.39
  Q 323.52 19.54 323.47 19.69
  Q 323.34 20.03 323.08 19.77
  Q 322.84 19.54 322.83 19.20
  A 0.05 0.05 0.0 0 0 322.75 19.17
  Q 322.58 19.33 322.52 19.51
  Q 322.28 20.24 321.95 19.55
  Q 321.86 19.35 321.84 19.16
  A 0.05 0.05 0.0 0 0 321.76 19.13
  Q 321.58 19.31 321.51 19.55
  Q 321.32 20.14 320.97 19.63
  Q 320.88 19.51 320.87 19.35
  A 0.14 0.14 0.0 0 0 320.65 19.25
  Q 320.54 19.34 320.50 19.50
  Q 320.28 20.28 319.93 19.49
  L 319.78 19.16
  A 0.04 0.03 -39.3 0 0 319.72 19.16
  Q 319.56 19.34 319.50 19.57
  Q 319.35 20.07 319.00 19.68
  Q 318.84 19.51 318.87 19.27
  A 0.10 0.09 -17.4 0 0 318.71 19.19
  Q 318.56 19.33 318.50 19.53
  Q 318.29 20.22 317.94 19.59
  Q 317.87 19.46 317.85 19.30
  A 0.10 0.10 0.0 0 0 317.69 19.23
  Q 317.57 19.35 317.51 19.52
  Q 317.29 20.22 316.95 19.58
  Q 316.83 19.37 316.81 19.14
  A 0.04 0.04 0.0 0 0 316.74 19.12
  Q 316.54 19.42 316.47 19.78
  A 0.24 0.24 0.0 0 1 316.02 19.82
  Q 315.94 19.61 315.87 19.40
  Q 315.71 18.93 315.55 19.40
  Q 315.50 19.55 315.45 19.70
  Q 315.33 20.06 315.08 19.78
  Q 314.87 19.54 314.84 19.23
  A 0.07 0.07 0.0 0 0 314.72 19.20
  L 314.39 19.65
  Q 314.18 19.95 313.98 19.65
  Q 313.90 19.52 313.86 19.39
  Q 313.73 18.96 313.59 19.38
  Q 313.53 19.54 313.47 19.68
  Q 313.31 20.07 313.04 19.75
  Q 312.86 19.54 312.85 19.27
  A 0.11 0.11 0.0 0 0 312.66 19.20
  Q 312.54 19.33 312.51 19.51
  Q 312.43 20.04 312.03 19.69
  Q 311.90 19.58 311.89 19.43
  Q 311.86 18.94 311.61 19.36
  Q 311.53 19.50 311.49 19.65
  A 0.29 0.29 0.0 0 1 310.96 19.71
  Q 310.86 19.52 310.85 19.31
  Q 310.84 19.15 310.70 19.21
  Q 310.47 19.31 310.55 19.55
  A 0.17 0.17 0.0 0 1 310.31 19.75
  Q 309.96 19.57 309.84 19.20
  A 0.06 0.06 0.0 0 0 309.73 19.18
  L 309.41 19.65
  Q 309.19 19.97 308.98 19.65
  Q 308.90 19.53 308.86 19.39
  Q 308.73 18.97 308.59 19.39
  Q 308.54 19.56 308.47 19.71
  Q 308.31 20.03 308.07 19.77
  Q 307.91 19.60 307.86 19.39
  Q 307.74 18.98 307.60 19.38
  Q 307.57 19.47 307.54 19.54
  Q 307.26 20.20 306.91 19.57
  Q 306.88 19.52 306.88 19.47
  Q 306.88 19.07 306.61 19.37
  Q 306.29 19.72 305.35 20.23
  Q 304.95 20.35 304.42 20.26
  Q 303.99 20.19 303.97 19.74
  Q 303.96 19.56 304.03 19.40
  Q 304.16 19.05 304.52 19.05
  L 333.04 19.08
  Z"
/>
<path fill="#010100" fill-opacity="0.533" d="
  M 339.48 19.03
  Q 341.94 20.25 340.25 20.26
  L 305.35 20.23
  Q 306.29 19.72 306.61 19.37
  Q 306.88 19.07 306.88 19.47
  Q 306.88 19.52 306.91 19.57
  Q 307.26 20.20 307.54 19.54
  Q 307.57 19.47 307.60 19.38
  Q 307.74 18.98 307.86 19.39
  Q 307.91 19.60 308.07 19.77
  Q 308.31 20.03 308.47 19.71
  Q 308.54 19.56 308.59 19.39
  Q 308.73 18.97 308.86 19.39
  Q 308.90 19.53 308.98 19.65
  Q 309.19 19.97 309.41 19.65
  L 309.73 19.18
  A 0.06 0.06 0.0 0 1 309.84 19.20
  Q 309.96 19.57 310.31 19.75
  A 0.17 0.17 0.0 0 0 310.55 19.55
  Q 310.47 19.31 310.70 19.21
  Q 310.84 19.15 310.85 19.31
  Q 310.86 19.52 310.96 19.71
  A 0.29 0.29 0.0 0 0 311.49 19.65
  Q 311.53 19.50 311.61 19.36
  Q 311.86 18.94 311.89 19.43
  Q 311.90 19.58 312.03 19.69
  Q 312.43 20.04 312.51 19.51
  Q 312.54 19.33 312.66 19.20
  A 0.11 0.11 0.0 0 1 312.85 19.27
  Q 312.86 19.54 313.04 19.75
  Q 313.31 20.07 313.47 19.68
  Q 313.53 19.54 313.59 19.38
  Q 313.73 18.96 313.86 19.39
  Q 313.90 19.52 313.98 19.65
  Q 314.18 19.95 314.39 19.65
  L 314.72 19.20
  A 0.07 0.07 0.0 0 1 314.84 19.23
  Q 314.87 19.54 315.08 19.78
  Q 315.33 20.06 315.45 19.70
  Q 315.50 19.55 315.55 19.40
  Q 315.71 18.93 315.87 19.40
  Q 315.94 19.61 316.02 19.82
  A 0.24 0.24 0.0 0 0 316.47 19.78
  Q 316.54 19.42 316.74 19.12
  A 0.04 0.04 0.0 0 1 316.81 19.14
  Q 316.83 19.37 316.95 19.58
  Q 317.29 20.22 317.51 19.52
  Q 317.57 19.35 317.69 19.23
  A 0.10 0.10 0.0 0 1 317.85 19.30
  Q 317.87 19.46 317.94 19.59
  Q 318.29 20.22 318.50 19.53
  Q 318.56 19.33 318.71 19.19
  A 0.10 0.09 -17.4 0 1 318.87 19.27
  Q 318.84 19.51 319.00 19.68
  Q 319.35 20.07 319.50 19.57
  Q 319.56 19.34 319.72 19.16
  A 0.04 0.03 -39.3 0 1 319.78 19.16
  L 319.93 19.49
  Q 320.28 20.28 320.50 19.50
  Q 320.54 19.34 320.65 19.25
  A 0.14 0.14 0.0 0 1 320.87 19.35
  Q 320.88 19.51 320.97 19.63
  Q 321.32 20.14 321.51 19.55
  Q 321.58 19.31 321.76 19.13
  A 0.05 0.05 0.0 0 1 321.84 19.16
  Q 321.86 19.35 321.95 19.55
  Q 322.28 20.24 322.52 19.51
  Q 322.58 19.33 322.75 19.17
  A 0.05 0.05 0.0 0 1 322.83 19.20
  Q 322.84 19.54 323.08 19.77
  Q 323.34 20.03 323.47 19.69
  Q 323.52 19.54 323.57 19.39
  Q 323.70 18.97 323.86 19.38
  Q 323.91 19.52 323.96 19.66
  A 0.29 0.29 0.0 0 0 324.51 19.65
  Q 324.55 19.52 324.60 19.39
  Q 324.75 19.03 324.86 19.41
  Q 324.91 19.61 325.07 19.77
  Q 325.33 20.02 325.47 19.69
  Q 325.53 19.55 325.58 19.40
  Q 325.72 18.96 325.86 19.39
  Q 325.91 19.52 325.97 19.63
  Q 326.25 20.13 326.51 19.63
  Q 326.57 19.51 326.62 19.39
  Q 326.77 19.02 326.86 19.40
  Q 326.89 19.51 326.95 19.61
  Q 327.26 20.16 327.52 19.58
  Q 327.55 19.51 327.54 19.43
  Q 327.51 19.27 327.67 19.24
  Q 327.94 19.18 328.03 19.44
  Q 328.17 19.82 328.47 19.55
  Q 329.09 18.98 330.01 19.14
  Q 331.58 19.40 333.04 19.08
  L 339.48 19.03
  Z"
/>
<path fill="#010100" fill-opacity="0.533" d="
  M 271.03 21.01
  L 271.82 22.22
  L 236.40 22.00
  A 2.33 2.33 0.0 0 0 234.06 24.21
  L 233.92 27.29
  L 233.73 29.87
  Q 233.70 30.34 233.23 30.37
  Q 231.65 30.48 231.06 32.12
  Q 230.76 32.96 230.71 32.07
  Q 230.68 31.63 231.18 30.89
  Q 231.26 30.92 231.15 30.88
  Q 231.08 30.85 231.04 30.92
  Q 230.88 31.24 230.65 31.53
  Q 230.35 31.91 230.37 32.39
  L 230.52 36.43
  Q 227.27 37.86 228.67 30.54
  Q 229.34 28.94 228.65 28.96
  Q 229.04 27.75 229.74 27.22
  A 1.13 1.13 0.0 0 0 229.30 25.21
  L 226.76 24.67
  L 226.80 21.61
  Q 226.80 21.09 227.32 21.09
  L 271.03 21.01
  Z"
/>
<path fill="#000000" fill-opacity="0.965" d="
  M 52.29 57.87
  Q 51.61 57.95 50.93 57.62
  Q 50.52 57.42 50.41 57.87
  Q 50.23 58.58 49.75 59.16
  Q 49.17 59.25 48.71 59.05
  Q 48.92 58.90 49.19 58.93
  Q 49.26 58.94 49.32 58.92
  Q 49.48 58.86 49.44 58.86
  Q 49.39 58.86 49.36 58.90
  Q 49.32 58.95 49.26 58.94
  Q 47.99 58.64 46.70 57.76
  Q 46.31 57.49 46.32 57.02
  Q 46.37 54.91 47.30 52.56
  Q 47.47 52.15 47.92 52.15
  Q 48.15 52.15 48.31 51.98
  Q 48.64 51.65 48.64 51.17
  Q 48.61 40.56 48.65 29.67
  Q 48.65 28.72 48.33 27.94
  Q 47.73 26.50 47.10 25.10
  Q 46.86 24.55 46.29 24.37
  Q 45.60 24.15 46.00 24.75
  Q 46.51 25.50 47.17 25.98
  A 1.58 1.57 -80.2 0 1 47.71 26.75
  Q 48.26 28.49 48.26 30.46
  Q 48.25 40.66 48.24 50.49
  Q 48.24 50.66 48.07 50.66
  L 48.06 50.66
  Q 47.87 50.66 47.87 50.46
  Q 47.87 40.69 47.87 30.90
  C 47.87 29.23 47.38 27.92 46.78 26.47
  Q 46.63 26.12 46.31 25.91
  Q 45.99 25.70 45.73 25.44
  Q 45.04 24.72 45.38 25.66
  Q 45.63 26.35 46.37 26.81
  Q 46.45 26.85 46.36 26.87
  Q 46.29 26.88 46.33 26.94
  Q 46.56 27.21 46.29 26.98
  Q 45.07 25.94 43.88 24.87
  Q 42.59 23.71 40.74 24.30
  Q 40.33 24.07 39.44 24.13
  L 49.98 24.06
  Q 50.49 24.05 50.49 24.56
  Q 50.54 39.67 50.50 54.75
  Q 50.50 56.91 52.29 57.87
  Z"
/>
<path fill="#000000" fill-opacity="0.965" d="
  M 106.39 58.16
  Q 103.75 59.07 100.94 58.96
  Q 95.86 58.75 95.54 58.77
  Q 91.69 58.95 87.73 58.97
  Q 87.47 58.02 86.34 57.75
  Q 85.85 57.63 85.87 57.11
  Q 85.96 55.04 87.04 53.68
  Q 87.36 53.27 87.36 52.76
  Q 87.35 42.02 87.36 31.17
  Q 87.36 30.50 87.16 29.86
  C 86.80 28.73 86.90 27.61 86.00 26.74
  Q 85.15 25.93 84.02 26.01
  Q 82.35 24.91 81.19 25.23
  Q 80.64 25.38 81.18 25.56
  Q 83.07 26.19 84.09 27.79
  Q 84.24 28.04 83.49 27.49
  Q 83.05 27.19 82.81 26.66
  Q 80.76 25.66 78.34 25.42
  Q 78.14 24.96 78.25 24.55
  A 0.73 0.73 0.0 0 1 78.96 24.00
  L 89.25 24.00
  A 0.50 0.50 0.0 0 1 89.75 24.50
  L 89.74 55.22
  A 2.77 2.76 0.3 0 0 92.48 57.98
  L 106.39 58.16
  Z"
/>
<path fill="#000000" fill-opacity="0.718" d="
  M 381.04 24.08
  L 382.82 24.14
  Q 383.35 24.15 383.79 24.44
  C 385.10 25.29 386.62 25.51 387.53 26.90
  Q 388.86 28.96 388.86 31.33
  Q 388.87 41.44 388.87 51.87
  Q 388.87 52.98 388.55 53.99
  Q 388.17 55.19 388.41 56.53
  A 0.23 0.23 0.0 0 0 388.76 56.69
  L 388.98 56.55
  Q 389.44 56.26 389.86 56.60
  Q 390.91 57.44 391.45 57.49
  L 407.56 57.93
  Q 407.31 59.12 406.25 59.12
  Q 399.16 59.12 392.51 59.13
  C 390.97 59.13 389.93 58.23 388.44 58.48
  Q 388.02 58.55 387.89 58.14
  Q 387.23 55.97 387.20 53.93
  Q 387.07 44.74 387.13 31.44
  Q 387.15 27.47 384.66 26.06
  Q 383.25 25.26 380.14 25.15
  Q 376.78 25.03 373.48 24.11
  L 381.04 24.08
  Z"
/>
<path fill="#000000" fill-opacity="0.965" d="
  M 381.04 24.08
  L 390.72 24.04
  Q 391.23 24.04 391.23 24.55
  L 391.45 57.49
  Q 390.91 57.44 389.86 56.60
  Q 389.44 56.26 388.98 56.55
  L 388.76 56.69
  A 0.23 0.23 0.0 0 1 388.41 56.53
  Q 388.17 55.19 388.55 53.99
  Q 388.87 52.98 388.87 51.87
  Q 388.87 41.44 388.86 31.33
  Q 388.86 28.96 387.53 26.90
  C 386.62 25.51 385.10 25.29 383.79 24.44
  Q 383.35 24.15 382.82 24.14
  L 381.04 24.08
  Z"
/>
<path fill="#010100" fill-opacity="0.533" d="
  M 39.44 24.13
  Q 40.33 24.07 40.74 24.30
  Q 40.67 24.90 40.96 24.99
  Q 42.02 25.34 43.11 25.59
  C 45.23 26.07 46.31 27.86 46.32 30.00
  Q 46.38 39.75 46.37 49.50
  Q 46.37 51.18 45.04 52.23
  Q 44.70 50.97 45.13 50.46
  Q 44.91 40.86 44.78 31.25
  Q 44.73 27.38 41.63 27.21
  Q 40.88 27.17 41.50 27.59
  Q 42.16 28.05 42.87 27.83
  Q 42.96 27.80 42.88 27.86
  Q 42.87 27.87 42.87 27.89
  Q 42.87 27.94 42.81 27.93
  Q 40.97 27.63 39.02 27.23
  Q 38.80 25.22 39.44 24.13
  Z"
/>
<path fill="#000000" fill-opacity="0.718" d="
  M 40.74 24.30
  Q 42.59 23.71 43.88 24.87
  Q 45.07 25.94 46.29 26.98
  Q 46.56 27.21 46.33 26.94
  Q 46.29 26.88 46.36 26.87
  Q 46.45 26.85 46.37 26.81
  Q 45.63 26.35 45.38 25.66
  Q 45.04 24.72 45.73 25.44
  Q 45.99 25.70 46.31 25.91
  Q 46.63 26.12 46.78 26.47
  C 47.38 27.92 47.87 29.23 47.87 30.90
  Q 47.87 40.69 47.87 50.46
  Q 47.87 50.66 48.06 50.66
  L 48.07 50.66
  Q 48.24 50.66 48.24 50.49
  Q 48.25 40.66 48.26 30.46
  Q 48.26 28.49 47.71 26.75
  A 1.58 1.57 -80.2 0 0 47.17 25.98
  Q 46.51 25.50 46.00 24.75
  Q 45.60 24.15 46.29 24.37
  Q 46.86 24.55 47.10 25.10
  Q 47.73 26.50 48.33 27.94
  Q 48.65 28.72 48.65 29.67
  Q 48.61 40.56 48.64 51.17
  Q 48.64 51.65 48.31 51.98
  Q 48.15 52.15 47.92 52.15
  Q 47.47 52.15 47.30 52.56
  Q 46.37 54.91 46.32 57.02
  Q 46.31 57.49 46.70 57.76
  Q 47.99 58.64 49.26 58.94
  Q 49.32 58.95 49.36 58.90
  Q 49.39 58.86 49.44 58.86
  Q 49.48 58.86 49.32 58.92
  Q 49.26 58.94 49.19 58.93
  Q 48.92 58.90 48.71 59.05
  Q 47.55 58.81 46.86 59.13
  Q 45.33 58.82 44.69 58.03
  Q 44.19 57.42 44.60 55.92
  Q 45.09 54.11 45.04 52.23
  Q 46.37 51.18 46.37 49.50
  Q 46.38 39.75 46.32 30.00
  C 46.31 27.86 45.23 26.07 43.11 25.59
  Q 42.02 25.34 40.96 24.99
  Q 40.67 24.90 40.74 24.30
  Z"
/>
<path fill="#010100" fill-opacity="0.533" d="
  M 373.48 24.11
  Q 376.78 25.03 380.14 25.15
  Q 383.25 25.26 384.66 26.06
  Q 387.15 27.47 387.13 31.44
  Q 387.07 44.74 387.20 53.93
  Q 387.23 55.97 387.89 58.14
  Q 388.02 58.55 388.44 58.48
  C 389.93 58.23 390.97 59.13 392.51 59.13
  Q 399.16 59.12 406.25 59.12
  Q 407.31 59.12 407.56 57.93
  L 411.22 58.03
  L 410.50 59.38
  Q 410.24 59.86 409.71 59.95
  C 408.29 60.20 407.16 60.83 405.68 60.85
  Q 399.19 60.91 393.00 60.83
  Q 391.56 60.81 387.15 58.26
  Q 386.61 57.95 386.52 57.34
  C 386.04 54.39 385.32 51.74 385.34 48.67
  Q 385.42 39.65 385.38 30.96
  A 4.01 4.01 0.0 0 0 381.58 26.98
  L 373.06 26.54
  Q 372.81 24.69 373.48 24.11
  Z"
/>
<path fill="#000000" fill-opacity="0.180" d="
  M 226.76 24.67
  L 229.30 25.21
  A 1.13 1.13 0.0 0 1 229.74 27.22
  Q 229.04 27.75 228.65 28.96
  Q 229.34 28.94 228.67 30.54
  Q 228.07 33.50 228.44 36.19
  Q 228.48 36.46 228.21 36.48
  L 226.95 36.56
  Q 226.67 36.58 226.67 36.30
  L 226.76 24.67
  Z"
/>
<path fill="#010100" fill-opacity="0.533" d="
  M 84.02 26.01
  Q 85.56 28.01 85.60 31.01
  Q 85.67 36.82 85.63 51.07
  Q 85.62 52.75 85.18 54.27
  Q 84.68 55.96 84.54 57.67
  Q 84.50 58.19 84.96 58.46
  Q 86.06 59.10 87.49 59.08
  Q 86.21 59.01 85.65 59.44
  Q 83.31 58.17 83.86 56.19
  Q 84.15 55.13 84.44 54.22
  Q 84.35 42.13 84.37 30.08
  C 84.38 29.04 83.90 28.41 83.49 27.49
  Q 84.24 28.04 84.09 27.79
  Q 83.07 26.19 81.18 25.56
  Q 80.64 25.38 81.19 25.23
  Q 82.35 24.91 84.02 26.01
  Z"
/>
<path fill="#010100" fill-opacity="0.533" d="
  M 78.34 25.42
  Q 80.76 25.66 82.81 26.66
  L 78.30 26.33
  Q 78.20 25.91 78.34 25.42
  Z"
/>
<path fill="#000000" fill-opacity="0.718" d="
  M 84.02 26.01
  Q 85.15 25.93 86.00 26.74
  C 86.90 27.61 86.80 28.73 87.16 29.86
  Q 87.36 30.50 87.36 31.17
  Q 87.35 42.02 87.36 52.76
  Q 87.36 53.27 87.04 53.68
  Q 85.96 55.04 85.87 57.11
  Q 85.85 57.63 86.34 57.75
  Q 87.47 58.02 87.73 58.97
  Q 87.61 59.02 87.49 59.08
  Q 86.06 59.10 84.96 58.46
  Q 84.50 58.19 84.54 57.67
  Q 84.68 55.96 85.18 54.27
  Q 85.62 52.75 85.63 51.07
  Q 85.67 36.82 85.60 31.01
  Q 85.56 28.01 84.02 26.01
  Z"
/>
<path fill="#000000" fill-opacity="0.180" d="
  M 78.30 26.33
  L 82.81 26.66
  Q 83.05 27.19 83.49 27.49
  C 83.90 28.41 84.38 29.04 84.37 30.08
  Q 84.35 42.13 84.44 54.22
  Q 83.91 52.95 84.19 51.33
  Q 84.21 51.25 84.16 51.19
  Q 84.14 51.17 84.13 51.14
  Q 84.10 51.05 84.12 51.15
  Q 84.21 51.80 84.07 52.55
  Q 83.93 53.32 83.51 52.66
  Q 82.90 51.69 82.21 50.60
  Q 81.59 49.62 81.60 48.47
  Q 81.66 40.12 81.62 31.21
  C 81.62 29.43 79.71 29.14 78.26 29.37
  L 78.32 26.98
  L 80.77 27.14
  Q 81.24 27.17 80.85 26.92
  Q 79.87 26.26 78.30 26.53
  Q 78.30 26.43 78.30 26.33
  Z"
/>
<path fill="#000000" fill-opacity="0.180" d="
  M 373.06 26.54
  L 381.58 26.98
  A 4.01 4.01 0.0 0 1 385.38 30.96
  Q 385.42 39.65 385.34 48.67
  C 385.32 51.74 386.04 54.39 386.52 57.34
  Q 386.61 57.95 387.15 58.26
  Q 391.56 60.81 393.00 60.83
  Q 399.19 60.91 405.68 60.85
  C 407.16 60.83 408.29 60.20 409.71 59.95
  Q 410.24 59.86 410.50 59.38
  L 411.22 58.03
  L 413.36 58.05
  Q 411.23 62.67 406.50 62.87
  Q 400.60 63.12 394.08 62.68
  Q 391.78 62.53 389.53 61.02
  Q 388.64 60.42 387.66 60.11
  C 386.04 59.60 384.72 57.63 384.62 55.95
  Q 384.48 53.68 383.72 51.51
  Q 382.85 49.07 382.86 46.57
  Q 382.89 39.14 382.89 31.16
  Q 382.89 30.70 382.59 30.35
  Q 381.37 28.90 379.27 29.06
  Q 376.07 29.31 373.01 28.89
  L 373.06 26.54
  Z"
/>
<path fill="#010100" fill-opacity="0.533" d="
  M 78.30 26.53
  Q 79.87 26.26 80.85 26.92
  Q 81.24 27.17 80.77 27.14
  L 78.32 26.98
  Q 78.26 26.77 78.30 26.53
  Z"
/>
<path fill="#000000" fill-opacity="0.180" d="
  M 39.02 27.23
  Q 40.97 27.63 42.81 27.93
  Q 42.87 27.94 42.87 27.89
  Q 42.87 27.87 42.88 27.86
  Q 42.96 27.80 42.87 27.83
  Q 42.16 28.05 41.50 27.59
  Q 40.88 27.17 41.63 27.21
  Q 44.73 27.38 44.78 31.25
  Q 44.91 40.86 45.13 50.46
  Q 44.81 50.06 44.93 49.32
  Q 44.94 49.25 45.01 49.23
  Q 45.02 49.23 44.94 49.17
  Q 44.83 49.09 44.85 49.22
  Q 45.00 50.80 44.70 52.06
  Q 44.66 52.21 44.63 52.06
  Q 43.84 47.84 43.53 44.28
  Q 43.06 39.01 43.15 30.85
  A 1.16 1.15 -6.3 0 0 41.73 29.72
  Q 40.08 30.10 38.98 28.90
  Q 42.68 27.21 43.89 30.18
  Q 44.51 31.71 44.44 34.34
  Q 44.33 38.99 44.33 43.54
  Q 44.33 43.60 44.38 43.63
  Q 44.38 43.63 44.38 43.63
  Q 44.44 43.61 44.44 43.55
  Q 44.37 37.06 44.31 30.52
  Q 44.30 29.79 44.00 28.94
  Q 43.77 28.30 43.85 28.97
  Q 43.87 29.11 43.75 29.22
  Q 43.61 29.34 43.54 29.17
  Q 43.40 28.85 43.11 28.66
  Q 42.68 28.36 42.16 28.42
  Q 39.18 28.75 39.02 27.23
  Z"
/>
<path fill="#000000" fill-opacity="0.965" d="
  M 233.92 27.29
  L 234.04 34.93
  A 1.35 1.34 25.7 0 0 234.32 35.72
  L 234.52 35.97
  Q 235.06 36.65 234.19 36.61
  L 230.52 36.43
  L 230.37 32.39
  Q 230.35 31.91 230.65 31.53
  Q 230.88 31.24 231.04 30.92
  Q 231.08 30.85 231.15 30.88
  Q 231.26 30.92 231.18 30.89
  Q 230.68 31.63 230.71 32.07
  Q 230.76 32.96 231.06 32.12
  Q 231.65 30.48 233.23 30.37
  Q 233.70 30.34 233.73 29.87
  L 233.92 27.29
  Z"
/>
<path fill="#000000" fill-opacity="0.965" d="
  M 332.22 37.24
  L 331.56 37.50
  Q 331.27 37.61 331.56 37.73
  L 331.98 37.90
  L 304.24 37.90
  Q 304.04 37.90 304.06 37.70
  L 304.11 37.41
  Q 304.13 37.20 304.35 37.20
  L 332.22 37.24
  Z"
/>
<path fill="#000000" fill-opacity="0.718" d="
  M 197.00 50.50
  Q 199.72 57.92 205.75 56.96
  C 207.58 57.47 209.18 57.93 211.12 57.94
  Q 234.69 58.04 258.60 58.02
  Q 256.66 59.12 253.25 59.12
  Q 229.25 59.12 205.25 59.06
  Q 201.08 59.05 198.03 56.35
  Q 197.91 56.24 197.83 56.09
  Q 197.73 55.91 197.54 55.80
  Q 196.87 55.43 197.40 55.98
  Q 197.59 56.18 197.65 56.44
  Q 197.73 56.75 197.49 56.53
  Q 195.94 55.12 195.67 52.65
  L 197.00 50.50
  Z"
/>
<path fill="#000000" fill-opacity="0.718" d="
  M 129.53 57.67
  L 179.66 57.94
  Q 180.99 58.44 178.48 58.98
  Q 177.81 59.12 176.99 59.12
  Q 152.37 59.12 127.75 59.12
  Q 123.27 59.12 119.24 55.52
  Q 119.09 55.39 118.95 55.54
  Q 118.83 55.68 118.93 55.80
  Q 119.43 56.38 118.83 55.90
  Q 118.50 55.63 118.32 55.69
  L 118.33 52.49
  Q 123.91 58.18 129.53 57.67
  Z"
/>
<path fill="#010100" fill-opacity="0.533" d="
  M 195.67 52.65
  Q 195.94 55.12 197.49 56.53
  Q 197.73 56.75 197.65 56.44
  Q 197.59 56.18 197.40 55.98
  Q 196.87 55.43 197.54 55.80
  Q 197.73 55.91 197.83 56.09
  Q 197.91 56.24 198.03 56.35
  Q 201.08 59.05 205.25 59.06
  Q 229.25 59.12 253.25 59.12
  Q 256.66 59.12 258.60 58.02
  L 261.44 58.04
  L 258.99 59.83
  A 1.04 0.96 17.5 0 1 258.63 60.00
  Q 255.10 60.93 252.12 60.93
  Q 226.38 60.97 205.27 60.91
  Q 201.34 60.90 197.75 58.88
  Q 196.75 58.31 195.66 56.93
  Q 194.58 55.58 193.44 54.98
  L 195.67 52.65
  Z"
/>
<path fill="#000000" fill-opacity="0.718" d="
  M 276.29 57.26
  C 277.12 57.57 277.67 57.94 278.61 57.94
  Q 304.28 58.03 330.39 58.03
  Q 328.69 59.11 325.00 59.12
  Q 306.49 59.14 287.99 59.11
  C 285.07 59.10 280.26 58.65 276.25 59.17
  A 1.89 1.80 51.1 0 1 275.33 59.05
  L 272.63 57.95
  L 271.25 54.19
  Q 271.15 53.91 271.44 53.83
  L 271.75 53.75
  Q 271.80 53.74 271.81 53.79
  L 272.19 55.64
  A 0.92 0.91 88.6 0 0 272.94 56.36
  Q 273.72 56.48 274.15 57.20
  Q 274.41 57.65 274.94 57.68
  Q 275.83 57.74 276.29 57.26
  Z"
/>
<path fill="#010100" fill-opacity="0.533" d="
  M 272.63 57.95
  L 275.33 59.05
  A 1.89 1.80 51.1 0 0 276.25 59.17
  C 280.26 58.65 285.07 59.10 287.99 59.11
  Q 306.49 59.14 325.00 59.12
  Q 328.69 59.11 330.39 58.03
  L 332.71 57.96
  Q 331.32 60.83 329.00 60.84
  Q 302.91 60.92 276.83 60.83
  C 272.89 60.82 269.87 60.19 269.66 55.79
  Q 269.64 55.26 268.46 55.62
  L 269.49 54.65
  Q 270.29 57.65 271.67 59.35
  Q 271.74 59.44 271.84 59.39
  Q 271.89 59.37 271.93 59.33
  Q 271.97 59.28 271.93 59.24
  Q 270.30 57.59 270.39 55.28
  Q 270.41 54.68 270.74 55.19
  Q 271.09 55.72 270.88 56.30
  Q 270.68 55.49 270.97 54.89
  Q 271.22 54.36 271.29 54.94
  Q 271.52 56.88 272.63 57.95
  Z"
/>
<path fill="#000000" fill-opacity="0.180" d="
  M 193.44 54.98
  Q 194.58 55.58 195.66 56.93
  Q 196.75 58.31 197.75 58.88
  Q 201.34 60.90 205.27 60.91
  Q 226.38 60.97 252.12 60.93
  Q 255.10 60.93 258.63 60.00
  A 1.04 0.96 17.5 0 0 258.99 59.83
  L 261.44 58.04
  Q 265.28 57.70 268.46 55.62
  Q 269.64 55.26 269.66 55.79
  C 269.87 60.19 272.89 60.82 276.83 60.83
  Q 302.91 60.92 329.00 60.84
  Q 331.32 60.83 332.71 57.96
  L 341.77 57.43
  Q 341.71 57.70 341.66 57.96
  Q 342.04 59.00 343.75 59.36
  Q 343.84 59.38 343.75 59.39
  Q 342.20 59.55 341.06 58.70
  A 0.20 0.20 0.0 0 0 340.74 58.87
  Q 340.75 59.11 341.02 59.23
  Q 341.41 59.41 340.98 59.34
  C 340.41 59.25 340.72 58.67 340.23 58.53
  Q 339.31 58.27 339.89 59.02
  Q 340.33 59.59 342.03 60.13
  Q 344.90 61.03 347.45 61.09
  Q 352.46 61.19 357.65 61.12
  Q 359.30 61.10 360.80 60.42
  Q 360.94 60.35 360.81 60.28
  Q 360.75 60.24 360.68 60.25
  Q 360.08 60.33 360.63 60.08
  Q 361.74 59.56 362.33 58.04
  L 366.22 58.05
  Q 362.54 62.96 356.99 63.14
  Q 352.30 63.30 346.14 62.97
  C 343.92 62.85 341.91 62.08 339.75 61.69
  C 338.59 61.48 337.91 60.64 336.90 60.11
  A 1.75 1.75 0.0 0 0 334.72 60.57
  Q 332.71 63.11 329.60 63.11
  Q 302.52 63.12 275.30 63.13
  C 273.47 63.13 272.17 62.45 270.46 62.11
  A 1.25 1.24 -14.6 0 1 269.72 61.68
  Q 268.09 59.79 267.29 57.79
  A 0.74 0.73 -37.8 0 0 266.01 57.63
  Q 265.63 58.14 265.02 58.08
  Q 264.44 58.03 264.01 58.43
  Q 263.16 59.24 262.40 60.08
  Q 261.59 60.97 260.60 61.40
  Q 256.70 63.12 251.98 63.12
  Q 229.50 63.13 206.94 63.12
  Q 203.71 63.12 200.49 62.39
  Q 195.23 61.22 193.64 57.07
  Q 193.43 56.54 192.91 56.29
  L 192.24 55.99
  Q 192.46 55.61 193.44 54.98
  Z"
/>
<path fill="#010100" fill-opacity="0.533" d="
  M 179.66 57.94
  L 186.76 58.00
  Q 186.20 59.56 184.56 60.39
  Q 182.78 61.27 184.34 60.04
  Q 184.41 59.99 185.34 59.66
  Q 185.55 59.59 185.48 59.37
  L 185.47 59.37
  Q 185.40 59.15 185.19 59.23
  Q 180.61 60.80 175.75 60.83
  Q 151.56 60.95 127.21 60.91
  C 125.89 60.90 124.42 60.30 123.14 59.94
  Q 120.52 59.21 118.50 56.99
  Q 118.32 56.79 117.76 56.90
  Q 117.88 56.32 118.32 55.69
  Q 118.50 55.63 118.83 55.90
  Q 119.43 56.38 118.93 55.80
  Q 118.83 55.68 118.95 55.54
  Q 119.09 55.39 119.24 55.52
  Q 123.27 59.12 127.75 59.12
  Q 152.37 59.12 176.99 59.12
  Q 177.81 59.12 178.48 58.98
  Q 180.99 58.44 179.66 57.94
  Z"
/>
<path fill="#000000" fill-opacity="0.180" d="
  M 117.76 56.90
  Q 118.32 56.79 118.50 56.99
  Q 120.52 59.21 123.14 59.94
  C 124.42 60.30 125.89 60.90 127.21 60.91
  Q 151.56 60.95 175.75 60.83
  Q 180.61 60.80 185.19 59.23
  Q 185.40 59.15 185.47 59.37
  L 185.48 59.37
  Q 185.55 59.59 185.34 59.66
  Q 184.41 59.99 184.34 60.04
  Q 182.78 61.27 184.56 60.39
  Q 186.20 59.56 186.76 58.00
  Q 187.59 57.57 188.90 57.59
  Q 187.37 59.34 185.59 60.75
  Q 183.93 62.05 182.25 62.35
  C 180.33 62.68 178.46 63.19 176.48 63.17
  Q 153.48 63.03 128.37 63.17
  Q 125.13 63.19 122.46 62.15
  Q 118.94 60.77 116.27 57.89
  L 117.76 56.90
  Z"
/>
<path fill="#000000" fill-opacity="0.718" d="
  M 52.29 57.87
  L 67.77 57.99
  Q 66.97 59.57 65.25 59.63
  Q 58.77 59.84 50.48 59.38
  Q 50.20 59.23 49.75 59.16
  Q 50.23 58.58 50.41 57.87
  Q 50.52 57.42 50.93 57.62
  Q 51.61 57.95 52.29 57.87
  Z"
/>
<path fill="#010100" fill-opacity="0.533" d="
  M 341.66 57.96
  Q 349.82 59.54 358.83 58.83
  A 0.37 0.36 78.7 0 0 359.14 58.35
  Q 359.09 58.20 358.94 58.02
  L 362.33 58.04
  Q 361.74 59.56 360.63 60.08
  Q 360.08 60.33 360.68 60.25
  Q 360.75 60.24 360.81 60.28
  Q 360.94 60.35 360.80 60.42
  Q 359.30 61.10 357.65 61.12
  Q 352.46 61.19 347.45 61.09
  Q 344.90 61.03 342.03 60.13
  Q 340.33 59.59 339.89 59.02
  Q 339.31 58.27 340.23 58.53
  C 340.72 58.67 340.41 59.25 340.98 59.34
  Q 341.41 59.41 341.02 59.23
  Q 340.75 59.11 340.74 58.87
  A 0.20 0.20 0.0 0 1 341.06 58.70
  Q 342.20 59.55 343.75 59.39
  Q 343.84 59.38 343.75 59.36
  Q 342.04 59.00 341.66 57.96
  Z"
/>
<path fill="#010100" fill-opacity="0.533" d="
  M 67.77 57.99
  L 68.30 58.06
  Q 68.54 58.70 67.76 59.28
  Q 67.30 59.63 66.71 59.84
  Q 66.52 59.91 66.72 59.89
  Q 66.88 59.87 67.03 59.90
  Q 67.11 59.92 67.18 59.87
  L 68.18 59.15
  Q 68.63 58.83 68.52 59.36
  Q 68.46 59.68 68.18 59.83
  C 64.92 61.61 59.39 60.96 55.75 60.81
  Q 52.93 60.69 50.48 59.38
  Q 58.77 59.84 65.25 59.63
  Q 66.97 59.57 67.77 57.99
  Z"
/>
<path fill="#000000" fill-opacity="0.180" d="
  M 68.30 58.06
  L 71.91 58.06
  Q 71.20 60.16 69.64 61.62
  Q 68.09 63.07 65.97 63.08
  Q 62.48 63.10 59.27 63.18
  Q 57.02 63.24 53.62 61.80
  Q 50.35 60.40 46.86 59.13
  Q 47.55 58.81 48.71 59.05
  Q 49.17 59.25 49.75 59.16
  Q 50.20 59.23 50.48 59.38
  Q 52.93 60.69 55.75 60.81
  C 59.39 60.96 64.92 61.61 68.18 59.83
  Q 68.46 59.68 68.52 59.36
  Q 68.63 58.83 68.18 59.15
  L 67.18 59.87
  Q 67.11 59.92 67.03 59.90
  Q 66.88 59.87 66.72 59.89
  Q 66.52 59.91 66.71 59.84
  Q 67.30 59.63 67.76 59.28
  Q 68.54 58.70 68.30 58.06
  Z"
/>
<path fill="#010100" fill-opacity="0.533" d="
  M 106.39 58.16
  Q 107.60 57.84 109.45 58.07
  C 109.41 59.92 108.02 60.85 106.21 60.96
  Q 99.30 61.39 94.75 61.10
  Q 91.56 60.89 87.73 58.97
  Q 91.69 58.95 95.54 58.77
  Q 95.86 58.75 100.94 58.96
  Q 103.75 59.07 106.39 58.16
  Z"
/>
<path fill="#000000" fill-opacity="0.180" d="
  M 109.45 58.07
  L 111.83 58.05
  Q 110.55 62.92 105.22 63.06
  Q 101.89 63.14 98.54 63.13
  Q 95.24 63.12 92.18 61.99
  Q 88.88 60.77 85.65 59.44
  Q 86.21 59.01 87.49 59.08
  Q 87.61 59.02 87.73 58.97
  Q 91.56 60.89 94.75 61.10
  Q 99.30 61.39 106.21 60.96
  C 108.02 60.85 109.41 59.92 109.45 58.07
  Z"
/>
</svg>
