<?xml version="1.0" encoding="UTF-8" standalone="no"?>
<!DOCTYPE svg PUBLIC "-//W3C//DTD SVG 1.1//EN" "http://www.w3.org/Graphics/SVG/1.1/DTD/svg11.dtd">
<svg xmlns="http://www.w3.org/2000/svg" version="1.1" viewBox="0.00 0.00 339.00 113.00">
<path fill="#ff171f" d="
  M 30.76 8.98
  A 0.51 0.50 12.6 0 0 30.30 8.26
  L 9.75 8.24
  Q 6.10 8.23 7.57 4.90
  Q 7.75 4.50 7.89 4.19
  Q 9.27 1.06 12.69 1.06
  Q 40.56 1.04 67.22 1.11
  C 79.09 1.13 85.18 9.04 80.94 20.53
  Q 77.17 30.75 73.10 42.20
  Q 71.31 47.24 68.65 51.68
  C 63.13 60.92 55.91 64.44 45.92 66.53
  Q 38.14 68.16 30.19 68.73
  Q 29.22 68.80 28.86 69.71
  Q 25.59 77.94 22.97 85.03
  C 20.71 91.13 7.97 89.81 2.91 88.67
  Q 2.34 88.54 2.40 87.95
  Q 2.71 84.99 3.89 81.77
  Q 16.55 46.97 29.34 12.38
  Q 29.94 10.74 30.76 8.98
  Z
  M 61.14 20.21
  C 62.35 17.09 65.46 9.04 59.37 8.64
  Q 54.87 8.34 51.31 8.40
  A 1.15 1.15 0.0 0 0 50.24 9.16
  L 31.99 59.94
  Q 31.71 60.73 32.53 60.62
  Q 47.08 58.62 51.87 45.46
  C 54.98 36.93 57.91 28.49 61.14 20.21
  Z"
/>
<path fill="#ff171f" d="
  M 292.99 44.60
  Q 302.09 37.59 313.30 38.82
  C 323.10 39.90 324.15 47.66 321.84 55.54
  C 317.83 69.22 310.99 86.31 293.88 86.31
  C 290.79 86.31 287.63 86.29 284.94 84.62
  A 0.53 0.52 26.0 0 0 284.17 84.88
  Q 280.15 95.57 276.48 105.78
  Q 275.20 109.34 271.50 110.04
  Q 265.45 111.19 259.81 109.71
  Q 258.31 109.32 258.83 107.86
  Q 262.68 96.96 267.12 85.20
  C 267.43 84.37 267.97 83.75 268.34 82.98
  Q 268.66 82.29 267.96 82.60
  C 264.49 84.14 261.40 85.34 257.54 85.75
  C 254.23 86.09 248.43 84.25 249.13 79.94
  Q 249.31 78.83 248.45 79.56
  Q 239.75 86.98 228.63 86.18
  Q 221.06 85.64 218.75 79.40
  Q 218.55 78.85 218.05 79.18
  Q 207.24 86.50 192.26 86.29
  Q 186.80 86.21 182.50 84.03
  C 170.35 77.87 170.07 66.52 174.38 55.07
  Q 178.24 44.83 181.35 35.71
  Q 185.29 24.16 189.10 18.60
  Q 195.84 8.75 206.92 4.34
  C 215.16 1.07 225.54 0.57 234.08 2.79
  C 239.87 4.31 245.73 7.99 243.75 15.08
  C 242.62 19.10 240.86 25.20 236.60 26.83
  Q 232.25 28.49 228.02 29.90
  C 225.16 30.86 222.17 28.89 223.63 25.57
  Q 226.01 20.16 228.30 13.80
  Q 229.00 11.86 227.20 10.80
  C 221.09 7.19 211.24 8.79 208.61 16.08
  Q 200.54 38.43 192.00 62.13
  C 189.92 67.89 190.75 74.76 197.46 76.80
  C 203.26 78.56 217.69 74.08 219.70 67.85
  C 224.00 54.50 229.72 39.77 246.01 38.64
  Q 252.21 38.21 256.09 41.25
  Q 256.60 41.65 256.95 41.12
  C 259.31 37.55 264.21 37.91 267.77 39.43
  C 271.83 41.18 272.26 44.41 270.87 48.10
  Q 265.56 62.21 261.31 73.97
  Q 259.85 78.01 264.11 77.48
  Q 265.56 77.30 267.00 76.60
  Q 271.01 74.64 272.56 70.46
  Q 277.34 57.60 282.40 43.72
  Q 283.95 39.49 288.92 39.58
  Q 291.35 39.63 292.92 40.83
  Q 293.42 41.21 293.26 41.82
  L 292.61 44.36
  Q 292.44 45.03 292.99 44.60
  Z
  M 253.49 49.49
  A 3.04 3.04 0.0 0 0 249.67 45.51
  L 246.17 46.71
  A 3.04 3.04 0.0 0 0 244.31 48.52
  L 234.49 74.75
  A 3.04 3.04 0.0 0 0 238.66 78.55
  L 241.87 76.99
  A 3.04 3.04 0.0 0 0 243.37 75.36
  L 253.49 49.49
  Z
  M 296.90 51.20
  C 293.55 59.45 290.72 67.71 287.42 75.80
  Q 285.74 79.90 290.13 79.29
  Q 290.95 79.17 291.72 79.07
  Q 296.08 78.46 297.59 74.33
  L 306.40 50.27
  Q 307.86 46.28 303.63 46.54
  Q 303.20 46.57 302.78 46.63
  Q 298.52 47.21 296.90 51.20
  Z"
/>
<path fill="#ff171f" d="
  M 124.82 51.43
  Q 119.92 54.58 114.60 54.12
  A 0.73 0.73 0.0 0 0 113.85 54.60
  Q 110.44 64.10 106.68 73.44
  C 103.72 80.81 97.31 84.02 89.97 85.65
  C 82.83 87.22 73.74 87.61 68.07 83.09
  Q 62.97 79.04 65.47 72.38
  Q 71.77 55.57 75.81 48.52
  C 80.85 39.71 96.43 37.73 105.52 39.22
  Q 111.85 40.25 115.65 45.32
  Q 116.04 45.83 116.64 46.05
  C 121.21 47.69 125.61 44.39 129.03 41.49
  C 131.38 39.50 134.47 39.31 137.32 40.09
  Q 139.22 40.60 138.67 42.49
  L 138.29 43.79
  Q 137.91 45.10 138.99 44.26
  Q 145.55 39.13 155.47 38.65
  C 166.05 38.13 170.54 44.80 167.68 54.67
  C 162.87 71.27 154.62 90.63 132.72 85.67
  C 131.84 85.47 131.37 85.09 130.63 84.65
  Q 130.04 84.29 129.80 84.93
  Q 125.84 95.31 121.77 106.51
  C 119.83 111.85 109.01 110.74 105.14 109.57
  A 1.30 1.29 -71.3 0 1 104.31 107.88
  L 125.15 51.69
  Q 125.38 51.07 124.82 51.43
  Z
  M 80.40 75.79
  A 3.10 3.10 0.0 0 0 84.41 79.79
  L 87.70 78.51
  A 3.10 3.10 0.0 0 0 89.46 76.75
  L 100.06 49.43
  A 3.10 3.10 0.0 0 0 96.35 45.32
  L 93.11 46.21
  A 3.10 3.10 0.0 0 0 91.04 48.09
  L 80.40 75.79
  Z
  M 148.99 46.63
  Q 148.48 46.67 147.97 46.77
  Q 143.78 47.63 142.26 51.63
  L 132.24 78.04
  A 0.41 0.40 -69.5 0 0 132.47 78.56
  Q 140.32 81.55 143.25 73.94
  Q 147.44 63.07 151.88 50.42
  Q 153.31 46.33 148.99 46.63
  Z"
/>
<path fill="#ff171f" d="
  M 337.74 43.79
  A 5.27 5.27 0.0 0 1 332.47 49.06
  A 5.27 5.27 0.0 0 1 327.20 43.79
  A 5.27 5.27 0.0 0 1 332.47 38.52
  A 5.27 5.27 0.0 0 1 337.74 43.79
  Z
  M 332.5393 47.9399
  A 4.20 3.82 89.6 0 0 336.3299 43.7133
  A 4.20 3.82 89.6 0 0 332.4807 39.5401
  A 4.20 3.82 89.6 0 0 328.6901 43.7667
  A 4.20 3.82 89.6 0 0 332.5393 47.9399
  Z"
/>
<path fill="#ff171f" d="
  M 332.28 44.52
  Q 332.13 44.46 331.97 44.59
  Q 331.81 44.71 331.82 44.91
  Q 331.87 45.57 331.45 46.10
  A 0.66 0.66 0.0 0 1 330.27 45.67
  L 330.32 42.05
  A 0.94 0.94 0.0 0 1 330.97 41.17
  Q 333.56 40.31 334.87 41.96
  Q 335.49 42.74 334.73 43.39
  Q 333.65 44.33 334.30 45.65
  Q 335.02 47.13 333.60 46.29
  Q 333.17 46.03 333.05 45.45
  Q 332.91 44.75 332.28 44.52
  Z
  M 333.7286 42.6746
  A 1.08 0.72 2.9 0 0 332.6864 41.9009
  A 1.08 0.72 2.9 0 0 331.5714 42.5654
  A 1.08 0.72 2.9 0 0 332.6136 43.3391
  A 1.08 0.72 2.9 0 0 333.7286 42.6746
  Z"
/>
</svg>
