<?xml version="1.0" encoding="UTF-8" standalone="no"?>
<!DOCTYPE svg PUBLIC "-//W3C//DTD SVG 1.1//EN" "http://www.w3.org/Graphics/SVG/1.1/DTD/svg11.dtd">
<svg xmlns="http://www.w3.org/2000/svg" version="1.1" viewBox="0.00 0.00 752.00 239.00">
  <g stroke-width="2.00" fill="none" stroke-linecap="butt">
    <path stroke="#2c62a6" vector-effect="non-scaling-stroke" d="
  M 233.65 30.29
  Q 233.48 30.21 233.27 30.17
  Q 232.64 30.07 232.87 30.65
  Q 232.92 30.79 232.77 30.94
  Q 232.64 31.05 232.47 31.06
  Q 229.76 31.21 226.88 31.14
  Q 226.71 31.13 226.55 31.07
  Q 226.49 31.04 226.46 30.97
  Q 226.20 30.37 225.92 30.98
  Q 225.58 31.71 225.38 32.55" />
    <path stroke="#2c62a6" vector-effect="non-scaling-stroke" d="
  M 363.40 51.05
  Q 363.05 50.52 363.09 49.70
  Q 363.11 49.30 362.71 49.27
  L 354.75 48.68
  Q 354.43 48.65 354.50 48.35
  Q 354.53 48.22 354.53 48.09
  Q 354.48 47.07 354.36 48.12
  Q 354.33 48.34 354.33 48.56
  Q 354.34 48.83 354.07 48.85
  Q 353.84 48.88 353.49 48.53" />
    <path stroke="#227bb4" vector-effect="non-scaling-stroke" d="
  M 363.39 77.04
  Q 363.09 76.91 363.11 76.38
  Q 363.13 75.82 362.59 75.92
  Q 362.32 75.97 362.10 76.20
  A 0.75 0.74 26.7 0 1 361.41 76.42
  Q 358.41 75.80 355.38 76.76
  Q 354.97 76.89 354.59 76.70
  Q 354.50 76.66 354.47 76.57
  Q 354.26 76.04 353.86 76.50
  Q 353.69 76.70 353.49 76.80" />
    <path stroke="#1299c1" vector-effect="non-scaling-stroke" d="
  M 363.39 113.05
  L 363.11 112.19
  Q 362.97 111.76 362.51 111.76
  L 353.48 111.72" />
    <path stroke="#2c62a6" vector-effect="non-scaling-stroke" d="
  M 751.73 14.45
  L 743.46 14.00
  Q 742.95 13.97 742.78 13.48
  Q 742.54 12.83 742.62 12.04" />
    <path stroke="#227bb4" vector-effect="non-scaling-stroke" d="
  M 751.73 55.69
  Q 751.27 56.53 750.40 56.22
  Q 750.33 56.19 750.27 56.24
  Q 750.18 56.31 750.24 56.47
  Q 750.29 56.61 750.15 56.61
  L 743.91 56.83
  A 1.04 1.03 -69.7 0 0 743.16 57.18
  Q 742.68 57.72 742.63 58.54" />
    <path stroke="#198bb9" vector-effect="non-scaling-stroke" d="
  M 527.23 73.31
  Q 523.39 74.78 517.27 73.97" />
    <path stroke="#0fa3c7" vector-effect="non-scaling-stroke" d="
  M 527.24 105.83
  Q 523.50 104.40 518.36 105.43
  Q 518.22 105.46 518.17 105.34
  Q 518.15 105.29 518.14 105.24
  Q 518.11 105.11 517.96 105.11
  Q 517.64 105.11 517.26 105.30" />
    <path stroke="#227bb4" vector-effect="non-scaling-stroke" d="
  M 9.11 69.75
  Q 8.11 70.27 7.42 70.94
  Q 7.01 71.34 7.07 70.77
  Q 7.10 70.46 6.65 70.46
  A 0.50 0.46 -57.0 0 0 6.42 70.52
  Q 4.12 71.70 1.22 70.92
  Q 1.13 70.90 1.12 70.99
  Q 1.12 71.03 1.10 71.08
  Q 1.00 71.38 0.83 71.12
  Q 0.43 70.53 0.00 70.23" />
    <path stroke="#198bb9" vector-effect="non-scaling-stroke" d="
  M 9.12 106.43
  Q 6.28 105.89 2.94 106.12
  Q 1.88 106.20 1.24 106.79
  Q 0.63 107.36 0.00 108.23" />
  </g>
  <path fill="#2f5097" d="
  M 0.00 0.00
  L 0.51 0.00
  Q 0.51 0.05 0.51 0.11
  Q 0.51 0.21 0.62 0.21
  Q 116.80 0.22 233.02 0.21
  Q 233.53 0.21 233.53 0.73
  L 233.65 30.29
  Q 233.48 30.21 233.27 30.17
  Q 232.64 30.07 232.87 30.65
  Q 232.92 30.79 232.77 30.94
  Q 232.64 31.05 232.47 31.06
  Q 229.76 31.21 226.88 31.14
  Q 226.71 31.13 226.55 31.07
  Q 226.49 31.04 226.46 30.97
  Q 226.20 30.37 225.92 30.98
  Q 225.58 31.71 225.38 32.55
  L 225.37 9.89
  Q 225.37 9.26 224.74 9.26
  L 0.00 9.28
  L 0.00 0.00
  Z" />
  <path fill="#2f5097" d="
  M 363.40 51.05
  Q 363.05 50.52 363.09 49.70
  Q 363.11 49.30 362.71 49.27
  L 354.75 48.68
  Q 354.43 48.65 354.50 48.35
  Q 354.53 48.22 354.53 48.09
  Q 354.48 47.07 354.36 48.12
  Q 354.33 48.34 354.33 48.56
  Q 354.34 48.83 354.07 48.85
  Q 353.84 48.88 353.49 48.53
  L 353.53 0.71
  Q 353.53 0.22 354.03 0.22
  L 482.00 0.21
  Q 482.28 0.21 482.28 0.50
  L 482.29 9.00
  Q 482.29 9.29 482.00 9.29
  L 363.75 9.29
  A 0.34 0.34 0.0 0 0 363.41 9.63
  L 363.40 51.05
  Z" />
  <path fill="#2f5097" d="
  M 751.73 14.45
  L 743.46 14.00
  Q 742.95 13.97 742.78 13.48
  Q 742.54 12.83 742.62 12.04
  L 742.55 9.79
  Q 742.53 9.29 742.03 9.29
  L 517.52 9.29
  Q 517.25 9.29 517.25 9.02
  L 517.26 0.38
  A 0.17 0.17 0.0 0 1 517.43 0.21
  L 751.22 0.21
  Q 751.69 0.21 751.69 0.69
  L 751.73 14.45
  Z" />
  <path fill="#2874b5" d="
  M 742.62 12.04
  Q 742.54 12.83 742.78 13.48
  Q 742.95 13.97 743.46 14.00
  L 751.73 14.45
  L 751.73 55.69
  Q 751.27 56.53 750.40 56.22
  Q 750.33 56.19 750.27 56.24
  Q 750.18 56.31 750.24 56.47
  Q 750.29 56.61 750.15 56.61
  L 743.91 56.83
  A 1.04 1.03 -69.7 0 0 743.16 57.18
  Q 742.68 57.72 742.63 58.54
  L 742.62 12.04
  Z" />
  <path fill="#2874b5" d="
  M 233.65 30.29
  L 233.68 68.91
  A 0.29 0.29 0.0 0 1 233.39 69.20
  Q 121.48 69.20 9.50 69.20
  Q 9.08 69.20 9.11 69.75
  Q 8.11 70.27 7.42 70.94
  Q 7.01 71.34 7.07 70.77
  Q 7.10 70.46 6.65 70.46
  A 0.50 0.46 -57.0 0 0 6.42 70.52
  Q 4.12 71.70 1.22 70.92
  Q 1.13 70.90 1.12 70.99
  Q 1.12 71.03 1.10 71.08
  Q 1.00 71.38 0.83 71.12
  Q 0.43 70.53 0.00 70.23
  L 0.00 60.04
  L 225.01 60.03
  Q 225.38 60.03 225.38 59.67
  L 225.38 32.55
  Q 225.58 31.71 225.92 30.98
  Q 226.20 30.37 226.46 30.97
  Q 226.49 31.04 226.55 31.07
  Q 226.71 31.13 226.88 31.14
  Q 229.76 31.21 232.47 31.06
  Q 232.64 31.05 232.77 30.94
  Q 232.92 30.79 232.87 30.65
  Q 232.64 30.07 233.27 30.17
  Q 233.48 30.21 233.65 30.29
  Z" />
  <path fill="#2874b5" d="
  M 363.40 51.05
  L 363.39 77.04
  Q 363.09 76.91 363.11 76.38
  Q 363.13 75.82 362.59 75.92
  Q 362.32 75.97 362.10 76.20
  A 0.75 0.74 26.7 0 1 361.41 76.42
  Q 358.41 75.80 355.38 76.76
  Q 354.97 76.89 354.59 76.70
  Q 354.50 76.66 354.47 76.57
  Q 354.26 76.04 353.86 76.50
  Q 353.69 76.70 353.49 76.80
  L 353.49 48.53
  Q 353.84 48.88 354.07 48.85
  Q 354.34 48.83 354.33 48.56
  Q 354.33 48.34 354.36 48.12
  Q 354.48 47.07 354.53 48.09
  Q 354.53 48.22 354.50 48.35
  Q 354.43 48.65 354.75 48.68
  L 362.71 49.27
  Q 363.11 49.30 363.09 49.70
  Q 363.05 50.52 363.40 51.05
  Z" />
  <path fill="#1c81b3" d="
  M 751.73 55.69
  L 751.66 68.75
  Q 751.66 69.20 751.20 69.20
  L 527.77 69.20
  Q 527.29 69.20 527.28 69.68
  L 527.23 73.31
  Q 523.39 74.78 517.27 73.97
  L 517.36 60.49
  Q 517.36 60.04 517.80 60.04
  L 742.27 60.04
  Q 742.67 60.04 742.66 59.64
  L 742.63 58.54
  Q 742.68 57.72 743.16 57.18
  A 1.04 1.03 -69.7 0 1 743.91 56.83
  L 750.15 56.61
  Q 750.29 56.61 750.24 56.47
  Q 750.18 56.31 750.27 56.24
  Q 750.33 56.19 750.40 56.22
  Q 751.27 56.53 751.73 55.69
  Z" />
  <path fill="#1c81b3" d="
  M 9.11 69.75
  L 9.12 106.43
  Q 6.28 105.89 2.94 106.12
  Q 1.88 106.20 1.24 106.79
  Q 0.63 107.36 0.00 108.23
  L 0.00 70.23
  Q 0.43 70.53 0.83 71.12
  Q 1.00 71.38 1.10 71.08
  Q 1.12 71.03 1.12 70.99
  Q 1.13 70.90 1.22 70.92
  Q 4.12 71.70 6.42 70.52
  A 0.50 0.46 -57.0 0 1 6.65 70.46
  Q 7.10 70.46 7.07 70.77
  Q 7.01 71.34 7.42 70.94
  Q 8.11 70.27 9.11 69.75
  Z" />
  <path fill="#1595bf" d="
  M 527.23 73.31
  L 527.24 105.83
  Q 523.50 104.40 518.36 105.43
  Q 518.22 105.46 518.17 105.34
  Q 518.15 105.29 518.14 105.24
  Q 518.11 105.11 517.96 105.11
  Q 517.64 105.11 517.26 105.30
  L 517.27 73.97
  Q 523.39 74.78 527.23 73.31
  Z" />
  <path fill="#1c81b3" d="
  M 363.39 77.04
  L 363.39 113.05
  L 363.11 112.19
  Q 362.97 111.76 362.51 111.76
  L 353.48 111.72
  L 353.49 76.80
  Q 353.69 76.70 353.86 76.50
  Q 354.26 76.04 354.47 76.57
  Q 354.50 76.66 354.59 76.70
  Q 354.97 76.89 355.38 76.76
  Q 358.41 75.80 361.41 76.42
  A 0.75 0.74 26.7 0 0 362.10 76.20
  Q 362.32 75.97 362.59 75.92
  Q 363.13 75.82 363.11 76.38
  Q 363.09 76.91 363.39 77.04
  Z" />
  <path fill="#08b1ce" d="
  M 527.24 105.83
  L 527.29 120.29
  Q 527.29 120.76 527.77 120.76
  L 751.50 120.76
  Q 751.75 120.76 751.75 121.00
  L 751.75 129.67
  Q 751.75 129.88 751.55 129.88
  L 517.62 129.88
  A 0.35 0.35 0.0 0 1 517.27 129.53
  L 517.26 105.30
  Q 517.64 105.11 517.96 105.11
  Q 518.11 105.11 518.14 105.24
  Q 518.15 105.29 518.17 105.34
  Q 518.22 105.46 518.36 105.43
  Q 523.50 104.40 527.24 105.83
  Z" />
  <path fill="#1595bf" d="
  M 9.12 106.43
  L 9.08 129.29
  Q 9.07 129.82 8.55 129.81
  L 0.00 129.74
  L 0.00 108.23
  Q 0.63 107.36 1.24 106.79
  Q 1.88 106.20 2.94 106.12
  Q 6.28 105.89 9.12 106.43
  Z" />
  <path fill="#08b1ce" d="
  M 353.48 111.72
  L 362.51 111.76
  Q 362.97 111.76 363.11 112.19
  L 363.39 113.05
  L 363.39 129.62
  A 0.26 0.26 0.0 0 1 363.13 129.88
  L 233.93 129.88
  Q 233.73 129.88 233.73 129.68
  L 233.72 121.02
  Q 233.72 120.76 233.98 120.76
  L 353.03 120.76
  Q 353.48 120.76 353.48 120.32
  L 353.48 111.72
  Z" />
  <path fill="#ffffff" d="
  M 531.29 217.00
  L 558.99 217.00
  Q 559.49 217.00 559.49 217.49
  L 559.49 222.51
  Q 559.48 222.86 559.14 222.86
  Q 542.73 222.86 526.47 222.85
  C 524.15 222.84 522.32 221.09 522.27 218.76
  Q 522.09 210.04 522.59 202.17
  Q 522.81 198.66 524.57 196.27
  C 529.29 189.87 537.74 190.76 545.02 191.01
  C 552.71 191.27 553.15 182.15 551.33 177.18
  C 549.82 173.08 545.99 173.21 541.50 173.22
  Q 533.00 173.23 524.47 173.42
  A 0.43 0.43 0.0 0 1 524.03 172.99
  L 524.03 168.45
  Q 524.04 167.97 524.51 167.95
  Q 537.76 167.31 547.88 167.41
  C 560.01 167.52 561.21 176.89 560.46 186.44
  C 558.94 205.83 531.16 188.45 530.79 202.77
  Q 530.61 209.47 530.67 216.38
  Q 530.67 217.00 531.29 217.00
  Z" />
  <path fill="#ffffff" d="
  M 196.84 180.71
  L 196.85 220.99
  Q 196.85 221.32 196.52 221.32
  L 190.02 221.31
  A 0.29 0.29 0.0 0 1 189.73 221.02
  L 189.73 176.25
  Q 189.73 175.53 190.45 175.54
  C 197.42 175.69 205.81 174.84 212.58 176.54
  C 220.29 178.49 219.93 190.72 218.29 196.47
  C 216.04 204.37 208.32 203.86 201.55 203.40
  Q 201.23 203.38 201.23 203.06
  L 201.20 199.75
  Q 201.20 199.39 201.56 199.40
  C 208.96 199.72 211.48 198.71 211.55 190.82
  C 211.58 186.63 211.62 181.10 206.29 180.32
  Q 202.51 179.77 197.48 180.03
  Q 196.84 180.07 196.84 180.71
  Z" />
  <rect fill="#ffffff" x="224.88" y="175.57" width="7.12" height="45.72" rx="0.37"/>
  <rect fill="#ffffff" x="416.24" y="175.57" width="7.14" height="6.40" rx="0.41"/>
  <path fill="#ffffff" d="
  M 308.76 216.73
  C 312.37 216.80 323.11 218.43 324.61 213.79
  C 325.91 209.76 326.76 201.47 320.71 201.17
  C 314.15 200.84 307.63 200.23 306.80 192.01
  C 306.07 184.85 307.03 176.49 316.06 175.88
  Q 322.28 175.46 329.53 176.01
  Q 329.94 176.04 329.94 176.45
  L 329.93 179.95
  Q 329.92 180.30 329.58 180.28
  C 326.19 180.11 319.67 179.35 317.13 180.65
  C 313.24 182.65 313.34 188.20 314.66 191.79
  C 315.73 194.67 320.88 194.41 323.31 194.54
  C 334.00 195.13 333.66 207.56 331.63 214.90
  C 330.41 219.31 326.68 221.08 322.32 221.20
  Q 314.66 221.40 308.67 220.96
  Q 308.47 220.95 308.47 220.74
  L 308.47 217.02
  A 0.30 0.29 -89.0 0 1 308.76 216.73
  Z" />
  <path fill="#ffffff" d="
  M 347.91 186.26
  L 354.96 186.26
  Q 355.42 186.26 355.41 186.71
  L 355.41 190.05
  Q 355.41 190.52 354.95 190.52
  L 348.00 190.52
  Q 347.36 190.52 347.35 191.16
  Q 347.19 202.78 347.50 214.29
  C 347.58 217.43 350.83 217.21 353.28 216.84
  Q 353.80 216.76 353.80 217.29
  L 353.80 220.55
  Q 353.81 221.18 353.17 221.18
  C 347.56 221.16 340.34 223.17 340.28 214.50
  Q 340.18 196.93 340.28 180.24
  Q 340.28 180.00 340.51 180.00
  L 347.19 180.01
  Q 347.35 180.01 347.35 180.17
  L 347.31 185.66
  Q 347.31 186.26 347.91 186.26
  Z" />
  <path fill="#ffffff" d="
  M 402.50 186.26
  L 409.49 186.25
  Q 409.99 186.25 409.99 186.74
  L 410.00 190.01
  Q 410.00 190.52 409.49 190.52
  L 402.70 190.51
  Q 402.05 190.51 402.04 191.16
  Q 401.85 202.86 402.16 214.29
  C 402.26 217.60 405.77 217.14 407.95 216.84
  Q 408.48 216.76 408.48 217.30
  L 408.49 220.69
  Q 408.49 221.22 407.96 221.21
  C 403.29 221.16 395.25 223.00 395.02 215.63
  C 394.65 203.67 394.90 191.73 394.93 180.29
  Q 394.93 179.99 395.22 179.99
  L 401.84 180.01
  Q 402.00 180.01 402.00 180.16
  L 402.00 185.75
  A 0.51 0.50 90.0 0 0 402.50 186.26
  Z" />
  <path fill="#ffffff" d="
  M 460.86 199.02
  C 461.58 207.06 461.62 218.67 452.25 220.82
  Q 444.07 222.70 437.51 220.09
  C 429.19 216.79 430.16 201.69 431.69 194.88
  Q 433.17 188.33 439.27 186.81
  Q 447.18 184.85 454.04 187.32
  C 458.92 189.07 460.44 194.29 460.86 199.02
  Z
  M 447.96 190.97
  Q 440.61 189.56 439.37 196.89
  Q 438.19 203.86 439.56 211.61
  C 440.77 218.47 451.24 218.67 452.59 211.93
  Q 454.17 204.01 452.68 196.03
  Q 451.87 191.72 447.96 190.97
  Z" />
  <path fill="#ffffff" d="
  M 259.20 215.78
  Q 259.13 208.09 259.17 198.07
  C 259.18 193.95 257.27 190.86 252.68 190.92
  Q 248.01 190.98 243.54 191.16
  Q 243.10 191.18 243.10 190.73
  L 243.13 187.00
  Q 243.13 186.54 243.59 186.53
  Q 249.00 186.38 254.42 186.26
  C 260.23 186.12 265.93 188.60 266.13 195.27
  Q 266.39 203.98 266.24 220.37
  Q 266.23 220.93 265.67 220.94
  Q 258.92 221.12 252.55 221.18
  C 249.27 221.20 244.42 221.00 241.82 219.07
  C 238.72 216.78 238.30 211.92 238.79 208.30
  C 239.94 199.75 247.50 199.04 254.57 199.80
  A 0.24 0.24 0.0 0 1 254.79 200.04
  L 254.77 203.45
  Q 254.77 203.76 254.45 203.73
  C 248.62 203.05 245.57 205.43 246.11 211.47
  C 246.69 217.97 254.07 217.04 258.54 216.53
  Q 259.21 216.45 259.20 215.78
  Z" />
  <path fill="#ffffff" d="
  M 287.31 211.18
  L 296.37 186.45
  A 0.28 0.26 -78.6 0 1 296.62 186.27
  L 302.74 186.24
  A 0.21 0.21 0.0 0 1 302.94 186.53
  L 281.59 238.55
  A 0.37 0.36 10.5 0 1 281.25 238.78
  L 275.84 238.77
  Q 275.58 238.77 275.68 238.53
  L 282.86 220.93
  Q 283.05 220.46 282.87 219.99
  L 270.11 186.53
  A 0.20 0.20 0.0 0 1 270.30 186.26
  L 278.08 186.26
  A 0.31 0.31 0.0 0 1 278.37 186.47
  L 286.81 211.17
  Q 287.05 211.87 287.31 211.18
  Z" />
  <path fill="#ffffff" d="
  M 379.45 215.85
  Q 379.58 203.05 379.34 196.96
  Q 379.11 191.09 373.16 190.96
  Q 368.85 190.87 363.95 191.20
  Q 363.47 191.23 363.47 190.76
  L 363.45 186.99
  Q 363.45 186.60 363.84 186.58
  Q 374.03 186.04 377.01 186.34
  Q 386.48 187.30 386.53 196.75
  Q 386.60 208.32 386.57 220.54
  Q 386.57 220.92 386.19 220.93
  C 379.35 221.07 372.38 221.72 365.50 220.47
  C 359.55 219.38 358.47 213.68 359.06 208.57
  C 360.10 199.74 367.49 199.14 374.88 199.80
  Q 375.10 199.82 375.10 200.04
  L 375.09 203.44
  Q 375.09 203.61 374.92 203.62
  C 373.14 203.77 370.97 203.41 369.32 204.29
  Q 365.82 206.14 366.47 211.78
  C 367.18 217.95 374.63 217.03 378.85 216.52
  Q 379.44 216.45 379.45 215.85
  Z" />
  <rect fill="#ffffff" x="416.25" y="186.25" width="7.12" height="35.04" rx="0.33"/>
  <path fill="#ffffff" d="
  M 475.83 191.93
  L 475.84 221.06
  Q 475.84 221.25 475.65 221.25
  L 469.01 221.26
  A 0.25 0.25 0.0 0 1 468.76 221.01
  L 468.76 186.95
  A 0.38 0.38 0.0 0 1 469.13 186.57
  Q 477.93 186.34 485.99 186.34
  Q 496.54 186.35 496.60 197.88
  Q 496.65 208.99 496.63 220.85
  Q 496.63 221.26 496.22 221.26
  L 489.95 221.26
  Q 489.47 221.26 489.47 220.77
  Q 489.56 208.54 489.43 197.24
  Q 489.37 192.42 485.40 191.31
  Q 482.53 190.51 476.45 191.23
  Q 475.83 191.31 475.83 191.93
  Z" />
  <path fill="#ffffff" d="
  M 516.53 214.57
  A 6.98 6.98 0.0 0 1 509.55 221.55
  A 6.98 6.98 0.0 0 1 502.57 214.57
  A 6.98 6.98 0.0 0 1 509.55 207.59
  A 6.98 6.98 0.0 0 1 516.53 214.57
  Z
  M 515.36 214.57
  A 5.78 5.78 0.0 0 0 509.58 208.79
  A 5.78 5.78 0.0 0 0 503.80 214.57
  A 5.78 5.78 0.0 0 0 509.58 220.35
  A 5.78 5.78 0.0 0 0 515.36 214.57
  Z" />
  <path fill="#ffffff" d="
  M 508.01 215.72
  L 507.97 217.98
  Q 507.97 218.43 507.52 218.45
  L 507.08 218.47
  Q 506.66 218.50 506.66 218.08
  L 506.64 211.26
  A 0.64 0.64 0.0 0 1 507.25 210.61
  Q 508.78 210.51 510.46 210.62
  C 512.29 210.73 513.54 212.22 512.46 213.98
  Q 512.16 214.47 512.38 215.00
  Q 513.00 216.50 512.70 218.15
  A 0.35 0.35 0.0 0 1 512.29 218.44
  L 512.04 218.39
  Q 511.57 218.30 511.52 217.83
  L 511.34 215.88
  Q 511.28 215.24 510.64 215.24
  L 508.53 215.21
  A 0.52 0.52 0.0 0 0 508.01 215.72
  Z
  M 507.99 212.20
  L 507.99 213.58
  A 0.43 0.43 0.0 0 0 508.42 214.01
  L 509.99 214.01
  A 1.50 0.93 0.1 0 0 511.49 213.08
  L 511.49 212.70
  A 1.50 0.93 0.1 0 0 509.99 211.77
  L 508.42 211.77
  A 0.43 0.43 0.0 0 0 507.99 212.20
  Z" />
</svg>
