<?xml version="1.0" encoding="UTF-8" standalone="no"?>
<!DOCTYPE svg PUBLIC "-//W3C//DTD SVG 1.1//EN" "http://www.w3.org/Graphics/SVG/1.1/DTD/svg11.dtd">
<svg xmlns="http://www.w3.org/2000/svg" version="1.1" viewBox="0.00 0.00 752.00 239.00">
<g stroke-width="2.00" fill="none" stroke-linecap="butt">
<path stroke="#a5a5a5" stroke-opacity="0.651" vector-effect="non-scaling-stroke" d="
  M 232.07 69.29
  Q 231.72 69.20 231.47 69.24"
/>
<path stroke="#6b6b6b" stroke-opacity="0.996" vector-effect="non-scaling-stroke" d="
  M 231.47 69.24
  Q 120.47 69.11 9.50 69.39
  Q 9.17 69.39 9.31 69.91"
/>
<path stroke="#a5a5a5" stroke-opacity="0.651" vector-effect="non-scaling-stroke" d="
  M 9.31 69.91
  Q 9.22 70.27 9.31 70.50"
/>
<path stroke="#6b6b6b" stroke-opacity="0.996" vector-effect="non-scaling-stroke" d="
  M 6.89 130.16
  L 0.00 129.94"
/>
<path stroke="#6b6b6b" stroke-opacity="0.996" vector-effect="non-scaling-stroke" d="
  M 223.29 60.03
  L 224.70 59.90
  Q 225.23 59.85 225.23 59.32
  L 225.23 9.98
  A 0.59 0.58 -90.0 0 0 224.65 9.39
  L 0.00 9.39"
/>
<path stroke="#a5a5a5" stroke-opacity="0.651" vector-effect="non-scaling-stroke" d="
  M 480.81 9.42
  L 364.13 9.44
  Q 363.58 9.44 363.50 9.99
  L 363.39 10.79"
/>
<path stroke="#6b6b6b" stroke-opacity="0.996" vector-effect="non-scaling-stroke" d="
  M 361.05 129.97
  L 234.06 130.00
  A 0.56 0.56 0.0 0 1 233.50 129.43
  L 233.55 122.16"
/>
<path stroke="#6b6b6b" stroke-opacity="0.996" vector-effect="non-scaling-stroke" d="
  M 350.83 120.77
  L 352.80 120.65
  Q 353.32 120.61 353.32 120.10
  L 353.30 0.24"
/>
<path stroke="#010101" stroke-opacity="0.647" vector-effect="non-scaling-stroke" d="
  M 336.56 130.85
  Q 319.75 130.56 303.17 130.66
  Q 302.72 130.66 302.29 130.49
  Q 301.89 130.33 301.47 130.53
  Q 301.08 130.72 300.65 130.71
  Q 297.81 130.68 295.18 130.66
  Q 294.73 130.66 294.31 130.49
  Q 293.91 130.33 293.49 130.51
  Q 293.05 130.70 292.57 130.70
  Q 290.03 130.68 287.26 130.67
  Q 286.74 130.67 286.25 130.48
  Q 285.87 130.34 285.48 130.52
  Q 285.10 130.71 284.67 130.70
  Q 282.37 130.65 280.08 130.65
  Q 274.38 130.65 269.31 130.65
  Q 258.98 130.63 245.25 130.69
  Q 244.84 130.69 244.53 131.06"
/>
<path stroke="#a5a5a5" stroke-opacity="0.651" vector-effect="non-scaling-stroke" d="
  M 750.76 69.26
  Q 750.14 69.11 749.51 69.24"
/>
<path stroke="#6b6b6b" stroke-opacity="0.996" vector-effect="non-scaling-stroke" d="
  M 749.51 69.24
  L 527.75 69.31
  Q 527.20 69.31 527.28 69.85
  L 527.34 70.21"
/>
<path stroke="#a5a5a5" stroke-opacity="0.651" vector-effect="non-scaling-stroke" d="
  M 527.34 70.21
  Q 527.21 70.61 527.27 71.05"
/>
<path stroke="#6b6b6b" stroke-opacity="0.996" vector-effect="non-scaling-stroke" d="
  M 749.55 129.97
  L 518.05 130.02
  A 0.99 0.98 -90.0 0 1 517.07 129.03
  L 517.19 60.69"
/>
<path stroke="#a5a5a5" stroke-opacity="0.651" vector-effect="non-scaling-stroke" d="
  M 739.73 60.04
  Q 739.92 59.93 740.86 59.96"
/>
<path stroke="#6b6b6b" stroke-opacity="0.996" vector-effect="non-scaling-stroke" d="
  M 740.86 59.96
  Q 741.43 60.12 742.01 59.96
  Q 742.50 59.83 742.50 59.33
  L 742.50 9.81
  Q 742.50 9.38 742.06 9.38
  L 518.01 9.39
  A 1.02 1.01 -89.4 0 1 517.00 8.35
  L 517.15 0.74"
/>
<path stroke="#010101" stroke-opacity="0.647" vector-effect="non-scaling-stroke" d="
  M 740.86 59.96
  L 740.42 36.12"
/>
<path stroke="#010101" stroke-opacity="0.647" vector-effect="non-scaling-stroke" d="
  M 740.42 26.53
  L 741.14 11.65
  A 1.76 1.75 1.4 0 0 739.38 9.81
  L 521.73 9.94"
/>
<path stroke="#010101" stroke-opacity="0.647" vector-effect="non-scaling-stroke" d="
  M 749.51 69.24
  Q 748.17 69.88 744.50 69.88
  Q 637.45 70.11 530.40 69.87
  Q 529.70 69.87 529.07 70.06
  Q 528.35 70.27 527.75 69.87
  A 0.20 0.20 0.0 0 0 527.46 69.95
  L 527.34 70.21"
/>
<path stroke="#010101" stroke-opacity="0.647" vector-effect="non-scaling-stroke" d="
  M 515.11 81.48
  L 515.14 71.16"
/>
<path stroke="#808080" stroke-opacity="0.996" vector-effect="non-scaling-stroke" d="
  M 469.00 196.29
  Q 461.72 196.71 454.25 196.53
  Q 453.20 196.51 451.70 197.20"
/>
<path stroke="#c5c5c5" stroke-opacity="0.651" vector-effect="non-scaling-stroke" d="
  M 451.70 197.20
  Q 451.11 197.38 450.71 197.71"
/>
<path stroke="#808080" stroke-opacity="0.996" vector-effect="non-scaling-stroke" d="
  M 473.56 222.97
  Q 458.89 222.89 444.26 222.91
  C 440.74 222.91 439.16 221.38 439.17 217.82
  Q 439.18 210.55 439.46 203.00
  Q 439.67 197.51 443.51 193.98"
/>
<path stroke="#808080" stroke-opacity="0.996" vector-effect="non-scaling-stroke" d="
  M 464.61 190.61
  C 469.10 189.34 469.55 183.44 468.95 179.53
  Q 467.99 173.14 461.42 173.20
  Q 451.55 173.27 441.52 173.47
  A 0.49 0.49 0.0 0 1 441.02 172.99
  L 440.94 168.01"
/>
<path stroke="#010101" stroke-opacity="0.647" vector-effect="non-scaling-stroke" d="
  M 465.04 190.05
  Q 467.43 187.79 466.85 184.50"
/>
<path stroke="#010101" stroke-opacity="0.647" vector-effect="non-scaling-stroke" d="
  M 467.00 183.36
  Q 467.85 181.02 466.74 179.26
  Q 466.58 179.00 466.17 179.26"
/>
<path stroke="#010101" stroke-opacity="0.647" vector-effect="non-scaling-stroke" d="
  M 466.17 179.26
  C 467.15 176.59 464.11 174.64 462.02 174.29
  Q 457.03 173.46 451.99 174.09
  Q 448.07 174.57 439.09 173.96"
/>
<path stroke="#010101" stroke-opacity="0.647" vector-effect="non-scaling-stroke" d="
  M 442.30 224.13
  L 438.83 222.77
  Q 438.37 222.59 438.14 222.16
  L 437.12 220.28"
/>
<path stroke="#010101" stroke-opacity="0.647" vector-effect="non-scaling-stroke" d="
  M 437.21 206.89
  Q 438.12 202.91 438.60 199.32
  Q 438.79 197.88 441.96 194.77"
/>
<path stroke="#010101" stroke-opacity="0.647" vector-effect="non-scaling-stroke" d="
  M 468.69 196.72
  Q 460.66 197.97 458.27 197.22
  Q 455.43 196.33 453.74 196.99
  Q 452.44 197.50 451.70 197.20"
/>
<path stroke="#c5c5c5" stroke-opacity="0.651" vector-effect="non-scaling-stroke" d="
  M 128.59 203.19
  Q 127.41 203.13 127.09 203.56"
/>
<path stroke="#808080" stroke-opacity="0.996" vector-effect="non-scaling-stroke" d="
  M 127.09 203.56
  L 118.79 203.43
  Q 118.26 203.42 118.24 202.89
  L 118.18 199.42"
/>
<path stroke="#808080" stroke-opacity="0.996" vector-effect="non-scaling-stroke" d="
  M 124.89 199.05
  Q 127.50 198.09 128.04 194.99
  C 128.58 191.85 129.27 182.26 125.28 180.85
  Q 121.33 179.45 114.20 180.14"
/>
<path stroke="#808080" stroke-opacity="0.996" vector-effect="non-scaling-stroke" d="
  M 112.11 221.67
  L 107.53 221.53
  A 1.06 1.06 0.0 0 1 106.51 220.47
  L 106.62 176.98"
/>
<path stroke="#c5c5c5" stroke-opacity="0.651" vector-effect="non-scaling-stroke" d="
  M 106.62 176.98
  Q 106.26 177.08 106.68 176.29"
/>
<path stroke="#010101" stroke-opacity="0.647" vector-effect="non-scaling-stroke" d="
  M 106.62 176.98
  Q 106.19 177.15 105.91 177.04
  A 0.41 0.41 0.0 0 0 105.35 177.42
  L 104.68 217.47"
/>
<path stroke="#010101" stroke-opacity="0.647" vector-effect="non-scaling-stroke" d="
  M 127.09 203.56
  L 117.67 204.23"
/>
<path stroke="#c5c5c5" stroke-opacity="0.651" vector-effect="non-scaling-stroke" d="
  M 147.52 221.32
  Q 146.84 221.24 146.88 221.51"
/>
<path stroke="#808080" stroke-opacity="0.996" vector-effect="non-scaling-stroke" d="
  M 146.88 221.51
  L 142.88 221.49
  A 1.16 1.16 0.0 0 1 141.73 220.33
  L 141.74 175.95"
/>
<path stroke="#010101" stroke-opacity="0.647" vector-effect="non-scaling-stroke" d="
  M 146.88 221.51
  Q 143.85 222.32 140.96 221.62
  Q 140.45 221.50 140.42 220.98
  L 140.14 216.53"
/>
<path stroke="#808080" stroke-opacity="0.996" vector-effect="non-scaling-stroke" d="
  M 245.07 180.46
  Q 238.53 179.35 233.50 180.96"
/>
<path stroke="#808080" stroke-opacity="0.996" vector-effect="non-scaling-stroke" d="
  M 241.53 221.06
  L 225.90 221.06
  A 0.50 0.49 0.0 0 1 225.40 220.57
  L 225.41 218.02"
/>
<path stroke="#c5c5c5" stroke-opacity="0.651" vector-effect="non-scaling-stroke" d="
  M 225.41 218.02
  L 225.47 216.82"
/>
<path stroke="#808080" stroke-opacity="0.996" vector-effect="non-scaling-stroke" d="
  M 238.01 216.51
  Q 240.59 216.08 241.40 214.20
  C 242.49 211.66 243.76 202.13 239.07 201.45
  C 233.93 200.71 226.52 201.42 224.39 195.02
  Q 222.30 188.71 224.91 181.30
  Q 225.39 179.94 227.27 177.41"
/>
<path stroke="#010101" stroke-opacity="0.647" vector-effect="non-scaling-stroke" d="
  M 225.41 218.02
  Q 224.98 218.16 224.43 218.15
  Q 223.86 218.14 223.73 218.69
  L 223.35 220.26
  Q 222.84 222.31 224.88 221.76
  Q 226.41 221.34 227.61 222.20"
/>
<path stroke="#010101" stroke-opacity="0.647" vector-effect="non-scaling-stroke" d="
  M 239.02 215.89
  Q 241.65 211.64 240.04 205.93"
/>
<path stroke="#010101" stroke-opacity="0.647" vector-effect="non-scaling-stroke" d="
  M 232.38 202.23
  Q 229.82 201.44 227.38 200.58
  Q 226.20 200.16 225.17 199.20
  Q 224.24 198.35 223.14 197.46"
/>
<path stroke="#808080" stroke-opacity="0.996" vector-effect="non-scaling-stroke" d="
  M 337.50 182.01
  L 333.87 181.91
  Q 333.31 181.90 333.30 181.34
  L 333.25 176.74"
/>
<path stroke="#808080" stroke-opacity="0.996" vector-effect="non-scaling-stroke" d="
  M 270.19 190.93
  Q 266.20 190.07 264.40 191.12"
/>
<path stroke="#c5c5c5" stroke-opacity="0.651" vector-effect="non-scaling-stroke" d="
  M 269.28 221.30
  Q 268.28 221.14 267.30 221.33"
/>
<path stroke="#808080" stroke-opacity="0.996" vector-effect="non-scaling-stroke" d="
  M 267.30 221.33
  L 261.49 221.41"
/>
<path stroke="#c5c5c5" stroke-opacity="0.651" vector-effect="non-scaling-stroke" d="
  M 261.49 221.41
  Q 261.70 221.40 261.91 221.39"
/>
<path stroke="#808080" stroke-opacity="0.996" vector-effect="non-scaling-stroke" d="
  M 261.91 221.39
  C 257.47 219.89 257.23 217.78 257.24 213.50
  Q 257.27 197.36 257.16 180.35"
/>
<path stroke="#010101" stroke-opacity="0.647" vector-effect="non-scaling-stroke" d="
  M 261.91 221.39
  Q 260.40 222.39 258.06 221.29
  Q 256.27 220.44 256.12 218.25
  Q 256.05 217.32 255.16 216.20"
/>
<path stroke="#010101" stroke-opacity="0.647" vector-effect="non-scaling-stroke" d="
  M 261.49 221.41
  Q 264.21 222.25 266.75 221.87
  Q 267.16 221.81 267.30 221.33"
/>
<path stroke="#808080" stroke-opacity="0.996" vector-effect="non-scaling-stroke" d="
  M 325.24 190.65
  Q 321.64 190.29 318.97 191.01"
/>
<path stroke="#808080" stroke-opacity="0.996" vector-effect="non-scaling-stroke" d="
  M 323.23 221.25
  C 319.30 221.29 312.23 222.42 312.03 216.31
  C 311.65 204.53 311.79 192.75 311.76 180.94"
/>
<path stroke="#010101" stroke-opacity="0.647" vector-effect="non-scaling-stroke" d="
  M 323.73 221.83
  L 316.91 221.67
  Q 316.68 221.66 316.58 221.86
  Q 316.49 222.03 316.23 222.03
  Q 313.59 222.02 311.31 220.50"
/>
<path stroke="#808080" stroke-opacity="0.996" vector-effect="non-scaling-stroke" d="
  M 527.75 199.94
  Q 528.47 200.05 529.19 199.86
  Q 529.68 199.74 529.68 199.23
  L 529.55 181.82"
/>
<path stroke="#808080" stroke-opacity="0.996" vector-effect="non-scaling-stroke" d="
  M 533.55 223.03
  L 530.07 222.97
  Q 529.59 222.96 529.59 222.48
  L 529.68 204.15
  Q 529.68 203.54 529.07 203.56
  L 516.18 204.04"
/>
<path stroke="#808080" stroke-opacity="0.996" vector-effect="non-scaling-stroke" d="
  M 513.51 223.05
  L 510.46 223.01
  A 0.53 0.53 0.0 0 1 509.94 222.48
  L 509.91 181.20"
/>
<path stroke="#808080" stroke-opacity="0.996" vector-effect="non-scaling-stroke" d="
  M 563.96 223.03
  L 560.93 223.01
  Q 560.22 223.01 560.10 222.30
  L 558.82 214.75
  Q 558.72 214.12 558.08 214.07
  Q 552.26 213.54 547.17 214.72"
/>
<path stroke="#808080" stroke-opacity="0.996" vector-effect="non-scaling-stroke" d="
  M 543.73 223.21
  L 539.90 223.09
  A 0.47 0.47 0.0 0 1 539.45 222.53
  L 547.88 181.97"
/>
<path stroke="#808080" stroke-opacity="0.996" vector-effect="non-scaling-stroke" d="
  M 589.28 184.71
  Q 583.46 184.09 578.16 185.01"
/>
<path stroke="#808080" stroke-opacity="0.996" vector-effect="non-scaling-stroke" d="
  M 588.02 223.05
  C 583.72 223.09 577.65 223.64 574.15 221.96
  Q 570.07 220.00 569.90 214.70
  Q 569.56 204.03 569.66 191.00
  Q 569.70 186.89 572.03 183.43"
/>
<path stroke="#808080" stroke-opacity="0.996" vector-effect="non-scaling-stroke" d="
  M 601.32 196.51
  Q 601.19 197.54 601.35 198.29
  Q 601.47 198.83 601.78 198.38
  L 612.42 182.58"
/>
<path stroke="#808080" stroke-opacity="0.996" vector-effect="non-scaling-stroke" d="
  M 617.47 223.04
  L 614.09 223.02
  Q 613.55 223.01 613.29 222.54
  L 601.80 201.47
  Q 601.31 200.58 601.31 201.59
  L 601.34 206.47"
/>
<path stroke="#808080" stroke-opacity="0.996" vector-effect="non-scaling-stroke" d="
  M 598.51 223.04
  L 595.58 222.99
  Q 595.05 222.98 595.05 222.46
  L 594.96 181.19"
/>
<path stroke="#808080" stroke-opacity="0.996" vector-effect="non-scaling-stroke" d="
  M 641.99 184.68
  Q 635.58 184.09 630.24 185.07"
/>
<path stroke="#808080" stroke-opacity="0.996" vector-effect="non-scaling-stroke" d="
  M 635.98 223.04
  L 623.94 222.99
  Q 623.42 222.98 623.26 222.48
  Q 623.03 221.77 623.25 220.68"
/>
<path stroke="#808080" stroke-opacity="0.996" vector-effect="non-scaling-stroke" d="
  M 636.96 219.40
  Q 639.83 218.70 640.37 216.23
  Q 641.23 212.26 640.76 207.76
  Q 640.38 204.08 636.43 204.09
  Q 632.46 204.11 629.08 203.94
  C 622.24 203.60 622.23 197.07 622.25 191.75
  Q 622.26 187.44 624.75 182.71"
/>
<path stroke="#808080" stroke-opacity="0.996" vector-effect="non-scaling-stroke" d="
  M 368.02 221.11
  Q 362.89 222.11 357.87 221.15
  C 352.21 220.07 349.43 217.30 348.39 211.70
  C 347.01 204.25 347.12 195.82 351.12 189.32"
/>
<path stroke="#010101" stroke-opacity="0.647" vector-effect="non-scaling-stroke" d="
  M 367.82 221.80
  Q 366.20 221.78 361.75 222.34
  Q 353.84 223.34 348.31 217.70"
/>
<path stroke="#808080" stroke-opacity="0.996" vector-effect="non-scaling-stroke" d="
  M 179.97 221.03
  C 173.57 221.32 159.37 222.48 157.02 217.29
  Q 153.37 209.22 158.26 202.27"
/>
<path stroke="#808080" stroke-opacity="0.996" vector-effect="non-scaling-stroke" d="
  M 170.06 203.85
  Q 167.09 203.34 165.16 204.91"
/>
<path stroke="#808080" stroke-opacity="0.996" vector-effect="non-scaling-stroke" d="
  M 174.03 216.49
  Q 174.91 216.70 175.63 216.47
  Q 176.09 216.31 176.09 215.83
  Q 176.08 206.21 176.02 196.93
  C 175.99 192.70 172.84 190.79 168.81 190.96
  Q 164.47 191.13 160.81 191.26
  Q 160.30 191.27 160.19 190.78
  Q 159.75 188.80 160.19 186.61"
/>
<path stroke="#010101" stroke-opacity="0.647" vector-effect="non-scaling-stroke" d="
  M 164.40 222.05
  L 157.18 220.17"
/>
<path stroke="#808080" stroke-opacity="0.996" vector-effect="non-scaling-stroke" d="
  M 300.50 221.01
  Q 290.66 221.41 287.01 221.18
  C 283.74 220.98 278.78 220.19 277.58 217.72
  Q 273.41 209.15 278.87 202.02"
/>
<path stroke="#808080" stroke-opacity="0.996" vector-effect="non-scaling-stroke" d="
  M 290.10 203.86
  Q 287.55 203.39 285.73 204.74"
/>
<path stroke="#808080" stroke-opacity="0.996" vector-effect="non-scaling-stroke" d="
  M 294.53 216.50
  Q 295.36 216.75 296.00 216.46
  Q 296.43 216.26 296.43 215.79
  Q 296.37 206.33 296.37 197.62
  C 296.37 188.50 286.61 191.29 281.08 191.24
  Q 280.58 191.23 280.46 190.75
  Q 280.11 189.26 280.32 187.68"
/>
<path stroke="#010101" stroke-opacity="0.647" vector-effect="non-scaling-stroke" d="
  M 282.44 221.70
  L 277.93 220.36"
/>
<path stroke="#010101" stroke-opacity="0.647" vector-effect="non-scaling-stroke" d="
  M 278.46 202.05
  L 276.49 203.74"
/>
<path stroke="#808080" stroke-opacity="0.996" vector-effect="non-scaling-stroke" d="
  M 338.80 221.58
  L 334.22 221.55
  A 1.16 1.16 0.0 0 1 333.07 220.39
  L 333.19 186.36"
/>
<path stroke="#808080" stroke-opacity="0.996" vector-effect="non-scaling-stroke" d="
  M 412.21 221.59
  L 407.21 221.47
  A 0.95 0.95 0.0 0 1 406.28 220.51
  Q 406.37 208.90 406.38 197.90
  Q 406.39 191.89 401.49 191.03
  Q 396.70 190.19 392.71 191.97"
/>
<path stroke="#808080" stroke-opacity="0.996" vector-effect="non-scaling-stroke" d="
  M 391.02 221.45
  L 386.58 221.41
  A 0.91 0.90 -90.0 0 1 385.68 220.50
  L 385.68 187.19"
/>
<path stroke="#808080" stroke-opacity="0.996" vector-effect="non-scaling-stroke" d="
  M 426.24 221.75
  L 423.77 221.12"
/>
<path stroke="#808080" stroke-opacity="0.996" vector-effect="non-scaling-stroke" d="
  M 419.26 213.54
  L 420.77 209.92"
/>
<path stroke="#010101" stroke-opacity="0.647" vector-effect="non-scaling-stroke" d="
  M 223.22 13.14
  Q 223.93 11.78 223.18 10.32
  Q 222.99 9.95 222.58 9.95
  L 2.25 9.90
  Q 1.71 9.90 1.35 10.25
  Q 1.04 10.56 0.58 10.56"
/>
<path stroke="#010101" stroke-opacity="0.647" vector-effect="non-scaling-stroke" d="
  M 231.47 69.24
  Q 230.48 69.93 228.50 69.93
  Q 118.90 70.05 9.31 69.91"
/>
<path stroke="#808080" stroke-opacity="0.996" vector-effect="non-scaling-stroke" d="
  M 555.77 210.39
  Q 556.67 210.73 557.51 210.42
  Q 557.96 210.24 557.88 209.76
  L 553.77 185.73
  Q 553.48 184.00 552.91 185.66
  Q 552.47 186.93 552.29 188.99"
/>
<path stroke="#808080" stroke-opacity="0.996" vector-effect="non-scaling-stroke" d="
  M 365.35 216.53
  Q 367.65 215.85 368.60 214.30
  C 371.11 210.20 370.43 201.09 369.72 196.60
  Q 368.94 191.61 364.27 190.76
  Q 362.17 190.38 358.49 191.99"
/>
<path stroke="#808080" stroke-opacity="0.996" vector-effect="non-scaling-stroke" d="
  M 203.23 209.41
  Q 203.40 210.27 203.86 211.00
  Q 204.14 211.45 204.33 210.95
  L 213.27 186.49"
/>
<path stroke="#808080" stroke-opacity="0.996" vector-effect="non-scaling-stroke" d="
  M 192.76 239.00
  L 199.80 220.95
  A 1.31 1.27 45.8 0 0 199.80 220.02
  L 187.38 187.48"
/>
<path stroke="#010101" stroke-opacity="0.647" vector-effect="non-scaling-stroke" d="
  M 206.49 200.38
  Q 207.47 199.77 207.57 198.21
  Q 207.60 197.74 207.88 197.37
  Q 208.55 196.49 208.58 195.33
  Q 208.59 194.79 208.89 194.35
  Q 209.46 193.52 209.61 192.22"
/>
<path stroke="#010101" stroke-opacity="0.647" vector-effect="non-scaling-stroke" d="
  M 191.27 237.54
  Q 191.96 237.08 192.13 236.62
  Q 193.61 232.69 195.13 229.13
  Q 195.39 228.52 195.39 227.88
  A 1.19 1.19 0.0 0 1 195.75 227.05
  Q 196.81 225.97 196.35 224.62"
/>
<path stroke="#808080" stroke-opacity="0.996" vector-effect="non-scaling-stroke" d="
  M 426.90 208.97
  A 5.76 5.72 34.8 0 0 424.57 209.38"
/>
<path stroke="#808080" stroke-opacity="0.996" vector-effect="non-scaling-stroke" d="
  M 429.76 211.39
  Q 429.99 212.73 429.77 213.73"
/>
<path stroke="#808080" stroke-opacity="0.996" vector-effect="non-scaling-stroke" d="
  M 430.02 216.39
  Q 430.04 217.81 429.47 218.62"
/>
<path stroke="#808080" stroke-opacity="0.996" vector-effect="non-scaling-stroke" d="
  M 427.28 215.43
  Q 426.39 215.05 425.45 215.44"
/>
<path stroke="#808080" stroke-opacity="0.996" vector-effect="non-scaling-stroke" d="
  M 423.38 216.69
  L 423.21 215.23"
/>
<path stroke="#808080" stroke-opacity="0.996" vector-effect="non-scaling-stroke" d="
  M 426.94 211.98
  Q 426.48 211.66 425.74 211.94"
/>
</g>
<path fill="#d5d5d5" d="
  M 0.00 0.00
  L 0.75 0.00
  L 233.16 0.21
  A 0.51 0.50 0.0 0 1 233.67 0.71
  L 233.67 68.49
  Q 233.67 68.95 233.23 69.10
  Q 232.72 69.28 232.07 69.29
  Q 231.72 69.20 231.47 69.24
  Q 120.47 69.11 9.50 69.39
  Q 9.17 69.39 9.31 69.91
  Q 9.22 70.27 9.31 70.50
  L 9.13 129.16
  Q 9.13 129.67 8.63 129.78
  L 6.89 130.16
  L 0.00 129.94
  L 0.00 60.03
  L 223.29 60.03
  L 224.70 59.90
  Q 225.23 59.85 225.23 59.32
  L 225.23 9.98
  A 0.59 0.58 -90.0 0 0 224.65 9.39
  L 0.00 9.39
  L 0.00 0.00
  Z"
/>
<path fill="#d5d5d5" d="
  M 480.81 9.42
  L 364.13 9.44
  Q 363.58 9.44 363.50 9.99
  L 363.39 10.79
  L 363.38 129.17
  Q 363.38 129.68 362.89 129.83
  Q 362.12 130.07 361.05 129.97
  L 234.06 130.00
  A 0.56 0.56 0.0 0 1 233.50 129.43
  L 233.55 122.16
  L 233.62 121.38
  Q 233.67 120.83 234.23 120.83
  L 350.83 120.77
  L 352.80 120.65
  Q 353.32 120.61 353.32 120.10
  L 353.30 0.24
  L 481.72 0.22
  Q 482.27 0.22 482.27 0.77
  L 482.27 8.55
  Q 482.27 9.16 481.67 9.27
  L 480.81 9.42
  Z"
/>
<path fill="#d5d5d5" d="
  M 750.76 69.26
  Q 750.14 69.11 749.51 69.24
  L 527.75 69.31
  Q 527.20 69.31 527.28 69.85
  L 527.34 70.21
  Q 527.21 70.61 527.27 71.05
  L 527.30 120.27
  Q 527.30 120.75 527.78 120.75
  L 751.25 120.75
  Q 751.75 120.75 751.75 121.25
  L 751.75 129.33
  Q 751.75 129.79 751.29 129.83
  L 749.55 129.97
  L 518.05 130.02
  A 0.99 0.98 -90.0 0 1 517.07 129.03
  L 517.19 60.69
  Q 517.02 59.91 518.75 59.91
  Q 629.31 60.03 739.73 60.04
  Q 739.92 59.93 740.86 59.96
  Q 741.43 60.12 742.01 59.96
  Q 742.50 59.83 742.50 59.33
  L 742.50 9.81
  Q 742.50 9.38 742.06 9.38
  L 518.01 9.39
  A 1.02 1.01 -89.4 0 1 517.00 8.35
  L 517.15 0.74
  Q 516.87 0.59 517.32 0.32
  Q 517.53 0.20 517.77 0.20
  Q 634.64 0.23 751.19 0.20
  Q 751.75 0.20 751.75 0.76
  L 751.75 68.53
  Q 751.75 69.05 751.24 69.15
  L 750.76 69.26
  Z"
/>
<path fill="#010101" fill-opacity="0.992" d="
  M 353.30 0.24
  L 353.32 120.10
  Q 353.32 120.61 352.80 120.65
  L 350.83 120.77
  Q 351.77 120.52 351.66 118.42
  Q 351.65 118.12 351.55 118.40
  Q 351.51 118.49 351.44 118.53
  Q 351.28 118.61 351.28 118.44
  Q 351.53 60.62 351.36 3.21
  Q 351.36 2.72 351.67 2.33
  L 353.30 0.24
  Z"
/>
<path fill="#010101" fill-opacity="0.992" d="
  M 517.15 0.74
  L 517.00 8.35
  A 1.02 1.01 -89.4 0 0 518.01 9.39
  L 742.06 9.38
  Q 742.50 9.38 742.50 9.81
  L 742.50 59.33
  Q 742.50 59.83 742.01 59.96
  Q 741.43 60.12 740.86 59.96
  L 740.42 36.12
  L 740.42 26.53
  L 741.14 11.65
  A 1.76 1.75 1.4 0 0 739.38 9.81
  L 521.73 9.94
  L 516.26 10.45
  A 0.92 0.91 -3.2 0 1 515.26 9.56
  L 515.11 2.68
  Q 515.10 2.11 515.57 1.79
  L 517.15 0.74
  Z"
/>
<path fill="#030202" fill-opacity="0.298" d="
  M 480.81 9.42
  Q 480.44 11.11 478.75 11.11
  Q 436.07 11.10 393.39 11.10
  Q 393.37 11.10 388.13 10.80
  Q 385.64 10.66 382.00 10.85
  Q 378.17 11.04 363.39 10.79
  L 363.50 9.99
  Q 363.58 9.44 364.13 9.44
  L 480.81 9.42
  Z"
/>
<path fill="#010101" fill-opacity="0.992" d="
  M 0.00 9.39
  L 224.65 9.39
  A 0.59 0.58 90.0 0 1 225.23 9.98
  L 225.23 59.32
  Q 225.23 59.85 224.70 59.90
  L 223.29 60.03
  Q 223.76 59.01 223.18 58.54
  Q 222.81 58.24 222.89 57.76
  Q 222.99 57.22 223.50 57.02
  Q 223.83 56.90 223.47 56.88
  Q 223.35 56.88 223.22 56.79
  Q 223.18 56.76 223.18 56.70
  L 223.22 13.14
  Q 223.93 11.78 223.18 10.32
  Q 222.99 9.95 222.58 9.95
  L 2.25 9.90
  Q 1.71 9.90 1.35 10.25
  Q 1.04 10.56 0.58 10.56
  L 0.00 9.72
  Q 0.00 9.55 0.00 9.39
  Z"
/>
<path fill="#030202" fill-opacity="0.298" d="
  M 223.22 13.14
  Q 222.10 11.44 221.26 11.38
  Q 211.93 10.79 202.60 10.92
  Q 189.00 11.13 188.89 11.13
  Q 94.91 11.14 0.93 11.13
  Q 0.66 11.13 0.62 10.87
  L 0.58 10.56
  Q 1.04 10.56 1.35 10.25
  Q 1.71 9.90 2.25 9.90
  L 222.58 9.95
  Q 222.99 9.95 223.18 10.32
  Q 223.93 11.78 223.22 13.14
  Z"
/>
<path fill="#030202" fill-opacity="0.298" d="
  M 740.42 26.53
  L 739.80 12.61
  A 1.59 1.59 0.0 0 0 738.16 11.09
  Q 732.05 11.25 726.61 11.01
  C 720.07 10.72 713.47 11.10 707.08 11.10
  Q 616.92 11.11 526.75 11.10
  Q 522.75 11.10 521.73 9.94
  L 739.38 9.81
  A 1.76 1.75 1.4 0 1 741.14 11.65
  L 740.42 26.53
  Z"
/>
<path fill="#030202" fill-opacity="0.298" d="
  M 740.42 36.12
  L 740.86 59.96
  Q 739.92 59.93 739.73 60.04
  Q 739.50 50.75 739.67 41.66
  Q 739.67 41.62 739.70 41.62
  Q 739.71 41.62 739.72 41.62
  Q 739.78 41.62 739.78 41.68
  Q 739.72 49.75 739.76 57.87
  Q 739.76 57.94 739.83 57.94
  Q 739.85 57.94 739.87 57.94
  Q 739.90 57.94 739.90 57.90
  Q 739.47 47.04 740.42 36.12
  Z"
/>
<path fill="#010101" fill-opacity="0.992" d="
  M 517.19 60.69
  L 517.07 129.03
  A 0.99 0.98 90.0 0 0 518.05 130.02
  L 749.55 129.97
  Q 749.12 131.07 746.75 131.05
  Q 735.28 130.91 723.82 130.86
  Q 723.67 130.86 723.56 130.76
  Q 723.44 130.65 723.31 130.62
  Q 723.24 130.61 723.16 130.61
  Q 717.79 130.77 712.23 130.63
  Q 710.24 130.57 708.27 130.68
  Q 706.30 130.79 704.26 130.68
  Q 701.72 130.55 699.28 130.68
  Q 696.69 130.82 694.16 130.49
  C 693.80 130.44 693.46 130.51 693.14 130.67
  Q 692.97 130.75 692.79 130.74
  Q 690.49 130.62 688.31 130.73
  Q 687.46 130.76 686.64 130.52
  Q 686.08 130.35 685.55 130.55
  Q 685.01 130.75 684.44 130.72
  Q 682.36 130.63 680.33 130.72
  Q 679.45 130.76 678.63 130.51
  Q 678.08 130.35 677.57 130.54
  Q 677.02 130.75 676.44 130.72
  Q 674.36 130.63 672.33 130.72
  Q 671.46 130.77 670.66 130.52
  Q 670.10 130.34 669.55 130.55
  Q 669.01 130.75 668.44 130.73
  Q 666.37 130.63 664.33 130.73
  Q 663.45 130.77 662.63 130.51
  Q 662.07 130.34 661.56 130.54
  Q 661.02 130.76 660.44 130.73
  Q 658.38 130.63 656.33 130.73
  Q 655.45 130.77 654.63 130.51
  Q 654.11 130.35 653.64 130.52
  Q 653.11 130.71 652.53 130.70
  Q 638.99 130.58 624.40 130.71
  Q 623.46 130.72 622.61 130.50
  Q 622.06 130.35 621.54 130.55
  Q 621.00 130.76 620.44 130.73
  Q 618.38 130.63 616.33 130.73
  Q 615.45 130.78 614.64 130.52
  Q 614.08 130.34 613.56 130.54
  Q 613.02 130.76 612.44 130.73
  Q 610.38 130.63 608.33 130.72
  Q 607.45 130.76 606.63 130.51
  Q 606.07 130.34 605.56 130.54
  Q 605.02 130.75 604.44 130.73
  Q 602.38 130.63 600.33 130.73
  Q 599.46 130.77 598.67 130.52
  Q 598.09 130.35 597.55 130.54
  Q 597.02 130.74 596.42 130.72
  Q 593.96 130.63 591.51 130.73
  Q 591.13 130.74 590.58 130.56
  Q 590.11 130.41 589.63 130.54
  Q 587.75 131.05 585.84 130.89
  Q 582.47 130.62 582.37 130.62
  Q 571.11 130.61 560.50 130.69
  Q 556.69 130.72 553.26 130.78
  Q 552.75 130.78 552.24 130.95
  Q 551.79 131.09 551.12 131.10
  Q 535.59 131.30 516.22 130.97
  Q 515.21 130.95 515.21 129.94
  L 515.11 81.48
  L 515.14 71.16
  L 515.16 61.32
  Q 515.16 60.75 515.67 61.01
  Q 516.25 61.31 517.19 60.69
  Z"
/>
<path fill="#010101" fill-opacity="0.992" d="
  M 231.47 69.24
  Q 230.48 69.93 228.50 69.93
  Q 118.90 70.05 9.31 69.91
  Q 9.17 69.39 9.50 69.39
  Q 120.47 69.11 231.47 69.24
  Z"
/>
<path fill="#030202" fill-opacity="0.298" d="
  M 231.47 69.24
  Q 231.72 69.20 232.07 69.29
  Q 232.14 70.02 231.53 70.51
  Q 231.11 70.85 230.58 70.85
  Q 220.72 70.88 211.15 70.86
  Q 210.80 70.86 210.48 70.73
  Q 210.26 70.63 210.02 70.63
  Q 124.20 70.61 38.39 70.64
  C 37.55 70.65 36.94 70.88 36.00 70.87
  Q 23.95 70.71 11.00 70.67
  Q 10.13 70.67 9.31 70.50
  Q 9.22 70.27 9.31 69.91
  Q 118.90 70.05 228.50 69.93
  Q 230.48 69.93 231.47 69.24
  Z"
/>
<path fill="#010101" fill-opacity="0.992" d="
  M 749.51 69.24
  Q 748.17 69.88 744.50 69.88
  Q 637.45 70.11 530.40 69.87
  Q 529.70 69.87 529.07 70.06
  Q 528.35 70.27 527.75 69.87
  A 0.20 0.20 0.0 0 0 527.46 69.95
  L 527.34 70.21
  L 527.28 69.85
  Q 527.20 69.31 527.75 69.31
  L 749.51 69.24
  Z"
/>
<path fill="#030202" fill-opacity="0.298" d="
  M 749.51 69.24
  Q 750.14 69.11 750.76 69.26
  L 750.21 70.59
  Q 750.01 71.06 749.50 71.06
  L 527.27 71.05
  Q 527.21 70.61 527.34 70.21
  L 527.46 69.95
  A 0.20 0.20 0.0 0 1 527.75 69.87
  Q 528.35 70.27 529.07 70.06
  Q 529.70 69.87 530.40 69.87
  Q 637.45 70.11 744.50 69.88
  Q 748.17 69.88 749.51 69.24
  Z"
/>
<path fill="#030202" fill-opacity="0.298" d="
  M 515.14 71.16
  L 515.11 81.48
  Q 514.17 76.11 515.14 71.16
  Z"
/>
<path fill="#010101" fill-opacity="0.992" d="
  M 233.55 122.16
  L 233.50 129.43
  A 0.56 0.56 0.0 0 0 234.06 130.00
  L 361.05 129.97
  L 360.61 130.55
  Q 360.31 130.95 359.81 130.93
  Q 356.07 130.84 352.02 130.87
  Q 351.03 130.87 350.06 130.73
  Q 348.91 130.56 347.88 130.98
  Q 347.33 131.20 346.87 130.84
  Q 346.55 130.60 346.19 130.74
  Q 345.95 130.84 345.68 130.85
  Q 340.99 130.90 336.56 130.85
  Q 319.75 130.56 303.17 130.66
  Q 302.72 130.66 302.29 130.49
  Q 301.89 130.33 301.47 130.53
  Q 301.08 130.72 300.65 130.71
  Q 297.81 130.68 295.18 130.66
  Q 294.73 130.66 294.31 130.49
  Q 293.91 130.33 293.49 130.51
  Q 293.05 130.70 292.57 130.70
  Q 290.03 130.68 287.26 130.67
  Q 286.74 130.67 286.25 130.48
  Q 285.87 130.34 285.48 130.52
  Q 285.10 130.71 284.67 130.70
  Q 282.37 130.65 280.08 130.65
  Q 274.38 130.65 269.31 130.65
  Q 258.98 130.63 245.25 130.69
  Q 244.84 130.69 244.53 131.06
  L 232.29 130.88
  Q 231.68 130.87 231.67 130.27
  Q 231.58 126.94 232.04 123.84
  Q 232.15 123.13 232.49 122.78
  Q 232.91 122.36 233.55 122.16
  Z"
/>
<path fill="#010101" fill-opacity="0.992" d="
  M 0.00 129.94
  L 6.89 130.16
  Q 3.56 132.59 0.00 130.40
  Q 0.00 130.17 0.00 129.94
  Z"
/>
<path fill="#030202" fill-opacity="0.298" d="
  M 336.56 130.85
  Q 330.55 131.92 325.26 131.26
  Q 323.03 130.98 321.17 131.11
  Q 317.42 131.37 317.31 131.37
  Q 281.74 131.37 246.18 131.37
  C 245.50 131.37 245.17 131.11 244.53 131.06
  Q 244.84 130.69 245.25 130.69
  Q 258.98 130.63 269.31 130.65
  Q 274.38 130.65 280.08 130.65
  Q 282.37 130.65 284.67 130.70
  Q 285.10 130.71 285.48 130.52
  Q 285.87 130.34 286.25 130.48
  Q 286.74 130.67 287.26 130.67
  Q 290.03 130.68 292.57 130.70
  Q 293.05 130.70 293.49 130.51
  Q 293.91 130.33 294.31 130.49
  Q 294.73 130.66 295.18 130.66
  Q 297.81 130.68 300.65 130.71
  Q 301.08 130.72 301.47 130.53
  Q 301.89 130.33 302.29 130.49
  Q 302.72 130.66 303.17 130.66
  Q 319.75 130.56 336.56 130.85
  Z"
/>
<path fill="#ffffff" d="
  M 469.00 196.29
  Q 461.72 196.71 454.25 196.53
  Q 453.20 196.51 451.70 197.20
  Q 451.11 197.38 450.71 197.71
  Q 448.07 199.08 447.83 201.76
  Q 447.36 207.25 447.71 216.48
  Q 447.73 217.00 448.25 217.00
  L 475.73 217.00
  Q 476.47 217.00 476.47 217.73
  L 476.47 222.04
  Q 476.47 222.79 475.73 222.84
  L 473.56 222.97
  Q 458.89 222.89 444.26 222.91
  C 440.74 222.91 439.16 221.38 439.17 217.82
  Q 439.18 210.55 439.46 203.00
  Q 439.67 197.51 443.51 193.98
  C 449.63 189.22 457.54 191.68 464.61 190.61
  C 469.10 189.34 469.55 183.44 468.95 179.53
  Q 467.99 173.14 461.42 173.20
  Q 451.55 173.27 441.52 173.47
  A 0.49 0.49 0.0 0 1 441.02 172.99
  L 440.94 168.01
  Q 455.60 167.17 464.75 167.30
  C 470.05 167.38 475.54 169.93 476.79 175.45
  Q 478.54 183.13 477.01 189.26
  Q 475.55 195.07 469.00 196.29
  Z"
/>
<path fill="#010101" fill-opacity="0.992" d="
  M 440.94 168.01
  L 441.02 172.99
  A 0.49 0.49 0.0 0 0 441.52 173.47
  Q 451.55 173.27 461.42 173.20
  Q 467.99 173.14 468.95 179.53
  C 469.55 183.44 469.10 189.34 464.61 190.61
  Q 464.44 190.34 465.04 190.05
  Q 467.43 187.79 466.85 184.50
  Q 467.38 183.85 467.00 183.36
  Q 467.85 181.02 466.74 179.26
  Q 466.58 179.00 466.17 179.26
  C 467.15 176.59 464.11 174.64 462.02 174.29
  Q 457.03 173.46 451.99 174.09
  Q 448.07 174.57 439.09 173.96
  L 438.89 169.83
  Q 438.84 168.64 439.95 169.07
  Q 440.87 169.43 440.94 168.01
  Z"
/>
<path fill="#030202" fill-opacity="0.298" d="
  M 439.09 173.96
  Q 448.07 174.57 451.99 174.09
  Q 457.03 173.46 462.02 174.29
  C 464.11 174.64 467.15 176.59 466.17 179.26
  Q 465.08 175.39 460.50 175.22
  Q 448.01 174.76 440.60 175.09
  Q 440.09 175.11 439.69 174.80
  Q 439.10 174.34 439.09 173.96
  Z"
/>
<path fill="#ffffff" d="
  M 128.59 203.19
  Q 127.41 203.13 127.09 203.56
  L 118.79 203.43
  Q 118.26 203.42 118.24 202.89
  L 118.18 199.42
  L 124.89 199.05
  Q 127.50 198.09 128.04 194.99
  C 128.58 191.85 129.27 182.26 125.28 180.85
  Q 121.33 179.45 114.20 180.14
  Q 113.81 180.09 113.81 180.75
  Q 113.78 200.70 113.78 220.66
  Q 113.78 221.13 113.33 221.28
  L 112.11 221.67
  L 107.53 221.53
  A 1.06 1.06 0.0 0 1 106.51 220.47
  L 106.62 176.98
  Q 106.26 177.08 106.68 176.29
  Q 106.65 176.09 106.69 175.92
  Q 106.77 175.64 107.06 175.62
  Q 116.22 175.29 125.79 175.83
  Q 130.06 176.07 132.54 178.22
  C 137.07 182.16 136.76 190.97 135.33 196.22
  Q 133.79 201.91 128.59 203.19
  Z"
/>
<path fill="#ffffff" d="
  M 147.52 221.32
  Q 146.84 221.24 146.88 221.51
  L 142.88 221.49
  A 1.16 1.16 0.0 0 1 141.73 220.33
  L 141.74 175.95
  Q 144.58 175.14 148.50 175.69
  Q 149.00 175.76 149.00 176.26
  L 149.00 220.71
  Q 149.00 221.18 148.53 221.23
  L 147.52 221.32
  Z"
/>
<path fill="#ffffff" d="
  M 245.07 180.46
  Q 238.53 179.35 233.50 180.96
  Q 230.86 183.25 230.79 186.39
  Q 230.73 189.30 231.63 191.78
  C 233.68 197.45 247.58 190.20 249.28 202.85
  C 250.24 209.94 249.87 219.69 241.53 221.06
  L 225.90 221.06
  A 0.50 0.49 0.0 0 1 225.40 220.57
  L 225.41 218.02
  L 225.47 216.82
  Q 230.34 216.86 235.25 216.97
  Q 236.18 217.00 238.01 216.51
  Q 240.59 216.08 241.40 214.20
  C 242.49 211.66 243.76 202.13 239.07 201.45
  C 233.93 200.71 226.52 201.42 224.39 195.02
  Q 222.30 188.71 224.91 181.30
  Q 225.39 179.94 227.27 177.41
  Q 235.67 174.59 246.33 176.02
  Q 246.90 176.09 246.90 176.67
  L 246.87 179.40
  Q 246.86 180.04 246.23 180.19
  L 245.07 180.46
  Z"
/>
<path fill="#ffffff" d="
  M 337.50 182.01
  L 333.87 181.91
  Q 333.31 181.90 333.30 181.34
  L 333.25 176.74
  Q 332.96 176.22 333.21 175.87
  Q 333.44 175.57 333.82 175.56
  Q 336.74 175.49 339.67 175.60
  Q 340.29 175.62 340.29 176.23
  L 340.32 181.21
  Q 340.32 181.71 339.85 181.87
  Q 338.84 182.19 337.50 182.01
  Z"
/>
<path fill="#030202" fill-opacity="0.298" d="
  M 106.68 176.29
  Q 106.26 177.08 106.62 176.98
  Q 106.19 177.15 105.91 177.04
  A 0.41 0.41 0.0 0 0 105.35 177.42
  L 104.68 217.47
  Q 103.88 216.64 103.88 215.24
  Q 103.86 196.28 103.87 177.26
  Q 103.87 176.74 104.32 176.47
  Q 105.15 175.98 106.68 176.29
  Z"
/>
<path fill="#010101" fill-opacity="0.992" d="
  M 141.74 175.95
  L 141.73 220.33
  A 1.16 1.16 0.0 0 0 142.88 221.49
  L 146.88 221.51
  Q 143.85 222.32 140.96 221.62
  Q 140.45 221.50 140.42 220.98
  L 140.14 216.53
  L 140.08 177.70
  A 0.56 0.56 0.0 0 1 140.86 177.18
  Q 141.38 177.41 141.74 175.95
  Z"
/>
<path fill="#010101" fill-opacity="0.992" d="
  M 333.25 176.74
  L 333.30 181.34
  Q 333.31 181.90 333.87 181.91
  L 337.50 182.01
  Q 337.93 182.34 338.07 182.65
  Q 338.36 183.28 337.67 183.26
  L 331.12 183.07
  Q 330.87 183.06 331.01 182.85
  Q 331.12 182.70 331.11 182.54
  Q 331.10 182.23 331.28 182.48
  Q 331.47 182.73 331.73 182.52
  Q 332.08 182.24 331.73 181.97
  Q 331.57 181.86 331.39 181.83
  Q 330.98 181.77 330.99 181.36
  Q 331.02 179.50 331.09 177.65
  Q 331.11 177.18 331.37 177.56
  Q 331.40 177.61 331.45 177.61
  Q 331.58 177.62 331.66 177.50
  Q 332.11 176.86 333.25 176.74
  Z"
/>
<path fill="#010101" fill-opacity="0.992" d="
  M 106.62 176.98
  L 106.51 220.47
  A 1.06 1.06 0.0 0 0 107.53 221.53
  L 112.11 221.67
  Q 108.93 222.66 105.24 222.40
  A 0.52 0.52 0.0 0 1 104.76 221.89
  L 104.68 217.47
  L 105.35 177.42
  A 0.41 0.41 0.0 0 1 105.91 177.04
  Q 106.19 177.15 106.62 176.98
  Z"
/>
<path fill="#010101" fill-opacity="0.992" d="
  M 227.27 177.41
  Q 225.39 179.94 224.91 181.30
  Q 222.30 188.71 224.39 195.02
  C 226.52 201.42 233.93 200.71 239.07 201.45
  C 243.76 202.13 242.49 211.66 241.40 214.20
  Q 240.59 216.08 238.01 216.51
  Q 238.39 216.11 239.02 215.89
  Q 241.65 211.64 240.04 205.93
  C 240.45 202.12 235.12 201.86 232.38 202.23
  Q 229.82 201.44 227.38 200.58
  Q 226.20 200.16 225.17 199.20
  Q 224.24 198.35 223.14 197.46
  Q 222.27 195.27 222.02 192.68
  Q 221.74 189.81 221.79 187.81
  Q 221.87 184.40 223.48 181.28
  Q 224.36 179.58 227.27 177.41
  Z"
/>
<path fill="#030202" fill-opacity="0.298" d="
  M 466.17 179.26
  Q 466.58 179.00 466.74 179.26
  Q 467.85 181.02 467.00 183.36
  L 466.84 181.58
  Q 466.80 181.10 466.54 180.68
  Q 466.14 180.02 466.17 179.26
  Z"
/>
<path fill="#010101" fill-opacity="0.992" d="
  M 114.20 180.14
  Q 121.33 179.45 125.28 180.85
  C 129.27 182.26 128.58 191.85 128.04 194.99
  Q 127.50 198.09 124.89 199.05
  Q 127.79 192.35 126.06 185.00
  Q 125.54 182.80 123.02 181.68
  Q 121.19 180.86 114.85 181.23
  Q 114.32 181.27 114.16 180.76
  Q 114.07 180.47 114.20 180.14
  Z"
/>
<path fill="#010101" fill-opacity="0.992" d="
  M 245.07 180.46
  L 244.21 180.93
  Q 243.77 181.17 243.28 181.16
  L 233.50 180.96
  Q 238.53 179.35 245.07 180.46
  Z"
/>
<path fill="#ffffff" d="
  M 270.19 190.93
  Q 266.20 190.07 264.40 191.12
  L 264.59 214.99
  A 2.02 2.02 0.0 0 0 266.65 217.00
  L 270.47 216.92
  Q 270.77 216.91 270.77 217.21
  L 270.76 220.72
  Q 270.76 221.02 270.47 221.08
  L 269.28 221.30
  Q 268.28 221.14 267.30 221.33
  L 261.49 221.41
  Q 261.70 221.40 261.91 221.39
  C 257.47 219.89 257.23 217.78 257.24 213.50
  Q 257.27 197.36 257.16 180.35
  L 263.78 180.01
  Q 264.29 179.99 264.29 180.49
  L 264.27 185.51
  Q 264.27 186.24 265.01 186.24
  L 271.69 186.25
  Q 272.38 186.26 272.38 186.94
  L 272.38 189.79
  Q 272.38 190.55 271.62 190.55
  Q 270.89 190.55 270.19 190.93
  Z"
/>
<path fill="#ffffff" d="
  M 325.24 190.65
  Q 321.64 190.29 318.97 191.01
  L 319.34 215.27
  A 1.71 1.71 0.0 0 0 321.04 216.95
  L 324.97 216.97
  Q 325.48 216.97 325.48 217.48
  L 325.45 220.55
  Q 325.45 221.15 324.86 221.18
  L 323.23 221.25
  C 319.30 221.29 312.23 222.42 312.03 216.31
  C 311.65 204.53 311.79 192.75 311.76 180.94
  Q 311.67 180.71 311.73 180.49
  Q 311.88 180.00 312.39 180.00
  L 318.50 180.00
  Q 319.00 180.00 318.99 180.50
  L 318.99 185.74
  A 0.50 0.50 0.0 0 0 319.49 186.24
  L 326.75 186.27
  Q 326.98 186.27 326.98 186.50
  L 326.99 189.97
  Q 326.99 190.42 326.54 190.48
  L 325.24 190.65
  Z"
/>
<path fill="#010101" fill-opacity="0.992" d="
  M 257.16 180.35
  Q 257.27 197.36 257.24 213.50
  C 257.23 217.78 257.47 219.89 261.91 221.39
  Q 260.40 222.39 258.06 221.29
  Q 256.27 220.44 256.12 218.25
  Q 256.05 217.32 255.16 216.20
  L 255.24 182.79
  Q 255.24 182.28 255.61 181.91
  L 257.16 180.35
  Z"
/>
<path fill="#010101" fill-opacity="0.992" d="
  M 311.76 180.94
  C 311.79 192.75 311.65 204.53 312.03 216.31
  C 312.23 222.42 319.30 221.29 323.23 221.25
  Q 323.48 221.54 323.73 221.83
  L 316.91 221.67
  Q 316.68 221.66 316.58 221.86
  Q 316.49 222.03 316.23 222.03
  Q 313.59 222.02 311.31 220.50
  Q 310.06 219.15 310.06 218.25
  Q 310.15 199.33 310.12 182.12
  Q 310.12 181.73 309.94 181.40
  Q 309.56 180.74 310.32 180.76
  Q 310.60 180.77 310.63 181.09
  Q 310.68 181.55 311.13 181.42
  Q 311.44 181.34 311.76 180.94
  Z"
/>
<path fill="#ffffff" d="
  M 527.75 199.94
  Q 528.47 200.05 529.19 199.86
  Q 529.68 199.74 529.68 199.23
  L 529.55 181.82
  Q 531.39 180.45 535.53 181.01
  Q 536.00 181.07 536.00 181.55
  L 536.00 222.48
  Q 536.00 222.97 535.51 222.98
  L 533.55 223.03
  L 530.07 222.97
  Q 529.59 222.96 529.59 222.48
  L 529.68 204.15
  Q 529.68 203.54 529.07 203.56
  L 516.18 204.04
  L 516.20 222.25
  Q 516.20 222.76 515.71 222.91
  Q 514.73 223.21 513.51 223.05
  L 510.46 223.01
  A 0.53 0.53 0.0 0 1 509.94 222.48
  L 509.91 181.20
  L 515.75 181.03
  Q 516.25 181.01 516.25 181.51
  L 516.25 199.47
  Q 516.25 199.96 516.73 199.96
  L 527.75 199.94
  Z"
/>
<path fill="#ffffff" d="
  M 563.96 223.03
  L 560.93 223.01
  Q 560.22 223.01 560.10 222.30
  L 558.82 214.75
  Q 558.72 214.12 558.08 214.07
  Q 552.26 213.54 547.17 214.72
  L 545.93 222.05
  Q 545.84 222.55 545.39 222.78
  Q 544.68 223.15 543.73 223.21
  L 539.90 223.09
  A 0.47 0.47 0.0 0 1 539.45 222.53
  L 547.88 181.97
  Q 547.77 181.84 547.89 181.54
  A 0.91 0.91 0.0 0 1 548.72 181.00
  L 557.87 181.00
  Q 558.52 181.00 558.65 181.64
  L 566.74 222.24
  Q 566.83 222.69 566.40 222.85
  Q 565.44 223.20 563.96 223.03
  Z
  M 552.29 188.99
  L 548.33 209.78
  Q 548.23 210.31 548.77 210.32
  L 555.77 210.39
  Q 556.67 210.73 557.51 210.42
  Q 557.96 210.24 557.88 209.76
  L 553.77 185.73
  Q 553.48 184.00 552.91 185.66
  Q 552.47 186.93 552.29 188.99
  Z"
/>
<path fill="#ffffff" d="
  M 589.28 184.71
  Q 583.46 184.09 578.16 185.01
  Q 576.09 186.95 576.06 189.25
  Q 575.91 201.29 576.05 214.24
  C 576.08 217.31 577.93 219.62 581.12 219.55
  Q 586.07 219.42 590.36 219.53
  Q 590.99 219.55 591.00 220.18
  L 591.00 222.29
  Q 591.00 223.03 590.26 223.04
  L 588.02 223.05
  C 583.72 223.09 577.65 223.64 574.15 221.96
  Q 570.07 220.00 569.90 214.70
  Q 569.56 204.03 569.66 191.00
  Q 569.70 186.89 572.03 183.43
  Q 574.15 181.30 577.50 181.16
  Q 583.98 180.90 590.35 181.02
  Q 591.00 181.03 591.00 181.68
  L 591.00 183.61
  Q 591.00 184.24 590.39 184.41
  L 589.28 184.71
  Z"
/>
<path fill="#ffffff" d="
  M 601.32 196.51
  Q 601.19 197.54 601.35 198.29
  Q 601.47 198.83 601.78 198.38
  L 612.42 182.58
  Q 613.48 180.22 618.55 181.04
  A 0.28 0.28 0.0 0 1 618.74 181.48
  L 607.44 198.25
  Q 606.97 198.94 607.38 199.67
  L 620.23 222.36
  Q 620.52 222.88 619.93 222.91
  L 617.47 223.04
  L 614.09 223.02
  Q 613.55 223.01 613.29 222.54
  L 601.80 201.47
  Q 601.31 200.58 601.31 201.59
  L 601.34 206.47
  L 601.19 222.26
  Q 601.19 222.77 600.70 222.91
  Q 599.72 223.20 598.51 223.04
  L 595.58 222.99
  Q 595.05 222.98 595.05 222.46
  L 594.96 181.19
  L 600.72 181.03
  Q 601.24 181.01 601.24 181.54
  L 601.32 196.51
  Z"
/>
<path fill="#ffffff" d="
  M 641.99 184.68
  Q 635.58 184.09 630.24 185.07
  C 627.33 187.57 627.75 192.40 628.24 195.74
  C 629.21 202.45 644.36 193.34 646.29 204.81
  Q 647.21 210.23 646.24 215.67
  C 645.29 221.00 641.32 223.46 635.98 223.04
  L 623.94 222.99
  Q 623.42 222.98 623.26 222.48
  Q 623.03 221.77 623.25 220.68
  Q 622.87 219.52 623.75 219.53
  Q 630.47 219.57 636.96 219.40
  Q 639.83 218.70 640.37 216.23
  Q 641.23 212.26 640.76 207.76
  Q 640.38 204.08 636.43 204.09
  Q 632.46 204.11 629.08 203.94
  C 622.24 203.60 622.23 197.07 622.25 191.75
  Q 622.26 187.44 624.75 182.71
  Q 632.66 180.07 642.94 181.01
  Q 643.44 181.05 643.50 181.55
  Q 643.93 185.05 641.99 184.68
  Z"
/>
<path fill="#010101" fill-opacity="0.992" d="
  M 509.91 181.20
  L 509.94 222.48
  A 0.53 0.53 0.0 0 0 510.46 223.01
  L 513.51 223.05
  Q 513.86 223.26 513.88 223.57
  Q 513.92 224.13 513.36 224.17
  Q 510.72 224.35 508.38 223.95
  Q 507.81 223.85 507.83 223.27
  Q 508.38 202.72 507.82 182.27
  Q 507.80 181.67 508.38 181.82
  Q 508.64 181.88 508.68 182.13
  A 0.36 0.36 0.0 0 0 509.14 182.41
  Q 509.69 182.24 509.91 181.20
  Z"
/>
<path fill="#010101" fill-opacity="0.992" d="
  M 594.96 181.19
  L 595.05 222.46
  Q 595.05 222.98 595.58 222.99
  L 598.51 223.04
  Q 599.55 223.81 598.67 224.18
  A 0.30 0.30 0.0 0 1 598.52 224.22
  L 593.34 224.24
  Q 592.75 224.24 592.75 223.65
  Q 592.89 202.86 592.82 182.07
  Q 592.82 181.83 593.04 181.72
  Q 593.33 181.58 593.46 181.87
  Q 593.60 182.21 593.60 182.56
  Q 593.62 183.45 594.16 182.76
  Q 594.63 182.16 594.96 181.19
  Z"
/>
<path fill="#010101" fill-opacity="0.992" d="
  M 547.88 181.97
  L 539.45 222.53
  A 0.47 0.47 0.0 0 0 539.90 223.09
  L 543.73 223.21
  Q 542.42 224.93 538.80 224.22
  A 1.48 1.48 0.0 0 1 537.63 222.50
  Q 537.99 220.46 538.16 218.64
  Q 538.16 218.63 538.14 218.63
  Q 538.09 218.62 538.12 218.62
  Q 538.18 218.62 538.18 218.68
  Q 538.10 219.33 538.26 219.94
  Q 538.37 220.33 538.45 219.93
  L 546.11 182.86
  Q 546.17 182.60 546.01 182.38
  Q 545.91 182.24 545.94 182.06
  A 0.31 0.30 6.8 0 1 546.28 181.80
  Q 546.44 181.82 546.48 181.98
  Q 546.71 182.81 547.46 182.24
  Q 547.66 182.09 547.88 181.97
  Z"
/>
<path fill="#010101" fill-opacity="0.992" d="
  M 529.55 181.82
  L 529.68 199.23
  Q 529.68 199.74 529.19 199.86
  Q 528.47 200.05 527.75 199.94
  Q 528.12 190.42 527.85 185.00
  Q 527.70 181.98 529.55 181.82
  Z"
/>
<path fill="#010101" fill-opacity="0.992" d="
  M 612.42 182.58
  L 601.78 198.38
  Q 601.47 198.83 601.35 198.29
  Q 601.19 197.54 601.32 196.51
  Q 601.42 196.81 601.55 196.97
  A 0.32 0.32 0.0 0 0 602.11 196.81
  C 602.36 194.81 603.58 194.07 604.59 192.57
  Q 607.67 187.99 610.72 183.41
  Q 611.03 182.94 611.45 182.79
  Q 611.87 182.64 612.42 182.58
  Z"
/>
<path fill="#010101" fill-opacity="0.992" d="
  M 624.75 182.71
  Q 622.26 187.44 622.25 191.75
  C 622.23 197.07 622.24 203.60 629.08 203.94
  Q 632.46 204.11 636.43 204.09
  Q 640.38 204.08 640.76 207.76
  Q 641.23 212.26 640.37 216.23
  Q 639.83 218.70 636.96 219.40
  L 637.92 218.54
  Q 638.32 218.18 638.39 217.64
  C 638.55 216.47 639.11 215.69 639.05 214.44
  Q 638.93 211.78 638.99 209.40
  Q 639.05 206.95 637.22 205.81
  C 635.27 204.59 629.68 205.26 627.31 205.05
  Q 622.67 204.64 621.22 200.27
  Q 617.75 189.78 624.75 182.71
  Z"
/>
<path fill="#010101" fill-opacity="0.992" d="
  M 572.03 183.43
  Q 569.70 186.89 569.66 191.00
  Q 569.56 204.03 569.90 214.70
  Q 570.07 220.00 574.15 221.96
  C 577.65 223.64 583.72 223.09 588.02 223.05
  Q 588.40 223.33 588.63 223.65
  Q 589.08 224.27 588.31 224.27
  L 574.12 224.17
  A 0.51 0.51 0.0 0 1 573.61 223.59
  Q 573.67 223.19 573.32 223.12
  Q 569.85 222.37 568.94 218.89
  A 0.42 0.42 0.0 0 0 568.63 218.58
  Q 568.47 218.54 568.30 218.56
  Q 568.17 218.57 568.17 218.44
  Q 567.76 204.33 568.04 190.23
  Q 568.07 188.72 568.68 187.39
  C 569.46 185.72 569.89 184.01 572.03 183.43
  Z"
/>
<path fill="#010101" fill-opacity="0.992" d="
  M 589.28 184.71
  Q 583.98 186.05 578.16 185.01
  Q 583.46 184.09 589.28 184.71
  Z"
/>
<path fill="#010101" fill-opacity="0.992" d="
  M 641.99 184.68
  Q 636.23 186.01 630.24 185.07
  Q 635.58 184.09 641.99 184.68
  Z"
/>
<path fill="#030202" fill-opacity="0.298" d="
  M 466.85 184.50
  Q 467.43 187.79 465.04 190.05
  L 466.85 184.50
  Z"
/>
<path fill="#010101" fill-opacity="0.992" d="
  M 555.77 210.39
  Q 555.52 208.68 555.37 206.96
  Q 555.21 205.16 554.88 203.56
  Q 554.16 200.08 553.66 196.25
  Q 553.65 196.11 553.58 195.98
  Q 553.51 195.86 553.41 195.77
  Q 553.18 195.56 553.14 195.25
  L 552.29 188.99
  Q 552.47 186.93 552.91 185.66
  Q 553.48 184.00 553.77 185.73
  L 557.88 209.76
  Q 557.96 210.24 557.51 210.42
  Q 556.67 210.73 555.77 210.39
  Z"
/>
<path fill="#ffffff" d="
  M 368.02 221.11
  Q 362.89 222.11 357.87 221.15
  C 352.21 220.07 349.43 217.30 348.39 211.70
  C 347.01 204.25 347.12 195.82 351.12 189.32
  Q 360.06 183.40 371.02 187.27
  C 380.06 190.45 379.05 209.02 375.92 215.94
  Q 373.89 220.44 368.02 221.11
  Z
  M 358.49 191.99
  Q 355.25 197.66 355.74 205.34
  Q 356.09 210.94 356.94 213.03
  Q 358.82 217.65 365.35 216.53
  Q 367.65 215.85 368.60 214.30
  C 371.11 210.20 370.43 201.09 369.72 196.60
  Q 368.94 191.61 364.27 190.76
  Q 362.17 190.38 358.49 191.99
  Z"
/>
<path fill="#ffffff" d="
  M 179.97 221.03
  C 173.57 221.32 159.37 222.48 157.02 217.29
  Q 153.37 209.22 158.26 202.27
  C 161.79 199.35 166.89 199.41 171.27 199.75
  Q 171.76 199.79 171.76 200.28
  L 171.76 202.98
  Q 171.76 203.48 171.27 203.59
  L 170.06 203.85
  Q 167.09 203.34 165.16 204.91
  Q 163.45 206.37 163.12 209.00
  C 162.15 216.66 168.23 217.63 174.03 216.49
  Q 174.91 216.70 175.63 216.47
  Q 176.09 216.31 176.09 215.83
  Q 176.08 206.21 176.02 196.93
  C 175.99 192.70 172.84 190.79 168.81 190.96
  Q 164.47 191.13 160.81 191.26
  Q 160.30 191.27 160.19 190.78
  Q 159.75 188.80 160.19 186.61
  Q 169.34 185.93 173.76 186.36
  Q 183.16 187.29 183.22 196.96
  Q 183.28 208.95 183.25 220.29
  Q 183.25 220.82 182.71 220.86
  L 179.97 221.03
  Z"
/>
<path fill="#ffffff" d="
  M 203.23 209.41
  Q 203.40 210.27 203.86 211.00
  Q 204.14 211.45 204.33 210.95
  L 213.27 186.49
  L 219.36 186.35
  Q 220.00 186.34 219.76 186.92
  L 198.71 238.22
  Q 198.52 238.68 198.02 238.73
  Q 197.45 238.78 197.13 239.00
  L 192.76 239.00
  L 199.80 220.95
  A 1.31 1.27 45.8 0 0 199.80 220.02
  L 187.38 187.48
  Q 187.08 187.12 187.09 186.79
  Q 187.11 186.24 187.65 186.24
  L 194.75 186.25
  A 0.74 0.74 0.0 0 1 195.45 186.75
  L 203.23 209.41
  Z"
/>
<path fill="#ffffff" d="
  M 300.50 221.01
  Q 290.66 221.41 287.01 221.18
  C 283.74 220.98 278.78 220.19 277.58 217.72
  Q 273.41 209.15 278.87 202.02
  C 282.01 199.45 287.35 199.37 291.41 199.75
  Q 292.03 199.80 292.03 200.42
  L 292.03 202.85
  Q 292.03 203.48 291.41 203.61
  L 290.10 203.86
  Q 287.55 203.39 285.73 204.74
  C 282.91 206.75 282.99 210.64 283.85 213.47
  C 285.03 217.37 291.49 217.05 294.53 216.50
  Q 295.36 216.75 296.00 216.46
  Q 296.43 216.26 296.43 215.79
  Q 296.37 206.33 296.37 197.62
  C 296.37 188.50 286.61 191.29 281.08 191.24
  Q 280.58 191.23 280.46 190.75
  Q 280.11 189.26 280.32 187.68
  Q 280.29 187.27 280.45 186.94
  A 0.81 0.81 0.0 0 1 281.16 186.49
  C 289.00 186.35 303.38 183.60 303.47 196.21
  Q 303.55 207.43 303.54 220.20
  Q 303.54 220.67 303.09 220.82
  Q 301.98 221.18 300.50 221.01
  Z"
/>
<path fill="#ffffff" d="
  M 338.80 221.58
  L 334.22 221.55
  A 1.16 1.16 0.0 0 1 333.07 220.39
  L 333.19 186.36
  L 339.81 186.29
  Q 340.30 186.29 340.30 186.78
  L 340.30 220.55
  Q 340.30 221.15 339.71 221.25
  Q 339.15 221.35 338.80 221.58
  Z"
/>
<path fill="#ffffff" d="
  M 412.21 221.59
  L 407.21 221.47
  A 0.95 0.95 0.0 0 1 406.28 220.51
  Q 406.37 208.90 406.38 197.90
  Q 406.39 191.89 401.49 191.03
  Q 396.70 190.19 392.71 191.97
  L 392.69 220.62
  Q 392.69 221.10 392.22 221.20
  L 391.02 221.45
  L 386.58 221.41
  A 0.91 0.90 -90.0 0 1 385.68 220.50
  L 385.68 187.19
  Q 385.67 186.99 385.76 186.82
  Q 385.90 186.55 386.20 186.55
  Q 394.67 186.36 402.29 186.25
  Q 403.76 186.24 405.21 186.50
  C 412.09 187.78 413.65 192.41 413.63 198.50
  Q 413.60 209.17 413.52 220.23
  Q 413.51 220.90 413.21 221.17
  Q 412.85 221.49 412.21 221.59
  Z"
/>
<path fill="#010101" fill-opacity="0.992" d="
  M 213.27 186.49
  L 204.33 210.95
  Q 204.14 211.45 203.86 211.00
  Q 203.40 210.27 203.23 209.41
  L 206.49 200.38
  Q 207.47 199.77 207.57 198.21
  Q 207.60 197.74 207.88 197.37
  Q 208.55 196.49 208.58 195.33
  Q 208.59 194.79 208.89 194.35
  Q 209.46 193.52 209.61 192.22
  Q 210.52 188.63 213.27 186.49
  Z"
/>
<path fill="#010101" fill-opacity="0.992" d="
  M 333.19 186.36
  L 333.07 220.39
  A 1.16 1.16 0.0 0 0 334.22 221.55
  L 338.80 221.58
  Q 336.07 222.68 332.19 222.18
  Q 331.19 222.05 331.19 221.04
  L 331.16 189.03
  Q 331.16 188.55 331.55 188.27
  Q 332.46 187.64 333.19 186.36
  Z"
/>
<path fill="#010101" fill-opacity="0.992" d="
  M 160.19 186.61
  Q 159.75 188.80 160.19 190.78
  Q 160.30 191.27 160.81 191.26
  Q 164.47 191.13 168.81 190.96
  C 172.84 190.79 175.99 192.70 176.02 196.93
  Q 176.08 206.21 176.09 215.83
  Q 176.09 216.31 175.63 216.47
  Q 174.91 216.70 174.03 216.49
  Q 174.06 208.17 174.10 199.95
  Q 174.12 196.70 173.36 194.95
  Q 172.20 192.29 169.30 192.25
  Q 164.86 192.19 159.86 192.15
  Q 159.22 192.14 158.71 191.80
  A 2.09 2.08 51.8 0 1 159.15 188.10
  Q 159.42 188.00 160.19 186.61
  Z"
/>
<path fill="#010101" fill-opacity="0.992" d="
  M 385.68 187.19
  L 385.68 220.50
  A 0.91 0.90 -90.0 0 0 386.58 221.41
  L 391.02 221.45
  L 384.64 222.05
  A 0.57 0.57 0.0 0 1 384.02 221.48
  L 383.97 188.94
  A 1.00 0.94 63.5 0 1 384.13 188.40
  Q 384.62 187.64 384.86 187.95
  Q 385.09 188.24 385.28 187.91
  L 385.68 187.19
  Z"
/>
<path fill="#010101" fill-opacity="0.992" d="
  M 187.38 187.48
  L 199.80 220.02
  A 1.31 1.27 45.8 0 1 199.80 220.95
  L 192.76 239.00
  L 191.91 239.00
  L 190.84 238.35
  Q 190.52 238.16 190.81 237.92
  L 191.27 237.54
  Q 191.96 237.08 192.13 236.62
  Q 193.61 232.69 195.13 229.13
  Q 195.39 228.52 195.39 227.88
  A 1.19 1.19 0.0 0 1 195.75 227.05
  Q 196.81 225.97 196.35 224.62
  Q 197.48 223.59 197.96 221.62
  Q 198.07 221.18 197.91 220.75
  L 195.85 215.11
  Q 195.73 214.80 195.51 214.56
  Q 195.09 214.11 195.20 213.46
  Q 195.28 213.02 194.96 212.71
  Q 194.12 211.90 194.15 210.50
  Q 194.16 209.98 193.72 209.69
  Q 193.16 209.33 193.24 208.64
  Q 193.31 207.95 192.85 207.43
  Q 192.17 206.66 192.25 205.62
  Q 192.29 204.96 191.77 204.56
  Q 191.46 204.33 191.36 203.96
  Q 190.69 201.53 189.48 198.87
  Q 189.09 198.01 189.04 197.07
  A 0.59 0.59 0.0 0 0 188.68 196.54
  Q 188.22 196.36 188.32 195.89
  Q 188.40 195.49 188.23 195.11
  Q 186.82 192.02 185.89 189.12
  Q 185.69 188.49 185.96 187.89
  Q 186.17 187.42 186.67 187.55
  Q 187.10 187.66 187.38 187.48
  Z"
/>
<path fill="#010101" fill-opacity="0.992" d="
  M 280.32 187.68
  Q 280.11 189.26 280.46 190.75
  Q 280.58 191.23 281.08 191.24
  C 286.61 191.29 296.37 188.50 296.37 197.62
  Q 296.37 206.33 296.43 215.79
  Q 296.43 216.26 296.00 216.46
  Q 295.36 216.75 294.53 216.50
  Q 294.82 206.93 294.41 197.50
  Q 294.28 194.48 292.00 192.95
  Q 290.60 192.01 287.82 192.15
  Q 283.78 192.36 280.10 192.11
  Q 278.56 192.00 278.52 190.46
  Q 278.43 187.50 280.32 187.68
  Z"
/>
<path fill="#010101" fill-opacity="0.992" d="
  M 351.12 189.32
  C 347.12 195.82 347.01 204.25 348.39 211.70
  C 349.43 217.30 352.21 220.07 357.87 221.15
  Q 362.89 222.11 368.02 221.11
  Q 368.04 221.30 367.82 221.80
  Q 366.20 221.78 361.75 222.34
  Q 353.84 223.34 348.31 217.70
  Q 346.41 213.12 346.22 211.50
  Q 345.81 207.94 346.05 200.08
  Q 346.11 198.24 346.63 196.49
  Q 347.42 193.82 347.74 193.01
  Q 348.58 190.88 351.12 189.32
  Z"
/>
<path fill="#010101" fill-opacity="0.992" d="
  M 270.19 190.93
  Q 267.26 192.07 264.40 191.12
  Q 266.20 190.07 270.19 190.93
  Z"
/>
<path fill="#010101" fill-opacity="0.992" d="
  M 325.24 190.65
  Q 322.11 192.12 318.97 191.01
  Q 321.64 190.29 325.24 190.65
  Z"
/>
<path fill="#010101" fill-opacity="0.992" d="
  M 365.35 216.53
  Q 368.97 212.69 368.16 205.78
  Q 368.10 205.29 368.27 204.82
  Q 368.77 203.45 368.31 202.05
  Q 368.14 201.54 368.18 201.01
  Q 368.40 197.77 366.92 194.59
  C 365.59 191.72 361.39 191.85 358.49 191.99
  Q 362.17 190.38 364.27 190.76
  Q 368.94 191.61 369.72 196.60
  C 370.43 201.09 371.11 210.20 368.60 214.30
  Q 367.65 215.85 365.35 216.53
  Z"
/>
<path fill="#010101" fill-opacity="0.992" d="
  M 412.21 221.59
  Q 408.72 222.74 404.91 222.15
  A 0.50 0.50 0.0 0 1 404.49 221.66
  Q 404.52 213.36 404.42 204.99
  C 404.38 201.58 405.59 195.42 402.26 193.06
  Q 401.26 192.36 399.34 192.32
  Q 396.09 192.26 392.71 191.97
  Q 396.70 190.19 401.49 191.03
  Q 406.39 191.89 406.38 197.90
  Q 406.37 208.90 406.28 220.51
  A 0.95 0.95 0.0 0 0 407.21 221.47
  L 412.21 221.59
  Z"
/>
<path fill="#030202" fill-opacity="0.298" d="
  M 209.61 192.22
  Q 209.46 193.52 208.89 194.35
  Q 208.59 194.79 208.58 195.33
  Q 208.55 196.49 207.88 197.37
  Q 207.60 197.74 207.57 198.21
  Q 207.47 199.77 206.49 200.38
  Q 206.90 196.15 209.61 192.22
  Z"
/>
<path fill="#010101" fill-opacity="0.992" d="
  M 443.51 193.98
  Q 439.67 197.51 439.46 203.00
  Q 439.18 210.55 439.17 217.82
  C 439.16 221.38 440.74 222.91 444.26 222.91
  Q 458.89 222.89 473.56 222.97
  Q 473.48 223.14 473.44 223.25
  Q 473.39 223.39 473.53 223.36
  Q 474.21 223.23 474.00 223.89
  A 0.40 0.39 -82.3 0 1 473.62 224.18
  L 442.30 224.13
  L 438.83 222.77
  Q 438.37 222.59 438.14 222.16
  L 437.12 220.28
  L 437.21 206.89
  Q 438.12 202.91 438.60 199.32
  Q 438.79 197.88 441.96 194.77
  Q 442.81 194.00 443.51 193.98
  Z"
/>
<path fill="#030202" fill-opacity="0.298" d="
  M 441.96 194.77
  Q 438.79 197.88 438.60 199.32
  Q 438.12 202.91 437.21 206.89
  Q 436.19 202.39 438.23 198.19
  Q 438.76 197.09 439.86 196.27
  Q 440.88 195.50 441.96 194.77
  Z"
/>
<path fill="#010101" fill-opacity="0.992" d="
  M 469.00 196.29
  Q 469.15 196.44 468.69 196.72
  Q 460.66 197.97 458.27 197.22
  Q 455.43 196.33 453.74 196.99
  Q 452.44 197.50 451.70 197.20
  Q 453.20 196.51 454.25 196.53
  Q 461.72 196.71 469.00 196.29
  Z"
/>
<path fill="#030202" fill-opacity="0.298" d="
  M 468.69 196.72
  Q 464.43 198.56 460.00 198.24
  C 457.10 198.04 453.01 198.67 450.71 197.71
  Q 451.11 197.38 451.70 197.20
  Q 452.44 197.50 453.74 196.99
  Q 455.43 196.33 458.27 197.22
  Q 460.66 197.97 468.69 196.72
  Z"
/>
<path fill="#030202" fill-opacity="0.298" d="
  M 223.14 197.46
  Q 224.24 198.35 225.17 199.20
  Q 226.20 200.16 227.38 200.58
  Q 229.82 201.44 232.38 202.23
  Q 225.70 203.18 223.14 197.46
  Z"
/>
<path fill="#010101" fill-opacity="0.992" d="
  M 118.18 199.42
  L 118.24 202.89
  Q 118.26 203.42 118.79 203.43
  L 127.09 203.56
  L 117.67 204.23
  L 116.91 203.73
  Q 116.47 203.45 116.23 203.91
  Q 116.14 204.07 116.15 204.26
  Q 116.19 205.01 116.05 204.27
  Q 115.70 202.51 116.07 200.12
  Q 116.09 199.99 116.18 199.99
  Q 116.21 200.00 116.25 200.00
  Q 116.40 200.03 116.34 200.17
  Q 116.13 200.68 116.29 201.15
  Q 116.55 201.92 116.99 201.24
  L 118.18 199.42
  Z"
/>
<path fill="#010101" fill-opacity="0.992" d="
  M 617.47 223.04
  L 617.99 223.67
  Q 618.45 224.25 617.71 224.24
  L 612.29 224.16
  Q 611.69 224.15 611.60 223.56
  Q 611.51 222.93 611.02 222.45
  Q 610.57 222.01 610.29 221.42
  Q 607.68 216.10 604.63 211.03
  Q 604.29 210.47 604.11 209.85
  Q 603.96 209.33 603.51 209.03
  Q 603.09 208.75 602.94 208.27
  Q 601.29 202.82 601.34 206.47
  L 601.31 201.59
  Q 601.31 200.58 601.80 201.47
  L 613.29 222.54
  Q 613.55 223.01 614.09 223.02
  L 617.47 223.04
  Z"
/>
<path fill="#030202" fill-opacity="0.298" d="
  M 278.46 202.05
  L 276.49 203.74
  Q 275.87 203.76 275.50 203.92
  C 275.32 204.00 275.12 204.23 275.04 204.41
  Q 274.76 205.01 274.94 204.37
  Q 275.82 201.16 278.46 202.05
  Z"
/>
<path fill="#010101" fill-opacity="0.992" d="
  M 278.46 202.05
  L 278.87 202.02
  Q 273.41 209.15 277.58 217.72
  C 278.78 220.19 283.74 220.98 287.01 221.18
  Q 290.66 221.41 300.50 221.01
  L 300.81 221.28
  A 0.46 0.46 0.0 0 1 300.54 222.09
  C 298.12 222.27 295.97 221.81 293.49 222.05
  Q 287.98 222.59 282.44 221.70
  L 277.93 220.36
  Q 275.47 218.86 274.87 216.84
  Q 273.50 212.18 274.31 208.00
  Q 274.71 205.90 276.49 203.74
  L 278.46 202.05
  Z"
/>
<path fill="#010101" fill-opacity="0.992" d="
  M 158.26 202.27
  Q 153.37 209.22 157.02 217.29
  C 159.37 222.48 173.57 221.32 179.97 221.03
  L 180.86 221.54
  Q 181.73 222.02 180.74 222.03
  L 164.40 222.05
  L 157.18 220.17
  Q 154.87 218.52 154.36 216.25
  C 153.30 211.55 153.31 204.71 158.26 202.27
  Z"
/>
<path fill="#030202" fill-opacity="0.298" d="
  M 128.59 203.19
  Q 126.55 205.14 125.25 205.13
  Q 122.08 205.12 118.91 205.12
  Q 118.42 205.12 118.15 204.91
  Q 117.82 204.65 117.67 204.23
  L 127.09 203.56
  Q 127.41 203.13 128.59 203.19
  Z"
/>
<path fill="#010101" fill-opacity="0.992" d="
  M 533.55 223.03
  L 533.63 223.55
  Q 533.73 224.24 533.04 224.23
  L 529.34 224.20
  A 1.49 1.49 0.0 0 1 527.87 222.71
  L 527.87 205.77
  A 1.34 1.34 0.0 0 0 526.58 204.43
  L 516.18 204.04
  L 529.07 203.56
  Q 529.68 203.54 529.68 204.15
  L 529.59 222.48
  Q 529.59 222.96 530.07 222.97
  L 533.55 223.03
  Z"
/>
<path fill="#010101" fill-opacity="0.992" d="
  M 170.06 203.85
  Q 167.94 205.04 165.16 204.91
  Q 167.09 203.34 170.06 203.85
  Z"
/>
<path fill="#010101" fill-opacity="0.992" d="
  M 290.10 203.86
  Q 288.50 205.05 285.73 204.74
  Q 287.55 203.39 290.10 203.86
  Z"
/>
<path fill="#030202" fill-opacity="0.298" d="
  M 240.04 205.93
  Q 241.65 211.64 239.02 215.89
  Q 238.83 214.41 239.72 212.92
  Q 239.99 212.49 239.99 211.98
  L 240.04 205.93
  Z"
/>
<path fill="#ffffff" d="
  M 426.24 221.75
  L 423.77 221.12
  Q 419.36 219.14 419.26 213.54
  L 420.77 209.92
  Q 425.07 206.23 429.46 208.34
  C 436.55 211.75 433.63 221.66 426.24 221.75
  Z
  M 424.57 209.38
  A 5.64 5.64 0.0 0 0 424.11 219.63
  A 5.64 5.64 0.0 0 0 431.35 217.79
  A 5.65 5.64 37.8 0 0 430.40 210.36
  A 5.71 5.67 66.5 0 0 426.90 208.97
  A 5.76 5.72 34.8 0 0 424.57 209.38
  Z"
/>
<path fill="#010101" fill-opacity="0.992" d="
  M 426.90 208.97
  Q 427.64 210.41 424.57 209.38
  A 5.76 5.72 34.8 0 1 426.90 208.97
  Z"
/>
<path fill="#010101" fill-opacity="0.992" d="
  M 420.77 209.92
  L 419.26 213.54
  Q 417.34 212.52 420.77 209.92
  Z"
/>
<path fill="#ffffff" d="
  M 429.76 211.39
  Q 429.99 212.73 429.77 213.73
  Q 428.91 214.38 430.02 216.39
  Q 430.04 217.81 429.47 218.62
  Q 428.01 218.21 428.35 216.29
  Q 428.44 215.78 427.99 215.52
  Q 427.70 215.35 427.28 215.43
  Q 426.39 215.05 425.45 215.44
  Q 425.04 216.49 425.14 217.80
  A 0.56 0.56 0.0 0 1 424.58 218.41
  L 424.23 218.41
  Q 423.68 218.41 423.58 217.87
  L 423.38 216.69
  L 423.21 215.23
  L 423.35 211.65
  A 1.16 1.16 0.0 0 1 424.27 210.55
  Q 427.55 209.83 429.76 211.39
  Z
  M 425.74 211.94
  Q 424.99 212.49 425.13 213.29
  Q 425.23 213.85 425.80 213.81
  L 427.88 213.65
  Q 428.70 213.59 428.42 212.82
  Q 428.15 212.05 426.94 211.98
  Q 426.48 211.66 425.74 211.94
  Z"
/>
<path fill="#010101" fill-opacity="0.992" d="
  M 429.76 211.39
  Q 432.12 215.28 429.77 213.73
  Q 429.99 212.73 429.76 211.39
  Z"
/>
<path fill="#010101" fill-opacity="0.992" d="
  M 426.94 211.98
  Q 426.94 212.42 426.82 212.71
  Q 426.59 213.29 426.25 212.76
  L 425.74 211.94
  Q 426.48 211.66 426.94 211.98
  Z"
/>
<path fill="#010101" fill-opacity="0.992" d="
  M 423.21 215.23
  L 423.38 216.69
  L 422.79 217.08
  Q 422.27 217.42 422.07 216.84
  Q 421.31 214.70 422.24 212.65
  Q 422.40 212.30 422.78 212.38
  Q 422.98 212.42 423.03 212.59
  Q 423.06 212.70 423.01 212.89
  Q 422.64 214.21 423.21 215.23
  Z"
/>
<path fill="#010101" fill-opacity="0.992" d="
  M 423.77 221.12
  L 426.24 221.75
  Q 418.73 223.58 417.49 216.00
  Q 417.25 214.51 417.56 214.03
  Q 418.68 212.31 418.47 214.35
  C 418.20 216.87 420.23 222.01 423.77 221.12
  Z"
/>
<path fill="#010101" fill-opacity="0.992" d="
  M 563.96 223.03
  L 564.32 223.43
  Q 564.76 223.93 564.11 224.06
  Q 561.02 224.69 558.33 223.74
  Q 557.89 223.58 558.36 223.59
  Q 558.46 223.59 558.50 223.50
  Q 558.53 223.41 558.51 223.32
  Q 557.69 220.04 557.06 216.06
  A 0.90 0.90 0.0 0 0 556.23 215.30
  L 547.17 214.72
  Q 552.26 213.54 558.08 214.07
  Q 558.72 214.12 558.82 214.75
  L 560.10 222.30
  Q 560.22 223.01 560.93 223.01
  L 563.96 223.03
  Z"
/>
<path fill="#010101" fill-opacity="0.992" d="
  M 427.28 215.43
  Q 427.18 215.55 427.08 215.66
  Q 426.85 215.91 427.16 216.03
  Q 427.71 216.24 427.37 216.87
  Q 427.20 217.20 427.46 217.47
  L 427.73 217.73
  Q 428.00 218.00 427.72 218.26
  Q 427.24 218.71 426.62 218.54
  Q 426.16 218.41 426.28 217.96
  L 426.36 217.64
  Q 426.49 217.16 426.10 216.85
  Q 425.71 216.55 426.00 216.20
  Q 426.32 215.82 425.91 215.56
  Q 425.73 215.45 425.45 215.44
  Q 426.39 215.05 427.28 215.43
  Z"
/>
<path fill="#030202" fill-opacity="0.298" d="
  M 255.16 216.20
  Q 256.05 217.32 256.12 218.25
  Q 256.27 220.44 258.06 221.29
  Q 260.40 222.39 261.91 221.39
  Q 261.70 221.40 261.49 221.41
  Q 264.21 222.25 266.75 221.87
  Q 267.16 221.81 267.30 221.33
  Q 268.28 221.14 269.28 221.30
  Q 269.24 222.14 268.90 222.73
  Q 268.68 223.13 268.22 223.13
  L 259.51 223.15
  Q 258.99 223.15 258.57 222.83
  C 257.60 222.08 256.76 222.13 255.99 221.03
  Q 254.24 218.54 255.16 216.20
  Z"
/>
<path fill="#010101" fill-opacity="0.992" d="
  M 429.47 218.62
  Q 430.04 217.81 430.02 216.39
  Q 431.91 216.81 429.47 218.62
  Z"
/>
<path fill="#030202" fill-opacity="0.298" d="
  M 140.14 216.53
  L 140.42 220.98
  Q 140.45 221.50 140.96 221.62
  Q 143.85 222.32 146.88 221.51
  Q 146.84 221.24 147.52 221.32
  Q 147.54 222.68 146.77 222.82
  Q 143.66 223.38 141.27 223.10
  A 2.28 2.28 0.0 0 1 139.31 220.35
  L 140.14 216.53
  Z"
/>
<path fill="#030202" fill-opacity="0.298" d="
  M 225.47 216.82
  L 225.41 218.02
  Q 224.98 218.16 224.43 218.15
  Q 223.86 218.14 223.73 218.69
  L 223.35 220.26
  Q 222.84 222.31 224.88 221.76
  Q 226.41 221.34 227.61 222.20
  L 223.31 222.23
  Q 222.78 222.24 222.73 221.71
  Q 222.53 219.86 222.72 217.83
  Q 222.85 216.48 225.47 216.82
  Z"
/>
<path fill="#030202" fill-opacity="0.298" d="
  M 348.31 217.70
  Q 353.84 223.34 361.75 222.34
  Q 366.20 221.78 367.82 221.80
  Q 363.75 223.45 359.12 223.20
  Q 357.45 223.12 355.86 222.65
  Q 354.29 222.19 352.83 221.99
  Q 352.48 221.95 352.28 221.64
  Q 352.01 221.23 351.55 221.10
  Q 348.33 220.15 348.31 217.70
  Z"
/>
<path fill="#010101" fill-opacity="0.992" d="
  M 225.41 218.02
  L 225.40 220.57
  A 0.50 0.49 0.0 0 0 225.90 221.06
  L 241.53 221.06
  Q 239.07 222.05 236.30 221.89
  A 1.50 1.48 -59.0 0 0 235.41 222.12
  Q 234.92 222.42 234.24 222.36
  Q 230.83 222.03 227.61 222.20
  Q 226.41 221.34 224.88 221.76
  Q 222.84 222.31 223.35 220.26
  L 223.73 218.69
  Q 223.86 218.14 224.43 218.15
  Q 224.98 218.16 225.41 218.02
  Z"
/>
<path fill="#030202" fill-opacity="0.298" d="
  M 157.18 220.17
  L 164.40 222.05
  C 161.74 222.27 158.22 222.66 157.18 220.17
  Z"
/>
<path fill="#030202" fill-opacity="0.298" d="
  M 277.93 220.36
  L 282.44 221.70
  Q 279.82 222.47 277.93 220.36
  Z"
/>
<path fill="#030202" fill-opacity="0.298" d="
  M 437.12 220.28
  L 438.14 222.16
  Q 438.37 222.59 438.83 222.77
  L 442.30 224.13
  Q 437.36 225.11 437.12 220.28
  Z"
/>
<path fill="#030202" fill-opacity="0.298" d="
  M 311.31 220.50
  Q 313.59 222.02 316.23 222.03
  Q 316.49 222.03 316.58 221.86
  Q 316.68 221.66 316.91 221.67
  L 323.73 221.83
  Q 319.93 223.24 315.53 222.84
  Q 312.35 222.55 311.31 220.50
  Z"
/>
<path fill="#010101" fill-opacity="0.992" d="
  M 623.25 220.68
  Q 623.03 221.77 623.26 222.48
  Q 623.42 222.98 623.94 222.99
  L 635.98 223.04
  Q 637.56 222.97 637.98 223.46
  A 0.45 0.45 0.0 0 1 637.64 224.21
  L 622.83 224.25
  A 1.64 1.63 10.9 0 1 621.31 222.01
  Q 621.85 220.68 623.25 220.68
  Z"
/>
<path fill="#010101" fill-opacity="0.992" d="
  M 261.49 221.41
  L 267.30 221.33
  Q 267.16 221.81 266.75 221.87
  Q 264.21 222.25 261.49 221.41
  Z"
/>
<path fill="#030202" fill-opacity="0.298" d="
  M 196.35 224.62
  Q 196.81 225.97 195.75 227.05
  A 1.19 1.19 0.0 0 0 195.39 227.88
  Q 195.39 228.52 195.13 229.13
  Q 193.61 232.69 192.13 236.62
  Q 191.96 237.08 191.27 237.54
  C 191.38 236.79 191.22 236.23 191.54 235.52
  Q 193.96 230.08 196.35 224.62
  Z"
/>
</svg>
