<?xml version="1.0" encoding="utf-8"?>
<!-- Generator: Adobe Illustrator 28.3.0, SVG Export Plug-In . SVG Version: 6.00 Build 0)  -->
<svg version="1.1" id="Layer_1" xmlns="http://www.w3.org/2000/svg" xmlns:xlink="http://www.w3.org/1999/xlink" x="0px" y="0px"
	 viewBox="0 0 2500 521" enable-background="new 0 0 2500 521" xml:space="preserve">
<path fill="#FFFFFF" d="M2431.3,403.8h28v4.1h-11.5v31.9h-4.9v-31.9h-11.6L2431.3,403.8z"/>
<path fill="#FFFFFF" d="M2442.9,439.8h4.9v-31.9h11.5v-4.1h-28v4.1h11.6V439.8z"/>
<path fill="#FFFFFF" d="M2468.6,410.5l9.7,29.3h4.8l9.7-29.3v29.3h4v-36h-5.9l-10.1,30.8l-10.4-30.8h-6.7v36h4.9V410.5z
	 M1667.1,353.5v-149c0-30.4,14.2-52.2,44.4-52.2h186.6c1.1,0,2.2-1.1,2.2-2.3v-29.6c0-0.3-0.1-0.5-0.2-0.8H1672
	c-49.5,6.3-73.6,40.8-73.6,84.8v149c0,30.4-14.6,52.2-44.4,52.2h-197.1c-1.1,0-2.2,0.8-2.2,2.3v29.7c0,1.2,0.8,2.2,1.6,2.5H1580
	C1638.4,438.5,1667.1,401.3,1667.1,353.5L1667.1,353.5z M900.3,440h65.5c1-0.4,1.7-1.4,1.6-2.5v-95c0-30.4,17.2-51.4,42.2-51.4
	h269.9c60.9,0,90.4-37.5,90.4-86.7c0-44.1-24.1-78.5-73.6-84.8H899.1c-0.1,0.2-0.3,0.4-0.3,0.8V150c0,1.5,0.7,2.3,2.2,2.3h355.8
	c30.2,0,44.4,21.8,44.4,52.2c0,30.4-14.2,52.2-44.4,52.2H975.3c-43.7,0-76.5,37.2-76.5,85.9v95C898.7,438.8,899.3,439.7,900.3,440
	L900.3,440z"/>
<g>
	<path fill="#FFFFFF" d="M1899.3,405.6h358.4c1.1,0,1.8,0.7,1.8,1.5v30.4c0,1.5,1.1,2.3,2.2,2.3h64.6c1.1,0,2.2-0.8,2.2-2.3v-29.7
		c0-1.1,1.1-2.3,2.2-2.3h64.2c1.5,0,2.2-1.1,2.2-2.2v-30c0-1.1-0.7-2.3-2.2-2.3h-64.2c-1.1,0-2.2-1.1-2.2-2.2V152.3
		c0-17.7-6.6-28.9-17.6-32.7h-18.7c-5.8,1.5-12.2,4.2-18.9,8.3l-386,238.3c-14.9,9.4-20.2,19.9-16.4,27.8
		C1873.9,400.8,1882.5,405.6,1899.3,405.6L1899.3,405.6z M1955.3,365.9l299-185c1.9-1.5,5.6-1.1,5.6,3v185c0,1.1-1.1,2.2-2.2,2.2
		h-300.6c-2.6,0-3.7-0.7-4.1-1.5C1952.7,368.1,1953.4,367,1955.3,365.9L1955.3,365.9z"/>
</g>
<g>
	<path fill="#FFFFFF" d="M250.4,0c29.1,5.4,57.7,13.2,86.2,21.3c16.3,4.7,32.5,9.6,48.7,14.8c25.4,8.1,50.6,17.2,73.6,30.9
		c10.3,6.2,20.2,13.3,28.6,21.9c9.1,9,16.6,19.5,22.1,31.1c10,20.9,13.4,44.3,14.5,67.3c0.5,15,0.4,30.1-2.4,44.9
		c-2.3,12.9-6.5,25.5-13.3,36.7c-6.1,9.9-14.5,18.4-24.8,23.9c-9.8,5.3-21.1,7.8-32.2,7.6c-16.9,0.2-33.3-5.2-48.5-12.3
		c-0.3-50.5,0-101-0.1-151.4c-0.1-9.1,0.5-18.4-1.3-27.4c-1.3-7-4.1-14-9.6-18.8c-3.6-3.3-8.3-5.1-13.1-6.1c-4.8-0.9-9.9,1.1-12.9,5
		c-4.9,6.2-6.2,14.3-6.4,22c0,135.1,0,270.2,0,405.3c-36.4-11.5-72.7-23.1-109-34.6C250.4,321.5,250.4,160.7,250.4,0L250.4,0z
		 M87,342c47.4-16.8,94.7-33.7,142.1-50.4c0.1,18.6,0,37.2,0,55.8c0,2.5,0.1,5.1-0.2,7.6c-37.5,13.3-74.9,26.8-112.3,40.2
		c-5.2,2-10.5,4.2-14.5,8.1c-1.9,1.9-3.4,4.6-2.4,7.3c1.3,3.1,4.5,4.8,7.4,6.1c8.2,3.3,17.2,3.8,25.9,4.2c9.8-0.2,19.6-0.9,29.1-3
		c6.5-1.3,12.7-3.4,18.8-5.8c16-5.8,32-11.6,48-17.3c0.1,15.7,0,31.5,0,47.2c0,3.1,0.1,6.3-0.2,9.4c-19.7,3.5-39.6,5.9-59.6,6.2
		c-40.3,0.9-80.6-5.3-118.9-17.9c-12.5-3.6-25-8.5-35.5-16.4c-5.8-4.5-10.9-10.1-13.6-17c-2.2-5.9-2-12.6,0.7-18.2
		c2.6-5.6,7.3-10.1,12.3-13.5c11.8-8.1,24.7-14.3,37.9-19.8C63.7,349.9,75.5,346.2,87,342L87,342z"/>
	<path fill="#FFFFFF" d="M468.3,320.8c10.7-1.2,21.6-1.5,32.4-1.9c35.5,0.1,71.3,4.6,105.3,15.2c6.7,2,13.1,4.7,19.8,6.8
		c11.9,4.3,23.7,9.6,33.2,18.1c5.7,5.2,10.6,12.2,10.7,20.2c0.3,6.5-2.6,12.8-6.8,17.6c-8,9-18.7,15.2-29.3,20.6
		c-11.3,5.8-23.5,9.5-35.4,13.9c-72.6,26.1-145.3,52.2-217.9,78.3c0-20.4,0-40.7,0-61c0.1-0.8-0.3-2.2,0.8-2.4
		c55.3-19.7,110.5-39.4,165.8-59.1c7.5-2.8,15.5-4.8,21.9-9.9c2.6-2,5.1-5.3,3.9-8.8c-1.3-3.1-4.5-4.7-7.4-6
		c-8.3-3.3-17.3-3.9-26.1-4.2c-13.8,0.1-27.7,1.8-40.8,6.2c-39.4,13.8-78.7,27.8-118,41.5c0-21.8,0-43.7,0-65.5
		C408.6,330.3,438.4,324.2,468.3,320.8L468.3,320.8z M629.8,471.3c8.6-1.1,17.6,2.8,22.7,9.7c5.6,7.2,6.7,17.6,2.7,25.8
		c-4,8.5-13.2,14.5-22.7,14.2c-8.7,0.2-17.2-4.9-21.5-12.4c-3.9-6.6-4.3-15.1-1.3-22.2C613.1,478.2,621,472.2,629.8,471.3
		L629.8,471.3z M627.9,475.8c-4.9,1.1-9.1,4-12.1,8c-3.5,4.8-4.7,10.9-3.4,16.7c1.2,5.3,4.4,10,9,13c7,4.6,16.8,4.3,23.4-0.7
		c6.9-4.9,10.2-14.2,7.8-22.3c-1.5-5.5-5.4-10.1-10.3-12.8C637.9,475.4,632.7,474.7,627.9,475.8L627.9,475.8z"/>
	<path fill="#FFFFFF" d="M622,481.7c4.5,0,9,0,13.5,0c2.5,0,5.3,0.6,7.1,2.6c1.8,2,2,5,1.5,7.6c-0.3,1.7-1.8,2.7-2.8,3.9
		c0.9,0.8,2.1,1.6,2.4,3c0.5,2.6,0,5.3,0.8,7.8c0.5,0.9,1.1,1.8,1.1,2.9c-1.9,0.1-3.7,0-5.6,0c-1.3-3-0.3-6.3-1.1-9.3
		c-0.3-1.2-1.6-2-2.8-2c-3-0.1-6.1,0-9.1,0c0,3.8,0.1,7.5-0.1,11.3c-1.6,0-3.2,0-4.7,0C621.9,500.2,622,490.9,622,481.7L622,481.7z
		 M626.8,486.1v7.7c2.7,0,5.4,0,8.1,0c1.3,0,2.9-0.3,3.8-1.4c0.9-1.5,0.9-3.4,0.1-4.9c-0.7-1.2-2.2-1.3-3.4-1.4
		C632.6,486,629.7,486.1,626.8,486.1L626.8,486.1z"/>
</g>
</svg>
