<?xml version="1.0" encoding="UTF-8" standalone="no"?>
<!DOCTYPE svg PUBLIC "-//W3C//DTD SVG 1.1//EN" "http://www.w3.org/Graphics/SVG/1.1/DTD/svg11.dtd">
<svg xmlns="http://www.w3.org/2000/svg" version="1.1" viewBox="0.00 0.00 1357.00 281.00">
  <g stroke-width="2.00" fill="none" stroke-linecap="butt">
    <path stroke="#808080" vector-effect="non-scaling-stroke" d="
  M 130.69 0.00
  L 130.88 243.69
  Q 130.89 245.25 132.38 245.71
  Q 152.39 251.82 173.24 258.23
  Q 179.13 260.03 182.72 261.47
  Q 183.19 261.66 183.19 261.15
  Q 183.17 151.92 183.20 52.40
  Q 183.20 50.04 184.35 47.95
  C 185.65 45.60 187.97 41.59 191.32 42.07
  Q 199.77 43.27 203.31 49.88
  Q 204.63 52.35 205.15 56.80
  Q 205.69 61.43 205.69 64.00
  Q 205.73 103.78 205.68 144.47
  A 1.92 1.92 0.0 0 0 206.81 146.22
  C 217.08 150.90 228.91 153.82 239.89 150.72
  Q 247.33 148.63 254.22 142.03
  Q 261.22 135.33 264.57 123.02
  Q 265.41 119.95 265.89 116.83
  Q 269.42 93.97 263.47 71.07
  C 261.27 62.61 258.34 56.37 252.56 49.61
  Q 247.87 44.12 243.99 40.86
  C 231.49 30.36 215.94 24.02 200.40 18.98
  Q 166.63 8.02 132.03 0.00" />
    <path stroke="#808080" vector-effect="non-scaling-stroke" d="
  M 1022.44 32.34
  A 0.36 0.36 0.0 0 0 1022.80 32.70
  L 1080.96 32.75
  A 0.36 0.36 0.0 0 1 1081.32 33.11
  L 1081.32 162.89
  A 0.36 0.36 0.0 0 0 1081.68 163.25
  L 1111.68 163.25
  A 0.36 0.36 0.0 0 0 1112.04 162.89
  L 1111.98 32.99
  A 0.36 0.36 0.0 0 1 1112.34 32.63
  L 1171.30 32.77
  A 0.36 0.36 0.0 0 0 1171.66 32.41
  L 1171.73 14.81
  A 0.36 0.36 0.0 0 0 1171.37 14.45
  L 1022.76 14.51
  A 0.36 0.36 0.0 0 0 1022.40 14.87
  L 1022.44 32.34" />
    <path stroke="#808080" vector-effect="non-scaling-stroke" d="
  M 1180.70 133.00
  L 1274.24 133.04
  A 1.74 1.73 -14.1 0 1 1275.77 133.95
  L 1292.04 164.06
  Q 1292.31 164.56 1292.88 164.56
  L 1326.49 164.56
  A 0.37 0.36 76.1 0 0 1326.81 164.02
  Q 1290.91 96.39 1256.21 31.18
  C 1253.89 26.82 1251.00 22.06 1247.05 19.12
  C 1236.14 11.02 1225.00 14.35 1217.26 24.21
  Q 1213.63 28.83 1210.75 34.24
  Q 1176.21 98.94 1141.95 163.98
  Q 1141.65 164.55 1142.30 164.55
  L 1162.66 164.56
  Q 1163.30 164.56 1163.60 163.99
  L 1179.45 133.76
  A 1.42 1.41 -76.0 0 1 1180.70 133.00" />
    <path stroke="#808080" vector-effect="non-scaling-stroke" d="
  M 922.52 26.85
  Q 897.75 73.61 872.81 120.33
  C 870.18 125.25 867.42 129.22 861.53 126.14
  C 860.56 125.64 859.23 124.19 858.82 123.42
  Q 830.44 70.90 800.66 15.49
  A 1.35 1.34 -14.0 0 0 799.47 14.78
  L 766.05 14.77
  Q 765.56 14.77 765.79 15.21
  Q 801.03 81.69 836.74 148.74
  C 841.11 156.95 846.56 163.35 856.46 164.42
  C 870.29 165.91 878.48 151.11 883.93 140.86
  Q 917.32 78.06 950.53 15.17
  A 0.27 0.27 0.0 0 0 950.29 14.77
  L 929.54 14.76
  Q 929.06 14.76 928.83 15.18
  Q 925.95 20.37 922.52 26.85" />
    <path stroke="#808080" vector-effect="non-scaling-stroke" d="
  M 458.03 108.04
  Q 461.38 100.22 468.85 98.20
  Q 471.75 97.42 481.81 97.48
  Q 513.75 97.68 544.57 97.58
  C 562.10 97.52 577.80 92.27 584.84 75.81
  C 585.83 73.51 586.13 71.03 586.95 68.67
  Q 587.75 66.39 587.92 63.94
  Q 588.57 55.14 587.85 46.84
  C 587.67 44.70 586.71 42.83 586.24 40.81
  C 584.56 33.68 579.86 27.30 573.97 23.06
  C 565.58 16.99 555.16 15.04 544.70 15.04
  Q 484.81 15.04 425.86 15.03
  Q 425.20 15.03 425.20 15.69
  L 425.18 32.84
  Q 425.18 33.46 425.80 33.46
  Q 482.64 33.44 538.09 33.43
  Q 550.45 33.43 555.12 43.35
  Q 559.24 52.12 557.25 62.22
  C 554.94 73.89 546.06 77.39 535.47 77.44
  Q 501.24 77.63 468.90 77.39
  Q 458.68 77.32 452.81 78.93
  Q 439.76 82.50 432.08 94.56
  Q 429.07 99.29 427.57 104.66
  Q 425.40 112.43 425.33 117.39
  Q 425.02 137.58 425.26 163.72
  Q 425.26 164.23 425.78 164.23
  L 456.01 164.24
  A 0.29 0.28 90.0 0 0 456.29 163.95
  Q 456.28 142.56 456.31 120.84
  C 456.32 116.81 456.49 111.64 458.03 108.04" />
    <path stroke="#808080" vector-effect="non-scaling-stroke" d="
  M 644.27 122.64
  C 644.28 131.51 640.80 140.45 632.27 144.18
  Q 629.04 145.60 623.48 145.59
  Q 594.40 145.55 567.44 145.53
  Q 566.77 145.53 566.77 146.20
  L 566.77 163.53
  A 0.44 0.44 0.0 0 0 567.21 163.97
  Q 599.49 164.06 635.73 163.94
  C 651.86 163.88 666.82 158.29 672.82 142.55
  Q 674.32 138.61 675.06 133.61
  Q 675.88 128.03 675.91 123.27
  Q 676.07 92.54 675.99 55.55
  C 675.98 52.28 676.33 47.74 677.31 44.88
  C 680.35 36.10 686.02 33.37 694.97 33.40
  Q 722.33 33.50 751.32 33.44
  A 0.26 0.25 0.0 0 0 751.58 33.19
  L 751.59 15.30
  A 0.25 0.25 0.0 0 0 751.34 15.05
  Q 715.11 14.96 683.41 15.11
  C 670.62 15.17 657.08 19.87 650.36 30.93
  Q 644.29 40.90 644.27 53.47
  Q 644.23 87.94 644.27 122.64" />
    <path stroke="#808080" vector-effect="non-scaling-stroke" d="
  M 1002.02 15.68
  A 0.37 0.37 0.0 0 0 1001.65 15.31
  L 971.15 15.31
  A 0.37 0.37 0.0 0 0 970.78 15.68
  L 970.78 163.74
  A 0.37 0.37 0.0 0 0 971.15 164.11
  L 1001.65 164.11
  A 0.37 0.37 0.0 0 0 1002.02 163.74
  L 1002.02 15.68" />
    <path stroke="#808080" vector-effect="non-scaling-stroke" d="
  M 351.27 146.17
  C 351.32 146.67 351.09 147.23 351.27 147.69
  Q 351.45 148.19 351.61 147.68
  Q 351.97 146.49 351.59 145.56
  Q 351.40 145.09 351.31 145.59
  Q 351.25 145.89 351.27 146.17" />
    <path stroke="#808080" vector-effect="non-scaling-stroke" d="
  M 54.25 210.71
  C 49.95 209.34 50.27 203.93 54.33 202.02
  Q 61.79 198.52 71.34 195.18
  Q 89.62 188.81 108.41 182.32
  Q 110.89 181.46 113.27 180.24
  Q 113.71 180.01 113.71 179.52
  L 113.71 149.26
  Q 113.71 148.77 113.24 148.91
  Q 105.94 151.17 98.57 153.81
  Q 67.43 164.95 35.40 176.62
  Q 23.32 181.02 14.01 186.19
  Q 8.30 189.36 3.28 194.69
  C -5.44 203.98 7.74 214.32 15.07 217.51
  Q 34.14 225.80 59.28 229.01
  Q 85.34 232.33 112.67 228.50
  Q 113.69 228.36 113.69 227.32
  L 113.73 201.93
  Q 113.73 201.24 113.09 201.49
  Q 106.22 204.20 97.65 207.60
  Q 91.97 209.85 87.22 210.73
  Q 80.59 211.96 74.44 213.10
  Q 71.27 213.68 66.37 212.63
  C 62.34 211.77 58.00 211.91 54.25 210.71" />
    <path stroke="#808080" vector-effect="non-scaling-stroke" d="
  M 1337.77 154.26
  A 0.33 0.33 0.0 0 1 1338.10 154.59
  L 1338.13 162.78
  A 0.33 0.33 0.0 0 0 1338.51 163.10
  L 1339.93 162.88
  A 0.33 0.33 0.0 0 0 1340.21 162.56
  L 1340.18 154.62
  A 0.33 0.33 0.0 0 1 1340.51 154.29
  L 1342.61 154.29
  A 0.33 0.33 0.0 0 0 1342.94 153.98
  L 1342.99 152.97
  A 0.33 0.33 0.0 0 0 1342.66 152.62
  L 1335.32 152.65
  A 0.33 0.33 0.0 0 0 1334.99 152.99
  L 1335.03 153.93
  A 0.33 0.33 0.0 0 0 1335.36 154.25
  L 1337.77 154.26" />
    <path stroke="#808080" vector-effect="non-scaling-stroke" d="
  M 1355.13 156.03
  L 1355.09 162.42
  A 0.74 0.74 0.0 0 0 1355.83 163.17
  L 1356.29 163.18
  A 0.47 0.47 0.0 0 0 1356.76 162.71
  L 1356.78 153.27
  Q 1356.78 152.64 1356.14 152.65
  L 1354.47 152.67
  A 0.62 0.61 -79.5 0 0 1353.90 153.07
  L 1351.63 159.07
  Q 1351.45 159.56 1351.16 159.12
  Q 1349.24 156.24 1348.81 153.01
  Q 1348.76 152.66 1348.41 152.66
  L 1345.45 152.67
  Q 1345.07 152.67 1345.08 153.05
  L 1345.14 162.47
  Q 1345.14 163.15 1345.82 163.08
  L 1346.68 162.99
  Q 1347.28 162.92 1347.26 162.32
  L 1347.13 156.23
  Q 1347.11 155.32 1347.63 156.06
  C 1349.18 158.26 1348.97 160.82 1350.53 162.80
  A 0.85 0.84 -49.4 0 0 1351.93 162.69
  Q 1353.21 160.42 1353.96 157.32
  Q 1354.15 156.52 1354.70 155.87
  Q 1355.13 155.36 1355.13 156.03" />
    <path stroke="#808080" vector-effect="non-scaling-stroke" d="
  M 288.08 182.64
  Q 292.04 183.96 292.07 188.01
  Q 292.07 188.67 291.65 189.19
  Q 289.69 191.57 286.23 192.93
  Q 270.70 199.06 258.47 203.48
  Q 228.21 214.39 198.62 225.01
  Q 197.60 225.38 197.60 226.46
  L 197.65 255.82
  Q 197.65 256.71 198.48 256.38
  Q 203.56 254.37 208.87 252.47
  Q 256.35 235.54 303.68 218.82
  Q 310.29 216.48 323.92 210.32
  C 332.36 206.51 343.97 198.60 339.96 187.69
  C 338.29 183.15 332.25 178.75 328.00 176.55
  Q 320.76 172.81 311.49 169.80
  C 294.04 164.15 275.57 161.21 257.28 161.90
  Q 243.98 162.40 234.44 163.51
  Q 217.19 165.52 198.68 171.49
  Q 197.61 171.84 197.61 172.97
  L 197.63 203.07
  Q 197.63 203.71 198.24 203.50
  Q 224.01 194.30 249.59 185.53
  C 254.18 183.96 258.96 182.95 263.54 181.56
  Q 270.43 179.46 277.08 180.29
  Q 283.33 181.07 288.08 182.64" />
    <path stroke="#808080" vector-effect="non-scaling-stroke" d="
  M 797.53 258.40
  C 799.30 266.09 790.22 266.69 785.37 264.85
  Q 780.96 263.18 780.97 258.17
  Q 780.97 257.91 780.72 257.91
  L 775.02 257.99
  Q 774.74 257.99 774.75 258.28
  C 774.91 265.50 779.59 269.90 786.49 270.70
  C 794.92 271.68 805.64 268.75 803.92 257.75
  Q 803.10 252.49 797.94 250.67
  Q 792.82 248.86 786.43 247.42
  C 782.21 246.46 780.41 241.35 784.81 238.99
  Q 788.27 237.13 793.36 238.85
  C 795.26 239.49 796.29 241.87 796.81 243.64
  Q 797.06 244.49 797.95 244.50
  L 802.30 244.50
  Q 803.54 244.50 803.32 243.28
  C 801.63 233.93 791.87 231.18 783.83 233.67
  Q 777.68 235.57 776.25 241.31
  Q 774.91 246.71 779.24 250.43
  Q 781.41 252.30 785.83 253.28
  C 788.59 253.89 796.81 255.28 797.53 258.40" />
    <path stroke="#808080" vector-effect="non-scaling-stroke" d="
  M 681.88 256.14
  Q 686.65 256.29 691.80 256.13
  C 697.42 255.96 702.39 252.87 702.92 247.08
  Q 703.34 242.44 702.02 239.62
  C 699.86 235.00 695.23 233.62 690.23 233.69
  Q 682.69 233.80 675.34 233.70
  Q 674.74 233.69 674.74 234.28
  L 674.75 269.43
  Q 674.75 270.11 675.43 270.11
  L 680.60 270.14
  A 0.62 0.61 -0.5 0 0 681.22 269.52
  L 681.21 256.79
  Q 681.21 256.12 681.88 256.14" />
    <path stroke="#808080" vector-effect="non-scaling-stroke" d="
  M 714.14 234.12
  A 0.40 0.40 0.0 0 0 713.74 233.72
  L 708.76 233.72
  A 0.40 0.40 0.0 0 0 708.36 234.12
  L 708.36 269.70
  A 0.40 0.40 0.0 0 0 708.76 270.10
  L 713.74 270.10
  A 0.40 0.40 0.0 0 0 714.14 269.70
  L 714.14 234.12" />
    <path stroke="#808080" vector-effect="non-scaling-stroke" d="
  M 878.0543 234.0249
  A 0.30 0.30 0.0 0 0 877.7548 233.7243
  L 872.7948 233.7157
  A 0.30 0.30 0.0 0 0 872.4943 234.0152
  L 872.4857 238.9351
  A 0.30 0.30 0.0 0 0 872.7852 239.2357
  L 877.7452 239.2443
  A 0.30 0.30 0.0 0 0 878.0457 238.9448
  L 878.0543 234.0249" />
    <path stroke="#808080" vector-effect="non-scaling-stroke" d="
  M 974.94 261.71
  A 0.33 0.33 0.0 0 1 974.31 261.71
  L 965.71 233.99
  A 0.33 0.33 0.0 0 0 965.40 233.76
  L 959.26 233.69
  A 0.33 0.33 0.0 0 0 958.94 234.12
  L 971.04 269.86
  A 0.33 0.33 0.0 0 0 971.35 270.08
  L 977.86 270.14
  A 0.33 0.33 0.0 0 0 978.18 269.91
  L 990.40 234.12
  A 0.33 0.33 0.0 0 0 990.08 233.68
  L 984.31 233.74
  A 0.33 0.33 0.0 0 0 984.00 233.97
  L 974.94 261.71" />
    <path stroke="#808080" vector-effect="non-scaling-stroke" d="
  M 999.3256 233.9852
  A 0.28 0.28 0.0 0 0 999.0452 233.7056
  L 994.0452 233.7144
  A 0.28 0.28 0.0 0 0 993.7657 233.9949
  L 993.7744 238.9748
  A 0.28 0.28 0.0 0 0 994.0548 239.2544
  L 999.0548 239.2456
  A 0.28 0.28 0.0 0 0 999.3343 238.9651
  L 999.3256 233.9852" />
    <path stroke="#808080" vector-effect="non-scaling-stroke" d="
  M 816.77 243.00
  L 816.80 236.05
  Q 816.80 235.81 816.55 235.81
  L 811.23 235.79
  Q 811.00 235.79 811.00 236.02
  L 811.00 243.26
  A 0.50 0.50 0.0 0 1 810.49 243.76
  L 807.22 243.70
  Q 806.64 243.69 806.63 244.28
  L 806.62 247.67
  Q 806.62 248.22 807.17 248.18
  L 810.45 247.97
  Q 811.00 247.93 811.00 248.49
  Q 811.01 256.08 810.99 264.35
  C 810.97 270.83 816.35 270.44 821.16 270.19
  A 0.88 0.88 0.0 0 0 821.99 269.31
  L 822.01 266.40
  Q 822.01 265.60 821.21 265.67
  C 818.87 265.84 816.82 266.04 816.81 262.89
  Q 816.80 255.77 816.79 248.70
  A 0.64 0.64 0.0 0 1 817.43 248.06
  L 821.58 248.09
  Q 822.00 248.09 822.00 247.67
  L 821.99 243.99
  Q 821.99 243.74 821.74 243.74
  L 817.50 243.73
  Q 816.77 243.73 816.77 243.00" />
    <path stroke="#808080" vector-effect="non-scaling-stroke" d="
  M 862.48 242.98
  L 862.49 236.02
  Q 862.49 235.79 862.27 235.79
  L 857.09 235.80
  Q 856.73 235.80 856.73 236.16
  L 856.76 242.99
  Q 856.76 243.74 856.01 243.73
  L 853.01 243.71
  Q 852.22 243.71 852.23 244.49
  L 852.24 247.42
  A 0.68 0.68 0.0 0 0 852.92 248.09
  L 856.03 248.05
  A 0.72 0.72 0.0 0 1 856.76 248.78
  Q 856.69 255.82 856.75 262.68
  C 856.83 270.69 860.67 270.42 867.32 270.17
  A 0.69 0.69 0.0 0 0 867.98 269.48
  L 868.00 266.27
  Q 868.00 265.67 867.41 265.69
  L 864.91 265.75
  A 2.35 2.35 0.0 0 1 862.50 263.40
  L 862.49 248.50
  A 0.49 0.48 0.6 0 1 863.00 248.01
  L 867.29 248.13
  Q 867.98 248.15 867.99 247.46
  L 868.00 244.24
  Q 868.00 243.73 867.49 243.73
  L 863.23 243.74
  Q 862.48 243.74 862.48 242.98" />
    <path stroke="#808080" vector-effect="non-scaling-stroke" d="
  M 1013.52 243.01
  L 1013.52 236.03
  Q 1013.52 235.78 1013.28 235.78
  L 1008.19 235.81
  Q 1007.95 235.81 1007.95 236.06
  L 1007.95 243.14
  Q 1007.95 243.74 1007.36 243.74
  L 1003.75 243.73
  Q 1003.48 243.73 1003.49 244.00
  L 1003.51 247.82
  Q 1003.51 248.15 1003.84 248.14
  L 1007.22 248.01
  Q 1007.87 247.98 1007.88 248.64
  Q 1008.00 255.85 1007.93 263.67
  C 1007.87 270.77 1012.70 270.55 1018.22 270.21
  Q 1019.05 270.16 1019.05 269.33
  L 1019.04 266.23
  Q 1019.04 265.33 1018.19 265.60
  C 1016.20 266.21 1013.60 265.69 1013.56 263.01
  Q 1013.48 255.74 1013.54 248.67
  Q 1013.54 248.02 1014.19 248.03
  L 1018.68 248.16
  Q 1019.03 248.17 1019.03 247.82
  L 1019.03 244.00
  A 0.29 0.29 0.0 0 0 1018.74 243.71
  L 1014.26 243.74
  Q 1013.52 243.75 1013.52 243.01" />
    <path stroke="#808080" vector-effect="non-scaling-stroke" d="
  M 737.74 268.64
  C 739.03 271.30 742.43 271.00 744.82 270.38
  Q 745.63 270.17 745.64 269.34
  L 745.66 266.73
  A 0.55 0.54 83.2 0 0 744.98 266.19
  Q 744.25 266.37 743.55 266.14
  Q 743.02 265.97 743.00 265.41
  Q 742.78 259.32 742.98 252.74
  Q 743.06 250.03 742.16 247.88
  C 739.85 242.34 730.88 242.45 726.29 243.94
  Q 720.84 245.71 720.41 251.21
  Q 720.37 251.79 720.95 251.78
  L 725.27 251.77
  A 0.96 0.96 0.0 0 0 726.19 251.09
  Q 726.89 248.82 728.87 248.14
  C 731.85 247.13 738.89 247.39 737.03 252.69
  A 1.15 1.14 -5.5 0 1 736.53 253.29
  Q 735.16 254.08 733.69 254.27
  Q 729.71 254.79 725.73 255.54
  C 719.87 256.65 716.79 262.96 720.77 267.68
  C 724.55 272.17 732.16 271.27 736.54 268.32
  Q 737.33 267.79 737.74 268.64" />
    <path stroke="#808080" vector-effect="non-scaling-stroke" d="
  M 843.30 268.15
  C 844.19 271.58 848.74 270.98 851.25 270.17
  Q 851.56 270.07 851.55 269.75
  L 851.48 266.27
  Q 851.48 266.10 851.32 266.14
  Q 848.40 266.90 848.35 263.95
  Q 848.25 257.58 848.38 252.14
  C 848.49 248.04 847.31 245.09 843.10 243.86
  C 836.89 242.04 826.99 242.85 826.09 251.07
  Q 826.02 251.75 826.69 251.75
  L 831.06 251.78
  Q 831.61 251.79 831.76 251.26
  C 832.93 247.39 837.39 247.19 840.68 248.02
  C 843.36 248.69 844.14 252.80 841.23 253.90
  Q 840.28 254.26 839.31 254.36
  Q 834.97 254.78 830.60 255.76
  C 823.05 257.46 823.47 268.72 830.93 270.37
  Q 837.71 271.86 842.76 267.96
  Q 843.17 267.65 843.30 268.15" />
    <path stroke="#808080" vector-effect="non-scaling-stroke" d="
  M 910.0034 254.9946
  A 11.90 11.90 0.0 0 0 898.0619 243.1362
  L 895.8219 243.1440
  A 11.90 11.90 0.0 0 0 883.9636 255.0855
  L 883.9766 258.8254
  A 11.90 11.90 0.0 0 0 895.9181 270.6838
  L 898.1581 270.6760
  A 11.90 11.90 0.0 0 0 910.0164 258.7345
  L 910.0034 254.9946" />
    <path stroke="#808080" vector-effect="non-scaling-stroke" d="
  M 920.77 246.98
  L 920.83 244.41
  Q 920.84 243.73 920.16 243.73
  L 916.13 243.74
  Q 915.24 243.74 915.24 244.62
  L 915.25 269.67
  Q 915.25 270.10 915.67 270.10
  L 920.67 270.14
  Q 920.99 270.14 921.00 269.81
  Q 921.02 262.52 920.98 255.13
  C 920.97 251.05 923.66 247.29 928.11 247.65
  Q 932.55 248.01 932.60 253.29
  Q 932.68 261.66 932.61 269.75
  A 0.38 0.38 0.0 0 0 932.99 270.13
  L 938.27 270.12
  A 0.34 0.33 90.0 0 0 938.60 269.78
  Q 938.49 261.61 938.61 252.33
  Q 938.64 249.40 937.51 247.32
  C 934.92 242.57 927.71 241.83 923.65 244.72
  C 922.69 245.40 922.16 246.47 921.27 247.22
  Q 920.75 247.67 920.77 246.98" />
    <path stroke="#808080" vector-effect="non-scaling-stroke" d="
  M 1040.21 268.03
  L 1040.95 269.53
  A 1.52 1.46 85.8 0 0 1041.77 270.27
  Q 1044.69 271.35 1047.96 270.16
  Q 1048.24 270.06 1048.24 269.76
  L 1048.23 266.33
  A 0.15 0.14 82.8 0 0 1048.05 266.18
  Q 1046.69 266.50 1045.87 265.96
  Q 1045.50 265.73 1045.49 265.29
  Q 1045.36 258.71 1045.50 252.01
  Q 1045.56 249.41 1044.78 247.66
  Q 1043.60 245.04 1040.34 243.98
  C 1033.80 241.87 1024.47 242.85 1022.70 251.02
  A 0.60 0.60 0.0 0 0 1023.29 251.75
  L 1028.23 251.78
  Q 1028.88 251.79 1028.95 251.14
  C 1029.31 247.35 1035.01 247.21 1037.77 248.14
  C 1038.74 248.46 1039.18 249.26 1039.66 250.09
  C 1040.69 251.88 1038.78 253.93 1037.18 254.16
  C 1030.80 255.08 1020.77 254.84 1022.08 264.34
  C 1023.21 272.59 1035.03 271.90 1039.51 267.89
  Q 1039.95 267.50 1040.21 268.03" />
    <path stroke="#808080" vector-effect="non-scaling-stroke" d="
  M 759.23 262.20
  L 752.78 243.90
  Q 752.71 243.71 752.51 243.71
  L 746.59 243.75
  A 0.21 0.20 79.2 0 0 746.40 244.03
  L 756.13 269.40
  Q 756.33 269.91 756.17 270.45
  C 755.14 273.98 754.42 276.53 749.83 275.49
  Q 748.94 275.29 748.93 276.21
  L 748.92 279.40
  Q 748.92 280.19 749.70 280.32
  C 757.70 281.65 759.73 278.15 762.28 271.20
  Q 767.56 256.82 772.30 244.21
  Q 772.49 243.71 771.96 243.71
  L 766.92 243.74
  A 1.09 1.08 -84.1 0 0 765.86 244.61
  Q 765.30 247.34 764.27 249.87
  C 762.64 253.88 761.78 258.15 760.11 262.23
  Q 759.64 263.36 759.23 262.20" />
    <path stroke="#808080" vector-effect="non-scaling-stroke" d="
  M 878.06 244.10
  A 0.38 0.38 0.0 0 0 877.68 243.72
  L 872.88 243.72
  A 0.38 0.38 0.0 0 0 872.50 244.10
  L 872.50 269.74
  A 0.38 0.38 0.0 0 0 872.88 270.12
  L 877.68 270.12
  A 0.38 0.38 0.0 0 0 878.06 269.74
  L 878.06 244.10" />
    <path stroke="#808080" vector-effect="non-scaling-stroke" d="
  M 999.33 244.01
  A 0.28 0.28 0.0 0 0 999.05 243.73
  L 994.05 243.73
  A 0.28 0.28 0.0 0 0 993.77 244.01
  L 993.77 269.85
  A 0.28 0.28 0.0 0 0 994.05 270.13
  L 999.05 270.13
  A 0.28 0.28 0.0 0 0 999.33 269.85
  L 999.33 244.01" />
    <path stroke="#808080" vector-effect="non-scaling-stroke" d="
  M 950.3113 270.5232
  A 8.44 8.26 92.3 0 0 958.9033 262.4215
  A 8.44 8.26 92.3 0 0 950.9887 253.6568
  A 8.44 8.26 92.3 0 0 942.3967 261.7585
  A 8.44 8.26 92.3 0 0 950.3113 270.5232" />
    <path stroke="#808080" vector-effect="non-scaling-stroke" d="
  M 1215.69 66.26
  Q 1203.53 89.67 1190.50 113.69
  Q 1190.08 114.45 1190.95 114.45
  L 1264.69 114.45
  A 0.43 0.43 0.0 0 0 1265.07 113.82
  Q 1249.78 85.45 1234.51 57.26
  C 1231.93 52.48 1225.85 49.27 1222.09 54.97
  Q 1219.55 58.84 1215.69 66.26" />
    <path stroke="#808080" vector-effect="non-scaling-stroke" d="
  M 681.19 239.30
  L 681.15 250.42
  A 0.47 0.47 0.0 0 0 681.62 250.89
  L 690.89 250.93
  A 6.10 5.82 0.2 0 0 697.01 245.13
  L 697.01 244.71
  A 6.10 5.82 0.2 0 0 690.93 238.87
  L 681.66 238.83
  A 0.47 0.47 0.0 0 0 681.19 239.30" />
    <path stroke="#808080" vector-effect="non-scaling-stroke" d="
  M 736.75 257.23
  Q 732.71 258.06 728.86 258.72
  C 724.46 259.48 723.39 264.84 728.32 265.95
  Q 733.49 267.12 736.63 263.12
  Q 737.02 262.62 737.02 262.00
  L 737.03 257.46
  Q 737.03 257.18 736.75 257.23" />
    <path stroke="#808080" vector-effect="non-scaling-stroke" d="
  M 832.61 265.45
  Q 836.49 267.15 840.40 265.14
  C 843.24 263.68 842.76 260.48 842.75 257.87
  Q 842.74 257.25 842.13 257.37
  Q 838.27 258.14 834.83 258.66
  Q 830.43 259.33 831.03 263.45
  Q 831.23 264.84 832.61 265.45" />
    <path stroke="#808080" vector-effect="non-scaling-stroke" d="
  M 896.9500 266.3500
  A 9.44 7.55 90.0 0 0 904.5000 256.9100
  A 9.44 7.55 90.0 0 0 896.9500 247.4700
  A 9.44 7.55 90.0 0 0 889.4000 256.9100
  A 9.44 7.55 90.0 0 0 896.9500 266.3500" />
    <path stroke="#808080" vector-effect="non-scaling-stroke" d="
  M 1039.13 257.28
  Q 1035.13 258.14 1031.02 258.83
  C 1028.74 259.22 1026.14 262.69 1028.57 264.67
  Q 1031.97 267.44 1036.64 265.40
  C 1040.06 263.92 1039.41 260.38 1039.25 257.37
  A 0.10 0.09 -7.2 0 0 1039.13 257.28" />
    <path stroke="#808080" vector-effect="non-scaling-stroke" d="
  M 950.5630 269.0393
  A 6.95 6.43 90.8 0 0 957.0894 262.1798
  A 6.95 6.43 90.8 0 0 950.7570 255.1407
  A 6.95 6.43 90.8 0 0 944.2306 262.0002
  A 6.95 6.43 90.8 0 0 950.5630 269.0393" />
    <path stroke="#808080" vector-effect="non-scaling-stroke" d="
  M 948.99 264.55
  Q 948.99 261.01 951.03 263.91
  L 952.98 266.68
  A 0.89 0.89 0.0 0 0 953.96 267.02
  L 954.27 266.92
  A 0.33 0.33 0.0 0 0 954.45 266.42
  L 952.49 263.62
  Q 952.05 262.99 952.76 262.70
  C 953.70 262.32 954.40 261.94 954.62 260.84
  C 955.36 257.16 950.20 257.35 947.93 257.67
  Q 947.61 257.72 947.61 258.03
  L 947.58 266.33
  Q 947.58 266.85 948.10 266.92
  L 948.45 266.97
  A 0.49 0.48 -86.4 0 0 948.99 266.48
  L 948.99 264.55" />
    <path stroke="#808080" vector-effect="non-scaling-stroke" d="
  M 948.97 259.32
  L 948.99 261.24
  A 0.39 0.39 0.0 0 0 949.38 261.63
  L 951.13 261.61
  A 1.80 1.18 -0.6 0 0 952.92 260.41
  L 952.92 260.07
  A 1.80 1.18 -0.6 0 0 951.11 258.91
  L 949.36 258.93
  A 0.39 0.39 0.0 0 0 948.97 259.32" />
  </g>
  <path fill="#ffffff" d="
  M 130.69 0.00
  L 132.03 0.00
  Q 166.63 8.02 200.40 18.98
  C 215.94 24.02 231.49 30.36 243.99 40.86
  Q 247.87 44.12 252.56 49.61
  C 258.34 56.37 261.27 62.61 263.47 71.07
  Q 269.42 93.97 265.89 116.83
  Q 265.41 119.95 264.57 123.02
  Q 261.22 135.33 254.22 142.03
  Q 247.33 148.63 239.89 150.72
  C 228.91 153.82 217.08 150.90 206.81 146.22
  A 1.92 1.92 0.0 0 1 205.68 144.47
  Q 205.73 103.78 205.69 64.00
  Q 205.69 61.43 205.15 56.80
  Q 204.63 52.35 203.31 49.88
  Q 199.77 43.27 191.32 42.07
  C 187.97 41.59 185.65 45.60 184.35 47.95
  Q 183.20 50.04 183.20 52.40
  Q 183.17 151.92 183.19 261.15
  Q 183.19 261.66 182.72 261.47
  Q 179.13 260.03 173.24 258.23
  Q 152.39 251.82 132.38 245.71
  Q 130.89 245.25 130.88 243.69
  L 130.69 0.00
  Z" />
  <path fill="#ffffff" d="
  M 1022.44 32.34
  L 1022.40 14.87
  A 0.36 0.36 0.0 0 1 1022.76 14.51
  L 1171.37 14.45
  A 0.36 0.36 0.0 0 1 1171.73 14.81
  L 1171.66 32.41
  A 0.36 0.36 0.0 0 1 1171.30 32.77
  L 1112.34 32.63
  A 0.36 0.36 0.0 0 0 1111.98 32.99
  L 1112.04 162.89
  A 0.36 0.36 0.0 0 1 1111.68 163.25
  L 1081.68 163.25
  A 0.36 0.36 0.0 0 1 1081.32 162.89
  L 1081.32 33.11
  A 0.36 0.36 0.0 0 0 1080.96 32.75
  L 1022.80 32.70
  A 0.36 0.36 0.0 0 1 1022.44 32.34
  Z" />
  <path fill="#ffffff" d="
  M 1180.70 133.00
  A 1.42 1.41 -76.0 0 0 1179.45 133.76
  L 1163.60 163.99
  Q 1163.30 164.56 1162.66 164.56
  L 1142.30 164.55
  Q 1141.65 164.55 1141.95 163.98
  Q 1176.21 98.94 1210.75 34.24
  Q 1213.63 28.83 1217.26 24.21
  C 1225.00 14.35 1236.14 11.02 1247.05 19.12
  C 1251.00 22.06 1253.89 26.82 1256.21 31.18
  Q 1290.91 96.39 1326.81 164.02
  A 0.37 0.36 76.1 0 1 1326.49 164.56
  L 1292.88 164.56
  Q 1292.31 164.56 1292.04 164.06
  L 1275.77 133.95
  A 1.74 1.73 -14.1 0 0 1274.24 133.04
  L 1180.70 133.00
  Z
  M 1215.69 66.26
  Q 1203.53 89.67 1190.50 113.69
  Q 1190.08 114.45 1190.95 114.45
  L 1264.69 114.45
  A 0.43 0.43 0.0 0 0 1265.07 113.82
  Q 1249.78 85.45 1234.51 57.26
  C 1231.93 52.48 1225.85 49.27 1222.09 54.97
  Q 1219.55 58.84 1215.69 66.26
  Z" />
  <path fill="#ffffff" d="
  M 922.52 26.85
  Q 925.95 20.37 928.83 15.18
  Q 929.06 14.76 929.54 14.76
  L 950.29 14.77
  A 0.27 0.27 0.0 0 1 950.53 15.17
  Q 917.32 78.06 883.93 140.86
  C 878.48 151.11 870.29 165.91 856.46 164.42
  C 846.56 163.35 841.11 156.95 836.74 148.74
  Q 801.03 81.69 765.79 15.21
  Q 765.56 14.77 766.05 14.77
  L 799.47 14.78
  A 1.35 1.34 -14.0 0 1 800.66 15.49
  Q 830.44 70.90 858.82 123.42
  C 859.23 124.19 860.56 125.64 861.53 126.14
  C 867.42 129.22 870.18 125.25 872.81 120.33
  Q 897.75 73.61 922.52 26.85
  Z" />
  <path fill="#ffffff" d="
  M 458.03 108.04
  C 456.49 111.64 456.32 116.81 456.31 120.84
  Q 456.28 142.56 456.29 163.95
  A 0.29 0.28 90.0 0 1 456.01 164.24
  L 425.78 164.23
  Q 425.26 164.23 425.26 163.72
  Q 425.02 137.58 425.33 117.39
  Q 425.40 112.43 427.57 104.66
  Q 429.07 99.29 432.08 94.56
  Q 439.76 82.50 452.81 78.93
  Q 458.68 77.32 468.90 77.39
  Q 501.24 77.63 535.47 77.44
  C 546.06 77.39 554.94 73.89 557.25 62.22
  Q 559.24 52.12 555.12 43.35
  Q 550.45 33.43 538.09 33.43
  Q 482.64 33.44 425.80 33.46
  Q 425.18 33.46 425.18 32.84
  L 425.20 15.69
  Q 425.20 15.03 425.86 15.03
  Q 484.81 15.04 544.70 15.04
  C 555.16 15.04 565.58 16.99 573.97 23.06
  C 579.86 27.30 584.56 33.68 586.24 40.81
  C 586.71 42.83 587.67 44.70 587.85 46.84
  Q 588.57 55.14 587.92 63.94
  Q 587.75 66.39 586.95 68.67
  C 586.13 71.03 585.83 73.51 584.84 75.81
  C 577.80 92.27 562.10 97.52 544.57 97.58
  Q 513.75 97.68 481.81 97.48
  Q 471.75 97.42 468.85 98.20
  Q 461.38 100.22 458.03 108.04
  Z" />
  <path fill="#ffffff" d="
  M 632.27 144.18
  C 640.80 140.45 644.28 131.51 644.27 122.64
  Q 644.23 87.94 644.27 53.47
  Q 644.29 40.90 650.36 30.93
  C 657.08 19.87 670.62 15.17 683.41 15.11
  Q 715.11 14.96 751.34 15.05
  A 0.25 0.25 0.0 0 1 751.59 15.30
  L 751.58 33.19
  A 0.26 0.25 -0.0 0 1 751.32 33.44
  Q 722.33 33.50 694.97 33.40
  C 686.02 33.37 680.35 36.10 677.31 44.88
  C 676.33 47.74 675.98 52.28 675.99 55.55
  Q 676.07 92.54 675.91 123.27
  Q 675.88 128.03 675.06 133.61
  Q 674.32 138.61 672.82 142.55
  C 666.82 158.29 651.86 163.88 635.73 163.94
  Q 599.49 164.06 567.21 163.97
  A 0.44 0.44 0.0 0 1 566.77 163.53
  L 566.77 146.20
  Q 566.77 145.53 567.44 145.53
  Q 594.40 145.55 623.48 145.59
  Q 629.04 145.60 632.27 144.18
  Z" />
  <rect fill="#ffffff" x="970.78" y="15.31" width="31.24" height="148.80" rx="0.37"/>
  <path fill="#ffffff" d="
  M 351.27 146.17
  Q 351.25 145.89 351.31 145.59
  Q 351.40 145.09 351.59 145.56
  Q 351.97 146.49 351.61 147.68
  Q 351.45 148.19 351.27 147.69
  C 351.09 147.23 351.32 146.67 351.27 146.17
  Z" />
  <path fill="#ffffff" d="
  M 54.25 210.71
  C 58.00 211.91 62.34 211.77 66.37 212.63
  Q 71.27 213.68 74.44 213.10
  Q 80.59 211.96 87.22 210.73
  Q 91.97 209.85 97.65 207.60
  Q 106.22 204.20 113.09 201.49
  Q 113.73 201.24 113.73 201.93
  L 113.69 227.32
  Q 113.69 228.36 112.67 228.50
  Q 85.34 232.33 59.28 229.01
  Q 34.14 225.80 15.07 217.51
  C 7.74 214.32 -5.44 203.98 3.28 194.69
  Q 8.30 189.36 14.01 186.19
  Q 23.32 181.02 35.40 176.62
  Q 67.43 164.95 98.57 153.81
  Q 105.94 151.17 113.24 148.91
  Q 113.71 148.77 113.71 149.26
  L 113.71 179.52
  Q 113.71 180.01 113.27 180.24
  Q 110.89 181.46 108.41 182.32
  Q 89.62 188.81 71.34 195.18
  Q 61.79 198.52 54.33 202.02
  C 50.27 203.93 49.95 209.34 54.25 210.71
  Z" />
  <path fill="#ffffff" d="
  M 1337.77 154.26
  L 1335.36 154.25
  A 0.33 0.33 0.0 0 1 1335.03 153.93
  L 1334.99 152.99
  A 0.33 0.33 0.0 0 1 1335.32 152.65
  L 1342.66 152.62
  A 0.33 0.33 0.0 0 1 1342.99 152.97
  L 1342.94 153.98
  A 0.33 0.33 0.0 0 1 1342.61 154.29
  L 1340.51 154.29
  A 0.33 0.33 0.0 0 0 1340.18 154.62
  L 1340.21 162.56
  A 0.33 0.33 0.0 0 1 1339.93 162.88
  L 1338.51 163.10
  A 0.33 0.33 0.0 0 1 1338.13 162.78
  L 1338.10 154.59
  A 0.33 0.33 0.0 0 0 1337.77 154.26
  Z" />
  <path fill="#ffffff" d="
  M 1354.70 155.87
  Q 1354.15 156.52 1353.96 157.32
  Q 1353.21 160.42 1351.93 162.69
  A 0.85 0.84 -49.4 0 1 1350.53 162.80
  C 1348.97 160.82 1349.18 158.26 1347.63 156.06
  Q 1347.11 155.32 1347.13 156.23
  L 1347.26 162.32
  Q 1347.28 162.92 1346.68 162.99
  L 1345.82 163.08
  Q 1345.14 163.15 1345.14 162.47
  L 1345.08 153.05
  Q 1345.07 152.67 1345.45 152.67
  L 1348.41 152.66
  Q 1348.76 152.66 1348.81 153.01
  Q 1349.24 156.24 1351.16 159.12
  Q 1351.45 159.56 1351.63 159.07
  L 1353.90 153.07
  A 0.62 0.61 -79.5 0 1 1354.47 152.67
  L 1356.14 152.65
  Q 1356.78 152.64 1356.78 153.27
  L 1356.76 162.71
  A 0.47 0.47 0.0 0 1 1356.29 163.18
  L 1355.83 163.17
  A 0.74 0.74 0.0 0 1 1355.09 162.42
  L 1355.13 156.03
  Q 1355.13 155.36 1354.70 155.87
  Z" />
  <path fill="#ffffff" d="
  M 288.08 182.64
  Q 283.33 181.07 277.08 180.29
  Q 270.43 179.46 263.54 181.56
  C 258.96 182.95 254.18 183.96 249.59 185.53
  Q 224.01 194.30 198.24 203.50
  Q 197.63 203.71 197.63 203.07
  L 197.61 172.97
  Q 197.61 171.84 198.68 171.49
  Q 217.19 165.52 234.44 163.51
  Q 243.98 162.40 257.28 161.90
  C 275.57 161.21 294.04 164.15 311.49 169.80
  Q 320.76 172.81 328.00 176.55
  C 332.25 178.75 338.29 183.15 339.96 187.69
  C 343.97 198.60 332.36 206.51 323.92 210.32
  Q 310.29 216.48 303.68 218.82
  Q 256.35 235.54 208.87 252.47
  Q 203.56 254.37 198.48 256.38
  Q 197.65 256.71 197.65 255.82
  L 197.60 226.46
  Q 197.60 225.38 198.62 225.01
  Q 228.21 214.39 258.47 203.48
  Q 270.70 199.06 286.23 192.93
  Q 289.69 191.57 291.65 189.19
  Q 292.07 188.67 292.07 188.01
  Q 292.04 183.96 288.08 182.64
  Z" />
  <path fill="#ffffff" d="
  M 797.53 258.40
  C 796.81 255.28 788.59 253.89 785.83 253.28
  Q 781.41 252.30 779.24 250.43
  Q 774.91 246.71 776.25 241.31
  Q 777.68 235.57 783.83 233.67
  C 791.87 231.18 801.63 233.93 803.32 243.28
  Q 803.54 244.50 802.30 244.50
  L 797.95 244.50
  Q 797.06 244.49 796.81 243.64
  C 796.29 241.87 795.26 239.49 793.36 238.85
  Q 788.27 237.13 784.81 238.99
  C 780.41 241.35 782.21 246.46 786.43 247.42
  Q 792.82 248.86 797.94 250.67
  Q 803.10 252.49 803.92 257.75
  C 805.64 268.75 794.92 271.68 786.49 270.70
  C 779.59 269.90 774.91 265.50 774.75 258.28
  Q 774.74 257.99 775.02 257.99
  L 780.72 257.91
  Q 780.97 257.91 780.97 258.17
  Q 780.96 263.18 785.37 264.85
  C 790.22 266.69 799.30 266.09 797.53 258.40
  Z" />
  <path fill="#ffffff" d="
  M 681.21 256.79
  L 681.22 269.52
  A 0.62 0.61 -0.5 0 1 680.60 270.14
  L 675.43 270.11
  Q 674.75 270.11 674.75 269.43
  L 674.74 234.28
  Q 674.74 233.69 675.34 233.70
  Q 682.69 233.80 690.23 233.69
  C 695.23 233.62 699.86 235.00 702.02 239.62
  Q 703.34 242.44 702.92 247.08
  C 702.39 252.87 697.42 255.96 691.80 256.13
  Q 686.65 256.29 681.88 256.14
  Q 681.21 256.12 681.21 256.79
  Z
  M 681.19 239.30
  L 681.15 250.42
  A 0.47 0.47 0.0 0 0 681.62 250.89
  L 690.89 250.93
  A 6.10 5.82 0.2 0 0 697.01 245.13
  L 697.01 244.71
  A 6.10 5.82 0.2 0 0 690.93 238.87
  L 681.66 238.83
  A 0.47 0.47 0.0 0 0 681.19 239.30
  Z" />
  <rect fill="#ffffff" x="708.36" y="233.72" width="5.78" height="36.38" rx="0.40"/>
  <rect fill="#ffffff" x="-2.78" y="-2.76" transform="translate(875.27,236.48) rotate(0.1)" width="5.56" height="5.52" rx="0.30"/>
  <path fill="#ffffff" d="
  M 974.94 261.71
  L 984.00 233.97
  A 0.33 0.33 0.0 0 1 984.31 233.74
  L 990.08 233.68
  A 0.33 0.33 0.0 0 1 990.40 234.12
  L 978.18 269.91
  A 0.33 0.33 0.0 0 1 977.86 270.14
  L 971.35 270.08
  A 0.33 0.33 0.0 0 1 971.04 269.86
  L 958.94 234.12
  A 0.33 0.33 0.0 0 1 959.26 233.69
  L 965.40 233.76
  A 0.33 0.33 0.0 0 1 965.71 233.99
  L 974.31 261.71
  A 0.33 0.33 0.0 0 0 974.94 261.71
  Z" />
  <rect fill="#ffffff" x="-2.78" y="-2.77" transform="translate(996.55,236.48) rotate(-0.1)" width="5.56" height="5.54" rx="0.28"/>
  <path fill="#ffffff" d="
  M 817.50 243.73
  L 821.74 243.74
  Q 821.99 243.74 821.99 243.99
  L 822.00 247.67
  Q 822.00 248.09 821.58 248.09
  L 817.43 248.06
  A 0.64 0.64 0.0 0 0 816.79 248.70
  Q 816.80 255.77 816.81 262.89
  C 816.82 266.04 818.87 265.84 821.21 265.67
  Q 822.01 265.60 822.01 266.40
  L 821.99 269.31
  A 0.88 0.88 0.0 0 1 821.16 270.19
  C 816.35 270.44 810.97 270.83 810.99 264.35
  Q 811.01 256.08 811.00 248.49
  Q 811.00 247.93 810.45 247.97
  L 807.17 248.18
  Q 806.62 248.22 806.62 247.67
  L 806.63 244.28
  Q 806.64 243.69 807.22 243.70
  L 810.49 243.76
  A 0.50 0.50 0.0 0 0 811.00 243.26
  L 811.00 236.02
  Q 811.00 235.79 811.23 235.79
  L 816.55 235.81
  Q 816.80 235.81 816.80 236.05
  L 816.77 243.00
  Q 816.77 243.73 817.50 243.73
  Z" />
  <path fill="#ffffff" d="
  M 863.23 243.74
  L 867.49 243.73
  Q 868.00 243.73 868.00 244.24
  L 867.99 247.46
  Q 867.98 248.15 867.29 248.13
  L 863.00 248.01
  A 0.49 0.48 0.6 0 0 862.49 248.50
  L 862.50 263.40
  A 2.35 2.35 0.0 0 0 864.91 265.75
  L 867.41 265.69
  Q 868.00 265.67 868.00 266.27
  L 867.98 269.48
  A 0.69 0.69 0.0 0 1 867.32 270.17
  C 860.67 270.42 856.83 270.69 856.75 262.68
  Q 856.69 255.82 856.76 248.78
  A 0.72 0.72 0.0 0 0 856.03 248.05
  L 852.92 248.09
  A 0.68 0.68 0.0 0 1 852.24 247.42
  L 852.23 244.49
  Q 852.22 243.71 853.01 243.71
  L 856.01 243.73
  Q 856.76 243.74 856.76 242.99
  L 856.73 236.16
  Q 856.73 235.80 857.09 235.80
  L 862.27 235.79
  Q 862.49 235.79 862.49 236.02
  L 862.48 242.98
  Q 862.48 243.74 863.23 243.74
  Z" />
  <path fill="#ffffff" d="
  M 1014.26 243.74
  L 1018.74 243.71
  A 0.29 0.29 0.0 0 1 1019.03 244.00
  L 1019.03 247.82
  Q 1019.03 248.17 1018.68 248.16
  L 1014.19 248.03
  Q 1013.54 248.02 1013.54 248.67
  Q 1013.48 255.74 1013.56 263.01
  C 1013.60 265.69 1016.20 266.21 1018.19 265.60
  Q 1019.04 265.33 1019.04 266.23
  L 1019.05 269.33
  Q 1019.05 270.16 1018.22 270.21
  C 1012.70 270.55 1007.87 270.77 1007.93 263.67
  Q 1008.00 255.85 1007.88 248.64
  Q 1007.87 247.98 1007.22 248.01
  L 1003.84 248.14
  Q 1003.51 248.15 1003.51 247.82
  L 1003.49 244.00
  Q 1003.48 243.73 1003.75 243.73
  L 1007.36 243.74
  Q 1007.95 243.74 1007.95 243.14
  L 1007.95 236.06
  Q 1007.95 235.81 1008.19 235.81
  L 1013.28 235.78
  Q 1013.52 235.78 1013.52 236.03
  L 1013.52 243.01
  Q 1013.52 243.75 1014.26 243.74
  Z" />
  <path fill="#ffffff" d="
  M 736.54 268.32
  C 732.16 271.27 724.55 272.17 720.77 267.68
  C 716.79 262.96 719.87 256.65 725.73 255.54
  Q 729.71 254.79 733.69 254.27
  Q 735.16 254.08 736.53 253.29
  A 1.15 1.14 -5.5 0 0 737.03 252.69
  C 738.89 247.39 731.85 247.13 728.87 248.14
  Q 726.89 248.82 726.19 251.09
  A 0.96 0.96 0.0 0 1 725.27 251.77
  L 720.95 251.78
  Q 720.37 251.79 720.41 251.21
  Q 720.84 245.71 726.29 243.94
  C 730.88 242.45 739.85 242.34 742.16 247.88
  Q 743.06 250.03 742.98 252.74
  Q 742.78 259.32 743.00 265.41
  Q 743.02 265.97 743.55 266.14
  Q 744.25 266.37 744.98 266.19
  A 0.55 0.54 83.2 0 1 745.66 266.73
  L 745.64 269.34
  Q 745.63 270.17 744.82 270.38
  C 742.43 271.00 739.03 271.30 737.74 268.64
  Q 737.33 267.79 736.54 268.32
  Z
  M 736.75 257.23
  Q 732.71 258.06 728.86 258.72
  C 724.46 259.48 723.39 264.84 728.32 265.95
  Q 733.49 267.12 736.63 263.12
  Q 737.02 262.62 737.02 262.00
  L 737.03 257.46
  Q 737.03 257.18 736.75 257.23
  Z" />
  <path fill="#ffffff" d="
  M 842.76 267.96
  Q 837.71 271.86 830.93 270.37
  C 823.47 268.72 823.05 257.46 830.60 255.76
  Q 834.97 254.78 839.31 254.36
  Q 840.28 254.26 841.23 253.90
  C 844.14 252.80 843.36 248.69 840.68 248.02
  C 837.39 247.19 832.93 247.39 831.76 251.26
  Q 831.61 251.79 831.06 251.78
  L 826.69 251.75
  Q 826.02 251.75 826.09 251.07
  C 826.99 242.85 836.89 242.04 843.10 243.86
  C 847.31 245.09 848.49 248.04 848.38 252.14
  Q 848.25 257.58 848.35 263.95
  Q 848.40 266.90 851.32 266.14
  Q 851.48 266.10 851.48 266.27
  L 851.55 269.75
  Q 851.56 270.07 851.25 270.17
  C 848.74 270.98 844.19 271.58 843.30 268.15
  Q 843.17 267.65 842.76 267.96
  Z
  M 832.61 265.45
  Q 836.49 267.15 840.40 265.14
  C 843.24 263.68 842.76 260.48 842.75 257.87
  Q 842.74 257.25 842.13 257.37
  Q 838.27 258.14 834.83 258.66
  Q 830.43 259.33 831.03 263.45
  Q 831.23 264.84 832.61 265.45
  Z" />
  <path fill="#ffffff" d="
  M 910.0164 258.7345
  A 11.90 11.90 0.0 0 1 898.1581 270.6760
  L 895.9181 270.6838
  A 11.90 11.90 0.0 0 1 883.9766 258.8254
  L 883.9636 255.0855
  A 11.90 11.90 0.0 0 1 895.8219 243.1440
  L 898.0619 243.1362
  A 11.90 11.90 0.0 0 1 910.0034 254.9946
  L 910.0164 258.7345
  Z
  M 896.9500 266.3500
  A 9.44 7.55 90.0 0 0 904.5000 256.9100
  A 9.44 7.55 90.0 0 0 896.9500 247.4700
  A 9.44 7.55 90.0 0 0 889.4000 256.9100
  A 9.44 7.55 90.0 0 0 896.9500 266.3500
  Z" />
  <path fill="#ffffff" d="
  M 921.27 247.22
  C 922.16 246.47 922.69 245.40 923.65 244.72
  C 927.71 241.83 934.92 242.57 937.51 247.32
  Q 938.64 249.40 938.61 252.33
  Q 938.49 261.61 938.60 269.78
  A 0.34 0.33 90.0 0 1 938.27 270.12
  L 932.99 270.13
  A 0.38 0.38 0.0 0 1 932.61 269.75
  Q 932.68 261.66 932.60 253.29
  Q 932.55 248.01 928.11 247.65
  C 923.66 247.29 920.97 251.05 920.98 255.13
  Q 921.02 262.52 921.00 269.81
  Q 920.99 270.14 920.67 270.14
  L 915.67 270.10
  Q 915.25 270.10 915.25 269.67
  L 915.24 244.62
  Q 915.24 243.74 916.13 243.74
  L 920.16 243.73
  Q 920.84 243.73 920.83 244.41
  L 920.77 246.98
  Q 920.75 247.67 921.27 247.22
  Z" />
  <path fill="#ffffff" d="
  M 1039.51 267.89
  C 1035.03 271.90 1023.21 272.59 1022.08 264.34
  C 1020.77 254.84 1030.80 255.08 1037.18 254.16
  C 1038.78 253.93 1040.69 251.88 1039.66 250.09
  C 1039.18 249.26 1038.74 248.46 1037.77 248.14
  C 1035.01 247.21 1029.31 247.35 1028.95 251.14
  Q 1028.88 251.79 1028.23 251.78
  L 1023.29 251.75
  A 0.60 0.60 0.0 0 1 1022.70 251.02
  C 1024.47 242.85 1033.80 241.87 1040.34 243.98
  Q 1043.60 245.04 1044.78 247.66
  Q 1045.56 249.41 1045.50 252.01
  Q 1045.36 258.71 1045.49 265.29
  Q 1045.50 265.73 1045.87 265.96
  Q 1046.69 266.50 1048.05 266.18
  A 0.15 0.14 82.8 0 1 1048.23 266.33
  L 1048.24 269.76
  Q 1048.24 270.06 1047.96 270.16
  Q 1044.69 271.35 1041.77 270.27
  A 1.52 1.46 85.8 0 1 1040.95 269.53
  L 1040.21 268.03
  Q 1039.95 267.50 1039.51 267.89
  Z
  M 1039.13 257.28
  Q 1035.13 258.14 1031.02 258.83
  C 1028.74 259.22 1026.14 262.69 1028.57 264.67
  Q 1031.97 267.44 1036.64 265.40
  C 1040.06 263.92 1039.41 260.38 1039.25 257.37
  A 0.10 0.09 -7.2 0 0 1039.13 257.28
  Z" />
  <path fill="#ffffff" d="
  M 759.23 262.20
  Q 759.64 263.36 760.11 262.23
  C 761.78 258.15 762.64 253.88 764.27 249.87
  Q 765.30 247.34 765.86 244.61
  A 1.09 1.08 -84.1 0 1 766.92 243.74
  L 771.96 243.71
  Q 772.49 243.71 772.30 244.21
  Q 767.56 256.82 762.28 271.20
  C 759.73 278.15 757.70 281.65 749.70 280.32
  Q 748.92 280.19 748.92 279.40
  L 748.93 276.21
  Q 748.94 275.29 749.83 275.49
  C 754.42 276.53 755.14 273.98 756.17 270.45
  Q 756.33 269.91 756.13 269.40
  L 746.40 244.03
  A 0.21 0.20 79.2 0 1 746.59 243.75
  L 752.51 243.71
  Q 752.71 243.71 752.78 243.90
  L 759.23 262.20
  Z" />
  <rect fill="#ffffff" x="872.50" y="243.72" width="5.56" height="26.40" rx="0.38"/>
  <rect fill="#ffffff" x="993.77" y="243.73" width="5.56" height="26.40" rx="0.28"/>
  <path fill="#ffffff" d="
  M 950.3113 270.5232
  A 8.44 8.26 92.3 0 1 942.3967 261.7585
  A 8.44 8.26 92.3 0 1 950.9887 253.6568
  A 8.44 8.26 92.3 0 1 958.9033 262.4215
  A 8.44 8.26 92.3 0 1 950.3113 270.5232
  Z
  M 950.5630 269.0393
  A 6.95 6.43 90.8 0 0 957.0894 262.1798
  A 6.95 6.43 90.8 0 0 950.7570 255.1407
  A 6.95 6.43 90.8 0 0 944.2306 262.0002
  A 6.95 6.43 90.8 0 0 950.5630 269.0393
  Z" />
  <path fill="#ffffff" d="
  M 948.99 264.55
  L 948.99 266.48
  A 0.49 0.48 -86.4 0 1 948.45 266.97
  L 948.10 266.92
  Q 947.58 266.85 947.58 266.33
  L 947.61 258.03
  Q 947.61 257.72 947.93 257.67
  C 950.20 257.35 955.36 257.16 954.62 260.84
  C 954.40 261.94 953.70 262.32 952.76 262.70
  Q 952.05 262.99 952.49 263.62
  L 954.45 266.42
  A 0.33 0.33 0.0 0 1 954.27 266.92
  L 953.96 267.02
  A 0.89 0.89 0.0 0 1 952.98 266.68
  L 951.03 263.91
  Q 948.99 261.01 948.99 264.55
  Z
  M 948.97 259.32
  L 948.99 261.24
  A 0.39 0.39 0.0 0 0 949.38 261.63
  L 951.13 261.61
  A 1.80 1.18 -0.6 0 0 952.92 260.41
  L 952.92 260.07
  A 1.80 1.18 -0.6 0 0 951.11 258.91
  L 949.36 258.93
  A 0.39 0.39 0.0 0 0 948.97 259.32
  Z" />
</svg>
