<?xml version="1.0" encoding="UTF-8" standalone="no"?>
<!DOCTYPE svg PUBLIC "-//W3C//DTD SVG 1.1//EN" "http://www.w3.org/Graphics/SVG/1.1/DTD/svg11.dtd">
<svg xmlns="http://www.w3.org/2000/svg" version="1.1" viewBox="0.00 0.00 561.00 112.00">
<g stroke-width="2.00" fill="none" stroke-linecap="butt">
<path stroke="#efefef" stroke-opacity="0.533" vector-effect="non-scaling-stroke" d="
  M 173.54 18.49
  L 172.18 22.01"
/>
<path stroke="#cecece" stroke-opacity="0.620" vector-effect="non-scaling-stroke" d="
  M 172.18 22.01
  Q 170.04 24.07 167.97 25.96
  C 166.17 27.60 161.74 27.03 159.35 27.06
  Q 157.25 27.08 155.23 25.24
  Q 149.05 19.60 151.33 11.30"
/>
<path stroke="#efefef" stroke-opacity="0.533" vector-effect="non-scaling-stroke" d="
  M 151.33 11.30
  Q 151.13 11.35 151.51 10.73"
/>
<path stroke="#efefef" stroke-opacity="0.533" vector-effect="non-scaling-stroke" d="
  M 207.10 26.86
  L 205.59 27.08"
/>
<path stroke="#cecece" stroke-opacity="0.620" vector-effect="non-scaling-stroke" d="
  M 205.59 27.08
  Q 202.67 27.16 199.87 27.06
  C 196.31 26.93 194.16 24.27 192.12 21.66
  Q 191.00 20.23 190.93 18.12
  C 190.82 14.92 190.76 12.02 192.47 9.27"
/>
<path stroke="#efefef" stroke-opacity="0.533" vector-effect="non-scaling-stroke" d="
  M 192.47 9.27
  L 193.60 7.99"
/>
<path stroke="#17aad6" stroke-opacity="0.533" vector-effect="non-scaling-stroke" d="
  M 298.48 7.43
  L 295.11 7.67"
/>
<path stroke="#17aad6" stroke-opacity="0.533" vector-effect="non-scaling-stroke" d="
  M 263.15 80.92
  Q 260.30 76.52 261.81 68.75
  Q 262.88 63.27 265.90 46.25"
/>
<path stroke="#1492b8" stroke-opacity="0.620" vector-effect="non-scaling-stroke" d="
  M 263.15 80.92
  Q 267.12 82.29 268.75 82.06
  C 276.27 81.01 279.76 75.51 280.87 68.48
  C 283.20 53.85 285.92 39.29 288.53 24.61
  Q 288.68 23.78 288.58 22.90
  C 288.42 21.55 289.09 20.98 289.39 19.77
  Q 290.69 14.55 290.93 9.02
  Q 290.97 8.24 291.74 8.13
  L 295.11 7.67"
/>
<path stroke="#1492b8" stroke-opacity="0.620" vector-effect="non-scaling-stroke" d="
  M 304.15 55.66
  L 303.23 60.70"
/>
<path stroke="#1492b8" stroke-opacity="0.620" vector-effect="non-scaling-stroke" d="
  M 305.01 81.03
  Q 312.30 84.19 317.01 78.51
  Q 318.96 76.16 319.47 73.99
  Q 320.92 67.93 323.06 55.54
  Q 327.37 30.59 331.46 8.34
  Q 331.54 7.91 331.95 7.76
  Q 332.45 7.58 333.33 7.63"
/>
<path stroke="#1492b8" stroke-opacity="0.620" vector-effect="non-scaling-stroke" d="
  M 345.11 49.42
  Q 342.85 61.71 340.75 74.00
  Q 339.94 78.75 335.66 86.42"
/>
<path stroke="#1492b8" stroke-opacity="0.620" vector-effect="non-scaling-stroke" d="
  M 335.14 87.02
  Q 329.00 96.92 318.61 101.23
  Q 315.44 102.55 313.39 102.66
  Q 308.48 102.93 299.95 102.82
  Q 296.30 102.77 293.52 101.40
  Q 289.94 99.63 286.85 96.80
  A 1.19 1.19 0.0 0 0 285.28 96.76
  Q 279.84 101.29 274.29 102.41
  C 269.24 103.42 262.96 102.72 257.57 102.69
  C 256.07 102.68 254.88 102.16 253.51 101.71
  C 247.95 99.89 243.34 94.08 241.67 88.94
  Q 240.52 85.42 239.95 81.20
  C 239.23 75.80 240.87 70.09 241.62 64.74
  Q 242.09 61.43 242.68 58.15
  L 251.32 9.53"
/>
<path stroke="#17aad6" stroke-opacity="0.533" vector-effect="non-scaling-stroke" d="
  M 334.29 7.57
  L 333.33 7.63"
/>
<path stroke="#17aad6" stroke-opacity="0.533" vector-effect="non-scaling-stroke" d="
  M 305.01 81.03
  Q 303.64 80.21 302.70 78.52
  C 301.33 76.07 300.83 74.04 301.34 71.10
  Q 302.26 65.89 303.23 60.70"
/>
<path stroke="#17aad6" stroke-opacity="0.533" vector-effect="non-scaling-stroke" d="
  M 252.20 7.22
  L 251.32 9.53"
/>
<path stroke="#17aad6" stroke-opacity="0.533" vector-effect="non-scaling-stroke" d="
  M 335.14 87.02
  Q 335.44 86.79 335.66 86.42"
/>
<path stroke="#17aad6" stroke-opacity="0.533" vector-effect="non-scaling-stroke" d="
  M 345.11 49.42
  Q 345.22 48.76 345.47 48.45"
/>
<path stroke="#17aad6" stroke-opacity="0.533" vector-effect="non-scaling-stroke" d="
  M 391.44 29.37
  Q 384.37 29.54 378.05 31.87"
/>
<path stroke="#17aad6" stroke-opacity="0.533" vector-effect="non-scaling-stroke" d="
  M 367.04 37.95
  Q 366.88 37.50 366.77 38.02"
/>
<path stroke="#17aad6" stroke-opacity="0.533" vector-effect="non-scaling-stroke" d="
  M 385.03 102.07
  Q 387.98 101.43 389.00 97.50
  Q 391.04 89.63 391.88 81.46
  Q 391.98 80.49 391.02 80.64
  L 388.28 81.05"
/>
<path stroke="#17aad6" stroke-opacity="0.533" vector-effect="non-scaling-stroke" d="
  M 395.14 87.87
  L 393.23 98.38"
/>
<path stroke="#17aad6" stroke-opacity="0.533" vector-effect="non-scaling-stroke" d="
  M 416.37 94.20
  L 416.82 91.82"
/>
<path stroke="#17aad6" stroke-opacity="0.533" vector-effect="non-scaling-stroke" d="
  M 417.45 88.23
  Q 419.30 76.01 421.68 63.75
  Q 423.50 54.34 420.28 45.14"
/>
<path stroke="#17aad6" stroke-opacity="0.533" vector-effect="non-scaling-stroke" d="
  M 441.50 29.61
  L 437.37 29.93"
/>
<path stroke="#17aad6" stroke-opacity="0.533" vector-effect="non-scaling-stroke" d="
  M 444.82 102.16
  L 445.81 100.97"
/>
<path stroke="#1492b8" stroke-opacity="0.620" vector-effect="non-scaling-stroke" d="
  M 417.45 88.23
  L 416.82 91.82"
/>
<path stroke="#1492b8" stroke-opacity="0.620" vector-effect="non-scaling-stroke" d="
  M 416.37 94.20
  L 414.87 100.73
  A 1.03 1.02 1.7 0 1 414.03 101.52
  Q 406.82 102.65 400.63 101.95
  Q 397.82 101.63 394.83 102.15
  A 1.26 1.25 -6.1 0 1 393.36 100.97
  L 393.23 98.38"
/>
<path stroke="#1492b8" stroke-opacity="0.620" vector-effect="non-scaling-stroke" d="
  M 395.14 87.87
  Q 397.44 77.94 399.09 67.97
  Q 399.84 63.42 399.56 58.95
  C 399.29 54.76 398.30 52.67 394.35 51.10
  Q 387.27 48.29 381.39 52.16
  Q 375.24 56.21 373.24 61.56"
/>
<path stroke="#17aad6" stroke-opacity="0.533" vector-effect="non-scaling-stroke" d="
  M 372.08 65.02
  Q 370.88 68.47 371.44 74.00
  Q 371.87 78.26 375.29 79.75"
/>
<path stroke="#1492b8" stroke-opacity="0.620" vector-effect="non-scaling-stroke" d="
  M 378.44 81.04
  Q 383.27 83.00 388.28 81.05"
/>
<path stroke="#1492b8" stroke-opacity="0.620" vector-effect="non-scaling-stroke" d="
  M 385.03 102.07
  Q 382.48 102.55 380.49 102.62
  Q 374.63 102.82 369.45 102.77
  Q 366.27 102.73 363.54 101.34
  Q 354.08 96.49 350.65 86.30
  Q 349.29 82.25 349.11 76.75
  Q 348.87 69.83 349.34 67.37
  Q 352.74 49.47 366.77 38.02"
/>
<path stroke="#1492b8" stroke-opacity="0.620" vector-effect="non-scaling-stroke" d="
  M 367.04 37.95
  Q 372.17 34.06 378.05 31.87"
/>
<path stroke="#1492b8" stroke-opacity="0.620" vector-effect="non-scaling-stroke" d="
  M 484.68 49.89
  L 483.51 54.14
  Q 483.37 54.65 482.84 54.64
  Q 471.24 54.40 468.00 54.54
  C 460.63 54.87 453.90 58.21 452.31 65.82"
/>
<path stroke="#17aad6" stroke-opacity="0.533" vector-effect="non-scaling-stroke" d="
  M 452.31 65.82
  L 451.52 69.84"
/>
<path stroke="#1492b8" stroke-opacity="0.620" vector-effect="non-scaling-stroke" d="
  M 444.82 102.16
  L 424.82 102.18
  Q 424.00 102.18 424.10 101.37
  Q 425.47 90.33 427.53 80.01
  Q 432.07 57.30 434.90 40.88
  Q 435.53 37.23 437.37 29.93"
/>
<path stroke="#17aad6" stroke-opacity="0.533" vector-effect="non-scaling-stroke" d="
  M 486.07 42.17
  L 486.72 35.51"
/>
<path stroke="#17aad6" stroke-opacity="0.533" vector-effect="non-scaling-stroke" d="
  M 554.57 74.34
  L 551.32 74.13"
/>
<path stroke="#1492b8" stroke-opacity="0.620" vector-effect="non-scaling-stroke" d="
  M 551.32 74.13
  L 510.29 73.89"
/>
<path stroke="#17aad6" stroke-opacity="0.533" vector-effect="non-scaling-stroke" d="
  M 510.29 73.89
  L 512.94 59.37
  Q 513.02 58.90 513.48 58.77
  L 514.61 58.45"
/>
<path stroke="#1492b8" stroke-opacity="0.620" vector-effect="non-scaling-stroke" d="
  M 514.61 58.45
  L 535.25 58.36
  A 0.70 0.70 0.0 0 0 535.95 57.63
  C 535.81 54.12 535.13 49.39 531.38 47.81
  Q 523.54 44.49 515.72 48.51
  Q 513.18 49.82 509.89 55.26"
/>
<path stroke="#17aad6" stroke-opacity="0.533" vector-effect="non-scaling-stroke" d="
  M 509.89 55.26
  C 505.26 63.54 501.83 80.22 512.97 85.23
  C 516.38 86.77 521.54 86.60 524.94 85.41
  Q 529.81 83.69 534.62 78.76
  A 1.66 1.66 0.0 0 1 536.86 78.63
  L 543.69 84.14"
/>
<path stroke="#17aad6" stroke-opacity="0.533" vector-effect="non-scaling-stroke" d="
  M 547.03 92.36
  L 545.22 93.90"
/>
<path stroke="#1492b8" stroke-opacity="0.620" vector-effect="non-scaling-stroke" d="
  M 545.22 93.90
  C 538.84 98.96 530.44 102.99 522.30 102.86
  Q 516.42 102.76 509.42 102.81
  Q 505.62 102.83 502.22 101.30
  C 494.72 97.94 488.03 92.82 485.57 84.99
  C 483.83 79.47 482.95 73.38 484.01 67.69
  Q 484.30 66.10 484.55 64.51
  Q 484.82 62.82 485.29 61.23
  Q 490.84 42.59 508.12 33.61
  Q 510.21 32.53 516.58 30.81"
/>
<path stroke="#cecece" stroke-opacity="0.620" vector-effect="non-scaling-stroke" d="
  M 73.84 8.80
  C 67.06 9.70 63.17 15.02 61.72 20.75
  Q 55.99 43.45 49.83 66.08"
/>
<path stroke="#efefef" stroke-opacity="0.533" vector-effect="non-scaling-stroke" d="
  M 97.77 54.13
  L 103.83 75.02
  Q 103.98 75.53 104.10 75.01
  L 106.13 66.25"
/>
<path stroke="#cecece" stroke-opacity="0.620" vector-effect="non-scaling-stroke" d="
  M 106.13 66.25
  L 120.52 10.14"
/>
<path stroke="#efefef" stroke-opacity="0.533" vector-effect="non-scaling-stroke" d="
  M 120.52 10.14
  L 120.76 9.47"
/>
<path stroke="#efefef" stroke-opacity="0.533" vector-effect="non-scaling-stroke" d="
  M 116.76 97.03
  L 115.74 98.41"
/>
<path stroke="#cecece" stroke-opacity="0.620" vector-effect="non-scaling-stroke" d="
  M 115.74 98.41
  Q 112.28 102.46 108.75 103.43
  C 101.59 105.40 93.37 101.42 90.82 93.93
  Q 89.61 90.37 88.49 86.22
  Q 84.00 69.52 79.31 52.33
  Q 78.84 50.58 78.14 48.81
  C 77.19 46.38 77.07 43.87 76.17 41.50
  Q 75.55 39.88 75.05 41.54
  L 71.44 53.64"
/>
<path stroke="#efefef" stroke-opacity="0.533" vector-effect="non-scaling-stroke" d="
  M 71.44 53.64
  L 69.28 62.09"
/>
<path stroke="#efefef" stroke-opacity="0.533" vector-effect="non-scaling-stroke" d="
  M 60.18 94.74
  L 55.83 100.48"
/>
<path stroke="#cecece" stroke-opacity="0.620" vector-effect="non-scaling-stroke" d="
  M 55.83 100.48
  Q 52.56 103.15 51.12 103.41
  Q 40.71 105.30 35.20 98.57
  Q 32.77 95.61 30.38 87.06
  Q 21.62 55.77 12.46 23.28
  Q 10.85 17.56 9.42 12.44"
/>
<path stroke="#efefef" stroke-opacity="0.533" vector-effect="non-scaling-stroke" d="
  M 9.42 12.44
  L 9.02 9.43"
/>
<path stroke="#efefef" stroke-opacity="0.533" vector-effect="non-scaling-stroke" d="
  M 42.23 56.70
  L 46.76 73.90
  A 0.50 0.49 76.9 0 0 47.33 74.26
  Q 47.61 74.20 47.81 73.96
  Q 47.95 73.80 47.98 73.48
  Q 48.33 69.59 49.83 66.08"
/>
<path stroke="#efefef" stroke-opacity="0.533" vector-effect="non-scaling-stroke" d="
  M 200.08 37.83
  Q 198.96 38.00 196.00 37.76
  Q 194.29 37.62 191.60 38.79"
/>
<path stroke="#efefef" stroke-opacity="0.533" vector-effect="non-scaling-stroke" d="
  M 199.23 103.69
  L 205.28 103.78"
/>
<path stroke="#cecece" stroke-opacity="0.620" vector-effect="non-scaling-stroke" d="
  M 199.23 103.69
  L 192.08 103.45
  Q 191.57 103.43 191.57 102.92
  L 191.60 38.79"
/>
<path stroke="#efefef" stroke-opacity="0.533" vector-effect="non-scaling-stroke" d="
  M 154.62 37.77
  Q 152.26 37.99 151.71 38.71"
/>
<path stroke="#efefef" stroke-opacity="0.533" vector-effect="non-scaling-stroke" d="
  M 151.72 40.81
  Q 151.99 41.25 151.81 42.20"
/>
<path stroke="#efefef" stroke-opacity="0.533" vector-effect="non-scaling-stroke" d="
  M 151.48 100.93
  L 151.55 103.16
  Q 151.56 103.67 152.07 103.68
  L 163.68 103.88"
/>
<path stroke="#cecece" stroke-opacity="0.620" vector-effect="non-scaling-stroke" d="
  M 151.48 100.93
  L 151.81 42.20"
/>
<path stroke="#cecece" stroke-opacity="0.620" vector-effect="non-scaling-stroke" d="
  M 151.72 40.81
  Q 152.09 39.82 151.71 38.71"
/>
</g>
<path fill="#ffffff" d="
  M 173.54 18.49
  L 172.18 22.01
  Q 170.04 24.07 167.97 25.96
  C 166.17 27.60 161.74 27.03 159.35 27.06
  Q 157.25 27.08 155.23 25.24
  Q 149.05 19.60 151.33 11.30
  Q 151.13 11.35 151.51 10.73
  C 154.61 4.63 162.25 1.87 168.12 5.70
  Q 170.42 7.19 172.26 9.59
  C 174.10 11.97 173.54 15.56 173.54 18.49
  Z"
/>
<path fill="#ffffff" d="
  M 207.10 26.86
  L 205.59 27.08
  Q 202.67 27.16 199.87 27.06
  C 196.31 26.93 194.16 24.27 192.12 21.66
  Q 191.00 20.23 190.93 18.12
  C 190.82 14.92 190.76 12.02 192.47 9.27
  L 193.60 7.99
  C 195.24 6.16 197.51 4.05 200.07 4.19
  C 202.19 4.30 204.52 3.96 206.51 4.76
  Q 213.11 7.44 213.91 14.90
  C 214.50 20.43 211.27 23.84 207.10 26.86
  Z"
/>
<path fill="#000000" fill-opacity="0.067" d="
  M 298.48 7.43
  L 295.11 7.67
  Q 292.54 6.86 290.53 7.89
  Q 290.10 8.11 290.11 8.59
  Q 290.14 9.86 288.92 9.88
  Q 288.41 9.89 288.17 10.34
  Q 286.43 13.65 286.13 17.11
  Q 285.99 18.75 285.43 21.44
  Q 282.85 33.78 280.95 46.00
  Q 280.60 48.26 280.12 50.48
  Q 279.64 52.72 279.46 54.97
  Q 279.29 57.21 278.72 59.70
  Q 278.69 59.82 278.60 59.89
  Q 278.51 59.98 278.41 60.07
  Q 278.17 60.27 278.16 60.57
  C 278.09 62.17 277.54 63.64 277.61 65.26
  Q 277.71 67.27 277.04 69.04
  Q 276.87 69.49 276.92 69.97
  Q 277.01 71.01 276.30 72.14
  Q 275.68 73.12 275.20 75.52
  Q 275.10 76.00 274.72 76.32
  Q 273.16 77.61 272.14 79.41
  Q 271.80 80.01 271.16 80.24
  L 268.01 81.37
  Q 267.43 81.58 266.86 81.33
  Q 265.52 80.74 263.15 80.92
  Q 260.30 76.52 261.81 68.75
  Q 262.88 63.27 265.90 46.25
  Q 266.90 46.82 267.38 46.16
  Q 267.72 45.70 268.07 46.16
  C 269.29 47.75 268.24 48.81 268.13 50.37
  Q 267.94 52.97 267.37 55.76
  Q 267.12 56.98 267.11 58.08
  Q 267.10 59.60 265.98 60.92
  Q 265.70 61.26 265.65 61.70
  C 265.54 62.90 265.85 64.07 265.29 65.19
  C 263.61 68.56 263.99 73.72 264.16 77.27
  Q 264.18 77.77 264.67 77.90
  Q 266.28 78.32 268.00 78.09
  Q 268.50 78.02 268.86 77.66
  Q 270.57 75.92 271.38 73.71
  A 0.55 0.54 15.4 0 1 271.99 73.37
  Q 272.28 73.43 272.47 73.21
  Q 272.67 72.98 272.69 72.68
  Q 272.91 68.15 274.00 63.81
  Q 274.40 62.21 274.50 60.63
  Q 274.61 58.96 274.95 57.34
  Q 275.91 52.74 276.67 47.80
  Q 277.18 44.47 277.82 41.17
  Q 280.61 26.95 283.10 11.51
  C 283.28 10.36 283.96 9.98 284.17 8.84
  C 284.46 7.26 285.98 6.13 287.55 6.15
  Q 290.21 6.18 293.24 5.86
  Q 296.36 5.54 298.48 7.43
  Z"
/>
<path fill="#000000" fill-opacity="0.067" d="
  M 193.60 7.99
  L 192.47 9.27
  Q 191.70 10.32 190.23 9.96
  Q 189.47 9.78 189.42 10.56
  Q 189.38 11.28 188.66 11.63
  A 1.48 1.48 0.0 0 0 187.86 12.58
  Q 186.72 16.69 187.20 20.37
  Q 187.66 23.89 190.99 27.00
  C 192.02 27.97 193.13 27.98 194.22 28.87
  Q 194.59 29.17 195.06 29.15
  Q 195.84 29.12 196.46 29.64
  Q 196.84 29.95 197.33 29.93
  Q 201.70 29.76 205.59 27.08
  L 207.10 26.86
  Q 206.43 27.74 206.48 27.83
  A 1.37 1.37 0.0 0 1 205.67 29.87
  Q 202.80 30.63 200.09 31.68
  Q 197.77 32.57 196.27 32.52
  Q 194.23 32.46 192.41 31.31
  Q 190.17 29.88 187.99 28.22
  Q 187.87 28.13 187.99 28.04
  Q 188.04 28.01 188.07 27.98
  Q 188.12 27.91 188.06 27.85
  Q 182.08 21.36 185.16 12.61
  Q 185.83 10.70 188.73 6.93
  A 0.74 0.72 27.2 0 1 189.54 6.68
  L 193.60 7.99
  Z"
/>
<path fill="#000000" fill-opacity="0.067" d="
  M 334.29 7.57
  L 333.33 7.63
  Q 332.22 7.32 331.32 7.63
  Q 330.84 7.79 330.86 8.30
  Q 330.90 9.44 330.21 10.07
  C 329.34 10.86 328.77 11.58 328.03 12.40
  Q 327.36 13.14 327.16 14.07
  Q 326.42 17.39 325.77 20.66
  C 325.54 21.83 325.78 22.99 325.37 24.08
  Q 324.94 25.23 324.81 26.48
  C 324.39 30.63 323.20 34.69 322.57 38.88
  Q 322.24 41.04 321.75 43.12
  Q 321.00 46.24 320.60 49.46
  Q 319.48 58.38 317.79 66.01
  Q 317.04 69.39 316.89 72.19
  Q 316.87 72.58 316.67 72.92
  Q 316.16 73.77 316.14 74.79
  Q 316.13 75.31 315.88 75.75
  L 314.31 78.48
  Q 314.16 78.75 314.16 79.06
  Q 314.17 79.65 313.47 79.72
  Q 311.51 81.27 309.05 81.74
  Q 308.56 81.83 308.16 81.53
  Q 306.56 80.32 305.01 81.03
  Q 303.64 80.21 302.70 78.52
  C 301.33 76.07 300.83 74.04 301.34 71.10
  Q 302.26 65.89 303.23 60.70
  Q 303.58 60.69 303.65 60.37
  Q 303.82 62.89 303.37 65.20
  Q 302.68 68.74 302.64 69.90
  Q 302.56 72.68 302.58 75.88
  Q 302.59 76.46 303.14 76.63
  Q 304.12 76.93 304.04 77.96
  A 0.66 0.65 15.8 0 0 304.40 78.59
  Q 304.90 78.84 304.96 78.49
  Q 305.05 78.01 305.46 78.27
  Q 306.06 78.65 305.87 78.80
  Q 305.21 79.33 306.05 79.45
  Q 306.44 79.51 306.80 79.60
  Q 307.30 79.72 307.70 79.39
  C 308.65 78.58 309.78 78.78 310.72 77.81
  Q 311.72 76.77 311.63 75.25
  A 0.04 0.04 0.0 0 1 311.70 75.23
  Q 311.78 75.40 311.97 75.37
  Q 312.04 75.35 312.07 75.28
  Q 313.74 71.17 314.33 66.97
  Q 315.19 60.86 316.29 55.38
  Q 317.32 50.23 318.20 45.07
  Q 319.05 40.05 319.99 34.77
  Q 320.30 33.02 320.90 31.34
  Q 321.35 30.06 321.30 28.64
  Q 321.25 27.24 321.54 25.82
  Q 322.86 19.38 323.82 13.71
  Q 324.36 10.48 326.92 7.98
  Q 328.21 6.72 329.92 6.61
  C 331.26 6.52 333.46 6.38 334.29 7.57
  Z"
/>
<path fill="#000000" fill-opacity="0.067" d="
  M 252.20 7.22
  L 251.32 9.53
  Q 248.86 10.66 247.96 12.74
  Q 246.97 15.02 245.70 23.67
  Q 245.39 25.78 244.84 27.74
  Q 244.28 29.75 244.14 31.79
  Q 243.93 34.72 243.29 37.66
  Q 240.75 49.42 239.22 60.42
  Q 238.91 62.58 238.44 64.76
  Q 238.00 66.78 237.84 68.76
  Q 237.66 70.79 237.20 72.74
  Q 235.86 78.38 236.77 85.61
  Q 236.95 87.07 237.02 88.51
  Q 237.10 90.10 237.58 91.22
  Q 239.93 96.78 243.61 100.56
  Q 246.34 103.36 250.00 104.51
  Q 254.08 105.79 257.95 106.03
  Q 263.51 106.37 269.01 105.96
  Q 271.78 105.76 274.49 104.65
  Q 277.17 103.56 279.91 102.73
  C 280.57 102.53 280.59 102.34 281.08 101.96
  Q 281.47 101.65 281.97 101.61
  Q 284.64 101.36 286.65 102.49
  Q 289.73 104.21 293.11 105.20
  Q 295.97 106.03 299.92 105.96
  Q 303.53 105.89 306.67 105.81
  Q 311.21 105.70 318.14 103.84
  Q 318.57 103.72 318.87 103.39
  Q 320.57 101.51 322.69 101.14
  Q 323.10 101.06 323.14 100.65
  Q 323.22 99.89 324.00 99.92
  Q 324.44 99.94 324.71 99.59
  Q 326.13 97.84 328.76 96.39
  Q 328.93 96.30 328.99 96.11
  Q 329.37 94.82 330.58 94.10
  Q 331.02 93.84 331.28 93.41
  Q 332.72 90.98 334.75 89.26
  A 1.10 1.10 0.0 0 0 335.14 88.42
  L 335.14 87.02
  Q 335.44 86.79 335.66 86.42
  Q 337.51 84.89 338.47 82.71
  Q 338.70 82.19 338.60 81.64
  Q 338.43 80.62 339.31 80.17
  Q 339.98 79.84 339.86 79.10
  Q 339.67 77.88 340.47 77.09
  Q 341.07 76.50 340.89 75.68
  Q 340.45 73.73 341.76 72.81
  Q 342.13 72.55 342.13 72.11
  L 342.13 71.32
  Q 342.13 70.89 342.46 70.62
  Q 343.25 69.97 343.21 68.98
  Q 343.16 67.73 343.12 66.37
  Q 343.10 65.95 343.37 65.62
  Q 343.49 65.48 343.67 65.41
  Q 344.17 65.24 344.16 64.71
  Q 344.10 62.01 344.13 59.28
  Q 344.14 59.01 344.25 58.77
  Q 344.37 58.49 344.56 58.25
  Q 344.88 57.83 344.90 57.29
  L 345.11 49.42
  Q 345.22 48.76 345.47 48.45
  Q 346.62 49.36 346.20 50.86
  Q 346.06 51.37 346.24 51.85
  Q 346.56 52.70 347.50 52.88
  A 1.05 1.04 -73.0 0 0 348.67 52.25
  Q 349.83 49.38 352.05 47.26
  C 352.70 46.64 352.83 45.74 353.41 45.08
  Q 356.15 41.93 359.31 39.03
  Q 359.45 38.90 359.65 38.89
  A 0.46 0.44 21.6 0 0 359.97 38.76
  Q 364.21 34.54 368.77 32.56
  Q 371.23 31.49 373.72 30.20
  Q 374.14 29.97 374.62 30.02
  L 378.92 30.44
  Q 379.42 30.49 379.87 30.25
  Q 381.60 29.32 383.48 29.66
  Q 384.05 29.76 384.45 29.30
  Q 384.81 28.89 385.36 28.80
  Q 388.68 28.30 391.44 29.37
  Q 384.37 29.54 378.05 31.87
  L 375.02 32.09
  Q 374.78 32.10 374.85 32.33
  Q 374.90 32.48 374.83 32.62
  Q 374.77 32.76 374.64 32.83
  Q 374.49 32.91 374.33 32.87
  Q 374.00 32.79 373.71 32.96
  Q 370.52 34.75 367.27 36.84
  Q 366.72 37.19 367.04 37.95
  Q 366.88 37.50 366.77 38.02
  Q 365.90 37.93 365.63 38.13
  Q 363.91 39.41 362.13 40.56
  Q 361.73 40.82 361.54 41.26
  Q 361.32 41.79 360.62 42.13
  Q 359.22 42.82 357.75 44.79
  Q 356.86 45.99 355.87 47.00
  Q 354.82 48.09 354.13 49.34
  Q 352.54 52.25 350.69 55.20
  Q 349.06 57.79 348.13 61.07
  Q 346.28 67.60 345.92 72.74
  Q 345.42 79.92 346.89 86.35
  Q 347.88 90.70 350.44 94.15
  Q 351.31 95.33 352.19 96.51
  Q 353.06 97.69 354.16 98.64
  Q 355.33 99.65 356.29 100.73
  Q 356.52 100.99 356.86 101.09
  Q 357.01 101.13 357.15 101.18
  Q 357.52 101.32 357.76 101.61
  Q 359.22 103.39 361.00 103.81
  Q 362.76 104.23 364.50 104.65
  Q 366.32 105.08 368.05 105.13
  Q 375.62 105.38 381.01 104.42
  Q 383.70 103.95 385.03 102.07
  Q 387.98 101.43 389.00 97.50
  Q 391.04 89.63 391.88 81.46
  Q 391.98 80.49 391.02 80.64
  L 388.28 81.05
  L 383.54 80.70
  L 391.88 79.53
  Q 392.36 79.46 392.44 78.99
  Q 393.23 74.23 394.14 70.05
  Q 394.98 66.20 394.35 60.77
  Q 394.20 59.51 393.64 58.31
  Q 393.09 57.15 392.51 55.94
  Q 393.96 56.61 394.35 58.00
  Q 395.52 62.12 395.31 65.75
  Q 394.95 72.18 393.81 78.41
  A 1.81 1.80 -72.3 0 0 394.81 80.37
  Q 396.37 81.11 395.76 83.01
  Q 394.77 86.07 395.14 87.87
  L 393.23 98.38
  Q 391.78 98.67 390.92 99.22
  Q 390.48 99.51 390.41 100.02
  Q 390.16 101.77 392.08 101.88
  Q 392.41 101.90 392.34 102.22
  Q 392.22 102.79 392.71 103.11
  C 395.76 105.06 400.29 104.30 403.83 104.44
  C 406.59 104.55 408.87 103.75 411.43 103.07
  Q 411.92 102.94 412.27 102.56
  Q 413.07 101.72 414.26 101.69
  A 1.47 1.46 -7.5 0 0 415.64 99.90
  Q 415.36 98.68 416.10 97.79
  Q 416.38 97.46 416.38 97.02
  L 416.37 94.20
  L 416.82 91.82
  Q 418.14 90.92 417.45 88.23
  Q 419.30 76.01 421.68 63.75
  Q 423.50 54.34 420.28 45.14
  Q 421.08 45.42 421.69 46.32
  A 1.81 1.79 -61.1 0 1 421.99 47.38
  Q 421.93 48.93 422.86 49.88
  Q 423.22 50.26 423.23 50.78
  L 423.26 55.89
  A 0.37 0.37 0.0 0 0 423.99 55.98
  Q 424.22 55.02 425.01 55.32
  Q 425.57 55.53 425.67 54.94
  Q 427.46 43.89 429.19 36.79
  Q 429.91 33.84 432.37 31.06
  Q 434.11 29.08 436.49 28.72
  Q 439.16 28.31 441.50 29.61
  L 437.37 29.93
  Q 436.10 31.23 434.91 32.29
  Q 433.47 33.59 432.88 34.95
  Q 431.45 38.25 430.83 42.25
  Q 429.16 53.15 426.87 65.05
  Q 426.35 67.70 425.65 70.40
  Q 425.00 72.89 424.85 75.89
  Q 424.70 78.80 423.77 82.20
  Q 422.75 85.87 422.16 90.70
  Q 421.84 93.30 421.23 95.76
  Q 420.45 98.96 421.17 101.99
  Q 421.29 102.48 421.62 102.84
  L 422.78 104.11
  Q 423.08 104.43 423.51 104.56
  C 425.06 105.00 426.58 105.41 428.21 105.39
  Q 432.24 105.36 436.33 105.39
  C 437.96 105.40 439.33 104.97 440.89 104.60
  Q 441.23 104.53 441.39 104.22
  L 441.63 103.80
  Q 441.87 103.36 442.37 103.35
  Q 444.08 103.33 444.82 102.16
  L 445.81 100.97
  L 444.50 104.95
  A 1.70 1.60 78.0 0 1 444.13 105.56
  Q 442.57 107.12 440.83 107.37
  Q 433.73 108.40 424.40 107.61
  Q 422.76 107.47 421.24 106.62
  Q 419.52 105.66 418.77 103.94
  Q 417.75 101.59 415.40 102.62
  Q 415.09 102.76 415.08 103.10
  Q 415.08 103.26 415.14 103.42
  Q 415.20 103.59 415.06 103.69
  Q 413.58 104.75 412.11 105.88
  Q 410.62 107.03 408.52 107.25
  Q 400.03 108.16 392.58 107.00
  C 390.95 106.75 390.03 105.56 388.24 105.56
  Q 386.33 105.57 384.76 106.37
  Q 381.66 107.96 379.55 108.23
  C 372.63 109.10 365.34 109.42 359.05 106.66
  Q 356.23 105.41 353.86 103.18
  Q 352.43 101.84 350.92 100.62
  Q 349.32 99.33 348.05 97.45
  Q 345.14 93.11 343.83 88.43
  Q 342.93 85.24 342.21 81.98
  Q 342.05 81.24 341.56 80.65
  Q 341.19 80.21 341.32 80.77
  Q 341.42 81.21 341.29 81.62
  Q 341.18 81.98 340.92 82.25
  Q 340.18 82.97 339.99 84.00
  A 0.78 0.78 0.0 0 1 339.13 84.62
  Q 338.40 84.52 338.59 85.24
  Q 338.79 85.98 338.28 86.55
  Q 336.35 88.74 335.36 91.70
  Q 335.20 92.17 334.74 92.35
  Q 333.23 92.92 332.87 94.54
  Q 332.77 94.99 332.44 95.32
  Q 329.49 98.25 326.61 101.08
  Q 325.25 102.42 323.52 103.52
  Q 321.81 104.61 320.05 105.51
  Q 314.59 108.34 308.26 108.73
  Q 300.68 109.20 293.58 108.21
  Q 291.41 107.90 289.49 106.83
  Q 286.80 105.31 284.29 104.35
  Q 282.51 103.66 280.71 104.60
  Q 278.27 105.89 275.71 106.81
  Q 273.11 107.74 270.51 108.20
  Q 260.00 110.03 250.05 107.51
  Q 249.54 107.38 249.18 107.01
  C 248.01 105.78 246.49 105.53 245.26 104.51
  C 244.05 103.51 242.79 102.97 241.60 101.81
  Q 240.62 100.85 239.87 99.77
  Q 237.55 96.44 235.69 92.21
  Q 233.87 88.08 233.49 83.75
  Q 233.01 78.20 234.06 71.61
  Q 236.08 58.95 238.38 47.75
  Q 238.97 44.89 239.39 41.87
  Q 240.65 32.60 242.80 22.00
  Q 243.26 19.73 243.72 17.13
  Q 244.45 13.00 245.95 10.01
  Q 247.87 6.16 252.20 7.22
  Z"
/>
<path fill="#19b5e4" d="
  M 252.20 7.22
  L 271.44 7.70
  A 0.68 0.67 -85.7 0 1 272.09 8.46
  C 271.52 12.89 271.20 17.40 270.36 21.81
  Q 268.04 34.04 265.90 46.25
  Q 262.88 63.27 261.81 68.75
  Q 260.30 76.52 263.15 80.92
  Q 267.12 82.29 268.75 82.06
  C 276.27 81.01 279.76 75.51 280.87 68.48
  C 283.20 53.85 285.92 39.29 288.53 24.61
  Q 288.68 23.78 288.58 22.90
  C 288.42 21.55 289.09 20.98 289.39 19.77
  Q 290.69 14.55 290.93 9.02
  Q 290.97 8.24 291.74 8.13
  L 295.11 7.67
  L 298.48 7.43
  L 311.88 7.72
  A 0.70 0.69 6.0 0 1 312.55 8.54
  L 304.15 55.66
  L 303.23 60.70
  Q 302.26 65.89 301.34 71.10
  C 300.83 74.04 301.33 76.07 302.70 78.52
  Q 303.64 80.21 305.01 81.03
  Q 312.30 84.19 317.01 78.51
  Q 318.96 76.16 319.47 73.99
  Q 320.92 67.93 323.06 55.54
  Q 327.37 30.59 331.46 8.34
  Q 331.54 7.91 331.95 7.76
  Q 332.45 7.58 333.33 7.63
  L 334.29 7.57
  L 351.85 7.72
  Q 352.65 7.72 352.51 8.51
  L 345.47 48.45
  Q 345.22 48.76 345.11 49.42
  Q 342.85 61.71 340.75 74.00
  Q 339.94 78.75 335.66 86.42
  Q 335.44 86.79 335.14 87.02
  Q 329.00 96.92 318.61 101.23
  Q 315.44 102.55 313.39 102.66
  Q 308.48 102.93 299.95 102.82
  Q 296.30 102.77 293.52 101.40
  Q 289.94 99.63 286.85 96.80
  A 1.19 1.19 0.0 0 0 285.28 96.76
  Q 279.84 101.29 274.29 102.41
  C 269.24 103.42 262.96 102.72 257.57 102.69
  C 256.07 102.68 254.88 102.16 253.51 101.71
  C 247.95 99.89 243.34 94.08 241.67 88.94
  Q 240.52 85.42 239.95 81.20
  C 239.23 75.80 240.87 70.09 241.62 64.74
  Q 242.09 61.43 242.68 58.15
  L 251.32 9.53
  L 252.20 7.22
  Z"
/>
<path fill="#000000" fill-opacity="0.067" d="
  M 64.87 10.37
  Q 61.16 13.19 57.86 17.73
  Q 56.87 19.09 56.51 20.41
  Q 55.95 22.47 55.93 22.52
  Q 54.62 26.16 54.15 29.98
  Q 54.09 30.47 53.81 30.88
  Q 53.14 31.88 53.14 33.02
  Q 53.13 35.06 52.38 37.08
  Q 51.67 39.02 51.25 41.05
  Q 50.45 44.86 49.57 48.11
  Q 49.30 49.09 48.68 49.87
  A 1.92 1.90 -21.3 0 0 48.29 50.75
  Q 47.69 54.22 46.39 57.89
  Q 46.19 58.44 45.66 58.65
  Q 45.25 58.81 45.36 59.24
  Q 45.58 60.10 45.00 60.74
  A 0.46 0.46 0.0 0 1 44.23 60.59
  Q 43.70 59.07 44.54 58.34
  Q 44.91 58.02 45.14 57.58
  Q 46.53 54.90 47.60 50.74
  Q 49.64 42.78 51.41 34.76
  Q 52.07 31.73 54.87 21.76
  Q 55.38 19.94 56.27 18.58
  Q 57.00 17.45 57.50 16.23
  Q 57.94 15.18 58.74 14.30
  Q 60.58 12.27 62.41 10.58
  Q 63.79 9.30 65.79 8.90
  Q 66.07 8.84 66.13 8.54
  A 0.51 0.50 -5.1 0 1 66.46 8.15
  Q 69.87 6.93 73.49 7.49
  Q 74.01 7.57 73.53 7.80
  Q 73.14 7.98 72.73 7.90
  Q 72.24 7.81 71.75 7.94
  Q 65.99 9.53 64.87 10.37
  Z"
/>
<path fill="#000100" fill-opacity="0.239" d="
  M 295.11 7.67
  L 291.74 8.13
  Q 290.97 8.24 290.93 9.02
  Q 290.69 14.55 289.39 19.77
  C 289.09 20.98 288.42 21.55 288.58 22.90
  Q 288.68 23.78 288.53 24.61
  C 285.92 39.29 283.20 53.85 280.87 68.48
  C 279.76 75.51 276.27 81.01 268.75 82.06
  Q 267.12 82.29 263.15 80.92
  Q 265.52 80.74 266.86 81.33
  Q 267.43 81.58 268.01 81.37
  L 271.16 80.24
  Q 271.80 80.01 272.14 79.41
  Q 273.16 77.61 274.72 76.32
  Q 275.10 76.00 275.20 75.52
  Q 275.68 73.12 276.30 72.14
  Q 277.01 71.01 276.92 69.97
  Q 276.87 69.49 277.04 69.04
  Q 277.71 67.27 277.61 65.26
  C 277.54 63.64 278.09 62.17 278.16 60.57
  Q 278.17 60.27 278.41 60.07
  Q 278.51 59.98 278.60 59.89
  Q 278.69 59.82 278.72 59.70
  Q 279.29 57.21 279.46 54.97
  Q 279.64 52.72 280.12 50.48
  Q 280.60 48.26 280.95 46.00
  Q 282.85 33.78 285.43 21.44
  Q 285.99 18.75 286.13 17.11
  Q 286.43 13.65 288.17 10.34
  Q 288.41 9.89 288.92 9.88
  Q 290.14 9.86 290.11 8.59
  Q 290.10 8.11 290.53 7.89
  Q 292.54 6.86 295.11 7.67
  Z"
/>
<path fill="#000100" fill-opacity="0.239" d="
  M 333.33 7.63
  Q 332.45 7.58 331.95 7.76
  Q 331.54 7.91 331.46 8.34
  Q 327.37 30.59 323.06 55.54
  Q 320.92 67.93 319.47 73.99
  Q 318.96 76.16 317.01 78.51
  Q 312.30 84.19 305.01 81.03
  Q 306.56 80.32 308.16 81.53
  Q 308.56 81.83 309.05 81.74
  Q 311.51 81.27 313.47 79.72
  Q 314.17 79.65 314.16 79.06
  Q 314.16 78.75 314.31 78.48
  L 315.88 75.75
  Q 316.13 75.31 316.14 74.79
  Q 316.16 73.77 316.67 72.92
  Q 316.87 72.58 316.89 72.19
  Q 317.04 69.39 317.79 66.01
  Q 319.48 58.38 320.60 49.46
  Q 321.00 46.24 321.75 43.12
  Q 322.24 41.04 322.57 38.88
  C 323.20 34.69 324.39 30.63 324.81 26.48
  Q 324.94 25.23 325.37 24.08
  C 325.78 22.99 325.54 21.83 325.77 20.66
  Q 326.42 17.39 327.16 14.07
  Q 327.36 13.14 328.03 12.40
  C 328.77 11.58 329.34 10.86 330.21 10.07
  Q 330.90 9.44 330.86 8.30
  Q 330.84 7.79 331.32 7.63
  Q 332.22 7.32 333.33 7.63
  Z"
/>
<path fill="#000100" fill-opacity="0.239" d="
  M 73.84 8.80
  C 67.06 9.70 63.17 15.02 61.72 20.75
  Q 55.99 43.45 49.83 66.08
  Q 49.25 65.72 48.79 65.64
  Q 48.54 65.59 48.30 65.66
  Q 47.77 65.79 47.71 66.13
  Q 47.58 66.87 47.05 66.33
  Q 45.14 64.38 47.12 62.12
  Q 47.44 61.75 47.50 61.27
  Q 47.77 59.26 48.37 57.25
  Q 51.14 48.05 53.58 38.49
  Q 53.98 36.91 54.58 35.40
  C 54.98 34.38 54.72 33.52 55.24 32.57
  Q 55.70 31.73 55.91 30.69
  Q 57.43 23.34 60.40 16.07
  Q 62.00 12.85 64.99 11.25
  Q 68.50 9.37 69.05 9.14
  Q 71.14 8.26 73.84 8.80
  Z"
/>
<path fill="#ffffff" d="
  M 73.84 8.80
  Q 81.27 8.70 85.40 13.51
  Q 87.70 16.19 89.83 24.11
  Q 93.87 39.19 97.77 54.13
  L 103.83 75.02
  Q 103.98 75.53 104.10 75.01
  L 106.13 66.25
  L 120.52 10.14
  L 120.76 9.47
  L 141.45 9.46
  Q 141.96 9.46 141.90 9.97
  Q 141.52 12.98 140.75 15.75
  Q 130.10 53.95 119.40 92.13
  Q 118.86 94.05 116.76 97.03
  L 115.74 98.41
  Q 112.28 102.46 108.75 103.43
  C 101.59 105.40 93.37 101.42 90.82 93.93
  Q 89.61 90.37 88.49 86.22
  Q 84.00 69.52 79.31 52.33
  Q 78.84 50.58 78.14 48.81
  C 77.19 46.38 77.07 43.87 76.17 41.50
  Q 75.55 39.88 75.05 41.54
  L 71.44 53.64
  L 69.28 62.09
  L 60.18 94.74
  L 55.83 100.48
  Q 52.56 103.15 51.12 103.41
  Q 40.71 105.30 35.20 98.57
  Q 32.77 95.61 30.38 87.06
  Q 21.62 55.77 12.46 23.28
  Q 10.85 17.56 9.42 12.44
  L 9.02 9.43
  L 29.45 9.39
  A 1.03 1.03 0.0 0 1 30.45 10.16
  L 42.23 56.70
  L 46.76 73.90
  A 0.50 0.49 76.9 0 0 47.33 74.26
  Q 47.61 74.20 47.81 73.96
  Q 47.95 73.80 47.98 73.48
  Q 48.33 69.59 49.83 66.08
  Q 55.99 43.45 61.72 20.75
  C 63.17 15.02 67.06 9.70 73.84 8.80
  Z"
/>
<path fill="#000000" fill-opacity="0.067" d="
  M 120.76 9.47
  L 120.52 10.14
  Q 119.90 11.28 119.29 11.93
  Q 118.64 12.63 117.97 13.41
  Q 117.34 14.14 116.66 14.85
  C 115.69 15.87 116.17 17.48 115.29 18.39
  Q 114.94 18.75 114.90 19.25
  Q 114.78 20.82 114.21 22.35
  Q 113.59 24.04 113.24 25.65
  Q 110.57 38.00 107.44 47.82
  Q 107.04 49.04 106.84 50.34
  Q 106.66 51.50 106.35 52.61
  Q 104.66 58.67 103.37 65.01
  Q 103.27 65.49 103.77 65.49
  Q 105.66 65.51 106.13 66.25
  L 104.10 75.01
  Q 103.98 75.53 103.83 75.02
  L 97.77 54.13
  Q 99.30 55.16 100.28 57.24
  Q 100.49 57.68 100.37 59.29
  Q 100.37 59.34 100.40 59.38
  Q 100.44 59.41 100.49 59.40
  Q 100.63 59.37 100.64 59.23
  Q 100.71 57.88 101.91 57.26
  Q 102.42 57.00 102.50 56.44
  Q 102.91 53.78 103.73 51.46
  Q 104.76 48.50 105.38 45.43
  Q 105.43 45.20 105.57 45.01
  Q 105.77 44.76 105.83 44.43
  Q 106.44 41.06 107.67 37.34
  Q 109.14 32.91 109.73 28.27
  Q 109.76 28.04 109.96 27.92
  L 110.28 27.75
  Q 110.30 27.74 110.31 27.71
  Q 110.41 25.40 111.07 23.20
  Q 111.13 22.98 111.15 22.72
  Q 111.15 22.55 111.31 22.48
  Q 111.62 22.35 111.70 22.02
  L 113.39 14.72
  Q 113.51 14.19 113.98 13.92
  Q 114.58 13.58 114.39 12.88
  Q 114.21 12.20 114.72 11.71
  L 117.07 9.51
  Q 117.47 9.13 118.02 9.11
  Q 119.43 9.06 120.76 9.47
  Z"
/>
<path fill="#000100" fill-opacity="0.239" d="
  M 192.47 9.27
  C 190.76 12.02 190.82 14.92 190.93 18.12
  Q 191.00 20.23 192.12 21.66
  C 194.16 24.27 196.31 26.93 199.87 27.06
  Q 202.67 27.16 205.59 27.08
  Q 201.70 29.76 197.33 29.93
  Q 196.84 29.95 196.46 29.64
  Q 195.84 29.12 195.06 29.15
  Q 194.59 29.17 194.22 28.87
  C 193.13 27.98 192.02 27.97 190.99 27.00
  Q 187.66 23.89 187.20 20.37
  Q 186.72 16.69 187.86 12.58
  A 1.48 1.48 0.0 0 1 188.66 11.63
  Q 189.38 11.28 189.42 10.56
  Q 189.47 9.78 190.23 9.96
  Q 191.70 10.32 192.47 9.27
  Z"
/>
<path fill="#000000" fill-opacity="0.067" d="
  M 9.02 9.43
  L 9.42 12.44
  Q 7.62 13.02 7.10 13.86
  Q 6.64 14.58 6.71 15.94
  Q 6.85 18.55 7.54 20.66
  Q 8.77 24.39 9.81 28.89
  Q 10.67 32.62 12.20 36.92
  Q 13.69 41.15 14.53 45.48
  Q 14.88 47.27 15.53 49.09
  Q 16.23 51.03 16.52 53.04
  Q 17.00 56.39 17.82 58.90
  Q 21.46 70.06 24.15 81.54
  Q 24.50 83.04 24.89 84.43
  Q 25.59 86.97 26.31 89.94
  Q 26.68 91.44 27.33 92.61
  Q 28.10 93.97 28.10 95.40
  A 1.76 1.73 28.2 0 0 28.41 96.39
  Q 28.89 97.11 29.18 97.90
  Q 29.53 98.90 30.34 99.66
  Q 32.22 101.44 33.87 103.62
  Q 34.43 104.36 35.30 104.35
  Q 35.81 104.34 36.18 104.68
  Q 38.06 106.39 40.31 106.57
  Q 43.09 106.79 46.84 106.29
  Q 48.55 106.06 49.88 105.26
  Q 51.29 104.41 52.57 103.52
  Q 52.77 103.38 53.02 103.38
  Q 53.21 103.39 53.40 103.40
  Q 53.83 103.43 54.08 103.07
  L 55.83 100.48
  L 60.18 94.74
  Q 61.76 97.03 60.80 99.49
  Q 60.64 99.91 60.19 99.91
  Q 59.99 99.91 59.93 100.10
  Q 59.87 100.31 59.91 100.53
  Q 60.11 101.59 59.23 102.20
  Q 58.81 102.49 58.57 102.92
  Q 57.25 105.22 55.33 106.84
  Q 54.78 107.30 54.06 107.34
  Q 53.41 107.38 53.15 107.97
  Q 52.87 108.62 52.17 108.75
  C 50.88 108.99 49.98 109.81 48.70 109.93
  Q 44.53 110.33 40.12 110.01
  Q 38.48 109.89 37.01 109.18
  Q 35.37 108.39 33.88 107.38
  Q 32.26 106.29 30.49 105.66
  Q 30.06 105.51 29.81 105.13
  Q 28.11 102.61 26.84 99.71
  Q 26.72 99.42 26.34 99.37
  A 0.21 0.20 84.9 0 1 26.18 99.23
  L 21.52 85.19
  Q 21.35 84.67 21.44 84.14
  Q 21.55 83.39 21.15 82.76
  Q 20.87 82.32 20.87 81.79
  Q 20.86 80.45 20.34 79.22
  Q 19.83 78.01 19.50 76.72
  Q 18.71 73.58 17.72 70.64
  Q 17.58 70.22 17.65 69.79
  Q 17.76 69.11 17.36 68.55
  Q 17.07 68.15 16.93 67.67
  Q 15.33 61.97 13.97 56.21
  Q 13.54 54.41 12.07 49.93
  Q 11.40 47.91 10.94 45.67
  Q 10.35 42.87 9.91 41.40
  Q 8.08 35.26 6.42 29.28
  C 6.12 28.20 5.49 27.40 5.59 26.25
  Q 5.64 25.75 5.43 25.30
  C 4.51 23.24 4.55 21.11 3.82 19.00
  Q 2.77 15.98 3.15 12.80
  A 2.42 2.40 84.7 0 1 4.80 10.80
  L 9.02 9.43
  Z"
/>
<path fill="#000100" fill-opacity="0.239" d="
  M 251.32 9.53
  L 242.68 58.15
  Q 242.09 61.43 241.62 64.74
  C 240.87 70.09 239.23 75.80 239.95 81.20
  Q 240.52 85.42 241.67 88.94
  C 243.34 94.08 247.95 99.89 253.51 101.71
  C 254.88 102.16 256.07 102.68 257.57 102.69
  C 262.96 102.72 269.24 103.42 274.29 102.41
  Q 279.84 101.29 285.28 96.76
  A 1.19 1.19 0.0 0 1 286.85 96.80
  Q 289.94 99.63 293.52 101.40
  Q 296.30 102.77 299.95 102.82
  Q 308.48 102.93 313.39 102.66
  Q 315.44 102.55 318.61 101.23
  Q 329.00 96.92 335.14 87.02
  L 335.14 88.42
  A 1.10 1.10 0.0 0 1 334.75 89.26
  Q 332.72 90.98 331.28 93.41
  Q 331.02 93.84 330.58 94.10
  Q 329.37 94.82 328.99 96.11
  Q 328.93 96.30 328.76 96.39
  Q 326.13 97.84 324.71 99.59
  Q 324.44 99.94 324.00 99.92
  Q 323.22 99.89 323.14 100.65
  Q 323.10 101.06 322.69 101.14
  Q 320.57 101.51 318.87 103.39
  Q 318.57 103.72 318.14 103.84
  Q 311.21 105.70 306.67 105.81
  Q 303.53 105.89 299.92 105.96
  Q 295.97 106.03 293.11 105.20
  Q 289.73 104.21 286.65 102.49
  Q 284.64 101.36 281.97 101.61
  Q 281.47 101.65 281.08 101.96
  C 280.59 102.34 280.57 102.53 279.91 102.73
  Q 277.17 103.56 274.49 104.65
  Q 271.78 105.76 269.01 105.96
  Q 263.51 106.37 257.95 106.03
  Q 254.08 105.79 250.00 104.51
  Q 246.34 103.36 243.61 100.56
  Q 239.93 96.78 237.58 91.22
  Q 237.10 90.10 237.02 88.51
  Q 236.95 87.07 236.77 85.61
  Q 235.86 78.38 237.20 72.74
  Q 237.66 70.79 237.84 68.76
  Q 238.00 66.78 238.44 64.76
  Q 238.91 62.58 239.22 60.42
  Q 240.75 49.42 243.29 37.66
  Q 243.93 34.72 244.14 31.79
  Q 244.28 29.75 244.84 27.74
  Q 245.39 25.78 245.70 23.67
  Q 246.97 15.02 247.96 12.74
  Q 248.86 10.66 251.32 9.53
  Z"
/>
<path fill="#000000" fill-opacity="0.067" d="
  M 151.51 10.73
  Q 151.13 11.35 151.33 11.30
  L 148.04 11.55
  Q 148.27 10.74 149.04 10.17
  Q 149.45 9.87 149.87 10.14
  Q 150.64 10.63 151.51 10.73
  Z"
/>
<path fill="#000100" fill-opacity="0.239" d="
  M 120.52 10.14
  L 106.13 66.25
  Q 105.66 65.51 103.77 65.49
  Q 103.27 65.49 103.37 65.01
  Q 104.66 58.67 106.35 52.61
  Q 106.66 51.50 106.84 50.34
  Q 107.04 49.04 107.44 47.82
  Q 110.57 38.00 113.24 25.65
  Q 113.59 24.04 114.21 22.35
  Q 114.78 20.82 114.90 19.25
  Q 114.94 18.75 115.29 18.39
  C 116.17 17.48 115.69 15.87 116.66 14.85
  Q 117.34 14.14 117.97 13.41
  Q 118.64 12.63 119.29 11.93
  Q 119.90 11.28 120.52 10.14
  Z"
/>
<path fill="#000100" fill-opacity="0.239" d="
  M 151.33 11.30
  Q 149.05 19.60 155.23 25.24
  Q 157.25 27.08 159.35 27.06
  C 161.74 27.03 166.17 27.60 167.97 25.96
  Q 170.04 24.07 172.18 22.01
  L 166.27 28.62
  A 0.78 0.69 -14.9 0 0 166.17 28.77
  Q 165.77 29.69 164.75 29.65
  Q 161.03 29.49 157.00 29.80
  Q 155.24 29.93 153.61 29.04
  Q 150.46 27.31 148.35 24.61
  Q 148.04 24.21 148.04 23.70
  L 147.98 11.96
  L 148.04 11.55
  L 151.33 11.30
  Z"
/>
<path fill="#000000" fill-opacity="0.067" d="
  M 147.98 11.96
  L 148.04 23.70
  Q 148.04 24.21 148.35 24.61
  Q 150.46 27.31 153.61 29.04
  Q 155.24 29.93 157.00 29.80
  Q 161.03 29.49 164.75 29.65
  Q 165.77 29.69 166.17 28.77
  A 0.78 0.69 -14.9 0 1 166.27 28.62
  L 172.18 22.01
  L 173.54 18.49
  Q 175.75 19.87 175.03 22.15
  Q 174.51 23.77 174.34 24.51
  Q 174.06 25.77 173.01 26.75
  Q 170.02 29.54 166.74 30.80
  Q 164.86 31.52 162.53 31.40
  Q 160.36 31.30 158.06 31.78
  Q 154.73 32.48 151.22 32.01
  Q 150.73 31.95 150.37 31.60
  L 145.77 27.11
  Q 145.36 26.71 145.24 26.16
  Q 144.92 24.69 145.34 23.22
  Q 145.76 21.77 145.82 20.26
  Q 145.97 16.15 147.31 12.22
  Q 147.40 11.94 147.98 11.96
  Z"
/>
<path fill="#000100" fill-opacity="0.239" d="
  M 9.42 12.44
  Q 10.85 17.56 12.46 23.28
  Q 21.62 55.77 30.38 87.06
  Q 32.77 95.61 35.20 98.57
  Q 40.71 105.30 51.12 103.41
  Q 52.56 103.15 55.83 100.48
  L 54.08 103.07
  Q 53.83 103.43 53.40 103.40
  Q 53.21 103.39 53.02 103.38
  Q 52.77 103.38 52.57 103.52
  Q 51.29 104.41 49.88 105.26
  Q 48.55 106.06 46.84 106.29
  Q 43.09 106.79 40.31 106.57
  Q 38.06 106.39 36.18 104.68
  Q 35.81 104.34 35.30 104.35
  Q 34.43 104.36 33.87 103.62
  Q 32.22 101.44 30.34 99.66
  Q 29.53 98.90 29.18 97.90
  Q 28.89 97.11 28.41 96.39
  A 1.76 1.73 28.2 0 1 28.10 95.40
  Q 28.10 93.97 27.33 92.61
  Q 26.68 91.44 26.31 89.94
  Q 25.59 86.97 24.89 84.43
  Q 24.50 83.04 24.15 81.54
  Q 21.46 70.06 17.82 58.90
  Q 17.00 56.39 16.52 53.04
  Q 16.23 51.03 15.53 49.09
  Q 14.88 47.27 14.53 45.48
  Q 13.69 41.15 12.20 36.92
  Q 10.67 32.62 9.81 28.89
  Q 8.77 24.39 7.54 20.66
  Q 6.85 18.55 6.71 15.94
  Q 6.64 14.58 7.10 13.86
  Q 7.62 13.02 9.42 12.44
  Z"
/>
<path fill="#000000" fill-opacity="0.067" d="
  M 60.40 16.07
  Q 57.43 23.34 55.91 30.69
  Q 55.70 31.73 55.24 32.57
  C 54.72 33.52 54.98 34.38 54.58 35.40
  Q 53.98 36.91 53.58 38.49
  Q 51.14 48.05 48.37 57.25
  Q 47.77 59.26 47.50 61.27
  Q 47.44 61.75 47.12 62.12
  Q 45.14 64.38 47.05 66.33
  Q 47.58 66.87 47.71 66.13
  Q 47.77 65.79 48.30 65.66
  Q 48.54 65.59 48.79 65.64
  Q 49.25 65.72 49.83 66.08
  Q 48.33 69.59 47.98 73.48
  Q 47.95 73.80 47.81 73.96
  Q 47.61 74.20 47.33 74.26
  A 0.50 0.49 76.9 0 1 46.76 73.90
  L 42.23 56.70
  Q 43.80 57.47 43.59 59.78
  Q 43.51 60.66 44.33 60.99
  Q 44.98 61.25 45.16 61.95
  Q 45.42 62.93 45.67 61.95
  Q 45.87 61.19 46.38 60.63
  A 1.76 1.72 70.2 0 0 46.81 59.69
  Q 47.01 57.92 47.61 56.61
  Q 48.22 55.26 48.50 53.96
  Q 49.15 50.97 49.98 48.29
  Q 50.67 46.02 51.16 43.48
  Q 51.63 41.01 52.46 38.59
  Q 52.99 37.07 53.42 35.54
  Q 54.90 30.33 55.76 26.03
  Q 56.91 20.25 60.40 16.07
  Z"
/>
<path fill="#000000" fill-opacity="0.067" d="
  M 486.07 42.17
  L 486.72 35.51
  Q 487.35 35.06 487.05 37.26
  Q 486.82 38.95 488.22 40.66
  Q 489.01 41.63 490.22 41.54
  Q 491.36 41.45 492.16 40.73
  Q 495.24 37.99 498.49 34.76
  Q 500.18 33.09 502.71 32.07
  Q 507.16 30.27 511.86 28.49
  C 513.70 27.79 515.29 28.39 517.05 27.97
  Q 518.04 27.73 519.04 27.82
  Q 520.78 27.98 522.48 27.77
  C 523.88 27.61 525.19 27.86 526.59 28.06
  Q 526.64 28.07 526.63 28.12
  Q 526.57 28.45 526.62 28.11
  Q 526.63 28.04 526.57 28.04
  L 522.89 27.84
  Q 522.72 27.83 522.66 27.99
  L 522.51 28.36
  Q 522.46 28.48 522.59 28.49
  Q 523.96 28.56 525.15 28.60
  Q 525.28 28.60 525.40 28.57
  Q 525.48 28.54 525.54 28.59
  Q 525.86 28.84 525.45 28.82
  Q 522.63 28.67 520.42 29.32
  Q 518.25 29.96 516.01 29.46
  Q 515.70 28.88 514.50 29.16
  Q 513.19 29.47 511.95 29.89
  Q 510.70 30.31 509.45 30.68
  Q 502.04 32.89 499.52 35.28
  Q 497.06 37.61 494.83 39.86
  Q 493.36 41.34 491.76 42.59
  Q 490.18 43.81 488.96 45.73
  Q 488.25 46.85 488.04 48.15
  Q 487.71 50.13 486.54 51.73
  A 0.69 0.69 0.0 0 1 485.30 51.37
  L 485.12 49.01
  Q 485.05 48.15 485.88 47.93
  Q 486.09 47.87 486.20 47.69
  Q 486.38 47.41 486.41 47.08
  Q 486.59 44.60 486.07 42.17
  Z"
/>
<path fill="#19b5e4" d="
  M 554.57 74.34
  L 551.32 74.13
  L 510.29 73.89
  L 512.94 59.37
  Q 513.02 58.90 513.48 58.77
  L 514.61 58.45
  L 535.25 58.36
  A 0.70 0.70 0.0 0 0 535.95 57.63
  C 535.81 54.12 535.13 49.39 531.38 47.81
  Q 523.54 44.49 515.72 48.51
  Q 513.18 49.82 509.89 55.26
  C 505.26 63.54 501.83 80.22 512.97 85.23
  C 516.38 86.77 521.54 86.60 524.94 85.41
  Q 529.81 83.69 534.62 78.76
  A 1.66 1.66 0.0 0 1 536.86 78.63
  L 543.69 84.14
  L 549.27 89.06
  Q 549.68 89.42 549.32 89.82
  L 547.03 92.36
  L 545.22 93.90
  C 538.84 98.96 530.44 102.99 522.30 102.86
  Q 516.42 102.76 509.42 102.81
  Q 505.62 102.83 502.22 101.30
  C 494.72 97.94 488.03 92.82 485.57 84.99
  C 483.83 79.47 482.95 73.38 484.01 67.69
  Q 484.30 66.10 484.55 64.51
  Q 484.82 62.82 485.29 61.23
  Q 490.84 42.59 508.12 33.61
  Q 510.21 32.53 516.58 30.81
  Q 522.76 29.29 529.25 29.27
  Q 530.61 29.26 534.97 30.41
  C 548.32 33.93 557.29 44.38 557.45 58.15
  Q 557.55 66.51 555.87 73.62
  Q 555.75 74.16 555.20 74.24
  L 554.57 74.34
  Z"
/>
<path fill="#19b5e4" d="
  M 420.28 45.14
  Q 423.50 54.34 421.68 63.75
  Q 419.30 76.01 417.45 88.23
  L 416.82 91.82
  L 416.37 94.20
  L 414.87 100.73
  A 1.03 1.02 1.7 0 1 414.03 101.52
  Q 406.82 102.65 400.63 101.95
  Q 397.82 101.63 394.83 102.15
  A 1.26 1.25 -6.1 0 1 393.36 100.97
  L 393.23 98.38
  L 395.14 87.87
  Q 397.44 77.94 399.09 67.97
  Q 399.84 63.42 399.56 58.95
  C 399.29 54.76 398.30 52.67 394.35 51.10
  Q 387.27 48.29 381.39 52.16
  Q 375.24 56.21 373.24 61.56
  Q 372.45 62.80 372.08 65.02
  Q 370.88 68.47 371.44 74.00
  Q 371.87 78.26 375.29 79.75
  Q 376.68 80.79 378.44 81.04
  Q 383.27 83.00 388.28 81.05
  L 391.02 80.64
  Q 391.98 80.49 391.88 81.46
  Q 391.04 89.63 389.00 97.50
  Q 387.98 101.43 385.03 102.07
  Q 382.48 102.55 380.49 102.62
  Q 374.63 102.82 369.45 102.77
  Q 366.27 102.73 363.54 101.34
  Q 354.08 96.49 350.65 86.30
  Q 349.29 82.25 349.11 76.75
  Q 348.87 69.83 349.34 67.37
  Q 352.74 49.47 366.77 38.02
  Q 366.88 37.50 367.04 37.95
  Q 372.17 34.06 378.05 31.87
  Q 384.37 29.54 391.44 29.37
  Q 400.35 29.24 408.13 32.87
  Q 416.43 36.76 420.28 45.14
  Z"
/>
<path fill="#19b5e4" d="
  M 441.50 29.61
  L 458.05 30.28
  Q 458.60 30.31 458.50 30.85
  L 457.13 38.54
  A 0.25 0.25 0.0 0 0 457.50 38.81
  Q 463.82 35.47 471.00 35.38
  Q 478.62 35.28 486.72 35.51
  L 486.07 42.17
  L 484.68 49.89
  L 483.51 54.14
  Q 483.37 54.65 482.84 54.64
  Q 471.24 54.40 468.00 54.54
  C 460.63 54.87 453.90 58.21 452.31 65.82
  L 451.52 69.84
  L 445.81 100.97
  L 444.82 102.16
  L 424.82 102.18
  Q 424.00 102.18 424.10 101.37
  Q 425.47 90.33 427.53 80.01
  Q 432.07 57.30 434.90 40.88
  Q 435.53 37.23 437.37 29.93
  L 441.50 29.61
  Z"
/>
<path fill="#000100" fill-opacity="0.239" d="
  M 437.37 29.93
  Q 435.53 37.23 434.90 40.88
  Q 432.07 57.30 427.53 80.01
  Q 425.47 90.33 424.10 101.37
  Q 424.00 102.18 424.82 102.18
  L 444.82 102.16
  Q 444.08 103.33 442.37 103.35
  Q 441.87 103.36 441.63 103.80
  L 441.39 104.22
  Q 441.23 104.53 440.89 104.60
  C 439.33 104.97 437.96 105.40 436.33 105.39
  Q 432.24 105.36 428.21 105.39
  C 426.58 105.41 425.06 105.00 423.51 104.56
  Q 423.08 104.43 422.78 104.11
  L 421.62 102.84
  Q 421.29 102.48 421.17 101.99
  Q 420.45 98.96 421.23 95.76
  Q 421.84 93.30 422.16 90.70
  Q 422.75 85.87 423.77 82.20
  Q 424.70 78.80 424.85 75.89
  Q 425.00 72.89 425.65 70.40
  Q 426.35 67.70 426.87 65.05
  Q 429.16 53.15 430.83 42.25
  Q 431.45 38.25 432.88 34.95
  Q 433.47 33.59 434.91 32.29
  Q 436.10 31.23 437.37 29.93
  Z"
/>
<path fill="#000000" fill-opacity="0.067" d="
  M 514.48 30.62
  Q 513.85 30.79 512.00 31.75
  Q 511.25 32.13 510.16 31.53
  Q 512.49 30.18 515.25 30.02
  Q 516.21 29.96 515.53 30.43
  Q 515.23 30.63 514.48 30.62
  Z"
/>
<path fill="#000100" fill-opacity="0.239" d="
  M 514.48 30.62
  Q 515.70 30.52 516.58 30.81
  Q 510.21 32.53 508.12 33.61
  Q 490.84 42.59 485.29 61.23
  Q 484.82 62.82 484.55 64.51
  Q 484.30 66.10 484.01 67.69
  C 482.95 73.38 483.83 79.47 485.57 84.99
  C 488.03 92.82 494.72 97.94 502.22 101.30
  Q 505.62 102.83 509.42 102.81
  Q 516.42 102.76 522.30 102.86
  C 530.44 102.99 538.84 98.96 545.22 93.90
  Q 544.44 95.80 542.87 96.77
  Q 540.57 98.18 540.51 98.23
  C 539.31 99.20 537.87 100.71 536.41 101.17
  Q 535.50 101.46 534.93 102.29
  Q 534.64 102.72 534.13 102.65
  Q 533.47 102.55 533.18 103.14
  Q 532.94 103.63 532.40 103.73
  C 530.24 104.13 528.29 105.06 526.32 105.32
  Q 514.78 106.83 503.14 105.56
  Q 498.67 105.08 494.48 102.19
  C 493.18 101.30 491.72 101.11 490.57 99.88
  Q 489.64 98.89 488.57 98.05
  Q 487.22 96.99 486.51 95.49
  Q 485.83 94.04 484.70 92.82
  Q 482.83 90.80 482.17 88.39
  Q 481.76 86.89 481.20 85.63
  Q 480.69 84.49 480.48 83.15
  Q 478.73 72.04 481.70 61.58
  Q 482.13 60.06 481.79 58.51
  Q 481.58 57.55 480.60 57.56
  L 462.54 57.81
  Q 462.38 57.81 462.41 57.97
  Q 462.44 58.15 462.37 58.29
  Q 462.26 58.53 462.00 58.58
  Q 459.02 59.13 456.20 60.60
  Q 455.50 60.97 454.97 61.59
  Q 454.20 62.51 453.46 63.36
  Q 453.14 63.74 453.04 64.23
  Q 452.86 65.14 452.31 65.82
  C 453.90 58.21 460.63 54.87 468.00 54.54
  Q 471.24 54.40 482.84 54.64
  Q 483.37 54.65 483.51 54.14
  L 484.68 49.89
  L 485.21 53.26
  Q 485.30 53.85 485.89 53.86
  C 486.64 53.89 487.34 53.38 487.55 52.67
  Q 488.07 50.87 489.29 49.57
  Q 489.61 49.22 489.61 48.74
  L 489.61 46.62
  Q 489.61 46.05 490.02 45.65
  Q 491.97 43.77 493.62 41.82
  Q 495.06 40.12 496.88 38.42
  Q 497.84 37.51 499.50 36.76
  Q 501.16 36.00 502.32 34.82
  Q 502.54 34.60 502.85 34.60
  Q 503.84 34.59 504.34 33.77
  Q 504.49 33.51 504.79 33.59
  Q 505.81 33.87 506.55 33.27
  Q 506.85 33.03 507.21 32.87
  L 510.16 31.53
  Q 511.25 32.13 512.00 31.75
  Q 513.85 30.79 514.48 30.62
  Z"
/>
<path fill="#000100" fill-opacity="0.239" d="
  M 378.05 31.87
  Q 372.17 34.06 367.04 37.95
  Q 366.72 37.19 367.27 36.84
  Q 370.52 34.75 373.71 32.96
  Q 374.00 32.79 374.33 32.87
  Q 374.49 32.91 374.64 32.83
  Q 374.77 32.76 374.83 32.62
  Q 374.90 32.48 374.85 32.33
  Q 374.78 32.10 375.02 32.09
  L 378.05 31.87
  Z"
/>
<path fill="#000000" fill-opacity="0.067" d="
  M 200.08 37.83
  Q 198.96 38.00 196.00 37.76
  Q 194.29 37.62 191.60 38.79
  Q 190.95 38.96 190.47 39.69
  Q 189.66 40.88 189.14 41.25
  A 2.95 2.92 -17.8 0 0 187.90 43.64
  Q 187.81 71.68 187.90 98.99
  Q 187.91 101.49 189.43 104.20
  Q 189.68 104.66 190.15 104.89
  Q 194.16 106.90 199.33 105.92
  Q 200.35 105.72 199.42 105.25
  Q 199.15 105.11 198.95 104.88
  Q 198.65 104.54 198.96 104.21
  Q 199.18 103.97 199.23 103.69
  L 205.28 103.78
  Q 205.14 106.61 204.90 107.35
  Q 204.12 109.73 201.76 109.56
  Q 198.20 109.31 193.90 109.39
  Q 190.35 109.46 187.92 107.81
  Q 186.23 106.66 185.40 104.25
  Q 184.70 102.22 184.71 100.01
  Q 184.85 77.65 184.67 55.34
  Q 184.64 52.34 184.51 49.17
  Q 184.36 45.43 184.97 41.72
  Q 185.05 41.23 185.46 40.95
  Q 186.57 40.19 186.93 38.99
  A 1.92 1.90 -9.3 0 1 187.66 37.98
  Q 189.74 36.50 192.89 35.81
  Q 193.76 35.62 194.73 35.85
  Q 195.44 36.02 196.13 36.20
  Q 196.64 36.33 196.96 36.74
  Q 197.88 37.92 200.08 37.83
  Z"
/>
<path fill="#000000" fill-opacity="0.067" d="
  M 154.62 37.77
  Q 152.26 37.99 151.71 38.71
  Q 150.98 39.01 151.12 39.51
  Q 150.77 40.14 150.09 40.09
  Q 149.60 40.06 149.35 40.48
  Q 147.62 43.40 147.62 45.50
  Q 147.62 72.87 147.68 100.25
  C 147.69 103.44 149.64 102.71 150.89 104.63
  A 0.59 0.58 62.8 0 0 151.58 104.86
  Q 151.75 104.80 151.89 104.70
  Q 152.70 104.19 151.46 104.43
  Q 151.05 104.51 150.79 104.07
  A 0.46 0.45 -58.5 0 1 150.73 103.81
  L 150.81 101.97
  Q 150.83 101.41 150.27 101.42
  Q 148.90 101.44 148.89 100.00
  Q 148.78 69.99 148.89 44.60
  Q 148.90 43.48 149.13 42.35
  Q 149.21 41.99 149.43 41.71
  Q 149.72 41.33 150.18 41.53
  A 0.47 0.47 0.0 0 0 150.80 41.26
  Q 151.10 40.48 151.72 40.81
  Q 151.99 41.25 151.81 42.20
  L 149.57 43.48
  A 0.90 0.87 75.6 0 0 149.13 44.25
  L 149.13 99.22
  Q 149.13 99.71 149.62 99.74
  Q 150.75 99.82 151.48 100.93
  L 151.55 103.16
  Q 151.56 103.67 152.07 103.68
  L 163.68 103.88
  Q 160.26 105.04 156.29 104.68
  Q 155.50 104.61 156.00 105.22
  Q 156.25 105.52 156.63 105.39
  A 0.69 0.69 0.0 0 1 157.54 106.04
  Q 157.54 106.35 157.29 106.61
  Q 157.05 106.87 156.71 106.93
  Q 155.28 107.20 153.88 107.49
  Q 151.06 108.05 148.72 107.05
  Q 148.24 106.85 147.93 106.44
  L 146.17 104.19
  A 0.78 0.77 -69.0 0 1 146.00 103.80
  Q 145.38 100.06 145.39 96.07
  Q 145.44 71.16 145.31 46.35
  Q 145.30 43.78 146.06 41.75
  Q 147.21 38.68 150.01 37.05
  Q 150.75 36.62 151.40 37.16
  Q 151.75 37.45 152.20 37.33
  Q 153.86 36.88 154.62 37.77
  Z"
/>
<path fill="#ffffff" d="
  M 205.28 103.78
  L 199.23 103.69
  L 192.08 103.45
  Q 191.57 103.43 191.57 102.92
  L 191.60 38.79
  Q 194.29 37.62 196.00 37.76
  Q 198.96 38.00 200.08 37.83
  C 202.67 37.64 205.29 37.17 207.76 37.98
  Q 209.75 38.64 211.76 38.17
  A 0.62 0.62 0.0 0 1 212.52 38.78
  L 212.51 102.97
  Q 212.51 103.47 212.02 103.49
  L 205.28 103.78
  Z"
/>
<path fill="#ffffff" d="
  M 154.62 37.77
  L 171.74 38.62
  A 1.41 1.40 8.5 0 1 173.03 40.36
  Q 172.43 42.82 172.36 45.56
  Q 172.04 57.81 172.53 69.78
  Q 172.71 74.24 172.55 78.62
  C 172.39 82.77 172.20 86.54 172.50 90.81
  Q 172.94 96.74 172.18 102.90
  Q 172.12 103.40 171.63 103.42
  L 163.68 103.88
  L 152.07 103.68
  Q 151.56 103.67 151.55 103.16
  L 151.48 100.93
  L 151.81 42.20
  Q 151.99 41.25 151.72 40.81
  Q 152.09 39.82 151.71 38.71
  Q 152.26 37.99 154.62 37.77
  Z"
/>
<path fill="#000100" fill-opacity="0.239" d="
  M 366.77 38.02
  Q 352.74 49.47 349.34 67.37
  Q 348.87 69.83 349.11 76.75
  Q 349.29 82.25 350.65 86.30
  Q 354.08 96.49 363.54 101.34
  Q 366.27 102.73 369.45 102.77
  Q 374.63 102.82 380.49 102.62
  Q 382.48 102.55 385.03 102.07
  Q 383.70 103.95 381.01 104.42
  Q 375.62 105.38 368.05 105.13
  Q 366.32 105.08 364.50 104.65
  Q 362.76 104.23 361.00 103.81
  Q 359.22 103.39 357.76 101.61
  Q 357.52 101.32 357.15 101.18
  Q 357.01 101.13 356.86 101.09
  Q 356.52 100.99 356.29 100.73
  Q 355.33 99.65 354.16 98.64
  Q 353.06 97.69 352.19 96.51
  Q 351.31 95.33 350.44 94.15
  Q 347.88 90.70 346.89 86.35
  Q 345.42 79.92 345.92 72.74
  Q 346.28 67.60 348.13 61.07
  Q 349.06 57.79 350.69 55.20
  Q 352.54 52.25 354.13 49.34
  Q 354.82 48.09 355.87 47.00
  Q 356.86 45.99 357.75 44.79
  Q 359.22 42.82 360.62 42.13
  Q 361.32 41.79 361.54 41.26
  Q 361.73 40.82 362.13 40.56
  Q 363.91 39.41 365.63 38.13
  Q 365.90 37.93 366.77 38.02
  Z"
/>
<path fill="#000100" fill-opacity="0.239" d="
  M 151.71 38.71
  Q 152.09 39.82 151.72 40.81
  Q 151.10 40.48 150.80 41.26
  A 0.47 0.47 0.0 0 1 150.18 41.53
  Q 149.72 41.33 149.43 41.71
  Q 149.21 41.99 149.13 42.35
  Q 148.90 43.48 148.89 44.60
  Q 148.78 69.99 148.89 100.00
  Q 148.90 101.44 150.27 101.42
  Q 150.83 101.41 150.81 101.97
  L 150.73 103.81
  A 0.46 0.45 -58.5 0 0 150.79 104.07
  Q 151.05 104.51 151.46 104.43
  Q 152.70 104.19 151.89 104.70
  Q 151.75 104.80 151.58 104.86
  A 0.59 0.58 62.8 0 1 150.89 104.63
  C 149.64 102.71 147.69 103.44 147.68 100.25
  Q 147.62 72.87 147.62 45.50
  Q 147.62 43.40 149.35 40.48
  Q 149.60 40.06 150.09 40.09
  Q 150.77 40.14 151.12 39.51
  Q 150.98 39.01 151.71 38.71
  Z"
/>
<path fill="#000100" fill-opacity="0.239" d="
  M 191.60 38.79
  L 191.57 102.92
  Q 191.57 103.43 192.08 103.45
  L 199.23 103.69
  Q 199.18 103.97 198.96 104.21
  Q 198.65 104.54 198.95 104.88
  Q 199.15 105.11 199.42 105.25
  Q 200.35 105.72 199.33 105.92
  Q 194.16 106.90 190.15 104.89
  Q 189.68 104.66 189.43 104.20
  Q 187.91 101.49 187.90 98.99
  Q 187.81 71.68 187.90 43.64
  A 2.95 2.92 -17.8 0 1 189.14 41.25
  Q 189.66 40.88 190.47 39.69
  Q 190.95 38.96 191.60 38.79
  Z"
/>
<path fill="#000100" fill-opacity="0.239" d="
  M 115.74 98.41
  Q 113.91 101.19 113.26 101.76
  Q 110.62 104.09 105.77 106.14
  Q 104.47 106.69 103.19 106.66
  C 101.76 106.62 100.07 106.89 98.75 106.27
  Q 97.81 105.82 96.79 105.64
  Q 95.52 105.40 94.30 104.63
  Q 93.14 103.89 91.91 103.06
  Q 90.69 102.25 90.01 101.07
  Q 89.07 99.46 87.97 98.12
  Q 86.93 96.85 86.21 95.28
  Q 85.49 93.74 85.13 92.17
  Q 84.40 88.97 83.46 85.93
  Q 83.11 84.78 83.04 83.64
  Q 82.94 81.93 82.18 80.41
  Q 81.38 78.79 81.02 76.85
  Q 79.49 68.54 76.87 60.51
  Q 76.83 60.39 76.06 57.44
  Q 75.41 54.97 73.82 52.83
  Q 73.13 51.92 73.05 53.05
  Q 72.98 53.96 71.44 53.64
  L 75.05 41.54
  Q 75.55 39.88 76.17 41.50
  C 77.07 43.87 77.19 46.38 78.14 48.81
  Q 78.84 50.58 79.31 52.33
  Q 84.00 69.52 88.49 86.22
  Q 89.61 90.37 90.82 93.93
  C 93.37 101.42 101.59 105.40 108.75 103.43
  Q 112.28 102.46 115.74 98.41
  Z"
/>
<path fill="#000100" fill-opacity="0.239" d="
  M 151.81 42.20
  L 151.48 100.93
  Q 150.75 99.82 149.62 99.74
  Q 149.13 99.71 149.13 99.22
  L 149.13 44.25
  A 0.90 0.87 75.6 0 1 149.57 43.48
  L 151.81 42.20
  Z"
/>
<path fill="#000100" fill-opacity="0.239" d="
  M 514.61 58.45
  Q 519.48 57.89 524.31 58.11
  Q 524.51 58.12 524.69 58.03
  Q 524.88 57.94 524.94 57.74
  A 0.45 0.44 -81.9 0 1 525.33 57.44
  L 529.22 57.22
  Q 529.87 57.18 529.87 56.53
  L 529.87 53.98
  Q 529.87 53.42 529.46 53.04
  Q 523.33 47.38 515.83 50.94
  Q 515.34 51.17 514.81 51.08
  Q 513.71 50.89 513.30 51.90
  Q 513.13 52.32 512.78 52.64
  L 509.89 55.26
  Q 513.18 49.82 515.72 48.51
  Q 523.54 44.49 531.38 47.81
  C 535.13 49.39 535.81 54.12 535.95 57.63
  A 0.70 0.70 0.0 0 1 535.25 58.36
  L 514.61 58.45
  Z"
/>
<path fill="#000100" fill-opacity="0.239" d="
  M 345.11 49.42
  L 344.90 57.29
  Q 344.88 57.83 344.56 58.25
  Q 344.37 58.49 344.25 58.77
  Q 344.14 59.01 344.13 59.28
  Q 344.10 62.01 344.16 64.71
  Q 344.17 65.24 343.67 65.41
  Q 343.49 65.48 343.37 65.62
  Q 343.10 65.95 343.12 66.37
  Q 343.16 67.73 343.21 68.98
  Q 343.25 69.97 342.46 70.62
  Q 342.13 70.89 342.13 71.32
  L 342.13 72.11
  Q 342.13 72.55 341.76 72.81
  Q 340.45 73.73 340.89 75.68
  Q 341.07 76.50 340.47 77.09
  Q 339.67 77.88 339.86 79.10
  Q 339.98 79.84 339.31 80.17
  Q 338.43 80.62 338.60 81.64
  Q 338.70 82.19 338.47 82.71
  Q 337.51 84.89 335.66 86.42
  Q 339.94 78.75 340.75 74.00
  Q 342.85 61.71 345.11 49.42
  Z"
/>
<path fill="#000100" fill-opacity="0.239" d="
  M 395.14 87.87
  Q 394.77 86.07 395.76 83.01
  Q 396.37 81.11 394.81 80.37
  A 1.81 1.80 -72.3 0 1 393.81 78.41
  Q 394.95 72.18 395.31 65.75
  Q 395.52 62.12 394.35 58.00
  Q 393.96 56.61 392.51 55.94
  Q 391.87 54.43 390.98 54.15
  Q 383.93 51.91 377.80 56.09
  Q 377.41 56.36 377.37 56.83
  Q 377.35 57.07 377.50 57.26
  Q 375.32 58.14 374.13 60.15
  Q 373.89 61.78 373.24 61.56
  Q 375.24 56.21 381.39 52.16
  Q 387.27 48.29 394.35 51.10
  C 398.30 52.67 399.29 54.76 399.56 58.95
  Q 399.84 63.42 399.09 67.97
  Q 397.44 77.94 395.14 87.87
  Z"
/>
<path fill="#000000" fill-opacity="0.067" d="
  M 514.61 58.45
  L 513.48 58.77
  Q 513.02 58.90 512.94 59.37
  L 510.29 73.89
  Q 509.78 73.77 509.93 74.41
  A 1.06 1.03 5.5 0 0 510.53 75.12
  Q 512.88 76.16 515.50 76.12
  Q 523.20 75.99 530.89 76.37
  Q 530.89 76.37 530.89 76.37
  Q 530.89 76.37 530.89 76.36
  Q 530.90 76.35 530.89 76.35
  Q 530.57 76.35 530.45 76.28
  A 0.55 0.53 -42.2 0 1 530.51 75.35
  Q 530.98 75.10 531.48 75.11
  Q 534.79 75.15 537.89 74.88
  Q 538.04 74.86 538.16 74.75
  Q 538.25 74.65 538.27 74.51
  Q 538.30 74.35 538.45 74.35
  L 551.32 74.13
  L 554.57 74.34
  Q 554.56 75.03 553.77 75.41
  Q 553.29 75.64 553.52 76.12
  Q 554.45 78.06 552.53 79.64
  A 1.12 1.07 -62.8 0 1 551.81 79.89
  Q 551.02 79.88 550.31 80.17
  Q 549.87 80.36 549.40 80.29
  Q 546.99 79.94 544.82 80.18
  A 1.35 1.35 0.0 0 0 543.91 82.37
  Q 545.05 83.79 543.69 84.14
  L 536.86 78.63
  A 1.66 1.66 0.0 0 0 534.62 78.76
  Q 529.81 83.69 524.94 85.41
  C 521.54 86.60 516.38 86.77 512.97 85.23
  C 501.83 80.22 505.26 63.54 509.89 55.26
  L 512.78 52.64
  Q 513.13 52.32 513.30 51.90
  Q 513.71 50.89 514.81 51.08
  Q 515.34 51.17 515.83 50.94
  Q 523.33 47.38 529.46 53.04
  Q 529.87 53.42 529.87 53.98
  L 529.87 56.53
  Q 529.87 57.18 529.22 57.22
  L 525.33 57.44
  A 0.45 0.44 -81.9 0 0 524.94 57.74
  Q 524.88 57.94 524.69 58.03
  Q 524.51 58.12 524.31 58.11
  Q 519.48 57.89 514.61 58.45
  Z"
/>
<path fill="#000000" fill-opacity="0.067" d="
  M 115.74 98.41
  L 116.76 97.03
  Q 117.92 99.83 116.59 101.59
  Q 114.21 104.74 109.74 107.10
  Q 103.52 110.39 96.83 108.41
  Q 95.88 108.13 95.13 107.63
  Q 94.56 107.27 93.85 107.18
  Q 93.15 107.10 92.54 106.64
  Q 87.87 103.13 87.14 101.78
  Q 86.01 99.69 84.90 97.75
  Q 83.59 95.46 83.14 93.47
  Q 82.32 89.80 81.23 86.20
  Q 80.14 82.62 79.19 78.98
  Q 76.72 69.56 73.80 59.84
  Q 73.50 58.85 73.12 59.82
  Q 72.76 60.73 71.99 60.25
  Q 71.43 59.90 71.29 60.55
  Q 70.86 62.59 69.28 62.09
  L 71.44 53.64
  Q 72.98 53.96 73.05 53.05
  Q 73.13 51.92 73.82 52.83
  Q 75.41 54.97 76.06 57.44
  Q 76.83 60.39 76.87 60.51
  Q 79.49 68.54 81.02 76.85
  Q 81.38 78.79 82.18 80.41
  Q 82.94 81.93 83.04 83.64
  Q 83.11 84.78 83.46 85.93
  Q 84.40 88.97 85.13 92.17
  Q 85.49 93.74 86.21 95.28
  Q 86.93 96.85 87.97 98.12
  Q 89.07 99.46 90.01 101.07
  Q 90.69 102.25 91.91 103.06
  Q 93.14 103.89 94.30 104.63
  Q 95.52 105.40 96.79 105.64
  Q 97.81 105.82 98.75 106.27
  C 100.07 106.89 101.76 106.62 103.19 106.66
  Q 104.47 106.69 105.77 106.14
  Q 110.62 104.09 113.26 101.76
  Q 113.91 101.19 115.74 98.41
  Z"
/>
<path fill="#000000" fill-opacity="0.067" d="
  M 392.51 55.94
  Q 392.28 56.10 391.97 56.14
  A 0.98 0.97 -26.5 0 1 391.12 55.86
  Q 390.37 55.10 389.28 55.13
  Q 388.75 55.15 388.28 54.91
  Q 386.46 53.98 384.51 54.40
  Q 383.06 54.72 380.05 55.62
  Q 379.60 55.75 379.40 56.18
  Q 379.03 56.99 377.50 57.26
  Q 377.35 57.07 377.37 56.83
  Q 377.41 56.36 377.80 56.09
  Q 383.93 51.91 390.98 54.15
  Q 391.87 54.43 392.51 55.94
  Z"
/>
<path fill="#000000" fill-opacity="0.067" d="
  M 375.29 79.75
  Q 371.87 78.26 371.44 74.00
  Q 370.88 68.47 372.08 65.02
  Q 373.70 61.99 374.28 62.56
  A 0.23 0.23 0.0 0 0 374.67 62.44
  Q 375.32 59.20 377.58 58.74
  Q 377.90 58.67 378.08 58.41
  Q 378.74 57.44 379.84 57.13
  Q 380.60 56.91 381.33 56.52
  Q 383.19 55.54 385.25 55.55
  Q 386.97 55.56 389.02 55.90
  Q 389.52 55.99 389.88 56.34
  Q 390.91 57.34 391.83 58.52
  C 393.39 60.52 393.19 63.69 393.16 66.16
  Q 393.13 67.98 392.51 69.70
  Q 391.77 71.77 391.88 73.79
  Q 391.96 75.36 391.37 76.82
  Q 390.92 77.92 391.13 79.01
  Q 391.28 79.76 390.52 79.82
  L 380.92 80.56
  Q 380.60 80.58 380.87 80.42
  L 383.86 78.60
  Q 384.23 78.37 384.67 78.37
  L 389.21 78.37
  A 1.16 1.15 -82.0 0 0 390.32 77.53
  Q 392.41 70.32 392.32 63.67
  Q 392.29 61.28 391.53 59.18
  A 2.51 2.51 0.0 0 0 390.03 57.68
  Q 384.93 55.80 380.26 58.29
  Q 378.88 59.02 378.12 60.05
  Q 377.23 61.25 376.21 62.32
  A 1.88 1.84 73.4 0 0 375.72 63.25
  Q 375.43 64.63 374.27 65.46
  Q 373.87 65.74 373.87 66.23
  C 373.88 68.77 374.21 71.86 373.53 74.29
  Q 373.15 75.62 373.25 76.92
  Q 373.29 77.47 373.72 77.82
  Q 374.77 78.66 375.29 79.75
  Z"
/>
<path fill="#000100" fill-opacity="0.239" d="
  M 304.15 55.66
  Q 304.98 58.48 303.65 60.37
  Q 303.58 60.69 303.23 60.70
  L 304.15 55.66
  Z"
/>
<path fill="#000000" fill-opacity="0.067" d="
  M 377.50 57.26
  Q 377.82 57.91 376.86 58.33
  Q 376.43 58.51 376.22 58.94
  Q 375.73 59.89 374.13 60.15
  Q 375.32 58.14 377.50 57.26
  Z"
/>
<path fill="#000000" fill-opacity="0.067" d="
  M 545.22 93.90
  L 547.03 92.36
  L 547.29 95.53
  Q 547.33 96.03 546.99 96.40
  Q 544.03 99.65 542.61 100.60
  Q 537.33 104.14 530.37 106.96
  Q 528.69 107.65 526.95 107.93
  Q 516.03 109.69 504.07 108.47
  Q 500.80 108.14 498.12 106.92
  Q 495.58 105.77 493.08 104.44
  Q 489.86 102.73 486.89 100.01
  Q 485.91 99.11 484.70 97.45
  Q 483.70 96.07 482.60 94.77
  Q 481.31 93.22 480.53 91.72
  Q 479.68 90.09 478.82 88.42
  Q 478.18 87.18 478.02 85.96
  Q 477.89 84.97 477.42 84.12
  Q 477.08 83.51 476.99 82.78
  Q 475.68 72.90 478.27 63.15
  A 1.87 1.87 0.0 0 0 476.44 60.80
  Q 470.72 60.87 465.18 60.94
  Q 460.55 61.00 456.76 63.37
  A 1.29 1.29 0.0 0 0 456.20 64.13
  Q 455.15 68.09 451.52 69.84
  L 452.31 65.82
  Q 452.86 65.14 453.04 64.23
  Q 453.14 63.74 453.46 63.36
  Q 454.20 62.51 454.97 61.59
  Q 455.50 60.97 456.20 60.60
  Q 459.02 59.13 462.00 58.58
  Q 462.26 58.53 462.37 58.29
  Q 462.44 58.15 462.41 57.97
  Q 462.38 57.81 462.54 57.81
  L 480.60 57.56
  Q 481.58 57.55 481.79 58.51
  Q 482.13 60.06 481.70 61.58
  Q 478.73 72.04 480.48 83.15
  Q 480.69 84.49 481.20 85.63
  Q 481.76 86.89 482.17 88.39
  Q 482.83 90.80 484.70 92.82
  Q 485.83 94.04 486.51 95.49
  Q 487.22 96.99 488.57 98.05
  Q 489.64 98.89 490.57 99.88
  C 491.72 101.11 493.18 101.30 494.48 102.19
  Q 498.67 105.08 503.14 105.56
  Q 514.78 106.83 526.32 105.32
  C 528.29 105.06 530.24 104.13 532.40 103.73
  Q 532.94 103.63 533.18 103.14
  Q 533.47 102.55 534.13 102.65
  Q 534.64 102.72 534.93 102.29
  Q 535.50 101.46 536.41 101.17
  C 537.87 100.71 539.31 99.20 540.51 98.23
  Q 540.57 98.18 542.87 96.77
  Q 544.44 95.80 545.22 93.90
  Z"
/>
<path fill="#000100" fill-opacity="0.239" d="
  M 510.29 73.89
  L 551.32 74.13
  L 538.45 74.35
  Q 538.30 74.35 538.27 74.51
  Q 538.25 74.65 538.16 74.75
  Q 538.04 74.86 537.89 74.88
  Q 534.79 75.15 531.48 75.11
  Q 530.98 75.10 530.51 75.35
  A 0.55 0.53 -42.2 0 0 530.45 76.28
  Q 530.57 76.35 530.89 76.35
  Q 530.90 76.35 530.89 76.36
  Q 530.89 76.37 530.89 76.37
  Q 530.89 76.37 530.89 76.37
  Q 523.20 75.99 515.50 76.12
  Q 512.88 76.16 510.53 75.12
  A 1.06 1.03 5.5 0 1 509.93 74.41
  Q 509.78 73.77 510.29 73.89
  Z"
/>
<path fill="#000100" fill-opacity="0.239" d="
  M 383.54 80.70
  L 388.28 81.05
  Q 383.27 83.00 378.44 81.04
  L 383.54 80.70
  Z"
/>
<path fill="#000100" fill-opacity="0.239" d="
  M 417.45 88.23
  Q 418.14 90.92 416.82 91.82
  L 417.45 88.23
  Z"
/>
<path fill="#000100" fill-opacity="0.239" d="
  M 416.37 94.20
  L 416.38 97.02
  Q 416.38 97.46 416.10 97.79
  Q 415.36 98.68 415.64 99.90
  A 1.47 1.46 -7.5 0 1 414.26 101.69
  Q 413.07 101.72 412.27 102.56
  Q 411.92 102.94 411.43 103.07
  C 408.87 103.75 406.59 104.55 403.83 104.44
  C 400.29 104.30 395.76 105.06 392.71 103.11
  Q 392.22 102.79 392.34 102.22
  Q 392.41 101.90 392.08 101.88
  Q 390.16 101.77 390.41 100.02
  Q 390.48 99.51 390.92 99.22
  Q 391.78 98.67 393.23 98.38
  L 393.36 100.97
  A 1.26 1.25 -6.1 0 0 394.83 102.15
  Q 397.82 101.63 400.63 101.95
  Q 406.82 102.65 414.03 101.52
  A 1.03 1.02 1.7 0 0 414.87 100.73
  L 416.37 94.20
  Z"
/>
</svg>
