<?xml version="1.0" encoding="UTF-8" standalone="no"?>
<!DOCTYPE svg PUBLIC "-//W3C//DTD SVG 1.1//EN" "http://www.w3.org/Graphics/SVG/1.1/DTD/svg11.dtd">
<svg xmlns="http://www.w3.org/2000/svg" version="1.1" viewBox="0.00 0.00 479.00 127.00">
<g stroke-width="2.00" fill="none" stroke-linecap="butt">
<path stroke="#d17f26" vector-effect="non-scaling-stroke" d="
  M 282.86 4.50
  L 274.90 3.31
  A 0.69 0.68 -2.8 0 0 274.13 4.15
  Q 274.41 5.26 275.12 6.43
  Q 279.73 14.02 285.01 22.46
  A 62.78 6.35 57.7 0 0 289.76 29.96
  Q 292.94 34.92 296.27 40.94
  Q 298.60 45.13 301.83 46.76
  Q 304.00 47.86 306.82 46.83
  C 308.31 46.29 309.29 44.77 310.35 43.64
  Q 311.53 42.39 312.49 40.44
  Q 314.09 37.19 315.38 34.30
  Q 316.30 32.24 317.84 30.57
  Q 319.35 28.93 320.39 26.87
  Q 321.74 24.17 323.74 21.57
  C 324.94 20.01 325.88 18.21 326.77 16.46
  Q 327.54 14.95 328.64 13.84
  Q 330.36 12.13 331.21 9.74
  C 331.49 8.96 332.17 8.70 332.62 7.99
  Q 333.55 6.51 334.22 5.06
  A 1.06 1.05 -72.2 0 0 333.46 3.58
  Q 328.78 2.70 326.78 4.29"
/>
<path stroke="#d7915a" vector-effect="non-scaling-stroke" d="
  M 326.78 4.29
  L 321.49 13.35"
/>
<path stroke="#d17f26" vector-effect="non-scaling-stroke" d="
  M 321.49 13.35
  Q 318.18 17.95 316.60 21.76
  Q 315.71 23.91 314.70 25.32
  Q 313.56 26.89 313.08 28.84
  Q 312.51 31.13 311.38 32.88
  Q 309.56 35.71 307.88 38.79
  Q 305.81 42.61 301.91 40.58
  Q 300.81 40.00 300.49 38.83
  C 300.12 37.49 299.20 36.19 298.42 35.06
  Q 297.78 34.12 297.26 32.75
  Q 296.70 31.23 295.59 29.27
  Q 294.41 27.14 295.26 25.82"
/>
<path stroke="#d17f26" vector-effect="non-scaling-stroke" d="
  M 287.69 12.81
  Q 287.78 16.21 289.21 15.35"
/>
<path stroke="#f7b665" vector-effect="non-scaling-stroke" d="
  M 321.49 13.35
  Q 326.42 10.05 326.78 4.29"
/>
<path stroke="#f09732" vector-effect="non-scaling-stroke" d="
  M 389.34 2.21
  Q 388.30 2.93 387.00 2.93
  Q 369.63 2.89 352.27 2.86
  Q 348.18 2.86 346.45 3.75
  C 339.38 7.41 341.93 13.53 341.49 19.66
  Q 341.48 19.76 341.40 19.81
  Q 341.28 19.88 341.16 19.87
  Q 340.76 19.87 340.84 20.26
  L 341.22 22.22
  Q 341.31 22.69 341.55 23.11
  C 342.31 24.42 341.45 25.87 342.11 27.13
  Q 342.34 27.58 342.45 28.07
  L 343.11 30.79
  A 1.27 1.27 0.0 0 0 345.31 31.31
  L 348.22 27.86
  A 1.05 1.04 -65.0 0 1 349.17 27.51
  Q 350.41 27.72 351.71 27.45
  Q 353.37 27.10 355.36 27.11
  Q 363.67 27.15 372.50 27.09
  A 2.89 2.88 -82.1 0 0 375.24 25.01
  Q 375.55 23.96 376.10 23.07
  Q 377.06 21.53 375.24 21.58
  L 350.33 22.36
  A 2.42 2.42 0.0 0 1 348.00 20.80
  L 347.45 19.33
  Q 347.26 18.83 347.30 18.29
  C 347.43 16.19 346.89 12.24 348.07 10.59
  Q 349.29 8.88 351.75 8.83
  Q 365.47 8.53 380.52 9.41
  C 382.62 9.54 384.87 10.26 386.60 8.56
  Q 388.99 6.20 391.10 3.91
  Q 391.45 3.53 391.21 3.07
  Q 390.84 2.33 390.04 2.19"
/>
<path stroke="#6a6d6c" vector-effect="non-scaling-stroke" d="
  M 231.40 95.35
  C 228.69 92.97 228.99 88.99 229.41 85.52
  Q 229.88 81.60 232.56 80.62
  Q 235.04 79.71 237.68 79.71
  Q 247.99 79.68 258.34 79.79
  A 0.53 0.53 0.0 0 0 258.87 79.28
  L 259.09 73.97"
/>
<path stroke="#b1b1b1" vector-effect="non-scaling-stroke" d="
  M 233.28 96.77
  Q 227.77 94.52 225.67 97.86"
/>
<path stroke="#6a6d6c" vector-effect="non-scaling-stroke" d="
  M 225.67 97.86
  Q 224.89 97.10 224.56 95.25"
/>
<path stroke="#6a6d6c" vector-effect="non-scaling-stroke" d="
  M 224.56 95.25
  Q 223.56 93.85 223.59 92.28"
/>
<path stroke="#8c8e8d" vector-effect="non-scaling-stroke" d="
  M 225.67 97.86
  C 228.75 101.81 233.54 102.89 238.25 102.85
  Q 248.67 102.76 258.35 102.88
  A 0.73 0.72 90.0 0 0 259.08 102.14
  L 258.95 96.94"
/>
<path stroke="#6a6d6c" vector-effect="non-scaling-stroke" d="
  M 179.26 78.21
  Q 182.02 86.35 180.83 95.07"
/>
<path stroke="#b1b1b1" vector-effect="non-scaling-stroke" d="
  M 180.83 95.07
  Q 180.43 93.93 179.63 93.19
  Q 179.28 92.86 178.80 92.89
  Q 176.89 93.00 176.20 94.76
  Q 176.02 95.21 175.57 95.43
  Q 175.12 95.65 174.75 96.08"
/>
<path stroke="#6a6d6c" vector-effect="non-scaling-stroke" d="
  M 173.99 91.59
  Q 173.77 91.30 174.48 91.03
  A 0.58 0.58 0.0 0 0 174.84 90.33
  Q 174.79 90.17 174.69 90.04
  Q 174.47 89.78 174.13 89.78
  Q 158.65 89.61 153.24 89.77
  Q 149.12 89.89 149.60 94.22"
/>
<path stroke="#b1b1b1" vector-effect="non-scaling-stroke" d="
  M 149.60 94.22
  Q 147.90 93.62 146.76 93.93
  Q 144.32 94.58 143.57 96.22"
/>
<path stroke="#6a6d6c" vector-effect="non-scaling-stroke" d="
  M 171.95 81.88
  Q 172.84 82.17 173.35 82.03
  Q 174.03 81.85 173.44 81.46
  Q 170.95 79.81 167.26 79.75
  Q 156.92 79.57 147.00 79.78
  Q 146.03 79.81 145.61 78.45"
/>
<path stroke="#8c8e8d" vector-effect="non-scaling-stroke" d="
  M 144.63 98.68
  Q 148.40 102.71 153.00 102.75
  Q 166.82 102.87 180.50 102.85
  A 0.51 0.50 -1.1 0 0 181.01 102.33
  L 180.83 95.07"
/>
<path stroke="#6a6d6c" vector-effect="non-scaling-stroke" d="
  M 157.43 91.55
  Q 154.59 90.46 151.94 91.34
  Q 151.46 91.50 151.20 91.93
  Q 150.59 92.95 151.34 93.38"
/>
<path stroke="#8c8e8d" vector-effect="non-scaling-stroke" d="
  M 151.83 96.64
  Q 149.88 96.31 149.60 94.22"
/>
<path stroke="#6a6d6c" vector-effect="non-scaling-stroke" d="
  M 188.72 102.43
  Q 190.33 103.44 193.86 102.95
  A 0.86 0.85 84.5 0 0 194.59 102.06
  Q 194.09 93.00 194.55 83.98
  C 194.69 81.10 196.95 79.61 199.65 79.53
  Q 209.41 79.26 218.46 79.67
  A 0.42 0.42 0.0 0 0 218.90 79.26
  L 218.99 73.96"
/>
<path stroke="#6a6d6c" vector-effect="non-scaling-stroke" d="
  M 301.66 78.60
  Q 303.73 84.59 302.99 90.80"
/>
<path stroke="#b1b1b1" vector-effect="non-scaling-stroke" d="
  M 302.99 90.80
  Q 298.78 88.20 296.93 91.76"
/>
<path stroke="#b1b1b1" vector-effect="non-scaling-stroke" d="
  M 274.04 96.64
  Q 273.53 96.56 273.17 96.25"
/>
<path stroke="#6a6d6c" vector-effect="non-scaling-stroke" d="
  M 273.17 96.25
  Q 272.56 93.90 273.04 92.64
  Q 273.65 91.04 275.36 91.05
  L 296.76 91.15
  A 0.35 0.34 -5.5 0 0 297.10 90.74
  L 297.03 90.31
  Q 296.93 89.76 296.36 89.76
  Q 286.86 89.75 275.71 89.74
  Q 274.20 89.74 273.06 90.45
  Q 270.72 91.92 272.38 96.00"
/>
<path stroke="#b1b1b1" vector-effect="non-scaling-stroke" d="
  M 272.38 96.00
  Q 272.09 95.97 271.84 95.81
  Q 271.41 95.54 271.37 95.04
  Q 271.31 94.32 270.69 93.96
  Q 268.38 92.63 266.64 94.64
  Q 266.30 95.03 266.38 95.55
  L 266.83 98.50"
/>
<path stroke="#6a6d6c" vector-effect="non-scaling-stroke" d="
  M 266.83 98.50
  Q 266.21 98.13 266.17 98.27"
/>
<path stroke="#6a6d6c" vector-effect="non-scaling-stroke" d="
  M 294.96 82.19
  Q 295.29 82.31 295.34 81.93
  Q 295.40 81.52 295.08 81.24
  Q 293.44 79.87 291.25 79.81
  Q 280.13 79.48 269.00 79.71
  Q 268.19 79.73 267.62 79.47"
/>
<path stroke="#8c8e8d" vector-effect="non-scaling-stroke" d="
  M 273.17 96.25
  Q 272.75 95.99 272.38 96.00"
/>
<path stroke="#8c8e8d" vector-effect="non-scaling-stroke" d="
  M 266.83 98.50
  Q 270.10 102.74 274.99 102.78
  Q 288.74 102.89 302.33 102.90
  A 0.86 0.86 0.0 0 0 303.19 102.03
  L 302.99 90.80"
/>
<path stroke="#6a6d6c" vector-effect="non-scaling-stroke" d="
  M 344.92 76.57
  Q 345.55 77.62 346.46 78.54
  Q 347.47 79.56 347.79 80.54
  Q 350.10 87.54 348.04 95.20"
/>
<path stroke="#b1b1b1" vector-effect="non-scaling-stroke" d="
  M 348.04 95.20
  Q 347.73 94.23 347.86 93.89
  A 0.80 0.80 0.0 0 0 346.88 92.85
  Q 343.92 93.75 341.46 96.19"
/>
<path stroke="#6a6d6c" vector-effect="non-scaling-stroke" d="
  M 341.63 83.60
  Q 341.89 80.93 338.72 80.17
  Q 335.95 79.51 335.00 79.51
  Q 326.84 79.47 318.52 79.48
  A 1.17 1.16 0.8 0 0 317.35 80.61
  L 317.22 85.54"
/>
<path stroke="#b1b1b1" vector-effect="non-scaling-stroke" d="
  M 317.22 85.54
  L 311.33 85.92"
/>
<path stroke="#8c8e8d" vector-effect="non-scaling-stroke" d="
  M 311.12 102.83
  Q 331.12 102.95 337.38 102.63
  Q 345.28 102.22 348.04 95.20"
/>
<path stroke="#6a6d6c" vector-effect="non-scaling-stroke" d="
  M 339.53 81.94
  Q 339.26 81.25 338.24 81.13
  Q 336.12 80.90 334.95 81.49"
/>
<path stroke="#8c8e8d" vector-effect="non-scaling-stroke" d="
  M 319.18 96.72
  Q 317.52 97.51 317.37 96.13
  Q 317.12 93.81 317.22 85.54"
/>
<path stroke="#6a6d6c" vector-effect="non-scaling-stroke" d="
  M 391.59 76.97
  Q 393.23 83.10 392.17 87.23
  C 391.17 91.17 385.99 92.83 382.24 92.83
  Q 372.95 92.83 363.07 92.79
  Q 362.05 92.79 362.00 93.80
  Q 361.93 95.02 363.75 95.68
  Q 364.26 95.86 363.96 96.53"
/>
<path stroke="#b1b1b1" vector-effect="non-scaling-stroke" d="
  M 363.96 96.53
  Q 363.04 96.05 362.14 95.51
  Q 361.13 94.92 360.22 94.82
  Q 357.24 94.52 356.53 96.17"
/>
<path stroke="#6a6d6c" vector-effect="non-scaling-stroke" d="
  M 356.53 96.17
  Q 356.56 96.32 356.60 96.47"
/>
<path stroke="#8c8e8d" vector-effect="non-scaling-stroke" d="
  M 390.99 96.94
  L 391.39 101.62
  Q 391.49 102.82 390.29 102.83
  Q 379.04 102.96 368.22 102.79
  Q 363.20 102.71 358.88 99.64
  Q 358.13 99.10 356.53 96.17"
/>
<path stroke="#8c8e8d" vector-effect="non-scaling-stroke" d="
  M 364.24 96.80
  Q 363.91 96.29 363.96 96.53"
/>
<path stroke="#f09732" vector-effect="non-scaling-stroke" d="
  M 201.62 23.46
  Q 202.81 24.28 203.67 23.04
  Q 204.69 21.57 205.39 19.94
  Q 206.03 18.45 206.10 16.92
  Q 206.38 10.78 206.11 4.61
  A 1.05 1.05 0.0 0 0 205.04 3.61
  L 200.65 3.69
  Q 199.50 3.71 199.51 4.85
  L 199.63 24.44
  Q 199.64 25.62 200.52 24.84
  Q 201.14 24.30 201.29 23.59
  Q 201.36 23.27 201.62 23.46"
/>
<path stroke="#d37929" vector-effect="non-scaling-stroke" d="
  M 471.55 66.11
  Q 473.84 68.78 475.49 71.37
  Q 476.77 73.38 476.86 75.35
  Q 477.67 93.06 473.96 108.05
  Q 472.31 114.69 468.74 120.32
  Q 467.34 122.52 464.84 124.07
  Q 463.06 125.18 460.98 124.69
  C 458.49 124.11 456.16 123.09 454.87 120.91
  Q 454.08 119.56 453.06 118.49
  Q 451.60 116.94 450.75 115.04
  Q 449.91 113.15 449.09 111.30
  Q 448.33 109.59 447.15 107.79
  Q 445.15 104.75 443.33 103.26
  Q 438.18 99.07 430.62 96.18
  Q 423.88 93.61 413.63 95.83"
/>
<path stroke="#d37929" vector-effect="non-scaling-stroke" d="
  M 463.46 119.29
  Q 466.08 118.15 465.98 115.43"
/>
<path stroke="#f9b068" vector-effect="non-scaling-stroke" d="
  M 449.04 67.86
  Q 448.32 66.94 446.09 66.25"
/>
<path stroke="#d37929" vector-effect="non-scaling-stroke" d="
  M 420.96 57.05
  Q 416.55 59.43 414.10 62.62
  A 2.24 2.24 0.0 0 1 412.12 63.49
  Q 408.08 63.11 403.51 63.14
  Q 378.59 63.28 354.25 63.12
  Q 294.98 62.75 244.75 63.10
  Q 234.69 63.18 224.75 63.18
  Q 159.42 63.19 92.25 63.20
  Q 51.89 63.21 0.71 63.10
  Q 0.45 63.10 0.33 62.86
  Q 0.25 62.69 0.00 62.63"
/>
<path stroke="#f9b068" vector-effect="non-scaling-stroke" d="
  M 15.97 58.48
  Q 14.56 59.14 12.66 58.90
  A 1.19 1.14 -54.8 0 0 11.90 59.05
  Q 11.75 59.13 11.57 59.18
  Q 10.64 59.46 11.58 59.72
  C 12.18 59.89 12.57 60.23 13.20 60.29
  Q 18.18 60.79 23.50 60.82
  C 51.02 61.02 78.45 60.47 106.25 60.02
  Q 109.02 59.98 112.00 60.08
  Q 112.54 60.10 113.07 59.97
  Q 113.77 59.79 114.43 59.95
  Q 115.29 60.15 116.17 60.15
  Q 168.52 60.07 220.87 59.82
  A 2.00 1.86 -55.9 0 0 221.70 59.63
  C 222.95 59.03 224.14 59.83 225.33 58.96
  Q 225.72 58.68 226.20 58.66
  L 230.96 58.52"
/>
<path stroke="#d7915a" vector-effect="non-scaling-stroke" d="
  M 448.95 69.12
  L 446.34 67.91"
/>
<path stroke="#f9b068" vector-effect="non-scaling-stroke" d="
  M 446.34 67.91
  Q 446.22 67.66 446.00 67.60"
/>
<path stroke="#d37929" vector-effect="non-scaling-stroke" d="
  M 446.34 67.91
  Q 446.20 67.98 446.13 68.12
  Q 445.99 68.42 446.29 68.55
  Q 452.24 71.23 451.22 78.02
  Q 450.91 80.08 449.09 81.63
  Q 444.40 85.61 437.35 81.98"
/>
<path stroke="#d37929" vector-effect="non-scaling-stroke" d="
  M 446.65 74.97
  Q 445.29 71.02 442.02 72.73
  C 440.22 73.67 439.63 75.32 440.06 77.24
  Q 440.52 79.30 442.40 78.77"
/>
<path stroke="#6a6d6c" vector-effect="non-scaling-stroke" d="
  M 385.39 81.82
  Q 386.93 80.91 384.96 80.09
  Q 384.31 79.82 383.60 79.77
  Q 375.51 79.16 367.22 79.83
  Q 361.84 80.27 361.04 85.26
  Q 360.79 86.81 362.02 85.84
  Q 362.21 85.69 362.99 85.64"
/>
</g>
<path fill="#92c63c" d="
  M 125.9400 49.7600
  A 24.59 22.43 90.0 0 1 103.5100 25.1700
  A 24.59 22.43 90.0 0 1 125.9400 0.5800
  A 24.59 22.43 90.0 0 1 148.3700 25.1700
  A 24.59 22.43 90.0 0 1 125.9400 49.7600
  Z
  M 109.21 30.25
  Q 109.71 34.00 111.84 37.26
  Q 117.34 45.72 127.90 44.81
  Q 131.99 44.46 135.17 42.31
  Q 139.08 39.67 140.97 35.63
  Q 143.86 29.43 143.26 23.00
  Q 142.63 16.35 139.14 11.76
  Q 134.46 5.62 126.50 5.36
  Q 120.82 5.17 116.53 8.13
  Q 112.15 11.17 110.14 16.35
  Q 107.97 21.94 108.71 28.46
  Q 108.74 28.72 108.72 28.98
  Q 108.69 29.33 108.92 29.60
  Q 109.16 29.88 109.21 30.25
  Z"
/>
<path fill="#92c63c" d="
  M 44.69 24.42
  L 62.04 48.02
  A 0.31 0.31 0.0 0 1 61.78 48.51
  L 57.01 48.43
  A 0.31 0.31 0.0 0 1 56.77 48.31
  L 42.04 28.37
  A 0.31 0.31 0.0 0 0 41.54 28.37
  L 26.83 48.33
  A 0.31 0.31 0.0 0 1 26.58 48.46
  L 21.81 48.50
  A 0.31 0.31 0.0 0 1 21.56 48.00
  L 38.87 24.43
  A 0.31 0.31 0.0 0 0 38.87 24.07
  L 22.85 2.33
  A 0.31 0.31 0.0 0 1 23.10 1.83
  L 27.90 1.95
  A 0.31 0.31 0.0 0 1 28.14 2.07
  L 41.55 20.21
  A 0.31 0.31 0.0 0 0 42.05 20.21
  L 55.46 2.07
  A 0.31 0.31 0.0 0 1 55.70 1.95
  L 60.49 1.88
  A 0.31 0.31 0.0 0 1 60.75 2.37
  L 44.69 24.06
  A 0.31 0.31 0.0 0 0 44.69 24.42
  Z"
/>
<path fill="#92c63c" d="
  M 65.02 26.49
  L 56.32 26.56
  A 0.23 0.23 0.0 0 1 56.13 26.19
  L 58.97 22.29
  A 0.71 0.70 17.3 0 1 59.55 21.99
  L 64.78 21.98
  A 0.77 0.76 0.0 0 0 65.55 21.22
  L 65.54 2.70
  Q 65.54 1.90 66.34 1.91
  Q 74.74 1.98 84.50 1.94
  C 92.07 1.91 98.56 4.88 99.52 13.13
  Q 100.25 19.45 94.63 23.41
  A 0.58 0.58 0.0 0 0 94.71 24.41
  C 99.46 26.75 101.60 31.53 100.95 36.67
  C 99.92 44.73 92.81 48.37 85.29 48.42
  Q 75.76 48.48 66.04 48.46
  A 0.51 0.51 0.0 0 1 65.54 47.95
  L 65.55 27.02
  A 0.53 0.52 89.5 0 0 65.02 26.49
  Z
  M 70.63 6.93
  L 70.61 21.49
  A 0.46 0.46 0.0 0 0 71.07 21.95
  L 85.75 21.98
  A 8.84 7.24 0.1 0 0 94.60 14.75
  L 94.60 13.75
  A 8.84 7.24 0.1 0 0 85.77 6.50
  L 71.09 6.47
  A 0.46 0.46 0.0 0 0 70.63 6.93
  Z
  M 70.62 26.80
  L 70.60 43.44
  A 0.29 0.29 0.0 0 0 70.88 43.73
  L 86.29 43.76
  A 9.70 7.88 0.1 0 0 96.01 35.89
  L 96.01 34.43
  A 9.70 7.88 0.1 0 0 86.33 26.54
  L 70.92 26.51
  A 0.29 0.29 0.0 0 0 70.62 26.80
  Z"
/>
<path fill="#92c63c" d="
  M 164.32 28.37
  L 149.61 48.33
  A 0.31 0.31 0.0 0 1 149.36 48.46
  L 144.59 48.50
  A 0.31 0.31 0.0 0 1 144.34 48.00
  L 161.63 24.41
  A 0.31 0.31 0.0 0 0 161.63 24.05
  L 145.54 2.30
  A 0.31 0.31 0.0 0 1 145.81 1.80
  L 150.70 1.99
  A 0.31 0.31 0.0 0 1 150.94 2.12
  L 164.31 20.20
  A 0.31 0.31 0.0 0 0 164.81 20.20
  L 178.16 2.12
  A 0.31 0.31 0.0 0 1 178.40 1.99
  L 183.29 1.83
  A 0.31 0.31 0.0 0 1 183.55 2.33
  L 167.48 24.05
  A 0.31 0.31 0.0 0 0 167.48 24.41
  L 184.81 47.99
  A 0.31 0.31 0.0 0 1 184.56 48.49
  L 179.77 48.46
  A 0.31 0.31 0.0 0 1 179.52 48.33
  L 164.82 28.37
  A 0.31 0.31 0.0 0 0 164.32 28.37
  Z"
/>
<path fill="#ea7632" d="
  M 207.25 39.06
  A 1.40 1.39 76.3 0 0 208.49 39.82
  L 246.53 39.77
  Q 246.87 39.77 246.87 40.11
  L 246.86 48.21
  Q 246.86 48.53 246.54 48.53
  Q 228.34 48.46 210.02 48.56
  Q 205.76 48.58 203.53 47.27
  C 200.19 45.30 198.35 41.99 198.33 38.14
  Q 198.25 20.62 198.29 2.71
  A 0.65 0.64 0.0 0 1 198.94 2.07
  L 206.53 2.08
  A 0.56 0.55 0.0 0 1 207.09 2.63
  Q 207.22 19.29 207.02 38.06
  Q 207.01 38.61 207.25 39.06
  Z
  M 201.62 23.46
  Q 202.81 24.28 203.67 23.04
  Q 204.69 21.57 205.39 19.94
  Q 206.03 18.45 206.10 16.92
  Q 206.38 10.78 206.11 4.61
  A 1.05 1.05 0.0 0 0 205.04 3.61
  L 200.65 3.69
  Q 199.50 3.71 199.51 4.85
  L 199.63 24.44
  Q 199.64 25.62 200.52 24.84
  Q 201.14 24.30 201.29 23.59
  Q 201.36 23.27 201.62 23.46
  Z"
/>
<path fill="#b05a1b" fill-opacity="0.996" d="
  M 282.86 4.50
  L 274.90 3.31
  A 0.69 0.68 -2.8 0 0 274.13 4.15
  Q 274.41 5.26 275.12 6.43
  Q 279.73 14.02 285.01 22.46
  A 62.78 6.35 57.7 0 0 289.76 29.96
  Q 292.94 34.92 296.27 40.94
  Q 298.60 45.13 301.83 46.76
  Q 304.00 47.86 306.82 46.83
  C 308.31 46.29 309.29 44.77 310.35 43.64
  Q 311.53 42.39 312.49 40.44
  Q 314.09 37.19 315.38 34.30
  Q 316.30 32.24 317.84 30.57
  Q 319.35 28.93 320.39 26.87
  Q 321.74 24.17 323.74 21.57
  C 324.94 20.01 325.88 18.21 326.77 16.46
  Q 327.54 14.95 328.64 13.84
  Q 330.36 12.13 331.21 9.74
  C 331.49 8.96 332.17 8.70 332.62 7.99
  Q 333.55 6.51 334.22 5.06
  A 1.06 1.05 -72.2 0 0 333.46 3.58
  Q 328.78 2.70 326.78 4.29
  L 321.49 13.35
  Q 318.18 17.95 316.60 21.76
  Q 315.71 23.91 314.70 25.32
  Q 313.56 26.89 313.08 28.84
  Q 312.51 31.13 311.38 32.88
  Q 309.56 35.71 307.88 38.79
  Q 305.81 42.61 301.91 40.58
  Q 300.81 40.00 300.49 38.83
  C 300.12 37.49 299.20 36.19 298.42 35.06
  Q 297.78 34.12 297.26 32.75
  Q 296.70 31.23 295.59 29.27
  Q 294.41 27.14 295.26 25.82
  L 303.34 39.34
  Q 304.12 40.64 304.98 39.39
  Q 306.54 37.15 308.09 34.44
  Q 317.44 18.04 326.57 2.29
  Q 326.70 2.06 326.97 2.06
  L 336.67 2.04
  A 0.08 0.07 -73.8 0 1 336.73 2.16
  Q 324.66 23.11 312.78 43.67
  Q 310.48 47.65 305.49 48.51
  Q 298.95 49.63 294.63 42.10
  Q 282.71 21.31 271.88 2.68
  Q 271.50 2.02 272.26 2.02
  L 280.79 2.07
  Q 281.51 2.07 281.96 2.63
  Q 282.45 3.24 282.86 4.50
  Z"
/>
<path fill="#ea7632" d="
  M 389.34 2.21
  Q 388.30 2.93 387.00 2.93
  Q 369.63 2.89 352.27 2.86
  Q 348.18 2.86 346.45 3.75
  C 339.38 7.41 341.93 13.53 341.49 19.66
  Q 341.48 19.76 341.40 19.81
  Q 341.28 19.88 341.16 19.87
  Q 340.76 19.87 340.84 20.26
  L 341.22 22.22
  Q 341.31 22.69 341.55 23.11
  C 342.31 24.42 341.45 25.87 342.11 27.13
  Q 342.34 27.58 342.45 28.07
  L 343.11 30.79
  A 1.27 1.27 0.0 0 0 345.31 31.31
  L 348.22 27.86
  A 1.05 1.04 -65.0 0 1 349.17 27.51
  Q 350.41 27.72 351.71 27.45
  Q 353.37 27.10 355.36 27.11
  Q 363.67 27.15 372.50 27.09
  A 2.89 2.88 -82.1 0 0 375.24 25.01
  Q 375.55 23.96 376.10 23.07
  Q 377.06 21.53 375.24 21.58
  L 350.33 22.36
  A 2.42 2.42 0.0 0 1 348.00 20.80
  L 347.45 19.33
  Q 347.26 18.83 347.30 18.29
  C 347.43 16.19 346.89 12.24 348.07 10.59
  Q 349.29 8.88 351.75 8.83
  Q 365.47 8.53 380.52 9.41
  C 382.62 9.54 384.87 10.26 386.60 8.56
  Q 388.99 6.20 391.10 3.91
  Q 391.45 3.53 391.21 3.07
  Q 390.84 2.33 390.04 2.19
  L 394.49 2.05
  Q 395.54 2.02 394.79 2.75
  L 386.88 10.39
  Q 386.51 10.75 385.99 10.75
  L 350.45 10.73
  A 1.57 1.57 0.0 0 0 348.88 12.30
  L 348.88 20.17
  A 0.80 0.79 90.0 0 0 349.67 20.97
  L 380.12 20.97
  A 0.14 0.14 0.0 0 1 380.23 21.19
  L 374.18 29.28
  Q 373.97 29.57 373.62 29.57
  L 349.54 29.53
  Q 348.85 29.53 348.86 30.21
  L 348.89 38.35
  A 1.47 1.46 90.0 0 0 350.35 39.82
  L 392.98 39.76
  A 0.52 0.52 0.0 0 1 393.50 40.28
  L 393.51 47.97
  A 0.58 0.58 0.0 0 1 392.93 48.55
  Q 372.78 48.43 351.55 48.56
  C 345.21 48.60 340.14 44.81 340.20 38.21
  Q 340.31 25.96 340.17 12.70
  C 340.13 8.72 341.85 5.32 345.22 3.33
  Q 346.98 2.29 350.42 2.25
  Q 369.83 2.02 389.34 2.21
  Z"
/>
<path fill="#f59736" d="
  M 264.01 2.88
  L 263.96 48.18
  A 0.32 0.32 0.0 0 1 263.64 48.50
  L 255.68 48.48
  A 0.32 0.32 0.0 0 1 255.36 48.16
  L 255.29 11.13
  A 0.32 0.32 0.0 0 1 255.38 10.91
  L 263.46 2.65
  A 0.32 0.32 0.0 0 1 264.01 2.88
  Z"
/>
<path fill="#f6b731" d="
  M 389.34 2.21
  Q 389.75 2.35 390.04 2.19
  Q 390.84 2.33 391.21 3.07
  Q 391.45 3.53 391.10 3.91
  Q 388.99 6.20 386.60 8.56
  C 384.87 10.26 382.62 9.54 380.52 9.41
  Q 365.47 8.53 351.75 8.83
  Q 349.29 8.88 348.07 10.59
  C 346.89 12.24 347.43 16.19 347.30 18.29
  Q 347.26 18.83 347.45 19.33
  L 348.00 20.80
  A 2.42 2.42 0.0 0 0 350.33 22.36
  L 375.24 21.58
  Q 377.06 21.53 376.10 23.07
  Q 375.55 23.96 375.24 25.01
  A 2.89 2.88 -82.1 0 1 372.50 27.09
  Q 363.67 27.15 355.36 27.11
  Q 353.37 27.10 351.71 27.45
  Q 350.41 27.72 349.17 27.51
  A 1.05 1.04 -65.0 0 0 348.22 27.86
  L 345.31 31.31
  A 1.27 1.27 0.0 0 1 343.11 30.79
  L 342.45 28.07
  Q 342.34 27.58 342.11 27.13
  C 341.45 25.87 342.31 24.42 341.55 23.11
  Q 341.31 22.69 341.22 22.22
  L 340.84 20.26
  Q 340.76 19.87 341.16 19.87
  Q 341.28 19.88 341.40 19.81
  Q 341.48 19.76 341.49 19.66
  C 341.93 13.53 339.38 7.41 346.45 3.75
  Q 348.18 2.86 352.27 2.86
  Q 369.63 2.89 387.00 2.93
  Q 388.30 2.93 389.34 2.21
  Z"
/>
<path fill="#f1a430" d="
  M 282.86 4.50
  Q 283.77 5.31 283.77 5.99
  Q 283.77 6.40 284.11 6.63
  Q 284.77 7.07 284.89 7.86
  Q 284.92 8.09 284.68 8.07
  Q 284.42 8.05 284.24 8.30
  A 0.28 0.28 0.0 0 0 284.35 8.71
  Q 284.67 8.86 284.79 8.66
  Q 285.06 8.21 285.37 8.67
  Q 286.79 10.82 287.69 12.81
  Q 287.78 16.21 289.21 15.35
  L 295.26 25.82
  Q 294.41 27.14 295.59 29.27
  Q 296.70 31.23 297.26 32.75
  Q 297.78 34.12 298.42 35.06
  C 299.20 36.19 300.12 37.49 300.49 38.83
  Q 300.81 40.00 301.91 40.58
  Q 305.81 42.61 307.88 38.79
  Q 309.56 35.71 311.38 32.88
  Q 312.51 31.13 313.08 28.84
  Q 313.56 26.89 314.70 25.32
  Q 315.71 23.91 316.60 21.76
  Q 318.18 17.95 321.49 13.35
  Q 326.42 10.05 326.78 4.29
  Q 328.78 2.70 333.46 3.58
  A 1.06 1.05 -72.2 0 1 334.22 5.06
  Q 333.55 6.51 332.62 7.99
  C 332.17 8.70 331.49 8.96 331.21 9.74
  Q 330.36 12.13 328.64 13.84
  Q 327.54 14.95 326.77 16.46
  C 325.88 18.21 324.94 20.01 323.74 21.57
  Q 321.74 24.17 320.39 26.87
  Q 319.35 28.93 317.84 30.57
  Q 316.30 32.24 315.38 34.30
  Q 314.09 37.19 312.49 40.44
  Q 311.53 42.39 310.35 43.64
  C 309.29 44.77 308.31 46.29 306.82 46.83
  Q 304.00 47.86 301.83 46.76
  Q 298.60 45.13 296.27 40.94
  Q 292.94 34.92 289.76 29.96
  A 62.78 6.35 57.7 0 1 285.01 22.46
  Q 279.73 14.02 275.12 6.43
  Q 274.41 5.26 274.13 4.15
  A 0.69 0.68 -2.8 0 1 274.90 3.31
  L 282.86 4.50
  Z"
/>
<path fill="#f6b731" d="
  M 201.29 23.59
  Q 201.14 24.30 200.52 24.84
  Q 199.64 25.62 199.63 24.44
  L 199.51 4.85
  Q 199.50 3.71 200.65 3.69
  L 205.04 3.61
  A 1.05 1.05 0.0 0 1 206.11 4.61
  Q 206.38 10.78 206.10 16.92
  Q 206.03 18.45 205.39 19.94
  Q 204.69 21.57 203.67 23.04
  Q 202.81 24.28 201.62 23.46
  Q 201.36 23.27 201.29 23.59
  Z"
/>
<path fill="#fdc899" d="
  M 326.78 4.29
  Q 326.42 10.05 321.49 13.35
  L 326.78 4.29
  Z"
/>
<path fill="#b05a1b" fill-opacity="0.996" d="
  M 287.69 12.81
  Q 288.66 13.88 289.21 15.35
  Q 287.78 16.21 287.69 12.81
  Z"
/>
<path fill="#d2d2d2" d="
  M 404.78 44.98
  L 401.94 47.73
  A 1.43 1.43 0.0 0 1 399.74 47.48
  Q 399.10 46.49 397.95 46.19
  Q 397.53 46.08 397.60 45.66
  Q 397.90 44.01 397.60 42.49
  Q 397.49 41.96 398.03 41.89
  Q 398.63 41.82 398.80 41.26
  Q 398.95 40.75 399.49 40.74
  L 402.49 40.74
  Q 402.99 40.74 403.24 41.17
  Q 403.77 42.12 404.63 42.77
  A 1.45 1.45 0.0 0 1 404.78 44.98
  Z"
/>
<path fill="#f59736" d="
  M 471.55 66.11
  Q 473.84 68.78 475.49 71.37
  Q 476.77 73.38 476.86 75.35
  Q 477.67 93.06 473.96 108.05
  Q 472.31 114.69 468.74 120.32
  Q 467.34 122.52 464.84 124.07
  Q 463.06 125.18 460.98 124.69
  C 458.49 124.11 456.16 123.09 454.87 120.91
  Q 454.08 119.56 453.06 118.49
  Q 451.60 116.94 450.75 115.04
  Q 449.91 113.15 449.09 111.30
  Q 448.33 109.59 447.15 107.79
  Q 445.15 104.75 443.33 103.26
  Q 438.18 99.07 430.62 96.18
  Q 423.88 93.61 413.63 95.83
  L 413.26 93.86
  Q 413.16 93.37 412.77 93.08
  Q 412.51 92.89 412.38 92.58
  Q 412.16 92.04 412.67 91.76
  Q 413.88 91.09 415.24 91.46
  Q 415.62 91.56 415.63 91.17
  Q 415.63 91.03 415.52 90.92
  Q 415.43 90.82 415.56 90.80
  Q 421.75 89.59 426.65 90.56
  C 436.43 92.50 446.42 97.19 451.66 105.60
  Q 451.92 106.01 454.52 112.01
  Q 456.64 116.88 459.70 119.21
  Q 461.15 120.32 463.46 119.29
  Q 466.08 118.15 465.98 115.43
  Q 468.95 109.40 470.19 102.74
  Q 472.42 90.75 472.07 78.59
  C 472.03 77.27 471.23 75.90 471.69 74.69
  Q 471.88 74.19 471.57 73.76
  C 469.89 71.43 467.51 69.65 464.42 69.92
  C 461.66 70.17 458.99 70.40 456.24 69.76
  Q 453.24 69.07 450.33 68.05
  Q 450.05 67.96 449.69 67.95
  Q 449.30 67.95 449.04 67.86
  Q 448.32 66.94 446.09 66.25
  Q 439.34 63.51 437.48 61.48
  C 435.52 59.33 432.33 54.88 429.72 54.52
  Q 427.53 54.23 425.25 54.39
  Q 424.53 54.44 424.19 55.08
  Q 423.08 57.21 420.96 57.05
  Q 416.55 59.43 414.10 62.62
  A 2.24 2.24 0.0 0 1 412.12 63.49
  Q 408.08 63.11 403.51 63.14
  Q 378.59 63.28 354.25 63.12
  Q 294.98 62.75 244.75 63.10
  Q 234.69 63.18 224.75 63.18
  Q 159.42 63.19 92.25 63.20
  Q 51.89 63.21 0.71 63.10
  Q 0.45 63.10 0.33 62.86
  Q 0.25 62.69 0.00 62.63
  L 0.00 58.57
  L 15.97 58.48
  Q 14.56 59.14 12.66 58.90
  A 1.19 1.14 -54.8 0 0 11.90 59.05
  Q 11.75 59.13 11.57 59.18
  Q 10.64 59.46 11.58 59.72
  C 12.18 59.89 12.57 60.23 13.20 60.29
  Q 18.18 60.79 23.50 60.82
  C 51.02 61.02 78.45 60.47 106.25 60.02
  Q 109.02 59.98 112.00 60.08
  Q 112.54 60.10 113.07 59.97
  Q 113.77 59.79 114.43 59.95
  Q 115.29 60.15 116.17 60.15
  Q 168.52 60.07 220.87 59.82
  A 2.00 1.86 -55.9 0 0 221.70 59.63
  C 222.95 59.03 224.14 59.83 225.33 58.96
  Q 225.72 58.68 226.20 58.66
  L 230.96 58.52
  Q 320.11 58.49 409.25 58.51
  Q 411.11 58.51 411.89 57.64
  Q 416.17 52.89 421.10 48.79
  Q 421.48 48.47 421.98 48.44
  C 427.68 48.00 434.53 47.87 438.07 53.20
  C 440.46 56.80 443.12 58.68 447.15 60.21
  C 451.06 61.70 454.73 63.95 458.96 63.75
  Q 462.46 63.58 466.27 63.20
  Q 467.07 63.12 467.57 63.73
  Q 467.80 64.01 467.49 64.19
  Q 467.29 64.30 467.37 64.50
  Q 467.46 64.72 467.71 64.69
  Q 468.00 64.64 467.95 64.33
  A 0.19 0.19 0.0 0 1 468.19 64.12
  Q 470.41 64.80 471.55 66.11
  Z"
/>
<path fill="#b05a1b" fill-opacity="0.996" d="
  M 420.96 57.05
  Q 418.34 60.71 415.48 63.40
  Q 414.15 64.65 412.90 64.79
  C 411.73 64.93 410.24 64.57 408.98 64.58
  Q 382.89 64.75 356.97 64.59
  Q 349.85 64.55 344.05 64.59
  Q 340.14 64.63 336.23 64.63
  Q 169.10 64.62 1.87 64.63
  Q 0.78 64.63 0.00 63.62
  L 0.00 62.63
  Q 0.25 62.69 0.33 62.86
  Q 0.45 63.10 0.71 63.10
  Q 51.89 63.21 92.25 63.20
  Q 159.42 63.19 224.75 63.18
  Q 234.69 63.18 244.75 63.10
  Q 294.98 62.75 354.25 63.12
  Q 378.59 63.28 403.51 63.14
  Q 408.08 63.11 412.12 63.49
  A 2.24 2.24 0.0 0 0 414.10 62.62
  Q 416.55 59.43 420.96 57.05
  Z"
/>
<path fill="#fdc899" d="
  M 15.97 58.48
  L 230.96 58.52
  L 226.20 58.66
  Q 225.72 58.68 225.33 58.96
  C 224.14 59.83 222.95 59.03 221.70 59.63
  A 2.00 1.86 -55.9 0 1 220.87 59.82
  Q 168.52 60.07 116.17 60.15
  Q 115.29 60.15 114.43 59.95
  Q 113.77 59.79 113.07 59.97
  Q 112.54 60.10 112.00 60.08
  Q 109.02 59.98 106.25 60.02
  C 78.45 60.47 51.02 61.02 23.50 60.82
  Q 18.18 60.79 13.20 60.29
  C 12.57 60.23 12.18 59.89 11.58 59.72
  Q 10.64 59.46 11.57 59.18
  Q 11.75 59.13 11.90 59.05
  A 1.19 1.14 -54.8 0 1 12.66 58.90
  Q 14.56 59.14 15.97 58.48
  Z"
/>
<path fill="#fdc899" d="
  M 449.04 67.86
  L 448.95 69.12
  L 446.34 67.91
  Q 446.22 67.66 446.00 67.60
  Q 445.93 67.04 446.09 66.25
  Q 448.32 66.94 449.04 67.86
  Z"
/>
<path fill="#b05a1b" fill-opacity="0.996" d="
  M 471.55 66.11
  Q 475.01 68.14 476.99 71.17
  Q 478.25 73.10 478.28 75.41
  Q 478.38 83.40 478.10 90.65
  Q 478.02 92.83 477.56 95.80
  Q 477.20 98.11 477.20 100.97
  Q 477.21 101.49 476.90 101.95
  Q 476.61 102.37 476.56 102.88
  Q 476.34 105.27 475.70 107.50
  Q 474.93 110.21 474.00 113.03
  Q 472.02 119.01 468.15 123.54
  Q 466.92 124.98 464.47 125.80
  Q 462.66 126.40 460.87 125.91
  C 454.42 124.14 450.07 117.96 448.04 111.86
  C 445.04 102.85 435.21 98.59 426.66 96.64
  Q 422.05 95.58 416.25 97.43
  Q 414.26 98.06 413.63 95.83
  Q 423.88 93.61 430.62 96.18
  Q 438.18 99.07 443.33 103.26
  Q 445.15 104.75 447.15 107.79
  Q 448.33 109.59 449.09 111.30
  Q 449.91 113.15 450.75 115.04
  Q 451.60 116.94 453.06 118.49
  Q 454.08 119.56 454.87 120.91
  C 456.16 123.09 458.49 124.11 460.98 124.69
  Q 463.06 125.18 464.84 124.07
  Q 467.34 122.52 468.74 120.32
  Q 472.31 114.69 473.96 108.05
  Q 477.67 93.06 476.86 75.35
  Q 476.77 73.38 475.49 71.37
  Q 473.84 68.78 471.55 66.11
  Z"
/>
<path fill="#f59736" d="
  M 446.00 67.60
  Q 446.22 67.66 446.34 67.91
  Q 446.20 67.98 446.13 68.12
  Q 445.99 68.42 446.29 68.55
  Q 452.24 71.23 451.22 78.02
  Q 450.91 80.08 449.09 81.63
  Q 444.40 85.61 437.35 81.98
  Q 431.19 72.34 441.11 67.93
  Q 442.17 67.46 443.51 67.51
  Q 444.76 67.57 446.00 67.60
  Z
  M 442.40 78.77
  C 445.24 79.56 446.89 77.75 446.65 74.97
  Q 445.29 71.02 442.02 72.73
  C 440.22 73.67 439.63 75.32 440.06 77.24
  Q 440.52 79.30 442.40 78.77
  Z"
/>
<path fill="#b05a1b" fill-opacity="0.996" d="
  M 446.34 67.91
  L 448.95 69.12
  Q 452.34 71.84 452.88 76.45
  Q 452.94 76.97 452.69 77.42
  C 452.32 78.08 452.61 78.82 452.29 79.58
  Q 450.85 83.01 447.97 84.39
  Q 442.58 86.98 437.35 81.98
  Q 444.40 85.61 449.09 81.63
  Q 450.91 80.08 451.22 78.02
  Q 452.24 71.23 446.29 68.55
  Q 445.99 68.42 446.13 68.12
  Q 446.20 67.98 446.34 67.91
  Z"
/>
<path fill="#b05a1b" fill-opacity="0.996" d="
  M 446.65 74.97
  Q 445.43 73.62 444.04 73.38
  Q 443.47 73.28 443.30 73.83
  Q 443.10 74.46 442.43 74.33
  Q 441.82 74.20 441.60 74.79
  Q 440.58 77.53 442.40 78.77
  Q 440.52 79.30 440.06 77.24
  C 439.63 75.32 440.22 73.67 442.02 72.73
  Q 445.29 71.02 446.65 74.97
  Z"
/>
<path fill="#454a48" d="
  M 231.40 95.35
  C 228.69 92.97 228.99 88.99 229.41 85.52
  Q 229.88 81.60 232.56 80.62
  Q 235.04 79.71 237.68 79.71
  Q 247.99 79.68 258.34 79.79
  A 0.53 0.53 0.0 0 0 258.87 79.28
  L 259.09 73.97
  Q 259.00 73.46 259.84 73.67
  A 0.90 0.88 7.1 0 1 260.52 74.53
  L 260.52 80.74
  Q 260.52 81.27 260.00 81.27
  L 235.31 81.36
  Q 234.75 81.36 234.42 81.80
  Q 233.90 82.49 233.04 82.30
  Q 232.52 82.19 232.49 82.72
  Q 232.45 83.23 231.96 83.40
  Q 231.39 83.59 231.34 84.19
  Q 231.21 85.88 230.88 87.53
  Q 230.58 89.10 230.96 91.39
  Q 231.28 93.32 231.40 95.35
  Z"
/>
<path fill="#8f8f8f" d="
  M 179.26 78.21
  Q 182.02 86.35 180.83 95.07
  Q 180.43 93.93 179.63 93.19
  Q 179.28 92.86 178.80 92.89
  Q 176.89 93.00 176.20 94.76
  Q 176.02 95.21 175.57 95.43
  Q 175.12 95.65 174.75 96.08
  Q 174.39 94.19 174.51 92.25
  Q 174.52 92.02 173.99 91.59
  Q 173.77 91.30 174.48 91.03
  A 0.58 0.58 0.0 0 0 174.84 90.33
  Q 174.79 90.17 174.69 90.04
  Q 174.47 89.78 174.13 89.78
  Q 158.65 89.61 153.24 89.77
  Q 149.12 89.89 149.60 94.22
  Q 147.90 93.62 146.76 93.93
  Q 144.32 94.58 143.57 96.22
  L 143.77 90.31
  Q 143.79 89.82 144.28 89.83
  Q 144.45 89.83 144.61 89.72
  Q 144.77 89.61 144.77 89.42
  L 144.74 88.67
  Q 144.73 88.21 145.11 87.96
  Q 146.22 87.23 146.96 86.18
  Q 147.29 85.72 147.85 85.76
  Q 148.51 85.80 148.93 85.28
  Q 149.34 84.77 150.00 84.74
  L 152.23 84.63
  Q 152.63 84.61 152.82 84.26
  Q 152.90 84.11 153.05 84.03
  Q 153.23 83.94 153.43 83.93
  Q 162.15 83.79 171.32 83.92
  Q 171.79 83.93 171.94 83.49
  Q 172.14 82.90 171.95 81.88
  Q 172.84 82.17 173.35 82.03
  Q 174.03 81.85 173.44 81.46
  Q 170.95 79.81 167.26 79.75
  Q 156.92 79.57 147.00 79.78
  Q 146.03 79.81 145.61 78.45
  L 145.64 74.46
  Q 145.64 73.91 146.20 73.92
  Q 156.73 74.03 168.52 73.93
  Q 169.63 73.92 170.36 74.50
  Q 170.75 74.82 171.24 74.72
  Q 173.26 74.32 174.40 75.48
  Q 174.80 75.88 175.32 75.66
  Q 176.02 75.36 176.26 76.03
  Q 176.44 76.51 176.94 76.58
  Q 178.27 76.75 179.26 78.21
  Z"
/>
<path fill="#454a48" d="
  M 188.72 102.43
  Q 190.33 103.44 193.86 102.95
  A 0.86 0.85 84.5 0 0 194.59 102.06
  Q 194.09 93.00 194.55 83.98
  C 194.69 81.10 196.95 79.61 199.65 79.53
  Q 209.41 79.26 218.46 79.67
  A 0.42 0.42 0.0 0 0 218.90 79.26
  L 218.99 73.96
  Q 218.93 73.61 219.72 73.71
  Q 220.52 73.81 220.52 74.62
  L 220.53 80.73
  Q 220.53 81.24 220.02 81.24
  L 199.72 81.26
  Q 196.20 81.26 196.19 84.78
  L 196.17 103.68
  A 0.61 0.61 0.0 0 1 195.57 104.29
  L 189.50 104.32
  Q 188.29 104.33 188.33 103.12
  Q 188.34 102.70 188.72 102.43
  Z"
/>
<path fill="#8f8f8f" d="
  M 301.66 78.60
  Q 303.73 84.59 302.99 90.80
  Q 298.78 88.20 296.93 91.76
  L 274.63 92.07
  Q 274.10 92.07 273.95 92.58
  Q 273.44 94.34 274.04 96.64
  Q 273.53 96.56 273.17 96.25
  Q 272.56 93.90 273.04 92.64
  Q 273.65 91.04 275.36 91.05
  L 296.76 91.15
  A 0.35 0.34 -5.5 0 0 297.10 90.74
  L 297.03 90.31
  Q 296.93 89.76 296.36 89.76
  Q 286.86 89.75 275.71 89.74
  Q 274.20 89.74 273.06 90.45
  Q 270.72 91.92 272.38 96.00
  Q 272.09 95.97 271.84 95.81
  Q 271.41 95.54 271.37 95.04
  Q 271.31 94.32 270.69 93.96
  Q 268.38 92.63 266.64 94.64
  Q 266.30 95.03 266.38 95.55
  L 266.83 98.50
  Q 266.21 98.13 266.17 98.27
  Q 265.71 97.81 265.68 97.00
  Q 265.55 93.76 265.75 90.49
  A 0.71 0.71 0.0 0 1 266.26 89.85
  Q 266.95 89.63 266.77 88.91
  A 0.91 0.91 0.0 0 1 267.15 87.95
  Q 268.19 87.24 268.93 86.21
  A 1.10 1.09 -69.1 0 1 269.92 85.76
  Q 270.55 85.82 270.91 85.30
  A 1.17 1.17 0.0 0 1 271.62 84.82
  Q 272.78 84.57 274.01 84.74
  Q 274.57 84.82 274.82 84.30
  Q 274.90 84.14 275.06 84.04
  Q 275.23 83.94 275.43 83.94
  Q 284.62 83.80 294.37 83.92
  Q 294.81 83.93 294.93 83.51
  Q 295.08 83.03 294.96 82.19
  Q 295.29 82.31 295.34 81.93
  Q 295.40 81.52 295.08 81.24
  Q 293.44 79.87 291.25 79.81
  Q 280.13 79.48 269.00 79.71
  Q 268.19 79.73 267.62 79.47
  L 267.76 74.41
  Q 267.78 73.95 268.24 73.95
  L 291.56 73.95
  Q 291.85 73.95 292.04 74.18
  L 292.25 74.43
  Q 292.42 74.64 292.69 74.65
  L 295.21 74.73
  Q 295.76 74.75 296.08 75.20
  Q 296.66 75.99 297.58 75.65
  Q 298.17 75.43 298.24 76.05
  Q 298.34 76.85 299.13 76.63
  Q 299.70 76.46 300.11 76.91
  L 301.66 78.60
  Z"
/>
<path fill="#8f8f8f" d="
  M 344.92 76.57
  Q 345.55 77.62 346.46 78.54
  Q 347.47 79.56 347.79 80.54
  Q 350.10 87.54 348.04 95.20
  Q 347.73 94.23 347.86 93.89
  A 0.80 0.80 0.0 0 0 346.88 92.85
  Q 343.92 93.75 341.46 96.19
  Q 343.16 89.69 341.63 83.60
  Q 341.89 80.93 338.72 80.17
  Q 335.95 79.51 335.00 79.51
  Q 326.84 79.47 318.52 79.48
  A 1.17 1.16 0.8 0 0 317.35 80.61
  L 317.22 85.54
  L 311.33 85.92
  L 311.60 74.40
  Q 311.61 73.91 312.10 73.91
  Q 324.19 73.99 335.49 73.90
  Q 336.62 73.89 337.20 74.38
  Q 337.57 74.70 338.06 74.66
  Q 341.66 74.42 344.92 76.57
  Z"
/>
<path fill="#8f8f8f" d="
  M 218.99 73.96
  L 218.90 79.26
  A 0.42 0.42 0.0 0 1 218.46 79.67
  Q 209.41 79.26 199.65 79.53
  C 196.95 79.61 194.69 81.10 194.55 83.98
  Q 194.09 93.00 194.59 102.06
  A 0.86 0.85 84.5 0 1 193.86 102.95
  Q 190.33 103.44 188.72 102.43
  L 188.66 82.47
  Q 188.66 81.96 189.15 81.78
  Q 190.18 81.41 189.59 80.34
  Q 189.36 79.93 189.77 79.70
  Q 190.00 79.58 190.23 79.72
  A 0.29 0.29 0.0 0 0 190.63 79.59
  Q 190.81 79.22 190.69 78.82
  Q 190.49 78.17 191.13 77.93
  Q 191.69 77.72 191.92 77.16
  Q 192.15 76.58 192.76 76.70
  Q 193.58 76.87 193.75 76.08
  Q 193.90 75.42 194.53 75.67
  Q 195.36 76.00 195.75 75.24
  Q 196.10 74.57 196.84 74.72
  Q 198.06 74.98 199.02 74.29
  A 1.64 1.64 0.0 0 1 199.98 73.98
  L 218.99 73.96
  Z"
/>
<path fill="#8f8f8f" d="
  M 259.09 73.97
  L 258.87 79.28
  A 0.53 0.53 0.0 0 1 258.34 79.79
  Q 247.99 79.68 237.68 79.71
  Q 235.04 79.71 232.56 80.62
  Q 229.88 81.60 229.41 85.52
  C 228.99 88.99 228.69 92.97 231.40 95.35
  Q 231.08 95.92 232.49 95.63
  Q 233.11 95.50 233.28 96.77
  Q 227.77 94.52 225.67 97.86
  Q 224.89 97.10 224.56 95.25
  Q 223.56 93.85 223.59 92.28
  C 223.85 90.25 222.19 88.89 223.41 86.72
  A 0.83 0.82 -28.1 0 0 223.53 86.33
  L 223.78 82.75
  Q 223.81 82.24 224.23 81.95
  Q 224.78 81.56 224.76 80.93
  Q 224.75 80.42 225.11 80.05
  L 228.14 76.97
  A 0.84 0.80 -62.9 0 1 228.82 76.73
  Q 229.59 76.81 229.78 76.05
  A 0.49 0.49 0.0 0 1 230.38 75.69
  Q 231.27 75.92 231.84 75.25
  Q 232.41 74.59 233.28 74.71
  Q 234.86 74.93 236.06 74.23
  Q 236.49 73.97 237.00 73.97
  L 259.09 73.97
  Z"
/>
<path fill="#8f8f8f" d="
  M 391.59 76.97
  Q 393.23 83.10 392.17 87.23
  C 391.17 91.17 385.99 92.83 382.24 92.83
  Q 372.95 92.83 363.07 92.79
  Q 362.05 92.79 362.00 93.80
  Q 361.93 95.02 363.75 95.68
  Q 364.26 95.86 363.96 96.53
  Q 363.04 96.05 362.14 95.51
  Q 361.13 94.92 360.22 94.82
  Q 357.24 94.52 356.53 96.17
  Q 356.56 96.32 356.60 96.47
  Q 355.21 96.18 355.49 94.49
  Q 355.65 93.50 355.09 92.82
  Q 354.77 92.43 354.78 91.92
  L 354.79 85.59
  Q 354.79 85.18 355.13 84.94
  L 355.40 84.76
  Q 355.61 84.61 355.63 84.35
  L 355.71 82.32
  Q 355.73 81.92 356.07 81.73
  Q 356.66 81.40 356.72 80.76
  Q 356.77 80.24 357.08 79.82
  Q 360.41 75.36 365.92 74.65
  Q 366.36 74.59 366.80 74.65
  Q 367.36 74.73 367.74 74.32
  Q 368.06 73.96 368.55 73.96
  L 383.26 73.95
  Q 383.78 73.95 384.16 74.30
  Q 384.26 74.39 384.36 74.49
  Q 384.48 74.62 384.66 74.62
  L 387.42 74.73
  Q 387.92 74.75 388.14 75.20
  Q 388.45 75.83 389.08 75.68
  Q 389.51 75.57 389.94 75.70
  Q 390.31 75.81 390.34 76.22
  Q 390.39 76.73 390.91 76.74
  Q 391.52 76.74 391.59 76.97
  Z
  M 362.99 85.64
  Q 362.95 86.07 363.06 86.37
  Q 363.20 86.75 363.60 86.75
  L 384.48 86.71
  A 1.82 1.80 7.5 0 0 386.23 85.38
  Q 386.70 83.67 385.39 81.82
  Q 386.93 80.91 384.96 80.09
  Q 384.31 79.82 383.60 79.77
  Q 375.51 79.16 367.22 79.83
  Q 361.84 80.27 361.04 85.26
  Q 360.79 86.81 362.02 85.84
  Q 362.21 85.69 362.99 85.64
  Z"
/>
<path fill="#454a48" d="
  M 311.12 102.83
  Q 331.12 102.95 337.38 102.63
  Q 345.28 102.22 348.04 95.20
  Q 350.10 87.54 347.79 80.54
  Q 347.47 79.56 346.46 78.54
  Q 345.55 77.62 344.92 76.57
  Q 349.22 79.04 350.16 85.26
  Q 351.12 91.71 349.13 96.72
  Q 347.16 101.65 342.29 103.16
  Q 341.26 103.48 340.22 103.85
  Q 339.19 104.22 338.12 104.23
  Q 325.18 104.36 312.25 104.29
  Q 310.86 104.28 311.12 102.83
  Z"
/>
<path fill="#454a48" d="
  M 391.59 76.97
  Q 396.80 84.35 392.01 90.75
  Q 390.77 92.40 388.94 93.02
  Q 387.75 93.43 386.47 93.82
  Q 385.20 94.21 383.96 94.23
  Q 374.54 94.34 364.91 94.20
  Q 364.43 94.19 364.29 94.65
  Q 364.04 95.52 364.24 96.80
  Q 363.91 96.29 363.96 96.53
  Q 364.26 95.86 363.75 95.68
  Q 361.93 95.02 362.00 93.80
  Q 362.05 92.79 363.07 92.79
  Q 372.95 92.83 382.24 92.83
  C 385.99 92.83 391.17 91.17 392.17 87.23
  Q 393.23 83.10 391.59 76.97
  Z"
/>
<path fill="#454a48" d="
  M 179.26 78.21
  Q 182.33 81.35 182.42 87.53
  Q 182.54 95.57 182.45 103.77
  Q 182.44 104.29 181.92 104.30
  Q 167.30 104.35 153.59 104.27
  Q 152.33 104.26 151.09 103.81
  Q 149.90 103.38 148.74 102.96
  Q 145.02 101.64 144.63 98.68
  Q 148.40 102.71 153.00 102.75
  Q 166.82 102.87 180.50 102.85
  A 0.51 0.50 -1.1 0 0 181.01 102.33
  L 180.83 95.07
  Q 182.02 86.35 179.26 78.21
  Z"
/>
<path fill="#454a48" d="
  M 145.61 78.45
  Q 146.03 79.81 147.00 79.78
  Q 156.92 79.57 167.26 79.75
  Q 170.95 79.81 173.44 81.46
  Q 174.03 81.85 173.35 82.03
  Q 172.84 82.17 171.95 81.88
  Q 170.51 81.33 168.50 81.32
  Q 157.62 81.25 146.29 81.32
  A 0.95 0.95 0.0 0 1 145.35 80.23
  L 145.61 78.45
  Z"
/>
<path fill="#454a48" d="
  M 301.66 78.60
  Q 304.27 81.11 304.42 84.36
  Q 304.71 90.66 304.47 103.78
  Q 304.46 104.32 303.92 104.32
  Q 289.10 104.30 276.02 104.31
  C 274.26 104.31 272.72 103.65 271.09 103.09
  Q 267.23 101.78 266.17 98.27
  Q 266.21 98.13 266.83 98.50
  Q 270.10 102.74 274.99 102.78
  Q 288.74 102.89 302.33 102.90
  A 0.86 0.86 0.0 0 0 303.19 102.03
  L 302.99 90.80
  Q 303.73 84.59 301.66 78.60
  Z"
/>
<path fill="#454a48" d="
  M 267.62 79.47
  Q 268.19 79.73 269.00 79.71
  Q 280.13 79.48 291.25 79.81
  Q 293.44 79.87 295.08 81.24
  Q 295.40 81.52 295.34 81.93
  Q 295.29 82.31 294.96 82.19
  Q 293.30 81.33 290.87 81.31
  Q 279.81 81.22 268.64 81.34
  A 1.32 1.32 0.0 0 1 267.30 80.02
  Q 267.30 79.98 267.62 79.47
  Z"
/>
<path fill="#454a48" d="
  M 341.63 83.60
  L 339.53 81.94
  Q 339.26 81.25 338.24 81.13
  Q 336.12 80.90 334.95 81.49
  L 320.23 81.52
  A 1.08 1.07 0.0 0 0 319.15 82.59
  L 319.18 96.72
  Q 317.52 97.51 317.37 96.13
  Q 317.12 93.81 317.22 85.54
  L 317.35 80.61
  A 1.17 1.16 0.8 0 1 318.52 79.48
  Q 326.84 79.47 335.00 79.51
  Q 335.95 79.51 338.72 80.17
  Q 341.89 80.93 341.63 83.60
  Z"
/>
<path fill="#454a48" d="
  M 385.39 81.82
  Q 378.17 81.25 368.77 81.62
  Q 364.01 81.80 362.99 85.64
  Q 362.21 85.69 362.02 85.84
  Q 360.79 86.81 361.04 85.26
  Q 361.84 80.27 367.22 79.83
  Q 375.51 79.16 383.60 79.77
  Q 384.31 79.82 384.96 80.09
  Q 386.93 80.91 385.39 81.82
  Z"
/>
<path fill="#8f8f8f" d="
  M 339.53 81.94
  L 334.95 81.49
  Q 336.12 80.90 338.24 81.13
  Q 339.26 81.25 339.53 81.94
  Z"
/>
<path fill="#d2d2d2" d="
  M 317.22 85.54
  Q 317.12 93.81 317.37 96.13
  Q 317.52 97.51 319.18 96.72
  Q 331.02 97.50 341.46 96.19
  Q 343.92 93.75 346.88 92.85
  A 0.80 0.80 0.0 0 1 347.86 93.89
  Q 347.73 94.23 348.04 95.20
  Q 345.28 102.22 337.38 102.63
  Q 331.12 102.95 311.12 102.83
  L 311.33 85.92
  L 317.22 85.54
  Z"
/>
<path fill="#454a48" d="
  M 173.99 91.59
  L 157.43 91.55
  Q 154.59 90.46 151.94 91.34
  Q 151.46 91.50 151.20 91.93
  Q 150.59 92.95 151.34 93.38
  L 151.83 96.64
  Q 149.88 96.31 149.60 94.22
  Q 149.12 89.89 153.24 89.77
  Q 158.65 89.61 174.13 89.78
  Q 174.47 89.78 174.69 90.04
  Q 174.79 90.17 174.84 90.33
  A 0.58 0.58 0.0 0 1 174.48 91.03
  Q 173.77 91.30 173.99 91.59
  Z"
/>
<path fill="#454a48" d="
  M 273.17 96.25
  Q 272.75 95.99 272.38 96.00
  Q 270.72 91.92 273.06 90.45
  Q 274.20 89.74 275.71 89.74
  Q 286.86 89.75 296.36 89.76
  Q 296.93 89.76 297.03 90.31
  L 297.10 90.74
  A 0.35 0.34 -5.5 0 1 296.76 91.15
  L 275.36 91.05
  Q 273.65 91.04 273.04 92.64
  Q 272.56 93.90 273.17 96.25
  Z"
/>
<path fill="#d2d2d2" d="
  M 302.99 90.80
  L 303.19 102.03
  A 0.86 0.86 0.0 0 1 302.33 102.90
  Q 288.74 102.89 274.99 102.78
  Q 270.10 102.74 266.83 98.50
  L 266.38 95.55
  Q 266.30 95.03 266.64 94.64
  Q 268.38 92.63 270.69 93.96
  Q 271.31 94.32 271.37 95.04
  Q 271.41 95.54 271.84 95.81
  Q 272.09 95.97 272.38 96.00
  Q 272.75 95.99 273.17 96.25
  Q 273.53 96.56 274.04 96.64
  L 296.25 96.75
  Q 296.75 96.76 296.77 96.25
  L 296.93 91.76
  Q 298.78 88.20 302.99 90.80
  Z"
/>
<path fill="#8f8f8f" d="
  M 157.43 91.55
  Q 152.19 91.25 151.34 93.38
  Q 150.59 92.95 151.20 91.93
  Q 151.46 91.50 151.94 91.34
  Q 154.59 90.46 157.43 91.55
  Z"
/>
<path fill="#454a48" d="
  M 223.59 92.28
  Q 223.56 93.85 224.56 95.25
  Q 224.33 95.30 224.14 95.30
  Q 223.61 95.31 223.61 94.77
  L 223.59 92.28
  Z"
/>
<path fill="#d2d2d2" d="
  M 180.83 95.07
  L 181.01 102.33
  A 0.51 0.50 -1.1 0 1 180.50 102.85
  Q 166.82 102.87 153.00 102.75
  Q 148.40 102.71 144.63 98.68
  Q 143.61 98.39 143.57 96.22
  Q 144.32 94.58 146.76 93.93
  Q 147.90 93.62 149.60 94.22
  Q 149.88 96.31 151.83 96.64
  L 174.45 96.74
  Q 174.80 96.74 174.84 96.38
  Q 174.85 96.21 174.75 96.08
  Q 175.12 95.65 175.57 95.43
  Q 176.02 95.21 176.20 94.76
  Q 176.89 93.00 178.80 92.89
  Q 179.28 92.86 179.63 93.19
  Q 180.43 93.93 180.83 95.07
  Z"
/>
<path fill="#d2d2d2" d="
  M 363.96 96.53
  Q 363.91 96.29 364.24 96.80
  L 390.99 96.94
  L 391.39 101.62
  Q 391.49 102.82 390.29 102.83
  Q 379.04 102.96 368.22 102.79
  Q 363.20 102.71 358.88 99.64
  Q 358.13 99.10 356.53 96.17
  Q 357.24 94.52 360.22 94.82
  Q 361.13 94.92 362.14 95.51
  Q 363.04 96.05 363.96 96.53
  Z"
/>
<path fill="#454a48" d="
  M 224.56 95.25
  Q 224.89 97.10 225.67 97.86
  C 228.75 101.81 233.54 102.89 238.25 102.85
  Q 248.67 102.76 258.35 102.88
  A 0.73 0.72 90.0 0 0 259.08 102.14
  L 258.95 96.94
  Q 259.55 96.37 260.16 97.06
  Q 260.54 97.50 260.53 98.09
  Q 260.51 101.02 260.54 103.68
  Q 260.55 104.25 259.98 104.26
  Q 249.00 104.43 238.04 104.21
  Q 233.77 104.12 231.48 103.25
  C 228.41 102.09 223.77 99.12 224.56 95.25
  Z"
/>
<path fill="#d2d2d2" d="
  M 233.28 96.77
  L 258.95 96.94
  L 259.08 102.14
  A 0.73 0.72 90.0 0 1 258.35 102.88
  Q 248.67 102.76 238.25 102.85
  C 233.54 102.89 228.75 101.81 225.67 97.86
  Q 227.77 94.52 233.28 96.77
  Z"
/>
<path fill="#454a48" d="
  M 356.60 96.47
  Q 356.56 96.32 356.53 96.17
  Q 358.13 99.10 358.88 99.64
  Q 363.20 102.71 368.22 102.79
  Q 379.04 102.96 390.29 102.83
  Q 391.49 102.82 391.39 101.62
  L 390.99 96.94
  Q 392.21 96.15 392.80 97.76
  Q 393.72 100.26 392.67 103.80
  Q 392.52 104.29 392.01 104.30
  Q 379.66 104.35 367.76 104.26
  C 366.41 104.25 365.06 103.64 363.73 103.31
  Q 358.85 102.11 356.43 97.61
  Q 356.15 97.09 356.60 96.47
  Z"
/>
<path fill="#b05a1b" fill-opacity="0.996" d="
  M 465.98 115.43
  Q 466.08 118.15 463.46 119.29
  L 465.98 115.43
  Z"
/>
</svg>
